<svg width="28" height="28" viewBox="0 0 28 28" fill="none" xmlns="http://www.w3.org/2000/svg"><path d="M10.501 14a1.167 1.167 0 11-2.333 0 1.167 1.167 0 012.333 0zm9.332 0a1.167 1.167 0 11-2.333 0 1.167 1.167 0 012.333 0z" fill="#8556FC"/><path fill-rule="evenodd" clip-rule="evenodd" d="M14 1.167A5.833 5.833 0 008.167 7v1.167H3.5v17.5h21v-17.5h-4.667V7A5.833 5.833 0 0014 1.167zm0 1.75A4.083 4.083 0 009.917 7v1.167h8.166V7A4.083 4.083 0 0014 2.917zm-8.75 7v14h17.5v-14H5.25z" fill="#8556FC"/></svg>