<svg width="28" height="28" viewBox="0 0 28 28" fill="none" xmlns="http://www.w3.org/2000/svg"><path fill-rule="evenodd" clip-rule="evenodd" d="M10.23 4.442a.875.875 0 01.848.23l6.264 6.32 5.144-1.38a3.208 3.208 0 111.66 6.199L6.722 20.48 1.17 14.22a.875.875 0 01.428-1.426l3.38-.906a.875.875 0 01.764.155L7.77 13.62l2.337-.67-3.782-6.307a.875.875 0 01.524-1.295l3.381-.906zM8.423 6.738l4.357 7.267-5.383 1.542-2.386-1.856-1.593.427 3.895 4.392 16.38-4.39a1.458 1.458 0 00-.754-2.817l-6.125 1.641-6.621-6.68-1.77.474zM2.625 23.625h22.75v1.75H2.625v-1.75z" fill="#8556FC"/></svg>