<svg width="28" height="28" viewBox="0 0 28 28" fill="none" xmlns="http://www.w3.org/2000/svg"><path fill-rule="evenodd" clip-rule="evenodd" d="M24.19 5.778a7.02 7.02 0 00-4.96-2.051 7.3 7.3 0 00-5.07 2.082l-.16.15-.16-.15a7.3 7.3 0 00-5.07-2.082 7.02 7.02 0 00-7.02 7.007c0 3.773 1.384 5.573 7.57 10.461L14 24.827l4.68-3.632c6.186-4.888 7.57-6.688 7.57-10.461a7.02 7.02 0 00-2.06-4.956zM12.617 7.06l.011.011L14 8.365l1.372-1.294.011-.011a5.55 5.55 0 013.852-1.583 5.27 5.27 0 015.265 5.259c0 1.595-.272 2.605-1.129 3.778-.958 1.312-2.662 2.847-5.77 5.303L14 22.612l-3.6-2.795c-3.109-2.456-4.813-3.991-5.771-5.303C3.772 13.341 3.5 12.33 3.5 10.735a5.27 5.27 0 015.265-5.258 5.55 5.55 0 013.852 1.583z" fill="#4070F4"/></svg>