<svg width="28" height="29" viewBox="0 0 28 29" fill="none" xmlns="http://www.w3.org/2000/svg"><path fill-rule="evenodd" clip-rule="evenodd" d="M3.207 9.358a6.125 6.125 0 016.125-6.125h9.333a6.125 6.125 0 016.125 6.125v9.334a6.125 6.125 0 01-6.125 6.125H9.332a6.125 6.125 0 01-6.125-6.125V9.358zm6.125-4.375a4.375 4.375 0 00-4.375 4.375v9.334a4.375 4.375 0 004.375 4.375h9.333a4.375 4.375 0 004.375-4.375V9.358a4.375 4.375 0 00-4.375-4.375H9.332z" fill="#4070F4"/><path fill-rule="evenodd" clip-rule="evenodd" d="M13.997 9.941a4.083 4.083 0 100 8.167 4.083 4.083 0 000-8.167zm-5.833 4.084a5.833 5.833 0 1111.667 0 5.833 5.833 0 01-11.667 0z" fill="#4070F4"/><path d="M20.414 7.9a.875.875 0 11-1.75 0 .875.875 0 011.75 0z" fill="#4070F4"/></svg>