<svg width="52" height="52" viewBox="0 0 52 52" fill="none" xmlns="http://www.w3.org/2000/svg"><path fill-rule="evenodd" clip-rule="evenodd" d="M52 0H0v52h13.975V24.595H6.402l5.31-7.399H21.4V52h12.698c-4.9-2.023-8-6.937-8-13.103v-8.194c0-8.144 5.408-14.103 13.227-14.103 6.378 0 11.165 4.017 12.675 9.962V0zm0 43.038c-1.063 4.187-3.752 7.417-7.477 8.962H52v-8.962zm-6.922-4.141c0 4.22-2.36 6.704-5.754 6.704-3.441 0-5.802-2.483-5.802-6.704v-8.194c0-4.22 2.36-6.704 5.803-6.704 3.392 0 5.752 2.483 5.752 6.704v8.194z" fill="#fff"/></svg>