<svg width="28" height="28" viewBox="0 0 28 28" fill="none" xmlns="http://www.w3.org/2000/svg"><path fill-rule="evenodd" clip-rule="evenodd" d="M7.874 9.917a4.375 4.375 0 114.148-2.98l7.166 4.155a4.375 4.375 0 110 5.815l-7.166 4.157a4.375 4.375 0 11-.879-1.513l7.166-4.156A4.372 4.372 0 0118.082 14c0-.488.08-.956.227-1.394l-7.166-4.157a4.364 4.364 0 01-3.27 1.468zM5.249 5.542a2.625 2.625 0 105.25 0 2.625 2.625 0 00-5.25 0zm17.208 11.083a2.625 2.625 0 110-5.25 2.625 2.625 0 010 5.25zM7.874 25.083a2.625 2.625 0 110-5.25 2.625 2.625 0 010 5.25z" fill="#8556FC"/></svg>