<svg width="75" height="96" viewBox="0 0 75 96" fill="none" xmlns="http://www.w3.org/2000/svg"><g clip-path="url(#clip0_1572_6479)" fill="#969AFF"><path d="M68.014 69.045a2.003 2.003 0 002.002-2.004 2.003 2.003 0 10-4.004 0c0 1.107.896 2.004 2.002 2.004zm-10.577.249a2.25 2.25 0 002.25-2.252 2.25 2.25 0 00-2.25-2.252 2.25 2.25 0 00-2.25 2.252 2.25 2.25 0 002.25 2.252zm-10.577.252c1.38 0 2.5-1.121 2.5-2.504a2.502 2.502 0 00-2.5-2.503 2.5 2.5 0 00-2.5 2.503 2.502 2.502 0 002.5 2.504zm-10.585.246a2.75 2.75 0 002.748-2.751 2.75 2.75 0 00-2.748-2.751 2.75 2.75 0 00-2.748 2.75 2.75 2.75 0 002.748 2.752zm-10.576.249a2.997 2.997 0 002.995-2.999 2.997 2.997 0 00-2.995-2.999 2.997 2.997 0 00-2.996 3A2.997 2.997 0 0025.7 70.04zm-10.581.247a3.245 3.245 0 003.243-3.246 3.245 3.245 0 00-3.243-3.248 3.245 3.245 0 00-3.243 3.248 3.245 3.245 0 003.243 3.246zm-10.576.249a3.493 3.493 0 003.49-3.495 3.493 3.493 0 00-3.49-3.495 3.493 3.493 0 00-3.491 3.495 3.493 3.493 0 003.49 3.495zM68.014 5.498a2.003 2.003 0 002.002-2.004 2.003 2.003 0 10-2.002 2.004zm-10.577.25a2.25 2.25 0 002.25-2.253 2.25 2.25 0 00-2.25-2.252 2.25 2.25 0 00-2.25 2.252 2.25 2.25 0 002.25 2.253zm-10.577.25c1.38 0 2.5-1.12 2.5-2.503A2.502 2.502 0 0046.86.99a2.502 2.502 0 00-2.5 2.504 2.502 2.502 0 002.5 2.503zm-10.585.247a2.75 2.75 0 002.748-2.751A2.75 2.75 0 0036.275.743a2.75 2.75 0 00-2.748 2.751 2.75 2.75 0 002.748 2.751zm-10.576.249a2.997 2.997 0 002.995-2.999A2.997 2.997 0 0025.699.496a2.997 2.997 0 00-2.996 3 2.997 2.997 0 002.996 2.998zm-10.581.248a3.245 3.245 0 003.243-3.247A3.245 3.245 0 0015.118.248a3.245 3.245 0 00-3.243 3.247 3.245 3.245 0 003.243 3.247zM4.542 6.99a3.493 3.493 0 003.49-3.495A3.493 3.493 0 004.543 0 3.493 3.493 0 001.05 3.495 3.493 3.493 0 004.54 6.99zm63.472 9.102a2.003 2.003 0 002.002-2.005 2.003 2.003 0 10-2.002 2.005zm-10.577.246a2.25 2.25 0 002.25-2.253 2.25 2.25 0 00-2.25-2.252 2.25 2.25 0 00-2.25 2.252 2.25 2.25 0 002.25 2.253zm-10.577.252c1.38 0 2.5-1.122 2.5-2.504a2.502 2.502 0 00-2.5-2.503 2.5 2.5 0 00-2.5 2.503 2.502 2.502 0 002.5 2.503zm-10.585.247a2.75 2.75 0 002.748-2.75 2.75 2.75 0 00-2.748-2.752 2.75 2.75 0 00-2.748 2.751 2.75 2.75 0 002.748 2.751zm-10.576.247a2.997 2.997 0 002.995-2.998c0-1.657-1.341-3-2.995-3a2.997 2.997 0 00-2.996 3 2.997 2.997 0 002.996 2.998zm-10.581.25a3.245 3.245 0 003.243-3.247 3.245 3.245 0 00-3.243-3.247 3.245 3.245 0 00-3.243 3.247 3.245 3.245 0 003.243 3.247zm-10.576.246a3.493 3.493 0 003.49-3.495 3.493 3.493 0 00-3.49-3.495 3.493 3.493 0 00-3.491 3.495 3.493 3.493 0 003.49 3.495zm63.472 9.1a2.003 2.003 0 002.002-2.003 2.003 2.003 0 10-2.002 2.004zm-10.577.25a2.251 2.251 0 002.25-2.253 2.25 2.25 0 00-2.25-2.252 2.25 2.25 0 00-2.25 2.252 2.25 2.25 0 002.25 2.252zm-10.577.25c1.38 0 2.5-1.12 2.5-2.503a2.502 2.502 0 00-2.5-2.503 2.5 2.5 0 00-2.5 2.503 2.502 2.502 0 002.5 2.503zm-10.585.248a2.75 2.75 0 002.748-2.752 2.75 2.75 0 00-2.748-2.75 2.75 2.75 0 00-2.748 2.75 2.75 2.75 0 002.748 2.752zm-10.576.247a2.997 2.997 0 002.995-3 2.997 2.997 0 00-2.995-2.998 2.997 2.997 0 00-2.996 2.999 2.997 2.997 0 002.996 2.999zm-10.581.248a3.245 3.245 0 003.243-3.247 3.245 3.245 0 00-3.243-3.247 3.245 3.245 0 00-3.243 3.247 3.245 3.245 0 003.243 3.247zm-10.576.249a3.493 3.493 0 003.49-3.495 3.493 3.493 0 00-3.49-3.495 3.493 3.493 0 00-3.491 3.495 3.493 3.493 0 003.49 3.495zm63.472 9.099a2.003 2.003 0 002.002-2.004 2.003 2.003 0 10-2.002 2.004zm-10.577.249a2.251 2.251 0 002.25-2.252 2.25 2.25 0 00-2.25-2.252 2.25 2.25 0 00-2.25 2.252 2.251 2.251 0 002.25 2.253zm-10.577.252c1.38 0 2.5-1.12 2.5-2.503a2.502 2.502 0 00-2.5-2.504 2.502 2.502 0 00-2.5 2.504 2.502 2.502 0 002.5 2.503zm-10.585.246a2.75 2.75 0 002.748-2.751 2.75 2.75 0 00-2.748-2.751 2.75 2.75 0 00-2.748 2.75 2.75 2.75 0 002.748 2.752zm-10.576.249a2.997 2.997 0 002.995-2.999A2.997 2.997 0 0025.7 32.27a2.997 2.997 0 00-2.996 3 2.997 2.997 0 002.996 2.998zm-10.581.248a3.245 3.245 0 003.243-3.247 3.245 3.245 0 00-3.243-3.248 3.245 3.245 0 00-3.243 3.248 3.245 3.245 0 003.243 3.247zm-10.576.249a3.493 3.493 0 003.49-3.495 3.493 3.493 0 00-3.49-3.495 3.493 3.493 0 00-3.491 3.495 3.493 3.493 0 003.49 3.495zm63.472 9.101a2.003 2.003 0 002.002-2.005 2.003 2.003 0 10-4.004 0c0 1.107.896 2.005 2.002 2.005zm-10.577.245a2.25 2.25 0 002.25-2.252 2.25 2.25 0 00-2.25-2.252 2.25 2.25 0 00-2.25 2.252 2.25 2.25 0 002.25 2.253zm-10.663.723c1.38 0 2.5-1.121 2.5-2.503a2.502 2.502 0 00-2.5-2.504 2.502 2.502 0 00-2.5 2.504 2.502 2.502 0 002.5 2.503zm-10.499-.222a2.75 2.75 0 002.748-2.75 2.75 2.75 0 00-2.748-2.752 2.75 2.75 0 00-2.748 2.751 2.75 2.75 0 002.748 2.751zm-10.576.247a2.997 2.997 0 002.995-3A2.997 2.997 0 0025.7 42.86a2.997 2.997 0 00-2.996 2.999 2.997 2.997 0 002.996 2.999zm-10.581.249a3.245 3.245 0 003.243-3.247 3.245 3.245 0 00-3.243-3.247 3.245 3.245 0 00-3.243 3.247 3.245 3.245 0 003.243 3.247zm-10.576.246a3.493 3.493 0 003.49-3.495 3.493 3.493 0 00-3.49-3.495 3.493 3.493 0 00-3.491 3.495 3.493 3.493 0 003.49 3.495zm63.472 9.102a2.003 2.003 0 002.002-2.004 2.003 2.003 0 10-4.004 0c0 1.106.896 2.004 2.002 2.004zm-10.577.248a2.25 2.25 0 002.25-2.252 2.25 2.25 0 00-2.25-2.252 2.25 2.25 0 00-2.25 2.252 2.25 2.25 0 002.25 2.252zm-10.577.25c1.38 0 2.5-1.12 2.5-2.503a2.502 2.502 0 00-2.5-2.503 2.5 2.5 0 00-2.5 2.503 2.502 2.502 0 002.5 2.503zm-10.585.249a2.75 2.75 0 002.748-2.752 2.75 2.75 0 00-2.748-2.75 2.75 2.75 0 00-2.748 2.75 2.75 2.75 0 002.748 2.752zm-10.576.248a2.997 2.997 0 002.995-3 2.996 2.996 0 00-2.995-2.998 2.997 2.997 0 00-2.996 2.999A2.997 2.997 0 0025.7 59.45zm-10.581.248a3.245 3.245 0 003.243-3.247 3.245 3.245 0 00-3.243-3.247 3.245 3.245 0 00-3.243 3.247 3.245 3.245 0 003.243 3.247zm-10.576.248a3.493 3.493 0 003.49-3.496 3.493 3.493 0 00-3.49-3.494A3.493 3.493 0 001.05 56.45a3.493 3.493 0 003.49 3.495zM58.73 95.6h-1.112v-1.818h-2.89V95.6h-1.11v-4.546h1.11v1.819h2.89v-1.819h1.112V95.6zm5.984 0h-1.138l-.406-.924h-2.54l-.404.924h-1.141l1.987-4.555h1.651l1.988 4.555h.002zm-1.94-1.836l-.872-1.998-.873 1.998h1.746zm6.829 1.836h-4.54v-4.546h1.114v3.64h3.426v.906zm4.898 0h-4.54v-4.546h1.115v3.64H74.5v.906zM.5 79.192h1.875v6.322l4.045-6.322h1.876v9.325H6.42v-6.424l-4.045 6.423H.5v-9.324zm12.723 9.432c-.773 0-1.433-.125-1.988-.37-.554-.245-1.07-.625-1.547-1.139l1.365-1.16c.303.31.613.54.928.688.316.147.729.221 1.242.221.574 0 1.037-.103 1.385-.313a1.01 1.01 0 00.525-.924c0-.407-.132-.685-.395-.85-.262-.165-.672-.248-1.23-.248h-1.356v-1.544h1.383c.448 0 .808-.097 1.076-.295.269-.198.404-.472.404-.826a.834.834 0 00-.466-.785c-.31-.166-.754-.248-1.326-.248-.384 0-.758.064-1.127.191a2.72 2.72 0 00-.99.614l-1.336-1.16c.221-.221.448-.419.678-.587.23-.168.487-.319.773-.44.283-.124.601-.215.955-.277a7.159 7.159 0 011.23-.095c.5 0 .975.041 1.417.121a2.7 2.7 0 011.139.473c.291.209.516.483.669.826.153.343.23.708.23 1.104 0 .454-.121.868-.36 1.234a2.036 2.036 0 01-.996.803c.448.174.81.451 1.09.832.28.381.416.827.416 1.343 0 .478-.112.924-.342 1.334-.23.41-.551.738-.97.983-.318.198-.69.33-1.117.396a9.053 9.053 0 01-1.36.098zm5.757-9.432h4.467c.855 0 1.536.227 2.046.679.508.451.764 1.06.764 1.818 0 .936-.433 1.603-1.3 2.004.465.21.825.493 1.076.85.25.357.377.803.377 1.343 0 .81-.247 1.45-.746 1.922-.498.472-1.188.708-2.072.708H18.98v-9.324zm4.12 3.825c.878 0 1.317-.386 1.317-1.16 0-.36-.112-.634-.336-.82-.224-.19-.551-.284-.982-.284h-2.243v2.264h2.243zm.126 3.935c.419 0 .75-.115.988-.342.239-.228.36-.532.36-.907 0-.374-.121-.7-.36-.915-.239-.215-.57-.324-.988-.324H20.86v2.488h2.367zm8.828 1.67a4.7 4.7 0 01-1.435-.215 3.262 3.262 0 01-.681-.316 2.543 2.543 0 01-.655-.422c-.407-.372-.725-.856-.961-1.456-.268-.587-.404-1.366-.404-2.334 0-.969.115-1.713.35-2.3.245-.652.546-1.145.897-1.473.36-.354.776-.617 1.247-.791.442-.162.89-.242 1.345-.242 1.064.024 1.963.375 2.7 1.05.738.688 1.115 1.654 1.142 2.893v1.545h-5.806c0 .75.215 1.316.646 1.705.413.396.937.594 1.58.594.76 0 1.439-.301 2.037-.906l1.363 1.16c-.97 1.018-2.09 1.52-3.364 1.508zm1.67-5.606c-.024-.71-.219-1.26-.584-1.644-.36-.354-.82-.528-1.383-.528-.563 0-1.023.177-1.383.528-.354.384-.548.933-.584 1.644h3.933zm7.345 5.606a4.165 4.165 0 01-2.899-1.121c-.872-.75-1.315-1.96-1.326-3.64.023-1.706.465-2.934 1.326-3.684.832-.762 1.799-1.128 2.899-1.104.725.024 1.362.174 1.91.449a4.32 4.32 0 011.436 1.178l-1.383 1.23c-.471-.64-1.1-.968-1.884-.98-1.61-.023-2.42.948-2.432 2.911.012 1.945.823 2.908 2.432 2.884.796-.024 1.424-.349 1.884-.971l1.383 1.23a5.34 5.34 0 01-1.436 1.14c-.563.319-1.2.475-1.91.475v.003zm6.505-7.671H44.71v-1.76h7.492v1.76h-2.754v7.563h-1.875V80.95zm6.043-1.759h1.875v6.322l4.046-6.322h1.875v9.325h-1.875v-6.424l-4.046 6.423h-1.875v-9.324zm9.449 7.555h.422c.257 0 .463-.033.613-.098.154-.065.275-.198.363-.395l.35-.81c.06-.173.134-.324.222-.454.085-.13.212-.248.38-.354a2.082 2.082 0 01-1.394-.868c-.345-.475-.516-1.066-.516-1.765 0-.88.274-1.57.822-2.066.549-.496 1.286-.747 2.212-.747h4.263v9.325h-1.875V84.93h-.755c-.448 0-.781.068-.997.204-.215.136-.41.407-.583.82l-.422 1.033c-.11.281-.23.52-.363.709a1.96 1.96 0 01-.463.472 1.68 1.68 0 01-.613.266c-.236.053-.516.08-.84.08h-.826v-1.772.004zm5.859-3.36v-2.506h-2.179c-.466 0-.817.115-1.05.343-.233.227-.35.537-.35.923 0 .827.465 1.24 1.4 1.24h2.179z"/></g><defs><clipPath id="clip0_1572_6479"><path fill="#fff" transform="translate(.5)" d="M0 0h74v96H0z"/></clipPath></defs></svg>