<svg width="28" height="28" viewBox="0 0 28 28" fill="none" xmlns="http://www.w3.org/2000/svg"><g clip-path="url(#clip0_1576_7353)"><mask id="mask0_1576_7353" style="mask-type:luminance" maskUnits="userSpaceOnUse" x="0" y="0" width="28" height="28"><path d="M28 0H0v28h28V0z" fill="#fff"/></mask><g mask="url(#mask0_1576_7353)" fill="#4070F4"><path fill-rule="evenodd" clip-rule="evenodd" d="M8.168 12.25a4.375 4.375 0 100-8.75 4.375 4.375 0 000 8.75zm0-1.75a2.625 2.625 0 100-5.25 2.625 2.625 0 000 5.25zm16.039-2.625a4.375 4.375 0 11-8.75 0 4.375 4.375 0 018.75 0zm-1.75 0a2.625 2.625 0 11-5.25 0 2.625 2.625 0 015.25 0zm-6.124 10.207a10.266 10.266 0 00-1.75-1.814A10.166 10.166 0 008.167 14C4.827 14 1.862 15.604 0 18.082v5.251h16.333v-5.25zM8.167 15.75a8.436 8.436 0 00-6.417 2.947v2.886h12.833v-2.886a8.436 8.436 0 00-6.416-2.947z"/><path d="M19.833 15.75a8.436 8.436 0 016.417 2.947v2.886h-8.167v1.75H28v-5.25A10.193 10.193 0 0019.833 14c-1.487 0-2.899.318-4.173.889.502.404.97.847 1.4 1.326a8.444 8.444 0 012.773-.465z"/></g></g><defs><clipPath id="clip0_1576_7353"><path fill="#fff" d="M0 0h28v28H0z"/></clipPath></defs></svg>