<svg width="169" height="56" viewBox="0 0 169 56" fill="none" xmlns="http://www.w3.org/2000/svg"><mask id="path-1-outside-1_1576_7241" maskUnits="userSpaceOnUse" x="115" y="1" width="54" height="54" fill="#000"><path fill="#fff" d="M115 1h54v54h-54z"/><path d="M117 28c0-9.867 1.014-16.019 4.336-19.75C124.945 4.197 131.28 3 142 3s17.055 1.197 20.664 5.25C165.986 11.981 167 18.133 167 28s-1.014 16.019-4.336 19.75C159.055 51.804 152.72 53 142 53s-17.055-1.196-20.664-5.25C118.014 44.02 117 37.867 117 28z"/></mask><path d="M117 28c0-9.867 1.014-16.019 4.336-19.75C124.945 4.197 131.28 3 142 3s17.055 1.197 20.664 5.25C165.986 11.981 167 18.133 167 28s-1.014 16.019-4.336 19.75C159.055 51.804 152.72 53 142 53s-17.055-1.196-20.664-5.25C118.014 44.02 117 37.867 117 28z" fill="#fff"/><path d="M162.664 8.25l1.387-1.235-1.387 1.235zm-41.328 0l1.387 1.235-1.387-1.235zm0 39.5l-1.387 1.235 1.387-1.235zm41.328 0l1.387 1.235-1.387-1.235zM142 4.857c5.318 0 9.408.3 12.567 1.054 3.129.747 5.231 1.913 6.71 3.574l2.774-2.47c-2.13-2.392-5-3.852-8.621-4.716-3.59-.858-8.028-1.156-13.43-1.156v3.714zm19.277 4.628c2.798 3.142 3.866 8.592 3.866 18.515h3.714c0-9.811-.959-16.665-4.806-20.985l-2.774 2.47zM118.857 28c0-9.923 1.068-15.373 3.866-18.515l-2.774-2.47c-3.847 4.32-4.806 11.174-4.806 20.985h3.714zm3.866-18.515c1.479-1.661 3.581-2.827 6.71-3.574 3.159-.754 7.249-1.054 12.567-1.054V1.143c-5.402 0-9.84.298-13.43 1.156-3.621.864-6.491 2.324-8.621 4.716l2.774 2.47zM142 51.143c-5.318 0-9.408-.3-12.567-1.054-3.129-.747-5.231-1.913-6.71-3.574l-2.774 2.47c2.13 2.392 5 3.852 8.621 4.717 3.59.857 8.028 1.155 13.43 1.155v-3.714zm-19.277-4.628c-2.798-3.142-3.866-8.592-3.866-18.515h-3.714c0 9.811.959 16.665 4.806 20.985l2.774-2.47zM165.143 28c0 9.923-1.068 15.373-3.866 18.515l2.774 2.47c3.847-4.32 4.806-11.174 4.806-20.985h-3.714zm-3.866 18.515c-1.479 1.661-3.581 2.827-6.71 3.574-3.159.754-7.249 1.054-12.567 1.054v3.714c5.402 0 9.84-.298 13.43-1.155 3.621-.865 6.491-2.325 8.621-4.717l-2.774-2.47z" fill="#0A1126" mask="url(#path-1-outside-1_1576_7241)"/><path opacity=".8" d="M131.887 30.662v-1.746h2.916V26h1.764v2.916h2.916v1.746h-2.916v2.916h-1.764v-2.916h-2.916zM142.751 35V24.182h-2.574l1.512-1.962h3.042V35h-1.98zm5.325 0V22.22h2.088v5.508l5.13-5.508h2.664l-5.67 6.102 6.93 6.678h-2.844l-6.21-5.976V35h-2.088z" fill="#000"/><mask id="path-4-outside-2_1576_7241" maskUnits="userSpaceOnUse" x="76" y="0" width="56" height="56" fill="#000"><path fill="#fff" d="M76 0h56v56H76z"/><path d="M79 28c0-9.867 1.014-16.019 4.336-19.75C86.946 4.197 93.28 3 104 3s17.055 1.197 20.664 5.25C127.986 11.981 129 18.133 129 28s-1.014 16.019-4.336 19.75C121.055 51.804 114.72 53 104 53s-17.055-1.196-20.664-5.25C80.014 44.02 79 37.867 79 28z"/></mask><path d="M79 28c0-9.867 1.014-16.019 4.336-19.75C86.946 4.197 93.28 3 104 3s17.055 1.197 20.664 5.25C127.986 11.981 129 18.133 129 28s-1.014 16.019-4.336 19.75C121.055 51.804 114.72 53 104 53s-17.055-1.196-20.664-5.25C80.014 44.02 79 37.867 79 28z" fill="#E31235"/><path d="M124.664 8.25l2.241-1.995-2.241 1.995zm-41.328 0l2.24 1.995-2.24-1.995zm0 39.5l-2.24 1.995 2.24-1.995zm41.328 0l2.241 1.995-2.241-1.995zM104 6c5.293 0 9.275.3 12.302 1.023 2.977.71 4.843 1.786 6.122 3.222l4.481-3.99c-2.331-2.617-5.437-4.167-9.21-5.068C113.973.298 109.427 0 104 0v6zm18.424 4.245C124.899 13.025 126 18.042 126 28h6c0-9.777-.926-17.062-5.095-21.745l-4.481 3.99zM82 28c0-9.958 1.101-14.975 3.576-17.755l-4.48-3.99C76.925 10.938 76 18.223 76 28h6zm3.576-17.755c1.28-1.436 3.145-2.511 6.122-3.222C94.725 6.3 98.708 6 104 6V0c-5.427 0-9.973.298-13.695 1.187-3.773.9-6.88 2.45-9.21 5.068l4.481 3.99zM104 50c-5.293 0-9.275-.3-12.302-1.023-2.977-.71-4.843-1.786-6.122-3.222l-4.48 3.99c2.33 2.617 5.436 4.167 9.209 5.068C94.027 55.702 98.572 56 104 56v-6zm-18.424-4.245C83.101 42.975 82 37.958 82 28h-6c0 9.777.926 17.063 5.095 21.745l4.481-3.99zM126 28c0 9.958-1.101 14.975-3.576 17.755l4.481 3.99C131.074 45.063 132 37.777 132 28h-6zm-3.576 17.755c-1.279 1.436-3.145 2.511-6.122 3.222C113.275 49.7 109.293 50 104 50v6c5.427 0 9.973-.298 13.695-1.187 3.773-.9 6.879-2.45 9.21-5.068l-4.481-3.99z" fill="#0A1126" mask="url(#path-4-outside-2_1576_7241)"/><path d="M79 28c0-9.867 1.014-16.019 4.336-19.75C86.946 4.196 93.28 3 104 3s17.055 1.196 20.664 5.25C127.986 11.981 129 18.133 129 28s-1.014 16.019-4.336 19.75C121.055 51.804 114.72 53 104 53s-17.055-1.196-20.664-5.25C80.014 44.019 79 37.867 79 28z" fill="#ED3342"/><path d="M116.336 18.963c.605-3.232-.363-5.386-4.237-5.386h-11.983l-1.09 5.506h10.168c.605 0 .848.359.726 1.077l-1.331 6.703h-6.294l.968-4.668-14.646 6.942h10.894l-.968 4.668 9.562-4.548-1.211 6.583c-.121.718-.484.958-1.21.958H95.517l-1.09 5.625h11.983c3.874 0 5.689-2.274 6.294-5.386l3.632-18.074z" fill="#fff"/><mask id="path-8-outside-3_1576_7241" maskUnits="userSpaceOnUse" x="38" y="0" width="56" height="56" fill="#000"><path fill="#fff" d="M38 0h56v56H38z"/><path d="M41 28c0-9.867 1.014-16.019 4.336-19.75C48.946 4.197 55.28 3 66 3s17.055 1.197 20.664 5.25C89.986 11.981 91 18.133 91 28s-1.014 16.019-4.336 19.75C83.054 51.804 76.72 53 66 53s-17.055-1.196-20.664-5.25C42.014 44.02 41 37.867 41 28z"/></mask><path d="M41 28c0-9.867 1.014-16.019 4.336-19.75C48.946 4.197 55.28 3 66 3s17.055 1.197 20.664 5.25C89.986 11.981 91 18.133 91 28s-1.014 16.019-4.336 19.75C83.054 51.804 76.72 53 66 53s-17.055-1.196-20.664-5.25C42.014 44.02 41 37.867 41 28z" fill="#E31235"/><path d="M86.664 8.25l2.24-1.995-2.24 1.995zm-41.328 0l2.24 1.995-2.24-1.995zm0 39.5l-2.24 1.995 2.24-1.995zm41.328 0l2.24 1.995-2.24-1.995zM66 6c5.293 0 9.275.3 12.302 1.023 2.977.71 4.843 1.786 6.122 3.222l4.48-3.99c-2.33-2.617-5.436-4.167-9.209-5.068C75.973.298 71.427 0 66 0v6zm18.424 4.245C86.898 13.025 88 18.042 88 28h6c0-9.777-.926-17.062-5.095-21.745l-4.481 3.99zM44 28c0-9.958 1.101-14.975 3.576-17.755l-4.48-3.99C38.925 10.938 38 18.223 38 28h6zm3.576-17.755c1.28-1.436 3.145-2.511 6.122-3.222C56.725 6.3 60.708 6 66 6V0c-5.428 0-9.973.298-13.695 1.187-3.773.9-6.88 2.45-9.21 5.068l4.481 3.99zM66 50c-5.293 0-9.275-.3-12.302-1.023-2.977-.71-4.843-1.786-6.122-3.222l-4.48 3.99c2.33 2.617 5.436 4.167 9.209 5.068C56.027 55.702 60.572 56 66 56v-6zm-18.424-4.245C45.101 42.975 44 37.958 44 28h-6c0 9.777.926 17.063 5.095 21.745l4.481-3.99zM88 28c0 9.958-1.102 14.975-3.576 17.755l4.48 3.99C93.075 45.063 94 37.777 94 28h-6zm-3.576 17.755c-1.28 1.436-3.145 2.511-6.122 3.222C75.275 49.7 71.292 50 66 50v6c5.427 0 9.973-.298 13.695-1.187 3.773-.9 6.879-2.45 9.21-5.068l-4.481-3.99z" fill="#0A1126" mask="url(#path-8-outside-3_1576_7241)"/><path d="M41 28c0-9.867 1.014-16.019 4.336-19.75C48.946 4.196 55.28 3 66 3s17.055 1.196 20.664 5.25C89.986 11.981 91 18.133 91 28s-1.014 16.019-4.336 19.75C83.054 51.804 76.72 53 66 53s-17.055-1.196-20.664-5.25C42.014 44.019 41 37.867 41 28z" fill="#0B5ED8"/><path d="M41.004 26.98a131.443 131.443 0 00.02 3.474c2.202 1.027 5.289 2.051 9.579 2.051 6.05 0 10.435-2.278 14.803-4.547 4.333-2.25 8.649-4.493 14.557-4.493 4.445 0 8.27 1.167 11.024 2.685a92.969 92.969 0 00-.107-3.4c-2.216-1.414-6.617-3.404-11.892-3.404-6.216 0-10.675 2.276-15.132 4.55-3.304 1.686-6.607 3.372-10.626 4.13l-.502.104s-1.638.285-3.678.305c-3.138 0-6.014-.716-8.046-1.454z" fill="#fff"/><path d="M90.993 29.389c-2.887-1.288-5.923-2.041-9.589-2.041-6.092 0-10.382 2.241-14.674 4.484-4.298 2.246-8.598 4.493-14.714 4.493-4.271 0-7.893-.99-10.871-2.614a55.11 55.11 0 00.313 3.586c3.147 1.865 7.49 3.203 11.687 3.203 6.716 0 11.403-2.504 15.86-4.885 3.149-1.683 6.183-3.304 9.738-3.936l.423-.07s1.746-.295 3.733-.295c2.562 0 5.926.712 8.005 1.441.048-1.068.077-2.19.089-3.366z" fill="#fff"/><path fill-rule="evenodd" clip-rule="evenodd" d="M46.43 19.172l4.193.537c.793.103 1.368.27 1.753.694.37.415.532.663.756 2.226l.623 4.894.39-.08.535-4.565c.325-2.27.62-2.855 2.535-3.159l5.41-.715v-.363l-3.471-.422.341-2.645c.088-.77.447-1.12 1.414-1.24l2.816-.38v-.206l-3-.39c-.864-.141-1.138-.504-1.24-1.295l-.353-2.665-.276.065-.353 2.682c-.151.845-.513 1.11-1.413 1.246l-2.546.32-.287-2.395-.703.43-.5 3.78c-.112.814-.198 1.208-.63 1.715-.367.406-.977.564-1.692.694l-3.88.512-.422.725zm10.18-1.323l2.23.326-.303-2.364c-.116-.932-.426-1.359-1.298-1.456l-2.646-.373.22 1.59c.153 1.322.745 2.057 1.797 2.277z" fill="#fff"/><path d="M75.198 45.173l.575 4.33.674-.353.429-3.456c.282-1.95.596-2.655 2.49-2.896l3.927-.507.4-.688-3.968-.522c-2.042-.239-2.551-.74-2.81-2.727l-.675-5.242-.33.054-.704 5.525c-.247 1.426-.638 2.045-2.352 2.33l-5.476.697v.375l5.14.651c1.704.184 2.498.749 2.68 2.43z" fill="#fff"/><path d="M70.972 50.637h.166l.295-2.23c.14-.909.489-.979 1.13-1.096l2.176-.276v-.168l-2.34-.301c-.62-.096-.859-.422-.955-.962l-.297-2.331h-.176l-.305 2.373c-.123.574-.347.803-.967.907l-2.329.314v.168l2.24.287c.74.095 1.012.438 1.089 1.14l.273 2.175z" fill="#fff"/><path d="M75.198 45.173l.575 4.33.674-.353.429-3.456c.282-1.95.596-2.655 2.49-2.896l3.927-.507.4-.688-3.968-.522c-2.042-.239-2.551-.74-2.81-2.727l-.675-5.242-.33.054-.704 5.525c-.247 1.426-.638 2.045-2.352 2.33l-5.476.697v.375l5.14.651c1.704.184 2.498.749 2.68 2.43z" fill="#fff"/><path d="M70.972 50.637h.166l.295-2.23c.14-.909.489-.979 1.13-1.096l2.176-.276v-.168l-2.34-.301c-.62-.096-.859-.422-.955-.962l-.297-2.331h-.176l-.305 2.373c-.123.574-.347.803-.967.907l-2.329.314v.168l2.24.287c.74.095 1.012.438 1.089 1.14l.273 2.175z" fill="#fff"/><mask id="path-12-outside-4_1576_7241" maskUnits="userSpaceOnUse" x="0" y="0" width="56" height="56" fill="#000"><path fill="#fff" d="M0 0h56v56H0z"/><path d="M3 28c0-9.867 1.014-16.02 4.336-19.75C10.946 4.197 17.28 3 28 3s17.054 1.197 20.664 5.25c3.322 3.731 4.335 9.883 4.335 19.75s-1.013 16.019-4.335 19.75C45.054 51.803 38.72 53 28 53s-17.055-1.197-20.664-5.25C4.014 44.019 3 37.867 3 28z"/></mask><path d="M3 28c0-9.867 1.014-16.02 4.336-19.75C10.946 4.197 17.28 3 28 3s17.054 1.197 20.664 5.25c3.322 3.731 4.335 9.883 4.335 19.75s-1.013 16.019-4.335 19.75C45.054 51.803 38.72 53 28 53s-17.055-1.197-20.664-5.25C4.014 44.019 3 37.867 3 28z" fill="#E31235"/><path d="M48.664 8.25l2.24-1.995-2.24 1.995zm-41.328 0l2.24 1.995-2.24-1.995zm0 39.5l-2.24 1.995 2.24-1.995zm41.328 0l2.24 1.995-2.24-1.995zM28 6c5.292 0 9.274.3 12.301 1.023 2.977.71 4.843 1.786 6.122 3.222l4.481-3.99c-2.33-2.617-5.437-4.167-9.21-5.068C37.973.298 33.428 0 28 0v6zm18.423 4.245C48.898 13.025 50 18.042 50 28h6c0-9.777-.925-17.062-5.095-21.745l-4.48 3.99zM6 28c0-9.958 1.101-14.976 3.576-17.755l-4.48-3.99C.925 10.938 0 18.223 0 28h6zm3.576-17.755c1.28-1.436 3.145-2.511 6.122-3.222C18.725 6.3 22.707 6 28 6V0c-5.428 0-9.973.298-13.695 1.187-3.773.9-6.88 2.45-9.21 5.068l4.481 3.99zM28 50c-5.293 0-9.275-.3-12.302-1.023-2.977-.711-4.843-1.786-6.122-3.222l-4.48 3.99c2.33 2.617 5.436 4.167 9.209 5.068C18.027 55.702 22.572 56 28 56v-6zM9.576 45.755C7.101 42.975 6 37.957 6 28H0c0 9.777.926 17.062 5.095 21.745l4.481-3.99zM50 28c0 9.957-1.101 14.975-3.576 17.755l4.481 3.99C55.074 45.062 56 37.777 56 28h-6zm-3.576 17.755c-1.279 1.436-3.145 2.51-6.122 3.222C37.274 49.7 33.292 50 28 50v6c5.427 0 9.972-.298 13.695-1.187 3.772-.901 6.879-2.451 9.21-5.068l-4.482-3.99z" fill="#0A1126" mask="url(#path-12-outside-4_1576_7241)"/><path d="M3 28c0-9.867 1.014-16.019 4.336-19.75C10.946 4.196 17.28 3 28 3s17.055 1.196 20.664 5.25C51.986 11.981 53 18.133 53 28s-1.014 16.019-4.336 19.75C45.054 51.804 38.72 53 28 53s-17.055-1.196-20.664-5.25C4.014 44.019 3 37.867 3 28z" fill="#EF3124"/><path d="M38.576 40.797H17.422v4.51h21.154v-4.51zm-6.729-25.85c-.616-1.827-1.297-3.293-3.694-3.293-2.375 0-3.1 1.444-3.738 3.293l-6.553 19.105h4.332l1.517-4.534h8.356l1.407 4.534h4.618l-6.245-19.105zm-6.86 10.714l2.968-9.045h.11l2.792 9.045h-5.87z" fill="#fff"/></svg>