<svg width="28" height="28" viewBox="0 0 28 28" fill="none" xmlns="http://www.w3.org/2000/svg"><path fill-rule="evenodd" clip-rule="evenodd" d="M18.958 11.958a3.792 3.792 0 11-7.583 0 3.792 3.792 0 017.583 0zm-1.75 0a2.042 2.042 0 11-4.083 0 2.042 2.042 0 014.083 0z" fill="#8556FC"/><path d="M15.167 19.542a8.433 8.433 0 00-4.228 1.13l-.877-1.514a10.165 10.165 0 015.105-1.366 10.18 10.18 0 015.105 1.366l-.876 1.515a8.428 8.428 0 00-4.229-1.131z" fill="#8556FC"/><path fill-rule="evenodd" clip-rule="evenodd" d="M5.832 2.333h18.667v23.334H5.832v-4.959h-3.5v-1.75h3.5v-4.083h-3.5v-1.75h3.5V9.042h-3.5v-1.75h3.5V2.333zm1.75 1.75h15.167v19.834H7.582V4.083z" fill="#8556FC"/></svg>