<svg width="28" height="28" viewBox="0 0 28 28" fill="none" xmlns="http://www.w3.org/2000/svg"><g clip-path="url(#clip0_1576_7346)"><mask id="mask0_1576_7346" style="mask-type:luminance" maskUnits="userSpaceOnUse" x="0" y="0" width="28" height="28"><path d="M28 0H0v28h28V0z" fill="#fff"/></mask><g mask="url(#mask0_1576_7346)" fill="#4070F4"><path fill-rule="evenodd" clip-rule="evenodd" d="M16.333 8.167a4.667 4.667 0 11-9.333 0 4.667 4.667 0 019.333 0zm-1.75 0a2.917 2.917 0 11-5.833 0 2.917 2.917 0 015.833 0zm-2.918 6.416a11.65 11.65 0 00-9.333 4.666V24.5h18.667v-5.251a11.65 11.65 0 00-9.334-4.666zm7.584 5.277a9.892 9.892 0 00-7.584-3.527 9.892 9.892 0 00-7.583 3.527v2.89h15.167v-2.89z"/><path d="M22.456 5.833v3.792h-3.792v1.75h3.792v3.792h1.75v-3.792h3.791v-1.75h-3.791V5.833h-1.75z"/></g></g><defs><clipPath id="clip0_1576_7346"><path fill="#fff" d="M0 0h28v28H0z"/></clipPath></defs></svg>