<svg width="28" height="28" viewBox="0 0 28 28" fill="none" xmlns="http://www.w3.org/2000/svg"><g clip-path="url(#clip0_1576_7291)"><mask id="mask0_1576_7291" style="mask-type:luminance" maskUnits="userSpaceOnUse" x="0" y="0" width="28" height="28"><path d="M28 0H0v28h28V0z" fill="#fff"/></mask><g mask="url(#mask0_1576_7291)" fill="#8556FC"><path fill-rule="evenodd" clip-rule="evenodd" d="M0 21l1.589-5.561C.582 14.007 0 12.314 0 10.5c0-5.155 4.701-9.333 10.5-9.333S21 5.345 21 10.5c0 5.122-4.64 9.28-10.389 9.333H10.5a11.71 11.71 0 01-2.06-.18 11.418 11.418 0 01-1.924-.515L0 21zm3.501-5.884l-.953 3.336L6.582 17.3l.534.195a9.865 9.865 0 003.384.59c5.032 0 8.75-3.584 8.75-7.584 0-4-3.718-7.583-8.75-7.583S1.75 6.5 1.75 10.5c0 1.43.456 2.774 1.27 3.933l.481.683z"/><path d="M22.038 6.748c.287.725.493 1.488.607 2.283 2.222 1.41 3.605 3.696 3.605 6.136 0 1.429-.456 2.774-1.27 3.932l-.48.684.952 3.336-4.034-1.153-.534.195a9.868 9.868 0 01-3.384.589c-1.871 0-3.561-.496-4.945-1.324a13.465 13.465 0 01-2.696.142c1.915 1.805 4.63 2.932 7.641 2.932 1.41 0 2.755-.247 3.984-.695L28 25.667l-1.589-5.562c1.007-1.432 1.59-3.125 1.59-4.938 0-3.71-2.436-6.914-5.963-8.42z"/></g></g><defs><clipPath id="clip0_1576_7291"><path fill="#fff" d="M0 0h28v28H0z"/></clipPath></defs></svg>