<svg width="20" height="20" viewBox="0 0 20 20" fill="none" xmlns="http://www.w3.org/2000/svg"><path d="M10 1.667c-4.596 0-8.334 3.738-8.334 8.333 0 4.595 3.738 8.333 8.333 8.333 4.595 0 8.334-3.738 8.334-8.333 0-4.595-3.739-8.333-8.334-8.333zm0 1.25A7.074 7.074 0 0117.082 10a7.074 7.074 0 01-7.084 7.083A7.074 7.074 0 012.916 10a7.074 7.074 0 017.083-7.083zm-.01 2.49a.625.625 0 00-.616.635v5a.625.625 0 101.25 0v-5a.627.627 0 00-.634-.634zm.01 7.51a.833.833 0 100 1.666.833.833 0 000-1.666z" fill="#FF5337"/></svg>