<svg width="72" height="72" viewBox="0 0 72 72" fill="none" xmlns="http://www.w3.org/2000/svg"><circle cx="36" cy="36" r="36" fill="#0F133A"/><path fill-rule="evenodd" clip-rule="evenodd" d="M25.5 25.5v-3h21v3h6V33a6 6 0 01-6 6h-1.01a10.508 10.508 0 01-8.365 5.94v5.31H42v2.25H30v-2.25h4.875v-5.31A10.508 10.508 0 0126.51 39H25.5a6 6 0 01-6-6v-7.5h6zM36 42.75a8.25 8.25 0 01-8.25-8.25v-9.75h16.5v9.75A8.25 8.25 0 0136 42.75zm-10.258-6a10.542 10.542 0 01-.242-2.25v-6.75h-3.75V33a3.75 3.75 0 003.75 3.75h.242zm20.516 0h.242A3.75 3.75 0 0050.25 33v-5.25H46.5v6.75c0 .772-.083 1.525-.242 2.25z" fill="#fff"/></svg>