<svg width="156" height="156" viewBox="0 0 156 156" fill="none" xmlns="http://www.w3.org/2000/svg"><path d="M78 156c43.078 0 78-34.922 78-78S121.078 0 78 0 0 34.922 0 78s34.922 78 78 78z" fill="#4253EB"/><path d="M100.972 100.573l-.648 6.774S95.747 114.964 78.33 115h-.364c-17.417-.072-21.994-7.653-21.994-7.653l-.648-6.774s.162-.614.729-.073c2.065 2.094 8.06 6.065 21.953 6.102h.365c13.893-.037 19.847-4.008 21.912-6.102.527-.541.689.073.689.073zm1.904-16.774l-.689 7.026s-4.9 8.123-23.533 8.195h-.445c-18.633-.072-23.534-8.194-23.534-8.194l-.688-7.027s.202-.65.77-.072c2.227 2.238 8.586 6.498 23.411 6.498h.446c14.824-.036 21.224-4.26 23.411-6.498.648-.578.851.072.851.072z" fill="#fff"/><path d="M105.711 72.378c.536-2.218.162-5.812.162-5.812 0-2.697-9.703-4.908-22.502-5.365.415-3.405.886-7.206 1.035-8.209 0-.289-.081-.578-.284-.794-.445-.47-1.337-.506-1.782-.072-.77.758-2.309 1.696-4.213 1.913-.77.072-1.782-.036-2.632-.18-.608-.109-1.094-.181-1.54-.181-1.417 0-1.539.975-1.539 1.155v.072l.747 6.31c-12.566.484-22.057 2.663-22.132 5.319-.001 1.677-.25 4.348.688 6.927 1.721 4.732 6.726 1.86 11.88 4.09 2.5 1.083 2.284 3.982 6.855 4.322 4.57.34 8.587-2.189 11.425-2.246 5.496-.11 8.796 6.173 14.854 3.114 4.934-2.492 7.815-5.55 8.978-10.363zm-26.67-37.114c-.626-1.364-2.952 2.895-3.892 4.962-.537 1.158-1.79 3.68-1.029 6.161.492 1.572 1.79 3.143 4.384 3.143 2.997 0 4.832-2.73 4.474-5.458-.403-3.101-3.668-8.27-3.937-8.808z" fill="#fff"/></svg>