<svg width="112" height="32" viewBox="0 0 112 32" fill="none" xmlns="http://www.w3.org/2000/svg"><path d="M106.402 17.234V8.336h-2.3v-2.17h2.3V4.308c0-2.479 1.66-3.807 3.784-3.807.752 0 1.349.11 1.814.266v2.169a3.93 3.93 0 00-1.306-.221c-1.261 0-1.858.509-1.858 1.881v1.572H112v2.169h-3.164v8.898h-2.434zm-14.289 0V6.167h2.434v1.505c.664-1.107 1.925-1.727 3.363-1.727 2.566 0 4.225 1.815 4.225 4.627v6.662h-2.433V10.97c0-1.749-.885-2.811-2.301-2.811-1.615 0-2.854 1.262-2.854 3.63v5.445h-2.434zM89.417 11.7c0 3.21-2.522 5.756-5.796 5.756-3.275 0-5.797-2.546-5.797-5.755 0-3.21 2.522-5.756 5.797-5.756 3.274 0 5.796 2.546 5.796 5.755zm-9.137 0c0 1.97 1.372 3.498 3.34 3.498 1.948 0 3.32-1.527 3.32-3.498 0-1.97-1.372-3.497-3.32-3.497-1.968 0-3.34 1.527-3.34 3.498zM60.988 9.376a8.07 8.07 0 018.12-8.123c3.075 0 5.685 1.571 7.08 3.984l-2.235 1.284c-1.018-1.682-2.677-2.767-4.845-2.767-3.12 0-5.51 2.501-5.51 5.622 0 3.122 2.39 5.623 5.51 5.623 2.168 0 3.827-1.085 4.845-2.767l2.234 1.284c-1.394 2.412-4.004 3.984-7.08 3.984a8.07 8.07 0 01-8.119-8.124zM47.844 11.7c0-3.253 2.411-5.755 5.774-5.755 2.898 0 5.332 1.926 5.332 5.49 0 .243 0 .443-.022.797h-8.695c.11 1.815 1.57 3.01 3.407 3.01 1.549 0 2.589-.708 3.164-1.682l1.858 1.328c-.995 1.572-2.72 2.568-5.044 2.568-3.363 0-5.774-2.39-5.774-5.755zm5.686-3.696c-1.416 0-2.854.819-3.186 2.457h6.15c-.265-1.594-1.548-2.457-2.964-2.457zm-16.546 9.23V.633h2.434v9.74l4.226-4.206h3.075l-4.934 4.936 6.04 6.131h-3.12l-5.287-5.356v5.356h-2.434zM22.137 11.7c0-3.165 2.3-5.755 5.332-5.755 1.592 0 2.92.82 3.54 1.705V6.167h2.433v11.067h-2.434v-1.483c-.62.886-1.947 1.705-3.54 1.705-3.03 0-5.331-2.59-5.331-5.755zm9.07 0c0-1.992-1.327-3.541-3.296-3.541-1.969 0-3.296 1.55-3.296 3.541 0 1.993 1.327 3.542 3.296 3.542 1.97 0 3.296-1.55 3.296-3.542zM5.3 9.376a8.07 8.07 0 018.12-8.123c3.075 0 5.686 1.571 7.08 3.984l-2.235 1.284c-1.017-1.682-2.677-2.767-4.845-2.767-3.12 0-5.509 2.501-5.509 5.622 0 3.122 2.39 5.623 5.51 5.623 2.167 0 3.827-1.085 4.844-2.767l2.235 1.284c-1.394 2.412-4.005 3.984-7.08 3.984A8.07 8.07 0 015.3 9.376zm-1.473 6.11a1.927 1.927 0 01-1.924 1.926C.863 17.412 0 16.549 0 15.486c0-1.04.863-1.926 1.903-1.926a1.94 1.94 0 011.924 1.926z" fill="#fff"/><path d="M7.979 31.5v-7.988h1.316v3.308h3.949v-3.308h1.316V31.5h-1.316v-3.431H9.295V31.5H7.979zm7.838 0l3.488-7.988h1.147L23.94 31.5h-1.373l-.91-2.093h-3.578l-.9 2.093h-1.362zm2.768-3.262h2.565l-1.283-2.96-1.282 2.96zm10.614 1.158l-2.689-3.634V31.5h-1.316v-7.988h1.204l2.79 3.78 2.8-3.78h1.205V31.5h-1.328v-5.726L29.2 29.396zM38.93 31.5v-6.761h-1.608l.945-1.227h1.901V31.5h-1.237zm8.873-2.959c0 1.8-1.203 3.072-2.902 3.072-1.688 0-2.891-1.272-2.891-3.072V26.45c0-1.8 1.203-3.072 2.89-3.072 1.7 0 2.903 1.272 2.903 3.072v2.092zm-4.556 0c0 1.17.686 1.857 1.654 1.857.979 0 1.665-.687 1.665-1.857V26.45c0-1.159-.686-1.857-1.665-1.857-.968 0-1.654.698-1.654 1.857v2.092zm9.738.428v-5.457H58.7V31.5h-1.328v-6.727h-3.06v4.376c0 1.721-.798 2.486-1.99 2.486-.304 0-.496-.011-.687-.045v-1.226c.146.022.326.034.517.034.54 0 .833-.282.833-1.43zm7.901 2.531v-7.988h4.804v1.26h-3.488v2.048h2.813v1.26h-2.813v2.16h3.488v1.26h-4.804zm8.095 0v-6.727h-2.318v-1.26h5.963v1.26h-2.329V31.5h-1.316z" fill="#3796F6"/><path d="M79.46 27.48c0 .75-.62 1.36-1.37 1.36-.74 0-1.36-.61-1.36-1.36 0-.75.62-1.36 1.36-1.36.75 0 1.37.61 1.37 1.36zm10.345 2.805V31.5h-5.288v-.45c0-1.755 1.452-2.52 2.622-3.386.821-.597 1.339-1.047 1.339-1.857 0-.708-.484-1.214-1.272-1.214-.799 0-1.428.517-1.44 1.36h-1.249c0-1.54 1.182-2.575 2.7-2.575 1.34 0 2.51.81 2.51 2.396 0 1.271-.597 1.957-1.767 2.801-.72.54-1.609.99-1.811 1.71h3.656zm7.205-1.744c0 1.8-1.204 3.072-2.903 3.072-1.687 0-2.89-1.272-2.89-3.072V26.45c0-1.8 1.203-3.072 2.89-3.072 1.7 0 2.903 1.272 2.903 3.072v2.092zm-4.556 0c0 1.17.686 1.857 1.653 1.857.98 0 1.665-.687 1.665-1.857V26.45c0-1.159-.686-1.857-1.665-1.857-.967 0-1.653.698-1.653 1.857v2.092zm11.204 1.744V31.5h-5.287v-.45c0-1.755 1.451-2.52 2.621-3.386.821-.597 1.339-1.047 1.339-1.857 0-.708-.484-1.214-1.271-1.214-.799 0-1.43.517-1.44 1.36h-1.25c0-1.54 1.182-2.575 2.701-2.575 1.339 0 2.509.81 2.509 2.396 0 1.271-.597 1.957-1.767 2.801-.72.54-1.608.99-1.811 1.71h3.656zm5.003 1.215v-2.003h-4.129v-1l4.264-4.985h1.102v4.838h1.069v1.147h-1.069V31.5h-1.237zm0-3.15v-2.992l-2.577 2.992h2.577z" fill="#fff"/></svg>