<svg width="28" height="29" viewBox="0 0 28 29" fill="none" xmlns="http://www.w3.org/2000/svg"><g clip-path="url(#clip0_1578_11396)" fill="#4070F4"><path fill-rule="evenodd" clip-rule="evenodd" d="M17.5 8.358a3.5 3.5 0 11-7 0 3.5 3.5 0 017 0zm-1.75 0a1.75 1.75 0 11-3.5 0 1.75 1.75 0 013.5 0z"/><path fill-rule="evenodd" clip-rule="evenodd" d="M14.003 21.192s8.166-6.925 8.166-12.833A8.149 8.149 0 0014.003.192 8.149 8.149 0 005.836 8.36c0 5.908 8.167 12.833 8.167 12.833zm5.336-9.14c.696-1.346 1.08-2.601 1.08-3.693a6.399 6.399 0 00-6.416-6.417A6.399 6.399 0 007.586 8.36c0 1.092.384 2.347 1.08 3.694.69 1.332 1.629 2.646 2.602 3.823a36.19 36.19 0 002.676 2.885l.033.032.026.024.023-.022.035-.034a36.19 36.19 0 002.676-2.885c.973-1.177 1.913-2.49 2.602-3.823z"/><path d="M5.795 15.828L.004 25.858H28l-5.792-10.032-1.281 1.281 4.042 7.002H3.035l4.041-7-1.28-1.28z"/></g><defs><clipPath id="clip0_1578_11396"><path fill="#fff" transform="translate(0 .025)" d="M0 0h28v28H0z"/></clipPath></defs></svg>