<svg width="28" height="28" viewBox="0 0 28 28" fill="none" xmlns="http://www.w3.org/2000/svg"><path fill-rule="evenodd" clip-rule="evenodd" d="M19.832 5.833V4.667a3.5 3.5 0 00-3.5-3.5h-4.667a3.5 3.5 0 00-3.5 3.5v1.166H2.332V24.5h23.333V5.833h-5.833zm-1.75-1.166a1.75 1.75 0 00-1.75-1.75h-4.667a1.75 1.75 0 00-1.75 1.75v1.166h8.167V4.667zm5.833 7.775V22.75H4.082V12.442l2.6.975h1.483v2.333h1.75v-2.333h8.167v2.333h1.75v-2.333h1.484l2.6-.975zm-19.833-1.87l2.917 1.095h14l2.916-1.094v-2.99H4.082v2.99z" fill="#4070F4"/></svg>