<svg width="28" height="28" viewBox="0 0 28 28" fill="none" xmlns="http://www.w3.org/2000/svg"><path fill-rule="evenodd" clip-rule="evenodd" d="M24.19 5.778a7.02 7.02 0 00-4.96-2.051 7.3 7.3 0 00-5.07 2.082l-.16.15-.16-.15a7.3 7.3 0 00-5.07-2.082 7.02 7.02 0 00-7.02 7.007c0 3.773 1.384 5.574 7.57 10.461L14 24.827l4.68-3.632c6.186-4.887 7.57-6.688 7.57-10.461a7.02 7.02 0 00-2.06-4.956zM12.209 7.477l.015.015L14 9.167l1.776-1.675.015-.015a4.968 4.968 0 013.445-1.417 4.686 4.686 0 014.68 4.675c0 1.499-.246 2.381-1.016 3.435-.904 1.238-2.546 2.728-5.66 5.188L14 21.874l-3.24-2.516c-3.114-2.46-4.756-3.95-5.66-5.188-.77-1.053-1.016-1.936-1.017-3.434a4.686 4.686 0 014.68-4.676 4.968 4.968 0 013.446 1.417z" fill="#ED5360"/></svg>