<svg width="28" height="28" viewBox="0 0 28 28" fill="none" xmlns="http://www.w3.org/2000/svg"><g clip-path="url(#clip0_1560_5390)"><path fill-rule="evenodd" clip-rule="evenodd" d="M23.313 3.684l.787.688c2.656 2.324 3.898 6.043 3.898 9.628s-1.243 7.304-3.9 9.628l-.786.688-5.812-5.33v.847h-7v-.848l-5.814 5.331-.786-.688C1.242 21.304 0 17.585 0 14s1.242-7.304 3.898-9.628l.787-.688L10.5 9.016v-.85h7v.847l5.813-5.33zM15.167 10.5h-2.334v7h2.334v-7zm2.333 5.32l5.793 5.313c1.543-1.793 2.372-4.412 2.372-7.133 0-2.72-.828-5.34-2.37-7.133L17.5 12.179v.654H21v2.334h-3.5v.654zm-7-.001v-.652H7v-2.334h3.5v-.652L4.704 6.867C3.16 8.66 2.334 11.279 2.334 14c0 2.72.828 5.34 2.37 7.133L10.5 15.82z" fill="#8556FC"/></g><defs><clipPath id="clip0_1560_5390"><path fill="#fff" d="M0 0h28v28H0z"/></clipPath></defs></svg>