<svg width="28" height="28" viewBox="0 0 28 28" fill="none" xmlns="http://www.w3.org/2000/svg"><path d="M3.826 13.2a.827.827 0 00-.583.23A.8.8 0 003 14a.788.788 0 00.243.57.814.814 0 00.583.23h20.348a.827.827 0 00.584-.23A.799.799 0 0025 14a.787.787 0 00-.242-.57.817.817 0 00-.584-.23H3.826zm6.468 7.258c.1-.04.207-.06.315-.058h13.566a.827.827 0 01.583.23.8.8 0 01.242.57.789.789 0 01-.242.57.815.815 0 01-.583.23H10.609a.826.826 0 01-.583-.23.8.8 0 01-.243-.57.788.788 0 01.243-.57.814.814 0 01.268-.172zm-4.342-14.4c.1-.04.207-.06.315-.058h17.907a.826.826 0 01.583.23.8.8 0 01.242.57.789.789 0 01-.242.57.815.815 0 01-.583.23H6.267a.827.827 0 01-.583-.23.8.8 0 01-.243-.57.788.788 0 01.243-.57.815.815 0 01.268-.172z" fill="#fff"/></svg>