<svg width="28" height="28" viewBox="0 0 28 28" fill="none" xmlns="http://www.w3.org/2000/svg"><path d="M7.4 6.088c.137.067.264.16.373.27l13.869 13.87c.111.108.203.235.27.372.068.137.11.282.122.427.013.144-.003.285-.047.414a.872.872 0 01-.546.546 1.01 1.01 0 01-.414.047 1.213 1.213 0 01-.427-.122 1.364 1.364 0 01-.373-.27L6.36 7.771a1.362 1.362 0 01-.271-.372 1.213 1.213 0 01-.122-.427 1.01 1.01 0 01.048-.414.872.872 0 01.545-.546c.13-.044.27-.06.415-.047.144.013.289.054.426.122z" fill="#fff"/><path d="M5.972 20.716a.847.847 0 01.2-.302L20.413 6.171a.849.849 0 01.302-.2.913.913 0 01.366-.06c.127.005.253.035.373.088a1.08 1.08 0 01.546.546c.053.12.083.246.088.373a.914.914 0 01-.06.366.849.849 0 01-.2.301L7.584 21.83a.848.848 0 01-.301.2.912.912 0 01-.366.06 1.01 1.01 0 01-.372-.09 1.08 1.08 0 01-.546-.546 1.01 1.01 0 01-.088-.373.913.913 0 01.06-.366z" fill="#fff"/></svg>