<svg width="95" height="14" viewBox="0 0 95 14" fill="none" xmlns="http://www.w3.org/2000/svg"><path fill-rule="evenodd" clip-rule="evenodd" d="M29.718.175c-.808.217-1.756.667-2.353 1.117-1.016.764-2.194 2.61-2.564 4.015-.214.812-.21 2.832.006 3.66.323 1.236.853 2.304 1.5 3.02 1.267 1.406 3.12 2.11 5.24 1.988 1.629-.093 2.934-.668 3.939-1.734.5-.532 1.22-1.575 1.22-1.767 0-.09-.379-.272-.414-.2-.11.234-1.105 1.36-1.506 1.707-.677.584-1.172.804-2.111.937-1.549.218-3.07-.243-4.131-1.252-.626-.596-1.015-1.276-1.31-2.29-.188-.647-.21-.915-.204-2.376.006-1.475.032-1.74.248-2.544.293-1.089.671-1.776 1.346-2.444C29.918.73 31.8.4 33.425 1.17c1.047.496 1.724 1.27 2.333 2.67.178.41.363.703.455.722.143.03.15-.089.094-1.464A96.021 96.021 0 0036.187.8c-.054-.76-.069-.8-.27-.8-.162 0-.254.095-.393.408-.253.571-.466.603-1.31.197a8.076 8.076 0 00-1.22-.465c-.767-.196-2.485-.178-3.275.035zm40.188.397a55.4 55.4 0 00-.117 1.693c-.061 1.1-.059 1.12.132 1.12.138 0 .212-.073.251-.251.273-1.234.53-1.69 1.133-2.006.362-.19.527-.213 1.583-.213h1.179v5.954c0 4.09-.031 6.011-.1 6.138-.136.255-.785.531-1.254.534-.354.001-.39.022-.39.23V14h5.416v-.229c0-.209-.035-.229-.4-.229-.454 0-.952-.281-1.135-.643-.088-.173-.115-1.586-.116-6.105L76.087.915h1.038c1.378 0 1.858.143 2.347.696.316.357.385.515.483 1.096.093.551.146.679.28.679.152 0 .166-.107.166-1.269 0-.697-.026-1.459-.059-1.692L80.284 0H69.962l-.056.572zm16.92-.39c-1.214.321-1.96.762-2.945 1.737-.728.721-.946 1.006-1.261 1.65-.6 1.22-.705 1.735-.703 3.431.002 1.239.034 1.574.208 2.178.892 3.098 3.502 4.97 6.688 4.793 1.593-.088 2.852-.628 4.037-1.733 1.034-.964 1.69-2.13 2.008-3.571.243-1.096.16-3.15-.166-4.138-.346-1.048-.83-1.816-1.67-2.653C91.687.544 90.614.086 88.709.033c-.975-.027-1.319 0-1.882.149zM9.352.265c0 .137.088.191.39.241.556.093.986.334 1.477.83l.428.433V7.23c0 5.402-.002 5.466-.192 5.706-.27.342-.649.514-1.135.514-.356 0-.417.027-.417.183 0 .178.06.183 2.157.183 2.096 0 2.157-.005 2.157-.183 0-.153-.061-.183-.376-.183-.207 0-.519-.067-.693-.15-.6-.284-.588-.158-.561-5.414l.024-4.746 4.112 5.43c2.969 3.92 4.162 5.43 4.291 5.43.176 0 .18-.116.18-6.337 0-6.171.005-6.344.183-6.636.2-.326.46-.456 1.072-.54.306-.042.397-.093.397-.225 0-.161-.113-.17-2.112-.17-1.998 0-2.11.009-2.11.17 0 .133.09.183.414.227.228.031.537.12.687.197.558.288.555.258.528 4.916l-.023 4.236-7.258-9.7-1.81-.026C9.425.09 9.352.095 9.352.265zm35.025.124c-.068.163-1.204 2.933-2.525 6.153-1.321 3.221-2.542 6.068-2.712 6.327-.207.314-.433.526-.68.64-.225.103-.373.234-.374.33-.002.148.145.161 1.833.161 1.775 0 1.836-.006 1.836-.183 0-.133-.06-.183-.223-.183-.517 0-1.06-.385-1.065-.755-.002-.113.277-.916.62-1.785l.622-1.58 4.65.048.546 1.327c.3.73.57 1.516.6 1.746.05.383.032.437-.205.623a2.17 2.17 0 01-.653.309c-.278.074-.394.153-.394.269 0 .154.16.164 2.57.164 2.51 0 2.57-.004 2.57-.183 0-.113-.061-.184-.16-.185-.415-.005-.932-.355-1.187-.803-.142-.25-1.395-3.217-2.783-6.594C45.755 2.567 44.691.094 44.619.093c-.066 0-.175.132-.242.296zm8.944-.122c0 .137.103.197.467.275.54.116 1.143.5 1.546.988l.282.342-.005 5.263c-.004 3.831-.035 5.348-.115 5.575-.155.441-.51.672-1.115.722-.421.034-.509.071-.509.213 0 .163.109.172 2.157.172 2.096 0 2.157-.005 2.157-.183 0-.154-.06-.183-.39-.183-.537 0-.998-.25-1.194-.65-.148-.303-.16-.7-.137-5.02l.023-4.693 4.131 5.456c2.697 3.561 4.187 5.455 4.291 5.456.152 0 .161-.36.161-6.277 0-5.62.016-6.31.15-6.592.18-.377.525-.573 1.14-.645.362-.043.454-.088.454-.224 0-.161-.115-.17-2.157-.17-2.096 0-2.157.005-2.157.183 0 .138.061.183.252.183.786.002 1.347.437 1.445 1.12.03.215.043 2.178.028 4.364l-.027 3.975L56.86.092h-1.768c-1.683 0-1.77.008-1.77.175zM1 .446c0 .137.094.183.474.234.623.082.8.186.956.56.196.467.193 11.459-.004 11.837-.16.31-.645.557-1.096.557-.27 0-.33.034-.33.183 0 .179.06.183 2.57.183 2.452 0 2.57-.008 2.57-.172 0-.142-.087-.178-.506-.213-.592-.05-.913-.292-1.054-.798-.056-.2-.09-2.428-.09-5.726.002-5.1.011-5.42.176-5.78.203-.447.397-.569 1.018-.642.364-.043.456-.088.456-.224 0-.162-.125-.17-2.57-.17C1.12.275 1 .282 1 .445zm89.04.676c.985.476 1.662 1.267 2.093 2.445.674 1.845.74 4.733.147 6.6-.404 1.275-1.222 2.222-2.382 2.755-.386.177-.606.209-1.466.209-.958 0-1.044-.016-1.623-.3-.777-.382-1.346-1.003-1.814-1.98-.439-.918-.627-1.675-.742-2.985-.09-1.032-.013-2.444.183-3.316.395-1.757 1.421-3.109 2.706-3.565.73-.26 2.224-.188 2.898.137zM45.052 6.24c.51 1.242.926 2.282.926 2.31 0 .028-.87.051-1.934.051-1.516 0-1.929-.025-1.905-.116.114-.445 1.872-4.625 1.923-4.572.035.037.48 1.084.99 2.327z" fill="#000"/></svg>