<svg width="67" height="20" viewBox="0 0 67 20" fill="none" xmlns="http://www.w3.org/2000/svg"><path d="M7.85 19.57c4.535 0 7.824-3 7.824-7.226S12.385 5.12 7.85 5.12 0 8.118 0 12.344s3.315 7.226 7.85 7.226zm0-3.34c-2.068 0-3.66-1.46-3.66-3.886s1.592-3.887 3.66-3.887c2.07 0 3.634 1.46 3.634 3.887 0 2.426-1.565 3.887-3.634 3.887zm16.046-4.01c0 .281.27.388.383.42a.373.373 0 00.102.013h3.435s.523 0 .536-.434V4.423s1.114 0 3.9-1.648c1.36-.806 2.057-1.611 2.413-2.224.232-.4-.202-.69-.618-.481-1.293.65-3.88 1.607-7.923 1.607-4.042 0-6.63-.957-7.923-1.607-.416-.21-.85.082-.618.481.356.613 1.052 1.419 2.414 2.224 2.785 1.648 3.899 1.648 3.899 1.648v7.796z" fill="#000"/><path d="M22.108 8.012a1.66 1.66 0 01-.28.942c-.187.28-.454.5-.768.63a1.754 1.754 0 01-1.883-.352 1.655 1.655 0 01-.383-1.84c.13-.31.35-.574.634-.76a1.75 1.75 0 01.959-.286 1.742 1.742 0 011.212.484 1.646 1.646 0 01.508 1.182zm11.474 0a1.66 1.66 0 01-.28.942c-.187.28-.454.5-.768.63a1.754 1.754 0 01-1.883-.352 1.676 1.676 0 01-.477-.863 1.654 1.654 0 01.095-.977c.13-.31.35-.574.634-.76.283-.186.617-.286.958-.286a1.73 1.73 0 011.213.484c.322.312.505.738.508 1.182zm-12.39 10.883c.002.18.077.35.207.476a.705.705 0 00.98 0 .676.676 0 00.207-.476c0-.385-.128-.675.349-.675s.348.29.348.675c.002.18.077.352.207.479a.705.705 0 00.981 0 .677.677 0 00.207-.479c0-.477.002-.661-.001-.716a1.188 1.188 0 00-.036-.228 1.313 1.313 0 00-.233-.473c-.29-.374-.78-.608-1.473-.608a2.108 2.108 0 00-1.046.242 2.11 2.11 0 00-1.046-.242c-.693 0-1.184.234-1.473.608a1.311 1.311 0 00-.27.7v.717c.002.18.077.35.207.477a.705.705 0 00.98 0 .677.677 0 00.207-.477c0-.385-.128-.675.349-.675.476 0 .349.29.349.675zm8.716 0c.002.18.077.35.208.477a.705.705 0 00.978 0 .677.677 0 00.208-.477c0-.385-.127-.675.349-.675s.349.29.349.675c.002.18.077.35.208.477a.705.705 0 00.979 0 .677.677 0 00.208-.477c0-.477.001-.661-.002-.716a1.085 1.085 0 00-.036-.228 1.309 1.309 0 00-.233-.473c-.29-.374-.78-.608-1.473-.608a2.11 2.11 0 00-1.046.242 2.11 2.11 0 00-1.046-.242c-.693 0-1.183.234-1.473.608a1.3 1.3 0 00-.27.7v.717c.005.178.08.347.21.471a.705.705 0 00.973 0 .677.677 0 00.21-.47c0-.386-.127-.676.35-.676.476 0 .349.29.349.675zM47.842 5.42a.35.35 0 00-.243.098.337.337 0 00-.1.238v6.557c0 2.566-1.38 3.758-3.287 3.758-1.829 0-2.89-1.037-2.89-3.37V5.757a.334.334 0 00-.1-.238.348.348 0 00-.243-.099h-3.447a.348.348 0 00-.243.099.333.333 0 00-.1.238v7.542c0 4.302 2.517 6.272 6.095 6.272 1.75 0 3.34-.648 4.427-1.866v1.321c0 .09.036.175.1.239a.348.348 0 00.243.098h3.235a.348.348 0 00.243-.098.334.334 0 00.101-.239V5.756a.33.33 0 00-.1-.238.343.343 0 00-.244-.099h-3.447zm12.377 14.15c4.298 0 6.781-1.852 6.781-4.461 0-5.53-8.677-3.209-8.677-5.608 0-.73.8-1.305 2.67-1.305a8.434 8.434 0 013.809.87.363.363 0 00.488-.158l1.095-2.283a.32.32 0 00.017-.243.327.327 0 00-.16-.187c-1.37-.69-3.403-1.077-5.25-1.077-4.191 0-6.647 1.879-6.647 4.54 0 5.608 8.677 3.26 8.677 5.556 0 .782-.721 1.278-2.643 1.278-1.613 0-3.382-.459-4.652-1.156a.369.369 0 00-.508.153l-1.094 2.302a.319.319 0 00.128.42c1.377.783 3.683 1.359 5.966 1.359z" fill="#000"/></svg>