<svg width="41" height="20" viewBox="0 0 41 20" fill="none" xmlns="http://www.w3.org/2000/svg"><path d="M17.08 16.202a1.046 1.046 0 01-1.048-1.05V9.805a1.067 1.067 0 011.063-1.065 1.061 1.061 0 011.063 1.065v5.332a1.05 1.05 0 01-1.047 1.05l-.032.015zm.03-11.146a5.135 5.135 0 00-3.634 1.51 5.16 5.16 0 00-1.506 3.643v4.518c0 1.367.541 2.678 1.505 3.644a5.135 5.135 0 007.271 0 5.16 5.16 0 001.506-3.643v-4.503a5.16 5.16 0 00-1.506-3.644 5.135 5.135 0 00-3.635-1.51v-.015zm11.304-.672h1.094a1.88 1.88 0 001.872-1.099c.107-.235.165-.49.17-.748A1.894 1.894 0 0030.268.783a1.88 1.88 0 00-.76-.093h-1.115a5.084 5.084 0 00-3.627 1.473 5.107 5.107 0 00-1.514 3.617v12.07a2.05 2.05 0 001.234 1.984 2.036 2.036 0 002.285-.47 2.047 2.047 0 00.559-1.514V9.884h1.408c1.126 0 2.042-.703 2.042-1.832a1.893 1.893 0 00-1.28-1.759 1.88 1.88 0 00-.762-.093H27.33v-.63a1.077 1.077 0 011.084-1.186zm5.313 11.052a2.248 2.248 0 00-2.08 1.393 2.263 2.263 0 00.489 2.459 2.25 2.25 0 003.843-1.596 2.26 2.26 0 00-.66-1.595 2.249 2.249 0 00-1.592-.661zM36.87 4.384h1.094a1.88 1.88 0 001.872-1.099c.107-.235.165-.49.17-.748A1.893 1.893 0 0038.721.783a1.88 1.88 0 00-.76-.093h-1.135A5.084 5.084 0 0033.2 2.163a5.107 5.107 0 00-1.514 3.617v6.932a2.04 2.04 0 004.078 0V9.884h1.413c1.126 0 2.042-.703 2.042-1.832a1.893 1.893 0 00-1.28-1.759 1.88 1.88 0 00-.761-.093h-1.414v-.63a1.077 1.077 0 011.084-1.186h.02zM8.907.008c-.54 0-1.06.215-1.442.597a2.049 2.049 0 00-.6 1.444v4.14H4.106V2.055c0-.544-.216-1.067-.6-1.452A2.047 2.047 0 00.007 2.054V17.85a2.051 2.051 0 001.234 1.984 2.036 2.036 0 002.285-.47 2.047 2.047 0 00.56-1.514V9.884h1.738a1.046 1.046 0 011.047 1.05v6.916c0 .543.215 1.063.598 1.447a2.04 2.04 0 003.485-1.447V2.05A2.05 2.05 0 009.69.161a2.038 2.038 0 00-.782-.154z" fill="#E60000"/></svg>