<svg width="62" height="40" viewBox="0 0 62 40" fill="none" xmlns="http://www.w3.org/2000/svg"><path fill-rule="evenodd" clip-rule="evenodd" d="M46.898 29.158c-.062.061-.062.061-.306.122h-.123c-.794.123-1.65.123-1.895.123h-.183v.245s.978.306 1.1.367v1.47c-.244.307-.489.674-.733 1.042-.245.367-.49.674-.673 1.041l-.061.123h.367l.55-.674c.183-.245.428-.49.55-.674v4.35s-.06 2.388-.06 2.51c-.123 0-1.346.307-1.346.307v.245h2.262l2.263.061v-.306s-1.285-.306-1.407-.306v-2.879c.306.183.612.367.978.49.367.184.734.245 1.162.245h.061c.856 0 1.59-.184 2.202-.613.611-.429 1.04-.857 1.345-1.47.306-.612.489-1.225.489-1.899 0-.674-.122-1.286-.367-1.899-.245-.551-.734-1.102-1.284-1.47-.55-.367-1.345-.551-2.201-.551h-.184c-.366 0-.794.122-1.161.306a5.28 5.28 0 00-.979.613v-.735l-.367-.184zm.794 1.47c.184-.122.306-.245.55-.367.184-.123.306-.184.49-.245l.122-.062c.184-.061.367-.122.55-.122h.123c.428 0 .795.183 1.161.49.306.306.55.735.734 1.225.184.429.245.98.245 1.531 0 .613-.061 1.164-.245 1.593-.183.49-.428.919-.795 1.225a2.936 2.936 0 01-1.345.49c-.428 0-.734-.061-1.04-.245l-.06-.061s-.734-.49-.795-.49v-4.594c0-.062.122-.184.305-.368zm-34.485-1.47c-.611.061-1.1.122-1.712.49-.672.306-1.1.796-1.467 1.409l-.245.429c-.061.122-.122.245-.122.367-.123-.061-.917-.245-.917-.245l-.123.245s.856.429.917.429c-.06.245-.06.551-.06.735 0 .429.06.796.183 1.164a4.7 4.7 0 00.856 1.531c.367.368.795.674 1.345.919.306.123.856.306 1.406.306h.245c.55 0 1.1-.122 1.65-.367.551-.245.979-.613 1.407-1.164l.061-.061-.305-.184-.062.061c-.366.368-.672.613-1.04.735-.305.184-.733.245-1.222.245h-.122c-.245 0-.428-.061-.612-.122-.183-.062-.367-.123-.55-.245-.367-.184-.611-.49-.856-.797-.245-.367-.367-.735-.49-1.163-.06-.307-.06-.674-.06-.98v-.246a20.49 20.49 0 001.773.184h.611c.306 0 .612 0 .979-.061.428-.061.794-.123 1.039-.245.367-.123.673-.306.856-.49.245-.245.367-.551.367-.919a2.11 2.11 0 00-.306-1.102c-.244-.307-.489-.49-.856-.674-.367-.184-.734-.245-1.1-.307-.734.123-1.468.123-1.468.123zm.184.551c.305-.061.611-.061.856.061.244.062.489.184.672.43.184.183.245.428.245.673 0 .368-.061.674-.245.858a2.196 2.196 0 01-.611.428 3.18 3.18 0 01-.856.123h-.918c-.183 0-.794-.061-1.1-.061.061-.49.183-.92.367-1.287.183-.367.428-.612.733-.857.184-.123.55-.307.795-.307l.062-.06zm16.386-.306h-1.834v.245s.978.306 1.1.306v6.31c-.122.06-1.345.367-1.345.367v.245h.123a47.102 47.102 0 014.157 0h.123v-.245s-1.162-.306-1.284-.367c-.061-1.042 0-5.452 0-5.942v-.429h.917c.489 0 .917.061 1.284.184.367.122.611.306.795.612.183.307.244.797.244 1.47v.123h.367l.122-1.47c0-.368.062-.797.123-1.225v-.184c-.061-.061-4.097.061-4.892 0zm13.819-.061c-.49.06-.979.06-1.468.06s-.978 0-1.467-.06h-.123v.245s.979.306 1.162.367c-.367.796-.672 1.593-1.04 2.512-.244.735-.55 1.47-.916 2.389-.123-.43-1.712-4.778-1.773-4.9.183-.062 1.161-.368 1.161-.368v-.245h-.122c-.673.06-1.406.06-1.957.06-.672 0-1.345-.06-1.956-.06h-.123v.245s.979.306 1.04.367c.061.061 1.345 3.492 1.345 3.492l1.345 3.491v.123c-.122.367-.428 1.531-.978 1.899h-.184c-.06 0-.06-.062-.06-.123a.886.886 0 00-.123-.429c-.122-.183-.245-.306-.367-.367-.183-.061-.367-.061-.489 0-.183.061-.306.122-.428.306-.122.123-.183.306-.183.551.122.92.978 1.042 1.284 1.042.428 0 .672-.123 1.04-.429.61-.49.977-1.409 1.16-1.96v-.061s3.058-7.473 3.12-7.535c.06 0 1.039-.367 1.039-.367l.122-.245h-.061zm-16.51.122a47.02 47.02 0 01-4.157 0h-.122v.306s1.162.307 1.284.368v2.328c-.061 0-.917.06-1.773.06-.795 0-1.651-.06-1.835-.06v-2.329c.123-.061 1.284-.368 1.284-.368v-.306h-.122a47.02 47.02 0 01-4.158 0h-.122v.306s1.223.307 1.345.368v6.248c-.122.061-1.345.367-1.345.367v.245h.122a47.096 47.096 0 014.158 0h.122v-.244s-1.161-.307-1.284-.368v-3.308h3.608v3.309c-.123.061-1.284.367-1.284.367v.245h.122a47.096 47.096 0 014.158 0h.122v-.244s-1.223-.307-1.345-.368v-6.248c.122-.061 1.345-.368 1.345-.368v-.306h-.122z" fill="#9A999A"/><path fill-rule="evenodd" clip-rule="evenodd" d="M2.874 24.258c-.367.245-.856.428-1.284.428l-1.53.124.061.306s1.162.245 1.284.245v6.677c0 1.593 0 3.001-.06 4.288-.123 0-1.346.367-1.346.367v.245h4.22v-.245l-.612-.184s-.428-.122-.489-.183V33.2c.123.184.428.49.428.49l.428.49 1.101 1.286.061.061c.428.43.795.858 1.284 1.348.428.429.856.796 1.406 1.164.49.306.979.612 1.468.857.49.184 1.04.307 1.528.307h.062c.183 0 .244 0 .489-.062.55-.183.734-.367.917-.612.122-.184.122-.368.122-.551 0-.184-.06-.368-.183-.43a.66.66 0 00-.428-.183.882.882 0 00-.428.123.516.516 0 00-.245.428v.184l.061.245v.184c0 .061-.06.061-.122.061-.245 0-.55-.122-.917-.367s-.795-.552-1.162-.98c-.428-.368-.856-.858-1.284-1.287-.55-.551-.917-1.041-1.284-1.409l-.367-.49-.672-.857-.55-.674s-.123-.184-.184-.245c.061-.061.428-.49.428-.49l.245-.245c.244-.306.55-.613.856-.919.366-.306.611-.551.917-.735.305-.184.611-.306.917-.306h.061v-.184H4.769v.245l1.1.367c-.488.552-.916 1.042-1.344 1.47l-.918.92s-.305.306-.428.49v-6.248c0-.674.062-1.348.123-2.022v-.061l-.428-.306zM62 29.403c-.49.061-.978.061-1.468.061-.489 0-.978 0-1.467-.061h-.122v.245s.978.306 1.162.367c-.367.797-.673 1.593-1.04 2.512-.244.735-.55 1.47-.917 2.389-.122-.429-1.712-4.778-1.773-4.9.183-.062 1.161-.368 1.161-.368v-.245h-.122c-.672.061-1.406.061-1.956.061-.673 0-1.346-.061-1.957-.061h-.122v.245s.978.306 1.04.367c.06.062 1.344 3.492 1.344 3.492l1.346 3.492v.122c-.123.368-.428 1.531-.979 1.899h-.183c-.061 0-.061-.061-.061-.123a.886.886 0 00-.123-.428c-.122-.184-.244-.307-.367-.368-.183-.061-.366-.061-.489 0-.183.061-.305.123-.428.306-.122.123-.183.307-.183.552.122.918.978 1.041 1.284 1.041.428 0 .672-.123 1.04-.429.61-.49.978-1.409 1.161-1.96v-.061s3.057-7.473 3.118-7.534c.062 0 1.04-.368 1.04-.368l.061-.245z" fill="#9A999A"/><path d="M41.64 2.94c.366.062.305.062.55.307.183.306-.062.98-.367 1.47-.306.43-1.957.613-2.324.797-.367.183-.061 3.246.183 4.287.184.858.306 1.164.55 1.593 0 0 .123-.306.184-.49 0-.123.123-.367.367.306.061.245.061.49.061.674.123-.122.245-.245.55-.367.673-.245.795-.307.612.306-.245.796-.795.612-.795.735 0 .122.612.306 1.04.367.428.062-.062.674-.428.92-.367.244-1.774-.062-2.018 0-.184.06-2.201.612-2.201 1.347 0 .184.978-.98 2.323-.919 3.302.123 5.625 4.227.734 7.35-2.507 1.593-6.665 2.573-6.726 2.696-.061.184 3.913-.368 4.463-.306 3.119.183 3.486 1.04 3.67 1.163.244.307.55.49-4.342.49-2.44 0-10.759-.15-12.063-.133a.702.702 0 01-.166.01c-.028-.005.032-.008.166-.01 1.058-.144 6.548-1.444 7.905-2.01 1.651-.674 2.935-1.226 5.075-2.573 2.201-1.41 1.896-2.634 1.834-3.063-.183-.796-.672-1.225-1.222-1.47-1.468-.613-3.853.551-3.975.429-.061-.123.673-1.41 1.468-2.328 1.161-1.348 2.384-1.96 2.323-1.96-.122 0-.734-1.225-1.04-2.205-.305-.98-.06-3.553-.06-3.553s-.184-.49-1.407 3.369C35.28 14.028 33.446 18.561 31 21.624c-3.302 4.226-7.215 4.41-10.089 3.859-5.442-1.103-6.42-6.555-6.664-7.412-.306-.98-.062-2.818.55-1.47.856 1.899 1.956 3.43 4.77 5.023 2.812 1.592 6.48 1.163 9.048-.184 2.935-1.593 4.28-5.023 5.014-6.677.694-1.563 2.808-8.163 4.122-10.743-.033-.282.04-1.217-.575-1.937-.428-.551-.918-2.082-.428-2.082 1.76-.048 1.521 2.463 1.242 3.58C39.273 1.403 41.03.736 41.211.736c0 0 .367.061.061.245-1.895 1.225-2.262 2.389-2.2 2.389.121 0 .366-.184.855-.307.428-.06 1.406-.183 1.712-.122z" fill="#E94389"/></svg>