<svg width="82" height="30" viewBox="0 0 82 30" fill="none" xmlns="http://www.w3.org/2000/svg"><g clip-path="url(#clip0_3204_2227)"><path d="M0 4.277v8.393l7.239 4.2 7.239-4.2V4.277L7.239.077 0 4.277z" fill="#FDB913"/><path d="M74.502 12.67V4.277l-7.239-4.2-7.239 4.2v8.393l7.239 4.2 7.239-4.2zm-15.009 0V4.277l-7.239-4.2-7.239 4.2v8.393l7.24 4.2 7.238-4.2zm-15.003 0V4.277l-7.239-4.2-7.239 4.2v8.393l7.24 4.2 7.238-4.2zM15.003 4.277v8.393l7.24 4.2 7.238-4.2V4.277l-7.239-4.2-7.239 4.2zM82 25.73v-8.4l-7.239-4.2-7.233 4.2v8.4l7.233 4.193 7.24-4.194zm-15.002 0v-8.4l-7.24-4.2-7.239 4.2v8.4l7.24 4.193 7.239-4.194zm-15.009 0v-8.4l-7.233-4.2-7.24 4.2v8.4l7.24 4.193 7.233-4.194zm-29.481-8.4v8.4l7.239 4.193 7.239-4.194V17.33l-7.24-4.2-7.238 4.2zm-15.003 0v8.4l7.239 4.193 7.239-4.194V17.33l-7.24-4.2-7.238 4.2zM8.5 5.192v2.54a.152.152 0 01-.151.15h-2.22a.15.15 0 01-.151-.15v-2.54a.152.152 0 00-.151-.151H4.283a.15.15 0 00-.151.151v6.811a.152.152 0 00.15.152h1.539a.15.15 0 00.15-.152V9.58a.152.152 0 01.152-.151h2.22a.15.15 0 01.15.151v2.424a.152.152 0 00.151.152h1.55a.15.15 0 00.151-.152V5.192a.152.152 0 00-.15-.151h-1.54a.15.15 0 00-.157.151z" fill="#0A0203"/><path d="M17.82 22.681c0 1.69-1.81 2.388-3.016 2.327a3.092 3.092 0 01-1.93-.682 3.118 3.118 0 01-1.086-1.742 5.169 5.169 0 01.084-2.733 3.121 3.121 0 011.056-1.542 3.098 3.098 0 011.743-.658 3.342 3.342 0 012.474.606c.205.152.217.212.066.412-.235.316-.482.606-.718.94-.127.175-.247.188-.422.054a1.564 1.564 0 00-1.267-.309 1.374 1.374 0 00-1.206 1.285 5.248 5.248 0 000 1.454c.21 1.212 1.538 1.406 2.358.806.055-.042.079-.067.09-.218.013-.152 0-.297 0-.34 0-.042 0-.09-.096-.096h-.67a.222.222 0 01-.24-.158.225.225 0 01-.007-.103v-.836c0-.182.073-.273.26-.273h2.274c.193 0 .253.097.253.279v1.527z" fill="#FDB913"/><path d="M22.434 4.956h-.367c-.85 0-1.665.339-2.265.942a3.225 3.225 0 00-.939 2.276v.86c0 .853.338 1.672.939 2.275.6.604 1.415.943 2.265.943h.367a3.191 3.191 0 002.266-.943 3.22 3.22 0 00.938-2.275v-.86a3.232 3.232 0 00-.938-2.276 3.203 3.203 0 00-2.265-.942zm1.352 4.09a1.466 1.466 0 01-.905 1.358 1.46 1.46 0 01-.561.109h-.157a1.45 1.45 0 01-1.028-.428 1.464 1.464 0 01-.426-1.033v-.89c0-.388.153-.76.426-1.033a1.45 1.45 0 011.028-.428h.157a1.462 1.462 0 011.454 1.46l.012.885zM70.652 5.04h-1.737a.126.126 0 00-.115.067l-1.46 2.806a.092.092 0 01-.078.045.09.09 0 01-.078-.045l-1.466-2.806a.127.127 0 00-.115-.066h-1.737a.127.127 0 00-.13.123c0 .023.005.045.015.064l2.552 4.733a.13.13 0 010 .06v2.007a.129.129 0 00.078.117.12.12 0 00.049.01h1.598a.126.126 0 00.127-.127v-1.952a.127.127 0 010-.06l2.576-4.788a.128.128 0 00-.027-.16.127.127 0 00-.052-.027zm-8.415 14.102v-1.29a.17.17 0 00-.169-.17h-4.62a.169.169 0 00-.17.17v6.78a.17.17 0 00.17.17h4.62a.169.169 0 00.17-.17v-1.29a.17.17 0 00-.17-.17H59.3a.169.169 0 01-.169-.17v-.781a.17.17 0 01.17-.17h1.984a.169.169 0 00.169-.17V20.73a.17.17 0 00-.17-.17H59.3a.169.169 0 01-.169-.17v-.92a.17.17 0 01.17-.17h2.768a.168.168 0 00.17-.158zm9.887 4.648l.87-1.121a.192.192 0 01.264-.036 2.77 2.77 0 001.11.539c.827.133 1.14-.194 1.207-.442.066-.249-.302-.516-.561-.558-.26-.042-.682-.121-1.207-.26-2.014-.528-1.858-2.776-.651-3.764a3.21 3.21 0 013.662.17l.126.115a.134.134 0 010 .182l-.874 1.212a.169.169 0 01-.242.036 1.612 1.612 0 00-.97-.382c-.604 0-.683.334-.683.334a.434.434 0 00.158.479c.048.035.104.06.162.072.459.164 1.176.2 1.665.418a1.847 1.847 0 011.285 1.927 2.214 2.214 0 01-1.206 1.921 4.013 4.013 0 01-4.06-.509.224.224 0 01-.055-.333zm-45.624.764c-.03.103-.036.157 0 .187.037.03.079.043.175.043h1.533a.234.234 0 00.259-.206c0-.11.06-.218.09-.327.03-.11.079-.273.115-.407a.228.228 0 01.167-.205.228.228 0 01.093-.006h1.81a.214.214 0 01.164.043.218.218 0 01.083.15c.036.17.084.334.132.497l.073.26a.23.23 0 00.241.2h1.563a.185.185 0 00.18-.042v-.175l-.144-.437-.52-1.551-1.52-4.581c-.072-.212-.156-.285-.35-.273-.192.012-.373 0-.548 0h-1.08a.282.282 0 00-.32.218L26.5 24.554zm3.252-4.703c0-.085.12-.103.145 0l.555 2.042a.121.121 0 01-.115.152h-1.013a.12.12 0 01-.094-.048.122.122 0 01-.021-.104s.525-1.957.543-2.042zM40.043 8.95a2.384 2.384 0 00-.639-.728.218.218 0 01-.054-.273 1.824 1.824 0 00-.09-2.09 2.137 2.137 0 00-1.63-.812h-2.642a.18.18 0 00-.18.181v6.751a.182.182 0 00.18.182h3.095a2.194 2.194 0 001.78-.921 2.432 2.432 0 00.18-2.29zm-3.396-2.122a.122.122 0 01.073-.117.12.12 0 01.048-.01h.464a.523.523 0 01.555.54v.193a.481.481 0 01-.317.478.474.474 0 01-.201.025h-.471a.127.127 0 01-.12-.127l-.03-.982zm1.653 3.176a.477.477 0 01-.32.463.467.467 0 01-.199.021h-.983a.12.12 0 01-.12-.12V9.41a.122.122 0 01.12-.121h.971a.517.517 0 01.555.52c-.024.037-.024.158-.024.189v.006zM55.294 8.95a2.384 2.384 0 00-.64-.728.218.218 0 01-.054-.273 1.824 1.824 0 00-.09-2.09 2.137 2.137 0 00-1.63-.812h-2.654a.18.18 0 00-.18.181v6.751a.182.182 0 00.18.182h3.095a2.195 2.195 0 001.78-.921 2.432 2.432 0 00.193-2.29zm-3.415-2.128a.122.122 0 01.073-.117.12.12 0 01.048-.01h.483a.523.523 0 01.555.54v.193a.481.481 0 01-.318.478.475.475 0 01-.201.025h-.501a.127.127 0 01-.12-.127l-.019-.982zm1.653 3.176a.477.477 0 01-.32.462.47.47 0 01-.199.022h-.989a.12.12 0 01-.145-.103v-.97a.122.122 0 01.12-.12h.972a.517.517 0 01.555.52c.024.037.024.158.024.189h-.018zm-5.272 7.69h-1.376c-.313 0-.374.03-.506.309a309.986 309.986 0 01-1.508 3.193c-.037.073-.073.14-.127.23-.049-.09-.085-.15-.115-.218-.482-1.012-1.044-2.145-1.508-3.163-.163-.351-.193-.351-.603-.357H41.25a.15.15 0 00-.15.151v6.818a.152.152 0 00.15.151h1.538a.15.15 0 00.151-.151v-3.364c.066 0 .127.115.157.182.386.782.772 1.563 1.152 2.351a.503.503 0 00.47.34.511.511 0 00.525-.328c.41-.854.833-1.702 1.25-2.55a.078.078 0 01.066-.037v3.412a.152.152 0 00.15.151h1.55a.15.15 0 00.152-.151v-6.812a.152.152 0 00-.151-.157z" fill="#fff"/></g><defs><clipPath id="clip0_3204_2227"><path fill="#fff" d="M0 0h82v30H0z"/></clipPath></defs></svg>