<svg width="55" height="20" viewBox="0 0 55 20" fill="none" xmlns="http://www.w3.org/2000/svg"><path d="M35.423 8.346h.034c-.086 1.302-.086 1.812-.086 2.56L35.388 20h3.172l-.07-16.148h-4.154L29.544 16.15 24.753 3.852h-4.31L20.375 20h2.983l.017-9.18a21.309 21.309 0 00-.107-2.474h.034c.154.765.385 1.512.69 2.23l3.706 9.37h3.328l3.689-9.213c.305-.773.542-1.572.709-2.387zm5.602-7.161v.679L54.983.679 55 0 41.025 1.185zm-.034 18.813h13.958V17.16H44.128v-3.867H54.66V10.42H44.128V6.688h10.825V3.852H40.995l-.004 16.146zm-26.46 0h3.137V3.852h-3.137v16.146zM3.223 3.852H0V20h12.847v-2.91H3.223V3.852z" fill="#000"/></svg>