<svg width="79" height="32" viewBox="0 0 79 32" fill="none" xmlns="http://www.w3.org/2000/svg"><path d="M66.523 13.777v.07c0 1.343-.812 2.967-2.732 2.967-2.214 0-3.322-1.977-3.396-4.944h8.86v-.07c.517-3.32-.59-7.628-5.464-7.628-3.913 0-6.275 2.825-6.275 7.486 0 4.591 2.288 7.346 6.202 7.346 3.1 0 5.094-2.049 5.39-4.38v-.14l-2.585-.707zm-6.054-3.602c.221-2.33 1.403-3.885 3.322-3.885 1.625 0 2.954 1.06 2.88 3.885h-6.202zm-9.082 6.495h-.295L47.917 4.38h-2.953l3.84 14.339h4.503L57.294 4.38H54.34l-2.954 12.29zM43.635 4.38h-2.88v14.34h2.88V4.38zM38.393.284h-2.88v18.364h2.88V.284zm-5.316 0h-2.88v18.364h2.88V.284zM25.252 4.38v7.77c0 2.825-1.108 4.803-2.953 4.803-1.55 0-2.437-1.06-2.437-3.32V4.381h-2.88v9.817c0 3.108 1.699 4.803 4.209 4.803 2.141 0 3.544-1.483 4.135-3.673h.369l.221 3.39h2.29V4.382h-2.954zm52.641-.07c-1.55 0-3.249.988-3.84 3.46h-.369l-.147-3.39h-2.29v14.338h2.88V12.22c0-3.814 1.108-4.944 3.101-4.944.296 0 .665.07 1.108.211L79 4.38c-.517-.07-.812-.07-1.107-.07zm-57.81 27.545h-3.175c-.147 0-.221-.071-.147-.212l.074-.142c.073-.14.147-.212.295-.212 1.034 0 1.477-.635 1.92-2.118l1.476-4.803c.222-.777.074-.918-.812-.918-.148 0-.221-.071-.148-.212l.074-.212c.074-.142.148-.212.296-.212h2.215c.221 0 .295.07.369.353l1.107 6.851 4.947-6.78c.221-.354.37-.354.664-.354h2.363c.148 0 .222.071.148.212l-.074.142c-.074.14-.074.212-.296.212-.96 0-1.18.14-1.328.847l-1.699 6.145c-.147.636 0 .847.96.847.222 0 .222.071.222.212l-.074.142c-.074.14-.148.212-.37.212h-3.617c-.222 0-.222-.071-.222-.212l.074-.142c.074-.14.148-.212.37-.212.812 0 1.107-.212 1.328-.847l1.846-6.498-5.611 7.699c-.148.14-.148.212-.295.212-.148 0-.222-.071-.222-.212l-1.476-7.628-1.551 5.156c-.517 1.553-.517 2.118.517 2.118.221 0 .221.071.221.212l-.074.142c-.073.212-.147.212-.295.212zm13.733-.43c0-.283.148-.777.443-1.554l-.073-.07c-1.034 1.341-1.92 2.189-2.88 2.189-.664 0-1.034-.424-1.034-1.271 0-2.331 2.437-5.58 4.43-5.58.591 0 .96.282 1.182.635l.147-.282c.074-.212.148-.212.37-.212h.516c.222 0 .222.141.148.353-.59 1.483-1.403 3.461-1.846 4.874-.148.423 0 .494.148.494.369 0 .812-.494 1.255-1.13.074-.07.148-.07.221-.07l.148.07c.074.07.074.07 0 .212-.738 1.13-1.698 1.907-2.51 1.907-.443 0-.665-.212-.665-.565zm-2.288-1.201c0 .353.073.777.516.777.886 0 2.29-1.766 2.806-2.825.295-.495.443-1.13.443-1.625 0-.565-.295-.918-.812-.918-1.181 0-2.953 2.966-2.953 4.591zm8.712-2.401c.886-1.342 1.772-2.684 2.805-2.684.443 0 .739.282.739.635 0 .495-.296.919-.739.919a.499.499 0 01-.443-.283c-.073-.141-.147-.212-.221-.212-.665 0-1.92 2.119-2.584 3.461-.148.353-.296.636-.443 1.06l-.296.847c-.073.212-.147.283-.369.283h-.59c-.148 0-.222-.071-.148-.283.59-1.554 1.181-3.108 1.698-4.732.222-.495.074-.636-.074-.636-.221 0-.812.565-1.255 1.13-.074.07-.148.07-.221.07l-.148-.07c-.074-.07-.074-.141 0-.212.812-1.2 1.772-1.907 2.51-1.907.59 0 .739.707.37 1.554l-.591 1.06zm6.275 3.182c-.222-.424-.59-.989-.812-1.483-.148-.212-.296-.353-.59-.353h-.222l-.886 2.472c-.074.212-.148.212-.37.212h-.664c-.221 0-.221-.07-.148-.283l3.027-8.263c.222-.495-.073-.566-.738-.566-.074 0-.221-.07-.148-.211l.074-.212c.074-.07.074-.142.222-.142h1.846c.073 0 .073 0 .147.071l.074.07c.074.071.074.071 0 .142l-1.624 4.167h.074c.738-.918 1.698-1.624 2.657-1.624.739 0 1.182.424 1.182.989 0 1.2-1.477 2.26-2.88 2.754.296.494.665 1.2.96 1.625.296.494.517.776.665.776.221 0 .369-.211.664-.494.074-.07.074-.07.222-.07l.074.07c.073.07.147.07.073.212-.295.565-.812 1.06-1.55 1.06-.665.07-.96-.283-1.33-.919zm-1.477-2.26c.37 0 .886-.141 1.255-.282.96-.354 1.994-1.272 1.994-2.049 0-.282-.148-.565-.517-.565-.886 0-2.215 1.342-2.732 2.896zm4.873 1.55c0-2.26 2.437-5.156 4.283-5.156.812 0 1.255.423 1.255 1.06 0 1.13-1.33 2.33-4.135 2.895-.074.282-.074.494-.074.777 0 .636.222 1.2.886 1.2.517 0 1.108-.353 1.699-1.059.073-.07.147-.07.221-.07l.074.07c.074.07.074.141 0 .212-.59.918-1.55 1.766-2.584 1.766-1.182 0-1.625-.848-1.625-1.695zm1.625-1.696c1.846-.423 2.731-1.483 2.731-2.33 0-.283-.073-.495-.443-.495-.738 0-1.845 1.342-2.288 2.825zM56.261 32c-.738 0-.738-.918-.443-1.695l1.624-4.379h-.738c-.148 0-.148-.07-.074-.212l.148-.282c.074-.141.074-.141.221-.141h.739l.369-1.06c.074-.212.148-.283.295-.353.296-.07.665-.283.812-.283.148 0 .222.071.148.283l-.517 1.413h1.33c.147 0 .22.07.147.211l-.148.283c-.074.141-.074.141-.221.141h-1.33l-1.697 4.591c-.074.283 0 .424.147.424.222 0 .886-.565 1.255-1.06.074-.07.148-.07.222-.07l.148.07c.073.071.073.071 0 .212-.443.848-1.625 1.907-2.437 1.907zM43.635 1.912h-2.88v.848h2.88v-.848zM7.974 9.182V11.3h4.504c.295 3.46-1.846 5.368-4.283 5.368-3.248 0-5.168-2.896-5.168-7.134 0-4.026 2.067-6.992 5.095-7.063 2.288-.07 4.06 1.2 3.913 4.097l3.1-.707C14.916 2.402 12.257 0 8.196 0 3.25 0 0 3.885 0 9.535c0 5.721 3.027 9.535 7.974 9.535 4.725 0 8.122-3.108 7.457-9.817v-.071H7.974z" fill="#525665"/></svg>