<svg width="100" height="28" viewBox="0 0 100 28" fill="none" xmlns="http://www.w3.org/2000/svg"><path fill-rule="evenodd" clip-rule="evenodd" d="M14.025 0c2.774 0 5.486.821 7.792 2.36a14.006 14.006 0 015.166 6.282 13.977 13.977 0 01-3.04 15.258 14.049 14.049 0 01-15.285 3.035 14.02 14.02 0 01-6.294-5.157A13.982 13.982 0 014.108 4.101 14.038 14.038 0 0114.025 0z" fill="#F9D600"/><path fill-rule="evenodd" clip-rule="evenodd" d="M17.722 17.25h.21a.283.283 0 000-.09v-.19h.19v-.05l-.05-.11-.12-.23-.05-.28.03-.48v-.14l-.26-.26-.11-.14-.08-.05v.08h-.23l-.091-.05-.11-.06-.34-.11H16.6l-.11-.09h-.34l-.051-.14-.17-.22-.14-.06h-.761l-.121.06-.14.06h-.17l-.171.06v.06h-.12v-.06l.08-.08.06-.12v-.22.06l-.05.11-.2.28-.11.14V15l.08.17.14.11-.17-.05-.21-.09v-.67l-.111.11-.05.17-.06.2v.34l-.06.08v.17l-.05.11-.09.06h-.05v.51l.05.06h.06V16l.06-.14.08-.14.17-.19.08-.09.12-.11v.05l.09.06h.08l-.11.17v.16l.06.15.08.11.221.17-.14-.05-.22-.17-.06-.06-.05.09v.14h-.261v-.11l-.06.11v.11l.06.11h-.2l-.14-.14v-.48l-.091-.11h-.14v-.14h.22l.06-.09v-.53l.09-.17.11-.2.08-.19.121-.17.16-.09.2-.08.14-.06v-.17l.061-.11.14-.2.14-.16v-.17l-.12.11-.11.08h-.05v-.05l.05-.14v-.51l-.05-.06h-.06v-.14l-.23-.12h-.22l.05.09h-.172l-.08-.06-.06-.11v.17l.11.08.11.06h-.17l-.09-.08-.05-.09v.06l-.11.17v.14l.08.08h.09-.281l-.12-.08-.05-.12v-.25h-.441l-.09.09v.22l.06.06.08.06.13.23.2.2.06.14v.28l.171.08h.11v.06l-.05.11v.11l-.06.06h-.48l-.141.14v.14l-.06.06-.17.11v.17l-.08-.09v-.14l.08-.06.11-.08v-.14h-.17l-.11.05-.08.12-.091.14-.08.14v.45l-.06.22v.17l.11.11h.27l-.12-.1-.06-.2.1-.25h.09v.08l-.06.17.06.14.14.06.201-.09v-.19l.02-.17-.06-.17h.09v.34l-.08.25-.09.09-.11.06h-.21v.26l.19.19h-.16V16l-.05-.09h-.061l-.06.11v.39l.09.14.08.06.11.06h.06v.12h.281v.09h.26l.11-.11.08-.11h.321l.11.06h.172l.061.06.08.17.09.06.06-.08v-.08l.14.14h.221l.09-.09.11-.28.11-.06h.09v.06l.091.08h.45v-.08l.08-.17.091-.17v-.17l.06-.08.08-.09.06-.08h.05V16l.06.17h.171v.23l.08.14.09.08h.19l.09-.06.111-.11h.06v.25l.08.09h.169v.31l.08.06h.14l.111-.12h.06-.17l-.06-.09v-.28.14l.06.12h.219l-.08.08.4.24zm-.34 1l-.13-.06-.091-.06-.15-.13h.17l.13-.05.12-.07v-.19l-.07-.07h-.06v.06l-.09.12-.11.06-.07.09V18l.06.16v.11a.61.61 0 00.31-.06l-.02.04zm-1.513-4.38l-.14-.08v.11l.09.14v.31l.06-.06.08-.17V14l-.11-.14.02.01zm-.872-4.36l-.12.23.06.08.11.06.12.08v.11l-.08.2h.25l.09-.14v-.48h.06l.081.09.11.14.09.22v.17l.05.06h.342l.2-.06.11-.08.08-.14V9.6l.05.11v.2l-.05.28-.14.39h.16l.171.09.26.2.17.31v.5l-.06.09-.11.05-.07-.02-.06.05.06.15v.31l.11.28.231.2.14.06h.451l.19.17h.06v-.31l-.18-.1h-.45l-.14-.06-.111-.17-.06-.17v-.08.05l.06.12.11.14h.14l.2.06.161.06.2.14.09.08-.06-.22-.06-.14-.08-.15-.22-.05-.11-.06-.18-.16-.09-.17v-.14l.09-.22.11-.26V11l-.11-.28-.17-.2-.201-.08-.2-.06h-.11v-.09l.06-.17.05-.25v-.34l-.171-.22-.14-.09h-.09v.34l-.06.23-.11.16-.11.12h-.233l-.07-.07-.09-.11-.08-.17-.06-.2-.05-.2-.091-.11-.19-.21h-.23.06l.14.11.08.14v.17l-.09.08h-.12v-.11.05l-.151.07zm-.621-.25h.17l.14.08.05.06-.06-.2h.09l.08.06.06.09.02-.2-.1-.15h-.4l-.14.06-.08.06v.11h.2l-.03.03zm-.511.59l.06.06.05.08h.2v-.14l-.06-.17-.17-.25-.11-.09h-.25l.11.17v.14h-.05l-.17-.11-.121-.06-.28-.14h-.342l.06.05.11.06.14.08.281.17.08.11v.2h.06l.11-.06.23-.25.061.15zm.48 2.67v-.25l-.08-.09-.14-.05h-.4l-.14.08v.06h.48l.17.11.05.08.06.06zm1.323 1.63v-.14l-.16-.17h-.601l-.05.06h-.2l-.14.06-.091.04h.09l.05.15v.16l-.05.2.11-.06.11-.08V14h.12l.05.08v.09h.06v-.31l.061.06v.28l.17-.06h.25v-.04l.221.05zm.23-.28l.191.2.09.11v.11-.11l.11.17.09.08.11.06.08.06.091.11.06.08.11.09.11-.06v-.17.09l.11.36.08.12.091.05h.05v-.09l-.09-.11a.34.34 0 01-.05-.19v-.35l-.09-.14-.05-.15V14l-.06-.26V13l.06-.23v-.22l-.09-.11-.14-.09-.141-.06-.11-.05h-.08l-.12.05h-.222v.14h.39l.171.09.14.11v.06l-.06-.06-.08-.08-.25-.14h-.311.05l.11-.06h.15l.22.11.111.14v.43l-.08-.05-.14-.14h.14v-.2l-.06-.07h-.06v.13h-.19l-.08.3v-.17h-.141v.14l.14.2.09.08v.23l-.09.14-.08.11-.08.09h-.2v.05zm1.323 2l.14-.14v.06l-.08.23v.14l.05.08h.431l-.17.09h-.14l-.14-.06-.091-.08V16l.09-.15-.09.02zm-.872.06v-.39l-.06-.14v-.12l.06.09.14.05h.05v.23l-.08.17-.14.11h.03zm-3.245.39v.26l-.14.17v-.09l.06-.11h-.451l-.12-.09.09-.06h.52l.08.08-.04-.16zM14.546 15h.08l.06-.06h.05l.09.08v.28l-.06.14-.08.12v.14l.12.11h.282-.11v.3l-.12.06h-.33l-.091-.09v-.62l-.09-.11-.05-.06v-.19l.05-.09h.23l-.03-.01zm.641.12l.06-.12.06-.11v-.06.42l.06.09.08.05.091.09.14.14v.25-.08l-.06-.08-.08-.09-.2-.11-.14-.14-.06-.17v-.08h.05zm.521-1.92l.06.06-.05-.06h-.01zM13.134 11v.42h.25v.08l-.14.2v.17l.11.11h.11l.11-.06.26-.08h.251v-.06.02l-.16-.06-.17-.08-.17-.12h.14l.34.11h.11l.06-.09v-.08l.06-.06.06.06.111.22.14.06h.17l.201.05.14.09v.33l.14.12.12.14.11.19.051.31.06.14v-.05l-.14-.28v.25l-.06.11h-.11l-.17.06-.191.18-.06.11.06.06h.34l.14-.06h.251l.08.09v.17h.06l.14-.09.11-.14v-.22l-.06.08h-.08l-.17-.06-.07-.08.21.06h.14l.06-.14.041-.18h-.05l-.09-.09-.14-.17-.08-.22v-.2l.06-.19v-.14l-.08-.15-.06-.16v-.14.11l.09.14.08.08.09.06h.05v.17h.11l.06-.09v-.05h.06l.11.11.17.05h.05v-.05l.111-.07-.14-.25-.14-.34-.15-.36-.161-.29-.23-.16-.22-.09-.201-.06-.14-.08-.09-.06h-1.544l-.371.11-.31.2-.251.16.08.09.26-.11h.17l-.06.09v.17l-.03-.02zm-1.713.53v.11l.05.12h-.11v.2l.06.09h-.09l-.08-.05v.45l-.11.08-.121.14-.05.17v.42l-.08.14-.17.34-.09.23v.7l.08.48.06.22v.17a1.21 1.21 0 010 .14 1.005 1.005 0 010-.19v-.83l.12-.25.11-.2.08-.17v-.51l.06-.14.11-.25v-.22l.23.23.08.05V13l-.14-.37v-.11h.17l.221-.4.09-.11.05-.28v-.06h.23l.081-.08.06-.11v-.58l-.06-.09-.11.2-.14.11-.09.06h-.11l-.171-.06-.11-.12h-.06v.22l.14.14.06.06h-.28v.11h.03zm-.311.11l.11-.14v-.59l.06-.08h.641l.08-.06.06-.11-.14-.1v-.17l-.31.08-.34.23-.351.3-.31.45-.281.5-.25.54-.201.56-.14.53-.09.57c.18 3.6.34.76.28.22v-.93l.12-.39v1.15l.08.48.08.37.09.25v.06-.42l-.06-.48v-.48l.11-.45.14-.42.141-.4.14-.33.12-.28v-.29l.12-.09.101-.08zm3.757-2.84c-.33-.32-1.253.59-1.583.28a2.845 2.845 0 01.49-2.19c.08-.13.161-.25.221-.37 1.002-1.74.13-2.43-.05-3.81.41 1.48 1.443 1.58.942 4 0 .11-.1.37-.07.29l.11-.25c1.292-3.36-1.423-2.6-.872-5.31-1.372 2.53 1.743 2.49-1.002 5.7a2.646 2.646 0 00-.31 2h-.11l-.16.11a2.602 2.602 0 01-1.233-1.59c-.46-4.2-2.574-1.9-3.486-4.64.09 2.88 2.765 1.29 2.004 5.45a3.096 3.096 0 001.001 2.21A3.061 3.061 0 018.475 10C5.971 6.6 5.3 9.63 3.145 7.72c1.513 2.45 3.006-.26 4.449 3.72.27.79 1.392 1.23 2.003 1.42a3.099 3.099 0 01-2.364.45c-3.877-1.7-2.935 1.27-5.76.69 2.534 1.37 2.494-1.74 5.71 1a3.01 3.01 0 002.364.25v.07c-.34.54-1.002 1.41-1.773 1.5-4.198.46-1.903 2.56-4.638 3.47 2.885-.08 1.292-2.76 5.45-2a3.09 3.09 0 002.213-1 2.995 2.995 0 01-.781 2.27c-3.436 2.44-.39 3.15-2.304 5.31 2.454-1.51-.26-3 3.727-4.44.517-.258.917-.7 1.122-1.24.03.046.063.09.1.13.045.064.1.12.16.17.34.31.491.41.541.91v.32c.11-.374.163-.761.16-1.15.09.15.29.55.32.6l.191.37.18.26.09.1h.181a4.09 4.09 0 01-.26.5c-.1.16-.26.41-.401.68-.591 1.15.18 1.87.32 2.81a6.605 6.605 0 00-.65-.84 2.786 2.786 0 01-.532-1.5 2.896 2.896 0 01.23-1.42c-1.392 3.48 1.393 2.68.832 5.41 1.283-2.37-1.372-2.48.541-5.13a2.74 2.74 0 00.802-1.8h.06l.13-.07.08-.12-.05-.09-.1-.07-.12-.06-.32-.06c-.752-.09-.462-.62.21-.62h.12c.25.17 1.322.75 1.432 1.75.461 4.2 2.565 1.9 3.477 4.64-.08-2.88-2.765-1.29-2.004-5.45.04-.274.006-.554-.1-.81-.004.43-.055.86-.15 1.28a4.269 4.269 0 000 1.47c.11.35.12.86.42 1.1.323.257.61.556.852.89a3.346 3.346 0 00-.721-.36l-.351-.22a2.062 2.062 0 01-.721-.78 2.317 2.317 0 01-.291-1 5.122 5.122 0 00-.42-1.77 3.76 3.76 0 00-.331-.52l.09-.08.25-.14.17-.14h.05a.32.32 0 00.431-.08c.1 0 .341-.15.371-.25a.192.192 0 000-.07 2.08 2.08 0 01.12-.51l-.1.17-.09.17v.09l-.08.1h-.05l.09-.12v-.66c.698.004 1.367.28 1.863.77 2.495 3.4 3.176.37 5.33 2.28-1.513-2.46-3.006.26-4.448-3.72-.2-.444-.557-.8-1.002-1 .468.36.817.85 1.002 1.41.183.618.501 1.189.931 1.67.521.74 2.495.87 2.084.82-.41-.05-.67.09-1.362.09a2.296 2.296 0 01-1.773-1 6.007 6.007 0 00-1.253-1.3c-.38-.27-.66-.39-.861-.52 0-.26-.15-.43-.18-.65a1.319 1.319 0 00-.321-.81 2.16 2.16 0 01-.39-.41v-.12a2.693 2.693 0 000-.85c.11-.27.37-.34.71-.22.702.25.592-.37.882-.49a1.767 1.767 0 011.312 0 9.105 9.105 0 011.463.81c.591.322 1.25.5 1.924.52.44-.12.861-.4 1.252-.49-.52.588-1.228.98-2.004 1.11a4.2 4.2 0 01-1.613-.48 2.008 2.008 0 00-1.432.09 1.717 1.717 0 011.102 0c3.867 1.7 2.935-1.27 5.76-.69-2.544-1.37-2.504 1.74-5.72-1a3.08 3.08 0 00-2.415-.24c.311-.53 1.002-1.49 1.814-1.58 4.207-.46 1.913-2.56 4.648-3.47-2.885.08-1.292 2.76-5.45 2a1.304 1.304 0 00-.52 0c-.14 0-.06 0 0 0 .14 0 .53.07.87.14a3.1 3.1 0 001.403.09c.498-.043.972-.23 1.363-.54.31-.33.18-.49.892-1.05-.301.415-.556.86-.762 1.33-.28.53-.681.65-1.152.9a6.602 6.602 0 01-1.703.24c-.48.1-.802.58-1.232 1a1.111 1.111 0 01-.551.33l-.21-.08-.301-.11-.12-.13v-.32l.08-.14.06-.18V11l-.06-.23-.08-.21-.05-.06-.1-.12-.1-.1-.05-.05-.221-.09h-.1v-.65l-.12-.17-.181-.3h-.18l-.17.07v.67l-.07.12-.07.05-.211-.24-.06-.56a1.99 1.99 0 01.53-1c.391-.3 1.473-.51 2.004-1 .194-.196.371-.406.531-.63.521-.72.37-.91.44-1.71.015-.268.102-.527.251-.75a7.896 7.896 0 00.11 2c.023.368-.057.735-.23 1.06 1.002-1.48-.621-2.26.892-4-2.455 1.51.26 3-3.727 4.44A2.444 2.444 0 0015.428 9l-.2-.07h-.281l-.08-.13zm1.953 6.71l.08.07-.07.07v-.12l-.01-.02zm14.066 3.43v-2.78h.681c.684-.987.99-2.187.861-3.38V8.36h5.08v7.8h.921v2.78h-1.653v-1.32H32.53v1.32h-1.643zm2.404-2.78h2.565V9.83h-1.773v2.94a9.727 9.727 0 01-.19 1.84c-.1.55-.305 1.076-.602 1.55zm5.88 1.46v-7h1.654v4.07l1.001-1.78 1.323-2.29h1.533v7h-1.653v-4.07l-.872 1.58-1.433 2.49h-1.552zm6.643 0v-7h2.614c.293-.003.586.027.872.09.244.061.477.16.691.29.216.134.387.329.491.56.126.262.188.55.18.84a1.54 1.54 0 01-.23.83 1.4 1.4 0 01-.681.52 1.324 1.324 0 01.871.59c.201.324.306.699.3 1.08.01.32-.037.637-.14.94a1.75 1.75 0 01-.37.63 1.614 1.614 0 01-.611.37c-.244.098-.5.162-.762.19a5.87 5.87 0 01-.891 0l-2.334.07zm1.653-1.4h.72c.287.022.575-.033.832-.16.19-.1.28-.31.28-.64a1 1 0 00-.06-.35.63.63 0 00-.16-.24.741.741 0 00-.25-.14 1.593 1.593 0 00-.3-.06h-1.062v1.61-.02zm0-3h.801a.773.773 0 00.571-.19.59.59 0 00.19-.46.64.64 0 00-.18-.44.823.823 0 00-.591-.19h-.791v1.28zm4.267 2.45c0-1.607 1.31-2.323 3.927-2.15a2.476 2.476 0 00-.22-1.21.921.921 0 00-.852-.37 1.002 1.002 0 00-.771.22c-.171.222-.25.501-.22.78h-1.603a2.167 2.167 0 01.6-1.87 2.95 2.95 0 012.004-.6 2.77 2.77 0 012.084.69c.485.576.722 1.32.661 2.07v4.35h-1.442l-.16-.81c-.21.282-.485.509-.802.66a2.32 2.32 0 01-1.082.25 2.207 2.207 0 01-1.533-.52 1.861 1.861 0 01-.59-1.49zm1.653-.12c0 .41.32.62 1.002.62.207.005.412-.036.601-.12a.88.88 0 00.39-.32c.097-.133.168-.282.211-.44.052-.17.085-.344.1-.52a3.874 3.874 0 00-1.733.1.731.731 0 00-.54.68h-.03zm5.09 2v-7h1.652v4.07l1.002-1.78 1.333-2.29h1.552v7h-1.693v-4l-.861 1.58-1.453 2.49-1.533-.07zm.76-9.29h1.313a.529.529 0 00.19.45c.173.09.367.131.562.12a.843.843 0 00.53-.13.49.49 0 00.18-.44h1.363a1.757 1.757 0 01-.51 1.38 2.387 2.387 0 01-1.563.42 2.357 2.357 0 01-1.563-.42 1.788 1.788 0 01-.501-1.38zm5.921 9.29v-7h1.653v2.64h2.214v-2.54h1.653v7h-1.653V14.7H66.81v2.92l-1.653-.07zm9.017 0l.06-1.6c.228.028.46-.018.661-.13.164-.081.305-.201.41-.35.113-.19.185-.4.211-.62 0-.28.08-.5.09-.64.01-.14 0-.37 0-.69V8.36h5.58v9.26h-1.603V9.87H77.39l-.08 3.46c0 .59 0 1.09-.08 1.48a6.046 6.046 0 01-.25 1.19c-.084.37-.26.714-.511 1a2.114 2.114 0 01-.882.53 3.332 3.332 0 01-1.372.1l-.04-.08zm8.144-1.91c0-1.607 1.31-2.323 3.927-2.15.028-.39-.037-.78-.19-1.14a.921.921 0 00-.852-.37 1.002 1.002 0 00-.77.22 1.083 1.083 0 00-.221.78h-1.643a2.165 2.165 0 01.6-1.87 2.949 2.949 0 012.005-.6 2.77 2.77 0 012.083.69c.485.576.722 1.32.661 2.07v4.35h-1.392l-.16-.81c-.21.282-.485.509-.802.66a2.32 2.32 0 01-1.082.25 2.247 2.247 0 01-1.543-.52 1.89 1.89 0 01-.58-1.49l-.04-.07zm1.733-.05c0 .41.321.62 1.002.62.21.006.42-.035.611-.12a.88.88 0 00.391-.32c.088-.137.158-.285.21-.44.052-.17.085-.344.1-.52a3.874 3.874 0 00-1.733.1.732.732 0 00-.54.68h-.04zm5.09 2v-7h1.653v4.07l1.001-1.78 1.273-2.23h1.553v7h-1.673v-4.1l-.882 1.58-1.443 2.49-1.482-.03zm.761-9.29h1.312a.51.51 0 00.19.45c.173.09.367.131.562.12a.863.863 0 00.53-.13.49.49 0 00.181-.44h1.362a1.757 1.757 0 01-.51 1.38 2.387 2.387 0 01-1.563.42 2.357 2.357 0 01-1.563-.42 1.788 1.788 0 01-.501-1.38zm5.3 3.74v-1.4H100v1.4h-1.623v5.55h-1.653v-5.52l-1.523-.03z" fill="#0D1800"/><path fill-rule="evenodd" clip-rule="evenodd" d="M34.201 23.09l-.34-.34a.599.599 0 01-.481.24c-.401 0-.611-.28-.611-.83 0-.55.21-.83.61-.83a.613.613 0 01.481.24l.341-.33a1.1 1.1 0 00-.37-.27 1.213 1.213 0 00-.451-.08c-.692 0-1.112.47-1.112 1.26s.41 1.29 1.112 1.29c.154.008.308-.019.45-.08.14-.067.265-.158.371-.27zm3.767-.38a.598.598 0 00-.39-.59.55.55 0 00.35-.53.659.659 0 00-.752-.67h-1.212v2.49h1.242a.672.672 0 00.752-.7h.01zm-.531-1.09c0 .21-.13.32-.37.32h-.602v-.63h.591c.24 0 .37.11.37.31h.01zm0 1.05a.34.34 0 01-.38.35h-.592v-.69h.621a.331.331 0 01.38.34h-.03zm4.358-.36v-.22a1.049 1.049 0 00-1.052-1.2c-.661 0-1.062.48-1.062 1.26s.38 1.29 1.132 1.29a1.154 1.154 0 00.922-.39l-.31-.3a.791.791 0 01-.592.26c-.47 0-.641-.28-.651-.7h1.613zm-.461-.31h-1.122c0-.35.15-.66.56-.66.412 0 .532.32.562.66zm4.007-.61v-.43h-2.004v.43h.792v2.06h.5v-2.1l.712.04zm6.01 2.06v-2.53h-2.003v2.49h.501v-2.06h1.002v2.06l.5.04zm3.938-1.26a1.268 1.268 0 00-.29-1 1.002 1.002 0 00-.742-.29 1.002 1.002 0 00-.751.29 1.278 1.278 0 00-.29 1 1.319 1.319 0 00.29 1 1.002 1.002 0 00.751.29 1.003 1.003 0 00.742-.29 1.289 1.289 0 00.29-1zm-.49 0a.998.998 0 01-.161.66.481.481 0 01-.38.16.493.493 0 01-.382-.15.999.999 0 01-.16-.66 1.108 1.108 0 01.15-.68.51.51 0 01.391-.17.501.501 0 01.38.17.998.998 0 01.161.67zm4.557 1.24l-1.002-1.47.912-1h-.62l-1.003 1.18v-1.22h-.51v2.49h.51v-.7l.36-.41.712 1.11.641.02zm3.657-2.51h-.531l-.581 1.76-.601-1.76h-.541l.881 2.37-.14.4a.311.311 0 01-.36.26h-.13v.45h.21a.652.652 0 00.69-.49l1.103-3v.01zm3.627 2.49v-2.49h-2.004v2.49h.5v-2.06h1.002v2.06h.501zm3.816 0v-1.67c0-.56-.35-.85-1.002-.85a1.423 1.423 0 00-.56.09.942.942 0 00-.321.27l.33.31a.42.42 0 01.2-.18.652.652 0 01.332-.07c.4 0 .56.14.56.47V22h-.67c-.532 0-.852.27-.852.72 0 .45.31.76.861.76a.802.802 0 00.671-.26v.23l.451-.04zm-.5-.9c0 .36-.15.51-.542.51-.39 0-.5-.11-.5-.35s.16-.36.45-.36h.591v.2zm5.48-.36a1.338 1.338 0 00-.261-.93 1 1 0 00-.782-.33 1.053 1.053 0 00-.68.23 1.15 1.15 0 00-.351.8h-.441v-1h-.511v2.49h.51v-1.06h.442a1.107 1.107 0 00.36.85 1 1 0 00.671.24 1.004 1.004 0 00.752-.29 1.328 1.328 0 00.29-1zm-.502 0a.998.998 0 01-.14.65.502.502 0 01-.4.18.492.492 0 01-.391-.17 1 1 0 01-.14-.66.999.999 0 01.14-.65.48.48 0 01.39-.18.471.471 0 01.391.18.998.998 0 01.15.65zm4.088-.81v-.43h-2.104v.43h.791v2.06h.511v-2.05l.802-.01zm5.89-.43h-.54l-.582 1.76-.59-1.76h-.542l.882 2.37-.14.4c-.08.21-.15.26-.361.26h-.13v.45h.14a.672.672 0 00.701-.49l1.102-3 .06.01zm6.011 2.49v-2.48h-.5v1H89.42v-1h-.501v2.49h.5v-1.06h1.002v1.06l.501-.01zm3.827 0v-1.66c0-.56-.35-.85-1.002-.85a1.424 1.424 0 00-.681.11 1.06 1.06 0 00-.33.27l.33.31a.48.48 0 01.21-.18.622.622 0 01.331-.07c.39 0 .561.14.561.47v.2h-.671c-.531 0-.852.27-.852.72 0 .45.31.76.862.76a.802.802 0 00.671-.26v.23l.571-.05zm-.5-.9c0 .36-.161.51-.542.51-.38 0-.5-.11-.5-.35s.16-.36.45-.36h.591v.2zm4.267.58l-.441-.33a.611.611 0 01-.48.24c-.412 0-.612-.28-.612-.83 0-.55.2-.83.611-.83a.613.613 0 01.481.24l.34-.33a1.101 1.101 0 00-.34-.24 1.254 1.254 0 00-.45-.08c-.702 0-1.123.47-1.123 1.26s.421 1.29 1.122 1.29c.154.006.308-.021.451-.08.14-.067.265-.158.37-.27l.07-.04z" fill="#201E1F"/></svg>