<svg width="92" height="15" viewBox="0 0 92 15" fill="none" xmlns="http://www.w3.org/2000/svg"><path d="M72.742 14.69V9.533c0 .6.173-2.038-.349-2.278a2.599 2.599 0 00-.928-.24 1.243 1.243 0 00-.669.162 1.297 1.297 0 00-.49.498 4.82 4.82 0 00-.29 1.918v5.097h-3.713V4.017h3.538v1.26c.464-.66 1.102-1.44 3.249-1.44 2.146 0 2.726.66 3.19 2.279a7.61 7.61 0 01.174 1.559v7.015h-3.712zm-28.424-3.118V8.694a7.48 7.48 0 00-.406-2.998 2.087 2.087 0 00-.928-1.2c-1.276-.898-3.19-.719-3.597-.719-2.262 0-3.422.6-4.118 1.44a4.146 4.146 0 00-.928 2.218h3.596c.015-.21.074-.415.174-.6.128-.193.302-.35.505-.455.203-.105.428-.155.655-.144.812 0 1.334.42 1.334.84 0 .419 0 .599-.174.719l-.638.3-.696.18-1.856.24c-1.16.239-2.03.479-2.727 1.498a2.509 2.509 0 00-.58 1.679c-.008.476.074.949.244 1.391.169.443.421.846.743 1.187a3.906 3.906 0 002.552.72 4.947 4.947 0 003.248-1.2l.174 1.02h3.829c-.232-.72-.464-1.08-.406-3.238zm-4.757 1.02h-.754a1.087 1.087 0 01-.669-.329 1.156 1.156 0 01-.317-.69.93.93 0 01.213-.655.875.875 0 01.6-.305l.405-.12 1.566-.54v1.38c-.174.299-.348.959-1.044 1.198v.06zm48.785-4.558c-.29-1.259-.87-1.319-1.567-1.319a1.07 1.07 0 00-.505.066 1.1 1.1 0 00-.423.294c-.464.42-.638.9-.638 2.219 0 .12-.058 1.858.87 2.518.204.143.451.207.696.18a1.3 1.3 0 00.754-.12c.254-.12.466-.315.611-.56.145-.247.215-.532.201-.82H92a7.75 7.75 0 01-.522 1.8c-.928 1.858-2.784 2.638-4.64 2.638a8.265 8.265 0 01-1.625-.18 4.815 4.815 0 01-2.022-1.054 5.03 5.03 0 01-1.342-1.884 8.47 8.47 0 01-.348-2.338 6.098 6.098 0 01.696-2.998c.186-.437.463-.826.812-1.14a5.634 5.634 0 013.944-1.499 5.398 5.398 0 013.713 1.32 5 5 0 01.812 1.319c.208.521.363 1.064.464 1.618h-3.596v-.06zM77.323 4.017h3.77V14.75h-3.77V4.017zm0-4.017h3.77v2.818h-3.77V0zM64.272 13.49a5.535 5.535 0 01-1.884 1.173 5.402 5.402 0 01-2.176.327 4.674 4.674 0 01-2.13-.377 4.821 4.821 0 01-1.757-1.302 6.067 6.067 0 01-1.276-4.017 5.808 5.808 0 01.348-2.159c.754-2.338 2.843-3.358 5.047-3.358a5.181 5.181 0 013.712 1.44 5.992 5.992 0 011.509 4.197c0 .54-.058 2.638-1.393 4.077zm-2.9-6.415a1.39 1.39 0 00-.453-.311 1.353 1.353 0 00-.533-.109 1.07 1.07 0 00-.474.08c-.15.062-.286.158-.396.28-.464.36-.812.96-.812 2.279s.232 2.818 1.624 2.818a1.312 1.312 0 001.044-.42 3.436 3.436 0 00.696-2.338c0-.06 0-1.56-.696-2.279zm-10.383.06a1.27 1.27 0 00-.456-.819 1.19 1.19 0 00-.879-.26 1.521 1.521 0 00-.87.24c-.116 0-.232.3-.232.6a.736.736 0 00.29.479c.276.12.572.181.87.18l1.509.42c1.102.3 2.03.48 2.726 1.259.296.275.516.627.638 1.019.111.389.15.795.116 1.2a3.27 3.27 0 01-.23 1.268 3.187 3.187 0 01-.698 1.07c-.754.66-1.914 1.199-4.003 1.199a6.946 6.946 0 01-3.538-.84 3.616 3.616 0 01-1.128-1.272 3.754 3.754 0 01-.438-1.666h3.654a1.292 1.292 0 00.406.9 1.3 1.3 0 001.103.419c.812 0 1.218-.42 1.276-.78a.924.924 0 00-.116-.479c-.174-.3-.638-.42-1.334-.6l-2.32-.539c-.465-.24-2.38-.72-2.38-2.938-.01-.426.067-.85.227-1.243.16-.393.4-.746.702-1.035.696-.6 1.74-1.14 3.712-1.14a6.502 6.502 0 013.597.96 3.6 3.6 0 01.928.96c.205.455.342.94.406 1.438H50.99zM29.642 14.69V9.533c0 .66.174-1.978-.348-2.278a2.598 2.598 0 00-.928-.24 1.243 1.243 0 00-.67.162 1.297 1.297 0 00-.49.498 4.82 4.82 0 00-.29 2.098v4.977h-3.829V4.017h3.654v1.26c.465-.6 1.045-1.44 3.19-1.44 2.147 0 2.785.54 3.25 2.219a7.48 7.48 0 01.231 1.679v6.955h-3.828.058zm-10.848 0l-.116-.96a5.007 5.007 0 01-3.306 1.26 3.911 3.911 0 01-2.494-.78 3.415 3.415 0 01-.833-1.193 3.518 3.518 0 01-.27-1.445 2.622 2.622 0 01.639-1.559c.696-1.02 1.566-1.319 2.726-1.559l1.856-.24.696-.18.522-.18c.188-.236.29-.533.29-.839 0-.42-.522-.72-1.334-.72a1.238 1.238 0 00-.682.094c-.215.095-.4.25-.536.446-.116.12-.116.24-.116.6H12.24c.085-.82.409-1.593.928-2.219.696-.839 1.856-1.379 4.118-1.379.406 0 2.147-.18 3.48.72.48.308.848.772 1.045 1.319.406.84.29 1.919.29 2.818v2.878a7.228 7.228 0 00.464 3.178l-3.77-.06zm-.348-4.677l-1.566.54-.406.12a.991.991 0 00-.517.408 1.046 1.046 0 00.111 1.265.975.975 0 00.58.305l.812-.12c.754-.24.812-.72.986-.899v-1.619zM0 14.69V.12h5.917c1.972 0 3.886.12 5.22 1.979a5.908 5.908 0 01.853 3.537 5.856 5.856 0 01-1.375 3.358c-1.044 1.139-2.494 1.199-3.886 1.319H4.177v4.377H0zm5.743-7.795a2.72 2.72 0 002.03-.6 1.348 1.348 0 00.348-.959 1.651 1.651 0 00-.348-.959c-.638-.66-1.624-.6-2.378-.6h-1.16v3.118h1.508z" fill="#000"/></svg>