<svg width="112" height="15" viewBox="0 0 112 15" fill="none" xmlns="http://www.w3.org/2000/svg"><path d="M32.646 4.246c-.936 0-1.735.798-1.735 1.747v1.503h-2.4v-3.25h-.081c-.936 0-1.736.798-1.736 1.747v5.953h.081c.936 0 1.736-.797 1.736-1.746V8.748h2.4v3.198h1.816v-7.7h-.08zm72.197 0c-.936 0-1.736.798-1.736 1.747v1.503h-2.4v-3.25h-.081c-.936 0-1.736.798-1.736 1.747v5.953h.082c.935 0 1.735-.797 1.735-1.746V8.748h2.4v3.198h1.816v-7.7h-.08zM22.36 10.585c-1.112 0-1.846-1.842-1.846-4.002 0-2.158.774-3.67 1.846-3.67 1.07 0 1.884 1.512 1.884 3.67 0 2.445-.7 4.002-1.884 4.002zm0-9.157c-2.108 0-3.473 1.843-3.663 4.524h-2.145V1.58h-.014a1.853 1.853 0 00-1.857 1.87v8.496h.014c1.024-.008 1.857-.857 1.857-1.911V7.326h2.145c.162 2.516 1.532 4.784 3.663 4.784 2.443 0 3.742-2.396 3.742-5.513 0-2.914-1.383-5.169-3.742-5.169zm16.837 2.818c-.596 0-1.13.193-1.556.88l-2.37 4.18v-5.06h-1.816v7.7h.77c.586 0 1.12-.192 1.555-.88l2.502-4.322V10.2c0 .949.8 1.746 1.735 1.746h.082v-7.7h-.902zm36.528 0c-.594 0-1.13.193-1.554.88l-2.37 4.18v-5.06h-1.817v7.7h.77c.586 0 1.12-.192 1.554-.88l2.503-4.322V10.2c0 .949.8 1.746 1.735 1.746h.08v-7.7h-.9zM46.55 8.192c-.42-.963-1.049-1.65-1.958-2.008l3.272-4.605h-2.039l-3.16 4.564V1.6h-.04c-1.045 0-1.831.769-1.831 1.814v8.532h.04c1.044 0 1.83-.77 1.83-1.815V6.967c.936 0 1.642.633 1.98 1.457l1.344 3.522h2.058L46.55 8.192zm35.932-3.946H77.02v1.472h1.838v6.228h.081c.948 0 1.707-.784 1.707-1.733V5.718h1.837V4.246zm-18.818 6.298c.841-.904 1.243-2.53 1.433-3.78l.122-1.114h1.41l.434 4.894h-3.399zm5.08-.055l-.624-6.243h-4.352l-.27 1.87c-.245 1.664-.63 3.756-2.1 4.648l.122 3.19h.097c.717 0 1.298-.59 1.298-1.318l.024-.69h4.953l.068 2.007h.096c.718 0 1.3-.59 1.3-1.317l.063-1.872-.675-.275zm42.08-1.004c-.402-.808-.881-1.425-1.6-1.727l2.691-3.511h-1.957l-2.604 3.47v-3.47h-1.818v7.699h.081c.936 0 1.737-.797 1.737-1.746V8.447c.758 0 1.301.57 1.599 1.244l1.092 2.255H112l-1.176-2.461zM88.47 10.678l-1.099-.002V6.997a4.69 4.69 0 01.99-.133c1.315 0 2.084.793 2.084 1.776 0 1.057-.74 2.038-1.975 2.038zm.082-5.218c-.448 0-.923.077-1.18.146V3.188h2.407a1.57 1.57 0 001.559-1.58V1.58h-5.783v10.366h2.943c2.202 0 3.845-1.205 3.845-3.266 0-1.766-1.365-3.22-3.791-3.22zM56.61 7.56c0-1.361.475-2.09 1.492-2.117h.068c.502 0 1.437.165 1.492 1.691l-3.051.426zm4.625.33c0-2.31-1.1-3.644-3.078-3.644-2.007 0-3.227 1.527-3.227 3.879 0 2.418 1.315 3.931 3.525 3.931 1.22 0 2.074-.302 2.535-.55V9.98c-.46.33-1.098.742-2.359.742-1.138 0-1.763-.66-1.911-1.91l4.515-.633V7.89zm35.501 3.121c-.176.042-.624.069-1.003.069-.976 0-1.546-.426-1.546-1.375 0-1.279.963-1.609 2.549-1.76v3.066zm-4.163-1.25c0 1.444 1.045 2.295 3.05 2.295h.381c.704 0 1.871-.11 2.373-.206V6.955c0-1.925-1.274-2.709-2.807-2.709-1.166 0-2.06.345-2.534.578v1.224c.8-.426 1.517-.702 2.236-.702.868 0 1.464.262 1.464 1.238v.509c-2.263.22-4.163.687-4.163 2.667zm-41.731 1.113c-.258 0-.461-.028-.637-.096V5.539c.23-.082.46-.123.759-.123 1.18 0 1.695.866 1.695 2.708 0 1.237-.312 2.75-1.817 2.75zm.163-6.627c-1.03 0-1.885.178-2.549.536l-.04.028v10.187h.094c.936 0 1.695-.783 1.695-1.732v-1.333c.258.068.61.123 1.004.123 1.965 0 3.253-1.595 3.253-3.987 0-2.379-1.302-3.822-3.457-3.822z" fill="#000"/><path d="M1.455 10.506C2.25 9.346 4.21 6.494 4.64 5.91c.542-.735 1.843-2.456 1.843-2.456s.015-.02.109-.159c.097-.143.056-.25-.009-.308a53.547 53.547 0 00-1.022-.64.27.27 0 01-.117-.223c0-.147.087-.258.284-.314.318-.089 1.039-.156 1.772-.2a34.68 34.68 0 011.83-.068h.061a41.586 41.586 0 011.055.01l-.018-.017A6.248 6.248 0 006.323.001C2.831.001 0 2.871 0 6.413c0 1.556.546 2.982 1.455 4.093zm-.331.824c-.007.02-.01.036-.003.048.162.267.431.575.588.575a.382.382 0 00.156-.04s.119-.068.603-.418a6.239 6.239 0 003.855 1.33c3.492 0 6.323-2.871 6.323-6.412 0-1.072-.26-2.082-.718-2.97.218-.212.47-.548.305-.97-.052-.126-.298-.41-.361-.48l.009.025c.145.443-.116.73-.33.93a7.827 7.827 0 01-.04.038 3.76 3.76 0 00-.122.114c-.425.401-1.851 1.75-3.487 3.2a89.672 89.672 0 01-4.591 3.786C1.798 11.233 1.504 11.4 1.504 11.4a.372.372 0 01-.156.041.277.277 0 01-.224-.11z" fill="#E2001A"/></svg>