<svg width="59" height="52" viewBox="0 0 59 52" fill="none" xmlns="http://www.w3.org/2000/svg"><path d="M31.967 5.556H27a.154.154 0 00-.11.047.16.16 0 00-.046.111v4.694a1.003 1.003 0 00.262.736.967.967 0 00.706.31c.824 0 1.086.06 1.576.51a.13.13 0 00.095 0 .165.165 0 00.108 0c.49-.45.74-.474 1.564-.51a.951.951 0 00.67-.323.988.988 0 00.25-.711V5.714a.16.16 0 00-.028-.097.155.155 0 00-.08-.06zM21.495 27.672c-3.331 0-3.343-1.337-3.343-1.337V12.158a1.435 1.435 0 01-.322-.23c-.132-.134-.346-.402-.478-.402a.273.273 0 00-.171.094.282.282 0 00-.068.186V26.93c0 .097 0 .425.12.474.12.049.525.973 2.46.973h1.838l-.036-.706zm7.654 2.213v1.119c.1.276.153.568.155.863l.108.122h.274l.12-.122a3.286 3.286 0 00-.657-1.982z" fill="#25528D"/><path d="M29.925 16.232a8.438 8.438 0 00-2.388-3.928 6.669 6.669 0 00-3.69-.79 12.85 12.85 0 01-1.838-.122 3.728 3.728 0 01-2.173-.96.363.363 0 00-.43-.134.407.407 0 00-.25.377l.083 15.064c0 .268.418 1.143 2.256 1.423v-.84a2.479 2.479 0 01-1.576-.79V11.49c.606.36 1.275.596 1.97.693.653.093 1.311.142 1.97.146a5.878 5.878 0 013.248.644 7.794 7.794 0 012.078 3.453v15.052a.403.403 0 00.136.226.39.39 0 00.246.09.392.392 0 00.248-.133.405.405 0 00.098-.268v-15.04l.012-.122zM29.46 30.59c0-.085 0-.17-.083-.267h.083v.267zm12.25-19.076c-.12 0-.287.219-.382.328-.096.11-.442.304-.442.304v14.19s.167 1.215-3.307 1.434v.632c.6.048 1.203.048 1.803 0a3.948 3.948 0 002.471-.973.277.277 0 00.12-.23V11.793a.294.294 0 00-.08-.19.285.285 0 00-.183-.09z" fill="#25528D"/><path d="M39.644 10.298h-.13a.352.352 0 00-.288.146 3.61 3.61 0 01-2.16.973c-.614.085-1.233.125-1.851.121a6.493 6.493 0 00-3.583.79 8.538 8.538 0 00-2.388 3.94v15.064a.406.406 0 00.09.26.388.388 0 00.233.141h.06a.378.378 0 00.243-.095.39.39 0 00.127-.233v-2.444.073-12.608a7.503 7.503 0 012.053-3.453 5.879 5.879 0 013.26-.644 14.311 14.311 0 001.875-.17 5.121 5.121 0 001.946-.694v14.068a2.538 2.538 0 01-1.576.79v.827c1.79-.268 2.22-1.07 2.269-1.216a1.27 1.27 0 00.071-.316V10.675a.406.406 0 00-.25-.377zm-1.146 23.393H20.516v1.058h17.982V33.69z" fill="#25528D"/><path d="M29.603 16.499h-.251l-8.764 3.915.12.596h17.54l.13-.596-8.775-3.915z" fill="#25528D"/><path d="M24.11 19.964l5.373-2.395 5.373 2.395H24.11z" fill="#25528D"/><path d="M29.483 17.74l4.645 2.078h-9.29l4.645-2.079zm0-.341l-6.101 2.723h12.203L29.483 17.4zm-1.719-7.441h-.227v-.985c0-.195.18-.547.716-.547.538 0 .717.352.729.547h-.227s0-.328-.502-.328c-.501 0-.49.316-.49.328v.985zm3.666 0h-.227v-.985s0-.316-.49-.316-.501.316-.501.328h-.24a.67.67 0 01.262-.426.648.648 0 01.48-.121c.537 0 .704.353.716.547v.973z" fill="#fff"/><path d="M29.937 7.295a.493.493 0 01-.295.45.47.47 0 01-.52-.106.489.489 0 01-.104-.53.484.484 0 01.441-.3c.127 0 .249.05.338.142.09.091.14.215.14.344z" fill="#25528D"/><path d="M29.46 7.903a.59.59 0 01-.332-.102.606.606 0 01-.254-.625.611.611 0 01.163-.31.594.594 0 01.65-.133.6.6 0 01.269.224c.065.1.1.218.1.338a.604.604 0 01-.17.434.585.585 0 01-.427.174zm0-.973a.367.367 0 00-.25.11.38.38 0 00-.109.255c0 .097.038.19.105.258a.355.355 0 00.253.107.34.34 0 00.257-.103.353.353 0 00.102-.262.368.368 0 00-.105-.258.355.355 0 00-.254-.107z" fill="#fff"/><path d="M28.743 7.818a.492.492 0 01-.295.45.47.47 0 01-.52-.106.489.489 0 01-.104-.53.484.484 0 01.441-.3c.127 0 .249.05.338.142a.49.49 0 01.14.344z" fill="#25528D"/><path d="M28.265 8.426a.589.589 0 01-.334-.097.619.619 0 01-.103-.937.594.594 0 01.651-.137.6.6 0 01.27.224.616.616 0 01-.07.764.592.592 0 01-.414.183zm0-.973a.367.367 0 00-.257.106.38.38 0 00-.113.259.38.38 0 00.127.222.366.366 0 00.475 0 .378.378 0 00.127-.222.38.38 0 00-.109-.255.367.367 0 00-.25-.11z" fill="#fff"/><path d="M31.143 7.818a.492.492 0 01-.295.45.47.47 0 01-.52-.106.489.489 0 01-.104-.53.485.485 0 01.441-.3.47.47 0 01.338.142.49.49 0 01.14.344z" fill="#25528D"/><path d="M30.665 8.426a.59.59 0 01-.331-.103.606.606 0 01-.254-.624.612.612 0 01.163-.311.594.594 0 01.65-.132.6.6 0 01.269.224c.065.1.1.218.1.338a.626.626 0 01-.178.426.604.604 0 01-.419.182zm0-.973a.353.353 0 00-.253.107.364.364 0 00-.105.258c0 .097.038.19.105.258a.355.355 0 00.507 0 .368.368 0 000-.516.355.355 0 00-.254-.107z" fill="#fff"/><path d="M28.874 8.693v1.034l.633.45.585-.45V8.693s0-.437-.609-.437-.609.437-.609.437z" fill="#25528D"/><path d="M29.507 10.274l-.752-.547V8.693a.663.663 0 01.25-.433.64.64 0 01.478-.126.648.648 0 01.472.125.67.67 0 01.257.422v1.046l-.705.547zm-.525-.669l.525.377.466-.34v-.949s0-.316-.49-.316-.49.304-.501.328v.9z" fill="#fff"/><path d="M32.36 22.153v2.164a6.3 6.3 0 01-.13 1.726 2 2 0 01-.538.657 2.071 2.071 0 01-1.325.304h-.108v-3.295c0-.438.072-.572.096-.596h.74v-.839h-3.26v.84h.562l.095-.013s.108.17.108.608v3.27a2.188 2.188 0 01-1.302-.303 1.7 1.7 0 01-.477-.657 6.013 6.013 0 01-.132-1.702v-2.164h-2.627v.802h.144c.095 0 .955 0 .955.754v.608a7.424 7.424 0 00.215 2.164c.181.461.515.844.943 1.082.642.344 1.366.5 2.09.45h.286v3.015c0 .523-.083.608-.095.62-.012.012-.108.085-.669.085h-.346v.84h3.773v-.84h-.346c-.561 0-.669-.073-.669-.085 0-.012-.096-.097-.096-.62v-3.064h.37a3.987 3.987 0 002.09-.437 2.2 2.2 0 00.943-1.095 7.28 7.28 0 00.227-2.115v-.608c0-.742.848-.754.944-.754h.155v-.802H32.36zm-10.184-.025h1.445v10.408h-1.445V22.128zm13.265 0h1.445v10.408h-1.445V22.128z" fill="#25528D"/><path d="M31.967 41.339a.222.222 0 000-.122l-.167-.182a6.33 6.33 0 00-3.582-1.301h-.06a1.007 1.007 0 01-.155-.377c-.263-1.022-1.373-1.569-3.32-1.301.424.3.823.633 1.194.997.228.237.49.438.777.596a17.344 17.344 0 01-3.427-.645 1.124 1.124 0 010-.474c0-1.058-.92-1.885-2.854-2.176.307.421.579.869.812 1.337.184.338.422.642.704.9a14.498 14.498 0 01-3.02-1.642 1.063 1.063 0 01.071-.474c.334-.997-.298-2.079-2.053-2.954.199.492.359 1 .477 1.52.068.387.206.757.406 1.094a14.326 14.326 0 01-2.304-2.53c.047-.138.12-.266.215-.376.597-.851.322-2.08-1.099-3.44.042.533.042 1.07 0 1.604a3.581 3.581 0 000 .888 15.742 15.742 0 01-1.29-2.821c.086-.116.191-.214.31-.292.813-.644.884-1.897-.095-3.648a9.86 9.86 0 01-.43 1.545 3.7 3.7 0 00-.25.875 18.826 18.826 0 01-.537-3.648 2.69 2.69 0 00.592-.883 2.73 2.73 0 00.207-1.05 6.432 6.432 0 00-.501-2.358 4.383 4.383 0 00-1.063 2.662 2.789 2.789 0 00.347 1.471c.033.742.109 1.48.226 2.213a5.937 5.937 0 00-.549-.754 5.518 5.518 0 01-.824-1.592c-.609 2.358.359 3.963 1.35 3.963a1.31 1.31 0 01.405 0 17.474 17.474 0 001.194 3.344 5.385 5.385 0 00-.93-.705 5.189 5.189 0 01-1.255-1.216c.072 2.431 1.481 3.647 2.388 3.32.146-.054.3-.075.454-.062a16.164 16.164 0 001.97 2.614 5.095 5.095 0 00-.955-.34 5.571 5.571 0 01-1.564-.875c.764 2.31 2.46 3.063 3.248 2.431.12-.086.253-.152.394-.194a14.72 14.72 0 002.531 1.811 5.242 5.242 0 00-.991 0 5.205 5.205 0 01-1.731-.316c1.409 1.97 3.247 2.164 3.832 1.338.084-.116.185-.219.299-.304 1.15.497 2.352.86 3.582 1.082a5.111 5.111 0 00-1.003.34 5.15 5.15 0 01-1.743.292c1.982 1.362 3.785.924 4.047 0a1.36 1.36 0 01.204-.39c.537 0 1.086.074 1.66.074a6.493 6.493 0 013.151 1.143l.096.073a.894.894 0 00.424.244.118.118 0 00.053-.013.196.196 0 00.06-.134l.072-.182z" fill="#25528D"/><path d="M58.856 46.202a.6.6 0 00-.203-.182 4.158 4.158 0 00-.346-.304 2.318 2.318 0 01-.573-.62 2.857 2.857 0 01-.382-1.216 1.564 1.564 0 010-.231v-.061c0-.413 0-.924-.287-1.216a1.556 1.556 0 00-1.015-.292h-.382c-.974.106-1.932.33-2.854.669l-.43.134h-.13a3.947 3.947 0 01-1.804.304.234.234 0 010-.195 1.04 1.04 0 01.247-.471c.122-.133.276-.23.446-.283a3.147 3.147 0 011.194-.194h1.468A2.112 2.112 0 0055 41.643a1.5 1.5 0 000-1.922 3.254 3.254 0 00-1.588-1.215 11.927 11.927 0 00-4.513-.815h-.18a14.34 14.34 0 00-3.223.328c-.681.188-1.348.428-1.994.718-.635.25-1.191.67-1.612 1.215a1.41 1.41 0 00-.25 1.131 1.113 1.113 0 00.597.754 2.221 2.221 0 001.886 0 2.922 2.922 0 001.194-.815c.293-.344.68-.593 1.11-.717.211-.054.428-.083.645-.085.215 0 .729 0 .824.353.026.1.026.204 0 .303l-.143.122a58.12 58.12 0 01-18.197 2.711 58.772 58.772 0 01-18.22-2.784l-.12-.121a.593.593 0 010-.329c.084-.316.597-.352.812-.352.221.002.442.03.657.085.428.128.813.377 1.11.717.324.37.735.65 1.194.815a2.257 2.257 0 001.899 0 1.199 1.199 0 00.596-.754 1.486 1.486 0 00-.25-1.13 3.802 3.802 0 00-1.624-1.217 13.375 13.375 0 00-1.994-.717c-1.09-.21-2.2-.287-3.308-.231h-.179a11.836 11.836 0 00-4.322.827 3.278 3.278 0 00-1.588 1.216 1.487 1.487 0 000 1.92 2.04 2.04 0 001.194.402h1.469c.406-.013.811.053 1.194.194a1.019 1.019 0 01.704.754.198.198 0 010 .195c-.099.013-.2.013-.298 0a4.915 4.915 0 01-1.493-.328l-.561-.183a11.902 11.902 0 00-3.009-.584h-.37a1.544 1.544 0 00-1.015.292c-.346.268-.31.779-.287 1.216v.073c.006.073.006.146 0 .219-.03.429-.157.845-.37 1.216-.16.238-.358.448-.585.62l-.334.304a.772.772 0 00-.299.158.91.91 0 00-.107.815c.065.297.212.569.423.784.212.215.48.365.77.431l.24-.23a.16.16 0 010-.147c.083-.145.477-.534 2.256-.9.347.122.693.268 1.027.402h.096c.592.262 1.202.477 1.827.644.307.086.624.131.943.134a2.02 2.02 0 001.027-.255c.573-.329.716-.96.441-1.86l-.083-.268c0-.146-.096-.28-.131-.425a1.378 1.378 0 011.122-.34c-.167 1.555.62 4.036 2.113 4.668 2.22.774 4.5 1.347 6.818 1.714a69.41 69.41 0 0010.555.62 77.99 77.99 0 0010.746-.62l.442-.073h.275c2.053-.34 4.62-.754 5.898-1.58a4.938 4.938 0 001.727-2.057 5.04 5.04 0 00.41-2.673 1.432 1.432 0 011.087.377l-.131.425v.268c-.275.9-.132 1.532.43 1.86.319.174.676.262 1.038.256a3.52 3.52 0 00.932-.134c.595-.163 1.178-.37 1.743-.62h.096c.334-.134.68-.28 1.026-.401 1.78.364 2.174.753 2.269.9a.21.21 0 010 .145l.239.231c.29-.069.556-.22.767-.434.211-.215.359-.486.427-.782a.914.914 0 00-.06-.875zM8.6 45.667l.072.23a.619.619 0 010 .159v.097c.215.706.131 1.216-.251 1.374a1.628 1.628 0 01-.824.207 3.444 3.444 0 01-.848-.122 14.02 14.02 0 01-1.79-.632l-1.123-.45-.848-.28h-.406a5.28 5.28 0 00-1.433-.291c.182-.154.336-.34.454-.547a3.43 3.43 0 00.442-1.472v-.316c0-.291 0-.705.131-.85a1.26 1.26 0 01.812-.22h.322c.946.11 1.875.33 2.77.657l.311.097h.191c.538.245 1.11.4 1.696.462h.119c-.011.17-.011.34 0 .51.004.366.052.73.143 1.083v.085l.06.219zm-8.155 1.3a.568.568 0 010-.461.476.476 0 01.215-.134h.12c.098-.014.199-.014.298 0a5.763 5.763 0 011.6.316h.31a3.178 3.178 0 00-1.886.936l-.06.122a1.199 1.199 0 01-.597-.778zm49.743-1.98a1.72 1.72 0 00-1.29-.33 1.437 1.437 0 00-.072-.267 9.32 9.32 0 00-.25-.583 6.315 6.315 0 01-.478-1.326 3.81 3.81 0 01-.096-1.215.914.914 0 00.275-.852c-.167-.559-.836-.644-1.194-.644-.258 0-.514.032-.764.097a2.752 2.752 0 00-1.29.827 2.48 2.48 0 01-1.015.645 1.883 1.883 0 01-1.552.06.729.729 0 01-.394-.486 1.04 1.04 0 01.156-.79c.39-.463.892-.815 1.456-1.022a12.377 12.377 0 011.922-.693 13.28 13.28 0 013.07-.316h.214a11.82 11.82 0 014.191.815c.56.183 1.048.54 1.397 1.021.287.426.43 1.034.072 1.374a1.701 1.701 0 01-.92.304h-1.432a3.524 3.524 0 00-1.362.219 1.43 1.43 0 00-.614.4 1.469 1.469 0 00-.34.658.594.594 0 00.154.547c.13.21.192.457.18.705.028.238.028.48 0 .717l-.024.134zm-20.693 6.589a68.449 68.449 0 01-10.483-.62 39.162 39.162 0 01-6.663-1.63c-1.683-.692-2.245-3.732-1.767-4.814.084-.207.167-.401.25-.572a7.35 7.35 0 00.478-1.386c.082-.4.118-.807.108-1.215a59.023 59.023 0 0018.077 2.638 59.874 59.874 0 0018.101-2.578c-.001.373.039.744.12 1.107.12.497.297.978.525 1.434v.11l.203.462a4.54 4.54 0 01-.123 2.722 4.45 4.45 0 01-1.656 2.141 18.36 18.36 0 01-5.779 1.52l-.68.11a77.41 77.41 0 01-10.71.57zM8.827 44.889a2.179 2.179 0 010-.681c-.002-.243.06-.483.179-.693a.612.612 0 00.143-.56 1.47 1.47 0 00-.325-.698 1.431 1.431 0 00-.63-.432 3.524 3.524 0 00-1.361-.219H5.4a1.626 1.626 0 01-.92-.267c-.358-.34-.214-.949 0-1.374a2.903 2.903 0 011.47-1.058c1.333-.524 2.749-.8 4.178-.815h.215a13.21 13.21 0 013.069.316c.663.178 1.31.414 1.934.706a3.484 3.484 0 011.457 1.009 1.018 1.018 0 01.179.802.735.735 0 01-.382.486 1.88 1.88 0 01-1.552-.06 2.531 2.531 0 01-1.027-.718 2.705 2.705 0 00-1.278-.826 3.156 3.156 0 00-.776-.098c-.382 0-1.05.085-1.194.645a.94.94 0 00.227.827c.024.406 0 .814-.072 1.215a7.064 7.064 0 01-.513 1.374v.122c-.072.158-.143.304-.203.462a2.129 2.129 0 00-.084.255 1.685 1.685 0 00-1.194.34.129.129 0 01-.107-.06zm49.098 2.906v-.11a3.141 3.141 0 00-1.97-.948h.382c.5-.177 1.023-.28 1.552-.304.095-.013.191-.013.286 0h.132c.08.021.151.068.203.134a.518.518 0 010 .462 1.224 1.224 0 01-.585.766zm-2.794-1.216l-1.194.45c-.58.25-1.173.46-1.78.632a3.359 3.359 0 01-.835.121 1.671 1.671 0 01-.836-.206c-.382-.219-.454-.669-.239-1.374l.072-.255a2.32 2.32 0 00.084-.256v-.06l.071-.22v-.084c.102-.352.15-.716.143-1.083.017-.17.017-.34 0-.51h.132a5.55 5.55 0 001.624-.377h.179l.322-.097a12.047 12.047 0 012.806-.706h.322c.265-.022.53.047.753.195.179.146.155.535.143.851a3.253 3.253 0 00.43 1.775c.126.206.283.39.465.547a5.26 5.26 0 00-1.444.292h-.418l-.8.365z" fill="#25528D"/><path d="M47.203 27.964c.99 0 1.958-1.568 1.29-3.915a5.178 5.178 0 01-.813 1.593 5.94 5.94 0 00-.55.754c.118-.733.194-1.472.228-2.213.248-.447.364-.958.334-1.471a4.31 4.31 0 00-1.05-2.663 6.174 6.174 0 00-.502 2.359 2.741 2.741 0 00.8 1.945 17.96 17.96 0 01-.537 3.611 3.13 3.13 0 00-.24-.875 9.86 9.86 0 01-.441-1.556c-.991 1.726-.907 2.978-.096 3.647.12.078.225.177.31.292-.333.979-.766 1.92-1.289 2.809a2.99 2.99 0 000-.876 11.554 11.554 0 010-1.605c-1.42 1.362-1.695 2.59-1.098 3.441.095.11.168.239.215.377-.67.931-1.443 1.78-2.305 2.529.2-.336.338-.707.406-1.094a9.932 9.932 0 01.478-1.52c-1.755.875-2.388 1.957-2.054 2.954a.939.939 0 01.084.499 14.397 14.397 0 01-3.01 1.641c.278-.27.508-.587.681-.936.27-.46.573-.9.908-1.313-1.922.292-2.854 1.118-2.842 2.176.034.157.034.318 0 .474-1.118.33-2.266.546-3.427.645a3.21 3.21 0 00.776-.596c.37-.367.769-.7 1.194-.997-1.946-.267-3.056.28-3.319 1.301a1.006 1.006 0 01-.155.377h-.072a6.28 6.28 0 00-3.582 1.3.957.957 0 00-.167.195.158.158 0 00-.06.086.197.197 0 000 .133.118.118 0 00.108 0 .916.916 0 00.382-.23l.083-.074a6.568 6.568 0 013.236-1.045c.573 0 1.123 0 1.66-.073.09.115.154.247.19.389.276.972 2.078 1.41 4.06 0a5.155 5.155 0 01-1.743-.292 4.933 4.933 0 00-1.015-.34 16.228 16.228 0 003.654-1.083c.114.086.215.188.299.305.585.826 2.388.632 3.832-1.338a5.205 5.205 0 01-1.731.316 5.241 5.241 0 00-.991 0 14.8 14.8 0 002.531-1.811c.141.042.274.108.394.194.788.596 2.484-.158 3.236-2.432a5.316 5.316 0 01-1.552.84 5.58 5.58 0 00-.967.34 15.482 15.482 0 001.922-2.602 1.09 1.09 0 01.466.06c.931.341 2.388-.875 2.388-3.319-.33.47-.733.88-1.194 1.216-.335.2-.647.437-.931.705.51-1.07.91-2.19 1.194-3.343.136.015.269.052.394.11z" fill="#25528D"/><path d="M29.507 1.885A21.572 21.572 0 0018.67 4.832a22.073 22.073 0 00-7.98 8.03 22.582 22.582 0 00-3.02 11.002c-.05 3.872.892 7.69 2.733 11.08l.454.753.334-.267a13.41 13.41 0 01-.43-.706 22.201 22.201 0 01-2.735-10.896 22.19 22.19 0 012.94-10.842 21.688 21.688 0 017.841-7.922 21.196 21.196 0 0110.67-2.91 21.194 21.194 0 0110.679 2.868 21.684 21.684 0 017.87 7.892 22.187 22.187 0 012.981 10.83 22.203 22.203 0 01-2.694 10.907l-.8 1.41.37.22c.09-.131.17-.27.239-.414.227-.389.525-.912.561-.997a22.587 22.587 0 002.695-11.057 22.57 22.57 0 00-3.03-10.966 22.06 22.06 0 00-7.962-8.005A21.56 21.56 0 0029.58 1.897l-.072-.012z" fill="#25528D"/><path d="M29.507 0a23.361 23.361 0 00-11.724 3.17 23.9 23.9 0 00-8.646 8.662 24.454 24.454 0 00-3.302 11.886 24.475 24.475 0 002.908 11.991c.084.146.167.292.24.438l.405-.182a5.882 5.882 0 01-.239-.426 24.006 24.006 0 01-2.86-11.781 23.985 23.985 0 013.252-11.675 23.44 23.44 0 018.509-8.498A22.912 22.912 0 0129.576.501c4.04.01 8.008 1.091 11.512 3.14a23.446 23.446 0 018.47 8.538 23.988 23.988 0 013.197 11.69c.05 4.114-.954 8.17-2.914 11.767 0 .061-.286.487-.56.924h.059c.114.054.235.095.358.122.263-.413.502-.815.537-.876a24.472 24.472 0 002.963-12.01 24.456 24.456 0 00-3.28-11.923 23.902 23.902 0 00-8.657-8.696A23.361 23.361 0 0029.507 0zM16.994 49.06l-1.78-.159v-.23l.24-.074a.916.916 0 01.25 0l.287-3.38-.263-.097a1.012 1.012 0 01-.203-.122v-.23l1.78.157v.231l-.204.085h-.226l-.12 1.447 1.552.134.12-1.447a.579.579 0 01-.215-.097l-.18-.11v-.182l1.78.158v.219a.825.825 0 01-.239.097h-.263l-.274 3.38.25.097c.077.031.15.072.215.122v.219l-1.755-.158v-.231l.203-.085h.227l.131-1.544-1.552-.134-.143 1.508.215.085.179.121-.012.22zm5.027.315l-1.767-.085v-.23l.238-.098a.915.915 0 01.251 0l.167-3.392-.238-.085a.72.72 0 01-.24-.11v-.23l1.768.096v.22a.79.79 0 01-.203.096h-.239l-.12 2.274-.083.462.322-.474 1.576-2.03v-.146a1.771 1.771 0 01-.453-.195v-.219l1.767.098v.218a.759.759 0 01-.227.098l-.263.06-.167 3.38.251.086c.076.032.148.073.215.121v.219l-1.767-.085v-.231l.203-.085h.25l.108-2.274.083-.474-.286.462-1.612 2.055v.133l.239.098.215.11.012.157zm5.098.17h-1.767v-.23l.239-.098a.978.978 0 01.25-.073v-3.38l-.25-.073-.227-.11v-.23h1.767v.23a.794.794 0 01-.203.098.778.778 0 01-.239.073v2.274l-.071.462.298-.487 1.576-2.079v-.146a1.431 1.431 0 01-.453-.182v-.219h1.767v.231a.757.757 0 01-.227.097l-.263.073-.06 3.38.263.086.227.097v.23h-1.767v-.23l.203-.085.239-.085v-2.736l-.263.462-1.552 2.115v.134l.25.073.215.11.048.218zm7.093-.462v1.046c.007.11.007.22 0 .328h-.347l-.346-.96-2.806.073-.298.985h-.227a.91.91 0 00-.072-.329c0-.121 0-.243-.06-.377v-.644h.514c.12-.198.217-.41.286-.632.102-.263.174-.536.215-.815.063-.305.107-.613.132-.924v-.985l-.323-.11-.31-.133v-.23l3.379-.086v.231a1.949 1.949 0 01-.478.182l.096 3.405.645-.024zm-1.565 0l-.095-3.367h-.943c0 .462 0 .875-.072 1.215-.03.327-.078.652-.143.973a4.068 4.068 0 01-.191.717c-.047.17-.116.334-.203.487l1.648-.024zm4.06.28l-1.767.11v-.231l.203-.11.263-.097-.191-3.38h-.251l-.239-.098v-.23l4.215-.244v.231l-.227.122-.239.073.191 3.392c.173.008.34.058.49.146v.219l-1.755.11v-.232l.155-.097a.896.896 0 01.239-.097l-.191-3.405-1.493.098.191 3.392.215.06a.952.952 0 01.191.098v.17zm3.128-2.261a3.035 3.035 0 010-.876c.066-.256.175-.499.323-.717.17-.22.386-.399.633-.523.262-.131.545-.213.836-.243.289-.03.58-.001.86.085.247.077.472.215.656.401.193.178.344.399.442.645.112.27.18.558.203.85.048.29.048.586 0 .876a2.037 2.037 0 01-.31.718 1.86 1.86 0 01-.586.51 2.29 2.29 0 01-1.695.158 1.7 1.7 0 01-.657-.389 2.127 2.127 0 01-.454-.656 2.687 2.687 0 01-.25-.84zm1.003-.085c.019.234.059.466.12.693.047.193.123.378.227.547.095.137.217.253.358.34.151.078.32.111.49.097a.816.816 0 00.417-.182.987.987 0 00.251-.39c.067-.187.107-.383.12-.583a4.88 4.88 0 000-.705 4.124 4.124 0 00-.12-.705 1.916 1.916 0 00-.227-.547 1.204 1.204 0 00-.346-.34.823.823 0 00-.49-.086.733.733 0 00-.441.17 1.06 1.06 0 00-.263.402 2.476 2.476 0 00-.096.571 4.963 4.963 0 000 .718z" fill="#25528D"/></svg>