<svg width="110" height="14" viewBox="0 0 110 14" fill="none" xmlns="http://www.w3.org/2000/svg"><path d="M2.347 13.013c-1.342.775-2.307.129-2.307-1.02V2.205c0-1.15.964-1.796 2.307-1.02l8.361 4.83a1.251 1.251 0 010 2.167l-8.361 4.831z" fill="#00C1FF"/><path d="M9.25 13.013c-1.342.775-2.307.129-2.307-1.02V2.205c0-1.15.964-1.796 2.307-1.02l8.178 4.724c.915.528.915 1.85 0 2.38L9.25 13.013z" fill="#FCDE00"/><path d="M22.569 9.28l.238-.538c.158-.365.444-.46.808-.19.698.507 1.839.887 3.36.887 1.3 0 1.855-.333 1.855-.729 0-.443-.46-.57-1.22-.665l-1.728-.222c-2.077-.27-3.123-1.015-3.123-2.315 0-1.395 1.14-2.505 3.789-2.505 1.474 0 2.425.222 3.043.46.681.27.777.492.777 1.046v.714c0 .444-.158.602-.602.602h-.491c-.444 0-.603-.158-.603-.602v-.238c-.285-.096-.999-.238-1.838-.238-1.46 0-2.172.269-2.172.713 0 .333.428.523 1.204.634l1.697.222c2.076.27 3.17.887 3.17 2.378 0 1.521-1.442 2.489-4.01 2.489-1.887 0-3.41-.602-4.012-1.158-.222-.206-.253-.474-.142-.744zm18.706 1.777h-.872c-.428 0-.57-.064-.777-.38L37.977 8.25c-.238-.334-.412-.412-.903-.412h-1.65v2.615c0 .444-.157.603-.602.603h-.634c-.444 0-.602-.159-.602-.603V2.575H33c-.444 0-.603-.158-.603-.602V1.45c0-.444.159-.603.602-.603h1.823c.444 0 .602.159.602.603v4.613H36.9c.492 0 .666-.079.904-.412l1.379-2.124c.221-.334.364-.396.792-.396h.872c.476 0 .57.38.302.776l-1.538 2.33c-.159.222-.349.46-.54.651.191.158.46.428.571.587l1.934 2.821c.27.38.175.76-.3.76zm2.995 1.458v-.524c0-.444.16-.602.603-.602h.76c.46 0 .683-.095.857-.46l.095-.206-3.63-6.865c-.222-.412-.048-.729.428-.729h.824c.428 0 .618.079.777.38l1.521 3.124c.349.713.745 1.537 1.063 2.25.33-.735.674-1.464 1.03-2.187l1.554-3.185c.143-.302.349-.38.777-.38h.824c.475 0 .65.316.428.728l-4.136 7.848c-.477.904-1.031 1.411-2.267 1.411h-.905c-.444 0-.602-.16-.602-.603zm9.282-3.234l.239-.539c.158-.365.443-.46.808-.19.698.507 1.839.887 3.36.887 1.3 0 1.855-.333 1.855-.729 0-.443-.46-.57-1.22-.665l-1.728-.222c-2.077-.27-3.123-1.015-3.123-2.315 0-1.395 1.14-2.505 3.788-2.505 1.475 0 2.426.222 3.044.46.681.27.777.492.777 1.046v.714c0 .444-.158.602-.602.602h-.492c-.444 0-.602-.158-.602-.602v-.238c-.285-.096-.999-.238-1.839-.238-1.459 0-2.171.269-2.171.713 0 .333.428.523 1.204.634l1.697.222c2.076.27 3.17.887 3.17 2.378 0 1.521-1.442 2.489-4.01 2.489-1.887 0-3.41-.602-4.012-1.158-.222-.206-.253-.474-.142-.744zm25.28-2.631v3.804c0 .444-.158.603-.601.603h-.634c-.444 0-.603-.159-.603-.603V6.808c0-1.236-.602-1.981-1.84-1.981-.998 0-1.79.618-2.377 1.268v4.36c0 .443-.159.602-.603.602h-.634c-.444 0-.602-.159-.602-.603V6.808c0-1.236-.587-1.981-1.823-1.981-.967-.016-1.807.57-2.394 1.204v4.423c0 .444-.158.603-.602.603h-.634c-.444 0-.602-.159-.602-.603V4.859h-.587c-.444 0-.602-.159-.602-.603v-.523c0-.444.158-.602.602-.602h1.538c.444 0 .602.158.602.602v.428c.54-.554 1.411-1.157 2.727-1.157 1.458 0 2.409.476 2.98 1.363.698-.713 1.649-1.363 3.044-1.363 2.25 0 3.645 1.237 3.645 3.647V6.65zm6.817-.555h1.87v-.27c0-.698-.84-1.11-2.17-1.11-1.205 0-2.172.444-2.743.872-.365.27-.65.19-.809-.19l-.238-.538c-.11-.27-.08-.54.144-.746.46-.428 1.806-1.11 3.74-1.11 2.188 0 3.852.92 3.852 2.569v4.882c0 .444-.159.603-.602.603h-.507c-.444 0-.603-.159-.603-.603v-.443c-.523.618-1.6 1.172-3.106 1.172-1.76 0-3.282-.824-3.282-2.441 0-1.743 1.6-2.647 4.454-2.647zm-.983 3.424c1 0 2.917-.539 2.917-1.966h-1.727c-1.966 0-2.775.412-2.775 1.094 0 .555.523.872 1.585.872zm15.599-3.044c0 .444-.159.602-.603.602h-.634c-.444 0-.602-.126-.602-.602 0-1.173-.444-1.696-1.522-1.696-1.014 0-1.854.634-2.33 1.395v4.28c0 .444-.158.603-.602.603h-.634c-.444 0-.602-.159-.602-.603V4.859h-.588c-.443 0-.602-.159-.602-.603v-.523c0-.444.16-.602.602-.602h1.538c.444 0 .603.158.603.602v.507c.57-.633 1.427-1.236 2.901-1.236 2.186 0 3.075 1.284 3.075 3.472zm1.804-3.344h1.062V1.053c0-.444.159-.602.603-.602h.634c.443 0 .602.158.602.602V3.13h3.947c.444 0 .603.158.603.602v.523c0 .444-.159.603-.603.603h-3.947v3.487c0 .682.46 1.046 1.553 1.046.888 0 1.428-.301 1.744-.538.365-.27.619-.175.809.19l.301.602c.127.27.064.476-.174.682-.286.253-1.205.856-2.886.856-1.822 0-3.186-.777-3.186-2.6V4.858h-1.062c-.444 0-.603-.159-.603-.603v-.523c.001-.444.159-.601.603-.601z" fill="#000"/><mask id="mask0_7705_48027" style="mask-type:alpha" maskUnits="userSpaceOnUse" x="6" y="0" width="13" height="14"><path d="M9.25 13.013c-1.342.775-2.307.129-2.307-1.02V2.205c0-1.15.964-1.796 2.307-1.02l8.178 4.724c.915.528.915 1.85 0 2.38L9.25 13.013z" fill="#FCDE00"/></mask><g filter="url(#filter0_f_7705_48027)" mask="url(#mask0_7705_48027)"><path d="M2.347 13.013c-1.342.775-2.307.129-2.307-1.02V2.205c0-1.15.964-1.796 2.307-1.02l8.361 4.83a1.251 1.251 0 010 2.167l-8.361 4.831z" fill="#FF8A00"/></g><defs><filter id="filter0_f_7705_48027" x="-1.396" y="-.59" width="14.165" height="15.378" filterUnits="userSpaceOnUse" color-interpolation-filters="sRGB"><feFlood flood-opacity="0" result="BackgroundImageFix"/><feBlend in="SourceGraphic" in2="BackgroundImageFix" result="shape"/><feGaussianBlur stdDeviation=".718" result="effect1_foregroundBlur_7705_48027"/></filter></defs></svg>