<svg width="80" height="38" viewBox="0 0 80 38" fill="none" xmlns="http://www.w3.org/2000/svg"><g clip-path="url(#clip0_35_88)"><path d="M41.601 37.598c-.519 0-1.038 0-1.545-.013h-.122c-.5.008-1.018.013-1.536.013-12.738 0-24.524-2.573-24.642-2.598-.045-.01-1.09-.244-1.625-.406a1.145 1.145 0 01-.562-.35 1.174 1.174 0 01-.32-.825V4.608a1.198 1.198 0 01.32-.822c.15-.174.35-.298.574-.356a29.65 29.65 0 011.615-.403C13.874 3 25.67.397 38.444.397c.513 0 1.029 0 1.532.013h.12c.503 0 1.025-.012 1.544-.012 12.72 0 24.501 2.556 24.617 2.582.047.01 1.093.243 1.628.405l.032.01.02.01a1.254 1.254 0 01.81 1.188v21.226l-.016 7.584a1.22 1.22 0 01-.21.697c-.154.242-.392.42-.67.496-.512.159-1.576.394-1.62.404-.11.025-11.88 2.598-24.63 2.598z" fill="#00909D"/><path d="M41.635.795c12.824 0 24.532 2.577 24.532 2.577s1.07.239 1.597.398c.032.016.048.016.08.032a.856.856 0 01.51.795v21.226l-.015 7.585a.84.84 0 01-.144.477.776.776 0 01-.447.334c-.511.159-1.597.397-1.597.397S54.455 37.2 41.601 37.2c-.51 0-1.024 0-1.538-.013h-.128a93.84 93.84 0 01-1.536.013c-12.843 0-24.556-2.588-24.556-2.588s-1.07-.239-1.597-.398a.757.757 0 01-.383-.238.78.78 0 01-.208-.557V4.608a.805.805 0 01.208-.557c.1-.116.234-.2.383-.238.527-.16 1.597-.398 1.597-.398S25.562.795 38.44.795c.506 0 1.016 0 1.524.013h.127c.518-.01 1.03-.013 1.544-.013zm0-.795c-.519 0-1.04 0-1.55.013h-.114C39.47.013 38.954 0 38.441 0 25.62 0 13.783 2.612 13.665 2.64a29.5 29.5 0 00-1.645.41c-.295.082-.559.25-.759.481a1.6 1.6 0 00-.404 1.078v28.815a1.612 1.612 0 001.167 1.558c.553.16 1.598.4 1.646.41C13.79 35.418 25.617 38 38.4 38c.517 0 1.035 0 1.543-.013h.114c.508.008 1.028.013 1.545.013 12.796 0 24.609-2.582 24.727-2.608.045-.01 1.118-.245 1.653-.412.367-.106.682-.343.888-.664.179-.27.273-.585.271-.908l.016-7.583V4.592a1.646 1.646 0 00-.987-1.523l-.077-.032-.028-.013-.066-.02a39.103 39.103 0 00-1.652-.412C66.226 2.565 54.403 0 41.64 0h-.005z" fill="#fff"/><path d="M79.605 18.998c0 6.073-17.884 10.59-39.6 10.59-21.67 0-39.602-4.596-39.602-10.59 0-6.09 17.693-10.59 39.601-10.59 21.908 0 39.6 4.484 39.6 10.59z" fill="#E30613"/><path d="M40.005 29.985c-10.598 0-20.553-1.088-28.029-3.061C4.256 24.887 0 22.07 0 18.998c0-3.163 4.109-5.917 11.882-7.963C19.286 9.084 29.272 8.014 40 8.014c10.727 0 20.727 1.071 28.123 3.02C75.893 13.08 80 15.836 80 19.005c0 3.975-6.5 6.52-11.955 7.95-7.429 1.954-17.388 3.03-28.04 3.03zm0-21.18c-10.66 0-20.575 1.064-27.914 2.998C4.92 13.692.806 16.315.806 18.998c0 2.64 4.152 5.247 11.378 7.155 7.412 1.955 17.293 3.034 27.824 3.034 10.582 0 20.47-1.067 27.842-3.004 7.219-1.897 11.36-4.517 11.36-7.189 0-2.728-4.008-5.285-11.283-7.2-7.323-1.926-17.246-2.988-27.922-2.988z" fill="#fff"/><path d="M12.416 22.35a.886.886 0 01-.246-.651v-5.247a.886.886 0 01.246-.65.862.862 0 01.638-.252h3.513c.234-.01.464.058.652.196a.627.627 0 01.247.515.65.65 0 01-.247.531.999.999 0 01-.652.2h-2.622v1.114h1.402c.77 0 1.366.193 1.787.58.422.387.635.93.639 1.631 0 .708-.225 1.267-.675 1.676-.45.41-1.058.615-1.822.616h-2.218a.86.86 0 01-.642-.26zm3.375-1.378a.829.829 0 00.276-.664.776.776 0 00-.236-.636 1.172 1.172 0 00-.75-.196h-1.136v1.732h1.077c.276.017.55-.067.77-.236zm3.553 1.408a.865.865 0 01-.217-.636v-5.35a.862.862 0 01.217-.637.84.84 0 01.622-.22h3.415a.976.976 0 01.638.18.635.635 0 01.217.52c0 .48-.286.72-.859.72h-2.483V18.3h2.29c.572 0 .86.238.86.711a.633.633 0 01-.218.52.983.983 0 01-.639.18h-2.293v1.47h2.487c.572 0 .859.24.859.721a.633.633 0 01-.217.52.977.977 0 01-.64.18h-3.416a.842.842 0 01-.623-.221zm8.138.025a.872.872 0 01-.252-.657v-4.714h-1.393a.96.96 0 01-.638-.185.708.708 0 01-.213-.566.69.69 0 01.213-.56.971.971 0 01.638-.18h4.62a.977.977 0 01.639.18.693.693 0 01.212.56.707.707 0 01-.212.566.961.961 0 01-.639.185h-1.39v4.714a.876.876 0 01-.253.657 1.028 1.028 0 01-1.332 0zm10.812-.588a.879.879 0 01-.848.85.774.774 0 01-.604-.299l-1.697-2.067-1.726 2.068a.762.762 0 01-.592.298.813.813 0 01-.588-.259.816.816 0 01-.054-1.141l1.895-2.226-1.846-2.172a.838.838 0 01-.217-.541.803.803 0 01.262-.596.83.83 0 01.597-.256.78.78 0 01.602.3l1.667 2.002 1.665-1.995a.718.718 0 01.582-.3.833.833 0 01.597.255.805.805 0 01.054 1.137L36.2 19.047l1.884 2.226c.135.15.21.343.211.544zm2.552.427a3.016 3.016 0 01-1.209-1.26 4.54 4.54 0 010-3.834c.269-.53.69-.967 1.21-1.256a4.107 4.107 0 013.7 0c.52.288.94.726 1.205 1.256a4.561 4.561 0 010 3.834c-.27.529-.69.968-1.21 1.26a4.047 4.047 0 01-3.691 0h-.005zm3.085-1.53c.296-.378.444-.927.444-1.648 0-.72-.15-1.268-.449-1.64a1.63 1.63 0 00-1.232-.56 1.638 1.638 0 00-1.232.56c-.296.37-.444.919-.444 1.645s.148 1.276.444 1.652a1.63 1.63 0 001.913.415c.213-.097.403-.239.556-.415v-.01zm9.406-1.142c.222.321.334.705.319 1.095.008.362-.097.716-.3 1.016a1.94 1.94 0 01-.86.676c-.414.168-.86.25-1.307.24H48.57a.838.838 0 01-.623-.22.863.863 0 01-.217-.635v-5.35a.86.86 0 01.217-.637.84.84 0 01.623-.22h2.526c.732 0 1.312.164 1.742.495a1.601 1.601 0 01.647 1.336 1.64 1.64 0 01-.286.954 1.62 1.62 0 01-.798.606c.375.106.703.332.936.644zm-3.833-1.256h1.294c.26.02.52-.036.749-.16a.573.573 0 00.238-.51.621.621 0 00-.238-.54 1.305 1.305 0 00-.75-.17h-1.293v1.38zm2.245 2.717a.83.83 0 000-1.151c-.16-.117-.413-.175-.774-.175h-1.47v1.5h1.47c.354 0 .613-.056.768-.174h.006zm3.542 1.347a.859.859 0 01-.217-.636v-5.35a.851.851 0 01.217-.637.833.833 0 01.623-.22h3.412a.983.983 0 01.639.18.636.636 0 01.217.52c0 .48-.286.72-.859.72h-2.481V18.3h2.29c.571 0 .857.238.857.711a.636.636 0 01-.217.52.975.975 0 01-.639.18h-2.291v1.47h2.484c.574 0 .86.24.86.721a.636.636 0 01-.218.52.984.984 0 01-.639.18h-3.415a.84.84 0 01-.623-.221zm12.313-6.642a.893.893 0 01.243.655v5.355a.908.908 0 01-.243.662.854.854 0 01-.639.25.866.866 0 01-.647-.245.905.905 0 01-.24-.667V19.75h-2.843v2.002a.91.91 0 01-.243.661.855.855 0 01-.639.25.867.867 0 01-.646-.245.907.907 0 01-.243-.666v-5.359a.89.89 0 01.243-.655.973.973 0 011.291 0 .895.895 0 01.243.655v1.892h2.843v-1.892a.89.89 0 01.24-.655.977.977 0 011.294 0h-.014zM18.096 32.587a1.171 1.171 0 01-.383-.553 1.54 1.54 0 01-.038-.75c.037-.25.135-.488.287-.69.14-.182.33-.32.546-.395a1.566 1.566 0 011.529.352c.034.03.06.07.076.113a.286.286 0 010 .14.317.317 0 01-.1.186.202.202 0 01-.175.054.26.26 0 01-.099-.035.598.598 0 01-.097-.072.993.993 0 00-.23-.159.844.844 0 00-.235-.076.623.623 0 00-.535.116.952.952 0 00-.27.583.973.973 0 00.058.636.62.62 0 00.466.288.714.714 0 00.226 0c.073-.013.17-.033.29-.065l.126-.037a.271.271 0 01.095 0 .201.201 0 01.146.109.317.317 0 01.032.208.296.296 0 01-.052.129.285.285 0 01-.109.084 1.476 1.476 0 01-.886.108 1.458 1.458 0 01-.668-.273zm2.12.404a.318.318 0 01-.046-.25l.306-2.02a.29.29 0 01.12-.226.294.294 0 01.252-.046l1.311.197a.395.395 0 01.237.107.24.24 0 01.052.208c-.027.181-.16.254-.37.221l-.958-.145-.079.506.88.133c.22.034.32.14.29.318a.242.242 0 01-.114.183.383.383 0 01-.257.032l-.88-.134-.083.55.958.145c.219.034.32.142.288.318a.242.242 0 01-.114.185.39.39 0 01-.255.03l-1.311-.197a.319.319 0 01-.227-.115zm2.983.444a.34.34 0 01-.064-.26l.238-1.783-.537-.07a.374.374 0 01-.24-.104.27.27 0 01-.052-.224.263.263 0 01.11-.2.374.374 0 01.257-.037l1.78.236c.088.005.173.04.239.1a.265.265 0 01.053.223.271.271 0 01-.11.203.378.378 0 01-.258.037l-.536-.07-.237 1.779a.335.335 0 01-.129.235.356.356 0 01-.27.06.366.366 0 01-.244-.125zm1.831.225a.327.327 0 01-.055-.249l.228-2.029a.354.354 0 01.121-.24.343.343 0 01.26-.066.319.319 0 01.306.383l-.075.664.578.065c.25.011.488.114.667.29a.77.77 0 01.174.636.795.795 0 01-.351.615c-.23.133-.5.183-.763.14l-.858-.095a.338.338 0 01-.231-.115zm1.423-.373a.293.293 0 00.123-.226.3.3 0 00-.065-.256.469.469 0 00-.28-.105l-.479-.054-.072.636.48.053c.1.02.204.003.293-.048zm2.917.79a.401.401 0 01-.14-.146.286.286 0 01-.037-.159.251.251 0 01.171-.226.246.246 0 01.1-.01c.061.007.12.028.172.061.087.052.18.093.277.123.081.022.165.036.249.043a.933.933 0 00.404-.04.225.225 0 00.16-.2.283.283 0 00-.064-.233.493.493 0 00-.307-.093l-.25-.02a.342.342 0 01-.232-.097.254.254 0 01-.072-.194.246.246 0 01.1-.178.348.348 0 01.245-.06l.172.013a.59.59 0 00.33-.038.23.23 0 00.106-.198.218.218 0 00-.094-.21.588.588 0 00-.29-.085 1.108 1.108 0 00-.45.044l-.102.026a.409.409 0 01-.16.022.257.257 0 01-.232-.171.274.274 0 01.05-.255.419.419 0 01.16-.118c.29-.099.6-.134.904-.102.26.006.512.094.717.253a.636.636 0 01.225.557.616.616 0 01-.14.359.64.64 0 01-.335.199.706.706 0 01.344.25.604.604 0 01.091.394.658.658 0 01-.177.413.959.959 0 01-.43.26c-.2.058-.41.078-.619.058a1.847 1.847 0 01-.846-.242zm2.99.221a1.173 1.173 0 01-.444-.504 1.699 1.699 0 01.079-1.46c.115-.197.287-.355.493-.454.227-.104.477-.148.727-.129.25.007.494.077.709.205.194.12.347.295.44.503a1.711 1.711 0 01-.078 1.46 1.156 1.156 0 01-.495.454 1.603 1.603 0 01-1.437-.075h.006zm1.227-.52a.981.981 0 00.206-.618.968.968 0 00-.14-.636.639.639 0 00-.959-.053.97.97 0 00-.206.617.995.995 0 00.139.636.64.64 0 00.958.048l.002.007zm1.86.663a1.166 1.166 0 01-.455-.494 1.538 1.538 0 01-.143-.735 1.56 1.56 0 01.186-.726c.11-.2.277-.361.48-.464a1.614 1.614 0 011.437.04c.197.116.355.287.453.492.106.23.155.483.142.736 0 .254-.065.503-.187.725-.11.2-.276.362-.479.468a1.602 1.602 0 01-1.437-.041h.003zm1.215-.548c.132-.18.199-.4.19-.623a.965.965 0 00-.16-.636.64.64 0 00-.957-.029 1.226 1.226 0 00-.037 1.256.639.639 0 00.958.027l.007.005zm3.996-1.835c.06.068.092.157.088.248l-.034 2.072a.309.309 0 01-.09.227.303.303 0 01-.223.081.293.293 0 01-.3-.318l.018-1.122-.45.795a.492.492 0 01-.141.178.28.28 0 01-.173.05.298.298 0 01-.172-.055.503.503 0 01-.136-.176l-.42-.786-.017 1.1a.307.307 0 01-.09.225.3.3 0 01-.225.082.308.308 0 01-.22-.087.309.309 0 01-.082-.23l.034-2.076a.34.34 0 01.097-.246.318.318 0 01.241-.092.328.328 0 01.187.062c.06.045.108.105.14.173l.683 1.33.723-1.308a.36.36 0 01.32-.224.319.319 0 01.242.097zm3.272 2.252a.27.27 0 01-.097.214.342.342 0 01-.23.092.301.301 0 01-.278-.178l-.18-.381-1.24.025-.17.388a.32.32 0 01-.114.14.311.311 0 01-.16.05.363.363 0 01-.315-.176.27.27 0 01-.03-.119.308.308 0 01.031-.143l.97-2.088a.365.365 0 01.145-.159.44.44 0 01.431-.01.35.35 0 01.152.16l1.053 2.048c.02.043.031.09.032.136zm-1.8-.759l.766-.016-.401-.842-.366.858zm2.236.959a.348.348 0 01-.105-.251l-.081-2.04a.318.318 0 01.08-.237.329.329 0 01.233-.1l1.323-.053a.32.32 0 01.232.064.268.268 0 01.083.195.277.277 0 01-.067.207.321.321 0 01-.225.084l-.958.038.073 1.815a.346.346 0 01-.083.256.343.343 0 01-.248.105.338.338 0 01-.257-.083zm4.463-.45a.266.266 0 01-.09.22.343.343 0 01-.225.101.31.31 0 01-.16-.037.32.32 0 01-.12-.13l-.196-.375-1.24.071-.16.395a.306.306 0 01-.108.144.3.3 0 01-.16.055.363.363 0 01-.324-.164.269.269 0 01-.034-.118.333.333 0 01.026-.143l.89-2.123a.361.361 0 01.138-.167.445.445 0 01.431-.024.351.351 0 01.16.15l1.13 2.013c.024.04.038.085.042.132zM47 33.37l.764-.044-.43-.828-.334.872zm2.208.808a.442.442 0 01-.16-.124.3.3 0 01-.062-.16.262.262 0 01.058-.187.236.236 0 01.175-.088.39.39 0 01.18.035c.093.038.191.065.291.08.084.008.169.008.253 0a.963.963 0 00.394-.102.228.228 0 00.131-.222.287.287 0 00-.1-.221.507.507 0 00-.32-.045l-.247.02a.34.34 0 01-.246-.063.243.243 0 01-.029-.37.347.347 0 01.233-.097l.171-.013a.61.61 0 00.32-.09.228.228 0 00.074-.209.221.221 0 00-.124-.194.596.596 0 00-.302-.041 1.14 1.14 0 00-.23.04c-.06.018-.13.044-.206.074l-.097.043a.392.392 0 01-.16.046.25.25 0 01-.195-.059.24.24 0 01-.09-.159.292.292 0 01.04-.159.409.409 0 01.144-.141c.272-.143.572-.224.879-.237.257-.035.52.014.747.14a.636.636 0 01.307.515.6.6 0 01-.083.377.624.624 0 01-.302.246.714.714 0 01.378.196.596.596 0 01.152.377.66.66 0 01-.112.434.93.93 0 01-.386.318 1.618 1.618 0 01-.602.159c-.297.03-.596-.01-.874-.12zm4.035-2.883a.602.602 0 01.268-.075.291.291 0 01.356.286l.206 2.058a.344.344 0 01-.067.26.38.38 0 01-.5.052.338.338 0 01-.118-.242l-.137-1.36-.799 1.495c-.041.075-.09.146-.145.211a.39.39 0 01-.144.102.78.78 0 01-.191.041.329.329 0 01-.248-.058.318.318 0 01-.109-.23l-.207-2.057a.342.342 0 01.069-.259.338.338 0 01.24-.12.345.345 0 01.26.068.337.337 0 01.117.243l.138 1.356.846-1.58a.52.52 0 01.165-.191zm3.442-.356a.34.34 0 01.123.237l.252 2.025a.342.342 0 01-.297.403.347.347 0 01-.35-.184.341.341 0 01-.036-.134l-.094-.757-1.096.135.094.758a.34.34 0 01-.062.261.332.332 0 01-.238.126.32.32 0 01-.385-.302l-.252-2.028a.317.317 0 01.3-.381.321.321 0 01.35.165.318.318 0 01.035.132l.09.716 1.095-.136-.09-.715a.336.336 0 01.063-.26.333.333 0 01.238-.123.342.342 0 01.26.062zm1.484 2.297a1.168 1.168 0 01-.537-.407 1.703 1.703 0 01-.214-1.445 1.15 1.15 0 01.393-.542 1.617 1.617 0 011.422-.21c.215.079.4.22.532.405a1.704 1.704 0 01.214 1.446 1.161 1.161 0 01-.393.543 1.591 1.591 0 01-1.417.21zm1.098-.752a.991.991 0 00.078-.647.978.978 0 00-.265-.593.578.578 0 00-.503-.142.587.587 0 00-.444.28 1.23 1.23 0 00.185 1.244.64.64 0 00.949-.142zm3.373-.997a.694.694 0 01.196.391.656.656 0 01-.05.403.77.77 0 01-.284.31c-.146.09-.31.149-.48.175l-1.003.171a.333.333 0 01-.253-.04.327.327 0 01-.124-.225l-.358-2.012a.296.296 0 01.267-.375l.966-.159c.235-.051.48-.025.699.073a.612.612 0 01.334.46.621.621 0 01-.048.378.638.638 0 01-.267.28.68.68 0 01.404.17zm-1.558-.22l.495-.085a.552.552 0 00.278-.108.222.222 0 00.058-.208.237.237 0 00-.127-.188.523.523 0 00-.298-.014l-.495.084.09.518zm1.037.874a.255.255 0 00.05-.23.257.257 0 00-.125-.203.521.521 0 00-.309-.014l-.562.095.098.565.562-.096a.523.523 0 00.292-.117h-.006z" fill="#fff"/></g><defs><clipPath id="clip0_35_88"><path fill="#fff" d="M0 0h80v38H0z"/></clipPath></defs></svg>