<svg width="65" height="32" viewBox="0 0 65 32" fill="none" xmlns="http://www.w3.org/2000/svg"><path d="M2.336 32L0 8.224l1.242-.1c.685-.053 1.186-.69 1.115-1.415l-.12-1.224a1.304 1.304 0 01.292-.962 1.286 1.286 0 01.888-.46l8.623-.674a1.356 1.356 0 011.44 1.214l.25 2.543 4.419-.348 16.342.253 1.632 19.895-2.974 2.636L2.336 32z" fill="#C6C5C5"/><path d="M23.999 0L4.509 10.216 2.416 32l37.302-2.95 2.09-21.783L23.998 0z" fill="#066BC6"/><path d="M14.889 23.152l-2.223-3.648h-1.809v3.648h-2.17V12.884h4.769c2.123 0 3.422 1.4 3.422 3.31 0 1.817-.911 2.786-2.01 3.048l2.51 3.91h-2.49zm-.226-6.959c0-.862-.658-1.385-1.528-1.385H10.86v2.77h2.276c.87 0 1.528-.522 1.528-1.385zm4.071 6.96v-10.27h7.213v1.925h-5.044v2.17h4.498v1.925h-4.498v2.326h5.044v1.924h-7.213zm8.42-5.127c0-3.249 2.445-5.312 5.426-5.312 2.123 0 3.454 1.077 4.217 2.294l-1.803.985c-.458-.723-1.329-1.34-2.414-1.34-1.85 0-3.194 1.433-3.194 3.373 0 1.94 1.344 3.372 3.194 3.372.901 0 1.758-.401 2.17-.786v-1.096h-2.69V17.58h4.858v3.833c-1.038 1.17-2.49 1.94-4.338 1.94-2.98 0-5.425-2.094-5.425-5.327v-.001z" fill="#fff"/><path d="M42.208 22.075c0-.677.566-1.248 1.238-1.248s1.237.57 1.237 1.247c0 .677-.564 1.247-1.237 1.247a1.257 1.257 0 01-1.238-1.247v.001zm10.403 1.078l-2.44-3.65h-1.59v3.65h-2.17v-10.27h4.768c2.124 0 3.424 1.402 3.424 3.31 0 1.818-1.13 2.787-2.231 3.05l2.73 3.909h-2.49zm-.224-6.96c0-.862-.659-1.385-1.53-1.385h-2.276v2.77h2.277c.87 0 1.53-.522 1.53-1.385zm3.851 2.864v-6.173h2.201v6.096c0 1.433.606 2.417 2.18 2.417 1.573 0 2.163-.984 2.163-2.417v-6.096H65v6.158c0 2.556-1.28 4.296-4.38 4.296-3.104-.001-4.382-1.756-4.382-4.281z" fill="#000"/></svg>