<svg width="102" height="16" viewBox="0 0 102 16" fill="none" xmlns="http://www.w3.org/2000/svg"><path d="M2.523 4.88h10.143l-.489 2.487h-6.46l-.264 1.39h6.264l-.502 2.557H4.95l-.28 1.503h6.558l-.489 2.514H.5l2.023-10.45zm10.253 10.451l2.023-10.45h9.445l-.488 2.612H17.98l-1.535 7.838h-3.67zm25.153-5.8c0 .804-.126 1.554-.377 2.247a5.402 5.402 0 01-1.158 1.882c-.52.571-1.241 1.02-2.162 1.348-.912.328-1.986.492-3.223.492h-.81c-.957 0-1.813-.089-2.566-.267-.744-.187-1.344-.421-1.8-.702a4.272 4.272 0 01-1.102-1.012c-.289-.384-.484-.758-.586-1.123a3.627 3.627 0 01-.126-1.138h3.935c0 .065.014.15.041.253.028.093.098.22.21.379.12.16.274.304.46.435.186.122.456.23.81.324.353.093.762.14 1.227.14 1.618 0 2.679-.51 3.181-1.531h-4.59l.474-2.43h4.34c-.317-.955-1.191-1.433-2.624-1.433-.493 0-.934.047-1.325.14-.382.094-.679.202-.893.324a2.203 2.203 0 00-.53.435c-.149.16-.242.28-.28.365a3.277 3.277 0 00-.097.253h-3.92c.074-.393.195-.768.363-1.124a4.54 4.54 0 01.767-1.123 5.33 5.33 0 011.255-.998c.484-.28 1.098-.51 1.842-.688.754-.178 1.595-.267 2.525-.267h.614c.977 0 1.837.108 2.581.323.754.206 1.344.473 1.772.8a4.25 4.25 0 011.074 1.167c.28.44.465.861.558 1.264.093.403.14.824.14 1.264z" fill="#171717"/><path d="M41.08 4.88h3.669l-1.437 7.516h6.069l-.572 2.935h-9.752l2.023-10.45zm17.97 6.322l-.906-3.582-2.218 3.582h3.125zm1.047 4.13l-.433-1.714h-5.231l-1.075 1.713h-3.85l6.64-10.45h4.8l2.874 10.45h-3.725zm14.001 0L69.62 9.08l-1.2 6.25h-3.6l2.024-10.45h3.753l4.297 6.068 1.171-6.068h3.586l-2.023 10.45h-3.53zm5.819 0L81.94 4.88h5.385c.977 0 1.837.089 2.58.267.754.168 1.368.398 1.843.688.474.29.86.641 1.158 1.053.307.412.516.843.627 1.293.121.44.182.917.182 1.432 0 .59-.065 1.148-.195 1.672a4.833 4.833 0 01-.712 1.531 4.991 4.991 0 01-1.312 1.306c-.52.356-1.209.647-2.064.871-.847.225-1.814.338-2.902.338h-6.613zm5.19-7.81l-.99 5.155h2.036c.614 0 1.153-.066 1.618-.197.465-.14.828-.31 1.089-.506.26-.206.47-.45.627-.73.159-.29.26-.553.307-.787.047-.234.07-.482.07-.744 0-.3-.042-.567-.126-.8a1.806 1.806 0 00-.432-.69c-.205-.224-.52-.397-.949-.519-.428-.122-.953-.183-1.576-.183h-1.674z" fill="#F8D863"/><path fill-rule="evenodd" clip-rule="evenodd" d="M97.88 7.787c2 0 3.619-1.631 3.619-3.643 0-2.013-1.62-3.644-3.618-3.644-2 0-3.62 1.631-3.62 3.644 0 2.012 1.62 3.643 3.62 3.643zm.905-3.976c.5 0 .905-.408.905-.911a.908.908 0 00-.905-.911c-.5 0-.904.408-.904.91 0 .504.405.912.904.912z" fill="#F8D863"/></svg>