<svg width="95" height="16" viewBox="0 0 95 16" fill="none" xmlns="http://www.w3.org/2000/svg"><path d="M2.585 14.508C1.08 15.4 0 14.657 0 13.333V2.064C0 .741 1.08-.003 2.585.89l9.371 5.561c.935.555.935 1.94 0 2.496l-9.371 5.56z" fill="#00C1FF"/><path d="M10.321 14.508c-1.505.892-2.585.149-2.585-1.175V2.064c0-1.323 1.08-2.067 2.585-1.174l9.165 5.439c1.026.609 1.026 2.13 0 2.74 0 0-6.873 4.08-9.165 5.439z" fill="#6FE4FF"/><path d="M25.247 10.208l.266-.62c.177-.42.497-.53.906-.22.781.584 2.06 1.022 3.765 1.022 1.457 0 2.078-.383 2.078-.839 0-.51-.515-.657-1.367-.766l-1.936-.256c-2.327-.31-3.5-1.168-3.5-2.664 0-1.606 1.28-2.883 4.245-2.883 1.652 0 2.718.255 3.41.529.765.31.871.566.871 1.204v.821c0 .511-.178.694-.675.694h-.55c-.498 0-.675-.183-.675-.694v-.273c-.32-.11-1.12-.274-2.06-.274-1.635 0-2.434.31-2.434.821 0 .383.48.602 1.35.73l1.9.256c2.327.31 3.553 1.021 3.553 2.737 0 1.752-1.617 2.865-4.494 2.865-2.114 0-3.819-.694-4.494-1.332-.248-.238-.284-.548-.16-.858zm20.962 2.044h-.977c-.48 0-.64-.073-.87-.438l-1.848-2.792c-.266-.383-.461-.475-1.012-.475h-1.847v3.011c0 .511-.178.694-.675.694h-.71c-.498 0-.676-.183-.676-.694V2.49h-.657c-.497 0-.675-.182-.675-.693v-.603c0-.51.178-.693.675-.693h2.043c.497 0 .675.183.675.693v5.31h1.652c.55 0 .746-.09 1.012-.474l1.545-2.445c.249-.383.409-.456.888-.456h.977c.533 0 .64.438.338.894l-1.723 2.682c-.178.256-.39.53-.604.749.213.182.515.492.64.675l2.166 3.248c.302.438.196.876-.337.876zm3.363 1.678v-.602c0-.51.177-.693.675-.693h.852c.515 0 .764-.11.96-.53l.106-.237-4.068-7.901c-.248-.474-.053-.84.48-.84h.924c.48 0 .692.092.87.439l1.705 3.594c.39.822.835 1.77 1.19 2.592.355-.803.764-1.716 1.155-2.519l1.74-3.667c.16-.347.39-.438.87-.438h.924c.533 0 .728.365.48.839L53.799 13c-.533 1.04-1.155 1.624-2.54 1.624h-1.012c-.498 0-.675-.183-.675-.694zm12.255-7.134h5.986c-.231-.95-1.172-1.844-3.002-1.844-1.83 0-2.753.895-2.984 1.844zm7.957.857v.22c0 .51-.177.693-.675.693h-7.282c.249.967 1.19 1.897 3.197 1.897 1.794 0 2.611-.602 2.984-.875.409-.31.693-.201.906.218l.302.603c.16.31.07.547-.195.784-.391.347-1.723 1.205-3.997 1.205-3.055 0-5.186-1.843-5.186-4.727 0-2.828 2.042-4.69 4.973-4.69 2.93 0 4.973 1.844 4.973 4.672zm12.953-.31v4.215c0 .511-.178.694-.675.694h-.71c-.498 0-.676-.183-.676-.694v-4.16c0-1.478-.852-2.281-2.291-2.281-1.119 0-2.451.711-3.108 1.46v4.981c0 .511-.178.694-.675.694h-.71c-.498 0-.676-.183-.676-.694V5.117h-.657c-.497 0-.675-.183-.675-.694v-.602c0-.51.178-.693.675-.693h1.723c.497 0 .675.182.675.693v.511c.96-.803 2.256-1.35 3.659-1.35 2.664 0 4.12 1.624 4.12 4.361zM92.94 8.967v-2.92c-.498-.62-1.226-1.003-2.54-1.003-1.581 0-2.735.93-2.735 2.463s1.154 2.446 2.735 2.446c1.296 0 2.025-.384 2.54-.986zM95 3.821v8.54c0 1.898-1.99 3.14-4.53 3.14-2.397 0-3.534-.73-4.049-1.223-.248-.238-.284-.548-.16-.858l.267-.62c.195-.457.515-.548.906-.22.621.511 1.225.931 3.02.95 1.598 0 2.486-.603 2.486-1.333v-.876c-.64.42-1.421.694-2.54.694-2.878 0-4.867-1.734-4.867-4.508 0-2.773 1.99-4.525 4.867-4.525 1.243 0 2.06.365 2.61.803.143-.31.427-.657.782-.657h.533c.497 0 .675.182.675.693z" fill="#000"/></svg>