<svg width="82" height="18" viewBox="0 0 82 18" fill="none" xmlns="http://www.w3.org/2000/svg"><path d="M9.02 17.243a8.23 8.23 0 01-2.806-.49 6.813 6.813 0 01-3.2-2.802A8.33 8.33 0 012.13 9.52c.342-5.09 6.365-6.424 8.575-3.553 2.21 2.871-1.406 4.945-1.481 3.697-.191-3.05-2.69-1.981-2.783-.15-.278 5.5 8.905 4.853 9.014-1.317.064-3.633-2.447-5.944-3.708-6.967a8.243 8.243 0 014.39 3.585 8.22 8.22 0 01-1.782 10.483 8.254 8.254 0 01-5.328 1.94M9.026 0a9.025 9.025 0 00-5.01 1.51 8.986 8.986 0 00-1.384 13.845 9.019 9.019 0 009.822 1.964 9.012 9.012 0 004.05-3.31 8.989 8.989 0 001.525-4.997 9.004 9.004 0 00-2.641-6.359A9.034 9.034 0 009.02.012L9.026 0zM30.51 2.796v3.16h-3.223v9.6h-4.05v-9.6h-3.235v-3.16H30.51z" fill="#003057"/><path d="M29.358 9.017a3.035 3.035 0 011.684-2.49 7.59 7.59 0 013.362-.629c4.45 0 4.45 2.31 4.45 3.408v5.09a1.516 1.516 0 00.323 1.155h-3.674v-.722a4.872 4.872 0 01-3.09.941c-2.349 0-3.379-1.427-3.379-3.015a2.73 2.73 0 01.799-2.005c.85-.866 1.857-1.01 3.506-1.23a12.01 12.01 0 001.99-.399c0-.63-.196-1.063-1.267-1.063-.85 0-1.081.214-1.209.867l-3.495.092zm4.843 2.548c-.306.07-.63.144-.96.254a.955.955 0 00-.758.832.809.809 0 00.92.722 2.02 2.02 0 001.736-1.063c.141-.35.203-.727.18-1.103-.377.121-.742.248-1.118.358zm9.142-4.546c1.013-.902 1.701-1.011 3.13-1.011V9.15c-.254 0-.503-.034-.757-.034-2.188 0-2.228 1.426-2.245 2.039v4.402h-3.703V6.152h3.575v.867zm4.085-4.206h3.738V8.88l2.529-2.67h4.553L54.69 9.584l3.72 5.973h-4.247l-2.03-3.558-.979.942v2.617h-3.726V2.813z" fill="#003057"/><path d="M68.096 13.367a5.54 5.54 0 01-4.97 2.56c-3.472 0-5.173-2.49-5.173-5.09 0-3.05 2.112-5.02 5.155-5.02A5.352 5.352 0 0166.87 7.21c1.377 1.352 1.394 2.889 1.429 4.333h-6.55a1.772 1.772 0 00.451 1.317 1.505 1.505 0 001.117.433 1.796 1.796 0 001.7-1.207l3.08 1.282zm-3.599-3.79a3.338 3.338 0 00-.052-.433 1.247 1.247 0 00-1.25-.959 1.448 1.448 0 00-1.412 1.387h2.714v.006zm12.058-1.143v4.535a2.571 2.571 0 00.631 1.929c.746.757 2.06.774 2.46.774a18.15 18.15 0 002.348-.196v-2.548a4.2 4.2 0 01-.665.075c-.995 0-1.013-.612-1.013-.976V8.434H82V6.412h-1.614v-2.94h-3.738v2.94H73.61v-2.94h-3.76v2.94h-1.303v2.022h1.227v4.529a2.555 2.555 0 00.636 1.93c.741.756 2.06.773 2.46.773.786-.014 1.57-.08 2.349-.196v-2.548a4.14 4.14 0 01-.666.075c-.995 0-1.012-.612-1.012-.976l.029-3.599h2.974l.011.012z" fill="#003057"/></svg>