<svg width="78" height="12" viewBox="0 0 78 12" fill="none" xmlns="http://www.w3.org/2000/svg"><path d="M1.71 11.283V2.215l7.901 9.449.005.006.006.005c.045.041.108.09.188.116.08.035.167.044.243.044a.637.637 0 00.416-.156.508.508 0 00.184-.405V.707a.56.56 0 00-.174-.405l-.005-.005-.005-.004a.637.637 0 00-.837.004.546.546 0 00-.179.41v9.06L1.56.332 1.555.33A.61.61 0 001.1.146a.6.6 0 00-.421.16.546.546 0 00-.179.41v10.576c0 .166.066.298.179.401.113.104.263.16.42.16h.016c.161-.02.3-.062.416-.169a.54.54 0 00.179-.4zM14.639.302l-.005-.005a.62.62 0 00-.421-.16.601.601 0 00-.422.16.545.545 0 00-.179.41v10.576c0 .166.067.298.18.401.113.104.262.16.42.16h.01a.645.645 0 00.413-.16.54.54 0 00.179-.4V.706a.56.56 0 00-.174-.405zM25.2 1.355c.53.151.994.4 1.41.736l.004.004.006.005c.042.03.096.07.145.094.05.033.106.054.151.065a.411.411 0 00.162.024h.006c.173 0 .33-.053.438-.176a.565.565 0 00.162-.403.46.46 0 00-.189-.382A6.27 6.27 0 0025.61.326 6.668 6.668 0 0023.483 0a6.41 6.41 0 00-2.484.475 6.353 6.353 0 00-2.027 1.305 6.094 6.094 0 00-1.36 1.912 5.58 5.58 0 00-.489 2.299c0 .822.173 1.59.509 2.318a6.208 6.208 0 001.38 1.911v.001a6.61 6.61 0 002.027 1.303 6.318 6.318 0 002.444.476 8.32 8.32 0 002.15-.278 4.383 4.383 0 001.862-1.016.436.436 0 00.136-.21.878.878 0 00.023-.19.518.518 0 00-.169-.402.69.69 0 00-.36-.177h-.002a.49.49 0 00-.393.098c-.466.356-.97.615-1.503.784-.535.17-1.11.26-1.724.26a5.115 5.115 0 01-1.992-.384h-.002a5.136 5.136 0 01-1.642-1.054V9.43a4.98 4.98 0 01-1.117-1.562 4.455 4.455 0 01-.407-1.886c0-.65.135-1.263.406-1.84l.002-.005c.241-.576.619-1.093 1.096-1.55a5.344 5.344 0 011.654-1.072 5.107 5.107 0 011.982-.392c.616 0 1.191.08 1.717.232zm11.155 4.084h-5.16V1.287h7.203v-.03a.657.657 0 00.293-.144l.005-.004a.52.52 0 00.18-.402.56.56 0 00-.175-.405l-.005-.005-.005-.004a.637.637 0 00-.416-.156h-7.68a.6.6 0 00-.42.16.546.546 0 00-.18.41v10.576c0 .166.067.298.18.401.113.104.262.16.42.16h7.68a.637.637 0 00.416-.155.508.508 0 00.184-.406.555.555 0 00-.174-.396l-.005-.005a.594.594 0 00-.42-.16h-7.08V6.57h5.16a.6.6 0 00.42-.16l.005-.004A.56.56 0 0036.955 6a.526.526 0 00-.179-.401.618.618 0 00-.42-.16zm15.032-3.644a6.373 6.373 0 00-2.03-1.243 7.082 7.082 0 00-2.526-.439c-.916 0-1.761.147-2.537.44a6.209 6.209 0 00-2.04 1.242 5.79 5.79 0 00-1.352 1.865 5.61 5.61 0 00-.478 2.322c0 .84.16 1.618.478 2.33a5.634 5.634 0 001.353 1.875c.577.53 1.253.941 2.039 1.243a7.135 7.135 0 002.537.438c.915 0 1.76-.146 2.527-.438a6.167 6.167 0 002.029-1.243 5.728 5.728 0 001.353-1.874c.318-.713.477-1.49.477-2.331s-.159-1.618-.477-2.322a5.788 5.788 0 00-1.353-1.865zm.458 6.17a4.802 4.802 0 01-1.155 1.59 5.442 5.442 0 01-1.73 1.061 6.045 6.045 0 01-2.14.375 6.156 6.156 0 01-2.158-.375 5.283 5.283 0 01-1.73-1.06 4.944 4.944 0 01-1.155-1.59 4.814 4.814 0 01-.408-1.984c0-.704.14-1.362.408-1.966a4.799 4.799 0 011.154-1.59 5.44 5.44 0 011.731-1.06A6.076 6.076 0 0146.821.99c.766 0 1.482.128 2.139.375a5.283 5.283 0 011.73 1.06c.498.457.876.987 1.155 1.59.268.604.407 1.262.407 1.966 0 .713-.13 1.37-.407 1.983zm4.744 3.629a.417.417 0 00.139-.31V1.876l8.118 9.708c.04.036.09.073.149.091a.48.48 0 00.199.037.515.515 0 00.338-.128c.1-.082.14-.192.14-.31V.706a.437.437 0 00-.14-.32.515.515 0 00-.677 0 .425.425 0 00-.139.32v9.397L56.61.414a.488.488 0 00-.37-.144.48.48 0 00-.339.128.423.423 0 00-.139.32v10.575c0 .128.05.229.14.311a.494.494 0 00.338.128.615.615 0 00.348-.137zM77.023 1.146c.13 0 .239-.046.338-.128.1-.091.14-.192.14-.31a.438.438 0 00-.14-.32.514.514 0 00-.338-.128h-7.68a.478.478 0 00-.338.127.423.423 0 00-.14.32v10.576c0 .128.05.229.14.311.09.082.209.128.338.128h7.68c.13 0 .239-.046.338-.128.1-.082.14-.192.14-.31 0-.12-.05-.22-.14-.312a.471.471 0 00-.338-.127h-7.202V6.447h5.282c.14 0 .249-.046.338-.128a.438.438 0 00.14-.32.404.404 0 00-.14-.31.494.494 0 00-.338-.129h-5.282V1.164h7.202v-.018z" fill="#231F20"/></svg>