<svg width="100" height="30" viewBox="0 0 100 30" fill="none" xmlns="http://www.w3.org/2000/svg"><path fill-rule="evenodd" clip-rule="evenodd" d="M9.764 21.167v2.83l-5.068-.005v-2.825c0-.96.01-1.334 1.413-1.395v-.537H1.636v.538c.304.018.834.157 1.05.282.301.173.395.434.395.865v7.357c0 .989-.512.975-1.445 1.024v.538h4.473v-.537c-.866-.045-1.413-.217-1.413-1.025v-3.608h5.067v3.608c0 1.041-.552.921-1.443 1.033v.523c1.196.043 3.191.006 4.471.006V29.3c-.297-.015-.773-.102-.998-.22-.294-.155-.414-.36-.414-.804v-7.48c0-.404.06-.69.389-.828.251-.106.73-.184 1.023-.197l-.017-.537c-1.048 0-3.572-.042-4.454.008v.521c1.296.185 1.445.435 1.444 1.403zm63.602 2.6l1.178 2.946-2.326.002c.154-.48.379-.995.565-1.469.18-.457.375-1.06.583-1.479zm-12.994-1.18c.699-.068 1.198.337 1.219 1.128.018.701.027 4.105-.021 4.659-.09 1.008-.38.9-1.248 1.11l.002.356 3.134-.017v-.34l-.526-.144c-.545-.12-.711-.39-.777-.993-.048-.434-.067-4.89-.022-5.28.152.076.567 1.337.633 1.511.263.686 1.682 4.341 1.78 4.727l.165.413h.286c.56-1.572 1.638-4.041 2.34-5.77.074-.182.229-.697.369-.745.055.284.018 3.17.018 3.719 0 2.143.305 2.494-1.212 2.546v.374l6.08-.015v-.345c-1.525-.298-1.26-.177-.58-2.271h2.678c.143.071.177.309.236.465.133.348.513 1.261.5 1.535-.249.206-.584.225-.982.26v.37l3.235-.014v-.345c-.708-.15-.933-.252-1.172-.858-.264-.67-1.672-4.186-1.677-4.375-.107-.106-.16-.327-.238-.518-.08-.2-.142-.364-.22-.565-.132-.343-.325-.756-.421-1.094-.605 0-.396-.093-.777.847-.475 1.17-2.189 5.79-2.55 6.16-.154.16-.535.384-.896.367-.358-.016-.733-.162-.82-.442-.074-.237-.033-4.348-.033-4.96 0-1.095-.17-1.412 1.062-1.477v-.371h-2.535c-.117.809-1.194 3.291-1.596 4.311-.104.265-.454 1.242-.574 1.398l-2.211-5.707-2.65-.002.001.391zm26.253 1.181l1.178 2.945-2.324.002c.152-.48.376-.995.563-1.469.18-.457.375-1.06.583-1.478zm6.507 6.091v-.392c-.362-.012-1.018-.004-.874-.47.089-.284 1.434-2.172 1.686-2.434.292.408.555.845.836 1.27 1.065 1.608.893 1.526-.3 1.645l.026.36h3.632v-.372c-.804-.023-.875-.207-1.247-.592-.102-.106-2.106-2.927-2.22-3.186.169-.288.465-.638.678-.926.22-.296.441-.592.68-.892.469-.59.884-1.393 1.852-1.284v-.391h-2.896v.372c1.22.047 1.067.355.234 1.532l-.414.578c-.132.184-.277.414-.435.575-.146-.128-.691-1-.796-1.164-.167-.26-.688-.987-.653-1.312.24-.161.636-.189.986-.214v-.364l-3.596-.004v.374c.968.062 1.078.335 1.543.997l1.76 2.534c-.1.23-1.615 2.167-1.815 2.438-.187.253-.729.964-1.24.866-.627-.12-.775-.75-.954-1.196-.413-1.02-.803-2.036-1.197-3.053-.199-.513-1.127-2.782-1.199-3.104-.595.032-.406-.088-.848 1.045l-2.059 5.204c-.16.4-.28.694-.557.89-.764.54-.811-.102-.811.652l2.917-.015v-.345c-.291-.057-.579-.072-.826-.171-.632-.253-.038-1.227.245-2.1h2.68c.124.03.369.825.424.977.103.28.325.735.31 1.023-.248.206-.583.225-.981.26v.37l5.429.019zM48.6 23.768l1.178 2.945-2.325.002c.152-.48.377-.995.563-1.469.18-.457.376-1.06.583-1.478zm.058-1.577c-.01.26-1.368 3.575-1.58 4.102-.273.673-.538 1.35-.813 2.035-.168.42-.278.674-.57.878-.734.511-.787-.115-.787.635l2.917-.015v-.345c-.76-.148-1.249-.082-1.07-.834.12-.502.341-.978.49-1.437h2.679c.143.071.176.309.235.465.133.348.514 1.261.5 1.535-.248.206-.583.225-.981.26v.366c.747.027 1.983-.033 2.582.004.486.03 1.422.654 2.483-1.459.832-1.658.932-3.685.997-5.732l2.092.011c.02 1.306.002 2.625.002 3.932 0 2.688.246 2.806-1.04 2.874l-.003.374h3.225v-.374c-1.002-.064-1.02-.292-1.02-1.23v-4.439c0-.307-.074-.78.138-.992.14-.14.63-.251.882-.22v-.39h-6.178l.002.373c.91.099 1.18.185 1.223 1.105a10.24 10.24 0 01-.163 2.192c-.197 1.063-.718 2.824-1.39 3.293-.217-.235-.315-.53-.732-.617-.576-.118-.61.21-.804.501-.255-.3-1.188-2.846-1.417-3.444-.272-.713-1.232-3.034-1.373-3.527-.495 0-.365-.032-.526.12zm-9.708 3.825c1.12-.04 1.862-.112 2.445.599.495.604.3 1.867-.162 2.342-.447.46-1.899.671-2.214.041-.14-.276-.069-2.496-.069-2.982zm0-.451v-2.919c1.03-.027 2.394-.223 2.34 1.44-.02.606-.256 1.037-.636 1.259-.471.273-1.11.22-1.704.22zm-1.393-2.743c.352.116.228 1.398.228 1.838 0 1.119.045 3.157-.001 4.153-.016.343-.15.493-.454.57-.69.175-.601-.138-.601.457h3.23c1.046 0 1.85-.115 2.463-.697 1.056-1.001.835-2.727-.995-3.26-.198-.058-.452-.075-.644-.154.09-.07.439-.149.669-.254 1.823-.836 1.506-3.117-.784-3.262l-3.9-.019v.352c.191.058.5.08.681.191a.688.688 0 01.028.019l.08.066zm-15.304 3.13c1.033-.033 2.01-.04 2.456.63.463.698.325 1.815-.17 2.36-.391.43-2.01.75-2.263.04-.074-.21-.082-2.774-.023-3.03zm-1.242 3.044c-.003.264-.222.357-.502.409-.633.115-.5-.074-.5.435h3.314c.564 0 .939-.012 1.452-.172 1.39-.432 1.983-1.932 1.337-3.07-.413-.728-1.068-.919-2.08-1.118a22.56 22.56 0 00-1.801-.02l.002-2.812c.488 0 1.924-.061 2.273.106.204.099.464.402.603.598.537.759.098.734.772.734v-1.912c-.36.06-1.074.02-1.474.02h-1.46c-.44 0-2.66-.047-2.898.03v.322c.636.192 1.014.094 1.017.88.003.792.06 5.445-.055 5.57zm9.009-6.436c1.902-.342 2.687 1.399 2.79 3.026.116 1.802-.403 3.581-1.977 3.887-1.893.368-2.715-1.36-2.818-3.023-.112-1.82.4-3.6 2.005-3.89zm-.772-.378l-.26.13c-2.104.849-2.197 2.964-2.303 3.115.05.372-.017.822.042 1.264.601 4.463 6.884 4.394 7.389-.102.125-1.119-.108-2.212-.736-3.089l-.569-.65c-.182-.064-.45-.336-.91-.522l-.806-.237c-.04-.007-.102-.015-.142-.025a1.061 1.061 0 01-.034-.009l-.066-.023c-.006-.014-.022-.008-.032-.014-.247.06-.572.006-.843.037-.233.026-.542.134-.73.125zm-9.453 5.519c.004-.163.092-.124-.394-.122-.122.47-.528 1.13-.776 1.45-.326.424-1.276.362-1.932.356-.96-.009-1.21-.049-1.217-1.026-.005-.747-.012-1.513.003-2.259 1.402 0 1.95-.143 2.147 1.3l.412.018v-3.004c-.604 0-.319-.051-.566.603-.094.25-.21.39-.38.489-.368.213-1.143.14-1.616.14v-2.998c.488 0 1.948-.05 2.306.078.386.136.883.825 1.018 1.32h.415v-1.872l-6.01.034v.345c1.37.31 1.106.067 1.106 3.463 0 3.724.244 3.2-1.106 3.465v.357h6.448l.142-2.137z" fill="#283942"/><path fill-rule="evenodd" clip-rule="evenodd" d="M77.632 24.55l.019.36.453-.007c.127-.617.432-1.519.875-1.934.426-.4 1.398-.733 2.095-.286.677.434.619 1.511.377 2.065-.341.78-1.003.775-2.013.775v.618c.552 0 1.168-.058 1.65.145.357.152.782.523.756 1.028.206.237.026 1.263-.4 1.662-.654.615-1.692.75-2.543.37-1.01-.451-.407-.664-.434-1.36-.018-.467-.405-.506-.512-.587-.364.053-.543.03-.706.317-.136.24-.143.576-.06.851.445 1.488 2.907 1.68 4.298 1.19 2.098-.737 2.178-2.747 1.07-3.521a2.081 2.081 0 00-.672-.325 3.518 3.518 0 00-.405-.097c-.128-.022-.308-.022-.416-.085l.077-.052a.585.585 0 01.028-.013c.025-.01.067-.023.094-.031.448-.137.848-.32 1.178-.65.864-.86.694-2.597-1.38-2.903-.333-.049-.722-.015-1.004-.064-.077.049-.743.154-.915.21-.318.1-.52.2-.784.328l-.213-.356-.452-.003c-.001.32.018 2.233-.06 2.354zM0 19.035c.258-.132.456-.314.707-.473.779-.492 1.246-.8 2.11-1.29 2.731-1.545 6.615-3.056 9.645-3.973 14.497-4.382 31.82-5.547 47.13-4.641.684.04 1.452.128 2.122.132-.125-.263-.393-.652-.564-.915-.166-.256-.43-.637-.548-.894-11.233-.871-23.467-.386-34.264 1.71-2.58.5-4.997 1.067-7.482 1.704A65.537 65.537 0 005.55 15.443c-1.429.73-4.108 2.346-5.414 3.457L0 19.035zm69.174-6.745c.17-.19 2.123-1.072 2.458-1.243L74.658 9.5c.2-.099.409-.186.611-.297.207-.113.365-.18.605-.307.196-.103.438-.18.633-.284.489-.259.49-.02 1.36.256l.99.376c.129.038.21.053.329.123-.039.035-.014.018-.08.05a.7.7 0 01-.055.024l-6.133 1.752c-.42.11-.823.266-1.249.388l-2.495.708zm-1.007-.552c.088-.106.221-.217.314-.346.071-.098.073-.129.135-.198l.435-.516c.124-.163.208-.185.325-.339.102-.133.167-.241.283-.377.094-.11.193-.211.284-.338.189-.264.395-.474.598-.726l1.035-1.24c.061-.078.056-.084.129-.16.188-.195.404-.524.604-.686l3.822 1.414c-.091.098-1.873.971-2.126 1.09l-1.609.792c-.424.226-4.336 2.205-4.806 2.386l.577-.756zm8.775-3.685c-.017-.79.18-1.674.176-2.464.105.06.93 1.367 1.109 1.646.181.283.367.54.561.843.162.25.447.596.536.859-.174-.02-2.301-.822-2.382-.884zm-9.484 3.727c.22-.778.805-2 1.002-2.639l.985-2.558c.085-.2.184-.512.26-.722.226.034 1.894.65 2.047.754-.069.182-.37.508-.507.678-.106.13-.173.198-.266.311l-3.425 4.115c-.07.055.004.007-.096.06zm-.527-.066c-.022-.033-.018-.003-.032-.09l.054-1.614c.04-.602.033-1.143.064-1.752.015-.285.017-.575.047-.855l.088-2.52 2.07.786c-.015.19-.211.617-.28.784l-2.011 5.26zm5.95-5.186c.43-.1 3.297-1.218 3.788-1.325-.07.762-.216 1.966-.226 2.663-.385-.116-.579-.199-.931-.339-.288-.114-.618-.206-.883-.316-.307-.128-.58-.205-.887-.328l-.86-.355zm-2.984-1.105c.027-.227.56-1.48.712-1.885l.116-.243 1.065 2.844c-.21-.055-1.804-.642-1.893-.716zm-3.508 6.666c-.139-.093-1.815-4.18-1.924-4.44l-.92-2.253c-.21-.479-.817-1.791-.947-2.22.293.153 2.523.917 3.072 1.15.106.045.938.317.986.387.032.13-.048 1.518-.06 1.82-.068 1.794-.184 3.815-.207 5.556zm1.164-7.53c.06-.129.16-.138.316-.224l1.718-.936c.224-.107.45-.265.66-.349-.058.18-.128.374-.207.544-.087.188-.127.37-.211.577l-.435 1.079-1.841-.69zm4.779 1.666c-.101-.41-.32-.872-.467-1.273l-.45-1.238c-.094-.263-.214-.52-.296-.79l2.562.946c.238.07.45.15.662.241l1.61.593c.124.045.218.075.302.163-.295.078-.72.234-.996.336-.322.118-.637.237-.956.342-.435.143-1.636.619-1.971.68zm-9.793-3.569c.217-.155.52-.552.72-.77.091-.1.175-.145.258-.239.097-.11.1-.157.222-.275l.719-.748c.363.648.632 1.208.988 1.78l.75 1.321c.088.164.13.266.216.403-.227-.009-1.616-.597-1.938-.715l-.983-.36c-.194-.063-.793-.249-.952-.397zm2.78 8.17c-.11-.092-1.295-2.021-1.393-2.153l-1.384-2.174c-.68-1.121-1.407-2.167-2.104-3.267-.217-.34-.509-.74-.688-1.092.47.154.866.316 1.355.476.232.077.44.174.66.26.308.12.236.203.367.493l3.188 7.456zm1.684-6.595L65.007.641l1.325.484c.237.097.402.147.636.233.783.287 2.5.967 3.188 1.18-.047.049-.006.022-.103.084-.015.01-.085.043-.113.057L67.003 4.23zm-7.095-2.497a.296.296 0 01.031-.017l.234-.078c.08-.02.124-.04.22-.066l1.93-.524c.368-.092 1.08-.357 1.386-.377-.086.16-1.47 1.615-1.698 1.833l-1.576-.592c-.196-.051-.348-.125-.527-.179zm-.254 1.122c.508.803 1.523 2.333 1.879 2.954l2.54 3.951c.388.617 1.288 2.087 1.672 2.624l.548.864c.056.093.03.085.093.15.227.23.716-.005 1.214-.158.266-.082.558-.176.834-.255 2.497-.715 5.115-1.511 7.582-2.185l2.52-.726c.274-.1.544-.174.85-.263.415-.12.614-.096.696-.387.065-.227-.205-.528-.325-.697L77.19 4.802c-.15-.215-.46-.262-.711-.362L66.233.61c-.28-.101-.54-.184-.795-.294-1.109-.477-.977-.314-1.646-.155-.562.134-1.147.319-1.704.455-.718.175-1.709.512-2.505.721-.136.036-.703.092-.568.51l.639 1.01zm40.32 16.091c-.14-.05-.395-.274-.523-.371-3.765-2.846-8.404-4.96-12.902-6.517-.821-.283-4.616-1.556-5.234-1.582l-2.086.688c5.478 1.172 11.313 2.8 16.238 5.213.944.462 3.606 1.898 4.486 2.643.031-.036.076.07.021-.074z" fill="#283942"/></svg>