<svg width="87" height="13" viewBox="0 0 87 13" fill="none" xmlns="http://www.w3.org/2000/svg"><path d="M0 .307A16.854 16.854 0 011.733.09C2.373.03 3.007 0 3.635 0c.652 0 1.305.054 1.958.163.666.096 1.262.3 1.79.613.527.301.953.729 1.28 1.282.339.542.508 1.252.508 2.13 0 .795-.144 1.47-.433 2.023A3.907 3.907 0 017.59 7.547a4.71 4.71 0 01-1.638.759 7.463 7.463 0 01-1.883.234h-.735l-.452-.036a3.313 3.313 0 01-.301-.036v4.351H0V.307zM3.842 2.13c-.251 0-.49.012-.716.036-.226.012-.408.03-.546.054v4.098c.05.012.126.025.226.037l.32.036h.565c.34 0 .672-.03.998-.09.34-.06.64-.17.904-.326.264-.168.471-.397.622-.686.163-.289.244-.668.244-1.137 0-.397-.075-.722-.226-.975a1.751 1.751 0 00-.602-.632 2.274 2.274 0 00-.829-.325 5.089 5.089 0 00-.96-.09zM10.777.307c.289-.048.596-.09.923-.126.339-.049.671-.085.998-.109.339-.024.665-.042.98-.054.313-.012.602-.018.865-.018a9.99 9.99 0 011.808.163 4.989 4.989 0 011.601.56c.477.264.854.631 1.13 1.1.289.458.433 1.036.433 1.734 0 1.035-.25 1.878-.753 2.528-.502.65-1.174 1.101-2.015 1.354l.923.56 3.013 4.82h-2.976l-2.994-4.947-1.356-.234v5.181h-2.58V.307zm3.955 1.896c-.264 0-.527.006-.791.018a3.002 3.002 0 00-.584.072v3.665h1.092c.716 0 1.287-.156 1.714-.47.427-.312.64-.83.64-1.552 0-.542-.175-.963-.527-1.264-.351-.313-.866-.47-1.544-.47zM22.37.18h2.58v12.64h-2.58V.18zm8.383 6.05l-1.036-1.987h-.094l.301 1.986v6.59h-2.448V.09h1.883l4.99 6.735.999 1.932h.094l-.301-1.932V.181h2.448V12.91h-1.883l-4.953-6.68zm18.459-3.847h-3.841V12.82h-2.58V2.383h-3.86V.181h10.282v2.202zm14.223.741c0 .313-.044.626-.131.938a2.489 2.489 0 01-.396.867 3.015 3.015 0 01-.734.686 3.406 3.406 0 01-1.093.434v.108c.377.06.735.162 1.074.307a2.619 2.619 0 011.469 1.516c.15.362.226.789.226 1.282 0 .65-.145 1.216-.433 1.698-.29.47-.678.854-1.168 1.155a5.33 5.33 0 01-1.638.668 8.29 8.29 0 01-1.902.217h-.829c-.326 0-.684-.012-1.073-.036a20.263 20.263 0 01-1.168-.072 8.712 8.712 0 01-1.074-.163V.271a21.76 21.76 0 011.808-.199A30.448 30.448 0 0158.558 0c.615 0 1.212.048 1.789.144.59.085 1.111.241 1.563.47.465.229.835.548 1.111.957.276.41.414.927.414 1.553zm-4.708 7.836c.314 0 .616-.036.904-.109a2.57 2.57 0 00.791-.325c.226-.156.408-.349.547-.577.138-.23.207-.5.207-.813 0-.397-.082-.71-.245-.939a1.574 1.574 0 00-.64-.523 2.59 2.59 0 00-.886-.253 8.9 8.9 0 00-.979-.054h-1.375v3.484c.063.024.164.042.302.055l.433.036c.163 0 .326.006.49.018h.451zm-.847-5.471c.176 0 .377-.006.603-.018a5.63 5.63 0 00.583-.054 3.362 3.362 0 001.224-.65c.352-.29.528-.668.528-1.138 0-.313-.063-.572-.188-.776a1.382 1.382 0 00-.509-.488c-.2-.12-.433-.204-.697-.253a4.605 4.605 0 00-.828-.072c-.327 0-.628.006-.904.018-.276.012-.49.03-.64.054V5.49h.828zm14.31 4.531h-4.05l-.998 2.8h-2.58L69.308.09h1.902l4.746 12.73h-2.712l-1.055-2.8zM68.8 8.036h2.824l-.98-2.817-.395-1.986h-.094l-.395 2.004-.96 2.799zM77.094.307c.289-.048.597-.09.923-.126.339-.049.672-.085.998-.109.34-.024.666-.042.98-.054.313-.012.602-.018.866-.018.615 0 1.218.054 1.808.163a4.99 4.99 0 011.6.56c.477.264.854.631 1.13 1.1.289.458.433 1.036.433 1.734 0 1.035-.25 1.878-.753 2.528-.502.65-1.174 1.101-2.015 1.354l.923.56L87 12.819h-2.975L81.03 7.872l-1.356-.234v5.181h-2.58V.307zm3.955 1.896c-.264 0-.527.006-.79.018a3.002 3.002 0 00-.585.072v3.665h1.092c.716 0 1.287-.156 1.714-.47.427-.312.64-.83.64-1.552 0-.542-.175-.963-.527-1.264-.351-.313-.866-.47-1.544-.47z" fill="#FF0032"/></svg>