<svg width="114" height="20" viewBox="0 0 114 20" fill="none" xmlns="http://www.w3.org/2000/svg"><path fill-rule="evenodd" clip-rule="evenodd" d="M13.025 9.38a2.635 2.635 0 01-.182.83c-.054.213-.092.43-.112.649.002.219.02.437.055.653.013.108.027.207.039.297.068.495.104.757-.176 1.034-.087.085-.49.245-.85.389-.29.115-.55.22-.597.264-.16.158-.184.51-.212.922-.007.114-.015.232-.026.352-.02.213-.07.693-.07.693-.74 4.89-6.967 6.012-9.562 2.458a.28.28 0 010-.33.258.258 0 01.139-.097.25.25 0 01.167.012c1.537.67 3.871 1.255 4.762-.13.292-.42.44-.922.421-1.432.023-.402-.06-.494-.216-.445-.165.053-.431.167-.69.277l-.29.123a1.335 1.335 0 01-1.405.044 4.692 4.692 0 01-.527-.367 4.636 4.636 0 00-.6-.5 1.075 1.075 0 00-.598-.14c-.284 0-.646-.002-.72-.218-.029-.08.07-.148.172-.216.091-.061.184-.123.184-.198 0-.07-.09-.181-.186-.297-.115-.14-.235-.287-.207-.378.03-.096.258-.095.47-.095.158 0 .307 0 .356-.04.047-.037.032-.164.014-.304-.025-.201-.054-.43.102-.45.216-.029.762.724 1.083 1.166a12.076 12.076 0 00.223.3c.212.279.371.489.75.544a.947.947 0 00.927-.69.937.937 0 00.02-.41 2.226 2.226 0 00-.685-1.087 42.642 42.642 0 01-1.84-1.881 5.652 5.652 0 01-1.636-3.738c.031-.55-.063-1.1-.275-1.61a4.053 4.053 0 00-.82-1.313 1.152 1.152 0 01-.35-1.305 3.29 3.29 0 00.151-1.478c-.006-.09-.03-.21-.054-.333C.124.657.072.394.152.324c.062-.055.2.072.337.199.125.114.25.23.318.208.065-.02.146-.176.23-.338.1-.192.204-.395.296-.393.093.002.128.21.162.41.028.161.055.318.11.359.059.043.195.01.33-.021.15-.036.3-.07.34-.001.076.135-.314.61-.522.864l-.095.118A1.89 1.89 0 001.37 2.89a.884.884 0 00.383.577.833.833 0 00.664.11c.356-.164.68-.39.956-.669a7.179 7.179 0 012.319-1.355l.114-.035c.27-.083.487-.24.73-.417.36-.26.775-.562 1.497-.72.928-.199 3.587.514 3.812 1.355.2.745-1.289 2.22-2.71 2.807a6.97 6.97 0 01-1.836.156 1.899 1.899 0 00-1.243 1.113 1.025 1.025 0 00.12 1.1c.397.328.908.487 1.423.444.439-.076.85-.267 1.19-.553l.068-.063c.36-.325 1.202-1.084 1.354-1.012.071.033.048.232.024.43-.02.178-.041.354.007.408.044.05.187.065.335.08.192.02.392.04.403.139.01.095-.135.217-.272.332-.114.096-.222.186-.234.255-.011.067.029.157.069.248.05.114.1.228.054.302-.052.085-.254.023-.464-.042a2.072 2.072 0 00-.35-.087c-.366.043-.71.201-.981.451a2.76 2.76 0 01-1.298.432c-.188.014-.114.079-.059.127l.01.008c.103.092.95.917 1.546 1.575 0 0 .485.558.792.93.217.345.535.615.912.772a1.044 1.044 0 00.795-.25c.205-.268.05-.753-.045-1.048-.03-.096-.063-.194-.095-.291-.172-.522-.34-1.029-.245-1.152.046-.062.159.022.276.11.112.083.228.17.292.133.057-.032.11-.168.165-.311.073-.187.15-.384.244-.37.09.012.152.172.21.325.05.128.097.251.158.281.063.03.174-.028.282-.085.126-.066.247-.13.282-.05zM8.552 3.805c.668-.184 1.286-.699 1.135-1.029l-.002-.005c-.05-.14-.717-.038-1.362.132l-.102.026c-.59.15-1.101.28-1.134.469-.072.435.774.596 1.465.407zm.9-2.037c-.002-.367-.731-.56-1.41-.421l-.001-.005c-.7.144-1.422.671-1.188 1.042.096.153.668.034 1.319-.11.65-.146 1.293-.357 1.28-.506zm-3.14 2.304a.844.844 0 00.038-.442l-.002-.005a.158.158 0 00-.083-.11.144.144 0 00-.135.004 5.704 5.704 0 00-.992.694c-.32.31-.587.67-.788 1.065a.255.255 0 00.001.226.245.245 0 00.074.087.23.23 0 00.103.041l.306.041a.44.44 0 00.262-.044.466.466 0 00.194-.189 4.46 4.46 0 01.765-1.005.847.847 0 00.257-.363zm-1.754-.975a4.958 4.958 0 00-1.584 1.64l-.002-.005a.499.499 0 00.124.647.448.448 0 00.214.085.226.226 0 00.145-.029.241.241 0 00.099-.113 3.967 3.967 0 012.165-2.197.152.152 0 00.073-.062.163.163 0 00-.013-.187.15.15 0 00-.081-.05 1.412 1.412 0 00-1.14.271zm.354 7.42l.07-.073v-.005a.253.253 0 00-.009-.352A7.508 7.508 0 013.77 8.638a3.703 3.703 0 01-.496-2.082.25.25 0 00-.053-.17.23.23 0 00-.15-.087l-.24-.033a.358.358 0 00-.291.09.39.39 0 00-.13.287 4.26 4.26 0 00.582 2.235 8.99 8.99 0 001.275 1.639.443.443 0 00.646 0zM4.03 6.704c.005.523.155 1.035.432 1.48a5.62 5.62 0 001.143 1.294.226.226 0 00.314-.017l.018-.018a.5.5 0 000-.678 7.668 7.668 0 01-.708-.824 2.08 2.08 0 01-.309-1 .492.492 0 00-.122-.298.453.453 0 00-.276-.149l-.228-.031a.224.224 0 00-.184.058.244.244 0 00-.08.183zm1.54 5.056c.282.258.647.603.82.794.251.274.477.57.676.884a.46.46 0 00.252.2.438.438 0 00.316-.02l.16-.071a.235.235 0 00.128-.146.253.253 0 00-.017-.198A6.07 6.07 0 006.84 11.78a26.08 26.08 0 00-.885-.825.228.228 0 00-.318.013l-.088.091a.5.5 0 00.021.7zm.256 7.489a3.36 3.36 0 001.998-.637l.004-.004c.485-.376-.343-.975-.816-.59a3.514 3.514 0 01-1.605.793c-.375.079.036.39.419.438zm2.26-2.536c.192-.338.31-.713.344-1.1l.003.004a4.928 4.928 0 00-.078-1.185.16.16 0 00-.078-.108.147.147 0 00-.13-.006l-.286.13a.469.469 0 00-.212.197.5.5 0 00-.062.29 5.75 5.75 0 01-.026 1.223.775.775 0 00.142.589.226.226 0 00.306.05.24.24 0 00.077-.084zM7.82 11.51c.36.407.66.865.887 1.358l.004.004a.239.239 0 00.128.121.223.223 0 00.172-.003l.096-.042a.488.488 0 00.272-.5.496.496 0 00-.065-.192 8.318 8.318 0 00-.932-1.245 12.2 12.2 0 00-1.19-1.173.36.36 0 00-.5.027l-.095.1a.25.25 0 00.016.362c.425.37.828.765 1.207 1.183zm1.129 5.741c.574-.175.938-1.06 1.045-1.553l.004.004a4.267 4.267 0 00-.014-1.709.38.38 0 00-.194-.267.36.36 0 00-.322-.011l-.202.091a.237.237 0 00-.116.114.253.253 0 00-.02.165c.112.493.13 1.001.052 1.5-.082.46-.249.9-.491 1.3a.254.254 0 00.01.275.226.226 0 00.11.085.223.223 0 00.138.006zm13.733-7.98l-1.339-.486c-.506-.172-.78-.428-.78-.943 0-.587.451-.945 1.369-.945.74.02 1.474.152 2.175.393l.561-1.847a8.285 8.285 0 00-2.818-.436c-2.104 0-3.283 1.33-3.283 2.976a2.499 2.499 0 00.46 1.61c.333.469.818.81 1.373.964l1.314.443c.698.243.998.5.998 1.03 0 .757-.588 1.072-1.3 1.072a6.927 6.927 0 01-2.497-.536l-.465 1.932a9.41 9.41 0 003.086.507 3.042 3.042 0 002.322-.83 3.02 3.02 0 00.934-2.275c-.003-1.286-.66-2.102-2.11-2.629zm16.132-4.135H36.79v9.725h5.95v-1.844h-3.925v-7.88zm18.405 0l2.598 4.005 2.6-4.004h1.943v9.724h-2.025V8.655l-2.34 3.618h-.341l-2.353-3.618v6.206h-2.024V5.137h1.942zm25.231 6.179l-3.926-6.178h-1.75v9.724h2.01V8.697l3.926 6.164h1.779V5.137H82.45v6.178zm4.765-6.177h3.599c2.339 0 4.09 1.744 4.09 4.876 0 3.132-1.751 4.848-4.09 4.848h-3.599V5.138zm2.024 7.879h1.314c1.423 0 2.285-1.073 2.284-3.003 0-1.96-.861-3.032-2.284-3.032H89.24v6.035zm7.912 1.844h6.401v-1.844h-4.459v-2.231h3.612V8.984h-3.612V6.996h4.459v-1.86h-6.401v9.725zm15.866-1.686a1.82 1.82 0 00.779-.215l.203 1.685a3.197 3.197 0 01-1.477.372c-1.262 0-2.243-1.297-3.061-2.38-.406-.536-.771-1.02-1.111-1.267h-.274v3.5h-2.025V5.144h3.995c1.737 0 2.845 1.3 2.845 3.198a2.864 2.864 0 01-2.104 2.933c.092.11.184.223.276.335.634.778 1.274 1.564 1.954 1.564zm-4.938-3.433h1.463a1.26 1.26 0 001.239-.846 1.24 1.24 0 00.061-.527 1.24 1.24 0 00-.768-1.3 1.244 1.244 0 00-.532-.087h-1.463v2.76zM28.95 5.137l.256.939-2.756 8.786h2.023l.478-1.67h3.137l.458 1.67h2.022l-2.93-9.725H28.95zm.405 6.643l1.198-4.185 1.148 4.185h-2.346zm18.082-6.642h2.692l2.93 9.724h-2.022l-.458-1.67h-3.137l-.478 1.67H44.94l2.752-8.786-.256-.938zm1.605 2.458l-1.2 4.184h2.347l-1.148-4.184zm20.013-2.458l.256.938-2.759 8.786h2.022l.479-1.67h3.141l.458 1.67h2.022l-2.93-9.724h-2.69zm.405 6.642l1.204-4.184 1.147 4.184H69.46z" fill="#353535"/></svg>