<svg width="95" height="15" viewBox="0 0 95 15" fill="none" xmlns="http://www.w3.org/2000/svg"><g clip-path="url(#clip0)"><path d="M16.73 15H95V0H16.73v15z" fill="#292526"/><path d="M0 15h16.145V0H0v15zM23.399 3.587c.35-.109.585-.109.819-.109.35 0 .702.109 1.053.217.35.218.585.435.702.761.117.326.234.761.234 1.087 0 .544-.234 1.087-.585 1.413-.351.326-.82.544-1.287.544h-.468c-.117 0-.351 0-.585-.109l.117-3.804zm2.925-.652c-.585-.218-1.287-.327-2.223-.327h-3.978v.544h.585c.351 0 .585.109.819.217.117.11.117.326.117 1.087v6.305c0 .652-.117.87-.117.978-.117.217-.468.326-.819.326h-.585v.543h4.797v-.543h-.585c-.351 0-.585-.109-.82-.217-.116-.11-.233-.327-.233-1.087V8.152c.234 0 .468.109.819.109h.819c1.053 0 1.872-.218 2.457-.761.585-.544.936-1.196.936-2.065a2.55 2.55 0 00-.585-1.63c-.351-.436-.82-.762-1.404-.87zm12.284-.327h-.117v.544h.585c.351 0 .585.109.82.217.116.11.233.326.233 1.087V8.37c0 .979-.117 1.74-.234 2.174a2.22 2.22 0 01-1.053.979c-.468.217-1.053.434-1.755.434-.468 0-.936-.108-1.287-.217-.35-.218-.585-.326-.819-.652-.234-.218-.35-.652-.35-1.087-.118-.435-.118-.87-.118-1.305v-4.24c0-.652.117-.87.117-.978.117-.217.351-.326.82-.326h.584v-.544h-4.796v.544h.585c.35 0 .584.109.702.217.117.11.233.435.233 1.087v3.805c0 1.195.117 1.956.234 2.391a2.856 2.856 0 001.287 1.522c.585.434 1.521.543 2.691.543 1.053 0 1.99-.217 2.574-.543.585-.435 1.053-.87 1.287-1.413.234-.544.351-1.305.351-2.283V4.565c0-.652.117-.87.117-.978.234-.326.468-.435.82-.435h.584v-.544h-.117m6.434.979c.469-.109.82-.109 1.054-.109.585 0 1.17.217 1.52.544.352.326.586.76.586 1.413 0 .543-.234 1.087-.702 1.413-.468.326-1.17.543-2.106.543h-.234l-.117-3.804zm5.968 8.043c-.351-.217-.702-.652-1.17-1.195 0 0-1.521-2.066-1.99-2.61.82-.216 1.405-.543 1.756-.869.468-.434.702-.978.702-1.63 0-.544-.234-1.087-.585-1.522-.351-.435-.82-.76-1.404-.87a13.33 13.33 0 00-2.457-.217h-3.978v.544h.585c.35 0 .585.108.819.217.117.109.234.326.234 1.087v6.304c0 .652-.117.87-.117.979-.117.217-.468.326-.82.326h-.584v.543h4.797v-.543h-.585c-.351 0-.585-.109-.702-.218-.117-.108-.234-.326-.234-1.087V8.152h.935l3.51 4.457v.108h3.041v-.543h-.116c-.936-.218-1.404-.326-1.638-.544zm4.562-9.022h-.117v.544h.468c.234 0 .468 0 .585.109.117.108.234.108.234.217s.117.326.117.87v6.304c0 .76-.117.978-.117.978-.117.218-.468.326-.819.326h-.468v.544h4.797v-.544h-.468c-.234 0-.468 0-.585-.108-.117-.11-.234-.11-.234-.218 0-.109-.117-.326-.117-.87V4.457c0-.76.117-.978.117-.978.117-.217.468-.326.82-.326h.467v-.544h-.117m15.677.434v-.435h-3.977v.544h.468c.35 0 .585.109.819.217.117.11.234.326.234.979v5.217l-6.201-6.957H68.09v.544h.117c.234 0 .468 0 .585.109l.702.326c.117.108.35.326.585.652v6.63c0 .652-.117.87-.117.979-.117.217-.468.326-.819.326h-.468v.543h3.978v-.543h-.468c-.351 0-.585-.109-.82-.218-.116-.108-.116-.326-.116-.978V5.435l6.669 7.5h.468V4.674c0-.652.117-.87.117-.979.117-.217.468-.326.819-.326h.468m6.903 1.74l1.521 3.37h-3.159l1.638-3.37zm5.967 6.956c-.351 0-.702-.109-.936-.326-.234-.218-.468-.544-.702-1.196L87.512 2.5v-.11h-.468v.11L83.3 10.435c-.35.652-.585 1.195-.819 1.413-.117 0-.234.108-.819.217h-.117v.543h3.627v-.543h-.117c-.585 0-.819-.109-.936-.217-.117-.11-.117-.218-.117-.327 0-.108 0-.326.234-.76 0 0 .468-1.087.702-1.413H88.8c.117.326.585 1.304.585 1.304.234.435.351.76.351.978 0 .109 0 .218-.117.326-.117.109-.234.109-.702.109H88.8v.543h4.446v-.543" fill="#fff"/><path fill-rule="evenodd" clip-rule="evenodd" d="M16.145 15H0V0h16.145v15zm-.702-.543H.468V.543h14.975v13.914z" fill="#ED2232"/><path d="M1.17 5.326h4.563V1.087H1.17v4.24zm9.126 0h4.562V1.087h-4.563v4.24z" fill="#ED2232"/><path d="M5.733 9.565h4.563V5.326H5.733v4.24zM1.17 13.913h4.563v-4.24H1.17v4.24zm9.126 0h4.562v-4.24h-4.563v4.24z" fill="#ED2232"/></g><defs><clipPath id="clip0"><path fill="#fff" d="M0 0h95v15H0z"/></clipPath></defs></svg>