<svg width="82" height="32" viewBox="0 0 82 32" fill="none" xmlns="http://www.w3.org/2000/svg"><path d="M2.288 30.396h2.564V32h2.325v-3.271h-.691v-4.462H1.169C1.093 26.46.88 27.788.54 28.729H0V32h2.288v-1.604zm13.838.175c1.973 0 3.293-.702 3.293-2.018 0-.752-.377-1.178-1.018-1.366.452-.301.78-.79.78-1.379 0-1.103-.843-1.68-2.665-1.68-1.094 0-1.999.239-1.999.239v1.63s.716-.251 1.496-.251c.44 0 .78.087.78.388 0 .276-.24.451-.579.451h-1.018v1.53h.691c.604 0 1.081.087 1.081.413 0 .314-.515.451-1.08.451-.855 0-1.497-.25-1.497-.25v1.554s.616.288 1.735.288zm17.27-.175h2.426v-2.357h1.156v2.357h2.388v-6.13h-2.388v2.044h-1.156v-2.043h-2.426v6.129zm-10.935-1.38c-.29 0-.478-.187-.478-.563 0-.326.214-.577.591-.577h.503v.803s-.201.338-.616.338zm20.185 0c-.288 0-.477-.187-.477-.563 0-.326.214-.577.59-.577h.504v.803s-.202.338-.617.338zm-13.788 1.367l1.446-2.82v2.82h2.275v-6.116h-2.3l-1.433 2.895v-2.895h-2.288v6.116h2.3zm-18.878 0l1.445-2.82v2.82H13.7v-6.116h-2.3l-1.433 2.895v-2.895H7.68v6.116h2.3zm-6.8-4.362h.905v2.708H2.677c.24-.727.478-1.605.503-2.708zm41.49 4.538c.78 0 1.609-.15 1.609-.15v-1.455h-.063c-.515 0-.691-.025-.691-.4V26.71c0-1.93-.918-2.582-2.866-2.582-1.257 0-2.212.275-2.212.275v1.643s.792-.276 1.621-.276c.842 0 1.195.363 1.195.752v.15h-.805c-1.634 0-2.514.802-2.514 2.068 0 1.19.792 1.818 1.86 1.818.867 0 1.37-.376 1.634-.652.126.426.54.652 1.232.652zm-20.186 0c.78 0 1.61-.15 1.61-.15v-1.455h-.064c-.515 0-.69-.025-.69-.4V26.71c0-1.93-.918-2.582-2.867-2.582a8.814 8.814 0 00-2.212.275v1.643s.792-.276 1.622-.276c.842 0 1.194.363 1.194.752v.15h-.805c-1.634 0-2.513.802-2.513 2.068 0 1.19.791 1.818 1.86 1.818.867 0 1.37-.376 1.634-.652.125.426.54.652 1.231.652zm5.129-8.323c-.767 0-.742-.827-.742-.827h-1.81c0 1.754 1.433 2.306 2.552 2.306 1.13 0 2.563-.552 2.563-2.306H30.38s.038.827-.766.827zm10.218-4.425v.853c0 .99.767 1.165 1.458 1.165.78 0 1.734-.15 1.734-.15v-1.454h-.062c-.516 0-.692-.025-.692-.401v-4.287h-3.117c-1.596 0-2.677.84-2.677 2.181 0 .702.34 1.404 1.069 1.692-.24.476-.604.765-1.106.765-.327 0-.73-.088-.73-.426v-1.793c0-1.93-.917-2.582-2.865-2.582-1.257 0-2.212.276-2.212.276v1.642s.791-.276 1.621-.276c.842 0 1.194.364 1.194.752v.15h-.804c-1.634 0-2.514.803-2.514 2.069 0 1.19.792 1.83 1.86 1.83.842 0 1.37-.351 1.848-.89.302.564 1.03.915 2.25.915 1.897 0 2.928-.777 3.443-2.03h.302zm18.98-.426h.112l1.131 2.281h2.514l-1.609-3.27 1.735-2.846h-2.476l-1.27 2.168h-.138V13.55h-2.413v6.116h2.413v-2.28zm-55.995.965v-1.103h.402c.477 0 .754.163.754.54 0 .338-.277.563-.754.563h-.402zm75.539-.163c-.289 0-.453-.163-.453-.501 0-.3.176-.526.566-.526h.44v.714s-.138.313-.553.313zm-44.91-.263s-.2.338-.615.338c-.289 0-.477-.187-.477-.563 0-.327.213-.577.59-.577h.503v.802zm-24.131.226v-1.416h.188c.365 0 .566.3.566.689 0 .439-.189.727-.566.727h-.188zm59.388 1.554s.327.125.83.125c1.797 0 2.174-1.529 2.262-4.524h.78v4.361h2.425V13.55h-5.254c-.063 3.747-.163 4.537-.93 4.55a.985.985 0 01-.113-.013v1.617zm-29.273-4.588h.402v1.204h-.402c-.465 0-.679-.238-.679-.602 0-.426.264-.602.679-.602zM18.464 19.83c.98 0 1.584-.276 1.584-.276v-1.529s-.428.163-.98.163c-.768 0-1.258-.551-1.258-1.617 0-1.027.49-1.529 1.257-1.529.59 0 .955.213.955.213V13.65s-.477-.25-1.47-.25c-1.936 0-3.18 1.303-3.18 3.246 0 2.08 1.357 3.183 3.092 3.183zM65.56 18.2c-.453 0-.767-.438-.767-1.579 0-1.102.314-1.629.767-1.629.477 0 .741.527.741 1.63 0 1.14-.314 1.579-.741 1.579zM2.816 15.907v-1.028h.352c.452 0 .666.213.666.49 0 .325-.214.538-.666.538h-.352zm17.847 3.76H29.6V13.55h-2.376v4.412h-.917V13.55h-2.388v4.412h-.93V13.55h-2.326v6.116zm-13.712 0h2.916c1.583 0 2.35-1.065 2.35-2.344 0-1.19-.767-2.105-2.35-2.105h-.553V13.55H6.95v6.116zm5.492 0h2.376V13.55h-2.376v6.116zM.39 19.73h3.054c1.936 0 2.929-.714 2.929-1.918 0-.701-.415-1.203-1.132-1.428.54-.289.805-.803.805-1.33 0-.927-.754-1.566-2.313-1.566H.39v6.242zm79.989.1c.779 0 1.621-.163 1.621-.163v-1.479h-.063c-.515 0-.691-.037-.691-.376v-1.905c0-1.98-.905-2.507-2.891-2.507-1.257 0-2.2.313-2.2.313v1.718s.792-.301 1.622-.301c.842 0 1.13.238 1.13.59v.137h-.74c-1.647 0-2.54.84-2.54 2.143 0 1.216.818 1.83 1.836 1.83.917 0 1.432-.4 1.684-.651.125.438.515.651 1.231.651zm-24.925-.163V13.55h-2.35v4.412h-.93V13.55h-2.388v4.412h-.93v-3.36c0-.952-.365-1.215-1.308-1.215-.892 0-1.81.2-1.81.2v1.43h.19c.426.012.577.05.577.4v4.25h8.95zm10.106.15c1.873 0 3.067-1.202 3.067-3.183 0-1.955-1.194-3.284-3.067-3.284-1.898 0-3.092 1.316-3.092 3.271 0 1.98 1.194 3.197 3.092 3.197zm-58.132-8.36h2.388v-2.72c.227.189.616.427 1.22.427 1.609 0 2.601-1.492 2.601-3.334 0-1.567-.64-3.121-2.237-3.121-.918 0-1.433.413-1.835.902-.15-.84-.754-.902-1.194-.902-.817 0-1.722.175-1.722.175v1.504h.201c.402 0 .578.038.578.364v6.706zm52.476-4.311v1.842h2.438V2.87h-3.117c-1.596 0-2.677.84-2.677 2.181 0 .702.339 1.404 1.068 1.692-.239.477-.603.765-1.106.765-.327 0-.729-.088-.729-.426V5.29c0-1.93-.917-2.582-2.866-2.582-1.257 0-2.212.275-2.212.275v1.642s.792-.275 1.621-.275c.843 0 1.195.363 1.195.752v.15h-.805c-1.634 0-2.513.802-2.513 2.068 0 1.19.791 1.83 1.86 1.83.842 0 1.37-.35 1.86-.89.302.564 1.056.915 2.3.915 1.86 0 2.866-.777 3.38-2.03h.303zM32.15 9h2.388V6.756h1.157V9h2.426V2.883h-2.426v2.156h-1.157V2.883H32.15V9zm14.28-2.27h.15L47.65 9h2.55l-1.597-3.247 1.722-2.87h-2.501L46.58 5.026h-.151V2.883h-2.388V9h2.388V6.73zm-17.735.514s-.201.338-.616.338c-.289 0-.477-.15-.477-.526 0-.326.213-.552.59-.552h.503v.74zm24.824.012s-.201.339-.616.339c-.29 0-.478-.188-.478-.564 0-.326.214-.577.59-.577h.504v.802zM16.59 9l1.445-2.82V9h2.275V2.883h-2.3l-1.43 2.895V2.883h-2.29V9h2.3zM3.381 7.395c-.578 0-.78-.526-.78-1.328 0-.84.202-1.329.78-1.329.528 0 .729.489.729 1.329 0 .802-.201 1.328-.729 1.328zm6.926-.1a.844.844 0 01-.49-.163V4.94s.226-.2.59-.2c.553 0 .754.6.754 1.24 0 .802-.327 1.316-.854 1.316zM59.502 4.45h.402v1.203h-.402c-.466 0-.68-.238-.68-.602 0-.426.265-.601.68-.601zM41.83 9.163c.992 0 1.57-.301 1.57-.301V7.32s-.377.176-.967.176c-.767 0-1.245-.527-1.245-1.63 0-.99.466-1.479 1.245-1.479.628 0 .968.188.968.188v-1.63s-.49-.237-1.496-.237c-1.898 0-3.205 1.316-3.205 3.233 0 2.106 1.408 3.222 3.13 3.222zm-21.141-6.28v1.755h1.47V9h2.388V4.625h2.954c.842 0 1.194.075 1.194.464v.213h-.805c-1.633 0-2.513.74-2.513 2.005 0 1.191.792 1.818 1.86 1.818.867 0 1.37-.376 1.634-.652.126.426.54.652 1.232.652.779 0 1.608-.15 1.608-.15V7.52h-.062c-.516 0-.692-.025-.692-.401V5.277c0-1.93-.917-2.394-2.865-2.394h-7.403zM3.306 9.137c2.099 0 3.23-1.39 3.23-3.196 0-2.143-1.144-2.983-2.552-2.983-.716 0-1.181.288-1.432.502.062-.853.678-1.33 1.634-1.33h.666c.49 0 1.005-.074 1.32-.237V0c-.352.113-.83.176-1.333.176h-.628C1.659.176.126 1.529.126 5.352c0 2.37 1.156 3.785 3.18 3.785z" fill="#000"/></svg>