<svg width="84" height="48" viewBox="0 0 84 48" fill="none" xmlns="http://www.w3.org/2000/svg"><path d="M83.973 15.734c-.249-2.248-1.923-4.813-3.777-5.523-1.855-.71-3.878-1.108-6.535 2.397 0 0-1.25 1.912-1.512 2.092-.15.106-.299.162-.704-1.04-.404-1.201-2.414-7.346-2.495-7.688-.081-.349-.311-1.083-.71-1.252-.64-.273-1.226-.093-2.346.312-1.12.404-9.852 3.274-10.181 3.368-.33.093-.953.41-1.077.205-.125-.205-.075-.41.218-1.064.442-.996 1.12-1.787 1.188-4.022.069-2.235-2.296-2.901-3.696-2.957-1.4-.056-2.994.218-4.699.959-1.699.74-3.777 2.11-4.194 4.557-.417 2.446 3.702 3.218 5.14 3.112 1.052-.08.025 1.426-.299 1.563-.323.137-2.732.984-4.5 1.444-1.767.461-5.936 1.364-6.254 1.737a.695.695 0 00-.155.337.968.968 0 00-.324-.33c-.367-.2-1.182-.088-2.271.298-1.09.386-9.516 3.163-9.84 3.256-.323.094-.92.399-1.039.2-.118-.2.012-.368.212-1.028.199-.66.977-1.861 1.039-4.015.062-2.154-2.116-2.665-3.46-2.72-1.345-.057-2.944.124-4.537.927s-3.653 2.036-4.052 4.408c-.398 2.372 2.838 3.691 3.336 3.81.629.143 1.183.473.734.647-.31.125-2.035 1.009-3.74 1.457-1.705.442-5.738 1.313-6.043 1.675-.473.56.112 1.65.318 2.284.479 1.47 1.45 3.736 1.804 5.05.032.105-.012 1.307-.665.865-.3-.206-2.154-.847-3.542-1.395-.684-.268-2.39-1.463-3.447.224-1.059 1.687-.361 4.576 1.002 6.848 1.157 1.905 3.566 3.511 5.464 2.64 1.718-.785 2.371-2.185 2.508-2.54.236-.623.529-.915.884-.174.024.05 4.138 10.035 4.138 10.035s.41 1.021.784 1.227c.374.205 3.498.018 6.299-.58 2.8-.597 3.771-1.904 3.771-1.904s.716-.666.367-1.961c0 0-.255-.586-1.008-1.022-.753-.435-1.419-1.164-1.562-1.58-.143-.418-.61-1.706 1.381-2.603 1.992-.897 3.542-1.04 4.91-.71 1.37.33 1.109 1.837.984 2.36-.124.523-1.02 2.446.112 3.044 1.133.598 3.162.125 4.668-.299 1.506-.423 6.858-2.546 7.934-3.131 1.077-.585 1.282-1.027 1.338-1.264.056-.237-.1-.897-.298-1.363l-.417-1.009c.64 1.5 1.164 2.714 1.164 2.714s.423 1.052.815 1.27c.392.218 3.622.025 6.516-.597 2.894-.623 3.908-1.974 3.908-1.974s.747-.684.38-2.03c0 0-.262-.61-1.046-1.051-.784-.442-1.468-1.202-1.618-1.638-.15-.435-.629-1.761 1.431-2.695 2.06-.934 3.666-1.077 5.085-.735 1.419.343 1.145 1.899 1.02 2.44-.124.542-1.051 2.534.113 3.15 1.163.617 3.273.125 4.835-.31 1.562-.437 7.101-2.634 8.215-3.244 1.114-.61 1.326-1.065 1.388-1.308.062-.242-.106-.927-.311-1.407-.206-.479-3.355-8.167-3.355-8.167s-.423-.965.33-.673c.76.287 3.479 1.339 6.093.884 2.614-.454 4.132-2.552 3.883-4.793z" fill="#968281"/><path d="M37.397 15.752c.485 1.5 1.867 5.69 1.867 5.69s.075.193.15.206c.074.012.205-.137.205-.137s.666-1.158 1.369-1.905c1.755-1.862 4.724-2.478 6.908-1.32 1.699.903 2.633 1.805 3.31 3.48.667 1.65 1.258 5.086-1.207 7.054-1.556 1.238-3.61 1.73-5.215 1.357-.03 0-2.676-.672-2.639-.585l3.542 8.255s.416 1.04.802 1.257c.386.218 3.573.025 6.43-.585 2.856-.61 3.851-1.942 3.851-1.942s.735-.679.374-1.999c0 0-.261-.598-1.027-1.04-.765-.441-1.444-1.188-1.593-1.618-.15-.43-.623-1.743 1.413-2.658 2.035-.916 3.615-1.065 5.016-.723 1.4.343 1.126 1.874 1.002 2.41-.125.535-1.04 2.496.111 3.106 1.152.61 3.23.125 4.768-.305 1.537-.43 7.007-2.596 8.102-3.2 1.096-.604 1.307-1.052 1.37-1.288.062-.237-.1-.916-.305-1.389-.206-.473-3.311-8.056-3.311-8.056s-.417-.952.33-.666c.746.28 3.435 1.32 6.012.872 2.576-.448 4.064-2.534 3.815-4.744-.25-2.21-1.899-4.744-3.728-5.447-1.83-.704-3.828-1.09-6.448 2.365 0 0-1.232 1.887-1.493 2.067-.15.106-.299.162-.691-1.027-.392-1.189-2.384-7.246-2.465-7.589-.08-.342-.31-1.064-.703-1.233-.635-.267-1.207-.093-2.315.305-1.108.399-9.715 3.232-10.045 3.325-.33.087-.94.405-1.064.205-.124-.205-.068-.404.212-1.052.435-.983 1.101-1.762 1.17-3.965.068-2.204-2.265-2.858-3.647-2.914-1.382-.056-2.95.218-4.63.953-1.68.734-3.728 2.079-4.133 4.494-.404 2.416 2.82 4.277 4.232 4.171 1.04-.074.86.3.542.436-.318.137-2.695.972-4.438 1.426-1.742.455-5.856 1.345-6.167 1.712-.473.554.15 1.594.36 2.241z" fill="#BA272D"/><path d="M47.317 39.353c-.486 0-.84-.037-.977-.112-.436-.242-.828-1.182-.903-1.37a4558.361 4558.361 0 01-3.534-8.242l-.063-.13.087-.119c.125-.15.131-.162 2.496.423l.342.081.025.006c1.593.368 3.566-.149 5.022-1.313 2.316-1.849 1.805-5.136 1.133-6.786-.635-1.563-1.475-2.44-3.205-3.362-2.06-1.095-4.91-.548-6.628 1.27-.672.716-1.332 1.85-1.338 1.862l-.012.018-.013.013c-.075.093-.23.249-.41.218-.181-.031-.28-.206-.337-.349v-.006c-.012-.044-1.388-4.208-1.867-5.69-.043-.131-.105-.28-.168-.442-.267-.66-.604-1.476-.13-2.036.242-.286 1.555-.641 4.611-1.376.635-.155 1.239-.299 1.674-.41 1.706-.443 4.033-1.258 4.394-1.408a2.41 2.41 0 00-.423 0c-.884.069-2.49-.579-3.548-1.743-.765-.84-1.082-1.774-.927-2.702.336-1.986 1.811-3.598 4.27-4.669 1.617-.703 3.21-1.033 4.73-.971 1.468.062 3.938.79 3.864 3.15-.056 1.805-.51 2.69-.909 3.474-.1.2-.199.386-.28.579-.23.523-.28.69-.249.797.113-.007.361-.1.504-.15.119-.043.224-.087.324-.112.33-.093 8.956-2.938 10.026-3.318 1.139-.405 1.761-.604 2.483-.299.51.218.753 1.046.834 1.395.075.323 2.054 6.362 2.458 7.564.193.579.311.803.367.884.193-.187.847-1.127 1.407-1.98l.012-.012c1.226-1.613 2.415-2.54 3.653-2.827 1.12-.261 2.135.031 3.062.386.915.349 1.83 1.146 2.564 2.242.71 1.052 1.183 2.284 1.307 3.392.274 2.44-1.412 4.545-4.008 5-1.73.305-3.777.012-6.099-.872l-.03-.013a.519.519 0 00-.131-.037c.006.137.043.268.1.392.03.081 3.111 7.59 3.31 8.056.187.43.398 1.202.317 1.538-.118.486-.597.952-1.48 1.438-1.152.629-6.635 2.795-8.147 3.219-1.668.467-3.74.921-4.935.286-1.14-.604-.598-2.235-.336-3.02.05-.143.087-.267.105-.342.193-.834.206-1.88-.833-2.129-1.463-.355-3.006-.124-4.867.71-1.824.822-1.45 1.898-1.295 2.353l.006.012c.131.374.772 1.078 1.488 1.494.828.474 1.114 1.121 1.127 1.146l.012.031c.367 1.345-.305 2.098-.423 2.216-.13.162-1.201 1.42-3.977 2.017-1.935.418-4.3.685-5.632.685zm-4.83-9.537c.66 1.537 3.069 7.147 3.38 7.875.162.405.485 1.021.703 1.145.318.15 3.261.032 6.267-.61 2.726-.578 3.71-1.842 3.716-1.855l.012-.018.019-.013c.024-.025.616-.604.31-1.75-.043-.08-.298-.56-.926-.92-.754-.436-1.519-1.215-1.7-1.744l-.006-.012c-.08-.237-.249-.723-.112-1.277.168-.678.722-1.232 1.65-1.65 1.96-.883 3.597-1.114 5.165-.734 1.083.262 1.512 1.24 1.176 2.683a4.576 4.576 0 01-.118.38c-.237.716-.678 2.048.112 2.472 1.052.56 3.012.118 4.599-.324 1.456-.405 6.945-2.577 8.053-3.175.74-.405 1.17-.797 1.25-1.14.038-.143-.074-.74-.291-1.244-.2-.474-3.187-7.751-3.311-8.063-.063-.143-.262-.647-.013-.909.137-.149.355-.168.635-.062l.031.013c2.24.853 4.213 1.133 5.856.846 2.346-.41 3.877-2.303 3.629-4.495-.25-2.203-1.886-4.606-3.579-5.26-1.817-.697-3.653-1.046-6.174 2.285-.298.46-1.275 1.93-1.543 2.116a.398.398 0 01-.361.075c-.199-.062-.373-.286-.684-1.214-.349-1.046-2.384-7.246-2.471-7.608-.106-.442-.324-.97-.566-1.07-.536-.224-1.015-.094-2.148.31-1.07.38-9.727 3.238-10.057 3.332a2.682 2.682 0 00-.286.1c-.398.149-.846.317-1.04 0-.198-.325-.074-.642.2-1.265.093-.205.187-.398.293-.604.398-.771.809-1.575.858-3.274C55.09.693 51.947.493 51.593.48c-1.45-.062-2.975.255-4.531.927-1.612.698-3.61 2.018-4.002 4.327-.168.99.355 1.806.816 2.31.933 1.027 2.396 1.65 3.173 1.594.399-.031.94-.025 1.027.33.05.211-.1.43-.373.548-.324.136-2.726.983-4.469 1.431-.441.119-1.045.262-1.686.411-1.531.367-4.095.984-4.369 1.227-.286.342-.012 1.02.212 1.562.068.168.137.33.18.473.454 1.389 1.68 5.124 1.849 5.628.161-.273.74-1.214 1.356-1.867 1.855-1.968 4.942-2.553 7.182-1.364 1.823.965 2.75 1.943 3.417 3.599.715 1.768 1.257 5.298-1.276 7.315-1.562 1.245-3.69 1.799-5.414 1.4-.044-.012-.138-.03-.38-.093-.355-.08-1.295-.311-1.817-.423z" fill="#555454"/><path d="M10.424 36.322c.025.05 4.077 9.873 4.077 9.873s.404 1.003.771 1.208c.368.205 3.442.019 6.199-.566 2.757-.586 3.715-1.874 3.715-1.874s.71-.654.361-1.93c0 0-.249-.58-.99-1.003-.74-.423-1.393-1.145-1.536-1.556-.144-.41-.598-1.675 1.362-2.559 1.96-.884 3.486-1.027 4.836-.697 1.35.33 1.09 1.805.97 2.322-.117.517-1.001 2.41.113 2.995 1.114.585 3.112.118 4.593-.293 1.481-.41 6.752-2.503 7.804-3.082 1.052-.579 1.263-1.014 1.32-1.238.055-.225-.1-.884-.293-1.339-.193-.454-3.193-7.77-3.193-7.77s-.404-.915.318-.64c.722.273 3.31 1.276 5.794.84 2.483-.436 3.92-2.44 3.678-4.576-.243-2.135-1.83-4.576-3.591-5.248-1.761-.673-3.877-.81-6.404 2.527 0 0-1.164 1.644-1.338 1.656-.174.013-.162.1-.548-1.046-.386-1.145-2.34-6.841-2.415-7.171-.074-.33-.317-.99-.672-1.19-.355-.199-1.164-.087-2.234.293s-9.366 3.113-9.677 3.2c-.311.087-.903.392-1.021.193-.118-.2.012-.361.205-1.015.193-.653.959-1.83 1.027-3.953.069-2.123-2.078-2.627-3.41-2.677-1.332-.05-2.894.118-4.463.915-1.568.797-3.59 2.005-3.982 4.333-.393 2.329 2.794 3.636 3.28 3.748.622.143 1.163.467.727.641-.31.125-2.004.997-3.678 1.432-1.674.436-5.644 1.295-5.943 1.65-.467.554.112 1.625.317 2.247.473 1.445 1.432 3.68 1.774 4.968.031.106.075.66-.566.224-.293-.199-1.948-1.058-3.311-1.6-.672-.267-2.614-.578-3.66 1.078-1.045 1.655-.367 4.507.971 6.742 1.133 1.886 3.504 3.468 5.371 2.614 1.687-.771 2.334-2.153 2.465-2.496.243-.616.529-.903.877-.18z" fill="#fff"/><path d="M16.106 47.72c-.473 0-.809-.037-.946-.112-.423-.236-.803-1.145-.87-1.326-.038-.093-3.971-9.63-4.071-9.867-.1-.206-.168-.268-.193-.286-.031.025-.124.118-.249.448-.112.292-.76 1.787-2.589 2.627-.927.423-2.047.324-3.168-.286a6.741 6.741 0 01-2.495-2.422C.218 34.317-.598 31.31.54 29.517c1.127-1.787 3.224-1.444 3.94-1.164 1.394.548 3.056 1.42 3.354 1.618.069.05.143.088.218.119 0-.031 0-.062-.006-.087-.193-.729-.598-1.78-.984-2.802-.286-.753-.585-1.531-.784-2.154a8.416 8.416 0 00-.143-.392c-.249-.641-.591-1.525-.124-2.073.236-.28 1.5-.617 4.45-1.326.616-.15 1.194-.287 1.617-.399 1.332-.348 2.67-.97 3.318-1.27.112-.05.199-.093.267-.124a2.203 2.203 0 00-.622-.23c-.523-.119-3.884-1.489-3.454-4.01.392-2.328 2.296-3.586 4.107-4.5 1.363-.692 2.907-1.01 4.58-.94.872.036 3.71.348 3.629 2.919-.05 1.662-.517 2.752-.821 3.474-.087.211-.168.392-.212.535a8.403 8.403 0 01-.15.46c-.068.194-.093.275-.093.318.162-.03.318-.08.467-.143.112-.043.218-.08.311-.106.317-.08 8.632-2.82 9.665-3.193.809-.287 1.886-.573 2.42-.28.536.292.767 1.232.791 1.332.05.211 1.04 3.131 1.693 5.055.317.927.591 1.73.71 2.091.105.312.23.685.298.854.212-.212.741-.916 1.177-1.526l.006-.006c2.682-3.542 4.972-3.25 6.672-2.602 1.804.69 3.478 3.131 3.74 5.44.267 2.36-1.363 4.39-3.871 4.826-1.668.292-3.647.012-5.881-.84l-.031-.013a.666.666 0 00-.119-.031c.007.13.038.255.094.373.03.081 3 7.315 3.192 7.77.174.398.386 1.145.305 1.481-.112.474-.579.928-1.431 1.389-1.108.604-6.392 2.695-7.854 3.1-1.612.448-3.61.89-4.767.274-1.102-.585-.58-2.16-.33-2.92.043-.137.087-.255.1-.33.186-.797.199-1.799-.797-2.042-1.407-.342-2.894-.124-4.686.685-1.75.784-1.394 1.818-1.245 2.26l.006.012c.125.361.74 1.034 1.432 1.432.796.455 1.076 1.083 1.089 1.108l.012.032c.355 1.3-.292 2.023-.41 2.141-.125.162-1.165 1.376-3.84 1.949-1.874.398-4.151.66-5.44.66zM10.02 35.662c.342 0 .548.418.616.56.025.05 2.863 6.93 4.083 9.887.155.386.466.984.672 1.096.311.143 3.15.025 6.037-.592 2.62-.56 3.566-1.774 3.578-1.786l.012-.02.02-.011c.024-.026.59-.58.298-1.681-.037-.081-.286-.536-.89-.884-.728-.418-1.463-1.17-1.637-1.681l-.006-.013c-.075-.224-.236-.697-.106-1.239.162-.653.697-1.189 1.594-1.593 1.891-.853 3.472-1.078 4.985-.71 1.051.255 1.468 1.201 1.138 2.596-.018.093-.062.218-.112.367-.23.685-.653 1.967.106 2.372 1.015.535 2.894.112 4.425-.311 1.4-.392 6.697-2.484 7.76-3.063.71-.386 1.127-.766 1.202-1.09.03-.137-.075-.71-.28-1.195-.193-.455-3.068-7.47-3.193-7.77-.062-.136-.249-.634-.012-.883.137-.144.342-.162.622-.063l.031.013c2.16.822 4.058 1.095 5.639.815 2.259-.398 3.728-2.216 3.491-4.32-.236-2.117-1.817-4.439-3.448-5.062-1.63-.622-3.653-.828-6.136 2.447-1.226 1.73-1.4 1.743-1.512 1.75h-.025c-.193.018-.305-.05-.405-.25-.075-.143-.168-.41-.348-.958-.119-.355-.392-1.158-.704-2.086-.902-2.665-1.655-4.88-1.705-5.099-.08-.348-.311-.902-.56-1.04-.224-.124-.884-.105-2.041.312-1.034.367-9.38 3.119-9.697 3.206-.074.019-.168.056-.273.093-.386.144-.822.306-1.009 0-.143-.236-.074-.43.038-.76.037-.117.087-.26.143-.441.068-.2.143-.392.23-.585.293-.691.735-1.737.785-3.306.062-2.086-2.21-2.403-3.187-2.44-1.593-.063-3.056.236-4.35.89-1.711.865-3.504 2.042-3.865 4.17-.36 2.143 2.664 3.381 3.106 3.487.242.056 1.027.268 1.064.685.006.1-.019.28-.299.392l-.317.143c-.654.305-2.023.94-3.392 1.295-.43.112-1.008.25-1.625.399-1.468.355-3.933.946-4.207 1.176-.28.343 0 1.071.212 1.607.056.15.112.292.156.417.199.61.491 1.382.778 2.135.392 1.027.796 2.098 1.002 2.845.03.112.062.442-.162.604-.274.193-.635-.05-.753-.13-.256-.175-1.892-1.034-3.268-1.576-.616-.243-2.42-.535-3.38.984-1.026 1.631-.242 4.439.99 6.5 1.096 1.83 3.349 3.311 5.079 2.52 1.699-.778 2.284-2.21 2.346-2.371.118-.318.317-.735.666-.754z" fill="url(#paint0_linear_7705_47920)"/><path d="M29.754 21.542a3.38 3.38 0 01.156 1.488 2.325 2.325 0 01-.529 1.201c-.286.337-.666.573-1.12.722-.46.15-.903.175-1.32.075a2.274 2.274 0 01-1.12-.64 3.29 3.29 0 01-.747-1.252l-.1-.305c-.168-.53-.224-1.028-.155-1.488a2.24 2.24 0 01.535-1.202 2.404 2.404 0 011.127-.722 2.416 2.416 0 011.325-.062c.43.1.803.324 1.133.66.33.336.573.765.74 1.282l.075.243zm-1.394.2c-.174-.536-.392-.916-.66-1.134a.897.897 0 00-.902-.168c-.653.205-.84.81-.566 1.793l.124.398c.168.53.386.91.654 1.134.267.23.572.286.915.174a.882.882 0 00.622-.66c.087-.336.05-.766-.112-1.289l-.075-.249zm7.394.728l-1.288.41-.729-2.247-1.91.61.722 2.248-1.301.417-1.724-5.392 1.3-.417.685 2.142 1.91-.61-.684-2.142 1.289-.41 1.73 5.39zm9.491-1.202l1.325-.405 1.687 5.504-1.326.404-1.064-3.467-.909 4.078-1.325.404-1.687-5.503 1.326-.405 1.064 3.474.909-4.084z" fill="#BA272D"/><path d="M59.191 23.372c.175.542.23 1.046.168 1.532-.062.48-.242.89-.535 1.239a2.522 2.522 0 01-1.145.747c-.467.155-.921.18-1.357.087a2.346 2.346 0 01-1.157-.648c-.336-.336-.591-.76-.772-1.282l-.1-.311c-.18-.542-.236-1.052-.174-1.532.063-.48.243-.89.542-1.239a2.503 2.503 0 011.151-.753c.467-.156.921-.18 1.363-.075.442.1.828.324 1.164.673.336.342.597.784.771 1.313l.081.25zm-1.431.212c-.18-.548-.41-.934-.685-1.158a.927.927 0 00-.927-.168c-.666.218-.859.834-.566 1.849l.13.405c.181.541.405.927.679 1.158a.93.93 0 00.946.174.91.91 0 00.634-.685c.088-.349.044-.784-.124-1.326l-.087-.25zm7.599.697l-1.326.436-.76-2.303-1.96.64.76 2.304-1.332.436-1.81-5.522 1.33-.436.723 2.192 1.96-.642-.722-2.191 1.326-.436 1.81 5.522zm3.634-2.334l-1.823.597.018 1.14-1.425.466.212-6.188 1.25-.41 3.853 4.855-1.431.467-.654-.927zm-1.842-.536l1.189-.392-1.226-1.718.037 2.11z" fill="#fff"/><defs><linearGradient id="paint0_linear_7705_47920" x1="-.007" y1="23.999" x2="83.983" y2="23.999" gradientUnits="userSpaceOnUse"><stop stop-color="#B0B1B1"/><stop offset="1" stop-color="#333231"/></linearGradient></defs></svg>