<svg width="80" height="22" viewBox="0 0 80 22" fill="none" xmlns="http://www.w3.org/2000/svg"><g clip-path="url(#clip0)"><path d="M5.316 14.224l.057-.154H0v.674h4.5c.36 0 .664-.193.816-.52zm5.391-3.619a.708.708 0 00-.626-.365H0v.827h10.897l-.19-.462z" fill="#B0063A"/><path d="M10.859 7.93c1.386.27 2.335 2.926 3.284 4.889h2.24c-.474-1.694-1.822-4.158-3.227-5.928-.418-.54-.911-1.001-1.765-1.059H0v2.06h10.27c.19 0 .589.038.589.038zm-.759 8.065a.955.955 0 00-.95.943c0 .115.02.212.057.308a.95.95 0 00.893.635.95.95 0 00.892-.635.884.884 0 00.057-.308c-.02-.52-.437-.943-.95-.943z" fill="#B0063A"/><path d="M21.604 4.773C19.041 0 17.6 0 17.048 0H2.772C1.253 0 .019 1.232.019 2.733V4.87h11.562c.474 0 1.025.057 1.613.577h2.79c.4 0 .78.154 1.064.443.285.288.437.673.437 1.078v1.308c0 .424-.361.79-.855.867l-.133.019V6.91h.285a.796.796 0 00-.797-.75h-2.107c1.917 2.193 3.853 6.082 3.853 7.621v.231h-1.177v.79h1.177v1.732c0 .211-.038.596-.645.596h-4.29c.018-.096.018-.211.018-.308 0-.731-.284-1.424-.797-1.944a2.682 2.682 0 00-1.917-.808c-1.481 0-2.696 1.232-2.696 2.733 0 .096 0 .193.019.308H.019v2.156A2.737 2.737 0 002.772 22h14.276c.55 0 1.993 0 4.556-4.831 1.044-1.963 2.26-4.774 2.26-6.217-.02-1.444-1.235-4.235-2.26-6.179zm-9.511 12.492a2.035 2.035 0 01-2.012 1.732c-.55 0-1.044-.211-1.424-.596a2.155 2.155 0 01-.57-1.136c-.019-.096-.019-.212-.019-.308 0-1.136.912-2.06 2.032-2.06.55 0 1.044.212 1.443.597.38.385.588.905.588 1.463 0 .096-.019.212-.038.308z" fill="#B0063A"/><path d="M35.785 11.78c-.284-.482-.778-.886-1.5-1.213.589-.347 1.007-.732 1.292-1.193.265-.462.398-1.06.398-1.81 0-.904-.342-1.674-1.006-2.252-.684-.596-1.538-.885-2.6-.885h-4.291v12.376h4.917c.91 0 1.67-.308 2.297-.905.626-.596.93-1.347.93-2.232 0-.77-.152-1.405-.437-1.886zm-2.714 2.56c-.247.269-.608.423-1.045.423h-1.31V6.39h.893c1.1 0 1.67.558 1.67 1.675 0 .48-.133.866-.398 1.155-.266.288-.627.423-1.063.423h-.228v1.886h.209c1.1 0 1.651.54 1.651 1.636 0 .5-.133.905-.38 1.174zm12.396-1.04c0 1.174-.341 2.079-1.025 2.752-.683.674-1.651 1.001-2.867 1.001-1.271 0-2.24-.346-2.923-1.02-.684-.673-1.025-1.655-1.025-2.925v-8.7h2.658v8.276c0 .578.114 1.04.341 1.348.228.307.532.48.95.48.38 0 .683-.153.892-.461.228-.308.322-.712.322-1.232V4.427h2.677V13.3zM52.7 7.891c-.702-.827-1.367-1.232-2.012-1.232-.285 0-.55.097-.76.289-.227.193-.341.404-.341.654 0 .424.36.944 1.063 1.521.74.597 1.272 1.078 1.595 1.424.322.347.57.751.76 1.232.189.462.284.982.284 1.54 0 1.097-.342 1.982-1.025 2.695-.684.693-1.576 1.058-2.658 1.058-.892 0-1.766-.327-2.601-.962v-2.926c.816.905 1.633 1.348 2.449 1.348.36 0 .664-.097.911-.308.247-.212.361-.462.361-.751 0-.443-.323-.943-.95-1.482-1.005-.866-1.65-1.52-1.955-1.944a5.41 5.41 0 01-.702-1.29 3.958 3.958 0 01-.228-1.309c0-.962.323-1.732.987-2.367.665-.616 1.5-.924 2.525-.924.779 0 1.538.231 2.316.674v3.06H52.7zm7.708-1.058h-3.095v2.521h2.658v2.31h-2.657v5.14h-2.62V4.407h5.714v2.425zm1.405 3.715c0-1.733.19-3.022.55-3.83.38-.809.874-1.444 1.481-1.906.608-.443 1.405-.674 2.335-.674.779 0 1.405.135 1.88.385.474.27.91.635 1.329 1.136.398.5.702 1.116.892 1.848.19.73.285 1.713.285 2.925 0 2.502-.418 4.215-1.234 5.178-.817.943-1.88 1.424-3.17 1.424-1.33 0-2.393-.5-3.171-1.482-.779-.962-1.177-2.637-1.177-5.004zm2.79-.77v.789c0 1.309.038 2.156.133 2.58.076.403.266.73.55.98.286.232.608.366.988.366.323 0 .608-.115.854-.346.266-.231.437-.578.551-1.059.095-.48.152-1.308.152-2.521 0-1.078-.038-1.867-.133-2.31-.095-.462-.266-.827-.532-1.116a1.27 1.27 0 00-.987-.424c-.57 0-.968.25-1.215.732-.228.481-.36 1.27-.36 2.329zm13.214 1.424c.721-.404 1.234-.847 1.575-1.347.323-.5.494-1.117.494-1.886a4.11 4.11 0 00-.437-1.829c-.284-.597-.778-1.02-1.462-1.309-.683-.27-1.366-.423-2.05-.423h-3.93v12.395h2.64V6.39h1.024c.95 0 1.424.597 1.424 1.771 0 .52-.114.962-.341 1.29-.19.288-.59.462-1.235.5v1.636l1.785 5.197H80l-2.183-5.582z" fill="#4F4F4F"/></g><defs><clipPath id="clip0"><path fill="#fff" d="M0 0h80v22H0z"/></clipPath></defs></svg>