<svg width="84" height="20" viewBox="0 0 84 20" fill="none" xmlns="http://www.w3.org/2000/svg"><path d="M63.213 16.318c0 .213-.02.43-.062.652-.04.222-.105.414-.192.578h.719V16.21h-.465v.107zm-32.57.752h-.345v.475h.342c.156 0 .247-.103.247-.24 0-.139-.085-.235-.244-.235zm26.017-.578c0 .195.097.296.296.296h.246v-.576h-.191c-.127 0-.217.023-.274.064-.051.042-.077.116-.077.216zm-18.55-.281h-.29v.625h.28c.191 0 .295-.126.295-.316s-.104-.309-.286-.309zm10.774.107c0 .213-.02.43-.062.652a1.923 1.923 0 01-.192.578h.72V16.21h-.466v.107zm-7.144.604h-.247v.623h.256c.183 0 .287-.117.287-.308 0-.19-.104-.315-.297-.315zm34.347-.668h-.006a5.428 5.428 0 01-.094.395l-.133.447h.458l-.13-.447-.095-.395zm-49.575-.048a.597.597 0 00-.446.188.655.655 0 00-.182.469c0 .197.061.36.182.491.12.132.27.196.446.196a.578.578 0 00.445-.196.7.7 0 00.182-.491.654.654 0 00-.182-.469.6.6 0 00-.445-.188zm4.284.202c0-.116-.072-.197-.215-.197h-.283v.409h.293c.133 0 .205-.093.205-.212zm3.494-.154h-.007a5.566 5.566 0 01-.094.395l-.133.447h.458l-.13-.447-.095-.395zm33.258-.048a.596.596 0 00-.445.188.659.659 0 00-.181.469c0 .197.062.36.181.491a.58.58 0 00.445.196.579.579 0 00.446-.196.702.702 0 00.182-.491.654.654 0 00-.182-.469.601.601 0 00-.446-.188zm-2.268-2.963a7.61 7.61 0 001.832.234 7.05 7.05 0 001.834-.234c1.092-.36 1.823-.739 2.518-1.643.746-.97.96-1.823 1.002-3.046-.03-.842-.112-1.5-.501-2.249-.515-.99-1.085-1.556-2.003-2.04-.917-.487-1.89-.647-2.85-.638-.98.008-1.921.147-2.848.637-.93.491-1.488 1.051-2.003 2.041-.389.748-.47 1.407-.5 2.25.04 1.222.28 2.108 1 3.045.72.937 1.426 1.283 2.52 1.643zm.356-5.886a1.57 1.57 0 01.654-.558c.26-.122.548-.188.824-.188.274.001.562.066.818.187.268.127.504.315.659.56.22.363.332.79.332 1.21 0 .57-.166.982-.557 1.453-.224.187-.398.3-.583.37a1.922 1.922 0 01-.668.104 1.94 1.94 0 01-.673-.105c-.185-.07-.358-.183-.58-.37-.393-.47-.56-.882-.56-1.451 0-.421.112-.848.334-1.212zm-22.052 5.886a7.628 7.628 0 001.833.234c.604 0 1.234-.071 1.833-.234 1.093-.36 1.823-.739 2.52-1.643.745-.97.959-1.823 1-3.046-.029-.842-.111-1.5-.5-2.249-.513-.99-1.085-1.556-2.002-2.04-.917-.487-1.892-.647-2.85-.638-.98.008-1.92.147-2.85.637-.928.491-1.486 1.051-2.001 2.041-.389.748-.471 1.407-.5 2.25.04 1.222.28 2.108 1 3.045.72.937 1.425 1.283 2.517 1.643zm.356-5.886c.153-.241.389-.43.654-.558.259-.122.549-.188.825-.188.273.001.56.066.818.187.268.127.503.315.659.56.218.363.332.79.332 1.21 0 .57-.167.982-.559 1.453-.223.187-.397.3-.583.37-.21.079-.445.104-.668.104-.226 0-.461-.026-.672-.105-.186-.07-.358-.183-.58-.37-.392-.47-.559-.882-.559-1.451 0-.421.113-.848.333-1.212zm-14.133.955l1.404 4.896h2.777l1.405-4.896.42 4.896h3.6l-1.307-9.426h-4.07l-1.42 5.375-1.453-5.375h-4.085l-1.292 9.426h3.6l.42-4.896zm49.695.375v4.52h3.518V3.803h-3.325l-2.57 4.68v-4.68H73.61v9.406h3.325l2.568-4.521zm-21.339 4.505a3.5 3.5 0 00.773-.143c.498-.149.91-.411 1.271-.786.442-.457.57-1.027.596-1.679a2.262 2.262 0 00-.146-.89 2.399 2.399 0 00-.572-.879 2.013 2.013 0 00-.892-.536l-.435-.111v-.016c.326-.125.567-.227.853-.445.288-.218.47-.425.628-.794.133-.377.148-.657.128-1.05-.024-.122-.046-.244-.073-.365-.217-.602-.44-.915-.988-1.304-.487-.252-.888-.342-1.4-.397l-.468-.016h-5.127v9.426h5.385c.155-.004.312-.004.467-.015zM55.926 6.04h.339c.074.006.15.005.224.016.102.016.233.06.323.111.202.117.29.327.29.54a.575.575 0 01-.178.445.743.743 0 01-.42.2c-.076.013-.152.017-.24.023h-.338V6.039zm1.288 4.594c-.104.178-.347.281-.547.3a2.55 2.55 0 01-.29.018h-.451V9.536h.452c.096 0 .143-.001.289.016a.852.852 0 01.434.19.668.668 0 01.21.493.884.884 0 01-.097.398zM81.421.654h-5.839v2.093h4.691L81.421.654zM17.96 13.243a7.618 7.618 0 001.831.234c.606 0 1.236-.071 1.834-.234 1.094-.36 1.823-.739 2.52-1.643.745-.97.96-1.823 1-3.046-.029-.842-.111-1.5-.5-2.249-.514-.99-1.084-1.556-2.003-2.04-.916-.487-1.89-.647-2.849-.638-.98.008-1.921.146-2.85.636-.93.491-1.488 1.052-2.003 2.041-.388.749-.471 1.408-.5 2.25.042 1.222.28 2.108 1.001 3.046.72.937 1.427 1.283 2.52 1.643zm.355-5.886c.154-.241.389-.43.655-.558.26-.122.549-.188.825-.187.275 0 .56.065.818.186.267.127.503.315.658.56.22.363.333.79.333 1.21 0 .57-.167.982-.559 1.453-.223.187-.397.3-.583.37a1.93 1.93 0 01-.668.104 1.93 1.93 0 01-.673-.105c-.185-.07-.358-.183-.58-.37-.391-.47-.558-.882-.558-1.451 0-.421.113-.848.332-1.212zM5.334.654L.004 19.493h15.587L10.261.653H5.335zm.633 13.613l1.81-7.666 1.879 7.666h-3.69z" fill="#E4002B"/><path d="M15.835 14.26l1.478 5.24h65.69v-5.24H15.835zm7.716 1.951h-.706v1.816h-.569v-1.816h-.706v-.48h1.98v.48zm3.829 1.51c-.231.229-.52.344-.868.344s-.641-.115-.872-.343a1.166 1.166 0 01-.345-.858c0-.33.114-.61.345-.835.231-.225.524-.338.872-.338s.637.113.868.338c.23.225.348.504.348.835 0 .34-.117.626-.348.858zm3.838.14c-.166.112-.377.166-.634.166h-.855V15.73h.855c.478 0 .79.216.79.601a.57.57 0 01-.27.49v.006c.248.074.364.289.364.517 0 .233-.084.404-.25.516zm3.573.166l-.143-.482h-.725l-.14.482h-.586l.79-2.297h.599l.79 2.297h-.585zm3.972-.931a.72.72 0 01-.546.221h-.397v.71h-.57V15.73h.967c.224 0 .406.074.546.222.14.148.212.337.212.568a.816.816 0 01-.212.576zm3.64.71a.72.72 0 01-.547.221h-.933V15.73h.57v.71h.363a.71.71 0 01.547.226c.14.147.212.338.212.572 0 .23-.072.42-.212.568zm1.04.221h-.568V15.73h.569v2.297zm6.736.45h-.504v-.45h-1.343v.45h-.524v-.93h.24c.198-.337.296-.764.296-1.274v-.544h1.575v1.819h.26v.929zm3.832-.45h-.57v-1.816h-.452v.28c0 .55-.084.948-.25 1.197-.166.243-.419.365-.754.365v-.51a.423.423 0 00.244-.106c.131-.116.222-.423.222-.95v-.755h1.561v2.296-.001zm3.76 0h-.57v-.774h-.207l-.438.774h-.635l.446-.739.088-.138v-.006c-.25-.139-.374-.364-.374-.682 0-.338.169-.579.429-.678.093-.035.246-.055.452-.055h.81v2.298zm6.736.45h-.504v-.45H62.66v.45h-.524v-.93h.24c.199-.337.297-.764.297-1.274v-.544h1.573v1.819h.26v.929zm3.91-.755a1.189 1.189 0 01-.869.343c-.348 0-.64-.115-.871-.343a1.163 1.163 0 01-.344-.858c0-.33.113-.61.344-.835.23-.225.523-.338.871-.338s.638.113.87.338c.23.225.347.504.347.835 0 .34-.118.626-.348.858zm4.222.305l-.071-1.035a3.107 3.107 0 01-.005-.326l.005-.059h-.007c-.052.16-.094.289-.13.385l-.245.666h-.488l-.244-.666-.13-.385h-.007c.01.143.01.27 0 .385l-.072 1.035h-.573l.192-2.297h.618l.338.97.118.38h.007a4.65 4.65 0 01.118-.38l.337-.97h.619l.19 2.297h-.57zm3.95 0l-.144-.482h-.725l-.14.482h-.585l.79-2.297h.598l.79 2.297h-.585z" fill="#E4002B"/></svg>