<svg width="98" height="14" viewBox="0 0 98 14" fill="none" xmlns="http://www.w3.org/2000/svg"><path d="M39.378 6.95c0 2.656-1.383 4.463-2.856 4.458-1.552 0-2.883-1.802-2.874-4.477.01-2.675 1.362-4.487 2.902-4.48 1.544.003 2.837 1.826 2.828 4.5zm1.684.035c0-3.134-2.026-5.48-4.506-5.491-2.478-.009-4.577 2.32-4.592 5.452-.014 3.131 2.05 5.407 4.554 5.422 2.502.016 4.533-2.33 4.544-5.383zM56.065 8.71h-3.418l1.723-4.35 1.695 4.35zm3.078 3.663L55.034 1.846h-.702l-4.18 10.493h1.071l1.052-2.674h4.19l1.059 2.68 1.62.028zM74.95 8.734h-3.418l1.72-4.349 1.698 4.35zm3.08 3.663L73.91 1.871h-.71l-4.177 10.494h1.069l1.05-2.67h4.186l1.057 2.678 1.645.024zm19.971 0l-4.705-6.395 4.338-4.117H96.24l-4.332 4.117V1.866h-3v.974h1.464l-.04 9.553h1.53V6.616l4.23 5.796L98 12.397zm-51.752-5.65h-1.111V2.85h1.117c1.367 0 2.227.843 2.222 1.948-.005 1.107-.874 1.95-2.234 1.95m.65-4.873H42.14v.974h1.463l-.033 9.556h1.523V7.75h1.728a2.923 2.923 0 10.043-5.845m16.956 9.487h-.863V6.675h1.059c1.801 0 2.64 1.062 2.68 2.21.048 1.283-.977 2.584-2.876 2.498m3.882-7.087V1.86h-6.25v9.53h-1.537v.974h4.392c2.718 0 4.106-2.058 4.017-3.577-.092-1.696-1.517-2.683-2.982-2.977a4.158 4.158 0 00-.464-.067c-.45-.045-.599 0-1.953 0v-2.97h3.831v1.534l.946-.01zm-41.98 6.202V3.643c.268.014.535.042.8.09 1.25.261 2.114 1.557 2.123 3.296.01 1.74-1.053 3.246-2.47 3.41-.14 0-.313.04-.454.05M24.22 3.635v6.863a4.422 4.422 0 01-.446-.044c-1.415-.194-2.478-1.685-2.47-3.44.012-1.754.876-3.03 2.124-3.293.261-.045.525-.075.792-.086zm1.502-2.149h-2.98v.838h1.464v.55h-.49a4.042 4.042 0 00-4.017 4.213c0 2.222 1.571 3.99 4.051 4.18h.489v1.253h1.502v-1.249h.489c2.479-.189 4.06-1.949 4.046-4.18a4.035 4.035 0 00-3.902-4.166l-.134-.002h-.487l-.03-1.437zM86.935 12.38l.044-10.514h-1.517v3.898h-4.227V1.866h-2.988v.974h1.464l-.034 9.553h1.517V6.776h4.232v5.617l1.509-.014z" fill="#1D1D1B"/><path d="M14.037 12.866a26.313 26.313 0 00-7.078-.805 27.115 27.115 0 00-6.95.765V14h14.029v-1.14.006zM7.033 6.259a10.27 10.27 0 017.005 3.05V8.136a8.58 8.58 0 00-7.03-3.816A8.613 8.613 0 00.01 8.136v1.173A10.49 10.49 0 017 6.259h.033z" fill="#E30613"/><path d="M6.999 10.132h.033a16.087 16.087 0 017.005 1.511v-1.145c-1.738-1.359-4.14-2.202-7.014-2.284A11.825 11.825 0 000 10.498v1.164a16.092 16.092 0 016.993-1.515l.006-.015z" fill="#E30613"/><path d="M14.037 7.121C12.451 4.2 9.868 2.318 6.96 2.318c-2.83 0-5.367 1.798-6.95 4.574V0h14.029v7.121z" fill="#1D1D1B"/></svg>