<svg width="100" height="14" viewBox="0 0 100 14" fill="none" xmlns="http://www.w3.org/2000/svg"><path d="M0 .714h4.517c.657 0 1.206.114 1.648.343a2.93 2.93 0 011.094.866c.275.36.472.776.591 1.245.12.457.18.926.18 1.407 0 .674-.102 1.257-.305 1.75A3.038 3.038 0 016.9 7.516a3.36 3.36 0 01-1.272.704 5.584 5.584 0 01-1.667.234h-1.38v5.142H0V.714zm3.728 5.828c.514 0 .926-.157 1.237-.47.322-.312.484-.8.484-1.46 0-.65-.138-1.144-.413-1.48-.274-.337-.734-.505-1.38-.505H2.581v3.915h1.147zM9.294.714h7.151v2.129h-4.57v3.031h4.301v2.13h-4.301v3.463h4.75v2.13H9.294V.713zm12.178 13.081c-.968 0-1.739-.157-2.312-.47a3.35 3.35 0 01-1.327-1.352c-.298-.59-.496-1.288-.591-2.093a26.96 26.96 0 01-.126-2.725c0-.974.042-1.87.126-2.688.095-.83.293-1.54.591-2.13A3.318 3.318 0 0119.16.967C19.733.63 20.504.46 21.472.46c.92 0 1.643.15 2.168.451.538.301.938.686 1.201 1.155.263.457.424.956.484 1.498.072.529.108 1.028.108 1.497h-2.581c0-.938-.114-1.618-.34-2.039-.216-.433-.616-.65-1.202-.65-.322 0-.591.091-.806.272-.203.168-.365.45-.484.848-.12.384-.203.896-.251 1.533a31.166 31.166 0 00-.072 2.31c0 .974.03 1.762.09 2.363.072.602.173 1.07.305 1.407.143.325.316.548.52.668.214.108.46.162.734.162.227 0 .436-.036.628-.108.203-.084.376-.24.52-.469.143-.24.256-.571.34-.992.083-.433.125-.999.125-1.696h2.581c0 .71-.054 1.377-.161 2.002a4.405 4.405 0 01-.61 1.624c-.286.457-.698.824-1.236 1.1-.526.265-1.213.398-2.061.398zM26.474.714h8.173v12.882h-2.581V2.843h-3.011v10.753h-2.58V.714zm12.02 0h-2.903l3.316 7.812v5.07h2.58v-5.07L44.803.714h-2.796l-1.792 4.98h-.036L38.494.714zm7.251 0h7.474v2.129h-4.893v2.833h1.577c.645 0 1.219.066 1.72.198.514.132.944.349 1.29.65.347.3.61.703.79 1.208.19.494.286 1.101.286 1.823 0 .734-.095 1.359-.286 1.876a3.08 3.08 0 01-.843 1.245c-.37.325-.818.56-1.344.704-.526.144-1.13.216-1.81.216h-3.961V.714zm3.495 10.898c.37 0 .687-.03.95-.09a1.358 1.358 0 001.04-.956c.083-.265.125-.608.125-1.03 0-.733-.174-1.226-.52-1.479-.335-.264-.843-.397-1.524-.397h-.985v3.952h.914zM66.275.714h2.456v8.263L71.867.714h2.778v12.882h-2.456V5.351l-3.136 8.245h-2.778V.714zm10.528 0h2.58v5.16h.036l3.262-5.16h2.797L82 6.235l3.871 7.361h-2.903L80.333 8.31l-.95 1.461v3.825h-2.58V.714zm13.014 0h3.19l3.387 12.882h-2.688l-.591-2.724h-3.406l-.592 2.724H86.43L89.817.714zm2.85 8.029L91.43 2.95h-.037l-1.236 5.792h2.51zm-31.727 0L59.703 2.95h-.036l-1.236 5.792-.448 2.129-.592 2.724h-2.688L58.09.714h3.19l3.388 12.882h-2.689l-.591-2.724-.448-2.13z" fill="#000"/><path d="M97.68.708c1.06 0 1.92.866 1.92 1.934 0 1.067-.86 1.933-1.92 1.933s-1.92-.866-1.92-1.933c0-1.068.86-1.934 1.92-1.934z" fill="#42CEE2"/></svg>