<svg width="83" height="16" viewBox="0 0 83 16" fill="none" xmlns="http://www.w3.org/2000/svg"><path d="M31.121 8.201v.093c0 .756-.51 1.25-1.29 1.25h-6.844c.318 1.653 1.608 2.719 3.486 2.719.923 0 1.783-.263 2.53-.803.192-.14.415-.217.59-.217.557 0 .971.402.971.942 0 .402-.143.618-.557.943-1.003.756-2.197 1.112-3.534 1.112-3.311 0-5.747-2.317-5.747-5.39 0-3.074 2.388-5.437 5.508-5.437 2.786-.015 4.887 2.023 4.887 4.788zm-8.07-.402h5.778c-.048-1.513-1.146-2.532-2.754-2.532-1.512 0-2.659 1.019-3.025 2.532zm19.469-.262v5.575c0 .664-.509 1.158-1.146 1.158-.684 0-1.146-.494-1.146-1.158V7.8c0-1.42-.923-2.409-2.34-2.409-1.417 0-2.435 1.02-2.435 2.41v5.25c0 .664-.462 1.159-1.147 1.159a1.135 1.135 0 01-1.146-1.159V4.556c0-.664.462-1.158 1.147-1.158.636 0 1.098.494 1.098 1.158.78-.71 1.83-1.158 3.072-1.158 2.483 0 4.044 1.59 4.044 4.139zm9.215 5.56c0 .447-.223.803-.684.942-.367.139-.828.216-1.417.216-2.531 0-3.948-1.251-3.948-3.614V5.575h-.876c-.557 0-1.003-.401-1.003-.942 0-.54.462-.973 1.003-.973h.876V1.838c0-.618.51-1.158 1.146-1.158.637 0 1.146.494 1.146 1.158V3.66h2.292c.59 0 1.003.448 1.003.973 0 .525-.461.942-1.003.942h-2.292v4.85c0 1.25.637 1.776 2.117 1.776h.637c.605.015 1.003.37 1.003.896zM59.6 4.556c0 .618-.461 1.02-1.098 1.066-1.75.046-2.945 1.158-2.945 2.857v4.633c0 .664-.461 1.158-1.146 1.158a1.135 1.135 0 01-1.146-1.158V4.556c0-.664.462-1.158 1.146-1.158.637 0 1.099.494 1.099 1.158v.309c.732-.85 1.782-1.344 2.976-1.344.653 0 1.114.448 1.114 1.035zm.78 8.062c0-.896.78-1.653 1.703-1.653a1.66 1.66 0 011.656 1.653 1.66 1.66 0 01-1.656 1.652c-.923-.046-1.703-.772-1.703-1.652zm12.066-8.062c0 .618-.462 1.02-1.099 1.066-1.75.046-2.944 1.158-2.944 2.857v4.633c0 .664-.462 1.158-1.147 1.158a1.135 1.135 0 01-1.146-1.158V4.556c0-.664.462-1.158 1.146-1.158.637 0 1.099.494 1.099 1.158v.309c.732-.85 1.782-1.344 2.976-1.344.67 0 1.115.448 1.115 1.035zm1.194 5.066V4.556c0-.664.461-1.158 1.146-1.158.684 0 1.146.494 1.146 1.158v5.251c0 1.374 1.003 2.363 2.435 2.363 1.385 0 2.34-.973 2.34-2.363V4.556c0-.664.462-1.158 1.146-1.158.637 0 1.147.494 1.147 1.158v5.127c0 2.719-1.926 4.587-4.633 4.587-2.785-.046-4.728-1.93-4.728-4.648zM9.36 13.19c0 .57-.461 1.019-1.05 1.019-.366 0-.637-.14-.924-.448L3.2 9.05c-.223-.31-.366-.541-.366-.804 0-.309.095-.54.366-.85l3.852-3.69c.223-.217.51-.356.828-.356.589 0 1.098.448 1.098 1.02 0 .309-.143.54-.414.85l-3.2 3.026 3.726 4.185c.175.263.27.495.27.757zM1.146 0C.51 0 0 .494 0 1.158v11.939c0 .664.51 1.158 1.146 1.158.637 0 1.146-.448 1.146-1.158V1.158C2.292.494 1.782 0 1.146 0z" fill="#792573"/><path d="M16.618 9.668c-.143-.139-.318-.139-.51-.046a.524.524 0 00-.222.447l.97 5.576c.049.185.144.309.32.355h.095c.143 0 .27-.046.366-.139 0 0 .732-1.158 1.241-1.514.51-.355 2.022-.355 2.022-.355.191-.046.319-.139.366-.309.048-.185 0-.309-.143-.447l-4.505-3.568z" fill="#E50043"/><path d="M19.007 4.988c-.048-.185-.144-.308-.366-.494a4.84 4.84 0 00-1.29-.757 5.484 5.484 0 00-1.703-.401h-.462c-.461 0-.97.046-1.416.185-.048 0-.048 0-.096.047-.048 0-.143.046-.19.046-.097.046-.144.046-.224.093-.048 0-.095.046-.143.046-.048.046-.096.046-.143.046-.096.047-.191.093-.271.14-.414.215-.78.493-1.146.802l-.048.047c-.095.046-.143.139-.223.216l-.19.185c-.049.047-.096.14-.192.186a.676.676 0 01-.19.216.48.48 0 00-.144.185c-.048.093-.143.185-.191.263-.048.046-.048.092-.096.139-.047.092-.143.216-.19.309-.048.046-.048.092-.048.185-.048.093-.096.216-.144.309 0 .046-.047.139-.047.185-.048.093-.048.216-.096.309 0 .046-.048.139-.048.185-.047.093-.047.216-.047.31 0 .092 0 .138-.048.215 0 .093 0 .186-.048.263v.849c0 .093 0 .14.048.186 0 .092.048.216.048.309 0 .092.047.139.047.216 0 .092.048.185.096.262v.047c0 .046.048.139.048.185 0 .046.047.093.047.139 0 .046.048.046.048.093.048.092.096.185.096.262.047.093.095.185.143.263.048.092.095.139.143.216 0 .046.048.093.048.139.048.046.048.093.095.139 0 0 .048.046.048.093l.143.139c.048.092.144.185.223.262.048.046.096.14.144.185l.047.047.223.216s.048 0 .048.046c.876.803 2.022 1.298 3.216 1.421.557.047.366-2.131 0-2.224-.59-.185-1.194-.494-1.656-1.019l-.048-.046a1.077 1.077 0 01-.19-.217l-.049-.046s-.047-.046-.047-.092c0-.047-.048-.047-.048-.093a1.299 1.299 0 01-.191-.355l-.048-.047c-.048-.092-.095-.185-.095-.262v-.047c0-.046 0-.046-.048-.092 0-.047-.048-.14-.048-.217V9.36c-.27-1.374.318-2.718 1.465-3.382h.047c.096-.046.191-.093.223-.14.096-.045.143-.092.223-.092.048 0 .048 0 .048-.046.048-.046.143-.046.223-.046.047 0 .095-.047.095-.047.096-.046.223-.046.366-.092h.191c.367 0 .733 0 1.099.139h.143c.318.092.637.262.923.447.096.047.191.093.27.093.32.216.59.216.877.14.525-.263.843-.804.716-1.345z" fill="#792573"/></svg>