<svg width="62" height="52" viewBox="0 0 62 52" fill="none" xmlns="http://www.w3.org/2000/svg"><path d="M59.918 43.547a.4.4 0 00-.352.022c-.21.105-.424.2-.68.32.086-.233.15-.419.217-.607l-.16-.058c-.74-.25-1.48-.505-2.226-.748-.142-.048-.21-.113-.235-.265-.213-1.224-.434-2.451-.65-3.675-.075-.421-.153-.839-.232-1.278l-4.346 1.38c-.02-.062-.035-.095-.045-.131-.178-.69-.36-1.376-.524-2.07-.031-.138-.085-.16-.205-.138-.274.051-.548.091-.825.13-.203.03-.41.055-.662.088l.295-.33a17.655 17.655 0 01-3.944-.509c.114-.21.22-.392.313-.577.05-.098.11-.134.22-.13.747.021 1.494.021 2.234-.106 1.753-.301 3.168-1.17 4.204-2.654.038-.055.07-.117.095-.157-.906.07-1.802.164-2.699.2-.896.033-1.792.007-2.689.007.076-.334.107-.363.402-.406 1.273-.19 2.53-.461 3.738-.912 1.664-.62 2.877-1.742 3.575-3.417.11-.268.188-.551.298-.875-2.198 1.028-4.463 1.605-6.785 2.1.042-.15.085-.262.107-.379.025-.141.106-.203.234-.254.615-.236 1.23-.464 1.835-.733 1.177-.52 2.323-1.104 3.322-1.936 1.333-1.11 2.158-2.52 2.315-4.295.024-.269.003-.537.003-.85-2.087 1.569-4.324 2.767-6.664 3.857.042-.222.082-.404.107-.589.017-.138.088-.214.198-.294.776-.534 1.562-1.056 2.309-1.627 1.038-.791 1.98-1.695 2.692-2.82.91-1.442 1.32-3 1.01-4.714-.054-.29-.146-.574-.232-.9a35.84 35.84 0 01-5.177 5.26c0-.068-.004-.104 0-.137.05-.476.092-.951.149-1.423a.52.52 0 01.114-.27c.84-.932 1.643-1.89 2.326-2.951 1.617-2.51 1.767-5.127.544-7.84-.068-.149-.153-.294-.245-.464-.74 1.387-1.498 2.72-2.337 4.008-.022-.076-.022-.149-.022-.218L50.71 4.63c-.003-.105-.032-.163-.128-.207-.362-.167-.714-.352-1.08-.508-2.675-1.148-5.463-1.892-8.308-2.437a97.927 97.927 0 00-.957-.174c.04-.08.065-.138.093-.196.096-.214.206-.421.285-.643.124-.348-.004-.526-.36-.443a12.03 12.03 0 00-1.507.458c-.659.247-1.31.497-2.01.58-.473.059-.956.095-1.412-.054-.907-.294-1.828-.497-2.777-.559C31.04.344 29.55.431 28.103.911c-.671.221-1.337.218-2.016.109-.665-.106-1.28-.378-1.91-.607a11.658 11.658 0 00-1.397-.4c-.292-.064-.42.106-.324.397.082.243.203.475.31.711l.081.182-.128.029a45.229 45.229 0 00-5.942 1.416c-1.437.45-2.853.966-4.203 1.652-.125.062-.175.13-.179.269-.007.316-.046.628-.053.94-.028 1.217-.046 2.433-.071 3.65 0 .047-.007.098-.014.145-.018.007-.036.01-.054.018-.764-1.329-1.533-2.658-2.3-3.99-.014.018-.03.029-.036.043a8.052 8.052 0 00-1.003 3.83c-.014 1.439.373 2.768 1.102 3.995.697 1.17 1.551 2.211 2.458 3.213.146.164.256.32.245.552-.003.15.032.302.047.45l.1.977a36.127 36.127 0 01-5.175-5.25c-.036.09-.057.145-.075.203-.398 1.227-.36 2.451.025 3.671.423 1.347 1.22 2.451 2.208 3.417 1.096 1.068 2.33 1.943 3.607 2.76.056.036.142.08.156.134.06.229.096.465.15.737-2.345-1.09-4.581-2.291-6.658-3.849-.007.105-.014.17-.014.236-.043 1.398.387 2.64 1.212 3.744.72.966 1.665 1.645 2.69 2.222 1.14.646 2.339 1.162 3.57 1.605.074.025.174.065.199.123.067.15.099.316.152.505-2.325-.494-4.59-1.071-6.757-2.084.025.105.043.181.065.254.576 1.914 1.795 3.224 3.606 3.954 1.255.505 2.571.781 3.905.984.309.048.39.124.409.443-1.8.015-3.596-.021-5.406-.28.046.077.07.132.103.179 1.099 1.58 2.603 2.472 4.478 2.701.65.08 1.312.055 1.97.08.06.004.149.007.17.047.129.207.239.425.367.661a17.955 17.955 0 01-3.923.508c.185.28.388.454.719.403.12-.018.245.011.37.019.003.025.01.05.013.076-.053.025-.106.069-.16.069a4.64 4.64 0 01-.547-.04c-.704-.098-1.408-.203-2.11-.305l-.899-.13c-.202.798-.402 1.572-.6 2.352a2.543 2.543 0 01-.171-.047c-.708-.225-1.416-.443-2.116-.675-.129-.04-.21-.022-.3.069-.095.101-.206.188-.334.301-.035-.182-.05-.334-.095-.476a.306.306 0 00-.146-.167c-.267-.098-.541-.178-.811-.261-.128-.04-.253-.076-.385-.116-.017.076-.035.127-.042.181-.284 1.598-.572 3.196-.853 4.797-.022.13-.075.185-.192.221-.388.124-.776.258-1.164.389l-.49.167c.114.265.217.512.341.813-.306-.16-.569-.28-.81-.432-.193-.12-.36-.112-.562-.043-.665.232-1.338.443-2.006.664v.29c.05.051.103.095.15.15a23.639 23.639 0 002.67 2.76c.106.09.196.123.334.079.206-.065.416-.105.651-.163-.053.228-.09.42-.142.613-.032.105-.01.16.075.225 1.429 1.104 2.955 2.034 4.63 2.695.327.13.664.236 1.003.355.497-.998.978-1.968 1.465-2.94.085.036.156.061.227.09a51.878 51.878 0 004.598 1.66c.257.08.413.047.57-.168.106-.152.249-.275.394-.435.061.276.125.504.157.737.021.16.1.218.242.258A51.812 51.812 0 0030.838 52a50.96 50.96 0 006.736-.432c.06-.008.138-.08.163-.145.071-.168.121-.345.192-.56.086.182.164.316.217.462.05.137.135.156.26.134.69-.12 1.38-.225 2.066-.352a48.264 48.264 0 008.724-2.473c.444-.174.889-.356 1.343-.541l1.448 2.912c.032 0 .05.004.064 0 .584-.222 1.163-.44 1.742-.665.04-.014.072-.101.076-.156.007-.232.003-.464.003-.73.31.11.58.215.854.298a.404.404 0 00.277-.022c2.507-1.39 4.62-3.26 6.422-5.511.03-.037.047-.077.075-.127-.54-.19-1.063-.36-1.582-.545zm-8.959-32.992c.62-1.028 1.21-2.073 1.81-3.116.03-.05.057-.101.1-.141-.536 1.412-1.255 2.73-2.04 4.016-.016-.265-.019-.509.13-.76zm-.106 2.208c.725-1.137 1.44-2.284 2.159-3.428.05-.08.1-.164.153-.262-.06.4-2.091 3.936-2.45 4.256 0-.214.028-.389.138-.566zm-.118 1.833c.637-.937 1.266-1.884 1.896-2.828.05-.077.096-.153.146-.225-.559 1.31-1.294 2.516-2.152 3.652-.017-.214-.017-.406.11-.599zm-.288 4.586c1.401-1.07 2.72-2.24 3.873-3.59.217-.255.427-.52.64-.778-1.205 2.088-2.933 3.657-4.826 5.09-.028-.326.068-.533.313-.722zm-.263 1.413a34.543 34.543 0 003.364-2.836c.207-.196.413-.392.634-.574-1.238 1.489-2.657 2.77-4.218 3.925-.029-.243.046-.384.22-.515zm-.16 1.303c.967-.722 1.92-1.47 2.88-2.207l.16-.124c-.263.501-2.73 2.622-3.324 2.861-.025-.25.092-.388.284-.53zM11.004 8.634c.41.7.844 1.383 1.238 2.091.09.157.065.382.058.585-.787-1.26-1.49-2.553-2.003-3.95.238.424.463.857.708 1.274zm-.376 1.54c.562.886 1.134 1.764 1.69 2.654.074.12.067.287.063.447A27.548 27.548 0 019.984 9.11c.217.356.423.715.644 1.064zm-.253 1.394c.121.185.239.374.364.556.565.842 1.14 1.677 1.696 2.527.085.13.07.33.074.512a16.428 16.428 0 01-2.134-3.595zm-.259 5.407c.846.798 1.753 1.532 2.646 2.28.15.127.213.254.224.436.004.058.007.12.01.221-1.902-1.438-3.627-3.006-4.857-5.05.65.7 1.273 1.448 1.977 2.113zm-1.07.287c.031.025.07.047.099.076a39.995 39.995 0 003.901 3.34c.089.066.104.233.15.353l-.071.043c-1.501-1.107-2.874-2.36-4.08-3.813zm4.327 5.174c-1.233-.854-2.361-1.78-3.328-2.901.32.261.636.53.967.78.712.545 1.423 1.086 2.145 1.609.177.13.227.272.216.512zm34.422 15.083c-.029.008-.058.011-.086.018a8.345 8.345 0 00-.089-.283c.05-.01.096-.018.146-.029.01.098.018.196.029.294zm-.114-.955c-.004.015-.004.03-.007.047-.915.051-1.81-.076-2.724-.28.07-.123.131-.22.188-.315.854.185 1.696.367 2.543.548zm-1.686-2.048c.042-.218.114-.294.316-.28.335.026.672.008 1.007.008l.01.08-1.333.192zm.313-.635c.032-.189.086-.254.263-.225.341.054.687.065 1.031.094v.066c-.427.018-.853.04-1.294.065zm.732-1.13c1.185.012 2.372.019 3.557.03.064 0 .124.01.188.018-.672.243-3.563.428-4.11.294.045-.32.077-.345.365-.341zm.33-1.376c0-.163.08-.225.24-.265 1.184-.294 2.368-.602 3.549-.904.028-.007.057-.01.095-.021-.38.435-3.175 1.289-3.883 1.19zm.282-.77c.032-.18.06-.3.263-.333.822-.131 1.636-.287 2.454-.436-.86.374-1.77.603-2.717.77zm5.918-2.592c.01-.004.02.004.081.022-1.83.868-3.733 1.347-5.711 1.688.04-.127.064-.225.103-.316.015-.036.057-.08.096-.087a65.394 65.394 0 005.43-1.307zm-4.918-.606c.007-.186.038-.313.22-.378.551-.203 1.099-.421 1.654-.62-.58.406-1.213.71-1.874.998zm.27-.995c-.025-.243.025-.327.231-.41 1.465-.6 2.877-1.308 4.264-2.074.06-.033.121-.065.18-.102l.023.04c-1.462 1.05-3.041 1.87-4.698 2.546zm.608-1.652a59.81 59.81 0 005.377-2.767c.05-.03.103-.055.153-.08l.025.036c-1.825 1.39-3.813 2.484-5.922 3.38 0-.293.104-.453.367-.57zM49.1 5.47c.056.033.117.124.117.186.018 1.8.043 3.605.029 5.406a48.11 48.11 0 01-.14 3.043 65.193 65.193 0 01-.316 3.551c-.196 1.616-.448 3.228-.675 4.84a2.565 2.565 0 01-.1.422c.878-5.28 1.092-10.592.871-15.93h-.057c0 .447.011.893-.003 1.34-.032 1.22-.057 2.444-.118 3.664a61.409 61.409 0 01-.213 2.926 97.846 97.846 0 01-.387 3.508c-.491 3.798-1.238 7.542-2.543 11.147-.718 1.987-1.583 3.9-2.721 5.68-.086.134-.17.185-.327.174-.227-.015-.459-.004-.711-.004.025-.054.035-.087.057-.112 1.39-1.972 2.372-4.154 3.143-6.438a40.284 40.284 0 001.494-5.846c.192-1.072.366-2.15.522-3.225.111-.77.186-1.543.26-2.316.079-.792.15-1.587.207-2.382.05-.72.1-1.438.11-2.154.025-1.637.028-3.278.039-4.92 0-.29-.014-.58-.039-.868-.007-.058-.085-.137-.15-.16-.938-.355-1.874-.73-2.827-1.045-1.628-.534-3.297-.919-4.986-1.21-.146-.025-.267-.072-.316-.232a.673.673 0 00-.107-.207c-.107-.145-.124-.29-.035-.475a44.32 44.32 0 016.977 1.71c-.44-.163-.878-.338-1.326-.494a38.731 38.731 0 00-2.764-.835 36.11 36.11 0 00-1.412-.33c-.465-.102-.935-.193-1.44-.298.086-.243.163-.48.256-.712.014-.032.1-.054.146-.047 3.066.508 6.07 1.242 8.958 2.422.185.062.363.13.527.221zm-11.576 31.2c.06-.235.117-.479.196-.715.01-.036.113-.062.178-.062 1.105-.003 2.215-.003 3.321-.003h1.334c.387 0 .664.269.668.642 0 .375-.277.643-.665.643h-2.948c-.003-.007-.003-.018-.007-.025.878-.058 1.76-.113 2.639-.17 0-.019.003-.037.003-.052-1.575-.09-3.14-.174-4.719-.258zm-2.938-.05c.068-.24.118-.44.182-.64.014-.04.074-.068.12-.09.026-.011.062.003.09-.004.395-.116.615.167.843.403.064.07.06.21.089.33h-1.324zm1.053 1.027c-.039.436-.256.588-.707.501.02-.141.038-.283.07-.42.008-.033.06-.077.097-.08.177-.004.359 0 .54 0zm-4.95-1.067c.085-.218.16-.418.245-.617.015-.037.078-.073.117-.073.502-.004 1.007-.022 1.509.01.11.008.238.175.298.298.05.098.011.247.011.382h-2.18zm2.151 1.72c-.295.015-.562.026-.853.04.021-.217.032-.413.06-.606.007-.036.075-.087.121-.09.117-.015.239.01.353-.008.191-.029.263.059.273.244.007.127.029.254.046.42zm-1.209.063c-.206 0-.387.003-.569-.004-.11-.004-.174.036-.224.134-.078.16-.17.316-.284.52-.021-.095-.054-.15-.043-.19.09-.333.189-.664.274-.998.036-.138.081-.228.245-.203.1.014.2.003.302.003.242 0 .242 0 .26.258.007.15.021.29.04.48zm1.067-3.316a.358.358 0 00-.004-.138c-.06-.228-.042-.268.167-.352 0-.28.068-.395.346-.454.231-.05.48-.09.71-.061.3.04.42.24.428.595-.299-.134-.594-.232-.932-.174.192.076.377.127.54.218.164.09.35.192.335.468-.356-.232-.712-.374-1.07-.272.167.065.387.112.572.225.249.149.352.269.274.526-.459-.38-.73-.363-1.145.098-.157-.206-.274-.41-.22-.678zm1.124.966c-.01.204-.05.407-.068.61-.025.33-.039.661-.057.992-.014.01-.028.025-.042.036-.086-.109-.192-.207-.253-.327-.227-.428-.263-.893-.202-1.369.02-.174.192-.294.355-.283.167.014.278.142.267.341zm-.644 1.656c.277.174.54.341.836.53 0-.178.003-.301 0-.421-.004-.098.028-.149.131-.142.029.004.06 0 .09 0 .501 0 .501 0 .572.549l-1.686.109c.021-.23.04-.425.057-.625zm2.447-3.086c.174 0 .355-.026.526.007.17.033.335.127.495.221-.264.044-.53.026-.751.197.296-.066.576-.022.84.123.156.087.22.21.17.403-.523-.312-.896-.163-1.099.363-.085-.17-.156-.301-.217-.44-.039-.086-.056-.177-.174-.195a.173.173 0 01-.114-.08c-.135-.236-.284-.465-.38-.715-.093-.244-.004-.4.245-.433.373-.05.74.011 1.064.23.031.02.06.057.085.09.014.018.02.04.032.062l-.725.109c0 .018 0 .036.003.058zm.946 3.072c.075-.044.153-.033.164.083.007.087.017.178.028.29l-.904.066c.246-.149.477-.298.712-.44zm-.128-.335c-.096.124-.227.218-.373.356.05-.316.113-.566.124-.82.01-.24-.025-.48-.057-.72-.032-.253.064-.435.26-.457.213-.025.373.142.38.4.014.443-.046.878-.334 1.241zm1.046.327c.038.004.088.106.095.167.008.044-.043.138-.074.142-.21.029-.42.04-.64.058-.033-.123-.06-.232-.1-.374.26-.004.487-.01.718.007zm6.756-17.854c-.01-.995-.255-1.942-.594-2.868-.558-1.522-1.354-2.909-2.3-4.209-.15-.207-.171-.399-.16-.635.074-1.412.006-2.814-.52-4.15a4.094 4.094 0 00-.398-.766c-.124-.197-.22-.385-.256-.621-.036-.262-.114-.516-.182-.817.363.072.705.138 1.043.214.038.007.07.087.092.141.128.36.25.723.391 1.137.117-.338.22-.628.313-.922.039-.127.09-.167.227-.127.694.196 1.391.377 2.088.559.139.036.178.101.189.25.046.77.107 1.543.163 2.313.04.53.079 1.06.114 1.59.05.698.096 1.399.16 2.096.14-1.957.277-3.918.42-5.89.06.011.1.011.135.026.473.174.942.352 1.415.523.1.036.14.094.14.2-.008 1.397 0 2.795-.019 4.193a42.367 42.367 0 01-.082 2.03 106.48 106.48 0 01-.17 2.422c-.053.66-.11 1.321-.189 1.982a51.49 51.49 0 01-.327 2.455 69.293 69.293 0 01-.633 3.406c-.644 2.96-1.544 5.828-2.98 8.497a17.53 17.53 0 01-1.614 2.49.355.355 0 01-.232.113c-.33.011-.661.004-1.056.004 1.13-1.91 2.102-3.853 2.884-5.89.018 0 .032.004.05.004.018.337.036.671.05 1.01h.014c.022-.455.043-.909.067-1.359a.859.859 0 01.047-.265c.576-1.576 1.042-3.188 1.33-4.844.156-.9.245-1.815.334-2.727.05-.523.05-1.045.046-1.565zm1.771-16.358c.666.23 1.316.501 1.974.756.064.025.128.058.192.087a47.15 47.15 0 00-8.36-2.117c.053-.269.063-.276.351-.225a38.78 38.78 0 015.843 1.5zM40.358.304c-.814.661-1.628 1.322-2.443 1.98-.017-.022-.035-.048-.053-.07.743-.751 1.437-1.576 2.496-1.91zm-14.104 2.75L26.97 4.2l1.313 2.087.031.062-2.343-.12c.295.29.686.382 1.105.454-.135.461-.117.9.161 1.3.178.258.412.436.707.52.367.101.726.068 1.06-.139.323-.2.516-.504.62-.871.326.105.636.207.948.305.004-.011.007-.022.014-.033-.223-.167-.447-.33-.672-.497-.618-.469-1.017-1.122-1.433-1.765-.472-.73-.949-1.463-1.558-2.088-.198-.203-.423-.381-.65-.58.05-.04.1-.084.149-.12.918-.665 1.953-1.043 3.051-1.246.79-.145 1.587-.232 2.387-.174 1.58.116 3.03.606 4.253 1.68.036.034.071.066.103.099.01.01.018.029.028.05a8.13 8.13 0 00-1.898 2.528c.626-.85 1.266-1.681 1.995-2.458.056.05.1.087.142.13.025.026.043.055.071.095-.1.098-.195.196-.292.29-.686.683-1.269 1.453-1.83 2.24-.491.683-1.053 1.293-1.768 1.736a.171.171 0 00-.075.095c.153-.04.306-.076.455-.127.153-.048.299-.11.466-.167.132.454.384.802.825.98.285.113.587.142.868.025.216-.087.445-.221.597-.399.157-.182.267-.432.316-.672.05-.232-.003-.486-.01-.7.291-.113.59-.226.89-.345.074-.03.13-.095.199-.146l-2.262.11c.621-.883 1.244-1.77 1.884-2.673.156.207.31.396.448.599.025.036.007.112-.014.163-.028.073-.074.135-.139.247.125-.08.21-.138.32-.207.2.36.4.708.584 1.064.032.058-.004.16-.025.236-.029.095-.082.182-.146.323l.31-.247c.032.055.063.098.081.146.174.479.345.962.516 1.441.018.044.018.113.05.135.156.112.11.246.07.399a9.95 9.95 0 01-1.155 2.727c-.025.036-.043.08-.064.116.017.011.035.026.053.036.377-.533.754-1.07 1.128-1.605a.276.276 0 01.043.015c-.14.418-.264.846-.427 1.253-.164.41-.374.799-.576 1.23.373-.424.693-.845.906-1.34.21-.486.392-.987.573-1.455v1.136l.042.011c.093-.327.182-.657.274-.984h.05c.22 1.06.299 2.132.256 3.246-.284-.101-.54-.196-.775-.28l1.266 1.283c-1.6 2.352-3.577 4.168-5.989 5.493.975-.403 1.885-.93 2.777-1.54.285.676.47 1.37.637 2.067-.017-.392-.039-.785-.057-1.177.349 1.159.566 2.35.662 3.552.092 1.201.11 2.41.156 3.442.046-.222.135-2.084.068-3.33-.06-1.17-.2-2.331-.402-3.518.278.617.719 3.503.764 4.607a27.361 27.361 0 01-.177 4.648c.512-2.81.494-5.624.053-8.45a15.072 15.072 0 01.22.818c.268 1.256.381 2.53.35 3.812-.023.864-.097 1.725-.165 2.586a29.83 29.83 0 01-.853 5.105c-.11.421-.235.842-.316 1.27.16-.493.33-.987.483-1.484.416-1.377.73-2.782.929-4.209.138-1.002.277-2.008.348-3.017.06-.86.078-1.729.032-2.59-.09-1.637-.413-3.224-1.131-4.709-.039-.08-.082-.16-.124-.24a8.28 8.28 0 01-.107-.199c.672-.679 1.333-1.347 2.016-2.033a27.53 27.53 0 01-.128 4.909c.27-1.242.405-2.502.477-3.77h.046c.035.346.078.69.103 1.04.025.362.043.722.05 1.085.007.356.004.712.004 1.067h.07c.026-.969.054-1.939.079-2.94.028.065.057.105.067.152.139.577.281 1.154.413 1.735a.675.675 0 01-.018.302 26.247 26.247 0 01-1.053 3.26c.146-.225.295-.45.434-.678.146-.236.281-.476.42-.716.135-.24.267-.48.399-.719.02.004.038.008.06.011-.01.218-.004.436-.032.65-.27 1.99-.69 3.947-1.273 5.864-.025.08-.046.156-.072.236.018.008.036.011.054.018.37-1.147.74-2.294 1.106-3.442h.014c-.05.36-.093.723-.15 1.082a41.078 41.078 0 01-1.237 5.302c-.06.2-.163.384-.263.57-.228.424-.466.846-.676 1.285l.598-.882c-.047.479-.306.864-.502 1.274-.195.41-.402.814-.583 1.231.203-.348.406-.7.608-1.05l.057.026c-.477 1.286-.95 2.571-1.426 3.856-.014-.003-.032-.01-.046-.014v-1.111c-.21.475-.406.933-.612 1.383a.27.27 0 01-.156.135c-.14.036-.214-.019-.25-.182a3.15 3.15 0 00-.234-.657c-.043-.095-.153-.16-.231-.24a9.187 9.187 0 01-.182-.192l.036-.047c.196.087.388.177.584.265.006-.011.017-.022.024-.033-.114-.13-.217-.28-.348-.392-.121-.102-.132-.19-.085-.338.156-.486.295-.977.419-1.478-.185.258-.374.516-.558.777-.114.16-.228.323-.349.483-.029.037-.085.084-.124.08-.285-.029-.57-.073-.872-.113.189-.577.342-1.187.313-1.84-.113.26-.23.522-.338.788-.113.272-.223.544-.327.82-.103.273-.195.552-.305.864l-.118-.178a1.038 1.038 0 00-.683-.446c-.082-.015-.16-.018-.17-.138a55.65 55.65 0 00-.203-2.005c-.047.266-.096.53-.142.796-.075.432-.143.867-.228 1.3a.33.33 0 01-.135.185c-.253.167-.462.37-.59.693l.327-.178c.01.008.021.019.031.026-.081.138-.18.268-.238.417a1.454 1.454 0 00-.088.447c-.007.163.017.334.031.512h-1.646c.007-.163.007-.323.029-.483.024-.207.003-.381-.143-.552-.128-.149-.21-.338-.324-.526.175.029.363.061.573.098a1.425 1.425 0 00-.704-.396c-.124-.03-.142-.087-.146-.196-.007-.443-.021-.883-.032-1.326-.004-.094 0-.192 0-.286-.014-.004-.029-.004-.046-.008l-.228.774c-.081.287-.16.58-.252.864-.018.05-.082.102-.135.127-.2.084-.402.16-.612.24-.04-1.006-.195-2.001-.566-2.96-.085 1.072.06 2.12.331 3.138-.238-.11-.469-.207-.693-.32-.043-.022-.064-.094-.082-.149-.213-.599-.42-1.202-.63-1.805a1.736 1.736 0 00-.06-.148c.046.66.089 1.292.135 1.924.011.135-.021.2-.163.24a1.647 1.647 0 00-.829.588c.15-.054.274-.098.398-.145.008.01.011.018.018.029-.153.185-.334.352-.448.559-.117.218-.167.472-.253.73-.18 0-.37.007-.558-.004-.056-.003-.124-.058-.163-.112-.26-.36-.509-.727-.765-1.093a.562.562 0 00-.164-.171l.217.908c-.547-.454-3.1-5.864-3.275-6.932l1.785 3.598c.007-.003.018-.007.025-.014l-1.45-3.417a.32.32 0 00.049-.025l2.063 3.932c.01-.007.021-.01.032-.018-.523-1.148-1.05-2.295-1.572-3.439l.057-.032 1.29 1.928c.011-.008.018-.011.03-.018l-1.505-2.727.036-.026c.18.2.358.403.554.617-.345-.577-.711-1.118-1.01-1.695a64.034 64.034 0 01-1.511-3.108c-.135-.302-.16-.665-.189-1.006a48.984 48.984 0 01-.156-2.495c-.015-.381.053-.77.088-1.154a.224.224 0 01.054-.11c.014 1.431.16 2.844.463 4.238-.16-1.336-.225-2.672-.104-4.016.206 1.874.505 3.733.992 5.552-.103-.712-.22-1.423-.31-2.139a36.963 36.963 0 01-.205-2.178c.434 1.877.95 3.725 1.65 5.519-.583-1.91-1.024-3.849-1.263-5.842.25.392.495.784.744 1.18.003-.004.01-.008.014-.011-.17-.465-.37-.919-.509-1.395-.288-.973-.544-1.957-.807-2.933a.348.348 0 01.014-.226c.328-.642.658-1.281.992-1.92.015-.03.043-.055.06-.08l-.436 2.934c.014.003.028.003.042.007.15-.65.303-1.304.451-1.954l.033.011c.032 1.057.068 2.114.1 3.17.031-1.11.074-2.218.242-3.319.088 1.293.234 2.578.504 3.846-.174-1.54-.252-3.083-.153-4.63l.082-.065c.029.061.043.134.089.178.537.512 1.074 1.024 1.618 1.528.078.073.103.124.046.225-.58 1.075-.903 2.233-1.102 3.435a15.98 15.98 0 00-.16 3.976c.096 1.14.249 2.277.412 3.41a27.277 27.277 0 001.142 4.764c.068.2.138.396.242.585-.036-.124-.071-.247-.11-.374a23.74 23.74 0 01-.815-3.788 56.834 56.834 0 01-.348-3.47 24.354 24.354 0 01-.032-2.702c.053-1.268.27-2.517.693-3.715a.563.563 0 01.075-.142c-.584 2.967-.658 5.94-.139 8.922-.362-3.036-.188-6.031.597-8.987-.416 2.407-.536 4.83-.248 7.262-.135-2.523.081-5.014.75-7.454-.014.374-.032.747-.046 1.1.178-.61.362-1.242.558-1.907 1.05.672 2.098 1.231 3.126 1.605-.57-.37-1.234-.766-1.86-1.223a16.441 16.441 0 01-4.196-4.488c-.075-.12-.057-.19.031-.276.178-.175.349-.363.534-.534.181-.17.377-.33.552-.527-.342.168-.687.335-1.057.513-.103-1.231-.074-2.437.253-3.624-.025.842-.079 1.688.202 2.509.09-.966.178-1.936.27-2.938.114.472.193.908.328 1.326.135.42.33.82.52 1.216-.154-.752-.303-1.503-.456-2.251.017-.008.039-.011.057-.018.398.417.796.835 1.195 1.256.017-.015.035-.033.053-.047-.064-.087-.132-.17-.196-.258-.501-.657-.867-1.384-1.045-2.197-.057-.254-.004-.537.014-.81.032-.504.192-.976.42-1.46.188.237.366.458.54.68a.165.165 0 01.036-.018c-.036-.095-.071-.19-.104-.284-.031-.098-.052-.2-.095-.29-.22-.454-.085-.824.245-1.137l.558.552.036-.022c-.09-.257-.174-.515-.27-.766-.043-.112-.029-.189.053-.268.202-.197.406-.393.601-.592.064-.113.132-.087.2.025zm1.629 4.894c.395.21.775.109 1.163-.095-.246.422-.857.552-1.298.302-.434-.247-.665-.839-.46-1.253.054.454.197.835.595 1.046zm-.274-.628c.174.025.281.17.295.417-.26-.032-.348-.163-.295-.417zm8.187-.389c.21.327.01.911-.406 1.195a.996.996 0 01-1.362-.269c.922.487 1.664.036 1.768-.926zm-1.669.447c.196.083.285.218.281.425-.238-.004-.348-.16-.28-.425zM30.308 35.09c.157.018.2.109.14.25-.058.131-.119.255-.2.422-.15-.247-.33-.367-.57-.396-.245-.029-.426.09-.6.305-.004-.084-.015-.13-.007-.174.018-.113.028-.215-.11-.258-.029-.011-.065-.05-.068-.08-.029-.229-.093-.465-.064-.69.039-.312.28-.486.594-.465.202.015.409.062.604.117.132.036.246.12.25.3-.178.019-.353.023-.524.052a2.554 2.554 0 00-.483.145c.423-.05.829-.015 1.216.178-.352.05-.71.047-.989.21.253.03.53.055.811.084zm-9.221 1.826v.055c.875.058 1.75.113 2.624.17v.03h-2.93a.645.645 0 01-.65-.647.639.639 0 01.643-.635c1.707-.004 3.41 0 5.118-.004.092 0 .174.011.18.12.008.214.004.432.004.654-1.653.087-3.321.17-4.99.258zm4.638 1.166l-.388-.047c.003-.385.031-.418.341-.385l.047.432zm-2.266-.28l-.021.066c-.427-.047-.854-.091-1.28-.138l.01-.087c.36 0 .715-.008 1.074.007.071 0 .142.098.217.152zm-7.07-29.916c-.003-.152.053-.225.192-.272.47-.17.939-.349 1.433-.538.142 1.565.277 3.094.416 4.626h.011c.04-.417.079-.835.117-1.252l.171-1.874c.05-.548.096-1.093.153-1.641.007-.058.068-.145.117-.16a40.172 40.172 0 014.158-1.024c.028-.004.057 0 .11 0-.01.058-.015.109-.025.16-.053.254-.1.508-.167.759a1.278 1.278 0 01-.167.388c-.47.697-.708 1.478-.853 2.299a10.889 10.889 0 00-.128 2.636c.024.367-.083.62-.282.9-1.013 1.43-1.86 2.956-2.383 4.648a9.059 9.059 0 00-.394 2.996c.12 3.743 1.134 7.255 2.62 10.642a38.22 38.22 0 002.063 4.005c.04.066.075.131.132.24-.413 0-.771.004-1.135-.004-.05 0-.11-.058-.145-.105-.957-1.227-1.714-2.574-2.358-3.994-.946-2.091-1.633-4.274-2.127-6.518a84.753 84.753 0 01-.775-4.096c-.15-.878-.242-1.768-.334-2.654a90.045 90.045 0 01-.277-3.083 73.379 73.379 0 01-.157-6.002c.014-.367.022-.722.014-1.082zm10.125 29.775c-.04.138-.078.276-.121.407-.007.021-.053.047-.082.047-.156-.004-.316-.018-.476-.026.074-.465.174-.526.68-.428zm-.256-2.36c.057-.186.128-.37.195-.552.015-.037.043-.087.075-.098.178-.051.25-.2.352-.334a.637.637 0 01.31-.197c.191-.058.39-.09.59-.116.185-.025.377.015.462.193.092.196-.01.381-.11.555-.572-.272-.644-.287-1.042-.221.295.014.523.109.715.28.203.177.199.246-.029.431a1.127 1.127 0 00-1.05-.312c.14.033.25.047.35.087.096.04.195.091.277.16.274.225.27.403-.018.668-.146-.425-.498-.657-1.088-.312 0-.087-.01-.163.01-.232zm.135.657c.014-.174.21-.305.377-.283.174.025.28.181.26.392-.018.178-.05.36-.068.537-.029.316.007.625.124.922.011.026.011.055.015.084-.015.01-.029.025-.043.036-.118-.109-.253-.207-.352-.33-.306-.403-.352-.875-.313-1.358zm.17 1.754c.35.163.698.326 1.043.49v.022l-1.075-.08c.015-.156.026-.302.033-.432zm.911-.077c.21 0 .38-.007.551.008.04.003.104.072.107.116.014.156.004.312.004.468-.278.073-.392.018-.506-.228-.046-.113-.096-.222-.156-.364zm.267-1.016c.174-.236.334-.454.498-.668a.196.196 0 01.113-.062c.072-.011.142.003.214-.004.157-.021.252.026.33.186.072.141.203.25.189.428-.004.043-.05.116-.078.116-.42.004-.84.004-1.266.004zm.804 1.067c.003-.018.028-.047.042-.047.17-.004.341-.007.512.004.022 0 .05.083.054.13.007.113.003.222.003.385.213-.127.43-.2.566-.348.184-.204.384-.19.625-.164v.963c-.227-.262-.227-.255-.569-.266-.44-.01-.882-.036-1.354-.058.042-.214.078-.406.12-.599zm.942-1.975c.131-.073.256-.033.363.05a.262.262 0 01.096.146c.081.534.039 1.046-.25 1.514-.053.087-.138.153-.217.236-.052-.563-.099-1.085-.145-1.605-.01-.141.018-.268.153-.341zM22.66.29c.434.152.757.407 1.078.66.362.288.718.593 1.102.854.26.178.558.29.846.454-.124-.015-.249-.015-.37-.044-.494-.109-.907-.38-1.287-.704-.452-.385-.889-.792-1.37-1.22zm-7.62 3.936c1.97-.842 4.008-1.452 6.092-1.925.63-.141 1.27-.257 1.903-.395.2-.044.195.116.277.25-2.926.472-5.768 1.18-8.535 2.19.09-.04.174-.084.263-.12zM8.057 21.913c.046.022.092.043.135.069 1.767 1.017 3.57 1.964 5.43 2.788.264.117.324.291.335.538-1.05-.254-4.979-2.495-5.9-3.395zm1.437 1.892l1.013.544a33.498 33.498 0 003.517 1.66c.178.072.143.225.181.37-1.674-.654-3.26-1.485-4.711-2.574zm3.133 2.669l.028-.062c.121.043.245.087.367.134l1.173.458c.23.09.23.087.239.403-.602-.309-1.207-.621-1.807-.933zm-3.12 1.583l.015-.047c.484.134.96.28 1.447.395 1.313.309 2.629.614 3.948.9.245.055.17.248.238.39-1.956-.31-3.851-.792-5.647-1.638zm5.95 2.541c-.921-.16-1.82-.388-2.68-.766l2.012.37c.11.022.22.048.33.055.203.011.338.08.338.341zm-3.584-.42c.54.152 1.074.319 1.618.457.65.167 1.308.312 1.963.46.156.037.302.066.291.302-1.369-.152-2.674-.512-3.872-1.22zm.448 2.625c.067-.008.132-.026.2-.026 1.173-.01 2.343-.018 3.516-.029.324-.004.324-.007.434.367-1.401.047-2.781-.015-4.15-.313zm3.208.95c.373-.035.747-.08 1.123-.1.054-.005.118.104.175.159-.018.022-.036.043-.054.069-.416-.022-.828-.047-1.244-.07v-.057zm.28.567v-.054c.036-.004.068-.011.103-.015.043-.003.082 0 .125 0 .26-.003.52 0 .779-.007.224-.007.224-.01.31.272-.452-.069-.886-.13-1.316-.196zm1.65-4.974a43.3 43.3 0 01-1.745-6.544 111.74 111.74 0 01-.63-3.758c-.139-.93-.234-1.866-.33-2.8a121.661 121.661 0 01-.275-3.01 43.36 43.36 0 01-.113-2.153c-.043-1.383-.071-2.77-.107-4.154 0-.01-.007-.021-.025-.087-.227 5.498-.014 10.915.889 16.297-.039-.207-.082-.41-.117-.618a18.068 18.068 0 01-.107-.624c-.142-.926-.295-1.848-.416-2.778a60.127 60.127 0 01-.26-2.43 126.29 126.29 0 01-.238-3.013 52.44 52.44 0 01-.11-2.574c-.018-1.584-.007-3.17-.004-4.757 0-.243.01-.483.04-.723.006-.061.085-.138.15-.163.902-.352 1.798-.726 2.72-1.031a40.296 40.296 0 015.978-1.475c.245-.043.486-.083.732-.134.096-.022.142.018.17.102.072.21.146.42.232.664-2.418.454-4.762 1.064-7.017 2.008a41.382 41.382 0 017.045-1.764c.086.17.053.312-.007.482-.12.33-.352.418-.662.476-2.578.469-5.099 1.144-7.524 2.175-.153.066-.21.142-.21.316-.004 1.598-.039 3.195-.018 4.79.014 1.092.096 2.185.167 3.278.057.89.118 1.783.224 2.67.164 1.343.349 2.686.558 4.026a42.21 42.21 0 001.423 6.071c.75 2.39 1.71 4.677 3.094 6.761.11.167.228.334.356.527-.072.01-.114.021-.157.021-.17.004-.352-.029-.512.015-.21.054-.288-.055-.384-.203-1.195-1.845-2.077-3.828-2.81-5.886zm.524 6.67c.056.094.11.189.184.312-.924.222-1.831.32-2.752.294-.004-.018-.004-.032-.007-.05.853-.186 1.707-.37 2.575-.556zM7.36 46.154c.092.207.202.403.306.603a.562.562 0 00-.04.054c-.59-.247-1.18-.494-1.746-.726.235.247.484.512.733.777-.01.014-.018.029-.029.04-.892-.418-1.703-.98-2.514-1.543-.014.014-.028.029-.046.043l1.867 2.175c-1.237-.798-2.333-1.768-3.364-2.857.064-.033.1-.059.139-.07 1.08-.362 2.158-.726 3.239-1.085a.553.553 0 01.278 0c.562.12 1.123.247 1.685.37.04.008.079.011.175.026-.185-.171-.335-.305-.484-.44-.299-.265-.605-.523-.9-.791-.046-.044-.085-.138-.075-.2.204-1.173.416-2.342.627-3.515.003-.029.017-.054.035-.098.228.07.448.13.665.203.736.233 1.469.473 2.205.705.11.036.146.083.103.192-.04.098-.071.204-.11.32-.47-.113-.925-.222-1.384-.33-.003.01-.007.018-.007.029.384.17.765.348 1.153.508.124.05.142.105.092.229-.2.504-.398 1.01-.58 1.521-.053.153-.12.185-.259.123a.468.468 0 00-.228-.043c.071.058.139.127.217.174.096.058.114.12.068.225-.502 1.122-1.064 2.212-1.81 3.192-.036.033-.036.134-.011.189zm34.514 3.355a49.796 49.796 0 01-19.958.385c-4.457-.813-8.735-2.186-12.81-4.281a20.692 20.692 0 001.8-3.83c.461-1.326.874-2.666 1.311-4.002a.43.43 0 01-.05-.037c.05 0 .104-.007.154 0 1.607.225 3.21.458 4.819.672 1.337.178 2.677.334 4.022.487 1.23.138 2.46.28 3.691.385 1.486.123 2.977.217 4.466.305 1.626.094 3.247.032 4.869-.084 1.483-.105 2.963-.24 4.442-.385 1.444-.142 2.884-.305 4.324-.483 1.605-.2 3.204-.421 4.808-.639.595-.08 1.185-.163 1.775-.258.192-.032.181.106.21.211a36.51 36.51 0 001.536 4.688c.398.976.85 1.928 1.39 2.832.025.04.043.083.076.142-3.458 1.797-7.095 3.05-10.876 3.892zm15.038-2.625c.431-.53.861-1.057 1.295-1.587a1.385 1.385 0 01-.032-.033c-.818.6-1.664 1.155-2.581 1.623.273-.301.529-.588.767-.853-.704.29-1.433.596-2.165.897-.011-.018-.025-.033-.036-.05.125-.237.242-.477.37-.713.05-.09.05-.152-.018-.24-.71-.921-1.252-1.945-1.739-3.006-.042-.098-.028-.149.053-.21a3.56 3.56 0 00.513-.432c-.203.065-.406.13-.608.2-.075.025-.132.04-.171-.059-.22-.559-.44-1.118-.672-1.7a557.86 557.86 0 001.739-.769c-.004-.007-.004-.014-.007-.022-.555.135-1.11.258-1.661.403-.146.037-.206.008-.235-.134-.021-.098-.06-.196-.103-.323.996-.316 1.985-.632 2.998-.955.053.272.103.53.15.788.177.987.351 1.971.533 2.96.025.126-.007.21-.107.297-.38.327-.754.66-1.117 1.024.25-.055.498-.105.743-.16.342-.076.683-.152 1.025-.225a.345.345 0 01.192.004c1.074.355 2.144.718 3.218 1.078.01.004.018.014.053.044a18.025 18.025 0 01-2.397 2.153z" fill="#34404E"/><path d="M30.617 12.084v-1.017c.011 0 .022-.004.033-.004.252.828.505 1.66.76 2.487.022.004.047.004.068.008.274-.926.551-1.848.825-2.774.014-.004.025-.008.04-.011l.16.995c.12-.41.145-.814.05-1.22-.065-.27-.168-.527-.225-.796-.06-.286-.21-.508-.391-.733-.178-.222-.345-.487-.416-.759-.093-.356-.09-.74-.124-1.111-.022-.225-.047-.454-.068-.68h-.05c-.043.426-.128.85-.117 1.275.014.534-.125.995-.377 1.453-.366.664-.548 1.38-.445 2.153.036.269.128.516.277.734zm.659-2.775c.11-.08.213-.083.323-.003.291.21.388.523.327.846-.12.65-.288 1.289-.44 1.932-.008.025-.026.05-.061.13-.089-.305-.178-.559-.239-.817-.092-.403-.18-.81-.238-1.22-.043-.337.033-.65.328-.868zm.01 14.154c-1.71-.584-3.321-1.383-4.886-2.287-.31-.178-.615-.367-.924-.549.003.03.01.044.024.055a18.079 18.079 0 005.918 3.312.372.372 0 00.235-.015c1.604-.643 3.15-1.409 4.58-2.397.402-.276.779-.588 1.166-.882-.01-.014-.02-.029-.032-.043-.114.072-.227.145-.345.214-1.685 1.024-3.47 1.83-5.284 2.578a.59.59 0 01-.452.014zm-5.114-9.321c.071.087.139.175.21.258.52.625 1.184 1.053 1.885 1.43.886.48 1.753.985 2.543 1.617.202.163.405.33.605.497 1.034-.926 1.39-1.155 2.659-1.717a9.404 9.404 0 002.82-1.94.768.768 0 00-.149.084c-.9.606-1.839 1.14-2.859 1.507-.879.316-1.69.752-2.4 1.365-.075.066-.125.062-.196.004-.857-.708-1.814-1.238-2.82-1.692-.612-.276-1.217-.567-1.746-.992-.178-.141-.349-.297-.523-.443-.011.008-.018.015-.029.022zm10.932 10.647c-.024.01-.05.018-.074.029-1.686.806-3.447 1.42-5.217 1.993a.583.583 0 01-.306.011c-1.52-.388-2.98-.951-4.42-1.576-.363-.156-.723-.323-1.118-.5.036.039.043.05.05.057a17.75 17.75 0 005.57 2.531.317.317 0 00.152-.01c1.49-.473 2.941-1.054 4.31-1.827.367-.207.716-.443 1.074-.665l-.02-.043zm-1.142 3.518c-1.394.646-2.84 1.144-4.295 1.62a.655.655 0 01-.391-.008c-.957-.32-1.917-.639-2.863-.984-.53-.192-1.046-.435-1.594-.668.029.04.036.051.047.058a14.047 14.047 0 004.57 2.12.217.217 0 00.131 0c1.422-.457 2.799-1.023 4.065-1.847.139-.091.274-.193.409-.291-.036-.014-.057-.007-.078 0z" fill="#34404E"/><path d="M31.574 22.62c.37-.163.74-.322 1.099-.5.611-.302 1.216-.614 1.825-.923-.033-.029-.047-.029-.065-.025-.874.323-1.756.636-2.624.98a.898.898 0 01-.718.008c-.886-.349-1.779-.668-2.667-.999l-.022.051c.018.015.032.029.05.04.974.465 1.945.93 2.923 1.387.053.025.139.007.2-.018zm.146 3.614c.53-.189 1.06-.378 1.582-.581.474-.182.94-.385 1.41-.577-.033-.033-.054-.033-.076-.03-.963.28-1.927.567-2.89.843a.613.613 0 01-.303.007c-.41-.116-.811-.258-1.22-.374-.58-.163-1.163-.312-1.743-.464l-.014.036c.014.01.028.025.043.029.995.377 1.991.755 2.987 1.125a.339.339 0 00.224-.014zm5.516-14.35a12.02 12.02 0 01-4.339 1.91c1.174.392 3.656-.697 4.339-1.91zm-9.848 7.476c2.554 1.438 6.025 1.148 8.09-.236-2.684 1.228-5.372 1.304-8.09.236zM38.036 6.499c-.224 2.258-1.245 3.87-3.439 4.539 2.045-.066 3.762-2.15 3.439-4.54zm-13.326.073c-.277 2.385 1.409 4.375 3.46 4.47-.049-.022-.077-.037-.102-.044-1.853-.566-2.884-1.87-3.25-3.773-.047-.214-.075-.432-.107-.653zm1.69 5.363c.164.112.306.189.427.294.38.334.75.679 1.127 1.02.402.363.825.694 1.355.824.192.048.398.051.597.077l.011-.062c-.49-.156-.896-.454-1.28-.788-.206-.182-.406-.37-.615-.548-.463-.403-.96-.745-1.622-.817zm4.491 17.392c.399.171.754.167 1.15-.003.69-.294 1.393-.549 2.094-.82-.01-.026-.018-.052-.029-.077-.81.247-1.621.494-2.44.73a.808.808 0 01-.404.003c-.456-.123-.904-.276-1.36-.403-.358-.101-.721-.185-1.08-.276.018.044.043.062.067.07.673.257 1.348.493 2.002.776zm8.869-15.326a32.242 32.242 0 01-4.263 3.82A14.385 14.385 0 0039.76 14zm-15.658.632a11.738 11.738 0 003.795 3.333c-.665-.534-1.33-1.035-1.956-1.583-.626-.548-1.212-1.147-1.839-1.75zm1.74 17.457a18.866 18.866 0 00-.825-3.834 19.22 19.22 0 00.825 3.835zm-1.103-20.693c.459.418.924.843 1.38 1.257.113-.723-.811-1.47-1.38-1.257zM37.015 30.53c.388-1.05.665-2.103.818-3.185-.274.472-.896 2.847-.818 3.184zm-9.524-14.627l3.087 1.994a9.875 9.875 0 00-3.087-1.994zm4.961 1.733l2.91-1.602-.025-.047c-1.014.447-2.049.864-2.885 1.649zM26.859 2.951a696.55 696.55 0 011.742 2.255 5.476 5.476 0 00-1.742-2.255zm7.525 12.244a3.369 3.369 0 001.916-1.14c-.629.378-1.273.759-1.916 1.14zM29.316 4.64c.025-.497-.256-1.648-.444-1.852.042.654.188 1.267.444 1.852zM33.164 4c-.231.567-.306 1.16-.31 1.77.217-.57.342-1.16.31-1.77zm-4.94 10.778c-.515-.338-1.045-.687-1.596-1.053.42.58.96.922 1.596 1.053zm1.486-1.761c-.227-.556-.458-1.111-.686-1.663-.014.007-.028.01-.042.018.081.617.306 1.173.683 1.667.014-.011.032-.015.046-.022zm2.16-10.625c-.143.53-.19 1.064-.082 1.605.142-.526.188-1.064.081-1.605zm1.998 9.103c-.022-.003-.04-.007-.06-.007-.128.461-.26.919-.388 1.38a.187.187 0 01.042.014c.303-.414.434-.875.406-1.387zM33.352 3.5a2.86 2.86 0 00.48-1.344 2.798 2.798 0 00-.48 1.344zm-2.294 1.928a2.6 2.6 0 00-.007-1.373c-.103.458-.124.915.007 1.373zm-1.055-1.333a2.517 2.517 0 00-.11-1.336c-.09.457-.054.9.11 1.336zm2.165.803c-.142.28-.174 1.002-.056 1.321.124-.305.152-.951.056-1.321zm-6.198 8.504c-.146-.527-.445-.864-.921-1.028.298.334.6.668.92 1.028zm2.322-9.608c.007-.302-.277-.897-.505-1.057.082.454.288.886.505 1.057zm2.169 2.447c.06-.366.032-.715-.125-1.078-.095.392-.035.886.125 1.078zm2.432-3.812c-.16.294-.241.606-.17.998.185-.341.23-.66.17-.998zm-1.845-.618c-.153.28-.188.76-.082 1.013.146-.283.178-.62.082-1.013zm3.342 2.012a1.586 1.586 0 00-.383.893c.245-.185.448-.657.384-.893zm-4.963 1.779c-.022.25.16.581.362.661-.029-.301-.157-.534-.363-.66zm4 .048c-.245.206-.323.45-.352.762.249-.207.33-.447.352-.762zm1.458-2.946c-.263.15-.423.422-.395.647.224-.153.345-.36.395-.647zm11.422 44.528c-1.656.48-3.328.872-5.038 1.199l-.253-1.849c-.263.04-.509.08-.775.12-.192-1.55-.38-3.086-.566-4.604-1.333.156-2.642.312-3.965.468v.19c.011.834.046 1.67.029 2.505-.01.468-.085.936-.182 1.398-.078.37-.313.62-.722.628-.032 0-.067.014-.107.022l.065 1.935c-1.974.156-3.927.153-5.9.105l.085-2.066c-.266-.022-.523-.04-.772-.062 0-.192-.007-.359 0-.53.065-1.213.135-2.429.2-3.642.007-.156.07-.374-.004-.453-.085-.091-.295-.062-.452-.08a31.17 31.17 0 00-.697-.058c-.113 1.56-.227 3.1-.345 4.67-.843-.103-1.664-.2-2.5-.299.175-1.568.342-3.104.512-4.648L23.748 42l-.74 5.719c1.583.196 3.148.389 4.73.58l-.068 1c-1.003-.091-1.977-.157-2.948-.27a60.17 60.17 0 01-2.901-.399 51.33 51.33 0 01-2.877-.548c-.96-.21-1.914-.45-2.86-.712a50.051 50.051 0 01-2.802-.867c-.918-.316-1.817-.683-2.757-1.039.229.123.427.232.627.334 2.65 1.35 5.427 2.328 8.3 3.047a46.5 46.5 0 006.682 1.147c1.142.113 2.294.156 3.443.203 2.581.102 5.152-.047 7.713-.38a45.285 45.285 0 004.972-.934c2.806-.686 5.519-1.634 8.122-2.916.274-.134.54-.283.81-.425-.006-.014-.01-.029-.017-.043-1.586.697-3.214 1.256-4.869 1.735zm-9.576-.748c.15-.759.117-1.528.092-2.294a46.054 46.054 0 00-.028-.669c.618-.072 1.212-.138 1.824-.21.125 1.194.246 2.374.374 3.584-.833.09-1.647.181-2.472.276.075-.247.163-.462.21-.687zm-.719 2.67c-.018-.277-.039-.53-.043-.789 0-.029.076-.083.118-.087.604-.062 1.213-.112 1.82-.181.652-.077 1.303-.167 1.953-.251.029-.004.057 0 .11 0 .033.265.06.516.093.795a49.974 49.974 0 01-4.05.512z" fill="#34404E"/><path d="M44.736 41.1c-1.757-.175-3.296 1.03-3.489 2.763-.192 1.735.893 3.213 2.685 3.246.256-.036.516-.058.772-.113 1.707-.366 2.745-1.942 2.41-3.634-.24-1.224-1.183-2.143-2.378-2.263zm1.177 3.013c0 1.453-1.426 2.103-2.365 1.736-.487-.189-.803-.545-.96-1.046-.214-.679-.163-1.336.285-1.902.451-.57 1.055-.8 1.76-.632.729.174 1.095.715 1.244 1.43.014.07.03.142.032.215.011.065.004.13.004.2zm-25.598 3.054c.43.087.846.174 1.27.261.014-.05.025-.08.028-.108l.566-3.744c.085-.556.17-1.111.245-1.667.007-.05-.04-.149-.074-.156-.353-.084-.705-.149-1.075-.225-.128.74-.252 1.478-.38 2.218-.057-.007-.093-.007-.125-.018-.707-.174-1.411-.352-2.123-.519-.145-.033-.178-.087-.142-.232.139-.625.267-1.253.398-1.877.018-.08.036-.153-.074-.182-.349-.094-.694-.193-1.06-.294-.427 1.855-.85 3.703-1.273 5.559.437.123.846.24 1.266.36.163-.778.323-1.536.484-2.288.8.192 1.568.381 2.343.563.117.025.121.076.103.178-.132.715-.253 1.434-.377 2.171zm12.127-4.474c-.75-.032-1.504-.029-2.259-.043h-.188c-.057 1.928-.114 3.823-.174 5.766h1.309V46.84c.117 0 .2.004.28 0 .491-.018.99.004 1.47-.069 1.034-.153 1.664-.89 1.692-1.917.029-.955-.438-1.7-1.288-1.997a3.01 3.01 0 00-.842-.164zm.228 3.007c-.146.04-.303.062-.456.069-.348.01-.697.004-1.045.004v-2.048c.519.032 1.017.021 1.5.105.445.076.662.454.658.962 0 .468-.223.788-.657.908zm14.75-6.979c-10.995 1.877-21.984 1.88-32.973-.004 4.872 1.195 9.826 1.707 14.823 1.805 6.12.116 12.187-.363 18.15-1.801zm-17.563-2.592c-.05.315-.1.631-.153.947.153-.301.206-.617.153-.947zm3.737 1.078l.075-1.111c-.114.363-.156.73-.075 1.11zm-6.714-1.082c-.103.377-.1.831 0 1.013v-1.013zm9.51.988c.184-.294.256-.625.23-1.003l-.23 1.003z" fill="#34404E"/></svg>