<svg width="77" height="40" viewBox="0 0 77 40" fill="none" xmlns="http://www.w3.org/2000/svg"><g clip-path="url(#clip0)"><path d="M38.634 34.935L54.097 40V0L38.634 5.065v29.87z" fill="#4CC7E9"/><path d="M0 15.216h2.651v1.501a3.57 3.57 0 011.301-1.266 3.545 3.545 0 011.752-.46c2.34 0 4.144 1.749 4.144 4.909v.157c0 3.159-1.782 4.952-4.144 4.952a3.385 3.385 0 01-1.752-.408 3.41 3.41 0 01-1.3-1.25v4.728H0V15.216zm7.152 4.862v-.156c0-1.95-.956-2.891-2.273-2.891-1.38 0-2.34.96-2.34 2.89v.157c0 1.928.914 2.869 2.34 2.869 1.471-.023 2.273-1.009 2.273-2.869zm4.122 1.322v-6.184h2.629v5.804c0 1.3.534 1.927 1.649 1.927 1.114 0 1.983-.694 1.983-2.107v-5.624h2.629v9.59h-2.607v-1.5a3.174 3.174 0 01-1.262 1.306 3.149 3.149 0 01-1.768.397c-1.873 0-3.253-1.099-3.253-3.608zm10.917-10.532h2.63v13.916h-2.63V10.868zm4.991 11.092v-4.862h-1.225v-1.882h1.225v-2.062h2.63v2.062h2.005v1.882H29.81v4.616c0 .762.379 1.143 1.047 1.143.343.014.686-.048 1.003-.18v2.064a4.62 4.62 0 01-1.604.247c-1.983-.002-3.075-1.033-3.075-3.027zm33.8-6.744h2.651v1.837a3.155 3.155 0 011.224-1.48 3.127 3.127 0 011.851-.492v2.465c-1.96-.023-3.075.627-3.075 2.465v4.795h-2.651v-9.59zm6.795 6.184v-6.184h2.63v5.804c0 1.3.534 1.927 1.648 1.927 1.114 0 1.983-.694 1.983-2.107v-5.624h2.629v9.59h-2.63v-1.5a3.174 3.174 0 01-1.262 1.306 3.149 3.149 0 01-1.768.397c-1.85 0-3.23-1.099-3.23-3.608z" fill="#343741"/></g><defs><clipPath id="clip0"><path fill="#fff" d="M0 0h76.667v40H0z"/></clipPath></defs></svg>