<svg width="100" height="18" viewBox="0 0 100 18" fill="none" xmlns="http://www.w3.org/2000/svg"><path d="M15.773 9.872l2.652-2.69a2.757 2.757 0 00-.042-.145c-.001-.008-.005-.014-.006-.02a17.638 17.638 0 00-.66-1.818l-.006-.016-.009-.021c-1.09-2.824-2.18-4.542-2.857-5.02-.136-.095-.255-.146-.354-.142-.46.024-1.024.906-1.503 1.78-.158.291-.308.582-.44.84l-.746 1.296a.488.488 0 01-.304.234.505.505 0 01-.08.017 5.377 5.377 0 01-.175.007l-.055.002-.143.001h-.267c-.056-.001-.11-.001-.163-.003h-.037a14.375 14.375 0 01-.439-.015l5.634 5.713zM1.68 7.017c0 .008-.004.014-.005.02l-.042.144 2.652 2.691L9.92 4.16l-.101.005-.339.01h-.036c-.053.002-.107.002-.163.003h-.267l-.144-.001c-.018 0-.037 0-.054-.002a5.415 5.415 0 01-.175-.007.486.486 0 01-.384-.249l-.745-1.296c-.133-.258-.283-.549-.441-.84C6.59.906 6.026.024 5.567 0c-.092-.004-.205.041-.329.125-.675.453-1.777 2.177-2.88 5.037l-.01.02-.006.017c-.006.01-.347.784-.661 1.818z" fill="#F9AF1F"/><path d="M19.04 10.83a4.983 4.983 0 00-.025-.473c.002 0-.001-.034-.004-.078a3.703 3.703 0 01-.012-.169c-.034-.303-.079-.59-.126-.871l-.066-.394-.02-.113-.015-.089a11.866 11.866 0 00-.155-.746l-.002-.006c-.059-.244-.124-.48-.19-.71l-2.653 2.69 3.014 3.058.022-.066c.142-.332.207-.96.229-1.515.003-.184.004-.362.003-.518z" fill="#F9A11F"/><path d="M9.92 4.16L4.287 9.871l5.743 5.826 5.744-5.826-5.633-5.713a2.051 2.051 0 01-.103-.004h-.014a2.1 2.1 0 00-.104.004zm-8.648 8.77l3.013-3.058-2.653-2.69c-.066.227-.131.465-.19.71l-.001.005a11.88 11.88 0 00-.156.747l-.015.089-.02.113c-.022.126-.045.26-.066.393-.047.28-.092.568-.125.871l-.012.17-.003.038-.002.04a4.131 4.131 0 00-.024.473c-.002.155 0 .333.007.517.022.556.086 1.183.228 1.515.003.02.011.045.019.066z" fill="#F9A11F"/><path d="M15.772 9.872l-5.744 5.826 2.092 2.121.157-.027c.004-.002.009-.002.013-.003l.01-.002c.14-.027.283-.057.428-.09l.018-.005a11.946 11.946 0 001.685-.524c.077-.03.154-.063.231-.095.09-.04.183-.079.274-.12.11-.05.217-.105.326-.16a7.507 7.507 0 00.65-.363c.062-.037.121-.078.182-.117a8.44 8.44 0 00.315-.217 8.273 8.273 0 00.509-.404c.04-.033.079-.065.116-.1a6.43 6.43 0 00.42-.415c.03-.034.057-.068.088-.101a6.223 6.223 0 00.656-.891c.032-.053.065-.104.096-.157a6.14 6.14 0 00.294-.583c.023-.053.047-.112.07-.17l.023-.058c.028-.068.053-.139.078-.205l.004-.014.021-.061c.002-.003.002-.006.003-.01l-3.015-3.055zm-5.744 5.826L4.287 9.872 1.27 12.93l.004.01.02.06.005.014.077.206.023.057c.024.06.047.117.07.17a5.59 5.59 0 00.294.583c.031.055.065.106.096.157a6.825 6.825 0 00.358.528c.095.125.196.245.3.363.03.033.057.07.087.101.134.145.275.283.42.415.037.034.078.066.116.1.11.094.222.188.336.275l.173.128c.102.075.208.146.315.217.06.04.12.08.181.118a9.062 9.062 0 00.651.363c.109.054.216.108.326.16.09.042.181.08.272.119a12.806 12.806 0 00.536.213l.17.058c.408.142.814.258 1.212.348l.018.005c.145.033.287.063.428.09l.01.002c.004.001.009.001.013.003l.157.027 2.09-2.12z" fill="#FF9417"/><path d="M10.029 15.698L7.938 17.82a10.593 10.593 0 001.593.174 17.525 17.525 0 001 0c.12-.004.25-.011.383-.02.37-.027.779-.077 1.21-.154l-2.095-2.12z" fill="#FF8A00"/><path d="M14.99 7.84a1.859 1.859 0 00-1.9-1.642 1.869 1.869 0 00-1.824 1.918c.012.499.219.965.583 1.308a1.873 1.873 0 001.286.514h.052a1.873 1.873 0 001.823-1.917c.002-.062-.012-.12-.02-.181zm-6.31-.402a1.866 1.866 0 00-1.714-1.24 1.861 1.861 0 00-1.9 1.642c-.007.06-.02.12-.022.18a1.872 1.872 0 001.824 1.917h.05a1.863 1.863 0 001.287-.514 1.86 1.86 0 00.474-1.985z" fill="#fff"/><path d="M13.146 6.774a1.276 1.276 0 011.273 1.137.91.91 0 00.012.078.254.254 0 01.006.044c.009.345-.118.672-.357.924a1.29 1.29 0 01-.896.403h-.046a1.287 1.287 0 01-.89-.358 1.287 1.287 0 01-.047-1.828c.238-.25.56-.394.907-.403l.038.003zm0-.577h-.053a1.869 1.869 0 00-1.826 1.917 1.87 1.87 0 001.87 1.822h.051a1.873 1.873 0 001.824-1.917c-.002-.06-.015-.119-.023-.179a1.848 1.848 0 00-.561-1.127 1.844 1.844 0 00-1.282-.516z" fill="#1E1E1F"/><path d="M13.654 8.31a.738.738 0 10.002-1.475.738.738 0 00-.002 1.475zm-6.74-1.536h.038a1.29 1.29 0 011.184.858 1.284 1.284 0 01-.325 1.373 1.296 1.296 0 01-.883.356h-.043a1.29 1.29 0 01-.905-.402 1.28 1.28 0 01-.357-.921l.006-.047c.005-.026.008-.053.012-.08a1.274 1.274 0 011.273-1.137zm0-.577A1.856 1.856 0 005.067 7.84c-.007.06-.02.119-.022.179a1.872 1.872 0 001.824 1.917h.051a1.863 1.863 0 001.287-.514 1.86 1.86 0 00.47-1.986 1.866 1.866 0 00-1.714-1.24c-.014.002-.032.002-.049.002z" fill="#1E1E1F"/><path d="M7.36 8.329a.756.756 0 100-1.512.756.756 0 000 1.512zm6.711 3.054c.145.212.682.02.951-.04.49-.105.986-.137 1.486-.188.984-.1 1.886-.059 2.864-.063.196-.002.577.015.643-.177.124-.36-.401-.464-.672-.488a16.352 16.352 0 00-2.9.013c-.542.05-1.031.062-1.575.206-.196.05-.42.112-.593.225-.147.101-.319.341-.204.511zm-.465 1.007c.097.237.663.162.938.162.5 0 .992.074 1.491.13.983.11 1.856.34 2.813.543.192.04.56.137.666-.037.198-.325-.294-.538-.552-.618a16.277 16.277 0 00-2.837-.598c-.54-.066-1.021-.157-1.583-.131-.202.009-.435.02-.628.096-.163.064-.383.263-.308.452zm-7.643-1.007c-.145.212-.683.02-.951-.04-.491-.105-.986-.137-1.486-.188-.984-.1-1.886-.059-2.864-.063-.196-.002-.577.015-.643-.177-.124-.36.401-.464.671-.488a16.443 16.443 0 012.901.013c.542.05 1.031.062 1.575.206.196.05.42.112.593.225.145.101.319.341.204.511zm.463 1.007c-.096.237-.662.162-.937.162-.502 0-.992.074-1.492.13-.983.11-1.856.34-2.813.543-.192.04-.56.137-.666-.037-.198-.325.295-.538.553-.618a16.277 16.277 0 012.837-.598c.539-.066 1.02-.157 1.582-.131.203.009.435.02.628.096.165.064.385.263.308.452z" fill="#1E1E1F"/><path d="M15.963 11.037a.433.433 0 00-.86.097c.041.381-.078.74-.357 1.066-.4.465-1.072.785-1.711.81-.675.03-1.462-.286-2-.8-.35-.335-.541-.71-.541-1.057 0-.354.13-.475.31-.642.105-.1.226-.21.306-.372a.521.521 0 00-.02-.511c-.167-.268-.52-.332-.995-.336l-.01-.002h-.055l-.01.002c-.477.004-.83.068-.995.336a.521.521 0 00-.02.51c.08.16.2.274.307.373.18.168.31.288.31.642 0 .347-.194.722-.543 1.057-.537.514-1.324.826-1.999.8-.64-.027-1.31-.345-1.71-.81-.28-.326-.4-.685-.357-1.066a.433.433 0 00-.86-.097c-.07.621.123 1.217.56 1.725.557.65 1.45 1.076 2.332 1.112l.123.003c.881 0 1.834-.393 2.512-1.041.147-.14.272-.288.38-.44.11.152.235.3.381.44.678.65 1.63 1.041 2.512 1.041l.123-.003c.881-.036 1.775-.463 2.332-1.112.43-.508.624-1.104.555-1.725zm14.32 2.938h-2.042l-3.245-3.636v3.636h-1.708V2.96h1.708v6.625l3.071-3.477h2.09l-3.484 3.854 3.61 4.013zm1.296-.993c-.808-.803-1.22-1.779-1.22-2.942 0-1.165.412-2.139 1.22-2.942.808-.803 1.804-1.196 2.96-1.196 1.171 0 2.15.393 2.958 1.196.808.803 1.22 1.779 1.22 2.942 0 1.166-.412 2.14-1.22 2.942-.807.803-1.789 1.196-2.959 1.196-1.155 0-2.151-.393-2.959-1.196zm2.96-.455c.695 0 1.281-.237 1.755-.708s.713-1.07.713-1.779c0-.708-.239-1.305-.713-1.779-.474-.471-1.06-.708-1.756-.708-.695 0-1.282.237-1.756.708s-.712 1.07-.712 1.78c0 .707.238 1.304.712 1.778.474.471 1.06.708 1.756.708zm11.998.455c-.808-.803-1.22-1.779-1.22-2.942 0-1.165.412-2.139 1.22-2.942.808-.803 1.804-1.196 2.96-1.196 1.172 0 2.15.393 2.958 1.196.808.803 1.22 1.779 1.22 2.942 0 1.166-.412 2.14-1.22 2.942-.807.803-1.789 1.196-2.959 1.196-1.155 0-2.154-.393-2.959-1.196zm2.96-.455c.695 0 1.281-.237 1.755-.708s.713-1.07.713-1.779c0-.708-.239-1.305-.713-1.779-.474-.471-1.06-.708-1.756-.708s-1.282.237-1.756.708-.712 1.07-.712 1.78c0 .707.238 1.304.712 1.778.474.471 1.06.708 1.756.708zm9.59-8.137c-1.252-.108-1.869.41-1.869 1.56v.156h1.869v1.636h-1.869v6.233H55.51V7.742h-1.203V6.106h1.203v-.157c0-2.155 1.234-3.335 3.577-3.193v1.635zm1.409 8.592c-.808-.803-1.22-1.779-1.22-2.942 0-1.165.412-2.139 1.22-2.942.808-.803 1.804-1.196 2.96-1.196 1.172 0 2.15.393 2.959 1.196.807.803 1.22 1.779 1.22 2.942 0 1.166-.413 2.14-1.22 2.942-.808.803-1.79 1.196-2.96 1.196-1.155 0-2.154-.393-2.959-1.196zm2.96-.455c.695 0 1.281-.237 1.755-.708s.713-1.07.713-1.779c0-.708-.239-1.305-.713-1.779-.474-.471-1.06-.708-1.756-.708-.695 0-1.282.237-1.756.708s-.712 1.07-.712 1.78c0 .707.238 1.304.712 1.778.474.471 1.06.708 1.756.708zm8.024-4.785v3.776c0 1.007.665.99 1.963.929v1.528c-2.61.315-3.671-.393-3.671-2.454V7.742h-1.456V6.106h1.456V4.407l1.708-.504v2.203h1.963v1.636H71.48zm-28.99 0v3.776c0 1.007.665.99 1.963.929v1.528c-2.611.315-3.671-.393-3.671-2.454V7.742h-1.456V6.106h1.456V4.407l1.708-.504v2.203h1.963v1.636H42.49zm32.962 5.24c-.807-.803-1.22-1.779-1.22-2.942 0-1.165.413-2.139 1.22-2.942.808-.803 1.804-1.196 2.96-1.196 1.171 0 2.151.393 2.958 1.196.808.803 1.22 1.779 1.22 2.942 0 1.166-.412 2.14-1.22 2.942-.807.803-1.789 1.196-2.958 1.196-1.156 0-2.152-.393-2.96-1.196zm2.96-.455c.695 0 1.281-.237 1.756-.708.474-.471.711-1.07.711-1.779 0-.708-.237-1.305-.711-1.779-.475-.471-1.061-.708-1.756-.708-.696 0-1.282.237-1.756.708s-.713 1.07-.713 1.78c0 .707.239 1.304.713 1.778.474.471 1.06.708 1.756.708zm7.312.455c0 .645-.538 1.18-1.187 1.18a1.192 1.192 0 01-1.186-1.18c0-.644.507-1.18 1.186-1.18.648 0 1.187.536 1.187 1.18zm3.53-5.554c.427-.976 1.251-1.464 2.437-1.464v1.84c-.647-.047-1.217.11-1.707.471-.492.346-.73.93-.73 1.732v3.968h-1.708v-7.87h1.708v1.323zm9.038-1.322H100v7.869h-1.708v-1.007c-.522.803-1.33 1.213-2.454 1.213-1.82 0-3.038-1.227-3.038-3.24V6.105h1.709v4.657c0 1.18.68 1.826 1.772 1.826 1.204 0 2.011-.739 2.011-2.267V6.106z" fill="#1E1E1F"/></svg>