<svg width="57" height="40" viewBox="0 0 57 40" fill="none" xmlns="http://www.w3.org/2000/svg"><path d="M17.613 22.174l.265-.393c.773-1.155 1.069-2.278 1.085-3.44.016-1.004-.184-2.006-.471-3.063l-1.756-6.336a25.965 25.965 0 00-4.286 1.908c-4.517 2.55-7.32 6.175-7.32 10.272 0 4.099 2.793 7.732 7.319 10.273 3.112 1.757 7.087 3.007 11.5 3.528l-2.043-7.353c-.87-2.887-2.035-4.218-4.293-5.396h-.001zm-9.76-1.052c0-3.488 2.722-6.615 7.04-8.756l.886 3.192c.279 1.002.486 1.916.47 2.743a3.979 3.979 0 01-.702 2.236l-.407.61H7.853v-.025zm.463 2.463h6.943c2.474 1.54 3.377 2.22 4.35 5.766.096.36.08.297.152.56l.526 1.902c-6.016-1.476-10.558-4.53-11.97-8.228zM48.221 7.417c-3.256-2.06-7.295-3.608-11.787-4.458 0 0-6.862 24.394-7.917 28.203-1.22-4.394-7.853-28.22-7.853-28.22-4.533.851-8.604 2.407-11.892 4.484C3.352 10.842 0 15.678 0 21.106c0 5.429 3.352 10.265 8.771 13.69C13.862 38.01 20.838 40 28.5 40c7.66 0 14.638-1.989 19.729-5.205C53.649 31.371 57 26.544 57 21.106c0-5.436-3.36-10.264-8.778-13.688h-.001zM46.042 33.44c-2.338 1.314-5.116 2.38-8.172 3.103a40.717 40.717 0 01-9.346 1.066c-3.28 0-6.441-.377-9.346-1.066-3.064-.722-5.834-1.78-8.172-3.104-2.634-1.484-4.772-3.32-6.265-5.413-1.493-2.101-2.314-4.426-2.314-6.905 0-2.478.82-4.811 2.314-6.904 1.493-2.094 3.631-3.929 6.265-5.414 2.211-1.25 4.813-2.26 7.685-2.982 2.714 9.776 5.435 19.566 8.14 29.325a38.02 38.02 0 001.7.041c.576 0 1.142-.016 1.7-.04 2.714-9.768 5.427-19.55 8.141-29.325 2.865.713 5.468 1.731 7.686 2.983 2.634 1.483 4.772 3.32 6.265 5.412 1.493 2.1 2.314 4.426 2.314 6.904 0 2.479-.821 4.812-2.314 6.905-1.509 2.093-3.647 3.93-6.282 5.413l.001.001zm-1.46-22.59a26.536 26.536 0 00-4.302-1.917c-2.402 8.668-4.812 17.337-7.214 25.99 4.42-.514 8.403-1.772 11.516-3.529 4.517-2.55 7.319-6.175 7.319-10.273 0-4.097-2.793-7.73-7.319-10.272zm-7.846 20.96l5.404-19.446c4.31 2.132 7.038 5.268 7.038 8.756 0 4.789-5.115 8.894-12.441 10.69z" fill="#000"/><path d="M32.514.152c-1.237-.1-2.477-.15-3.718-.152-2.25 0-4.446.16-6.568.457l2.467 9.943h1.628l2.194 12.174 5.067-17.657h-1.812l.742-4.765z" fill="#EF781F"/></svg>