<svg width="77" height="16" viewBox="0 0 77 16" fill="none" xmlns="http://www.w3.org/2000/svg"><g clip-path="url(#clip0)" fill="#C00"><path d="M12.57 14.441c-3.58 0-6.477-2.888-6.477-6.446 0-3.557 2.897-6.436 6.477-6.436a6.46 6.46 0 013.436.975L12.57 7.995l6.468-3.71c-.702-1.11-1.713-2.076-2.926-2.803C14.562.574 12.407 0 10.02 0 6.612 0 3.629 1.224 1.964 3.07.731 4.428 0 6.14 0 8.005c0 1.865.732 3.577 1.964 4.935C3.628 14.785 6.574 16 9.924 16c3.349 0 6.285-1.224 7.96-3.06.086-.106.182-.201.26-.306l-.251-.938a6.516 6.516 0 01-5.323 2.745zm21.445 1.176L31.3 5.557a3.82 3.82 0 00-3.695-2.822 3.91 3.91 0 00-1.31.23l-5.842 2.113h6.006l1.03 3.807a5.703 5.703 0 00-3.715-1.368c-2.82 0-5.102 1.875-5.102 4.199 0 2.314 2.282 4.198 5.102 4.198a6.09 6.09 0 004.937-2.506l.597 2.21h4.707zm-8.278-1.568a2.348 2.348 0 01-2.358-2.343 2.354 2.354 0 012.358-2.343c1.3 0 2.358 1.052 2.358 2.343 0 1.3-1.058 2.343-2.358 2.343zM45.084 2.735c-.357 0-.694.077-.992.22l-3.754 1.74a2.348 2.348 0 00-2.329-1.95 2.34 2.34 0 00-1 .22l-4.582 2.123h3.224v10.539h4.716V6.255c0-.65.53-1.177 1.175-1.177.644 0 1.174.526 1.174 1.177v9.372h4.716V5.078a2.34 2.34 0 00-2.349-2.343zm29.558 0c-.356 0-.693.077-1.001.22l-3.744 1.731a2.348 2.348 0 00-2.33-1.95c-.356 0-.692.076-1 .22l-4.582 2.122h3.224v10.54h4.717V6.245c0-.65.529-1.176 1.183-1.176.655 0 1.175.526 1.175 1.176v9.372H77V5.079c0-1.3-1.059-2.343-2.358-2.343z"/><path d="M62.755 9.372c0 3.663-2.984 6.638-6.67 6.638-3.687 0-6.68-2.975-6.68-6.638 0-3.662 2.993-6.637 6.68-6.637 3.686 0 6.67 2.975 6.67 6.637zm-6.4-4.628a1.468 1.468 0 00-1.8-1.033 1.457 1.457 0 00-1.04 1.788l2.29 8.483a1.481 1.481 0 001.8 1.043 1.462 1.462 0 001.04-1.798l-2.29-8.483z"/></g><defs><clipPath id="clip0"><path fill="#fff" d="M0 0h77v16H0z"/></clipPath></defs></svg>