<svg width="97" height="18" viewBox="0 0 97 18" fill="none" xmlns="http://www.w3.org/2000/svg"><path fill-rule="evenodd" clip-rule="evenodd" d="M13.312 3.829c-.668 2.718-1.983 6.408-2.63 8.53-.081.239-1.498 1.469-1.558 1.667-.122.437 1.335-.436 1.315-.277-.567 5.416 3.278 5.138 7.608.218 2.104 9.503 15.58-.834 11.371-6.944-2.104-3.055-7.405-1.23-9.186.754-1.882 2.123-1.72 7.698-6.272 7.023-.284-5.654 4.37-7.281 4.127-11.924-.08-1.368-.89-1.864-2.387-1.864-1.376 0-1.963 1.09-2.388 2.817zM24.28 7.38c-2.185.972-4.209 9.444-.648 8.333 2.671-.834 4.31-9.98.648-8.333zm-6.72-3.73c-.222 1.667-1.538 3.373-2.367 5.08.324-.933.85-3.255 1.457-4.802.384-1.052 1.153-2.103.91-.278z" fill="#75C02A"/><path fill-rule="evenodd" clip-rule="evenodd" d="M65.09 15.218l.648 1.746c.263.694.425.873 1.174.873.506 0 1.578-.06 1.963-.219 1.436-.595.586-.873.344-2.043-.263-1.31-.709-1.587.364-6.29.668-2.995 2.064-5.97 2.306-8.848l-3.601.06c-.992 2.262-2.206 13.451-6.07 14.88-.344.119-1.214.178-1.599.138-.688-.06-1.234-1.27-1.234-2.003 0-2.957 2.306-8.71 2.55-11.825.08-1.21.12-1.09-1.053-1.23-.991-.099-1.659-.08-2.104-.04-2.105.199-.83.874-.769 2.024.02.496.04 1.091-.06 1.766-.284 2.182-1.276 5-1.74 7.241-1.7 8.412 6.17 7.619 8.882 3.77zM44.088 4.641c1.963-.793 2.064-2.32 4.35-2.182 1.417.08 1.72.417 1.72 1.686 0 2.679-2.57 5.218-3.905 6.567-4.047 4.047-6.556 4.345-5.827 6.964 1.315.139 3.844.218 6.232.159 2.306-.06 4.148.02 5.099-.08.485-1.329.85-1.845.789-3.253-2.813.416-4.087.952-7.082.476 2.044-1.925 8.174-6.904 8.559-10.733.465-4.841-7.365-5.238-9.793-2.718-.729.754-1.316 1.765-.142 3.114z" fill="#E7024A"/><path fill-rule="evenodd" clip-rule="evenodd" d="M13.676.218A58.659 58.659 0 007.99.158C6.574.218 1.718.04 2.001 2.222c.081.555.648.436.81.833.242.595.182 2.024-1.376 7.261-1.599 5.377-2.63 7.956 1.214 7.301.91-.159 1.011-.635 1.092-1.389.223-1.904.729-3.948 1.113-5.852 3.035-.02 6.394.535 6.212-2.56l-5.564.377 1.214-5.852c4.734.02 4.188.635 5.18.555 1.335-.099 1.659-.793 1.7-1.627 0-.277.1-.734.08-1.051zM36.601 8.57c-.06-.098-.667.12-.688.2-.04.138.486-1.171.365-2.203-.102-.952-.607-1.091-1.518-1.23-1.68-.278-2.084.536-2.226 1.766-.445 3.848-.93 6.626-2.488 10.019l3.318.357c2.428-5.714 3.278-7.261 4.188-7.738.324-.178.85-.615 1.275-.654.425-.04.425.754.951.754.364 0 .344-.219.486-.496.243-.496.607-1.131.688-1.39 1.194-4.404-2.914-2.122-4.35.616zm52.77 8.948c1.781-.714 2.853-2.658 2.975-2.539.284.357.263 1.528.466 1.805.404.516.85.774 2.124.437C96.393 16.844 97 15.85 97 14.305l-1.254.833c-.628.416-.587.436-.607-.417-.082-2.024 1.112-3.571.99-4.96-.08-1.15.345-1.23-.97-1.329-.486-.04-.951-.06-1.154-.02-.668.14-.1 1.647-1.457 4.226-1.031 1.964-1.74 2.42-2.995 2.976.223-2.183 1.862-5.575 1.013-7.083-1.235 0-2.469-.02-2.469-.02-.182.199-.101.853-.142 1.29-.06.516-.08 1.25-.304 2.242-.363 1.666-.768 2.777-.627 4.186.102 1.33 1.154 1.766 2.347 1.29zm-10.784-.178l2.55.118c.647-1.468 1.213-3.491 2.205-4.82 2.104-2.838 3.52.694 3.723-4.187-2.307.179-3.015 1.17-3.986 2.639.04-2.46.587-2.917-1.942-2.659-.77.08-.729-.02-.749.774-.02.734.04 1.924-.203 3.234-.384 1.964-1.375 4.206-1.598 4.9z" fill="#75C02A"/><path d="M73.569 12.994v-1.488h-2.995v1.488h2.995zm0 .179h-2.327v4.206h2.327v-4.206zm1.376 0h-1.153v4.206h1.153v-4.206zm2.468 0h-2.266v4.206h2.266v-4.206zm-2.266-1.667v1.488h2.934v-1.488h-2.934zm-2.913-.733c.323.218.83.456 1.112.575h1.902c.263-.119.79-.357 1.113-.575.445-.317.506-.814.324-1.17-.202-.378-.93-.854-1.295-.754-.405.119-1.072 1.031-1.072 1.031s-.628-.912-1.073-1.031c-.384-.1-1.113.376-1.295.753-.222.357-.162.854.284 1.17zm2.893-.913c.303-.357.567-.337.83 0 .263.338-.142.635-.446.754-.303.12-.627.179-.728 0-.081-.178.06-.397.344-.754zm-2.51 0c.264-.337.527-.357.83 0 .304.357.425.576.344.754-.1.179-.424.12-.728 0-.303-.119-.708-.416-.445-.754zm2.328 1.646h-1.153v1.488h1.153v-1.488z" fill="#75C02A"/></svg>