<svg width="42" height="42" viewBox="0 0 42 42" fill="none" xmlns="http://www.w3.org/2000/svg"><path d="M41.996 14.842v19.694c0 2.152-1.814 3.897-4.018 3.837-2.127-.06-3.793-1.832-3.793-3.923V14.841c0-.314.26-.57.58-.57h1.587c.32 0 .58.254.58.57V34.49c0 .59.487 1.146 1.087 1.183a1.153 1.153 0 001.234-1.138V14.842c0-.314.26-.57.58-.57h1.587c.32 0 .58.254.58.57h-.004zM6.903 28.663H.58c-.32 0-.58.255-.58.57v1.572c0 .314.26.569.58.569h1.817V41.43c0 .315.259.57.58.57H4.51c.319 0 .58-.255.58-.57V31.374h1.816c.32 0 .58-.255.58-.57v-1.572a.575.575 0 00-.58-.57l-.002.001zm26.543-7.668c0 3.793-3.14 6.878-7 6.878h-.091c-3.859 0-6.999-3.086-6.999-6.878 0-3.791 3.14-6.877 6.999-6.877h.092c3.86 0 6.999 3.086 6.999 6.877zm-2.695 0c0-2.33-1.931-4.229-4.304-4.229h-.095c-2.372 0-4.302 1.897-4.302 4.23 0 2.331 1.93 4.227 4.302 4.227h.095c2.372 0 4.304-1.896 4.304-4.228zm10.665 18.306h-6.652c-.32 0-.58.255-.58.57v1.559c0 .315.26.57.58.57h6.652c.32 0 .58-.255.58-.57v-1.56c0-.315-.26-.57-.58-.57zM.58 13.328h3.16c.32 0 .58-.255.58-.57V11.2c0-.314-.26-.57-.58-.57h-.994V.57a.575.575 0 00-.58-.57H.58C.26 0 0 .255 0 .57v12.19c0 .313.26.57.58.57v-.002zm36.35-10.63h4.486c.32 0 .58-.255.58-.57V.57c0-.315-.26-.57-.58-.57h-6.652c-.32 0-.58.255-.58.57v12.19c0 .313.26.57.58.57h6.652c.32 0 .58-.255.58-.57V11.2c0-.313-.26-.57-.58-.57h-4.487V8.017h4.272c.32 0 .58-.255.58-.57v-1.56c0-.314-.26-.57-.58-.57h-4.272v-2.62zM5.09 12.603L8.847.413A.59.59 0 019.412 0h1.997a.577.577 0 01.547.384l4.29 12.183a.582.582 0 01-.56.77h-1.662a.579.579 0 01-.548-.383l-.579-1.645a.59.59 0 00-.56-.39H8.915a.59.59 0 00-.566.412l-.494 1.601a.58.58 0 01-.555.404H5.642a.572.572 0 01-.556-.735l.005.002zm4.219-4.38h2.503L10.642 4.9c-.051-.148-.266-.144-.312.005L9.309 8.221v.001zm7.781 4.536V.581c0-.314.26-.57.58-.57h10.68c2.644 0 4.923 2.124 4.938 4.722.01 1.792-.996 3.357-2.483 4.174l2.322 3.54a.57.57 0 01-.486.88h-1.886a.583.583 0 01-.487-.26l-2.333-3.555h-7.519c-.32 0-.58.255-.58.57v2.677c0 .314-.26.57-.58.57h-1.587a.576.576 0 01-.58-.57h.001zm2.746-5.944h8.618c1.253 0 2.253-1.09 2.067-2.356-.148-1.02-1.09-1.749-2.14-1.749h-8.545v4.105zM0 27.15V14.843c0-.315.26-.57.58-.57h11.21c3.843 0 6.955 3.127 6.839 6.927-.11 3.657-3.262 6.519-6.985 6.519H.581a.575.575 0 01-.581-.57v.001zm2.691-2.075h8.998c2.248 0 4.164-1.714 4.249-3.922.09-2.32-1.805-4.236-4.148-4.236H2.691v8.158zm8.432 6.293h21.574c.32 0 .58-.255.58-.57v-1.559c0-.315-.26-.57-.58-.57H8.959c-.32 0-.58.255-.58.57v12.19c0 .315.259.57.58.57h23.738c.32 0 .58-.255.58-.57v-1.56c0-.315-.26-.57-.58-.57H11.123v-2.614H32.49c.32 0 .58-.255.58-.57v-1.559c0-.315-.26-.57-.58-.57H11.124v-2.622l-.002.004z" fill="#FF3F52"/></svg>