<svg width="90" height="18" viewBox="0 0 90 18" fill="none" xmlns="http://www.w3.org/2000/svg"><path fill-rule="evenodd" clip-rule="evenodd" d="M14.406 14.248c-.444-2.175-2.052-4.318-3.154-4.447-1.357.44-1.995 1.15-3.547 2.301-1.023.757-1.847 1.079-1.847 1.079s1.967 3.69 4.496 2.8c1.106-.39 2.012-2.565 4.052-1.733z" fill="#23B175"/><path fill-rule="evenodd" clip-rule="evenodd" d="M17.4 17.019c1.88-3.657 5.034-5.496 5.034-5.496s-1.618-1.531-4.406-2.29c-3.351-.908-5.627.01-5.627.01s2.405 1.23 3.131 5.253c.425 2.357 1.755 2.524 1.869 2.524" fill="#EC5956"/><path fill-rule="evenodd" clip-rule="evenodd" d="M12.99.023C11.484-.06 9.846.08 8.07.524c-5.116 1.287-10.2 6.753-7.15 11 2.774 3.658 7-1.3 9.905-2.786-1.131-2.92-.048-6.067 2.165-8.715z" fill="#27A8E0"/><path fill-rule="evenodd" clip-rule="evenodd" d="M14.218.146c-2.186 2.437-3.33 5.355-2.438 8.179 6.258-2.35 11.412 2.393 11.412 2.393s1.25-3.253-1.223-6.355C20.485 2.498 17.822.666 14.218.146z" fill="#FAAD40"/><path fill-rule="evenodd" clip-rule="evenodd" d="M31.92 8.325v3.573c.326.039.88.095 1.555.095 1.595 0 2.463-.673 2.463-1.948 0-1.141-.868-1.72-2.346-1.72H31.92zm0-5.484v3.417h1.592c1.097 0 2-.557 2-1.794 0-1.102-.844-1.68-2.114-1.68-.538 0-1.056.02-1.478.057zM29.553.658a96.008 96.008 0 013.882-.095c3.211 0 4.425 1.468 4.425 3.34 0 1.544-.772 2.53-1.921 3.07v.039c1.322.33 2.36 1.35 2.36 3.147 0 2.781-2.15 4.057-4.997 4.057-1.23 0-2.958-.04-3.749-.097V.659zm10.434 13.479v-8.69h2.209v5.504l4.036-5.503h2.212v8.69h-2.212V8.635l-4.036 5.501h-2.209zM55.502 9.58l3.728 4.556h-2.88l-3.425-4.381 3.116-4.306h2.787L55.503 9.58l-.001-.001zm-4.861 4.556h2.207V5.45h-2.207v8.69-.003zm9.633.001v-8.69h2.207v5.504l4.04-5.503h2.21v8.69h-2.21V8.635l-4.04 5.501h-2.207zm15.593 0C74.6 17.248 73.79 18 72.523 18c-.788 0-1.365-.31-1.866-.674l.712-1.682c.23.135.558.31.902.31.557 0 .96-.444 1.327-1.352l.192-.465-3.999-8.69h2.653l2.02 4.752c.175.425.29.83.421 1.256.077-.405.154-.831.308-1.276l1.558-4.731h2.518l-3.402 8.69zm4.465-8.69h1.998l2.94 3.632 2.787-3.632H90v8.69h-2.213V8.828l-2.553 3.244h-.06l-2.633-3.244v5.309h-2.21v-8.69z" fill="#000"/></svg>