<svg width="78" height="16" viewBox="0 0 78 16" fill="none" xmlns="http://www.w3.org/2000/svg"><path d="M46.447 6.283l-2.054 4.64-2.784-4.64h-4.867l-2.75 6.02-1.392-6.08h-4.354s-.638.003-1.176.234a3.83 3.83 0 00-.8.495l-4.073 3.598c-2.519 1.988-6.927 3.135-8.159 3.19-5.865.267-7.088-3.748-6.682-5.646 1.048-4.903 8.637-6.065 12.62-6.065 1.89 0 3.44.374 4.637.707l1.153-2.06-.847-.18C23.868.367 22.229.01 19.433 0 8.125-.037 2.32 3.145.552 7.226-1.443 11.832 1.926 16 11.4 16c1.719 0 5.118-.15 8.314-1.305h3.083l1.582-1.405h4.775l.201 1.503h5.205l-.007-.035h2.782l2.219-4.864 2.91 4.86 4.514.002 3.872-8.473h-4.403zM26.192 11.59l2.54-2.424.241 2.365-2.781.059zm32.944-5.307H52.02l-3.873 8.473h7.119c5.694.046 8.01-2.15 8.776-3.834.856-1.863.121-4.64-4.905-4.64zm.737 4.095c-.545 2.123-3.673 2.262-4.738 2.262h-1.262l1.87-4.236h1.263c1.152-.002 3.316.216 2.867 1.974z" fill="#58B5EB"/><path d="M73.091 6.222L69.536 9.77l-1.199-3.486h-4.353l2.843 6.458-2.823 2.803h3.73s.726-.089 1.028-.195c.302-.109.73-.545.73-.545L78 6.231l-4.909-.009z" fill="#58B5EB"/></svg>