<svg width="62" height="24" viewBox="0 0 62 24" fill="none" xmlns="http://www.w3.org/2000/svg"><path d="M28.67 11.758a.868.868 0 01-.69-.422.857.857 0 01.29-1.177.838.838 0 01.485-.117.865.865 0 01.688.423.856.856 0 01-.29 1.176.838.838 0 01-.483.117zM62 12.832s-.107.068-.147.149c-.035.071-.088.216-.18.45l-2.62 7.157c-.4 1.084-.687 1.866-.433 2.352.067.129.334.18.65.036.252-.112.633-.514.886-.78.057-.06.107-.113.147-.153l.021-.021.03.003c.11.012.244.013.245.013l.115.001-.064.095c-.284.413-.908 1.217-1.557 1.554a2.56 2.56 0 01-1.196.29 1.157 1.157 0 01-.91-.479 1.773 1.773 0 01-.327-1.199c.013-.15.116-.645.253-1.1-1.144 1.545-2.745 2.787-4.002 2.787-.477 0-.796-.19-1.12-.586-.522-.635-.787-1.846-.634-2.97-.138.253-2.346 2.602-3.15 3.178-.16.115-.46.253-.782.23-.718-.088-1.08-.671-1.25-1.935a13.84 13.84 0 01-.092-1.36c-.035-1.168-.07-2.271-.879-2.542a746.31 746.31 0 00-2.108 5.55c-.046.132.063.263.063.263h-2.484s.175-.14.238-.311c.105-.266.296-.752.542-1.37l.051-.131c.19-.48.42-1.04.654-1.63-1.198 1.233-2.504 2.27-2.85 2.52l-.136.092c-.492.335-1.234.842-1.962.848h-.016c-.337 0-.599-.107-.778-.32-.348-.415-.303-1.13-.204-1.658.052-.278.447-1.361.54-1.596l.015-.038c.292-.74.6-1.516.902-2.284h-2.978c-1.079 2.743-1.752 4.493-2.066 5.381-.07.197-.07.287-.047.366a.25.25 0 00.092.13h-2.603s.132-.093.207-.19c.074-.099.101-.154.181-.356l.486-1.23.571-1.436c-1.596 1.785-3.272 2.851-4.912 3.24-.497.117-.954.16-1.36.145-.84-.03-1.34-.231-1.67-.464-.264-.187-.603-.611-.785-1.256-.216.175-2.58 1.673-3.913 1.572-.588-.036-1.018-.253-1.28-.648-.432-.652-.397-1.77.103-3.326-1.538 2.088-3.162 3.981-4.677 3.981h-.04c-.504-.012-.92-.185-1.182-.491-.02.012-.581.32-1.17.501A3.418 3.418 0 019.53 24c-.398.002-.93-.265-1.256-.665-.326-.397-.434-1.036-.332-1.954.088-.788.413-1.902.722-2.909l-.521.605-.028.033c-1.562 1.818-3.168 3.582-4.7 4.375-.305.157-.88.494-1.44.497a1.13 1.13 0 01-.827-.351C.51 22.949-.034 21.844.001 19.512c-.043-2.786 1.676-7.508 3.996-10.98 2.108-3.153 4.334-5 5.404-5.886C12.056.573 14.104-.266 15.664.073c2.573.598 1.897 4.23 1.735 4.952-.492 1.97-1.667 3.844-2.724 4.968 0 0-.245-.154-.249-.155-.07.152-.101.236-.167.4-.054.136-.1.25-.124.299l-.006.015c-.369.904-3.622 8.883-4.09 10.429-.296.972-.262 1.575-.145 1.891.045.119.234.283.535.25.327-.055.825-.258.9-.31a6.078 6.078 0 01-.06-.315c-.064-.524.055-1.045.32-1.396.59-.784 1.217-.693 1.395-.646a.985.985 0 01.758.79.988.988 0 01-.784 1.15.957.957 0 01-.889-.3.915.915 0 00-.02.2v.009a.706.706 0 00.58.703c.393.084.854-.028 1.298-.317 1.476-.956 2.963-2.629 4.078-4.59.343-.6.763-1.477 1.07-2.117l.008-.014c.177-.371.319-.664.401-.817.083-.166.452-1.046.69-1.711.068-.189.113-.311.108-.444a.367.367 0 00-.033-.166h2.759s-.095.071-.151.148c-.05.068-.147.262-.296.524-.136.24-.274.53-.408.816-.113.238-.23.485-.347.704-.138.258-.26.508-.378.752l-.165.335c-2.535 5.083-2.806 6.525-2.604 6.873.084.122.293.136.477.13.84-.039 2.598-1.008 3.344-1.425-.175-1.479.14-3.178.846-4.551 1.264-2.459 3.241-4.013 5.567-4.377 1.208-.185 2.351.33 2.66 1.194.248.695-.052 1.754-.73 2.574-.722.954-2.415 2.53-6.379 4.611l-.141.075a2.75 2.75 0 00-.024.216l-.002.02c-.079.904.191 1.507.78 1.742 1.515.602 4.615-1.176 6.767-3.884 1.426-3.61 2.162-5.506 2.249-5.801.067-.225.11-.383.101-.509-.007-.126-.045-.167-.045-.167h2.509s-.104.094-.176.199c-.108.16-.23.484-.386.881-.056.143-.324.835-.765 1.952-.183.463-.389.982-.603 1.527h2.978c.92-2.342 1.423-3.65 1.493-3.883a1.75 1.75 0 00.09-.61l-.004-.066h2.49s-.068.038-.13.123c-.05.067-.14.248-.184.355l-.108.242-.004.009c-.047.102-.1.22-.156.35-.159.37-1.814 4.596-2.905 7.443a6.402 6.402 0 00-.234.745c-.075.366.033.467.08.505.036.028.127.03.185.013.13-.04.29-.102.615-.329.378-.26 2.125-1.72 3.475-3.023 1.394-3.531 2.145-5.468 2.232-5.758.073-.248.132-.463.127-.546a.247.247 0 00-.041-.13h2.511s-.082.04-.125.098a2.691 2.691 0 00-.155.29c-.134.277-.857 1.968-1.396 3.32 1.224-1.322 3.754-3.627 5.295-3.627.079 0 .155.006.224.019l.024.008a.985.985 0 01.719 1.33.992.992 0 01-.524.546.97.97 0 01-.75.015.984.984 0 01-.616-.943.556.556 0 01.151-.321c-.033.016-.15.074-.184.093-1.096.586-3.195 2.29-4.351 3.67.003 0 .163.01.246.021.499.07.828.145 1.048.321.545.44.856 1.573.995 3.466.052.513.083.849.098.939.027.161.148.253.255.248a.832.832 0 00.34-.12c.653-.399 2.095-1.832 2.936-2.976a8.69 8.69 0 01.6-1.404c1.434-2.773 3.027-4.325 4.873-4.742 1.787-.298 2.479.304 2.66.513.061-.162.254-.763.254-.766H62v.004zm-33.64.823c-1.986 1.297-3.61 5.083-4.063 6.887.677-.342 1.62-1.01 3.04-2.153 2.18-1.754 3.068-3.863 2.641-4.812a.502.502 0 00-.335-.242.982.982 0 00-.248-.03c-.317 0-.694.127-1.035.35zM1.395 22.149c.095.694.463 1.069 1.015.996 2.243-.32 6.829-6.156 7.201-7.172l2.832-6.646a1.12 1.12 0 00.126-.49c0-.148-.031-.26-.031-.26s2.197.015 2.397.005l.035.06c.394-.29 1.304-2.014 1.684-3.196.511-1.591.645-3.617-.514-4.582-.927-.775-2.431-.096-3.26.386-3.087 1.751-5.447 5.268-7.573 8.803-1.172 1.95-1.898 3.491-2.876 6.112-.501 1.392-.836 2.65-.995 3.74-.046.313-.175 1.18-.041 2.244zm57.841-7.646c.074-.198.117-.315.14-.366-.043-.096-.247-.253-.555-.367a2.113 2.113 0 00-.728-.133 1.71 1.71 0 00-.862.224c-.656.355-1.73 1.287-3.126 3.712-.839 1.569-1.3 2.837-1.374 3.769-.109 1.167.584 1.38.881 1.39 1.12-.011 2.734-1.081 3.806-3.45l.177-.46c.193-.492.514-1.32.818-2.127l.648-1.724.175-.468zm-27.72-2.752a.857.857 0 00.862-.851.857.857 0 00-.862-.852.858.858 0 00-.864.852c0 .47.387.851.864.851z" fill="#662400"/></svg>