<svg width="98" height="24" viewBox="0 0 98 24" fill="none" xmlns="http://www.w3.org/2000/svg"><path d="M1.145 9.774c5.816.775 10.238 5.2 11.014 11.02L7.664 21.94C7.333 17.712 4.225 14.603 0 14.272l1.145-4.498z" fill="#965EEB"/><path d="M9.643.022l4.508 1.155C13.307 8.469 7.465 13.962 0 14.277V9.675C5.32 9.339 9.3 5.342 9.643.022z" fill="#04E061"/><path d="M20.76 12.188C14.566 11.36 9.954 6.4 9.642.022l4.6-.001c.33 4.229 3.436 7.338 7.663 7.67l-1.147 4.497z" fill="#FF4053"/><path d="M12.263 21.94H7.664c.331-7.857 6.39-13.92 14.24-14.248v4.6c-5.31.331-9.299 4.329-9.641 9.648z" fill="#0AF"/><path d="M49.933 12.326h2.263v-6.54h2.347V3.672H47.57v2.114h2.363v6.54zm-8.8 4.73a2.49 2.49 0 10-.017 4.981c1.375 0 2.515-1.124 2.515-2.483a2.494 2.494 0 00-2.498-2.498zm0 3.706a1.215 1.215 0 111.224-1.208 1.202 1.202 0 01-1.224 1.208zm-13.526 1.191h1.24v-3.605h1.811v3.606h1.24V17.14h-4.291v4.813zm38.802-9.627h2.263v-6.54h2.347V3.672h-6.956v2.114h2.346v6.54zM30.306 9.744h4.995l.972 2.582h2.514L34.097 0h-2.602l-4.708 12.326H29.3l1.006-2.582zm2.497-6.588l1.642 4.327H31.16l1.643-4.327zm43.009 9.322c2.062 0 3.67-1.326 4.153-2.918H77.61c-.236.519-.872.854-1.794.854-1.173 0-2.062-.754-2.112-1.81h6.42c.03-.251.046-.503.05-.756a4.355 4.355 0 00-4.358-4.344A4.489 4.489 0 0071.34 8c-.003 2.449 1.89 4.478 4.472 4.478zm0-6.91c1.023 0 1.76.637 1.978 1.509h-4.038a2.111 2.111 0 012.06-1.51zM35.769 17.056c-.569 0-1.156.297-1.406.62v-.536h-1.208V24h1.24v-2.583c.267.387.836.62 1.373.62 1.257 0 2.297-1.107 2.297-2.482 0-1.375-1.038-2.499-2.296-2.499zm-.197 3.707a1.216 1.216 0 111.223-1.208 1.202 1.202 0 01-1.226 1.208h.003zm40.76-4.897h-1.275v1.274h-.82v1.156h.754v2.046c0 1.158.637 1.66 1.542 1.66a2.32 2.32 0 00.89-.166v-1.208a1.284 1.284 0 01-.486.099c-.385 0-.67-.168-.67-.688v-1.743h1.154V17.14h-1.088l-.001-1.274zm3.905 1.19a2.507 2.507 0 00-2.514 2.498c0 1.359 1.14 2.483 2.514 2.483a2.49 2.49 0 100-4.981zm0 3.706a1.217 1.217 0 111.228-1.208 1.2 1.2 0 01-1.228 1.208zm-6.554-3.622h-1.274v4.813h1.274V17.14zm-.586-2.198a.934.934 0 00-.939.94.877.877 0 00.905.906.92.92 0 00.965-.905.919.919 0 00-.268-.667.927.927 0 00-.663-.274zM95.825 3.673v1.039c-.419-.587-1.458-1.207-2.498-1.207-2.274 0-4.206 1.911-4.206 4.493 0 2.551 1.927 4.48 4.206 4.48.972 0 1.978-.538 2.498-1.188v1.04H98V3.673h-2.175zm-2.23 6.509a2.186 2.186 0 01-2.197-2.293 2.188 2.188 0 014.373.116 2.178 2.178 0 01-2.176 2.177z" fill="#000"/><path d="M89.053 3.672h-2.665l-2.699 3.64v-3.64h-2.228v8.654h2.228V8.302l2.934 4.024h2.749l-3.374-4.548 3.055-4.106zM54.056 17.14h-1.457l-1.526 2.03v-2.03h-1.24v4.814h1.24v-2.231l1.676 2.23h1.476l-1.916-2.555 1.747-2.258zm15.27 3.053l-1.107-3.053h-1.341l1.794 4.813h1.341l1.826-4.813H70.5l-1.173 3.053zM47.151 9.912c0-1.124-.704-1.781-1.744-2.013.721-.302 1.257-.922 1.257-1.996 0-1.023-.82-2.23-2.53-2.23h-4.509v8.653h4.424c2.046 0 3.102-1.19 3.102-2.414zm-5.364-4.428h1.744c.692 0 .988.369.988.839s-.419.855-.988.855h-1.744V5.484zm2.045 5.032h-2.045V8.67h2.045c.704 0 1.107.352 1.107.906s-.403.94-1.107.94zm2.8 6.54c-1.358 0-2.414 1.124-2.414 2.499 0 1.359 1.005 2.483 2.413 2.483a2.274 2.274 0 002.23-1.627h-1.224c-.151.319-.47.486-1.005.486-.654 0-1.14-.419-1.174-1.007h3.487a4.37 4.37 0 00.032-.418c0-1.292-.972-2.416-2.345-2.416zm-1.14 1.979a1.162 1.162 0 011.14-.838 1.093 1.093 0 011.105.839l-2.245-.001zm8.916-.704h1.375v3.623h1.256V18.33h1.375v-1.19h-4.006v1.191zm9.32-10.349a4.48 4.48 0 00-5.353-4.395 4.473 4.473 0 00-3.513 3.527 4.48 4.48 0 004.407 5.344 4.458 4.458 0 004.459-4.476zm-4.476 2.177a2.175 2.175 0 01-1.918-3.203 2.18 2.18 0 012.448-1.086 2.174 2.174 0 011.646 2.112 2.18 2.18 0 01-2.176 2.182v-.005zm4.124 4.935l-2.615 6.864h1.407l.529-1.427h2.753l.523 1.427h1.392l-2.548-6.86-1.441-.004zm-.215 4.176l.919-2.482.91 2.482h-1.83z" fill="#000"/></svg>