<svg width="92" height="30" viewBox="0 0 92 30" fill="none" xmlns="http://www.w3.org/2000/svg"><g clip-path="url(#clip0_2863_681)"><path d="M30.52 0H.5v30h30.02V0z" fill="#FF0032"/><path d="M20.5 2.286v1.4h3.017v5.566h1.69V3.686h3.017v-1.4H20.5zm-10.866.021L7.427 6.886 5.22 2.307H2.811V9.23h1.69V4.276L6.656 8.46h1.54l2.158-4.185V9.23h1.689V2.307h-2.41zM26.53 25.384a1.149 1.149 0 01-.33.674c-.19.173-.424.291-.676.341a5.345 5.345 0 01-1.118.101c-.4.007-.797-.05-1.178-.172a1.467 1.467 0 01-.765-.576c-.184-.273-.275-.666-.275-1.166v-.71c0-.503.093-.896.276-1.169a1.46 1.46 0 01.762-.575c.38-.122.779-.18 1.178-.173.376-.006.75.029 1.119.101.251.05.485.168.675.34.183.183.3.42.33.676h1.691a2.454 2.454 0 00-.579-1.448 2.647 2.647 0 00-1.27-.774 7.16 7.16 0 00-1.964-.235c-.81 0-1.513.117-2.088.346a2.665 2.665 0 00-1.35 1.154c-.299.511-.455 1.194-.466 2.03v.077l.09.003h-.09v.077c.01.836.167 1.519.465 2.03.305.528.782.935 1.351 1.154.576.23 1.279.346 2.088.346a7.133 7.133 0 001.965-.235c.488-.13.93-.4 1.27-.774.345-.407.548-.915.578-1.448l-1.688.005z" fill="#fff"/><path d="M38.648 17.422c.287 2.438 1.977 3.394 5.741 3.394 3.716 0 5.407-1.004 5.407-3.41 0-4.861-8.756-1.833-8.756-4.718 0-1.211 1.053-1.594 3.158-1.594 1.818 0 2.966.335 3.142 1.578h2.28c-.223-2.31-2.057-3.235-5.422-3.235-3.397 0-5.343.988-5.343 3.299 0 4.909 8.74 1.753 8.74 4.797 0 1.148-.989 1.626-3.206 1.626-2.153 0-3.158-.35-3.46-1.737h-2.281zm13.066-7.794v10.997h2.233v-4.733h6.523v4.733h2.232V9.628H60.47v4.447h-6.523V9.628h-2.233zm23.743 6.04c0 2.47-1.435 3.411-4.274 3.411-2.855 0-4.274-.956-4.274-3.41v-1.132c0-2.423 1.42-3.363 4.274-3.363 2.839 0 4.274.94 4.274 3.363v1.131zm-10.797-.59c0 4.24 2.265 5.738 6.523 5.738 4.258 0 6.523-1.498 6.523-5.737 0-4.176-2.265-5.642-6.523-5.642-4.258 0-6.523 1.466-6.523 5.642zm15.026-5.45v10.997h2.233v-3.857h4.705c2.567 0 3.732-1.323 3.732-3.586 0-2.231-1.165-3.554-3.732-3.554h-6.938zm8.42 3.81c0 .955-.525 1.593-1.785 1.593h-4.402v-3.666h4.402c1.26 0 1.786.67 1.786 1.61v.462z" fill="#000"/></g><defs><clipPath id="clip0_2863_681"><path fill="#fff" transform="translate(.5)" d="M0 0h91v30H0z"/></clipPath></defs></svg>