<svg width="77" height="25" viewBox="0 0 77 25" fill="none" xmlns="http://www.w3.org/2000/svg"><path d="M19.71 4.032c0-.048.049-.097.097-.145l.097-.097h.048s.049.049.049.097v.145l-1.356 5.662h2.663l1.598-7.646c0-.048 0-.096.049-.193V1.66a.974.974 0 00-.146-.532c-.096-.145-.242-.242-.387-.339-.145-.096-.339-.145-.581-.193-.194-.049-.436-.049-.678-.049-.533 0-.969.097-1.308.242-.339.145-.678.484-.92.968l-2.857 4.839c-.048.097-.097.193-.194.242-.048.096-.145.096-.193.096-.049 0-.097-.048-.146-.096-.048-.097-.048-.145-.097-.242l-.774-4.839c-.097-.484-.243-.774-.533-.968-.29-.145-.678-.242-1.162-.242-.533 0-.969.097-1.405.34-.436.241-.678.628-.823 1.16L9.2 9.694h2.664l1.114-5.71c0-.049.048-.097.048-.097 0-.048.049-.048.049-.048.048 0 .048 0 .096.048.049.048.049.097.049.145l.823 4.936c.048.29.194.484.387.629.194.145.485.193.824.193.339 0 .678-.048.92-.193.242-.145.484-.339.63-.63l2.905-4.935zm12.688 5.662l1.598-7.549c0-.048 0-.097.049-.193v-.194a1.35 1.35 0 00-.29-.87C33.56.644 33.22.5 32.736.5c-.436 0-.872.048-1.259.145a1.707 1.707 0 00-.969.678L26.49 6.16c-.047.049-.096.097-.144.194-.049.048-.097.097-.194.097a.104.104 0 01-.097-.097V6.21L27.362.645h-2.664L23.1 8.29c0 .049 0 .097-.048.145v.146c0 .338.096.629.339.822.242.194.532.339.968.339.436 0 .872-.048 1.26-.145.387-.097.774-.339 1.113-.774l3.971-4.742.194-.194c.048-.048.097-.048.145-.048.049 0 .097.048.097.096v.194l-1.308 5.565h2.567zm1.404 0h2.664L37.87 3.21c.097-.387.34-.581.727-.581h5.52l.388-1.935h-7.07c-.63 0-1.114.145-1.405.387-.29.29-.532.725-.63 1.306l-1.597 7.307z" fill="#32E17D"/><path d="M8.62 4.516a4.578 4.578 0 00-.242-.532L6.635.645H3.923l1.84 3.29H.436L0 5.968h5.279L1.695 9.694h3.148L8.039 6.21c.194-.194.339-.387.484-.581.146-.194.242-.435.242-.629-.048-.194-.048-.339-.145-.484z" fill="#6E50E1"/><path d="M77 16.42h-5.327l3.438-3.63h-2.954l-2.809 3.194c-.242.29-.435.532-.63.726-.144.242-.241.435-.241.726 0 .145 0 .241.048.338.049.097.097.242.194.436l1.985 3.532h2.81l-1.986-3.339h4.988L77 16.42z" fill="#32E17D"/><path d="M9.25 21.694H6.635l1.888-8.904h2.615L9.25 21.694zm6.78 0h-3.003l-2.082-3.34c-.242-.386-.388-.725-.388-1.015 0-.387.29-.871.823-1.452l3.1-3.097h3.05l-3.728 3.678s-.097.048-.145.145l-.146.145c-.048.049-.048.097-.145.145-.048.049-.097.097-.097.145 0 .049-.048.097-.048.146 0 .048-.049.096-.049.193 0 .194.049.387.242.58l2.616 3.727zm4.116-8.904h3.341c1.163 0 1.938.29 2.422.823.436.58.678 1.355.678 2.42 0 .338-.049.87-.194 1.548-.29 1.5-.775 2.564-1.453 3.145-.678.629-1.695.92-3.196.92h-2.567l-.58 2.854H15.98l2.131-10.016c.242-1.113.92-1.694 2.034-1.694zm.387 2.565l-.92 4.403h1.84c.678 0 1.163-.242 1.502-.677.339-.436.58-1.065.726-1.84.097-.483.145-.918.145-1.257 0-.436-.096-.726-.29-.968-.194-.242-.533-.339-1.066-.339h-1.162c-.242 0-.436.049-.532.146a1.36 1.36 0 00-.243.532zm14.674 6.339H30.17c-1.065 0-1.84-.242-2.324-.678-.484-.435-.727-1.113-.727-2.032 0-.63.097-1.403.291-2.274.145-.726.34-1.307.533-1.79a4.32 4.32 0 01.678-1.162c.242-.29.58-.532.968-.677a5.195 5.195 0 011.308-.29 17.566 17.566 0 011.84-.098c1.356 0 2.373.194 3.051.581.678.387 1.017 1.113 1.017 2.08 0 .291-.048.727-.145 1.21-.097.533-.29.92-.581 1.162-.29.242-.678.338-1.211.338H29.83c-.048.194-.048.436-.048.63 0 .338.097.629.339.774.242.193.63.242 1.162.242h4.31l-.387 1.984zm-4.988-5.371h3.245c.339 0 .532-.194.58-.533 0-.096.05-.193.05-.242 0-.338-.146-.58-.485-.725a2.927 2.927 0 00-1.163-.242c-.677 0-1.21.145-1.55.387-.29.242-.532.677-.677 1.355zm5.714 5.371l.388-1.936h.872l3.97-6.048c.436-.678 1.163-1.017 2.18-1.017 1.017 0 1.598.34 1.743 1.017l1.356 6.048h1.162l-.387 1.936H35.933zm6.732-6.484l-2.809 4.645h4.213l-.823-4.645c-.049-.194-.097-.29-.242-.29-.097 0-.242.096-.34.29zm14.625 6.484h-2.615l1.307-5.468v-.145c0-.049-.048-.097-.096-.097-.049 0-.146.097-.34.242l-3.874 4.645c-.29.387-.63.629-.968.726a4.673 4.673 0 01-1.308.193c-.387 0-.726-.096-.968-.338-.242-.194-.34-.484-.34-.823 0-.048 0-.145.05-.339l1.597-7.548h2.615l-1.259 5.468v.145c0 .048.049.097.097.097s.097 0 .097-.049c.048 0 .048-.048.097-.096.048-.049.048-.097.097-.097l3.97-4.742c.437-.533 1.163-.823 2.18-.823.436 0 .726.097.968.339.243.242.34.532.34.87 0 .05 0 .194-.049.34l-1.598 7.5zm6.586 0h-2.615l1.501-6.968h-3.341l.387-1.936h9.25l-.388 1.936h-3.293l-1.5 6.968z" fill="#6E50E1"/></svg>