<svg width="66" height="21" viewBox="0 0 66 21" fill="none" xmlns="http://www.w3.org/2000/svg"><path d="M28.644 20.439v-9.275h-8.797v9.275h2.762V13.61h3.268v6.829h2.767zm6.046-6.093c0 .242-.08.421-.238.542a.955.955 0 01-.594.179h-1.75v-1.46h1.75a.97.97 0 01.594.179c.157.124.238.311.238.56zm2.804 0c0-.436-.069-.845-.21-1.23a2.946 2.946 0 00-.629-1.017 2.925 2.925 0 00-1.034-.69c-.41-.167-.882-.249-1.41-.249h-4.87v9.275h2.762v-2.922h2.108c.529 0 1-.082 1.41-.249.41-.168.755-.397 1.034-.69a2.88 2.88 0 00.628-1.008c.139-.374.211-.783.211-1.22zm-22.927 6.093V8.44l-7.283 9.255L0 8.441V20.44h14.567zm30.437-4.632c0 .323-.054.627-.157.911-.104.285-.253.53-.445.737-.191.21-.421.374-.69.494-.268.121-.567.18-.896.18-.33 0-.628-.059-.897-.18a2.064 2.064 0 01-.69-.494 2.226 2.226 0 01-.444-.736 2.645 2.645 0 01-.157-.912c0-.323.054-.627.157-.912.104-.284.253-.53.445-.736.191-.21.421-.374.69-.494a2.15 2.15 0 01.896-.18c.33 0 .628.063.896.18.269.12.499.284.69.494.192.21.341.456.445.736.103.285.157.589.157.912zm2.804 0a4.85 4.85 0 00-.383-1.955 4.536 4.536 0 00-1.053-1.516 4.805 4.805 0 00-1.587-.981 5.545 5.545 0 00-1.97-.347c-.7 0-1.36.117-1.968.347a4.704 4.704 0 00-1.587.981 4.526 4.526 0 00-1.053 1.516c-.257.588-.383 1.238-.383 1.955 0 .713.126 1.363.383 1.955a4.5 4.5 0 001.053 1.516c.449.42.977.748 1.587.981.609.23 1.268.347 1.969.347.701 0 1.36-.117 1.97-.347a4.707 4.707 0 001.585-.981 4.54 4.54 0 001.054-1.515c.257-.589.383-1.243.383-1.956z" fill="#232C31"/><path d="M48.931 9.416L45.333 4.45 48.778.138h-3.376l-2.394 3.478V.138h-2.763v9.278h2.763V6.842l.505-.694 2.054 3.268h3.364z" fill="#A6093D"/><path d="M54.092 9.346c.456-.167.85-.381 1.184-.639a4.07 4.07 0 00.835-.876c.222-.323.402-.639.54-.947l-2.38-1.114a1.726 1.726 0 01-.252.522 2 2 0 01-.402.425c-.154.12-.33.218-.521.292a1.62 1.62 0 01-.59.113 2.22 2.22 0 01-.905-.18 2.127 2.127 0 01-1.157-1.23 2.631 2.631 0 01-.157-.912c0-.323.054-.627.157-.911a2.123 2.123 0 011.157-1.231c.272-.12.575-.18.904-.18.2 0 .399.04.59.114.192.074.365.171.522.292.153.12.29.265.402.432.115.168.2.34.253.515l2.38-1.126a5.8 5.8 0 00-.541-.958 3.741 3.741 0 00-.843-.87 4.52 4.52 0 00-1.184-.626c-.452-.164-.977-.242-1.579-.242a5.62 5.62 0 00-1.988.347 4.702 4.702 0 00-1.594.982c-.448.42-.797.927-1.053 1.515-.257.588-.384 1.239-.384 1.955 0 .713.127 1.364.384 1.956a4.538 4.538 0 001.053 1.515c.448.42.977.748 1.594.982a5.58 5.58 0 001.988.346c.602-.011 1.13-.093 1.587-.26zm5.782.07l3.364-5.258v5.258H66V.138h-2.843l-3.172 4.95V.139h-2.766v9.278h2.655zm-52.59-.023L0 .138h14.563l-7.28 9.255zm23.394.023V.138h-3.816L25.264 4.59 23.663.138h-3.816v9.278h2.762V3.838l2.038 5.578h1.23l2.039-5.578v5.578h2.762z" fill="#A6093D"/><path d="M36.418 5.883h-1.805l.904-2.991.9 2.991zm4.199 3.533L37.249.138h-3.475L30.41 9.413h3.134l.33-1.083h3.283l.33 1.083h3.13v.003z" fill="#A6093D"/></svg>