<svg width="118" height="16" viewBox="0 0 118 16" fill="none" xmlns="http://www.w3.org/2000/svg"><g clip-path="url(#clip0_3212_2216)"><path d="M3.075-.4S-.5-.4-.5 3.085v9.03s0 3.485 3.575 3.485h9.264s3.575 0 3.575-3.485v-9.03S15.914-.4 12.34-.4H3.075z" fill="#DBFF00"/><path d="M9.01 5.075l-2.49-.84c.319-.414.697-.747 1.098-.943l1.84-.92 2.49.828-1.758.863c-.436.195-.85.563-1.18 1.012zm2.927.76l-1.759.862a2.75 2.75 0 00-.413.253 2.52 2.52 0 00.036-.414v-.092c0-.437-.118-.805-.354-1.058a3.35 3.35 0 01.271-.3l2.219.748zm-.012 1.034l-1.758.863c-.213.104-.425.15-.602.127.2-.23.436-.414.672-.53l1.251-.609.437.15zM9.8 9.16v-.093c0-.103-.012-.195-.024-.287l2.124.748-1.734.85c-.248.127-.484.162-.685.116.2-.449.319-.909.319-1.335zm-6.243 2.426l1.7-.828a2.02 2.02 0 00.472-.322l.2.07.036.01.023-.01L7.9 9.574c.142-.07.271-.15.413-.253a2.558 2.558 0 00-.035.414v.092c0 .425.118.782.33 1.035a2.331 2.331 0 01-.767.644l-1.853.909-2.43-.829zm2.36 1.404l-2.49-.84v-.437l2.49.84v.437zM3.44 9.504v-.426l2.49.863v.425l-2.49-.862zm.579-.737l1.958.656.036-.011 1.9-.932c.212-.104.425-.15.602-.127-.201.23-.437.414-.673.53l-1.84.908-2.432-.817.449-.207zm-.579-.356v-.368l2.49.84v.379l-2.49-.851zm1.806-1.323c.177-.092.354-.15.52-.173l2.37.806c-.105.034-.211.08-.318.126l-1.829.897-2.442-.828 1.699-.828zM3.452 5.765v-.368l2.49.84v.39l-2.49-.862zm4.85 1.852L5.848 6.79v-.035l.082.023.024.012L7.9 5.846c.26-.127.507-.161.708-.115-.224.471-.342.943-.342 1.38v.092c0 .15.012.288.035.414zm.873-.897c0 .253-.059.518-.165.782a1.175 1.175 0 01-.13-.563v-.07c0-.253.06-.517.166-.782.082.15.13.345.13.564v.069zM8.88 9.573v-.07c0-.252.06-.517.166-.782.082.15.13.345.13.564v.069c0 .253-.06.518-.166.782a1.175 1.175 0 01-.13-.563zm-3.622-5.13c.4-.196.802-.242 1.109-.116l.059.023 1.97.668a1.982 1.982 0 00-.578.184l-1.805.885-2.455-.816 1.7-.829zm6.88-.68v-.666l-2.703-.898-1.9.955c-.425.207-.838.564-1.168 1.024-.342-.115-.755-.07-1.18.138l-1.888.932v.632l2.407.828v.081a2.503 2.503 0 00-.52.173L3.3 7.893v.633l.519.184-.52.218v.69l2.266.771a1.672 1.672 0 01-.365.242l-1.9.931v.702l2.643.897.035.012.024-.012 1.9-.931c.425-.207.838-.564 1.168-1.024.342.115.755.069 1.18-.138l1.888-.932v-.69l-.035-.011-2.337-.817v-.012a2.12 2.12 0 00.496-.172l1.888-.932V6.8l-.024-.011-.436-.15.46-.23v-.655h-.012L9.86 4.972c.13-.104.26-.196.401-.265l1.876-.943zM23.64 11.7c2.03 0 3.423-1.08 3.423-2.668 0-1.081-.65-1.783-1.83-1.955.98-.265 1.488-1.013 1.488-1.933 0-1.415-1.204-2.37-2.986-2.37-1.852 0-3.044.932-3.257 2.692h1.558c.189-.932.637-1.415 1.628-1.415.885 0 1.393.437 1.393 1.208 0 .805-.401 1.288-1.416 1.288h-.98v1.116h1.015c1.24 0 1.7.391 1.7 1.277 0 .897-.59 1.46-1.712 1.46-1.274 0-1.71-.7-1.852-1.644H20.23c.19 1.76 1.346 2.944 3.41 2.944zm7.765 0c1.924 0 3.352-1.288 3.352-3.266v-.092c0-1.944-1.428-3.244-3.34-3.244-1.923 0-3.351 1.311-3.351 3.278v.092c0 1.921 1.428 3.232 3.34 3.232zm.024-1.15c-1.145 0-1.805-.816-1.805-2.116v-.092c0-1.311.684-2.105 1.805-2.105 1.12 0 1.794.805 1.794 2.116v.08c0 1.3-.673 2.117-1.794 2.117zm6.396-1.53c.07-.816.118-1.886.141-2.714h1.935v5.256h1.5V5.213h-4.745s-.035 2.496-.141 3.554c-.095.99-.272 1.634-.767 1.634-.2 0-.295-.046-.295-.046v1.23s.165.081.543.081c1.215 0 1.663-.92 1.829-2.646zm8.272 2.68c1.923 0 3.35-1.288 3.35-3.266v-.092c0-1.944-1.427-3.244-3.339-3.244-1.923 0-3.35 1.311-3.35 3.278v.092c0 1.921 1.415 3.232 3.339 3.232zm.011-1.15c-1.144 0-1.805-.816-1.805-2.116v-.092c0-1.311.684-2.105 1.806-2.105 1.12 0 1.793.805 1.793 2.116v.08c0 1.3-.672 2.117-1.794 2.117zm9.382-5.325h-5.5v1.092h1.995v5.257h1.51V6.317h1.995V5.225zm3.894 6.476c1.923 0 3.351-1.289 3.351-3.267v-.092c0-1.944-1.428-3.244-3.34-3.244-1.923 0-3.35 1.311-3.35 3.278v.092c0 1.921 1.415 3.232 3.339 3.232zm.012-1.15c-1.145 0-1.806-.817-1.806-2.117v-.092c0-1.311.684-2.105 1.806-2.105 1.12 0 1.793.805 1.793 2.116v.08c0 1.3-.672 2.117-1.793 2.117zm7.564 1.15c1.675 0 2.784-.725 2.997-2.07h-1.463c-.107.62-.59.977-1.5.977-1.12 0-1.745-.679-1.793-1.887h4.78v-.425c0-2.278-1.464-3.21-3.08-3.21-1.853 0-3.245 1.312-3.245 3.279v.092c0 2.013 1.38 3.243 3.304 3.243zm-1.735-3.969c.153-.989.755-1.576 1.675-1.576.933 0 1.511.483 1.582 1.576h-3.257zM78.9 4.143V6.95h-1.25c-1.11 0-1.7-.449-1.7-1.415V5.49c0-1.024.626-1.346 1.688-1.346H78.9zM77.84 8.09h1.062v3.485h1.652V2.89H77.64c-1.924 0-3.316.736-3.316 2.565V5.5c0 1.38.826 2.105 1.959 2.335l-2.655 3.738h1.805l2.407-3.485zm7.588 3.611c1.912 0 3.351-1.242 3.351-3.266v-.07c0-1.817-1.203-3.174-3.02-3.174-1.24 0-2.018.575-2.455 1.392h-.06c.166-1.783.839-2.899 2.668-3.002l.318-.023c1.086-.058 1.57-.161 1.96-.31V2.095c-.39.138-1.004.184-1.936.23l-.401.011c-2.844.139-3.776 2.232-3.776 5.039v.448c.012 2.669 1.345 3.877 3.351 3.877zm.012-1.15c-1.145 0-1.806-.805-1.806-2.07v-.058c0-1.311.708-2.093 1.865-2.093 1.133 0 1.734.77 1.734 2.059v.046c0 1.346-.672 2.116-1.793 2.116zm6.407-1.53c.071-.816.118-1.886.142-2.714h1.935v5.256h1.499v-6.35h-4.744s-.035 2.496-.141 3.554c-.095.99-.272 1.634-.768 1.634-.2 0-.295-.046-.295-.046v1.23s.166.081.543.081c1.204 0 1.652-.92 1.83-2.646zm8.272 2.68c1.924 0 3.352-1.288 3.352-3.266v-.092c0-1.944-1.428-3.244-3.34-3.244-1.923 0-3.351 1.311-3.351 3.278v.092c-.012 1.921 1.416 3.232 3.339 3.232zm.012-1.15c-1.144 0-1.805-.816-1.805-2.116v-.092c0-1.311.684-2.105 1.805-2.105s1.794.805 1.794 2.116v.08c0 1.3-.673 2.117-1.794 2.117zm8.65 1.024h1.746l-2.738-3.416 2.526-2.945h-1.641l-2.324 2.818V5.213h-1.511v6.35h1.511V8.457l2.431 3.117zm5.369.127c1.923 0 3.351-1.289 3.351-3.267v-.092c0-1.944-1.428-3.244-3.339-3.244-1.924 0-3.352 1.311-3.352 3.278v.092c0 1.921 1.416 3.232 3.34 3.232zm.012-1.15c-1.145 0-1.806-.817-1.806-2.117v-.092c0-1.311.685-2.105 1.806-2.105s1.793.805 1.793 2.116v.08c0 1.3-.672 2.117-1.793 2.117z" fill="#000"/></g><defs><clipPath id="clip0_3212_2216"><path fill="#fff" d="M0 0h118v16H0z"/></clipPath></defs></svg>