<svg width="49" height="20" viewBox="0 0 49 20" fill="none" xmlns="http://www.w3.org/2000/svg"><path d="M37.361 6.275c1.396-1.678 4.26-2.355 6.596-1.587 2.216.728 3.728 2.673 3.792 4.989.01.377.014.756.02 1.135v8.704c-.917-.052-2.695 0-2.695 0v-2.444s-.276.348-.407.508a5.455 5.455 0 01-5.776 1.784c-2.295-.669-3.652-2.872-3.174-5.156.246-1.176.959-2.024 1.98-2.627.97-.57 2.041-.836 3.167-.86 1-.018 3.626-.043 3.923-.059.347-2.7-1.624-4.202-4.14-3.29-1.362.495-1.35 1.807-1.347 1.98h-2.949c-.078-1.227.25-2.16 1.01-3.077zm-26.984-.34c.931.908 1.387 1.978 1.233 3.28l-.018.135H8.707c.033-1.282-1.543-2.71-3.82-1.979-.513.166-.842.522-1.096.906-.41.621-.213 1.24.466 1.59.529.272 1.113.445 1.683.631 1.04.34 2.112.601 3.128 1.002 1.485.585 2.492 1.606 2.569 3.292.08 1.746-.704 3.046-2.182 3.943-1.191.723-2.515.932-3.887.825-2.222-.173-4.06-1.1-5.566-2.83.532-.639 1.2-1.403 1.64-1.93.72.677 1.42 1.221 2.235 1.614 1.054.508 2.193.579 3.316.222.356-.114.724-.322.977-.59.772-.814.597-1.77-.438-2.208-.808-.343-1.683-.53-2.52-.811-.837-.28-1.702-.515-2.488-.903C-.203 10.682.21 7.46 1.81 5.944c2.184-2.07 6.422-2.102 8.568-.008zm13.555-.597c3.138 1.736 2.814 6.226 2.663 7.47l-.006.049h-9.835c-.019 2.73 2.21 4.362 4.94 3.888 1.4-.243 2.97-1.598 3.222-1.921.61.77 1 1.206 1.526 1.871-1.928 2.326-4.353 3.226-7.24 2.78-3.759-.582-5.3-3.305-5.627-6.181-.163-1.432-.114-2.872.347-4.276.905-2.76 3.016-4.427 5.906-4.62 1.466-.096 2.801.22 4.104.94zM31.883.383v14.09c0 .175.003.35 0 .526-.029 1.773.317 2.186 1.89 2.11l.091-.004v2.142c-.681.33-1.382.377-2.091.316-1.51-.129-2.477-1.038-2.683-2.523a6.389 6.389 0 01-.046-.84v-.384c-.003-5.684.017-14.957.031-15.422v-.01h2.808zm12.688 12.684s-3.418-.056-3.919 0c-1.398.156-2.017 1.04-2.017 1.964 0 1.085.904 1.964 2.017 1.964h.035c3.43.028 3.884-3.929 3.884-3.929zM18.84 7.622c-1.146.402-1.89 1.438-2 2.764l-.007.12H23.5c.046-1.05-.388-1.878-1.09-2.424a2.541 2.541 0 00-.841-.459 3.326 3.326 0 00-.262-.086c-.847-.245-1.64-.206-2.468.085z" fill="#6AB64C"/></svg>