<svg width="81" height="32" viewBox="0 0 81 32" fill="none" xmlns="http://www.w3.org/2000/svg"><path d="M79.081 1.197l.143-.03.098-.076a.242.242 0 00.04-.145l-.03-.127-.078-.079-.112-.039-.13-.01h-.332v.51h.239l.162-.004zm-.582.813V.54h.562c.167 0 .288.036.364.103.076.07.113.171.113.304a.43.43 0 01-.027.167l-.081.122-.117.078-.142.042.438.655h-.212l-.414-.655h-.305v.655h-.18zM78.53.268a1.05 1.05 0 00-.563.577 1.15 1.15 0 00-.08.431c0 .153.027.294.08.427a1.059 1.059 0 00.563.579c.134.057.275.086.43.086a1.055 1.055 0 00.993-.664c.054-.134.082-.275.082-.428 0-.155-.028-.297-.082-.43A1.115 1.115 0 0079.726.5a1.03 1.03 0 00-.34-.233A1.04 1.04 0 0078.96.18a1.06 1.06 0 00-.43.087zm.932-.17c.155.065.29.156.404.271a1.28 1.28 0 01.367.907 1.27 1.27 0 01-.367.904 1.263 1.263 0 01-.906.367 1.282 1.282 0 01-.906-.367 1.268 1.268 0 01-.367-.904c0-.179.034-.345.1-.501a1.22 1.22 0 01.671-.676C78.613.034 78.78 0 78.96 0s.348.033.502.099zm-2.409 9.489V3.099c-.046-3.118-3.17-3.098-3.17-3.098H64.36c-3.215 0-3.199 2.625-3.199 3.216 0 .33 0 6.274.002 6.37.001.068.005.133.01.198.11 2.467 2.248 2.898 2.96 2.972h.005l.022.003c.113.012.18.014.18.014h9.536c3.215-.001 3.177-3.187 3.177-3.187zm-1.59 0c0 1.61-1.588 1.593-1.588 1.593h-9.537c-1.589 0-1.589-1.593-1.589-1.593v-6.37c0-1.61 1.59-1.592 1.59-1.592h9.535l.019.001c.137.01.999.105 1.384.807.113.232.158.46.175.611.005.056.011.112.011.173v6.37zM5.535 3.217v6.348c0 1.588 1.59 1.588 1.59 1.588h12.713v1.619H7.137c-3.191 0-3.191-2.563-3.191-3.167V3.177c0-.606 0-3.177 3.191-3.177h12.701v1.625H7.126s-1.59 0-1.59 1.592zm51.097 5.56c0-1.588-1.59-1.576-1.59-1.576h-3.496l-6.437-.002c-2.819 0-3.138-1.996-3.174-2.88l-.005-.13v-.972c0-.605-.012-3.217 3.18-3.217h12.476v1.624H45.109s-1.59 0-1.59 1.592v.774c0 1.588 1.59 1.617 1.59 1.617h9.933c3.191 0 3.177 2.53 3.177 3.135v.885c0 .604 0 3.144-3.19 3.144h-12.86V11.18h12.873s1.59 0 1.59-1.592v-.81zM40.5 20.14c22.367 0 40.5-.144 40.5-.32 0-.176-18.133-.318-40.5-.318S0 19.644 0 19.82c0 .176 18.133.32 40.5.32zM37.322 6.484c0 1.953-2.311 4.696-5.007 4.696h-6.118c-1.59 0-1.59-1.593-1.59-1.593v-6.37c0-1.648 1.59-1.592 1.59-1.592h9.536c1.603 0 1.59 1.592 1.59 1.592v3.267zm1.589 6.288V3.217C38.91.025 35.704 0 35.704 0h-9.507C22.99 0 23.02 2.612 23.02 3.217c0 .365.005 5.21.004 6.308-.004 3.379 3.175 3.247 3.175 3.247h6.745s3.021.247 4.308-3.062c.063-.145.073-.172.073-.172v3.233h1.587zM5.985 25.807c.902.023 1.582.283 2.038.777.457.498.685 1.25.685 2.259 0 1.01-.228 1.762-.685 2.258-.457.495-1.136.755-2.038.778H3.934v-6.07h2.051v-.002zm-.282 5.578a3.81 3.81 0 001.1-.141c.307-.093.56-.243.76-.446.2-.204.346-.468.44-.792.094-.323.142-.71.142-1.164a4.21 4.21 0 00-.142-1.165 1.843 1.843 0 00-.44-.79 1.752 1.752 0 00-.76-.447 3.8 3.8 0 00-1.1-.141H4.499v5.086h1.204zm16.938-5.578v.492h-3.53v2.194h3.305v.494h-3.305v2.398h3.572v.492h-4.136v-6.07h4.094zm10.161 4.854c.1.211.237.38.411.503.174.124.382.214.62.268.238.053.492.08.763.08.156 0 .324-.022.507-.067.183-.046.353-.117.51-.217.158-.1.29-.227.394-.383a.99.99 0 00.158-.563c0-.17-.038-.32-.113-.444a1.02 1.02 0 00-.29-.314 1.707 1.707 0 00-.394-.21 3.792 3.792 0 00-.424-.13l-1.32-.33a4.192 4.192 0 01-.503-.171 1.434 1.434 0 01-.427-.273 1.285 1.285 0 01-.295-.417 1.444 1.444 0 01-.113-.603c0-.147.027-.32.083-.52.055-.197.159-.384.312-.56a1.81 1.81 0 01.628-.446c.266-.122.606-.183 1.02-.183.294 0 .574.04.84.12.266.078.498.197.698.357.199.16.358.356.477.59.12.236.178.51.178.822h-.564a1.35 1.35 0 00-.51-1.042 1.582 1.582 0 00-.506-.262 2.02 2.02 0 00-.602-.09 2.44 2.44 0 00-.56.063 1.37 1.37 0 00-.475.204 1.043 1.043 0 00-.327.37 1.188 1.188 0 00-.124.57c0 .143.023.265.07.371a.774.774 0 00.195.266.981.981 0 00.286.18c.107.045.223.083.345.11l1.444.366c.21.056.408.127.594.208.186.084.349.184.49.306.141.122.251.27.332.447.08.175.121.387.121.637 0 .069-.007.16-.02.271a1.46 1.46 0 01-.1.362 1.82 1.82 0 01-.224.387c-.098.13-.23.247-.4.352-.168.106-.377.19-.626.255-.25.064-.548.099-.897.099s-.672-.042-.972-.124a2.083 2.083 0 01-.764-.379 1.669 1.669 0 01-.486-.654c-.114-.266-.161-.586-.145-.962h.564c-.005.31.042.572.141.78zm14.356 1.216h-.564v-6.07h.564v6.07zm14.82 0l-.076-1.105h-.015a2.033 2.033 0 01-1.425 1.157 2.758 2.758 0 01-.627.069c-.465 0-.874-.087-1.225-.26a2.548 2.548 0 01-.877-.693 2.98 2.98 0 01-.523-1.004 4.116 4.116 0 01-.173-1.198c0-.42.058-.82.173-1.199.117-.38.29-.715.523-1.008.233-.29.525-.523.877-.697.351-.173.76-.259 1.225-.259.31 0 .604.042.88.129.276.084.523.21.74.38.216.171.398.381.548.63.15.25.252.542.307.877h-.565a1.385 1.385 0 00-.17-.532 1.84 1.84 0 00-.39-.49 1.997 1.997 0 00-1.35-.501c-.393 0-.731.077-1.014.23a2.01 2.01 0 00-.693.607c-.18.253-.313.538-.4.856a3.708 3.708 0 00-.128.977c0 .328.042.654.129.974.085.32.219.606.4.858a2 2 0 00.692.608c.283.152.62.23 1.014.23.326 0 .618-.056.877-.166a1.81 1.81 0 00.65-.464 1.95 1.95 0 00.4-.705c.088-.273.13-.57.125-.894h-2.019v-.493h2.516v3.086h-.405zm11.042-6.07l3.455 5.135h.016v-5.135h.565v6.07h-.63l-3.456-5.135h-.018v5.134h-.564v-6.069h.632z" fill="#000"/></svg>