<svg width="93" height="26" viewBox="0 0 93 26" fill="none" xmlns="http://www.w3.org/2000/svg"><path d="M36.676 5.086c-2.328 0-4.177.802-5.198 2.258a.066.066 0 000 .086l.83.79a.06.06 0 00.053.02.083.083 0 00.049-.03 4.849 4.849 0 011.76-1.67c.72-.399 1.53-.61 2.355-.612a4.25 4.25 0 013.14 1.2 4.169 4.169 0 011.258 3.097H35.58a.067.067 0 00-.064.067v.725c0 .017.006.033.018.045.012.013.028.02.046.021h5.359c0 2.415-1.565 4.981-4.461 4.981a4.78 4.78 0 01-2.326-.616 4.736 4.736 0 01-1.724-1.668.083.083 0 00-.048-.03.072.072 0 00-.053 0l-.83.791a.067.067 0 000 .086c.991 1.415 2.9 2.258 5.1 2.258 4.454 0 6.112-3.736 6.112-6.095-.008-3.399-2.425-5.705-6.033-5.705zm13.405 4.646l4.117-4.342a.063.063 0 000-.07.063.063 0 00-.06-.041h-.816a.06.06 0 00-.044.022l-5.988 6.251V5.346a.067.067 0 00-.067-.067h-1.498a.067.067 0 00-.067.067v11.317a.067.067 0 00.067.063h1.497a.067.067 0 00.067-.063v-3.952l1.767-1.88 4.278 5.884a.063.063 0 00.052.026h1.692a.067.067 0 00.06-.037.07.07 0 000-.067l-5.056-6.905zm12.59-4.646c-4.51 0-6.194 3.629-6.194 5.917s1.684 5.916 6.194 5.916c4.416 0 6.4-3.458 6.4-5.916 0-2.46-1.984-5.917-6.4-5.917zm.03 10.994c-2.62 0-4.49-2.136-4.49-5.077 0-2.942 1.885-5.06 4.49-5.06 2.605 0 4.663 2.166 4.663 5.06 0 2.893-2.058 5.077-4.663 5.077zM77.469 5.32a.063.063 0 00-.06-.041h-.898a.068.068 0 00-.06.04l-3.518 8.915-.026.06c-.374.935-.577 1.485-1.235 1.485a1.353 1.353 0 01-.61-.23l-.124-.07a.064.064 0 00-.052 0 .052.052 0 00-.038.037l-.441 1.114a.063.063 0 000 .052.081.081 0 00.037.033 3.87 3.87 0 001.261.197c.704 0 1.273-.568 1.74-1.738l3.148-7.934 4.094 9.438a.06.06 0 00.06.041h1.613a.06.06 0 00.03-.008.058.058 0 00.023-.022.062.062 0 000-.063L77.469 5.32zm11.474 4.906h-2.425v-4.88a.067.067 0 00-.067-.067h-1.497a.068.068 0 00-.068.067v11.317a.066.066 0 00.068.052h3.892c3.061 0 4.154-1.76 4.154-3.413 0-1.415-1.063-3.076-4.057-3.076zm-2.425.843h2.017c1.568 0 2.706 1.018 2.706 2.422a2.356 2.356 0 01-.724 1.722 2.394 2.394 0 01-1.754.67h-2.245V11.07zm-24.21-7.606h.794a.057.057 0 00.04 0l3.16-2.6a.07.07 0 00.018-.075.059.059 0 00-.06-.04h-2.264a.064.064 0 00-.052.03l-1.692 2.6a.07.07 0 000 .066.064.064 0 00.056.019zM32.84 20.873h-.255l-1.523 3.489h.25l.444-1.013h1.77l.484 1.017h.492l-1.642-3.48-.02-.013zm.546 2.231h-1.503l.719-1.646.784 1.646zm3.334-.885l1.284-1.338h-.267l-1.884 1.93V20.89h-.488v3.48h.463v-1.2l.571-.606 1.347 1.81h.53l-1.557-2.154zm3.74-1.346h-.255l-1.507 3.48h.234l.443-1.013h1.74l.485 1.018h.497l-1.642-3.48.004-.005zm.55 2.231h-1.511l.722-1.646.788 1.646zm5.007 1.014L44.61 20.88h-.312l-1.276 3.237h-.493v.753h.44v-.489h3.078v.505h.41v-.753l-.439-.016zm-2.75 0l1.06-2.676 1.17 2.676h-2.23zm4.105-3.245v3.48h2.303v-.272h-1.827V22.66h1.564v-.24h-1.564v-1.223h1.827v-.276l-2.303-.048zm6.818 0l-1.641 2.98-1.642-2.98h-.345v3.48h.205V21.55l1.564 2.888h.12l1.6-2.872v2.804h.493v-3.48l-.353-.017zm4.254 0l-2.086 3.036v-3.028h-.492v3.48h.464l2.09-3.067v3.06h.463v-3.481h-.44zm3.066 0c-.862 0-1.17.497-1.17.921a.909.909 0 00.262.654.955.955 0 00.658.284l-.041.02c-.11.056-.152.116-.324.376-.09.14-.218.333-.41.613-.194.28-.321.437-.604.437h-.099v.184c.105.049.221.07.337.06.41 0 .566-.216.78-.52l.41-.582c.238-.368.32-.492.694-.492h.213v1.522h.456v-3.481l-1.162.004zm.682.244v1.474h-.513a.809.809 0 01-.573-.21.775.775 0 01-.248-.547.714.714 0 01.248-.534.75.75 0 01.573-.183h.513zm5.037 1.102l1.285-1.338h-.267l-1.88 1.927v-1.923h-.489v3.48h.464v-1.2l.558-.586 1.347 1.811h.53l-1.548-2.171zm3.629-1.346H69.65v3.48h.464V22.92c.198.051.402.077.607.076.891 0 1.29-.54 1.29-1.077a1.017 1.017 0 00-.34-.772 1.07 1.07 0 00-.814-.274zm.652 1.078a.785.785 0 01-.25.576.823.823 0 01-.6.225 1.607 1.607 0 01-.516-.06v-1.583h.52a.838.838 0 01.613.24.8.8 0 01.233.602zm2.837-1.078h-.254l-1.511 3.48h.234l.443-1.013H75l.485 1.018h.497l-1.642-3.48.008-.005zm.55 2.231h-1.51l.722-1.646.788 1.646zm5.05.609a1.738 1.738 0 01-1.231.477 1.595 1.595 0 01-1.166-.456 1.49 1.49 0 01-.444-1.146 1.394 1.394 0 01.394-1.07 1.494 1.494 0 011.071-.448c.214-.02.43.022.618.12.19.1.345.251.446.436h.377c-.23-.525-.722-.801-1.47-.801-1.23 0-1.99.697-1.99 1.779 0 .853.517 1.846 1.982 1.846a2.1 2.1 0 00.838-.125 2.06 2.06 0 00.714-.444v-.02l-.14-.148zm2.565-2.9a1.905 1.905 0 00-.774.072c-.25.078-.48.205-.676.376-.196.17-.353.379-.46.612a1.777 1.777 0 000 1.485c.107.233.264.442.46.612a1.882 1.882 0 001.45.448 1.98 1.98 0 001.507-.597c.3-.325.473-.744.484-1.181a1.83 1.83 0 00-.164-.72 1.87 1.87 0 00-.438-.602 1.954 1.954 0 00-1.389-.505zm1.47 1.815a1.451 1.451 0 01-.393 1.08 1.554 1.554 0 01-1.064.486c-.821 0-1.413-.661-1.413-1.566 0-.906.592-1.567 1.413-1.567a1.533 1.533 0 011.067.477 1.458 1.458 0 01.39 1.081v.009zm.968-1.755v.276h1.351v3.205h.464v-3.205h1.35v-.276h-3.164zm7.472 0h-.46a.016.016 0 00-.016.016v3.477c0 .009.007.016.016.016h.46c.01 0 .017-.007.017-.016v-3.477a.016.016 0 00-.017-.016zm-2.217 1.522h-.767v-1.51h-.493v3.48h1.232c.952 0 1.293-.54 1.293-1.044-.004-.421-.333-.926-1.265-.926zm.723.998a.722.722 0 01-.228.532.757.757 0 01-.552.209h-.71V22.64h.64a.808.808 0 01.592.197.77.77 0 01.258.556zm-65.36-8.386c-.026.081-.056.16-.082.241a11.246 11.246 0 01-4.438 5.81h-.023a6.544 6.544 0 01-4.865.995 5.873 5.873 0 01-.606-.138.517.517 0 01-.068-.03 3.892 3.892 0 01-2.175-2.077 3.834 3.834 0 01-.021-2.996c3.424 1.095 5.943 1.092 6.485.999a1.06 1.06 0 00.936-.743c.105-.371-.083-.81-.112-1.114a.513.513 0 01.104-.424s.34.056.457-.182c.176-.371-.255-.613-.255-.613s-.187-.17.281-.337c.468-.168.524-.572.438-.65a1.187 1.187 0 01-.502-1.055c.618-.413 1.123-.691 1.123-.985.041-.464-1.909-1.738-1.972-2.767a1.13 1.13 0 00.906-.509c-.633.372-.958 0-.958 0 .044-.341.239-.475.28-.936.079-.85-.318-2.37-.707-3.342 0 .07-.03.137-.041.2-.622 3.124-6.127 5.572-8.473 9.497a6.997 6.997 0 00-.666 5.973c1.216 3.815 7.297 5.434 11.586 1.52 0 0-1.074 3.164-5.374 4.215-3.87.943-6.777.312-9.54-1.37A13.499 13.499 0 013.45 20.53a13.39 13.39 0 01-2.121-4.84 12.797 12.797 0 011.763-9.733 12.937 12.937 0 013.53-3.626A13.04 13.04 0 0111.284.328a13.701 13.701 0 015.404-.104 6.166 6.166 0 011.92.724c1.006.62 1.29 1.75 1.257 2.667.11-.006.22-.006.33 0h.149a.78.78 0 01.131 0c.053-.004.107-.004.16 0l.222.026c.358.047.71.13 1.051.249 3.668 1.311 5.28 6.229 3.66 11.117zM7.182 25.236a10.472 10.472 0 01-5.49-5.668c.18 2.904-.663 4.695-1.692 5.467 1.164.817 4.63 1.59 7.182.2z" fill="#503353"/></svg>