<svg width="51" height="33" viewBox="0 0 51 33" fill="none" xmlns="http://www.w3.org/2000/svg"><path d="M11.533 10.807H9.626v1.924h1.907v-1.924zM7.324 6.725H5.417v1.924h1.907V6.725zm9.716 1.409l-1.349-1.36-1.349 1.36 1.349 1.36 1.348-1.36zM15.693.999l-1.348 1.36 1.348 1.36 1.348-1.36L15.693 1zm1.348 11.523l-1.348-1.36-1.348 1.36 1.348 1.36 1.348-1.36zm-11.328 4.47l1.348 1.36 1.349-1.36-1.349-1.36-1.348 1.36zm-5.709.005l1.348 1.36 1.349-1.36-1.349-1.36-1.348 1.36zm30.202-1.364l-1.348 1.36 1.348 1.36 1.349-1.36-1.349-1.36zm-8.723 1.37l-1.349-1.36-1.348 1.36 1.348 1.36 1.349-1.36zm4.418 0l-1.348-1.36-1.349 1.36 1.349 1.36 1.348-1.36zm-15.835-.009l1.349 1.36 1.348-1.36-1.348-1.36-1.349 1.36zm11.862-6.187h-1.907v1.924h1.907v-1.924zm4.21-4.082H24.23v1.924h1.907V6.725zm-1.141 6.297l1.772.71.704-1.788-1.773-.71-.703 1.788zm-3.51-5.71l-.736-1.774-1.76.742.736 1.775 1.76-.743zm-9.159-1.053l-1.772-.71-.704 1.788 1.773.71.703-1.788zm-5.745 6.727l-.736-1.775-1.76.743.737 1.774 1.759-.742zm15.345 8.284h-1.907v1.924h1.907V21.27zm4.21 4.082H24.23v1.924h1.907v-1.924zm-11.615.512l1.349 1.36 1.348-1.36-1.348-1.36-1.349 1.36zm.005 5.759l1.349 1.36 1.348-1.36-1.348-1.36-1.349 1.36zm-.003-10.151l1.349 1.36 1.348-1.36-1.348-1.36-1.349 1.36zm-2.992-.202H9.626v1.924h1.907V21.27zm-4.209 4.082H5.417v1.924h1.907v-1.924zm-.759-4.386l-1.773-.71-.703 1.788 1.772.71.704-1.788zm3.515 5.725l.736 1.775 1.759-.742-.736-1.775-1.76.742zm9.164 1.043l1.772.71.704-1.788-1.773-.71-.703 1.788zm5.736-6.724l.736 1.775 1.76-.743-.737-1.774-1.759.742zm24.692 8.401c-1.325 0-2.465-.727-3.116-1.994l-.07-.14c-.534-1.01-1.767-1.385-2.813-.822-.256.14-.466.305-.629.54l-1.046-.845c.28-.352.651-.657 1.047-.891a3.368 3.368 0 012.604-.282 3.272 3.272 0 012.023 1.666l.07.14c.303.587.86 1.267 1.93 1.267v1.361z" fill="#000"/><path d="M41.719 30.584v-.82c-.465-.33-1.465-1.057-2.675-1.878-1.046-.727-1.813-1.36-2.278-1.9a2.589 2.589 0 01-.628-1.97c.093-.869.581-1.737 1.511-2.581 2.349-2.159 5.233-5.49 7.512-8.68 2.605-3.66 4.186-6.757 4.488-8.775V2.971h1.349v1.15c-.163 1.196-.698 2.674-1.605 4.41-.79 1.525-1.837 3.214-3.14 5.02-2.325 3.285-5.278 6.687-7.697 8.916-.651.586-1.023 1.173-1.07 1.689-.046.422.14.75.326.962.372.446 1.07 1.009 2.023 1.666a82.084 82.084 0 012.977 2.111l.28.211v1.478h-1.373z" fill="#000"/></svg>