<svg width="51" height="60" viewBox="0 0 51 60" fill="none" xmlns="http://www.w3.org/2000/svg"><path d="M6.298 60c-1.11 0-2.022-.884-2.022-1.986 0-1.102.89-1.996 2.01-1.996 1.121 0 2.022.873 2.022 1.975 0 1.101-.9 2.007-2.01 2.007zm44.315-39.144c-.879-4.975-3.076-9.317-6.591-12.972C37.672 1.272 28.444-1.4 19.502.705 7.517 3.542-.7 14.55.047 26.78a24.75 24.75 0 002.45 9.35 24.77 24.77 0 007.008 8.76c.231.185.242.305.1.556-.627 1.146-.803 2.368-.605 3.655.374 2.455 2.604 4.55 5.086 4.746 2.758.229 5.01-1.146 6.064-3.688.066-.163.132-.196.319-.163 1.659.327 3.34.512 4.987.49a24.21 24.21 0 005.768-.632c13.237-3.033 21.729-15.7 19.389-28.998zm-43.656 6.96c.835.742 2.142.851 3.087.262.769-.48 1.065-.415 1.56.36.066.109.132.229.187.349.175.415.131.687-.242.95-1.23.894-2.615 1.232-4.087.774-1.757-.546-3.032-1.626-3.438-3.502a4.082 4.082 0 01-.1-1.07c-.065-2.52 1.726-4.102 3.846-4.56 1.384-.305 2.636.033 3.779.83.362.25.45.545.285.948a2.01 2.01 0 01-.769.939.556.556 0 01-.593.032c-.197-.098-.384-.218-.571-.327-1.066-.589-2.582-.25-3.285.72-.714 1.004-.56 2.499.34 3.295zM17.58 30.62c-2.593.622-5.262-1.211-5.592-3.84a7.303 7.303 0 01-.066-.96c-.132-1.844 1.483-4.114 3.856-4.506 2.516-.415 4.856 1.429 5.262 3.687.495 2.87-1.285 5.106-3.46 5.619zm8.568-.12c-1.186.153-2.394.109-3.592.022-.395-.033-.582-.262-.615-.655-.022-.196-.022-.393-.022-.6v-6.688c0-1.047.165-1.21 1.22-1.21h1.164c.769.032 1.549-.044 2.318.152 1.922.491 3.34 2.302 3.416 4.277.077 2.324-1.746 4.418-3.889 4.702zm9.316-.076c-.352.098-.725.13-1.088.141-.856.011-1.713.033-2.56-.01-.78-.044-.977-.23-.988-1.004-.01-1.2 0-2.4 0-3.611v-3.535c0-.786.242-1.026 1.033-1.026.868 0 1.735-.01 2.603.011 2.154.033 4.021 1.593 4.416 3.699.44 2.389-1.043 4.702-3.416 5.335zm11.38-7.66c-.175.306-.373.6-.57.895a801.693 801.693 0 01-2.154 3.175 1.03 1.03 0 00-.175.59c.01.73 0 1.45 0 2.181 0 .71-.242.96-.945.982-1.11.044-1.318-.163-1.318-1.244v-.829c.022-.338-.198-1.822-.791-2.618-.66-.873-1.23-1.8-1.846-2.706a3.782 3.782 0 01-.307-.513c-.198-.403-.055-.73.472-1.101.571-.404.967-.459 1.296-.164.176.153.308.35.429.545.582.917 1.164 1.822 1.724 2.75.132.218.187.207.319 0 .571-.917 1.154-1.833 1.725-2.739.11-.163.22-.327.351-.48.23-.261.517-.316.846-.185.319.12.593.294.824.545.286.295.33.568.12.917z" fill="#0090B4"/><path d="M33.07 25.918c0-.688.01-1.364 0-2.051 0-.219.076-.284.285-.284.527.01 1.065-.044 1.593.098 1.142.317 1.878 1.451 1.735 2.64-.131 1.07-1.23 2.008-2.35 2.008-.297 0-.605-.022-.901 0-.275.022-.363-.055-.363-.338.022-.688 0-1.375 0-2.073zm-8.075 2.422c-.846-.011-.846-.011-.846-.851 0-1.179 0-2.357-.01-3.535 0-.273.076-.382.35-.36.385.033.77-.011 1.165.033 1.22.163 2.186 1.254 2.12 2.433-.066 1.276-1.131 2.28-2.417 2.29-.12-.01-.241-.01-.362-.01zm-8.514-4.866c1.538.022 2.648 1.44 2.34 3.033-.22 1.156-1.12 1.953-2.24 1.974-1.088.033-2.066-.741-2.34-1.832-.352-1.397.417-2.771 1.757-3.11.154-.032.319-.043.483-.065z" fill="#0090B4"/></svg>