<svg width="87" height="26" viewBox="0 0 87 26" fill="none" xmlns="http://www.w3.org/2000/svg"><g clip-path="url(#clip0)" fill="#3DCD58"><path d="M9.835 3.652c-.7-.267-1.351-.533-2.015-.764a6.695 6.695 0 00-2.412-.417 2.72 2.72 0 00-1.474.383.873.873 0 00-.46.693.88.88 0 00.326.767c.206.194.442.353.7.468.668.29 1.35.547 2.031.81.803.293 1.57.675 2.289 1.14.56.388 1.008.92 1.298 1.538a3.896 3.896 0 01-.332 3.882 3.867 3.867 0 01-1.541 1.294 7.564 7.564 0 01-3.466.625 9.292 9.292 0 01-4.246-1.19.406.406 0 01-.251-.422c.013-.776.005-1.552.005-2.328v-.283c.305.19.569.356.836.52a7.833 7.833 0 002.912 1.166 4.522 4.522 0 001.996-.079 1.89 1.89 0 00.41-.177 1.052 1.052 0 00.578-.855 1.06 1.06 0 00-.426-.941 5.78 5.78 0 00-1.28-.7c-.816-.345-1.66-.624-2.477-.969A5.102 5.102 0 01.792 6.341a3.74 3.74 0 01-.706-3.173A3.74 3.74 0 012.123.643 7.32 7.32 0 015.682.011 11.58 11.58 0 019.579.94a.364.364 0 01.275.402c-.015.675-.005 1.351-.006 2.027.002.088-.007.177-.013.284zm24.51 15.602c-.165.357-.29.65-.443.936-.033.06-.164.095-.25.095-.712.007-1.429.01-2.143 0-.189 0-.289.048-.335.24-.072.306-.168.606-.264.945h2.23c-.195.253-.342.46-.504.65a10.6 10.6 0 01-5.552 3.646 5.451 5.451 0 01-3.61-.155 3.522 3.522 0 01-1.51-1.21 3.546 3.546 0 01-.646-1.828 6.316 6.316 0 01.096-1.888c.03-.172.1-.216.262-.214.647.007 1.294 0 1.941.007.175 0 .273-.043.324-.222.088-.31.202-.613.319-.96h-2.445c.17-.354.307-.664.47-.96.028-.053.157-.072.24-.073.54-.006 1.08-.01 1.618 0a.278.278 0 00.324-.225c.093-.316.211-.624.336-.984H23.11c.065-.101.091-.159.13-.207a10.637 10.637 0 015.471-3.809 5.835 5.835 0 013.715.02 3.59 3.59 0 011.705 1.29 3.62 3.62 0 01.673 2.035 9.48 9.48 0 01-.003.826c-.017.274-.065.544-.101.838-.084.004-.156.012-.227.012-.798 0-1.596.004-2.395 0-.187 0-.284.053-.323.25-.065.307-.16.607-.254.947l2.845-.002zm-1.358-3.873h-.303c-.83 0-1.66-.01-2.491.005a4.015 4.015 0 00-.96.106 3.32 3.32 0 00-1.698.89 3.343 3.343 0 00-.926 1.684c-.222.964-.453 1.926-.68 2.89-.098.414-.25.534-.678.535-.474 0-.947.007-1.42-.003-.179-.004-.266.045-.309.232-.11.47-.245.933-.367 1.4a1.79 1.79 0 00-.03.224.946.946 0 00.138.023c.93 0 1.861.02 2.79-.01a4.18 4.18 0 002.309-.753 2.89 2.89 0 001.23-1.644c.309-1.182.619-2.365.918-3.55a.352.352 0 01.405-.303c.498.01.997.009 1.495 0 .078 0 .208-.065.223-.126.123-.519.229-1.039.35-1.598l.004-.002zM63.891 5.019V.204c.095-.01.174-.023.253-.023.788 0 1.578.004 2.366-.005.195 0 .253.057.253.254-.005 4.405-.005 8.81 0 13.214 0 .182-.047.248-.236.246-.806-.009-1.612-.006-2.417 0-.16 0-.228-.046-.215-.213.012-.156 0-.313 0-.496a.572.572 0 00-.138.052 4.12 4.12 0 01-3.716.663 4.123 4.123 0 01-1.67-.997 4.15 4.15 0 01-1.03-1.653 5.305 5.305 0 01.636-5.157 4.003 4.003 0 012.873-1.603 5.327 5.327 0 012.857.467c.047.018.093.032.184.066zm.005 4.132c0-.667-.008-1.334.006-2a.357.357 0 00-.235-.387 7.167 7.167 0 00-.805-.325 2.167 2.167 0 00-1.648.118 2.183 2.183 0 00-1.09 1.247c-.27.74-.331 1.54-.175 2.311a2.49 2.49 0 00.96 1.665 2.24 2.24 0 002.903-.335.417.417 0 00.08-.27c.008-.674.005-1.349.005-2.024zM27.3 11.822v-.267c0-.985.014-1.97-.008-2.953a3.803 3.803 0 00-.167-1.055 1.415 1.415 0 00-.768-.89 1.4 1.4 0 00-1.173.006 3.188 3.188 0 00-1.358 1.28.563.563 0 00-.036.291c0 1.786-.007 3.571.004 5.357 0 .247-.071.307-.308.302a69.248 69.248 0 00-2.292 0c-.2 0-.272-.045-.272-.26.005-4.397.007-8.796.003-13.195 0-.137-.019-.26.194-.26.842.009 1.678.004 2.518.005.051.005.102.013.153.024v5.765l.113.078c.02-.07.05-.136.089-.198a3.655 3.655 0 012.079-1.329c1.621-.315 3.663.368 4.04 2.71.029.155.045.313.05.472.003 1.142 0 2.284 0 3.384l-2.862.733zm24.419-2.098h-6.423c-.202 0-.272.036-.24.268a2.617 2.617 0 002.286 2.32 5.01 5.01 0 003.681-.882c.157-.106.316-.208.518-.34 0 .591.005 1.138-.007 1.684 0 .065-.089.136-.153.18a6.301 6.301 0 01-3.135 1.084 7.322 7.322 0 01-3.14-.348 4.253 4.253 0 01-2.002-1.327 4.294 4.294 0 01-.974-2.202c-.403-2.557.927-5.023 3.631-5.58a4.768 4.768 0 014.651 1.3A4.589 4.589 0 0151.65 8.66c.04.338.046.685.069 1.065zm-2.548-1.5a2.108 2.108 0 00-1.075-1.845 1.985 1.985 0 00-2.204.171 2.114 2.114 0 00-.784 1.675h4.063zM77.7 9.72h-6.678c.02.178.023.333.055.481.098.546.369 1.046.772 1.425.403.38.917.618 1.466.681a4.954 4.954 0 003.618-.834c.18-.119.36-.235.57-.372.008.095.02.165.02.234 0 .342-.027.688.007 1.026a.718.718 0 01-.423.774 6.776 6.776 0 01-2.917.903 7.194 7.194 0 01-3.112-.356 4.278 4.278 0 01-2.109-1.467 4.31 4.31 0 01-.895-2.416 4.755 4.755 0 011.575-4.202 4.647 4.647 0 012.74-1.118 4.903 4.903 0 013.106.665 4.512 4.512 0 012.127 3.416c.05.368.052.744.078 1.16zm-4.587-1.475h1.817c.12 0 .244.011.216-.177a2.023 2.023 0 00-.787-1.524 2.002 2.002 0 00-1.672-.361 1.963 1.963 0 00-1.121.652 1.98 1.98 0 00-.474 1.212c-.028.19.088.195.226.195l1.795.003zm-38.66-2.309c.341-.303.616-.585.926-.815a3.621 3.621 0 014.486.207 3.011 3.011 0 01.959 2.185c.037 2.053.016 4.106.025 6.159 0 .187-.082.219-.242.217-.79-.005-1.578-.01-2.368 0-.219.004-.258-.084-.258-.28.005-1.743.003-3.487 0-5.232 0-.175 0-.35-.012-.525a1.485 1.485 0 00-1.1-1.466 1.598 1.598 0 00-1.537.442 9.83 9.83 0 00-.81.975.586.586 0 00-.07.33c-.005 1.327 0 2.654 0 3.981v.283c-.16-.124-.285-.227-.416-.325a4.769 4.769 0 00-2.152-.855c-.216-.03-.302-.101-.3-.341.01-1.986.01-3.972 0-5.958 0-.222.05-.304.286-.3.78.014 1.562.01 2.343 0 .184 0 .249.052.241.242-.011.35-.001.689-.001 1.076zM19.498 7.095c-.492-.153-.965-.33-1.452-.446a3.747 3.747 0 00-1.799.013 2.552 2.552 0 00-1.562 1.066 2.573 2.573 0 00-.405 1.853c.026.6.263 1.17.67 1.61.406.44.955.72 1.548.79.743.107 1.5.021 2.2-.25.305-.101.608-.207.93-.318.011.061.02.123.023.184 0 .55.007 1.101-.005 1.652a.312.312 0 01-.137.241 7.432 7.432 0 01-5.415.137A4.25 4.25 0 0112.12 12.2a4.28 4.28 0 01-.872-2.282 4.634 4.634 0 011.366-4.058 5.097 5.097 0 013.08-1.37 8.784 8.784 0 013.573.455.303.303 0 01.253.354c-.014.534-.004 1.068-.005 1.601-.004.072-.012.144-.016.195zm66.69.699c-.294-.152-.559-.304-.837-.43a1.685 1.685 0 00-2.329.615 15.378 15.378 0 00-.938 1.812.763.763 0 00-.031.32c0 1.16-.007 2.32 0 3.48 0 .228-.061.299-.294.294a70.463 70.463 0 00-2.317 0c-.189 0-.259-.044-.259-.249.006-2.928.006-5.857 0-8.786 0-.202.068-.252.259-.25.789.01 1.578.01 2.367 0 .187 0 .246.058.243.243-.008.726-.003 1.452-.003 2.178v.238l.065.018c.04-.073.083-.144.119-.22A6.622 6.622 0 0183.42 5.22a2.153 2.153 0 012.926-.37c.633.383.633.383.414 1.086-.188.616-.38 1.233-.573 1.858zm-33.31 1.441c0-1.443 0-2.887-.004-4.33 0-.195.039-.28.26-.278.788.012 1.577.01 2.366 0 .179 0 .245.045.245.239-.005 2.929-.005 5.858 0 8.787 0 .195-.064.239-.244.237-.789-.008-1.578-.01-2.367 0-.218.003-.259-.079-.259-.276.007-1.458.004-2.918.003-4.379zM38.037 23.839v-8.01c.088-.006.16-.015.233-.015 1.32 0 2.64.005 3.96-.006.228 0 .29.076.278.287-.014.223 0 .448 0 .708h-.291c-.938 0-1.877.007-2.815-.005-.243 0-.313.08-.307.318.014.617.004 1.235.005 1.852 0 .325 0 .325.337.325h2.932v.979c-.09.004-.178.012-.266.012-.914 0-1.827.007-2.74-.004-.211 0-.27.069-.267.272.01.667.012 1.334 0 2.002-.004.226.075.28.288.277.996-.01 1.993 0 2.99-.009.194 0 .272.053.258.253-.02.24.065.564-.057.695-.123.131-.448.065-.684.065-1.188.004-2.375 0-3.562 0l-.292.004zm15.771-2.499H50.12a1.6 1.6 0 00.328 1.002c.22.286.529.49.878.576a2.762 2.762 0 001.944-.312c.13-.065.26-.142.425-.234 0 .307.009.579-.006.85a.29.29 0 01-.134.185 3.355 3.355 0 01-2.718.415 2.186 2.186 0 01-1.133-.776 3.172 3.172 0 01.033-3.825 2.421 2.421 0 013.148-.325c.445.371.735.898.81 1.475.054.306.072.62.113.97zm-3.705-.684h2.674a1.245 1.245 0 00-.51-1.114 1.348 1.348 0 00-1.462-.044 1.412 1.412 0 00-.702 1.158zm34.6 2.033c0 .294.007.56-.005.826a.222.222 0 01-.107.166c-1.1.352-2.19.448-3.167-.325a2.552 2.552 0 01-.913-2.34c.014-.69.283-1.351.755-1.854a2.527 2.527 0 012.2-.67c.326.053.645.142.952.266a.336.336 0 01.169.249c.022.279.007.56.007.86-.258-.13-.477-.26-.711-.354a1.666 1.666 0 00-2.175.744 1.688 1.688 0 00-.194.816c-.064 1.476 1.045 2.135 2.327 1.877.284-.06.552-.167.862-.261zm-24.46-2.817l-.361-.206a1.953 1.953 0 00-1.39-.255 1.551 1.551 0 00-1.277 1.392 1.72 1.72 0 00.649 1.869c.19.136.407.232.637.28.415.092.848.07 1.252-.065.194-.06.388-.13.621-.21 0 .303.006.586-.005.862a.197.197 0 01-.106.143 3.268 3.268 0 01-3.133-.284 2.398 2.398 0 01-.952-1.825 3.327 3.327 0 01.307-1.776 2.324 2.324 0 012.025-1.325 3.33 3.33 0 011.532.255.268.268 0 01.204.295c-.01.263-.003.53-.003.85zm2.725-.422l1.786-1.914.057.03c0 .26.007.526 0 .788-.006.165.055.219.216.215.407-.009.815.005 1.221-.007.179-.005.224.062.228.23.01.657.016.657-.629.657-.266 0-.532.008-.798 0-.185-.007-.24.065-.239.25.008.835 0 1.67.005 2.504 0 .645.469.971 1.154.794.259-.065.51-.183.788-.286 0 .265.007.52-.006.776a.232.232 0 01-.12.16 2.419 2.419 0 01-1.784.196 1.371 1.371 0 01-.996-1.246c-.036-.942-.041-1.885-.036-2.828 0-.26-.072-.346-.324-.321-.174.01-.349.01-.523.002zm-17.752-3.625h.934v8h-.934v-8zM54.826.031a1.052 1.052 0 01.923.406 1.063 1.063 0 01.164.998 2.418 2.418 0 01-.735 1.192 2.4 2.4 0 01-1.27.58 1.077 1.077 0 01-1.21-.783 1.092 1.092 0 01-.015-.522 2.35 2.35 0 01.756-1.3 2.33 2.33 0 011.387-.57zm15.872 18.584v1.135l.056.014c.04-.057.077-.116.118-.172a7.73 7.73 0 01.548-.708 1.167 1.167 0 011.598-.195c.162.099.308.223.488.355l-.524.88c-.138-.098-.258-.194-.388-.276a1.057 1.057 0 00-1.545.296c-.23.31-.353.687-.353 1.073v2.826c-.3 0-.572.006-.84-.006-.05 0-.114-.075-.138-.13a.529.529 0 01-.01-.195v-4.604c0-.335 0-.336.346-.335.191 0 .382.004.572.009.01-.006.024.007.072.033zm6.657 5.225c-.28 0-.543-.003-.807 0-.172 0-.151-.117-.151-.224v-2.024c0-.925.004-1.85 0-2.774 0-.189.045-.273.25-.26.23.018.462.003.712.003l-.004 5.28zm-1.047-6.71a.805.805 0 01.781-.714c.272.019.41.253.324.547a.861.861 0 01-.697.562.362.362 0 01-.386-.234.367.367 0 01-.022-.16zm9.773.025v.107h-.23v.632h-.129v-.632h-.23v-.107h.59zm.127 0h.165l.133.372c.019.056.05.145.065.203a7.37 7.37 0 01.087-.253l.118-.325h.166l.052.739h-.13l-.017-.353c-.004-.08-.01-.175-.013-.264h-.005a5.49 5.49 0 01-.08.24l-.142.372h-.097l-.13-.364a5.556 5.556 0 01-.073-.246h-.006c0 .087-.007.184-.012.266l-.018.35h-.123l.06-.737z"/></g><defs><clipPath id="clip0"><path fill="#fff" d="M0 0h87v26H0z"/></clipPath></defs></svg>