<svg width="120" height="11" viewBox="0 0 120 11" fill="none" xmlns="http://www.w3.org/2000/svg"><path fill-rule="evenodd" clip-rule="evenodd" d="M3.939 4.229l2.354.257c2.512.271 3.81 1.271 3.81 2.957 0 1.957-1.798 3.057-5.08 3.057C1.655 10.5 0 9.4 0 7.171h2.297c0 .972 1 1.515 2.783 1.515 1.798 0 2.597-.329 2.597-1.172 0-.628-.57-.9-1.598-1.014l-2.255-.243C1.47 6 .285 5.043.285 3.4.285 1.643 2.183.5 4.88.5c2.983 0 4.752 1.143 4.752 3.029h-2.24c-.1-.829-.913-1.258-2.469-1.258-1.555 0-2.269.372-2.269 1.058 0 .6.457.814 1.285.9zm66.627 4.3c-1.926 0-3.054-1.115-3.054-3.029s1.128-3.029 3.054-3.029c1.498 0 2.383.586 2.697 1.743h2.455C75.475 2 73.378.5 70.566.5c-3.353 0-5.537 1.971-5.537 5 0 3.043 2.17 5 5.537 5 2.925 0 4.966-1.557 5.18-3.943h-2.454C73.149 7.8 72.15 8.53 70.566 8.53zM57.139 6.4l1.754-4.6h.072l1.746 4.6h-3.572zM57.066.743l-3.624 9.514h2.226l.79-2.071h4.93l.787 2.071h2.469L61.005.743h-3.939zm-35.575 0h-2.512L15.283 4.5H14.17V.743h-2.254v9.514h2.254V6.3h1.113l3.653 3.957h2.926l-4.715-5.095L21.49.742zm6.364 0h2.255v7.686h5.137v1.828h-7.392V.743zm11.16 0H36.76v9.514h7.392V8.43h-5.137V.743zm8.904 1.828h5.68V.743h-7.935v9.514h2.255v-3.5h4.71V4.93h-4.71V2.57zm-22.49 7.686h-2.254V.743h2.255v9.514zM89.532.743h5.753v2.186H89.53V.743zm0 2.186V8.07h-2.383V2.93h2.383zm5.753 0h2.383V8.07h-2.383V2.93zm9.789 2.428h-3.068V2.571h3.068c1.057 0 1.713.543 1.713 1.4 0 .858-.656 1.386-1.713 1.386zm4.053-1.386c0-1.985-1.541-3.228-4.053-3.228h-5.337v9.514h2.269V7.186h2.226l2.555 3.071h2.754l-2.91-3.499c1.576-.38 2.496-1.374 2.496-2.787zm8.462-3.228l-2.697 4.228-2.697-4.228h-2.626L113.65 7v3.257h2.254V7L120 .743h-2.412zM80.07 2.57h-3.567V.743h9.403V2.57h-3.581v7.686H80.07V2.571zm15.214 7.686H89.53V8.071h5.753v2.186z" fill="#181818"/></svg>