<svg width="117" height="13" viewBox="0 0 117 13" fill="none" xmlns="http://www.w3.org/2000/svg"><g clip-path="url(#clip0)"><path d="M15.283 3.807c.626.849.938 2.045.938 3.598v5.273h-2.97V7.473c0-.777-.15-1.347-.449-1.711a1.496 1.496 0 00-.553-.418 1.541 1.541 0 00-.689-.128 1.617 1.617 0 00-.97.328c-.32.239-.57.553-.726.914a3.23 3.23 0 00-.268 1.346v4.874h-2.97V7.473c0-.783-.15-1.358-.444-1.717-.15-.178-.34-.32-.557-.414a1.553 1.553 0 00-.69-.126 1.602 1.602 0 00-.968.328 2.292 2.292 0 00-.723.92 3.15 3.15 0 00-.274 1.34v4.874H0V2.854h2.816l.038 1.185a2.949 2.949 0 011.198-1.08 3.79 3.79 0 011.778-.413c.7-.023 1.39.15 1.99.5.56.361.995.877 1.248 1.48a4.51 4.51 0 011.516-1.5 3.744 3.744 0 011.877-.48c1.257 0 2.198.42 2.822 1.261zm13.124 4.678h-7.465a2.39 2.39 0 00.781 1.474 2.24 2.24 0 001.496.51c.938 0 1.539-.337 1.807-1.008h3.224a4.336 4.336 0 01-.907 1.717 5.025 5.025 0 01-1.72 1.304 5.78 5.78 0 01-5.106-.204 5.033 5.033 0 01-1.9-1.9 5.19 5.19 0 01-.686-2.622 5.247 5.247 0 01.68-2.628 5.016 5.016 0 011.9-1.895 5.435 5.435 0 012.766-.688 5.285 5.285 0 012.722.69 4.831 4.831 0 011.822 1.873 5.32 5.32 0 01.644 2.585c-.003.265-.023.53-.058.792zm-3.02-1.98a1.54 1.54 0 00-.34-.811 1.97 1.97 0 00-.759-.566 2.575 2.575 0 00-2.36.184c-.427.287-.736.71-.875 1.196l4.334-.003zm7.585-3.651v1.185c.32-.47.768-.847 1.294-1.086a4.277 4.277 0 011.878-.407c1.348 0 2.36.421 3.034 1.264.676.849 1.011 2.045 1.011 3.598v5.27h-3.005V7.473c0-.783-.166-1.358-.498-1.717a1.776 1.776 0 00-.633-.419 1.821 1.821 0 00-.755-.121c-.398-.006-.789.1-1.125.307a2 2 0 00-.767.855 3.104 3.104 0 00-.291 1.415v4.885h-3.017V2.854h2.874zM44.254 11.9c-.674-.517-1.012-1.534-1.012-3.052V5.34h-1.944V2.854h1.944V.02L46.254 0v2.854h2.736V5.34h-2.736v3.64c-.032.355.08.707.311.982a1.119 1.119 0 00.831.309h1.594v2.406h-2.238c-.9.03-1.783-.245-2.498-.777zm8.189.395a5.023 5.023 0 01-1.915-1.898 5.184 5.184 0 01-.691-2.63 5.211 5.211 0 01.685-2.628 5.015 5.015 0 011.915-1.895 5.893 5.893 0 012.793-.702c.977 0 1.938.242 2.792.702a5.094 5.094 0 011.93 1.895c.464.802.703 1.708.693 2.628a5.148 5.148 0 01-.693 2.636 5.086 5.086 0 01-1.93 1.892 5.629 5.629 0 01-2.81.696 5.507 5.507 0 01-2.77-.696zm4.054-2.32c.368-.214.666-.525.86-.896.212-.406.319-.857.31-1.312a2.723 2.723 0 00-.31-1.315 2.24 2.24 0 00-.86-.894 2.602 2.602 0 00-2.512 0 2.263 2.263 0 00-.875.894c-.204.409-.304.86-.291 1.315-.014.454.086.904.291 1.312.2.373.502.683.875.897a2.603 2.603 0 002.512 0zm8.774-7.121v1.389c.219-.431.56-.791.986-1.037a2.62 2.62 0 011.407-.35h1.166v2.487h-1a2.271 2.271 0 00-.977.166 2.21 2.21 0 00-.803.564c-.43.486-.644 1.181-.642 2.084v4.526H62.38v-9.83h2.891zm6.377 9.444a4.79 4.79 0 01-1.664-1.9 5.776 5.776 0 01-.604-2.631 5.722 5.722 0 01.607-2.62 4.919 4.919 0 011.667-1.9 4.167 4.167 0 012.381-.702 4.577 4.577 0 011.988.41c.55.252 1.01.657 1.324 1.163V2.853H80.2v9.824h-2.862v-1.242c-.311.504-.77.907-1.318 1.157-.62.287-1.299.43-1.985.419a4.248 4.248 0 01-2.387-.713zm4.372-2.322c.371-.224.674-.54.875-.917a2.62 2.62 0 00.323-1.292 2.58 2.58 0 00-.332-1.262 2.454 2.454 0 00-.874-.925 2.32 2.32 0 00-1.225-.342 2.481 2.481 0 00-1.224.308 2.21 2.21 0 00-.874.888 2.702 2.702 0 00-.324 1.347c-.014.48.098.954.327 1.38.2.364.503.664.874.866.37.193.786.29 1.207.282.436.003.864-.112 1.235-.333h.012zm21.781-6.168c.623.848.939 2.045.939 3.598v5.272h-2.974V7.474c0-.777-.15-1.348-.449-1.712a1.49 1.49 0 00-.553-.418 1.534 1.534 0 00-.688-.128 1.619 1.619 0 00-.971.328 2.24 2.24 0 00-.723.914 3.184 3.184 0 00-.268 1.346v4.874h-2.973V7.474c0-.784-.146-1.358-.443-1.717a1.506 1.506 0 00-.56-.417 1.552 1.552 0 00-.694-.124c-.35.001-.69.117-.965.328a2.292 2.292 0 00-.725.92 3.19 3.19 0 00-.271 1.34v4.874H82.51V2.854h2.815l.038 1.186a2.96 2.96 0 011.207-1.08 3.795 3.795 0 011.78-.414c.7-.023 1.39.15 1.989.5.558.36.992.872 1.247 1.472a4.502 4.502 0 011.513-1.5 3.747 3.747 0 011.877-.472c1.256 0 2.197.42 2.825 1.262zm4.915 8.49a4.788 4.788 0 01-1.664-1.9 5.773 5.773 0 01-.604-2.631 5.738 5.738 0 01.606-2.62 4.928 4.928 0 011.668-1.9 4.169 4.169 0 012.369-.702 4.58 4.58 0 011.989.41c.55.252 1.01.657 1.323 1.163V2.853h2.854v9.824h-2.863v-1.242a3.007 3.007 0 01-1.32 1.157 4.528 4.528 0 01-1.962.419 4.25 4.25 0 01-2.396-.713zm4.358-2.322c.371-.223.673-.54.874-.917.219-.397.33-.842.324-1.292a2.572 2.572 0 00-.318-1.262 2.44 2.44 0 00-.874-.925 2.303 2.303 0 00-1.222-.342 2.483 2.483 0 00-1.224.308 2.206 2.206 0 00-.874.888 2.71 2.71 0 00-.324 1.347c-.01.475.104.945.332 1.366.2.364.504.664.875.865.37.194.786.291 1.206.283a2.36 2.36 0 001.225-.32z" fill="#000"/><path d="M115.086 12.678c1.056 0 1.912-.831 1.912-1.856 0-1.025-.856-1.855-1.912-1.855s-1.913.83-1.913 1.855.857 1.856 1.913 1.856z" fill="#001CE6"/></g><defs><clipPath id="clip0"><path fill="#fff" d="M0 0h117v13H0z"/></clipPath></defs></svg>