<svg width="89" height="17" viewBox="0 0 89 17" fill="none" xmlns="http://www.w3.org/2000/svg"><g clip-path="url(#clip0)"><path d="M0 15.368l44.534-1.156L89 15.368v.476L44.534 17 0 15.844v-.476z" fill="#F6D900"/><path d="M15.404.408h4.238v8.024h5.381v2.312h-9.62V.408zm53.884 10.744c3.296 0 6.054-1.02 6.054-3.74V.408H71.24v6.664a1.853 1.853 0 01-.553 1.394 1.814 1.814 0 01-1.398.51 1.798 1.798 0 01-1.443-.482 1.837 1.837 0 01-.575-1.422V.408h-4.104v7.004c0 2.72 2.758 3.74 6.122 3.74zm14.665-7.956h4.373C88.124.816 84.828.068 82.27.068c-2.556 0-5.92.884-5.92 3.468s1.817 2.448 3.095 2.72l3.229.612c1.01.272 1.615.476 1.615 1.088 0 .612-.673 1.02-1.884 1.02-1.211 0-1.95-.34-2.153-1.224H75.88c.201 2.788 3.767 3.4 6.592 3.4 2.826 0 6.19-.68 6.19-3.468 0-1.496-.943-2.516-3.297-2.992l-3.633-.68c-.874-.136-1.21-.476-1.21-.884 0-.408.47-.952 1.681-.952s1.615.34 1.75 1.02zm-25.428 3.74h-4.171v3.808h-4.036V.408h8.274c3.162 0 3.834 2.176 3.834 3.332 0 1.156-.807 3.196-3.901 3.196zm-4.171-2.244h2.69c.942 0 1.279-.476 1.279-1.02s-.606-1.02-1.278-1.02h-2.691v2.04zM30.136.68l-1.95 3.4c-.135.204-.135.204-.27 0l-1.95-3.4-.135-.272h-4.238l4.44 6.868v3.468h4.036V7.276l4.44-6.868h-4.306V.68h-.067zm12.849 10.064l.135-.204 2.152-5.1c.09-.136.157-.136.202 0v5.304h3.43V.408h-4.17V.68L42.11 6.528c-.067.272-.201.272-.269 0L39.218.68V.408h-4.306v10.336h3.431V5.44c0-.136.135-.136.202 0l2.153 5.1.134.204h2.153zM7.33 0C3.161 0 .201 2.108.201 5.576c0 3.468 2.96 5.576 7.13 5.576s7.13-2.108 7.13-5.576c0-3.468-2.96-5.576-7.13-5.576zm0 8.976c-1.749 0-2.825-1.292-2.825-3.4 0-2.108 1.076-3.4 2.825-3.4 1.75 0 2.825 1.292 2.825 3.4 0 2.108-1.076 3.4-2.825 3.4z" fill="#343E8B"/></g><defs><clipPath id="clip0"><path fill="#fff" d="M0 0h89v17H0z"/></clipPath></defs></svg>