<svg width="100" height="18" viewBox="0 0 100 18" fill="none" xmlns="http://www.w3.org/2000/svg"><path d="M67.816 12.045V9.948h3.326c.718 0 1.172.415 1.172 1.04 0 .623-.472 1.057-1.172 1.057h-3.326zm3.119-6.178c.718 0 1.153.397 1.153.964 0 .605-.434 1.02-1.153 1.02h-3.12V5.867h3.12zm2.702 2.947v-.113c.908-.586 1.323-1.36 1.323-2.419 0-1.682-1.115-2.664-3.043-2.664h-6.974v10.808h6.861c2.098 0 3.44-1.21 3.44-3.119 0-1.208-.454-1.869-1.607-2.493zm-26.124.227c0 1.606-1.191 2.835-2.74 2.835-1.569 0-2.76-1.304-2.76-2.91s1.191-2.834 2.76-2.834c1.55 0 2.74 1.228 2.74 2.909zm-8.201 8.503h2.797v-3.949c.699.586 1.663 1.02 2.986 1.02 3.062 0 5.33-2.494 5.33-5.668s-2.269-5.517-5.33-5.517c-1.323 0-2.287.415-2.986 1v-.888h-2.797v14.002zM54.347 9.04c0-1.682 1.19-2.91 2.74-2.91 1.569 0 2.76 1.23 2.76 2.835 0 1.606-1.191 2.91-2.76 2.91-1.55 0-2.74-1.23-2.74-2.835zm8.202 5.386V3.544h-2.797v1c-.7-.679-1.663-1.114-2.986-1.114-3.062 0-5.33 2.342-5.33 5.517 0 3.174 2.269 5.668 5.33 5.668 1.323 0 2.287-.472 2.986-1.227v1.039h2.797zm31.053.113c1.399 0 2.438-.472 3.081-1.285v1.172h2.816V3.618h-2.872v5.593c0 1.624-1.001 2.644-2.438 2.644-1.493 0-2.4-1.02-2.4-2.644V3.618h-2.872v5.763c-.003 3.25 1.68 5.159 4.685 5.159zm-16.57-.113h2.949v-4.062h3.818v4.062h2.948V3.618h-2.948v3.93H79.98v-3.93h-2.948v10.809zm-44.537.188c2.683 0 4.706-1.455 5.405-3.854l-2.854-.718a2.604 2.604 0 01-2.495 1.814c-1.606 0-2.797-1.21-2.797-2.835s1.191-2.835 2.797-2.835a2.57 2.57 0 012.457 1.758l2.873-.718c-.7-2.324-2.779-3.797-5.386-3.797-3.308 0-5.651 2.323-5.651 5.592 0 3.288 2.324 5.593 5.65 5.593z" fill="#002A3A"/><path d="M19.125 1.893c3.626 3.619 3.149 9.691-.263 13.194-3.575 3.671-9.451 3.998-13.196.262l6.744-6.728 6.715-6.728z" fill="url(#paint0_angular_3075_2124)"/><path d="M16.613 2.446C14.894.73 12.3 0 9.87 0 7.44 0 5.224 1.08 3.505 2.795 1.785 4.51.499 6.952.499 9.377s.908 4.78 2.627 6.495l6.743-6.728 6.744-6.698z" fill="url(#paint1_angular_3075_2124)"/><defs><radialGradient id="paint0_angular_3075_2124" cx="0" cy="0" r="1" gradientUnits="userSpaceOnUse" gradientTransform="rotate(133.649 4.318 6.803) scale(10.3874 10.2787)"><stop offset=".506" stop-color="#0F0"/><stop offset="1" stop-color="#00C600"/></radialGradient><radialGradient id="paint1_angular_3075_2124" cx="0" cy="0" r="1" gradientUnits="userSpaceOnUse" gradientTransform="rotate(136.547 3.2 6.698) scale(10.3584 10.2465)"><stop offset=".506" stop-color="#22A9FF"/><stop offset="1" stop-color="#19E0F0"/></radialGradient></defs></svg>