<svg width="75" height="32" viewBox="0 0 75 32" fill="none" xmlns="http://www.w3.org/2000/svg"><g clip-path="url(#clip0)"><path fill-rule="evenodd" clip-rule="evenodd" d="M72.247 14.122c-5.291-3.068-17.507-6.186-22.67-6.602l-3.887-.316c-4.15-.336-6.44-.523-8.194-.523-1.754 0-12.073.839-12.073.839-5.17.408-17.379 3.534-22.67 6.602C.27 15.562 0 16.574 0 19.964v8.638c0 .703.086 1.728.813 2.502C1.654 32 2.738 32 4.001 32h66.998c1.263 0 2.347 0 3.188-.896.727-.774.813-1.8.813-2.502v-8.638c0-3.39-.271-4.401-2.753-5.842z" fill="#007A53"/><path fill-rule="evenodd" clip-rule="evenodd" d="M74.173 28.602c0 .545-.057 1.334-.57 1.878-.6.639-1.441.639-2.604.639H4.001c-1.163 0-2.004 0-2.603-.639-.514-.544-.57-1.333-.57-1.878v-8.638c0-3.276.284-3.892 2.324-5.075 5.206-3.018 17.243-6.086 22.342-6.495l3.887-.315c4.136-.473 6.432-.63 8.151-.63 1.719 0 4.322.107 8.101.63l3.887.315c5.099.41 17.136 3.477 22.342 6.495 2.04 1.183 2.325 1.8 2.325 5.075v8.638h-.014z" fill="#fff"/><path d="M53.734 4.545l-.485-.15c-.135-.037-3.259-.89-4.293-.918l.228-1.255c.015-.093-.02-.186-.092-.287C48.65 1.333 44.05 0 37.439 0c-6.518 0-11.296 1.233-11.745 1.778-.071.086-.1.172-.078.265l.313 1.427c-1.04.028-4.157.881-4.293.917l-.485.15.293.338 1.847 1.97-.4 3.341-.042.466.42-.107c.386-.093.82-.222 1.277-.359 1.055-.315 2.253-.673 3.095-.673.007 0 .627-.015 1.24-.065.215-.021.336-.079.357-.194.072-.286-.649-.774-.834-.896.32-.286 5.306-.831 9.035-.81h.164c3.723 0 8.593.538 8.879.81-.186.122-.906.61-.842.904.029.107.143.172.357.193.613.058 1.234.065 1.24.065.842 0 2.033.358 3.096.674.456.136.891.265 1.276.358l.42.107-.448-3.799 1.86-1.978.293-.337z" fill="#DA291C"/><path d="M47.217 8.036l-.1-.08c-.392-.379-5.356-.981-9.578-.924-4.228-.057-9.498.638-9.784 1.047l-.043.05-.035-.136c-.014-.058-1.155-5.398-1.227-5.678-.007-.028.022-.086.064-.136C26.928 1.65 31.75.602 37.54.602c2.56 0 5.228.287 7.51.703 1.825.33 3.13.688 3.351.974.029.043.022.122.015.165-.065.28-1.077 5.011-1.091 5.061l-.107.53zm-20.089.638l-1.07-4.66h-.021c-.82 0-3.844.817-3.844.817l1.718 1.821-.37 3.219s1.04-.273 1.511-.402c.543-.15 1.056-.293 1.498-.394.335-.071.6-.093.834-.107a2.29 2.29 0 01.221-.015l-.1-.057-.377-.222zm20.616.086l1.07-4.66h.022c.82 0 3.843.817 3.843.817l-1.718 1.821.37 3.219s-1.04-.273-1.511-.402c-.542-.15-1.056-.293-1.498-.394a5.307 5.307 0 00-.834-.107 2.286 2.286 0 00-.221-.015l.1-.057.377-.222z" fill="#007A53"/><path d="M66.386 17.649l-.685-.129c.057-.588.128-1.19.185-1.77.3.085.6.193.899.286-.121.523-.271 1.068-.4 1.613zM3.238 18.66c2.781-2.093 5.912-2.832 5.912-2.832l-.022 3.04.05 9.756h-2.41l-.014-9.548-1.277.516.021 9.018-2.26.014V18.66zm18.049 9.964V15.118l-1.362.216.029 13.29h-2.46l.014-11.893c0-.3-.015-2.989-.015-2.989 2.054-.53 6.304-1.082 6.304-1.082l.015 15.964h-2.525zm-11.331 0l.278-1.971s.178-1.656.256-1.972l1.134-9.613c1.869-.595 3.28-.745 3.28-.745l1.013 10.473.47 3.828h-2.16l-.45-4.351h-1.254l-.4 4.35H9.956zm3.159-10.91h-.022l-.406 4.688h.856l-.428-4.689zm11.617 10.91s.313-3.627.392-3.943l1.048-12.322c1.27-.15 3.295-.345 3.295-.345l1.526 12.79c.05.25.47 3.82.47 3.82H29.09l-.342-4.99h-1.59l-.272 4.99H24.59h.143zm3.18-12.774h-.021l-.57 5.577h1.19l-.599-5.577zm6.59-1.312c0-.294.035-2.774.035-2.774a63.2 63.2 0 016.055 0s-.022 2.473-.022 2.774v11.29h.87v2.782h-2.332v-.896h-3.016v.896h-2.51v-2.76l.335-.007s.584-.366.584-.94V14.539zm3.75-.817h-1.276v10.71c0 .716-.071.953-.214 1.369h1.49V13.72zm9.45 5.169l1.526-6.524c.834.072 2.403.33 2.403.33l-2.075 7.706 1.847 8.229h-2.268l-1.184-6.853h-.021l.092 6.853h-2.617l.022-6.244-.022-.609-.991 6.853h-2.303l1.604-8.165-1.49-5.075c-.378-1.484-.842-3.591-.842-3.591.57-.008 2.275.15 2.275.15l1.769 6.946L45.405 12c.457.007 2.475.244 2.475.244l-.178 6.645zm6.974 9.791c-1.726 0-2.917-1.075-2.917-2.953V15.699c0-1.885 1.191-2.817 2.917-2.717 2.325.13 2.91 1.169 2.91 3.054v9.692c0 1.885-1.191 2.953-2.91 2.953zm0-2.244c.5 0 .47-.537.47-.594V15.9c0-.05.03-.588-.47-.588-.506 0-.478.53-.478.588v9.943c0 .05-.028.595.478.595zm7.901 2.187l-.014-5.068h-1.369l.007 5.068h-2.574V13.95l2.56.695.007 6.266h1.37v-6.022l2.56.746v12.989h-2.547zm6.497-9.111c-.52 0-.456.559-.456.889v5.763c0 .33-.064.889.456.889s.635-.566.635-.889v-.91h1.918s.071 1.835-.45 2.537c-.52.71-.912.968-1.925.997-1.005.028-1.968-.194-2.467-.667-.692-.645-.663-1.491-.663-2.373v-5.777c0-.717.092-1.628.677-2.115.542-.452 1.434-.43 2.382-.395.956.036 2.16.51 2.318 1.355.157.846.128 2.395.128 2.395H69.71v-.81c0-.33-.114-.89-.635-.89z" fill="#DA291C"/><path d="M28.86 2.745l2.696-.423.528 3.413-.685.107-.442-2.839-1.326.208.442 2.839-.685.108-.528-3.413zm3.609-.53l.649-.05.185 2.294 1.205-2.402L35.2 2l.271 3.44-.656.051-.178-2.244-1.206 2.359-.691.057-.271-3.448zm3.637-.258h.691l.015 2.874 1.348-.007-.015-2.874h.692l.014 2.874h.286l.007 1.334h-.578v-.753l-2.439.014-.021-3.462zm3.722.021l.692.058-.228 2.86 1.34.107.229-2.86.692.058-.229 2.86.285.021-.106 1.326-.578-.043.057-.752-2.425-.194.271-3.44zm6.176 4.28l-.742-.13-.157-.823-1.354-.237-.414.724-.728-.13 1.912-3.168.72.13.763 3.634zm-1.02-1.57l-.242-1.34-.678 1.182.92.158z" fill="#fff"/></g><defs><clipPath id="clip0"><path fill="#fff" d="M0 0h75v32H0z"/></clipPath></defs></svg>