<svg width="48" height="48" viewBox="0 0 48 48" fill="none" xmlns="http://www.w3.org/2000/svg"><path fill-rule="evenodd" clip-rule="evenodd" d="M33.346 13.828c-.89-.83-1.853.246-1.853.246L28.15 10.19c-.026-.03-.026-.063-.057-.092-1.3-1.535-1.588-3.605-.666-5.671 1.73-3.07 5.423-3.543 7.587-.628L36.6 5.333l1.73-1.757c.114-.154.26-.28.376-.405 2.248-1.598 4.527-1.38 6.03-.092.492.469.895 1.067 1.241 1.786.665 2.008.32 3.92-.922 5.3-.026.029-.057.063-.057.091l-2.209 2.559a.826.826 0 01-.474.275l-.58.101a.783.783 0 00-.444.246l-1.029 1.115v.034l-2.824 3.04a.254.254 0 000 .343c.089.092.23.092.346 0l2.797-3.007.289.343-2.798 2.978c-.084.125-.084.28 0 .376a.22.22 0 00.32 0l2.797-3.006.288.342-2.767 2.978a.264.264 0 000 .343.22.22 0 00.32 0l2.74-2.944.288.342-2.71 2.945a.254.254 0 000 .342.22.22 0 00.32 0l2.855-3.07.95-1.008c.221-.237.332-.565.305-.898l-.035-.425a.918.918 0 01.235-.695c.86-.94 1.937-1.906 2.669-2.896l.026-.029s0-.033.027-.033a7.288 7.288 0 001.3-4.17c0-.28 0-.565-.032-.879-.23-2.133-1.414-3.948-3.06-4.986-.03 0-.057-.029-.088-.029-.026-.034-.057-.034-.084-.062A5.513 5.513 0 0041.797 0c-2.163 0-4.096 1.192-5.192 3.04C35.48 1.193 33.577 0 31.413 0c-3.431 0-6.229 3.04-6.229 6.772 0 1.66.55 3.166 1.44 4.358.232.28.493.531.75.782l1.96 2.196 6.983 7.611c1.277.531.328-2.978-.532-4.503-.922-1.626-1.392-2.413-2.438-3.388z" fill="#FB5A16"/><path d="M2.439 18.703c.74-.898 1.738-1.337 2.988-1.337 1.419 0 2.416.67 2.775 1.66.785-1.105 1.845-1.66 3.22-1.66 2.034 0 3.05 1.27 3.05 3.784v5.927c0 .463-.36.854-.785.854h-.869c-.426 0-.785-.39-.785-.854V21.84c0-1.313-.55-1.984-1.631-1.984-.931 0-1.588.391-1.969 1.202 0 .092.022.599.022.763v5.26c0 .464-.359.855-.785.855h-.869c-.425 0-.784-.391-.784-.854v-5.425c0-1.106-.572-1.8-1.588-1.8-.869 0-1.547.366-1.99 1.105v6.115c0 .463-.36.854-.785.854h-.87c-.425 0-.784-.396-.784-.854v-8.674c0-.463.36-.854.785-.854h.869c.425 0 .785.391.785.854v.3zm18.307 4.522c.084.232.235.739.465 1.501.107-.67.235-1.177.337-1.52l1.463-4.846c.169-.53.51-.806 1.038-.806h.616c.51 0 .931.464.931 1.014 0 .116-.022.256-.062.39l-3.241 8.973c-.656 1.844-1.25 3.07-1.778 3.693-.532.622-1.166.921-1.906.921-.528 0-1.082-.14-1.61-.439-.253-.14-.381-.367-.381-.67 0-.116.022-.208.062-.3l.275-.623c.146-.347.337-.506.616-.506.129 0 .297.024.488.067.062.024.146.024.275.024.572 0 1.06-.53 1.463-1.617l.213-.555-3.836-9.02a1.035 1.035 0 01-.084-.391c0-.531.381-.97.891-.97h.914c.425 0 .718.207.89.646l1.96 5.034zM2.544 46.895c0 .463-.36.854-.785.854H.89c-.426 0-.785-.39-.785-.854V35.683c0-2.838 1.25-4.34 3.392-4.34.785 0 1.485.184 2.097.532.275.159.404.39.404.738a.84.84 0 01-.107.391l-.19.367c-.19.39-.488.574-.87.574-.061 0-.168-.024-.319-.048a2.314 2.314 0 00-.571-.067c-.932 0-1.397.69-1.397 2.05v1.478h1.8c.426 0 .785.39.785.854v.782c0 .463-.36.854-.785.854h-1.8v7.047zM12.313 48c-1.547 0-2.798-.507-3.751-1.545-.953-1.013-1.44-2.307-1.44-3.9 0-1.592.487-2.88 1.44-3.923.953-1.014 2.204-1.52 3.751-1.52 1.547 0 2.82.506 3.773 1.52.953 1.037 1.419 2.33 1.419 3.924 0 1.592-.466 2.881-1.419 3.9C15.133 47.492 13.86 48 12.313 48zm-2.585-5.444c0 1.727 1.082 2.978 2.585 2.978 1.525 0 2.607-1.202 2.607-2.978 0-1.728-1.104-2.954-2.607-2.954-1.463.005-2.585 1.202-2.585 2.954zM24.648 48c-1.548 0-2.798-.507-3.752-1.545-.953-1.013-1.44-2.307-1.44-3.9 0-1.592.487-2.88 1.44-3.923.954-1.014 2.204-1.52 3.752-1.52 1.547 0 2.82.506 3.773 1.52.953 1.037 1.419 2.33 1.419 3.924 0 1.592-.466 2.881-1.42 3.9C27.464 47.492 26.196 48 24.648 48zm-2.585-5.444c0 1.727 1.081 2.978 2.585 2.978 1.525 0 2.607-1.202 2.607-2.978 0-1.728-1.104-2.954-2.607-2.954-1.464.005-2.585 1.202-2.585 2.954zM40.666 31.6c.426 0 .785.39.785.853v14.441c0 .464-.36.855-.785.855h-.87c-.425 0-.784-.391-.784-.855v-.231c-.74.854-1.654 1.27-2.736 1.27-1.356 0-2.438-.483-3.263-1.454-.825-.946-1.228-2.215-1.228-3.808 0-1.636.488-2.978 1.463-4.015.976-1.038 2.226-1.545 3.773-1.545.807 0 1.463.16 1.991.507v-5.165c0-.463.36-.854.785-.854h.869zm-1.654 8.629c-.616-.415-1.228-.623-1.884-.623-1.526 0-2.736 1.13-2.736 2.978 0 1.776 1.037 2.882 2.394 2.882.825 0 1.57-.348 2.226-1.062v-4.175z" fill="#181D29"/></svg>