<svg width="104" height="14" viewBox="0 0 104 14" fill="none" xmlns="http://www.w3.org/2000/svg"><g clip-path="url(#clip0_730_1784)"><path d="M56.176 1.715l3.854-.156V14h2.867V1.56l3.857.155V.075H56.176v1.64zM96.262.075V14h2.836V1.56l4.402.155V.075h-7.238zM22.32 9.778V.074h-2.89V14h1.534l7.27-9.702V14h2.889V.074h-1.535L22.319 9.78zm31.27-4.042L51.53.338h-2.66L43.184 14h1.45c1.767-3.136 5.97-6.092 8.501-6.808.189-.055.26.078.06.19-2.408 1.35-4.805 2.98-5.89 4.594a9.482 9.482 0 004.215-1.409c2.866-1.82 4.546-5.187 4.546-5.187a17.08 17.08 0 00-2.475.356zm-6.42 3.523l-.006-.002 2.262-6.127h.086l1.26 3.481c-.52.22-1.02.48-1.498.78a8.762 8.762 0 00-2.103 1.868zM53.54 14h3.28l-2.04-5.145a9.762 9.762 0 01-2.48 1.97L53.539 14zm20.7-14c-3.814 0-6.965 2.673-6.965 6.837 0 4.036 2.645 6.838 6.965 6.838 3.815 0 6.962-2.802 6.962-6.838C81.203 2.673 78.561 0 74.241 0zm0 12.484c-2.583 0-3.787-2.529-3.787-5.647 0-3.117 1.448-5.646 3.787-5.646 2.584 0 3.786 2.529 3.786 5.646 0 3.118-1.448 5.647-3.786 5.647zM13.023.074L8.574 9.37 4.398.074H2.224L.5 14h1.643l1.114-9.352 3.836 8.832H8.28l4.372-9.167L13.695 14h2.95L15.146.074h-2.122zm70.81 0V14h2.92V8.67c.425.045.854.067 1.282.065 3.41 0 5.431-1.978 5.431-4.356 0-2.664-2.051-4.303-5.497-4.303L83.832.074zm2.92 7.437V1.27h.615c2.28 0 3.159 1.363 3.159 3.108 0 1.748-.879 3.164-3.159 3.164a6.88 6.88 0 01-.616-.032zM34.512.074V14h2.918V8.67c.426.045.854.067 1.283.065 3.411 0 5.432-1.978 5.432-4.356 0-2.664-2.05-4.303-5.497-4.303L34.513.074zm3.536 7.47a6.88 6.88 0 01-.618-.033v-6.24h.618c2.28 0 3.159 1.363 3.159 3.108 0 1.748-.88 3.164-3.159 3.164z" fill="#58595B"/><path d="M43.184 14h1.45c1.767-3.136 5.97-6.092 8.5-6.808.19-.055.26.078.06.19-2.408 1.35-4.804 2.98-5.89 4.594a9.48 9.48 0 004.216-1.409c2.865-1.82 4.546-5.187 4.546-5.187-.833.058-1.523.142-2.476.356-2.44.548-3.838 1.355-4.316 1.655a8.762 8.762 0 00-2.103 1.868C46.575 9.991 43.184 14 43.184 14z" fill="#96C850"/></g><defs><clipPath id="clip0_730_1784"><path fill="#fff" transform="translate(.5)" d="M0 0h103v14H0z"/></clipPath></defs></svg>