<svg width="37" height="41" viewBox="0 0 37 41" fill="none" xmlns="http://www.w3.org/2000/svg"><path d="M1.233 25.846A1.235 1.235 0 010 24.616v-8.998a1.23 1.23 0 011.233-1.23h8.986a1.235 1.235 0 011.233 1.23v8.997a1.23 1.23 0 01-1.233 1.231H1.233z" fill="#005CFF"/><path d="M1.233 11.84A1.235 1.235 0 010 10.61V1.611A1.23 1.23 0 011.233.382h8.986a1.235 1.235 0 011.233 1.23v8.997a1.23 1.23 0 01-1.233 1.231H1.233z" fill="#FFE700"/><path d="M15.232 11.84a1.235 1.235 0 01-1.234-1.23V1.611a1.23 1.23 0 011.234-1.23h8.985a1.235 1.235 0 011.233 1.23v8.997a1.23 1.23 0 01-1.233 1.231h-8.985z" fill="#00DADA"/><path d="M16.395 20.625l.008.096c.09.913.355 1.645.798 2.195.554.688 1.353 1.032 2.399 1.032.686 0 1.281-.157 1.782-.471.502-.314.893-.763 1.173-1.349l2.156.688c-.441 1.023-1.111 1.815-2.009 2.375-.897.561-1.896.842-2.997.842-1.13 0-2.12-.249-2.972-.746a5.17 5.17 0 01-1.988-2.085c-.473-.893-.71-1.928-.71-3.106 0-1.249.233-2.331.7-3.249.466-.917 1.117-1.626 1.95-2.126.835-.501 1.806-.752 2.915-.752 1.156 0 2.142.27 2.955.81.814.54 1.422 1.306 1.825 2.301.403.995.562 2.177.479 3.545h-8.464zm6.317-1.697c-.105-.826-.35-1.466-.736-1.92-.515-.607-1.3-.91-2.351-.91-1.163 0-2.038.333-2.623 1l-.106.13c-.343.438-.572.994-.686 1.665l-.006.044h6.508v-.009zm5.926 6.327c-.794-.519-1.406-1.226-1.838-2.12-.431-.896-.647-1.902-.647-3.022 0-1.127.218-2.134.652-3.021a5.121 5.121 0 011.855-2.105c.802-.515 1.753-.772 2.855-.772 1.11 0 2.043.257 2.801.772l.186.132c.06.046.12.093.178.141l.033.03v-4.496h2.285V25.72h-2.023v-1.03l-.138.132a4.885 4.885 0 01-.537.426c-.761.522-1.704.783-2.828.783-1.095 0-2.04-.26-2.834-.777zm4.81-1.785a2.82 2.82 0 001.05-1.351c.22-.574.33-1.234.33-1.982 0-.747-.111-1.407-.336-1.981-.225-.573-.571-1.02-1.038-1.34-.468-.32-1.063-.48-1.785-.48-.766 0-1.396.17-1.889.51a3.06 3.06 0 00-1.1 1.37c-.239.574-.358 1.214-.358 1.922 0 .714.12 1.359.359 1.936.24.577.6 1.035 1.082 1.376.483.34 1.092.51 1.829.51.758 0 1.377-.163 1.856-.49zM4.465 40V28.573H9.4c.114 0 .267.004.459.013.192.007.364.024.516.05.697.106 1.27.332 1.717.675.44.336.781.784.986 1.298.211.521.317 1.101.317 1.741a4.56 4.56 0 01-.32 1.743 3.09 3.09 0 01-.992 1.297c-.446.345-1.016.57-1.708.676a8.94 8.94 0 01-.975.063H6.673V40H4.465zm4.842-5.894c.114 0 .239-.006.374-.016.136-.01.26-.032.374-.064.298-.078.529-.212.691-.4.163-.187.276-.396.338-.625.062-.23.093-.448.093-.654 0-.206-.03-.424-.093-.654a1.576 1.576 0 00-.338-.625c-.162-.188-.393-.322-.69-.4a1.961 1.961 0 00-.375-.064 4.805 4.805 0 00-.374-.016H6.672v3.518h2.635zM15.947 40V28.573h4.848c.112 0 .262.004.45.013.19.007.358.024.507.05.686.106 1.248.332 1.687.675.434.338.768.786.968 1.298.208.521.311 1.101.311 1.741 0 .959-.239 1.778-.717 2.457l-.099.133c-.282.35-.644.628-1.055.81l-.043.018 2.074 4.234h-2.456l-1.886-3.872-2.42-.001V40h-2.169zm4.753-5.894a4.7 4.7 0 00.367-.016c.132-.01.255-.032.366-.064.293-.078.518-.212.678-.4.16-.187.27-.396.33-.625.063-.23.093-.448.093-.654 0-.206-.031-.424-.092-.654a1.586 1.586 0 00-.33-.625c-.16-.188-.386-.322-.68-.4a1.888 1.888 0 00-.365-.064 4.63 4.63 0 00-.367-.016h-2.584v3.518H20.7zm7.495 5.179a4.93 4.93 0 01-1.982-2.004c-.463-.858-.695-1.856-.695-2.994 0-1.139.232-2.136.695-2.995a4.93 4.93 0 011.982-2.003c.858-.478 1.88-.717 3.064-.717 1.184 0 2.206.24 3.064.717a4.93 4.93 0 011.983 2.003c.463.859.694 1.857.694 2.995 0 1.138-.232 2.135-.695 2.994a4.93 4.93 0 01-1.983 2.004c-.857.477-1.879.715-3.063.715-1.184 0-2.206-.238-3.064-.715zm4.94-1.684a2.86 2.86 0 001.122-1.318c.25-.57.374-1.234.374-1.996s-.124-1.422-.374-1.982a2.868 2.868 0 00-1.122-1.302c-.5-.31-1.124-.47-1.876-.48-.751-.01-1.377.14-1.875.45-.5.309-.874.748-1.123 1.317-.25.57-.374 1.235-.374 1.997s.125 1.421.374 1.98c.25.56.624.993 1.123 1.303.5.31 1.124.47 1.875.48.752.01 1.376-.14 1.876-.45z" fill="#1C3749"/></svg>