<svg width="120" height="12" viewBox="0 0 120 12" fill="none" xmlns="http://www.w3.org/2000/svg"><path fill-rule="evenodd" clip-rule="evenodd" d="M53.055 9.674h1.724V2.203h5.228v7.47h1.724V.666h-8.676v9.009zm17.891-6.07c0 .796-.593 1.25-1.655 1.25H65.4V2.202h3.89c1.062 0 1.655.453 1.655 1.25v.15zM69.332.664h-5.655v9.01H65.4V6.39h3.931c2.083 0 3.366-1.07 3.366-2.787v-.151c0-1.717-1.297-2.788-3.366-2.788zm13.247 4.615c0 1.881-1.27 2.966-3.517 2.966-2.249 0-3.532-1.085-3.532-2.966v-.192c0-1.882 1.283-2.994 3.531-2.994 2.249 0 3.518 1.112 3.518 2.994v.192zM79.062.5c-3.215 0-5.284 1.799-5.284 4.6v.152c0 2.801 2.07 4.587 5.283 4.587 3.214 0 5.27-1.786 5.27-4.588v-.15C84.33 2.299 82.274.5 79.06.5zM92.95 8.135h-5.213c.4-.727.675-1.73.703-3.062l.07-2.87h4.44v5.932zm1.711-7.47H86.91l-.069 4.353c-.014 1.263-.317 2.307-.827 3.117h-1.16V11.5h1.725V9.674h7.766V11.5h1.724V8.135H94.66V.665zm5.603 5.411l1.683-3.681 1.683 3.68h-3.366zm.731-5.411l-4.137 8.748v.26h1.752l.938-2.06h4.8l.938 2.06h1.751v-.26L102.899.665h-1.904zm16.577 0l-3.49 7.072-3.504-7.072h-2.427v9.009h1.71v-6.77l3.325 6.77h1.779l3.324-6.743v6.743H120V.664h-2.428zM8.22 8.084H2.927c.406-.739.686-1.756.714-3.109l.07-2.914h4.51v6.023zM9.957.5h-7.87l-.07 4.42c-.014 1.282-.323 2.342-.84 3.164H0V11.5h1.75V9.646h7.884V11.5h1.75V8.084H9.958V.5zm5.688 5.493l1.709-3.736 1.708 3.736h-3.417zM16.387.5l-4.2 8.881v.265h1.778l.952-2.091h4.873l.953 2.09h1.778v-.264L18.32.5h-1.933zm13.286 7.18L26.116.5H23.65v9.146h1.737V2.773l3.374 6.873h1.807L33.944 2.8v6.846h1.736V.5h-2.464l-3.543 7.18z" fill="#0B0B09"/><path d="M40.422 6.14l1.597 1.59-.99.987-2.544-2.532V4.699l2.543-2.532.991.987-1.597 1.59h8.527l-1.597-1.59.991-.987 2.543 2.532v1.486l-2.543 2.532-.991-.987 1.597-1.59h-8.527z" fill="#0B0B09"/></svg>