<svg width="100" height="15" viewBox="0 0 100 15" fill="none" xmlns="http://www.w3.org/2000/svg"><path fill-rule="evenodd" clip-rule="evenodd" d="M5.19.196c4.645 0 7.354 2.965 7.354 7.067 0 4.145-2.672 7.085-7.355 7.085H.187V.196H5.19zM3.178 2.673v9.199h2.01c2.81 0 4.363-1.637 4.363-4.608 0-2.928-1.584-4.591-4.363-4.591h-2.01zm16.593 1.325c3.642 0 5.682 2.313 5.682 5.295 0 2.938-1.946 5.294-5.682 5.294-3.705 0-5.683-2.408-5.683-5.294 0-2.886 1.978-5.295 5.683-5.295zm0 2.304c-1.677 0-2.778 1.106-2.778 2.991s1.101 2.99 2.778 2.99c1.712 0 2.778-1.063 2.778-2.99 0-1.945-1.105-2.99-2.778-2.99zM31.44 4.018c-2.37.01-4.633 1.001-4.633 3.123 0 2.282 1.677 2.62 4.229 3.043.937.17 1.771.249 1.771 1.095 0 .78-.773 1.075-1.834 1.07-1.47-.01-2.99-.587-3.655-1.103l-.809 1.84c1.015.877 2.803 1.375 4.467 1.375 2.302.036 4.671-.922 4.671-3.087 0-2.671-2.086-2.867-4.65-3.306-.728-.132-1.325-.285-1.325-.943 0-.682.802-.987 1.768-.98.993.01 2.273.314 3.054.695l.794-1.853c-1.03-.641-2.457-.975-3.848-.97zm9.391-2.455h-2.905v2.676h-1.57v2.158h1.57v3.807c0 1.63.59 2.733 1.566 3.409.953.671 2.277.918 3.784.871v-2.169c-.757-.028-1.383-.186-1.811-.538-.406-.334-.634-.841-.634-1.573V6.397h2.27V4.24h-2.27V1.563zm8.704 2.436c2.51 0 4.81 1.193 4.81 3.885v6.464h-2.56L51.66 13.1c-.804.941-1.906 1.44-3.093 1.506-2.045.135-4.136-1.108-4.136-3.44 0-2.328 2.05-3.372 4.165-3.436 1.003-.026 2.029.172 2.843.553l-.001-.461C51.4 6.555 50.2 6.018 48.912 6.04c-1.127.023-2.389.416-3.164.839l-.681-1.736C46.37 4.437 47.999 4 49.535 4zm-.251 5.508c-1.135.004-2.142.447-2.142 1.484 0 1.022 1.03 1.524 2.147 1.465.801-.037 1.567-.313 2.157-1.002V10.05c-.572-.347-1.379-.545-2.162-.542v-.001zm16.933-5.268h-2.954l-2.624 7.112-2.624-7.112H55.06l4.093 10.109h2.97l4.094-10.109zM69.099.085c-.864 0-1.564.64-1.564 1.426 0 .787.7 1.426 1.564 1.426.864 0 1.564-.64 1.564-1.426 0-.788-.7-1.426-1.564-1.426zm1.453 4.154h-2.905v10.109h2.905V4.239zm6.446-.22c-2.37.009-4.633 1.001-4.633 3.123 0 2.281 1.677 2.62 4.228 3.042.938.17 1.772.25 1.772 1.096 0 .779-.774 1.075-1.834 1.07-1.47-.01-2.99-.587-3.655-1.103l-.809 1.84c1.015.877 2.802 1.375 4.467 1.375 2.302.035 4.67-.923 4.67-3.087 0-2.672-2.085-2.867-4.65-3.307-.727-.132-1.323-.285-1.323-.942 0-.682.8-.987 1.767-.981.993.011 2.272.315 3.054.695l.793-1.852c-1.028-.642-2.456-.975-3.847-.97zm9.39-2.456h-2.904V4.24h-1.57v2.158h1.57v3.807c0 1.63.59 2.733 1.566 3.409.953.671 2.277.918 3.785.871v-2.169c-.759-.028-1.384-.186-1.813-.538-.404-.334-.633-.841-.633-1.573V6.397h2.27V4.24h-2.27V1.563zM95.093 4c2.51 0 4.81 1.193 4.81 3.884v6.464h-2.56l-.124-1.248c-.804.941-1.906 1.44-3.094 1.506-2.044.135-4.136-1.108-4.136-3.44 0-2.328 2.05-3.372 4.165-3.436 1.003-.026 2.03.172 2.844.553l-.002-.461c-.037-1.267-1.236-1.804-2.525-1.781-1.127.023-2.388.416-3.163.839l-.683-1.736C91.928 4.437 93.557 4 95.092 4zm-.25 5.508c-1.135.004-2.142.447-2.142 1.483 0 1.023 1.03 1.524 2.147 1.466.8-.038 1.567-.313 2.157-1.002V10.05c-.572-.347-1.38-.545-2.162-.542z" fill="#FF3E80"/></svg>