<svg width="92" height="14" viewBox="0 0 92 14" fill="none" xmlns="http://www.w3.org/2000/svg"><path d="M21.685.828h-3.412v.365l.73.356-4.893 11.215-.86.286v.438l3.966.005v-.443l-.72-.29 1.073-2.471h5.657l1.08 2.475-.902.286.001.443h4.343v-.443l-.851-.286L21.685.828zm-3.32 7.653l2.038-4.664 2.025 4.664h-4.063zm22.01-6.932l.72-.348V.828h-3.683v.373l.71.348v7.763L31.672.829h-2.967V1.2l.716.353V12.77l-.858.28v.443l3.974.006-.002-.45-.863-.29V5.008l6.45 8.486h2.252V1.55zM12.11 12.764L7.045 6.033l4.869-4.484.91-.355.002-.366L7.71.831l-.005.358.719.36-4.895 4.527V1.58l.716-.385V.828H.137v.373l.723.384v11.18L0 13.05v.444l4.394.006v-.45l-.865-.286v-3.78l1.705-1.515L8.9 12.764l-.93.282v.448h4.854v-.444l-.714-.286zm47.097-1.403V1.554l.71-.353V.828h-4.143l.004.373.714.348v11.216l-.855.285v.444h10.067v-3.11h-.43l-.286.977h-5.781zm-12.489 0l6.483-9.799V.828h-9.336L43.585.5l-.424.006v3.167l.423.002.273-.706h5.267l-6.488 9.713v.812l11.035.006v-3.116h-.425l-.282.977h-6.246zm23.971 0V7.913h4.073l.276.621h.43V5.225h-.43l-.276.665H70.69V2.97h6.147l.283 1.22.433-.003V.507L77.118.5l-.276.327h-9.606V1.2l.717.353v11.21l-.865.286v.444h10.953v-3.11h-.438l-.265.977h-6.65zM92 13.494v-.444l-.94-.285-3.052-4.493c1.47-.12 3.244-1.108 3.244-3.556 0-2.446-1.705-3.888-4.864-3.888h-6.557l.004.365.723.361v11.21l-.862.292v.438H84.1l-.008-.443-.859-.286V8.388h2.242l2.723 4.377-.72.286.005.443H92zm-7.388-7.31h-1.378V2.969h3.251c1.585 0 2.119.865 2.119 1.574 0 .713-.48 1.64-2.11 1.64h-1.882z" fill="#2C180B"/></svg>