<svg width="100" height="14" viewBox="0 0 100 14" fill="none" xmlns="http://www.w3.org/2000/svg"><path d="M15.324 7.138C15.324 3.086 18.38 0 22.546 0c4.676 0 7.037 3.362 7.037 6.908 0 4.099-3.148 7.046-7.037 7.046-4.49.046-7.222-3.178-7.222-6.816zm12.222.415c0-3.316-1.481-6.908-5.37-6.908-2.13 0-4.861 1.427-4.861 5.848 0 2.994 1.481 6.862 5.463 6.862 2.454 0 4.768-1.796 4.768-5.802zM5.278 13.678v-.507c1.203-.092 1.342-.23 1.342-1.75v-6.77c0-.783 0-.829-.601-.829H4.306c-.556 0-.602.092-.602.6 0 3.96-.51 7.183-1.574 8.75-.37.552-.787.828-1.158.828-.463 0-.787-.092-.972-.184v-.323c.833-.506 1.25-1.059 1.667-1.934.694-1.335 1.157-3.776 1.157-6.816 0-.782-.231-.967-1.528-1.059v-.506h8.565v.506c-1.204.092-1.342.23-1.342 1.428v6.31c0 1.519.138 1.657 1.342 1.75v.506H5.278zm34.768 0c-1.157 0-1.62-.507-2.083-1.474-.232-.46-.602-1.336-.972-2.257-.556-1.335-1.204-1.611-2.13-1.565v3.131c0 1.474.139 1.612 1.343 1.704v.46h-4.63v-.506c1.25-.092 1.389-.184 1.389-1.658V5.296c0-1.428-.139-1.52-1.389-1.612v-.552h4.63v.552c-1.25.092-1.343.184-1.343 1.612v2.44c.926 0 1.482-.137 1.99-.69.51-.46.834-1.151 1.39-2.44.555-1.244 1.157-1.705 1.944-1.705.602 0 .926.369.926.783 0 .323-.37.553-.694.553h-.324c-.649 0-1.019.414-1.76 1.888-.602 1.243-1.342 1.658-1.574 1.796v.046c.834.23 1.482.645 2.037 1.658.278.507.648 1.382 1.158 2.349.509.967.972 1.151 1.713 1.243v.46h-1.62zM52.5 10.914c-.231.783-.648 2.027-.926 2.58-.463.091-1.898.414-3.055.414-4.213 0-6.019-2.81-6.019-5.388 0-3.362 2.593-5.665 6.389-5.665 1.342 0 2.5.323 2.917.46.138.876.231 1.613.37 2.58l-.556.092c-.509-1.842-1.666-2.487-3.1-2.487-2.5 0-3.843 2.257-3.843 4.651 0 2.994 1.667 5.02 3.981 5.02 1.482 0 2.454-.875 3.241-2.487l.602.23zm8.056 2.764v-.507c1.25-.092 1.388-.23 1.388-1.704v-3.96c0-.553 0-1.336.093-2.902h-.046l-4.537 8.244c-.14.23-.14.414-.14.644v.185h-3.471v-.507c1.25-.092 1.388-.23 1.388-1.75V5.342c0-1.474-.138-1.566-1.388-1.658v-.552h4.583v.552c-1.204.092-1.343.184-1.343 1.658v3.546c0 .691 0 1.52-.092 3.224h.046l4.537-8.198c.139-.23.185-.414.185-.552v-.184h3.426v.552c-1.25.092-1.389.23-1.389 1.704v6.125c0 1.474.14 1.612 1.39 1.704v.415h-4.63zm15.092-7.875c-.185-.83-.37-1.336-.648-1.612-.278-.323-.648-.415-1.713-.415h-.88v7.783c0 1.336.14 1.474 1.62 1.612v.507h-5.092v-.507c1.39-.092 1.574-.23 1.574-1.612V3.776h-.74c-1.343 0-1.667.138-1.899.46-.231.277-.416.784-.602 1.567h-.555c.046-1.106.185-2.257.185-3.086h.37c.232.369.463.415.926.415h6.575c.416 0 .601-.093.88-.415h.37c0 .69.092 2.026.185 3.04l-.556.046zm6.945 7.875v-.507c.972-.138 1.064-.322.833-1.013-.185-.553-.463-1.29-.74-2.072h-3.242c-.231.598-.463 1.197-.648 1.888-.278.875-.185 1.059.972 1.197v.507h-3.61v-.507c1.064-.138 1.25-.276 1.805-1.704l3.333-8.381.741-.185c1.065 2.81 2.083 5.757 3.148 8.52.556 1.428.74 1.612 1.806 1.75v.507h-4.398zm-1.436-8.152h-.046c-.463 1.244-.926 2.533-1.389 3.73h2.685l-1.25-3.73zM100 3.638c-1.296.092-1.389.184-1.389 1.566v6.355c0 1.382.139 1.474 1.389 1.566v.553h-4.769v-.507c1.343-.092 1.436-.23 1.436-1.566V8.52h-4.861v3.085c0 1.382.138 1.474 1.388 1.566v.507H88.52v-.507c1.25-.092 1.388-.23 1.388-1.566V5.25c0-1.382-.138-1.474-1.435-1.566v-.552h4.676v.552c-1.204.092-1.342.184-1.342 1.566v2.44h4.86V5.205c0-1.382-.092-1.474-1.342-1.566v-.552H100v.552zm-86.435.184c0 1.244-1.111 2.119-2.222 2.395-.14-.092-.14-.276-.093-.414.694-.277 1.296-.737 1.296-1.474 0-.553-.509-.783-.88-.829-.23-.046-.509-.23-.509-.599 0-.276.186-.737.926-.737.787 0 1.482.783 1.482 1.658z" fill="#001022"/></svg>