<svg width="92" height="20" viewBox="0 0 92 20" fill="none" xmlns="http://www.w3.org/2000/svg"><path d="M19.357 5.138h-5.321v14.478h3.22v-4.822h2.096c3.588 0 5.53-1.99 5.53-4.828 0-2.946-1.785-4.828-5.53-4.828h.005zm-.33 7.166h-1.785V7.627h1.785c1.813 0 2.681.912 2.681 2.34 0 1.426-.868 2.34-2.68 2.34v-.003zm15.78-7.165h3.374l-5.589 14.479h-3.37l1.97-4.83h-1.938L25.41 5.14h3.356l2.726 7.165h.657l2.658-7.165zm35.154 0c-2.658 0-3.93 1.404-3.93 3.595 0 1.418.531 2.505 1.622 3.097l-2.056 2.959h3.654l1.425-2.49h2.527v2.49h3.205V5.138l-6.447.001zm3.245 4.863h-2.572c-.931 0-1.377-.493-1.377-1.262 0-.77.44-1.263 1.377-1.263h2.57l.002 2.525zM92 5.14v9.657h-3.209V9.61l-1.622 2.696h-3.44L82.108 9.61v5.183h-3.21V5.138h3.519l3.031 4.63 3.03-4.63L92 5.139zm-33.624-.357c-3.885 0-5.891 2.021-5.891 5.183 0 3.161 2.006 5.183 5.89 5.183 3.886 0 5.891-2.02 5.891-5.183s-2.006-5.183-5.89-5.183zm0 7.757c-1.816 0-2.686-1.003-2.686-2.574s.87-2.575 2.686-2.575c1.816 0 2.687 1.004 2.687 2.575 0 1.57-.872 2.574-2.687 2.574zM50.53 5.136v9.657h-3.203v-3.584h-4.244v3.582h-3.21V5.135h3.21v3.582h4.248V5.135l3.199.001zM6.907 4.954c-1.896 0-3.282.716-4.139 2.227l-.175-.062C3.07 5.322 4.91 4.266 7.225 3.876c3.654-.616 4.532-2.121 4.477-3.554H8.194c-.242.479-.38.773-1.672 1.048C2.2 2.27 0 4.584 0 8.483c0 4.484 2.356 6.668 6.086 6.668 4.696 0 6.017-2.634 6.017-5.233 0-3.049-2.07-4.96-5.193-4.96l-.003-.004zm-.714 7.59c-1.816 0-2.686-.979-2.686-2.546 0-1.568.87-2.546 2.686-2.546 1.816 0 2.687.978 2.687 2.546 0 1.568-.871 2.545-2.687 2.545z" fill="#000"/></svg>