<svg width="109" height="16" viewBox="0 0 109 16" fill="none" xmlns="http://www.w3.org/2000/svg"><path d="M6.06 7.027a1.999 1.999 0 00-.555.418c-.521.428-.99.92-1.395 1.465-.556.715-.556.715-1.383.463A3.747 3.747 0 01.934 8.23a3.923 3.923 0 01-.913-1.957c-.084-.384.089-.481.417-.47a5.064 5.064 0 002.41-.389c.21-.068.4-.187.555-.348.155-.16.27-.357.335-.573.072-.338.372-.458.644-.572A8.891 8.891 0 016.8 3.222c.695-.132.778-.275.606-.99a3.94 3.94 0 00-.556-1.225A28.992 28.992 0 016.205 0 6.669 6.669 0 018.82 1.877c1.978 2.386 2.917 5.07 2.023 8.206a8.902 8.902 0 01-1.94 3.25c-.727.858-1.522 1.654-2.294 2.46-.289.304-.467.258-.705-.04a3.796 3.796 0 01-.828-1.67 1.68 1.68 0 01.13-1.241c.201-.38.54-.662.942-.785.489-.195 1.006-.32 1.506-.492a1.98 1.98 0 00.95-.694c.243-.325.384-.717.405-1.126.045-.269-.205-.332-.31-.332-.45 0-.606.115-1.073-.63a1.396 1.396 0 00-.503-.37c-.192-.083-.4-.12-.608-.11-.706-.097-.706-.103-.556-.841.033-.046.083-.332.1-.435zm9.856.663v-.325a5.04 5.04 0 011.195-3.434c.39-.442.87-.79 1.404-1.023a3.898 3.898 0 011.69-.322 4.534 4.534 0 011.962.407 4.2 4.2 0 011.45 1.076v1.905h-1.4l-.19-1.305a1.96 1.96 0 00-.7-.446 2.705 2.705 0 00-1.005-.166 2.167 2.167 0 00-1.05.218c-.326.16-.61.399-.828.698a3.977 3.977 0 00-.66 2.38v.338a4 4 0 00.655 2.386c.213.304.497.548.827.71.329.16.692.233 1.056.211.337.007.673-.043.995-.148a1.65 1.65 0 00.71-.453l.19-1.281h1.4v1.905a4.07 4.07 0 01-1.445 1.082 4.663 4.663 0 01-1.966.4 3.891 3.891 0 01-1.686-.323 3.999 3.999 0 01-1.398-1.021 4.976 4.976 0 01-1.206-3.468zm8.551-.062V5.184h7.267v2.444h-1.411l-.078-.956h-1.222v4.315l1 .194v1.145h-3.89V11.18l1.006-.194V6.672h-1.166l-.067.956h-1.44zm8.017 2.775a1.865 1.865 0 01.19-.9c.137-.28.341-.517.593-.69a3.903 3.903 0 012.3-.573h.962v-.664a1.011 1.011 0 00-.29-.732 1.198 1.198 0 00-.855-.275 2.161 2.161 0 00-.555.069c-.144.034-.28.092-.406.172l-.122.71h-1.34V5.927c.345-.25.718-.454 1.112-.606a3.96 3.96 0 011.4-.24 3.193 3.193 0 012.128.617c.268.228.48.516.62.843.14.327.203.683.186 1.04v3.525l.555.074v1.145H36.84a3.62 3.62 0 01-.222-.75 2.583 2.583 0 01-.812.641 2.326 2.326 0 01-1.11.246 2.253 2.253 0 01-1.629-.572 1.975 1.975 0 01-.445-.68 2.023 2.023 0 01-.138-.808zm1.878-.091a.586.586 0 00.228.503.985.985 0 00.627.183c.266.011.53-.04.773-.148.214-.096.404-.241.555-.424V9.413h-.972a1.35 1.35 0 00-.906.27.826.826 0 00-.306.63zm5.145-3.966V5.202h2.728l.094.835a2.25 2.25 0 01.733-.715 1.921 1.921 0 011.006-.252c.392-.017.78.069 1.13.25.35.182.65.452.87.786a4.74 4.74 0 01.717 2.735v.143a4.175 4.175 0 01-.717 2.552 2.36 2.36 0 01-.878.738 2.291 2.291 0 01-1.11.23 2.168 2.168 0 01-.979-.224 2.055 2.055 0 01-.727-.618v2.077l.9.2v1.145h-3.667V13.94l.9-.2V6.545l-1-.2zm2.878 4.006c.108.2.273.36.472.463.228.114.48.17.733.16.202.011.403-.037.58-.138.177-.101.323-.251.42-.434a2.99 2.99 0 00.317-1.493v-.138a3.603 3.603 0 00-.328-1.648 1.088 1.088 0 00-.408-.469 1.043 1.043 0 00-.592-.16 1.373 1.373 0 00-.722.177 1.267 1.267 0 00-.472.515v3.165zm5.305.051a1.866 1.866 0 01.19-.9 1.79 1.79 0 01.594-.69 3.914 3.914 0 012.306-.573h.955v-.664a.992.992 0 00-.3-.732 1.193 1.193 0 00-.85-.275 2.16 2.16 0 00-.555.069c-.143.036-.28.094-.406.172l-.122.71h-1.328V5.9c.344-.25.717-.454 1.111-.607a3.96 3.96 0 011.4-.24c.76-.048 1.51.181 2.122.646.27.226.484.514.624.842.14.327.203.684.182 1.041v3.256a1.274 1.274 0 000 .258l.556.074v1.144h-2.117a3.124 3.124 0 01-.228-.75 2.582 2.582 0 01-.811.642 2.325 2.325 0 01-1.111.246 2.264 2.264 0 01-1.628-.572 1.972 1.972 0 01-.443-.675 2.022 2.022 0 01-.14-.802zm1.878-.091a.618.618 0 00.228.503.99.99 0 00.634.183c.264.003.526-.055.766-.171a1.5 1.5 0 00.556-.424v-.99h-.972a1.35 1.35 0 00-.906.27.828.828 0 00-.306.63zm5.473 2.037v-1.145l.85-.131.839-1.528a2.29 2.29 0 01-.983-.796 2.023 2.023 0 01-.34-1.144c-.006-.331.064-.66.204-.958.14-.298.346-.558.602-.759a3.293 3.293 0 012.173-.67h4.061v1.145l-1.011.195v4.429l.989.194v1.145h-3.767V11.18l.9-.194V9.842h-1.111l-1.356 2.512-2.05-.005zm2.222-4.727a.885.885 0 00.278.641c.22.193.506.29.795.269h1.222v-1.86h-1.194a1.081 1.081 0 00-.812.292.884.884 0 00-.266.658h-.023zm9.334 1.345v-.143c-.044-.96.19-1.913.673-2.735.2-.33.48-.6.815-.781a2.09 2.09 0 011.085-.255c.15-.003.298.013.444.046.14.028.275.07.406.125V3.41l-1-.2V2.066h2.878v3.17c.13-.06.266-.106.405-.137a2.27 2.27 0 011.33.13c.421.176.784.474 1.043.86.474.825.7 1.777.65 2.735v.143a4.359 4.359 0 01-.673 2.552 2.402 2.402 0 01-1.053.807 2.33 2.33 0 01-1.725-.012v1.425l.995.2v1.145h-3.89V13.94l1-.2v-1.42a1.96 1.96 0 01-.416.126 2.262 2.262 0 01-.45.04 2.124 2.124 0 01-1.066-.232 2.198 2.198 0 01-.823-.735 4.403 4.403 0 01-.628-2.552zm1.878 0a3.464 3.464 0 00.267 1.493.947.947 0 00.358.43.902.902 0 00.53.143h.195l.195-.029V6.581h-.378a.903.903 0 00-.543.167.947.947 0 00-.346.462 4.06 4.06 0 00-.278 1.654v.103zm3.423 1.997h.4a.917.917 0 00.532-.145.959.959 0 00.362-.427c.205-.467.3-.977.278-1.488v-.137a3.984 3.984 0 00-.289-1.648.97.97 0 00-.35-.464.925.925 0 00-.544-.172h-.212l-.177.035v4.446zm4.25-1.991v-.27a3.99 3.99 0 01.844-2.626 3.143 3.143 0 012.206-1.023 3.13 3.13 0 012.267.869c.544.658.822 1.506.778 2.369v1.053h-4.14v.034c.022.425.185.829.462 1.144a1.419 1.419 0 001.111.458c.35.008.7-.037 1.039-.131.312-.103.614-.237.9-.401l.506 1.19a3.715 3.715 0 01-1.112.572 4.707 4.707 0 01-1.522.235 3.062 3.062 0 01-1.306-.228 3.13 3.13 0 01-1.1-.762 3.62 3.62 0 01-.933-2.483zm1.956-.83v.034h2.3v-.189a1.825 1.825 0 00-.278-1.058.994.994 0 00-.377-.307.963.963 0 00-.473-.088.944.944 0 00-.466.112.978.978 0 00-.356.328 2.487 2.487 0 00-.35 1.168zm4.889-1.797V5.202h2.733l.09.835a2.24 2.24 0 01.738-.715 1.921 1.921 0 011-.252 2.26 2.26 0 011.133.251c.35.181.651.451.873.785.508.813.757 1.77.711 2.735v.143a4.175 4.175 0 01-.711 2.552 2.37 2.37 0 01-.89.734c-.351.165-.736.24-1.121.216a2.195 2.195 0 01-.973-.206 2.037 2.037 0 01-.722-.618v2.077l.9.2v1.145h-3.65V13.94l.9-.2V6.545l-1.011-.2zm2.883 4.006c.11.2.274.36.473.463.227.116.48.17.733.16.201.01.4-.038.577-.14.175-.1.32-.25.417-.432.233-.46.342-.975.317-1.493v-.138a3.603 3.603 0 00-.322-1.648 1.1 1.1 0 00-.41-.467 1.054 1.054 0 00-.59-.162 1.356 1.356 0 00-.722.177 1.267 1.267 0 00-.473.515v3.165zm5.417 1.997v-1.145l1-.194V6.546l-1-.2V5.202h3.334l1.772 4.91h.04l1.777-4.928h3.334V6.33l-1.001.2v4.44l1.001.195v1.145h-3.584v-1.145l.706-.194V8.08h-.011l-1.617 4.274h-1.256l-1.572-4.2h-.04v2.827l.706.195v1.144l-3.589.029zm11.257-1.946a1.861 1.861 0 01.191-.902c.138-.279.344-.516.598-.689a3.9 3.9 0 012.3-.572h.955v-.664a.987.987 0 00-.289-.76 1.176 1.176 0 00-.85-.275 2.154 2.154 0 00-.555.068 1.322 1.322 0 00-.4.172l-.123.71h-1.327V5.9a5.05 5.05 0 011.111-.607 3.957 3.957 0 011.4-.24 3.193 3.193 0 012.083.646c.267.228.478.517.617.844.139.327.202.683.183 1.039v3.256a1.846 1.846 0 000 .258l.556.074v1.144h-2.117a3.728 3.728 0 01-.133-.371c-.04-.124-.07-.25-.089-.378a2.585 2.585 0 01-.811.64 2.342 2.342 0 01-1.111.247 2.252 2.252 0 01-1.628-.572 2.013 2.013 0 01-.561-1.476zm1.878-.091a.614.614 0 00.227.503c.186.13.409.195.634.183.265.004.527-.054.766-.171a1.49 1.49 0 00.556-.424v-.99h-.956a1.34 1.34 0 00-.9.27.813.813 0 00-.355.629h.028z" fill="#683C18"/></svg>