<svg width="108" height="22" viewBox="0 0 108 22" fill="none" xmlns="http://www.w3.org/2000/svg"><path d="M28.287 6.958c1.852 0 2.525 1.182 2.61 1.519h1.683c-.168-.675-1.01-3.038-4.293-3.038-2.526 0-4.462 2.025-4.462 4.726 0 2.7 1.936 4.64 4.546 4.64 3.199 0 4.125-2.362 4.209-2.953h-1.6c-.168.253-.841 1.435-2.61 1.435-1.683 0-2.862-1.35-2.862-3.122 0-1.772 1.179-3.207 2.779-3.207zm7.829 5.485v-6.75h-1.6v8.944h1.6l5.22-6.835v6.835h1.599V5.692h-1.6l-5.22 6.751zm8.334-5.316h3.62v7.51h1.6v-7.51h3.62V5.692h-8.84v1.435zm11.954 5.316v-6.75h-1.599v8.944h1.6l5.219-6.835v6.835h1.6V5.692h-1.6l-5.22 6.751zm10.271-1.772c-.252 2.025-.505 2.616-1.684 2.616h-.252v1.434h.505c1.852 0 2.61-1.265 2.862-3.966l.337-3.628h3.704v7.51h1.6V5.692h-6.65l-.422 4.979zm11.281 1.772v-6.75h-1.6v8.944h1.6l5.22-6.835v6.835h1.6V5.692h-1.6l-5.22 6.751zm16.08-3.122h-4.968V5.692h-1.683v8.945h1.683V10.84h4.968v3.797h1.683V5.692h-1.683v3.629zm7.576.675l5.22-4.304h-2.273l-4.715 3.882V5.692h-1.6v8.945h1.6v-4.135l4.967 4.135h2.273l-5.472-4.641zm-86.88 7.426l-9.765 1.856a4.111 4.111 0 01-4.799-4.05V4.51C.168 1.98 2.441.04 4.967.545l9.766 1.772c1.43.338 2.525 1.603 2.525 3.038v9.029a3.082 3.082 0 01-2.525 3.038z" fill="#FF5200"/><path d="M5.472 13.624V6.452c0-.338.253-.59.59-.507l7.155 1.013V5.355L6.398 4.342c-1.347-.253-2.525.844-2.525 2.194v7.088c0 1.35 1.178 2.363 2.525 2.11l6.82-1.013v-1.603L6.06 14.131c-.336.084-.589-.17-.589-.507z" fill="#fff"/><path d="M24.498 17.76h1.936v2.615h-.42v-2.11h-1.095l-.084 1.013c-.084.76-.337 1.181-.842 1.181h-.168v-.421h.084c.337 0 .42-.17.42-.76l.17-1.519zm3.62 2.615l-1.178-2.532h.589l.842 1.941.926-1.94h.505l-1.768 3.797h-.505l.59-1.266zm3.957-.928h-.758c-.673.084-1.094-.253-1.094-.928v-.76h.505v.675c0 .422.084.59.59.59h.757V17.76h.505v2.616h-.505v-.928zm1.768-1.688v2.194h1.262V17.76h.506v2.194h1.178V17.76h.505v2.7h-3.872v-2.7h.42zm6.734 1.435H38.39c.084.422.42.844.926.844.505 0 .757-.254.757-.338h.505c-.084.169-.42.76-1.262.76-.842 0-1.347-.591-1.347-1.35 0-.845.505-1.35 1.263-1.35.841 0 1.346.59 1.346 1.434zm-2.104-.422h1.6c-.085-.422-.422-.59-.842-.59-.337 0-.674.168-.758.59zm5.22.422h-2.105c0 .422.337.844.842.844.505 0 .757-.254.757-.338h.505c0 .169-.336.76-1.262.76a1.331 1.331 0 01-1.347-1.35c0-.845.589-1.35 1.347-1.35.757 0 1.262.59 1.262 1.434zm-2.105-.422h1.6c-.085-.422-.422-.59-.758-.59-.421 0-.758.168-.842.59zm3.62 2.447v-1.266h.337c.168-.169.252-.506.336-1.181l.084-.928h1.937v2.11h.42v1.265h-.42v-.844h-2.273v.844h-.421zm2.189-2.954h-1.095v.507c-.084.675-.168 1.012-.337 1.181h1.432v-1.688zm1.936-.506h1.936v2.616h-.42v-2.11h-1.095l-.084 1.013c-.085.76-.337 1.181-.842 1.181h-.169v-.421h.084c.337 0 .421-.17.506-.76l.084-1.519zm4.546 2.7v-1.012h-.758l-.673 1.012h-.505l.673-1.012c-.42-.169-.59-.422-.59-.844s.253-.844.927-.844h1.431v2.616h-.505v.084zm0-1.434v-.76h-.926c-.253 0-.421.085-.421.338s.168.422.42.422h.927zm3.367-.76h-1.094v-.506h2.61v.506h-1.095v2.194h-.42v-2.194zm4.462.929H59.52c.084.422.421.844.926.844.505 0 .674-.254.758-.338h.505c-.084.169-.42.76-1.263.76-.842 0-1.43-.591-1.43-1.35 0-.845.588-1.35 1.346-1.35.758 0 1.347.59 1.347 1.434zm-2.105-.422h1.6c-.168-.422-.42-.59-.842-.59-.42 0-.673.168-.758.59zm5.388.422c0 .675-.589 1.265-1.43 1.265-.843 0-1.348-.506-1.348-1.434l.084-.76c0-.843.421-1.434 1.432-1.603l1.01-.169V17l-1.01.169c-.674.084-.926.337-1.01 1.096.168-.253.505-.422.925-.422.758 0 1.347.507 1.347 1.35zm-.505 0c0-.507-.337-.929-.926-.929-.505 0-.842.422-.842.929 0 .506.337.844.842.844.59 0 .926-.422.926-.844zm2.863 1.265v-1.012h-.758l-.674 1.012h-.505l.674-1.012c-.421-.169-.674-.422-.674-.844.084-.422.337-.844 1.01-.844h1.432v2.616h-.505v.084zm0-1.434v-.76h-.927c-.336 0-.505.085-.505.338s.169.422.505.422h.927z" fill="#FF5200"/></svg>