<svg width="88" height="22" viewBox="0 0 88 22" fill="none" xmlns="http://www.w3.org/2000/svg"><path d="M33.222 17.803c-.238-.325-.713-.384-1.07-.148-2.05 1.36-4.01 2.157-5.972 2.423a23.449 23.449 0 01-4.604.236c-.03-.148-.06-.325-.12-.532-.386-1.358-.861-1.575-1.395-1.545-.833.059-1.367.66-1.694 1.605-1.248-.325-2.02-.68-2.228-.769-.386-.118-.802.03-.95.384a.706.706 0 00.415.975c3.476 1.3 7.338 1.714 10.844 1.093a17.204 17.204 0 006.655-2.658c.267-.266.357-.739.119-1.064zM80.958 9.01l-.207-1.89c.594-.118 1.129-.236 1.871-.236 1.13 0 1.486.384 1.486.856 0 .827-.951 1.182-3.15 1.27zm-4.812 6.027l4.605-.118.118-3.132c.654.03 1.1.06 1.486.06 3.416 0 5.675-1.39 5.645-3.811-.03-2.66-2.734-3.604-6.358-3.604-2.555 0-4.1.265-5.794.56l.298 10.045zm-9.686-6.44V6.853c.357-.03.773-.06 1.397-.06 1.575 0 2.168.474 2.168 1.094 0 .472-.327.857-1.366.857-.98 0-1.605-.09-2.199-.148zm3.952 3.604c0 .68-.505.945-1.486.945-1.307 0-2.703-.62-2.703-1.743 0-.68.505-.975 1.396-.975 1.13-.03 2.793.68 2.793 1.773zm-13.31 2.925h4.486L58.914 4.4l-7.279-.03-2.97 10.665h4.634l.565-3.22 2.97.118.268 3.19zM0 14.445c2.823.827 5.2 1.004 7.1 1.004 3.655 0 5.408-1.477 5.408-3.693 0-.975-.446-2.156-2.08-2.747.594-.59.921-1.389.921-1.98 0-2.008-2.823-3.012-6.566-3.012-1.307 0-2.585.147-3.773.325l.416 2.895c1.575-.355 2.852-.532 3.952-.532 1.158 0 1.871.266 1.871.856 0 .473-.356.769-1.485.769-.624 0-1.753-.119-3.862-.355l-.179 2.275c.802-.03 1.13-.03 1.783-.03 2.525 0 4.159.384 4.159 1.477 0 .473-.386.798-1.218.798-1.396 0-3.387-.414-5.675-1.24L0 14.444zm62.004.65c3.15.354 6.982.56 8.854.56 2.822 0 4.426-1.033 4.426-2.835 0-1.241-1.099-2.068-2.228-2.63.535-.472 1.188-1.152 1.188-2.363 0-2.747-3.446-3.574-8.348-3.574-1.129 0-2.228.059-3.12.118l-.772 10.723zM54.1 7.147h2.555c.09.266.12.561.12.827-.03 1.004-.655 1.713-1.546 1.713-.802 0-1.366-.59-1.366-1.447 0-.325.059-.71.237-1.093zm-5.375 4.342c0 2.777-2.559 3.988-6.676 3.988-1.97 0-3.206-.118-5.441-.355l.235-3.515c1.794.355 3.824.65 5.294.65 1.088 0 1.47-.266 1.47-.68 0-.56-.558-.944-2.852-.944-1.5 0-2.412.088-2.97.147L37.52 8.3l2.206.059c1.94.059 2.352-.325 2.352-.857 0-.59-.647-.856-1.529-.856-1 0-2.323.295-3.559.708l-.558-2.776c1.5-.325 3.323-.562 4.882-.562 3.058 0 4.94.768 4.94 2.895 0 .768-.294 1.389-.705 1.861 1.411.207 3.176.975 3.176 2.718z" fill="#764AEE"/><path d="M29.61 3.86c-.974 0-1.93.434-2.71 1.262l-.004.004c-1.1 1.145-1.708 2.877-1.654 4.768.113 3.392 2.32 5.84 4.665 5.84h.089c.973 0 1.929-.434 2.71-1.262l.002-.002.002-.002c1.1-1.145 1.708-2.877 1.653-4.768-.112-3.392-2.32-5.84-4.664-5.84h-.09zm-9.216 12.998a5.16 5.16 0 01-2.495-.65c-1.426-.739-2.615-2.039-3.417-3.663-.891-1.861-.95-4.165-.178-6.115.534-1.36 1.426-2.364 2.436-2.748 1.07-.413 2.406-.295 3.624.296 1.724.827 3.031 2.481 3.714 4.638 1.13 3.692.178 7.06-2.228 7.976-.446.177-.95.266-1.456.266z" fill="#fff"/><path fill-rule="evenodd" clip-rule="evenodd" d="M29.61 3.86c-.973 0-1.929.434-2.71 1.262l-.002.003-.002.002c-1.099 1.144-1.708 2.877-1.653 4.768.113 3.391 2.32 5.84 4.664 5.84h.09c.972 0 1.928-.434 2.709-1.263l.004-.005c1.1-1.145 1.708-2.877 1.653-4.767-.112-3.392-2.32-5.84-4.664-5.84h-.089zm-3.706.33c1.002-1.062 2.304-1.69 3.707-1.69h.089c3.359 0 5.905 3.341 6.031 7.156v.003c.064 2.184-.634 4.291-2.029 5.745-1 1.061-2.303 1.69-3.705 1.69h-.09c-3.359 0-5.905-3.341-6.03-7.157v-.002c-.064-2.185.633-4.291 2.028-5.745z" fill="#764AEE"/><path fill-rule="evenodd" clip-rule="evenodd" d="M20.064 4.589c-1.086-.527-2.222-.603-3.076-.273l-.002.001-.002.001c-.773.294-1.553 1.113-2.043 2.36l-.001.001c-.705 1.779-.648 3.885.158 5.57.75 1.518 1.844 2.696 3.117 3.356l.008.004.008.005a4.473 4.473 0 002.163.564c.428 0 .846-.076 1.202-.218l.005-.002.005-.001c.95-.362 1.67-1.225 2.025-2.495.356-1.27.327-2.9-.206-4.645-.64-2.018-1.841-3.498-3.358-4.227l-.003-.001zm.599-1.223c-1.349-.654-2.886-.813-4.169-.318-1.246.475-2.248 1.663-2.827 3.133-.84 2.119-.778 4.62.198 6.656l.001.004.002.004c.853 1.726 2.132 3.143 3.706 3.962a5.847 5.847 0 002.82.731c.58 0 1.172-.102 1.705-.313 1.454-.555 2.411-1.832 2.85-3.398.438-1.565.378-3.463-.216-5.409l-.002-.003v-.003c-.727-2.294-2.14-4.12-4.068-5.046z" fill="#764AEE"/><path d="M28.124 8.97c-1.604-.088-2.971 1.389-3.15 3.368.714 2.097 2.289 3.663 4.13 4.018 1.1-.532 1.902-1.832 1.931-3.398.06-2.127-1.217-3.899-2.91-3.988zm-9.954.06c-1.694.236-2.882 2.186-2.615 4.372.06.413.149.827.297 1.181a7.517 7.517 0 002.02 1.625c.594.295 1.189.502 1.783.59 1.397-.53 2.288-2.274 2.05-4.224-.238-2.186-1.842-3.75-3.535-3.544z" fill="#000"/></svg>