<svg width="114" height="14" viewBox="0 0 114 14" fill="none" xmlns="http://www.w3.org/2000/svg"><path fill-rule="evenodd" clip-rule="evenodd" d="M63.828 1.86c.22.2.51.305.805.291a1.104 1.104 0 001.054-.643c.061-.132.096-.276.102-.422a1.126 1.126 0 00-.357-.778 1.116 1.116 0 00-.799-.3 1.132 1.132 0 00-.805.299c-.22.201-.352.48-.368.779.016.297.149.575.368.775zm4.583.229c.139.049.286.07.433.062a1.102 1.102 0 001.052-.643c.061-.132.096-.276.102-.422a1.173 1.173 0 00-.37-.773 1.164 1.164 0 00-1.957.773 1.122 1.122 0 00.74 1.003zM66.75 5.252c1.827 0 2.225 1.483 2.12 2.184h-4.493c.044-1.4 1.125-2.184 2.373-2.184zm-13.06.305h1.514v-.004c.837 0 1.588.26 1.588 1.215 0 .955-.757 1.211-1.589 1.211H53.69V5.557zm55.541 4.237h-2.703l1.079-3.061c.127-.349.217-.709.271-1.076.051.367.142.728.27 1.076l1.083 3.061zM29.913 8.43c0-1.701.961-2.954 2.776-2.954 1.813 0 2.774 1.253 2.774 2.954 0 1.703-.959 2.955-2.774 2.955s-2.776-1.252-2.776-2.955zm80.738 5.303h2.849l-4.125-10.605h-2.999l-4.125 10.605h2.861l.599-1.67h4.342l.598 1.67zM45.385 5.628h3.16V3.122H38.82l1.335 2.506h2.457v8.105h2.774V5.628zM12.9 13.733h2.78V8.082l2.247 3.5h1.589l2.25-3.488v5.639h2.776V3.128h-2.625L18.72 8.096l-3.194-4.968H12.9v10.605zm61.47 0h13.72l.007-10.605h-2.772v8.105h-2.703V3.128h-2.776v8.105h-2.703V3.128h-2.776v10.605zm16.77 0h2.774V9.642h1.306l2.55 4.082h3.074l-3.449-5.43 3.298-5.166H97.62l-2.385 4.014h-1.32V3.128H91.14v10.605zm-40.225 0h2.776l.004-3.333h1.378c2.593-.015 4.575-.848 4.575-3.636 0-2.788-1.982-3.636-4.575-3.636h-4.158v10.605zM61.46 8.39c0-3.84 2.917-5.388 5.186-5.388 4.177 0 5.522 3.33 4.849 6.353h-7.097c.337 1.472 1.886 2.088 3.55 2.088 1.046.01 2.082-.2 3.043-.616v2.312c-.946.403-2.185.637-3.697.637-3.19 0-5.834-1.836-5.834-5.386zm-23.146.04c0-2.955-1.882-5.53-5.625-5.53-3.75 0-5.614 2.575-5.614 5.53 0 2.954 1.861 5.53 5.614 5.53s5.625-2.576 5.625-5.53zM3.35 8.478c0 1.7.96 2.952 2.773 2.952.961 0 1.68-.355 2.146-.937l1.585 2.301C8.942 13.541 7.7 14 6.125 14 2.37 14 .5 11.434.5 8.479s1.871-5.53 5.624-5.53c1.795 0 3.146.589 4.082 1.522L8.37 6.591c-.46-.662-1.206-1.067-2.246-1.067-1.813 0-2.773 1.255-2.773 2.955z" fill="#233046"/></svg>