<svg width="81" height="15" viewBox="0 0 81 15" fill="none" xmlns="http://www.w3.org/2000/svg"><g clip-path="url(#clip0)" fill="red"><path d="M7.493 8.56h3.11l-1.36-3.75c-.044-.106-.13-.318-.195-.318s-.151.212-.194.318l-1.36 3.75zm-1.9-6.76C6.068.7 6.716.001 9.048.001c1.447 0 2.742.148 3.455 1.8l5.593 13.2h-5.14L11.77 11.95H6.327L5.139 15H0L5.593 1.801zM29.417 15L24.81 9.193c-.37-.472-.891-1.222-.891-1.864 0-.558.37-1.222.695-1.672L28.7 0h5.826l-5.283 6.193c-.565.664-.63.986-.63 1.114 0 .493.478 1.007.804 1.35L35.33 15h-5.913zM18.527 0h4.912v15h-4.912V0z"/><path d="M40.64 15c-2.376 0-3.966-.322-5.208-1.843-.916-1.114-1.395-2.593-1.395-5.464 0-2.507.24-4.393 1.33-5.743C36.76.193 38.982 0 40.704 0h6.449v3.728h-4.075c-1.612 0-2.81-.02-3.486 1.18-.436.75-.5 1.97-.5 2.7 0 1.67.239 2.228.37 2.485.653 1.178 2.07 1.178 3.704 1.178h4.227V15h-6.755zm12.67-4.714c.638.964 1.488 1.069 2.7 1.069 1.255 0 2.042-.105 2.7-1.069.554-.796.554-1.613.554-2.786 0-1.278.021-1.97-.553-2.786-.66-.964-1.446-1.069-2.7-1.069-1.233 0-2.063.105-2.7 1.069-.532.775-.554 1.57-.554 2.786 0 1.152.064 2.053.553 2.786zm9.207-8.778c1.616 1.467 1.68 4.023 1.68 5.992 0 1.927-.064 4.504-1.68 5.992C60.943 14.937 58.222 15 56.011 15c-2.212 0-4.933-.063-6.507-1.508-1.615-1.488-1.68-4.065-1.68-5.992 0-1.97.065-4.525 1.68-5.992C51.1.063 53.757 0 56.011 0c2.253 0 4.911.063 6.506 1.508zM81 15h-4.965V9.043h-5.58V15h-4.966V0h4.966v5.314h5.58V0H81v15z"/></g><defs><clipPath id="clip0"><path fill="#fff" d="M0 0h81v15H0z"/></clipPath></defs></svg>