<svg width="116" height="14" viewBox="0 0 116 14" fill="none" xmlns="http://www.w3.org/2000/svg"><g clip-path="url(#clip0)"><path fill-rule="evenodd" clip-rule="evenodd" d="M76.257 7.015c0-2.596-1.698-4.147-4.244-4.159-2.579 0-4.244 1.71-4.244 4.136 0 2.609 1.698 4.16 4.244 4.16 2.58 0 4.244-1.712 4.244-4.137zm-1.493-.011c0 1.689-1.054 2.827-2.74 2.827v-.002c-1.81-.012-2.761-1.252-2.761-2.825 0-1.677 1.042-2.815 2.74-2.827 1.81.012 2.76 1.253 2.76 2.827zm18.66.011c0-2.596-1.698-4.147-4.244-4.159-2.58 0-4.243 1.71-4.244 4.136 0 2.609 1.698 4.16 4.244 4.16 2.58 0 4.243-1.712 4.243-4.137zm-1.493-.011c0 1.689-1.054 2.827-2.74 2.827v-.002c-1.81-.012-2.76-1.252-2.761-2.825 0-1.677 1.042-2.815 2.74-2.827 1.81.012 2.76 1.253 2.76 2.827zm2.976 4.02V2.981h3.44c1.765 0 2.67.666 2.67 2 0 .918-.362 1.528-1.176 1.85.973.171 1.414.803 1.414 1.849 0 1.666-1.177 2.344-3.101 2.344h-3.247zm3.236-4.642c.894 0 1.46-.402 1.46-1.091 0-.644-.42-.989-1.426-.989h-1.856v2.08h1.822zm.103 3.32c1.086 0 1.585-.356 1.585-1.126 0-.77-.566-1.068-1.562-1.068h-1.946v2.195h1.923zm7.106-4.216h-1.076V2.98h-1.414v8.043h2.503c2.308 0 3.553-.942 3.553-2.815 0-1.815-1.054-2.723-3.566-2.723zm-1.076 4.217V6.807h1.2c1.381 0 1.98.38 1.98 1.367 0 1.092-.678 1.529-2.003 1.529h-1.177z" fill="#FF0D65"/><path d="M111.813 7.543h3.644l.002-1.322h-3.644V4.302h4.062v-1.32h-5.479v8.042H116V9.703h-4.187v-2.16z" fill="#FF0D65"/><path fill-rule="evenodd" clip-rule="evenodd" d="M79.152 8.52v2.504h-1.415V2.981h2.636c2.501 0 3.567.908 3.567 2.723 0 1.873-1.245 2.815-3.567 2.815h-1.22zm0-4.218v2.896h1.324c1.313 0 1.991-.437 1.991-1.528 0-.988-.588-1.368-1.968-1.368h-1.347zM59.746 9.703c.453-1.092.78-2.609.815-5.056l.023-1.666h5.567v6.722h.916v2.815h-1.323v-1.494H60.21v1.494h-1.324V9.703h.86zm1.381 0h3.61v-5.4h-2.863v.379c-.046 2.102-.296 3.757-.747 5.02z" fill="#FF0D65"/><path d="M54.812 2.867c-1.256 0-2.173.379-2.625.712l-.002 1.999c.465-.712 1.427-1.413 2.626-1.39.837.023 1.494.321 1.494 1.068 0 .598-.351 1.092-1.37 1.092h-1.189V7.53h1.2c1.233 0 1.754.333 1.754 1.046 0 .816-.77 1.23-1.731 1.24-1.46.012-2.49-.631-2.976-1.447v1.77c.42.482 1.515 1.01 2.953 1 2.128-.012 3.225-1.08 3.225-2.471 0-1.058-.587-1.701-1.809-1.885.917-.333 1.403-.953 1.403-1.895 0-1.414-1.177-2.01-2.953-2.022z" fill="#FF0D65"/><path d="M21.482 9.585a3.03 3.03 0 001.473-.373l.378-.206 1.104.821c-.728.787-1.802 1.22-3.032 1.22-1.176 0-2.25-.421-3.02-1.18-.769-.759-1.192-1.813-1.192-2.96 0-1.145.43-2.184 1.197-2.916.767-.731 1.841-1.135 3.026-1.135 1.091 0 2.046.335 2.76.97l.082.068-1.224.91a2.587 2.587 0 00-1.552-.49c-1.538 0-2.655 1.109-2.655 2.636 0 1.527 1.117 2.635 2.655 2.635z" fill="#21A038"/><path fill-rule="evenodd" clip-rule="evenodd" d="M29.666 6.07H27.59V4.288h3.314L32.69 2.96h-6.807v7.982h3.56c1.999 0 3.145-.914 3.145-2.507.002-1.524-1.037-2.364-2.922-2.364zm-.297 3.542h-1.78V7.399h1.78c1.083 0 1.587.37 1.587 1.107 0 .752-.536 1.106-1.587 1.106z" fill="#21A038"/><path d="M40.157 2.96l-1.786 1.328h-2.486V6.24h3.644v1.329h-3.644v2.043h4.272v1.329H34.18V2.959h5.978z" fill="#21A038"/><path fill-rule="evenodd" clip-rule="evenodd" d="M41.746 2.96h3.256c2.076 0 3.366 1.094 3.366 2.856 0 1.762-1.29 2.864-3.368 2.864h-1.547v2.261h-1.707V2.959zm1.706 4.391h1.513c1.093 0 1.694-.544 1.694-1.531 0-.988-.601-1.532-1.694-1.532h-1.513v3.063z" fill="#21A038"/><path d="M11.795 2.927c.31.407.576.852.789 1.326l-6 4.478-2.506-1.592V5.225l2.507 1.591 5.21-3.889z" fill="#21A038"/><path d="M1.521 7.004c0-.085.002-.17.006-.256L.008 6.671a6.69 6.69 0 001.92 5.048l1.078-1.09A5.149 5.149 0 011.52 7.004z" fill="url(#paint0_linear)"/><path d="M6.585 1.876c.084 0 .169.003.253.007L6.914.344A6.523 6.523 0 001.929 2.29l1.077 1.09a5.016 5.016 0 013.579-1.503z" fill="url(#paint1_linear)"/><path d="M6.584 12.132c-.085 0-.169-.002-.253-.006l-.076 1.538a6.523 6.523 0 004.985-1.945l-1.077-1.09a5.02 5.02 0 01-3.579 1.503z" fill="url(#paint2_linear)"/><path d="M9.439 2.77l1.28-.955A6.504 6.504 0 006.585.335v1.541c1.059 0 2.042.33 2.855.895z" fill="url(#paint3_linear)"/><path d="M13.169 7.004a6.79 6.79 0 00-.106-1.195l-1.417 1.058.002.136a5.145 5.145 0 01-1.668 3.801l1.022 1.144a6.689 6.689 0 002.167-4.944z" fill="#21A038"/><path d="M6.585 12.132a5.024 5.024 0 01-3.753-1.69l-1.13 1.036a6.531 6.531 0 004.883 2.195v-1.54z" fill="url(#paint4_linear)"/><path d="M3.19 3.204L2.166 2.06A6.689 6.689 0 000 7.004h1.521c0-1.506.644-2.861 1.668-3.8z" fill="url(#paint5_linear)"/></g><defs><linearGradient id="paint0_linear" x1="2.237" y1="11.527" x2=".537" y2="6.675" gradientUnits="userSpaceOnUse"><stop offset=".144" stop-color="#F2E913"/><stop offset=".304" stop-color="#E7E518"/><stop offset=".582" stop-color="#CADB26"/><stop offset=".891" stop-color="#A3CD39"/></linearGradient><linearGradient id="paint1_linear" x1="2.363" y1="2.561" x2="6.658" y2=".946" gradientUnits="userSpaceOnUse"><stop offset=".059" stop-color="#0FA8E0"/><stop offset=".538" stop-color="#0099F9"/><stop offset=".923" stop-color="#0291EB"/></linearGradient><linearGradient id="paint2_linear" x1="6.155" y1="12.743" x2="11.001" y2="11.662" gradientUnits="userSpaceOnUse"><stop offset=".123" stop-color="#A3CD39"/><stop offset=".285" stop-color="#86C339"/><stop offset=".869" stop-color="#21A038"/></linearGradient><linearGradient id="paint3_linear" x1="6.266" y1=".852" x2="10.414" y2="2.116" gradientUnits="userSpaceOnUse"><stop offset=".057" stop-color="#0291EB"/><stop offset=".79" stop-color="#0C8ACB"/></linearGradient><linearGradient id="paint4_linear" x1="2.084" y1="11.29" x2="6.602" y2="12.957" gradientUnits="userSpaceOnUse"><stop offset=".132" stop-color="#F2E913"/><stop offset=".298" stop-color="#EBE716"/><stop offset=".531" stop-color="#D9E01F"/><stop offset=".802" stop-color="#BBD62D"/><stop offset=".983" stop-color="#A3CD39"/></linearGradient><linearGradient id="paint5_linear" x1=".567" y1="7.191" x2="2.415" y2="2.443" gradientUnits="userSpaceOnUse"><stop offset=".07" stop-color="#A3CD39"/><stop offset=".26" stop-color="#81C55F"/><stop offset=".922" stop-color="#0FA8E0"/></linearGradient><clipPath id="clip0"><path fill="#fff" d="M0 0h116v14H0z"/></clipPath></defs></svg>