<svg width="72" height="16" viewBox="0 0 72 16" fill="none" xmlns="http://www.w3.org/2000/svg"><path fill-rule="evenodd" clip-rule="evenodd" d="M10.033 11.405c0 2.513-2 4.335-5.18 4.335A6.927 6.927 0 010 13.562l1.063-1.176c.995.948 2.166 1.868 3.77 1.868 1.78 0 3.7-.998 3.7-2.792 0-1.49-1.183-2.46-3.671-3.227C2.027 7.37.587 6.193.587 3.983.587 1.795 2.44 0 5.077 0 7.047 0 8.28.84 9.48 1.913l-1.046 1.16C7.382 2.141 6.38 1.509 5.15 1.509c-1.526 0-3.032.984-3.032 2.4 0 1.284.737 2.102 3.341 2.899 2.385.734 4.574 1.873 4.574 4.597zM22.9 1.449a1.248 1.248 0 102.496 0 1.248 1.248 0 00-2.496 0zM34.973.457h-1.504v15.037h1.504V.457zm3.51 14.536s.925.752 4.01.752h-.003c3.045 0 5.516-2.227 5.516-5.27 0-3.041-2.47-5.26-5.514-5.26a5.647 5.647 0 00-2.506.513V.458h-1.504v14.535zM49.76 10.49a5.51 5.51 0 1011.022 0 5.51 5.51 0 00-11.022 0zM69.9 15.5h1.964l-4.34-5.17 4.047-4.847H69.62l-3.073 3.681-3.09-3.681h-1.962l4.076 4.854-4.31 5.162h1.951l3.337-3.996 3.353 3.996zM55.28 6.468a4.013 4.013 0 100 8.026 4.013 4.013 0 000-8.026zm-12.79.256a4.468 4.468 0 00-2.505.812v6.206a5.067 5.067 0 002.506.501c2.214 0 4.01-1.547 4.01-3.76 0-2.212-1.798-3.76-4.012-3.76h.002zM28.458.457h1.504v15.037h-1.504V.457zm-9.274 15.038l-5.26-5.26 4.762-4.765h2.126l-4.762 4.765 5.26 5.26h-2.126zM12.415.457v15.037h1.504V.457h-1.504zm11.034 15.038h1.504V5.47h-1.504v10.025z" fill="#000"/></svg>