<svg width="96" height="18" viewBox="0 0 96 18" fill="none" xmlns="http://www.w3.org/2000/svg"><path d="M48.675 15.818V1.858h4.765c1.572 0 2.77.316 3.59.95.821.632 1.232 1.575 1.232 2.828 0 .639-.172 1.214-.516 1.726-.343.51-.846.907-1.509 1.188.752.205 1.331.592 1.739 1.16.413.563.62 1.24.62 2.033 0 1.31-.42 2.317-1.26 3.02-.834.704-2.03 1.055-3.59 1.055h-5.071zm2.416-6.3v4.363h2.683c.758 0 1.35-.188 1.776-.565.427-.377.64-.902.64-1.573 0-1.45-.739-2.192-2.216-2.224h-2.883zm0-1.783h2.368c.751 0 1.337-.169 1.757-.508.426-.345.64-.83.64-1.457 0-.69-.198-1.189-.593-1.496-.387-.307-.996-.46-1.823-.46h-2.35v3.921zm21.017 1.467c0 1.368-.235 2.57-.706 3.605-.472 1.03-1.147 1.822-2.025 2.378-.872.55-1.878.825-3.017.825-1.127 0-2.133-.275-3.018-.825-.879-.556-1.56-1.345-2.043-2.368-.478-1.023-.72-2.202-.726-3.538v-.786c0-1.362.238-2.563.716-3.605.484-1.042 1.162-1.838 2.034-2.388.879-.556 1.884-.834 3.017-.834 1.134 0 2.136.275 3.008.825.879.543 1.557 1.33 2.034 2.358.478 1.023.72 2.215.726 3.577v.776zm-2.416-.728c0-1.547-.293-2.733-.878-3.557-.58-.825-1.404-1.237-2.474-1.237-1.044 0-1.862.412-2.453 1.237-.587.818-.885 1.978-.898 3.48v.805c0 1.534.296 2.72.888 3.558.598.837 1.426 1.256 2.482 1.256 1.07 0 1.892-.41 2.464-1.228.58-.818.87-2.013.87-3.586v-.728zm12.089 3.749c0-.614-.216-1.087-.649-1.42-.427-.332-1.2-.667-2.32-1.006-1.12-.339-2.012-.716-2.674-1.132-1.267-.799-1.9-1.84-1.9-3.125 0-1.125.455-2.052 1.365-2.78.917-.73 2.104-1.094 3.562-1.094.968 0 1.83.18 2.588.537a4.24 4.24 0 011.785 1.534c.433.659.65 1.39.65 2.196H81.78c0-.729-.229-1.298-.687-1.707-.452-.415-1.101-.623-1.948-.623-.79 0-1.404.17-1.843.508-.433.339-.65.812-.65 1.42 0 .51.236.939.707 1.284.471.339 1.248.671 2.33.997 1.083.32 1.951.687 2.607 1.103.656.409 1.136.882 1.442 1.419.305.53.458 1.154.458 1.87 0 1.163-.445 2.09-1.337 2.78-.885.684-2.087 1.026-3.609 1.026-1.006 0-1.932-.185-2.78-.556-.84-.377-1.495-.895-1.966-1.553-.465-.659-.697-1.426-.697-2.302h2.415c0 .793.262 1.407.784 1.841.522.435 1.27.652 2.244.652.84 0 1.47-.17 1.89-.508.427-.345.64-.799.64-1.361zm11.803 0c0-.614-.216-1.087-.65-1.42-.426-.332-1.2-.667-2.32-1.006-1.12-.339-2.011-.716-2.673-1.132-1.267-.799-1.9-1.84-1.9-3.125 0-1.125.455-2.052 1.365-2.78.916-.73 2.103-1.094 3.561-1.094.968 0 1.83.18 2.588.537.758.358 1.353.87 1.786 1.534.433.659.65 1.39.65 2.196h-2.407c0-.729-.229-1.298-.688-1.707-.451-.415-1.1-.623-1.948-.623-.789 0-1.403.17-1.843.508-.433.339-.649.812-.649 1.42 0 .51.236.939.707 1.284.47.339 1.248.671 2.33.997 1.082.32 1.951.687 2.607 1.103.655.409 1.136.882 1.442 1.419.305.53.458 1.154.458 1.87 0 1.163-.446 2.09-1.337 2.78-.885.684-2.088 1.026-3.61 1.026-1.005 0-1.931-.185-2.778-.556-.84-.377-1.496-.895-1.967-1.553-.465-.659-.697-1.426-.697-2.302h2.415c0 .793.261 1.407.783 1.841.522.435 1.27.652 2.244.652.84 0 1.47-.17 1.891-.508.427-.345.64-.799.64-1.361zM4.202 13.636V4.33h2.737c.819 0 1.545.183 2.177.55a3.736 3.736 0 011.477 1.559c.348.673.522 1.445.522 2.314v.466c0 .883-.176 1.658-.528 2.327a3.671 3.671 0 01-1.496 1.547c-.645.362-1.386.543-2.222.543H4.202zm1.61-8.002v6.711h1.05c.845 0 1.492-.264 1.942-.792.454-.533.686-1.296.694-2.289v-.518c0-1.01-.218-1.78-.656-2.313-.437-.533-1.071-.8-1.903-.8H5.812zm8.608 8.002h-1.605V4.33h1.604v9.306zm5.245-2.026l2.355-7.28h1.77l-3.336 9.306h-1.56L15.571 4.33h1.764l2.33 7.28zm9.88-.14h-3.59l-.752 2.166H23.53l3.5-9.306h1.445l3.508 9.306h-1.68l-.758-2.167zm-3.139-1.305h2.687l-1.343-3.86-1.344 3.86zm13.986 3.471h-1.61L34.65 7.033v6.603h-1.61V4.33h1.61l4.145 6.628V4.33h1.597v9.306z" fill="#000"/><path fill-rule="evenodd" clip-rule="evenodd" d="M44.002 1.09H1.086v15.82h42.916V1.09zM0 0v18h45.089V0H0z" fill="#000"/></svg>