<svg width="102" height="18" viewBox="0 0 102 18" fill="none" xmlns="http://www.w3.org/2000/svg"><path fill-rule="evenodd" clip-rule="evenodd" d="M9.147 4.702c0-.401.107-.732.32-.992.214-.26.527-.39.94-.39.412 0 .729.13.95.39.221.26.331.59.331.992v3.5c0 .92-.096 1.753-.287 2.496a6.322 6.322 0 01-.928 2.04c-.427.616-1.03 1.095-1.812 1.437-.78.342-1.708.513-2.784.513-2.077 0-3.575-.59-4.496-1.772C.46 11.734 0 10.178 0 8.246V4.702C0 4.3.114 3.97.342 3.71c.229-.26.55-.39.962-.39.427 0 .758.13.994.39s.353.59.353.992v3.655c0 2.63 1.083 3.946 3.248 3.946 2.166 0 3.248-1.33 3.248-3.99V4.702zm10.152 9.985c-1.963 0-3.498-.49-4.606-1.47-1.109-.981-1.663-2.356-1.663-4.124 0-1.784.577-3.191 1.73-4.224 1.155-1.033 2.73-1.55 4.73-1.55 1.544 0 2.716.208 3.516.624.78.402 1.008.9.681 1.494-.309.535-.908.762-1.799.54-.926-.224-1.961-.406-2.579-.406-1.054 0-1.88.312-2.48.936-.6.624-.9 1.486-.9 2.586 0 1.04.313 1.857.94 2.451.627.595 1.45.892 2.467.892.727 0 1.862-.208 2.88-.624.871-.342 1.49-.268 1.853.223.418.565.236 1.107-.545 1.627-1.054.684-2.463 1.025-4.225 1.025zM40.81 3.6c.258-.245.608-.368 1.05-.368.442 0 .796.123 1.061.368.265.245.398.576.398.992 0 .431-.133.765-.398 1.003-.265.238-.619.357-1.06.357-.443 0-.793-.116-1.05-.346-.258-.23-.387-.568-.387-1.014 0-.416.129-.747.387-.992zm-2.692.088c-.22-.246-.53-.368-.928-.368-.397 0-.703.122-.916.368-.214.245-.32.553-.32.925v3.02H28.48v-3.02c0-.372-.11-.68-.332-.925-.22-.246-.53-.368-.928-.368-.397 0-.703.122-.916.368-.214.245-.321.553-.321.925v8.559c0 .372.107.68.32.925.214.245.52.368.917.368.398 0 .707-.123.928-.368.221-.245.332-.553.332-.925v-3.02h7.473v3.02c0 .372.107.68.32.925.214.245.52.368.917.368.399 0 .708-.123.928-.368.222-.245.332-.553.332-.925v-8.56c0-.37-.11-.68-.332-.924zm2.506 4.849c0-.371.107-.68.32-.925.214-.245.52-.367.918-.367s.707.122.928.367c.22.245.331.554.331.925v4.634c0 .372-.11.68-.331.926-.221.245-.53.367-.928.367s-.704-.122-.917-.367c-.214-.245-.32-.554-.32-.925V8.537zm7.34.463c0-3.41 0-5.116.819-6.341a4.86 4.86 0 011.34-1.34C51.348.5 53.053.5 56.464.5H93.5c3.41 0 5.116 0 6.341.819.531.354.986.81 1.341 1.34C102 3.884 102 5.589 102 9c0 3.41 0 5.116-.818 6.341a4.87 4.87 0 01-1.34 1.34c-1.226.819-2.931.819-6.342.819H56.464c-3.41 0-5.116 0-6.341-.819a4.859 4.859 0 01-1.34-1.34c-.819-1.225-.819-2.93-.819-6.341zM97.5 12.036l-1.244-2.235-2.51-4.69a1.234 1.234 0 00-1.133-.665 1.3 1.3 0 00-1.177.664l-2.511 4.691-1.244 2.235c-.2.443-.156 1.084.667 1.195.666.11 1.244-.266 1.532-.93l.622-1.216h4.155l.622 1.216c.288.664.866 1.04 1.532.93.845-.133.89-.752.69-1.195zm-6.176-2.722l1.178-2.279c.022-.044.089-.044.11 0l1.156 2.28c.022.044 0 .088-.067.088h-2.332c-.045 0-.067-.044-.045-.089zm-12.937 3.019V7.711l2.04 2.531c.205.257.465.391.78.391.3 0 .56-.134.766-.39l2.052-2.569v4.659c0 .501.48.917 1.096.917.615 0 1.094-.416 1.094-.917V5.51c0-.636-.465-1.064-1.218-1.064-.233 0-.451.05-.657.16-.397.207-.52.366-.916.892L81.205 8.24l-2.039-2.755c-.342-.404-.616-.685-.82-.832-.206-.134-.494-.208-.863-.208-.78 0-1.287.465-1.287 1.1v6.787c0 .501.48.917 1.095.917.616 0 1.095-.416 1.095-.917zm-12.572-.287c-.971-.802-1.457-1.872-1.457-3.198 0-1.252.486-2.31 1.443-3.15.957-.838 2.192-1.252 3.718-1.252 1.513 0 2.747.402 3.718 1.204.957.803 1.443 1.873 1.443 3.198 0 1.277-.486 2.335-1.457 3.162-.985.827-2.22 1.24-3.704 1.24-1.512 0-2.747-.401-3.704-1.204zm1.693-5.07c-.527.474-.791 1.106-.791 1.872 0 .73.277 1.338.819 1.836.54.499 1.206.742 1.983.742.888 0 1.582-.243 2.067-.73.486-.474.736-1.094.736-1.848 0-.766-.264-1.386-.805-1.86-.541-.474-1.207-.718-1.998-.718-.818 0-1.484.232-2.011.706zm-6.209-1.549c.484.349.88.828 1.144 1.46.285.61.417 1.133.395 1.983 0 1.656-.461 2.506-1.407 3.247-.945.74-2.198 1.111-3.737 1.111l-3.253.022c-.33 0-.572-.087-.747-.283-.176-.196-.264-.436-.264-.741V5.514c0-.283.088-.545.264-.74.175-.197.417-.284.747-.284l3.231-.044c.748 0 1.407.088 2 .24a4.795 4.795 0 011.627.741zm-5.649 5.688h2.133c2.11 0 3.165-.524 3.143-2.245 0-1.743-1.055-2.375-3.188-2.375h-2.22c-.044 0-.088.043-.088.087v4.315c0 .13.11.217.22.217z" fill="#000"/></svg>