<svg width="86" height="48" viewBox="0 0 86 48" fill="none" xmlns="http://www.w3.org/2000/svg"><path fill-rule="evenodd" clip-rule="evenodd" d="M41.667.01c-.112.013-.518.052-.902.088-.99.093-1.35.165-6.255 1.244a143358.92 143358.92 0 00-18.36 4.036C10.326 6.658 5.377 7.76 5.153 7.826c-1.57.463-3.069 1.907-3.745 3.607-.41 1.029-.379.125-.402 11.99-.02 11.128-.014 11.49.224 12.35.459 1.654 1.762 3.224 3.285 3.958.56.27.813.333 5.643 1.416l6.72 1.51c15.622 3.523 22.156 4.983 22.709 5.08 1.398.242 1.718.264 3.913.264 2.142 0 2.376-.014 3.782-.238.456-.073 32.65-7.287 34.237-7.672.933-.227 1.906-.815 2.673-1.616.836-.874 1.324-1.717 1.632-2.82l.154-.552.017-10.924c.011-7.658-.003-11.07-.047-11.41-.252-1.922-1.567-3.748-3.345-4.642-.52-.261-.891-.36-3.375-.907a76989.788 76989.788 0 01-20.25-4.454L51.181 1.05C46.585.036 46.545.031 43.82.006c-1.072-.01-2.041-.008-2.153.005zm-3.462 13.128l-2.53.031-.03 6.302h-3.492l-.03-6.302-2.53-.031-.031-3.05h8.674l-.031 3.05zm4.867-1.627c.438 1.533.449 1.567.484 1.532.013-.013.158-.586.32-1.272.164-.686.323-1.346.355-1.466l.059-.218h12.68v3.08h-2.56V19.5h-3.49l-.03-6.304-2.531-.031v-1.481c0-.814-.023-1.48-.05-1.48-.027 0-.137.189-.243.42-1.63 3.55-3.052 6.491-3.383 6.996-.717 1.092-1.405 1.68-2.281 1.948-.343.105-.496.118-1.077.09-.455-.02-.781-.068-.997-.144-.363-.129-1.024-.452-1.067-.522-.016-.025.148-.608.364-1.294.282-.895.417-1.245.476-1.236.045.007.225.053.4.102.447.125.768.115.954-.031.085-.067.154-.168.154-.227 0-.128-.29-.74-1.745-3.691a167.107 167.107 0 01-1.169-2.398l-.052-.131 4.031.03.398 1.395zM7.13 19.73c.198.122.38.467.38.715-.002.258-.288.72-.755 1.219l-.476.508h.609c.654 0 .68.012.68.325v.14H5.473v-.15c0-.115.17-.325.694-.865.535-.549.709-.767.757-.947.106-.39-.058-.653-.407-.653-.173 0-.25.038-.37.18-.082.097-.15.202-.15.232 0 .089-.407.062-.443-.03-.039-.102.122-.452.269-.585.304-.276.935-.318 1.307-.088zm2.135-.113c.255.07.585.418.696.732.103.291.104 1.26.002 1.549-.165.468-.537.75-.999.757-.4.006-.68-.164-.893-.54-.151-.267-.18-.388-.202-.825-.04-.858.179-1.407.649-1.62.277-.125.443-.137.747-.053zm69.235 2.73h.262c.261 0 .262 0 .262.204v.205l-1.658-.032v-.174c0-.17.008-.175.305-.192l.306-.018v-1.975l-.266.203c-.146.112-.297.19-.336.176-.107-.04-.229-.264-.174-.319.027-.026.232-.205.456-.398.339-.29.444-.35.625-.351l.218-.002v2.672zm3.026-2.467c0 .232-1.152 2.674-1.322 2.8-.12.091-.482.096-.482.008 0-.037.285-.624.634-1.306l.634-1.24-1.53-.033-.036-.435h2.102v.206zm-72.896.273c-.277.296-.334 1.383-.094 1.793.222.38.662.373.852-.014.224-.456.179-1.43-.082-1.76-.156-.2-.499-.208-.676-.019zm24.866 3.94c2.005.191 3.194.974 3.4 2.239.163.997-.354 1.803-1.41 2.201-.305.115-.313.176-.03.237.483.105 1.155.54 1.436.93.244.34.342.59.404 1.026.228 1.607-.996 2.705-3.292 2.956-.633.07-4.151.04-4.95-.042l-.363-.037v-9.392l.189-.035c.195-.035 2.281-.12 3.365-.136.338-.005.901.019 1.25.052zm-12.443.102c.056.036.076.773.087 3.239l.015 3.193 2.008.031V24.22l.13-.035c.196-.052 3.204-.042 3.288.011.056.036.076.773.087 3.239l.015 3.193 1.077.033v4.702h-3.492V33.62h-6.633v-4.702c0-4.43.006-4.704.102-4.73.18-.046 3.241-.04 3.316.008zm24.774 2.655l-3.759.03.035.667 3.462.03v2.672h-3.49v.697h4.014v2.673h-7.506v-9.413h7.276l-.032 2.644zm9.572.435h-2.56v6.334h-3.491v-6.334h-2.56v-3.08h8.611v3.08zm4.597-.373l.917-.002c1.033-.002 1.379.066 2.087.406.736.354 1.31 1.047 1.561 1.887.053.176.111.583.13.905.091 1.536-.592 2.692-1.906 3.226-.977.397-2.04.486-4.42.371l-1.816-.086c-.024 0-.044-2.118-.044-4.707v-4.706h3.491v2.706zM68.9 33.62h-3.491v-9.413H68.9v9.413zm-36.66-5.927h.293c.532 0 .871-.237.871-.61s-.339-.61-.87-.61h-.294v1.22zm27.8 1.776c-.024.025-.044.42-.044.878v.832h.345c.29 0 .374-.025.532-.157.208-.175.346-.454.344-.698-.002-.23-.197-.63-.359-.736-.154-.1-.75-.187-.818-.119zm-27.8 1.902l.447-.034c.52-.04.71-.148.817-.468a.556.556 0 000-.425c-.107-.32-.297-.428-.817-.468l-.447-.034v1.429zm-5.405 6.44c.476.16.72.609.681 1.253-.046.768-.408 1.136-1.115 1.136-.415 0-.649-.097-.872-.363-.356-.421-.365-1.213-.02-1.706.228-.328.85-.478 1.326-.32zm3.427.017c.217.078.223.09.15.342-.036.12-.073.153-.143.124-.271-.113-.513-.146-.663-.089-.52.198-.53 1.42-.012 1.55.162.041.573.006.74-.063.087-.035.102-.009.102.17 0 .176-.026.22-.16.273-.247.096-.837.08-1.05-.03-.48-.249-.687-1.085-.42-1.704.12-.278.372-.52.641-.616.158-.055.607-.032.815.043zm5.29.025c.06.113.82 2.249.82 2.306 0 .018-.122.025-.27.016-.27-.018-.272-.02-.352-.297l-.081-.278-.886.034-.16.552h-.26c-.144 0-.26-.025-.26-.054 0-.094.768-2.238.829-2.314.094-.118.552-.092.62.035zm9.08.004c.061.114.817 2.239.817 2.297 0 .017-.116.032-.257.032h-.257l-.195-.586-.88.034-.16.552h-.26c-.143 0-.26-.02-.261-.044 0-.024.186-.573.414-1.22l.416-1.177h.282c.218 0 .295.026.341.112zm16.563 0c.392.177.605.582.605 1.148 0 .75-.426 1.195-1.143 1.195-.507 0-.83-.19-1.002-.59-.215-.498-.144-1.2.154-1.537.278-.311.946-.416 1.386-.217zm-37.276 1.922h.354l-.034 1.075-.494.036v-.704h-1.513v.697h-.466v-.552c0-.427.018-.552.08-.552.145 0 .459-.83.619-1.641l.066-.334h1.388v1.975zm9.31-1.569h-.64v1.976h-.523V38.21h-.64v-.407h1.804v.407zm5.616-.315c.363.172.42.71.1.95-.118.086-.133.117-.06.119.053 0 .154.074.223.161.1.126.12.214.098.41-.055.492-.358.65-1.249.65h-.538v-2.382h.617c.44 0 .672.027.81.092zm2.153.978l.398-.534c.398-.534.4-.535.655-.535.14 0 .256.01.256.022 0 .012-.185.263-.41.558l-.41.536.1.153c.054.085.252.355.439.601.186.246.34.461.34.48 0 .017-.125.031-.277.03h-.277l-.814-1.152-.033 1.154h-.52v-2.383h.52l.033 1.07zm7.419.906h.873v-1.976h.523v1.976h.35v1.104h-.466v-.697h-1.804v-2.383h.524v1.976zm4.277-1.884c.363.172.42.71.1.95-.118.086-.133.117-.061.119.159.003.339.284.339.528 0 .28-.22.552-.513.634-.118.032-.457.06-.753.06h-.538v-2.383h.617c.44 0 .672.027.809.092zm2.967.286l-.843.034v.518h.814v.407h-.814v.64h.872v.406h-1.396v-2.383h1.404l-.037.378zm2.822.03h-.64v1.975h-.523V38.21h-.64v-.407h1.803v.407zm5.967-.323c.362.15.434.632.137.909-.12.112-.15.169-.091.169.15 0 .33.286.33.526 0 .28-.22.552-.513.638-.118.035-.45.055-.738.045l-.524-.018-.031-2.353h.614c.405 0 .683.028.816.084zm-38.302.32c-.287.122-.45.709-.311 1.126.125.378.549.561.884.382.35-.187.374-1.155.035-1.436-.122-.1-.449-.14-.608-.072zm34.256.016c-.29.15-.447.77-.295 1.168.166.436.755.527 1.034.16.19-.25.153-.956-.061-1.202-.15-.172-.474-.232-.678-.127zm-37.506.146c-.02.088-.1.382-.18.654-.246.847-.275.755.234.755h.444V38.21h-.232c-.206 0-.236.018-.266.16zm12.184.279c-.08.254-.136.481-.123.505.013.024.14.044.281.044.311 0 .318-.034.123-.61l-.135-.401-.146.462zm2.86.084h.258c.278 0 .441-.108.441-.292 0-.146-.17-.23-.462-.23h-.236v.522zm6.218-.084c-.08.254-.136.481-.123.505.012.024.139.044.28.044.312 0 .319-.034.124-.61l-.136-.401-.145.462zm7.632.084h.257c.278 0 .441-.108.441-.292 0-.146-.17-.23-.462-.23h-.236v.522zm11.754 0h.236c.31 0 .462-.086.462-.261 0-.176-.152-.262-.462-.262h-.236v.523zM37.943 39.78h.2c.3 0 .49-.093.532-.262.06-.236-.109-.377-.45-.377h-.282v.64zm13.849 0h.2c.3 0 .49-.093.532-.262.06-.236-.109-.377-.45-.377h-.282v.64zm11.765-.334c.017.293.025.306.196.322.264.026.482-.078.525-.25.06-.237-.109-.377-.453-.377h-.285l.017.305z" fill="#000"/></svg>