<svg width="51" height="22" viewBox="0 0 51 22" fill="none" xmlns="http://www.w3.org/2000/svg"><path d="M28.141 21.887c-2.376-.143-3.732-.328-9.03-1.229-4.108-.698-5.45-.89-6.934-.996l-.476-.034-1.104.017-1.104.017-.63.044c-2.46.17-4.903.532-7.855 1.166a29.7 29.7 0 01-.888.183H.085v-4H.1c.008 0 .357-.088.776-.196 2.371-.611 4.286-.938 6.408-1.092l.587-.043 1.007-.032 1.006-.033 1.706.015 1.705.015.434.032c2.154.157 3.435.348 7.828 1.164 2.867.533 4.395.757 6.109.895l.587.047.752.018.751.019.926-.019.926-.019.713-.046c.773-.05 1.69-.126 2.69-.224l.636-.063-.02.021c-.012.011-1.524 1.004-3.36 2.206l-3.34 2.185-.323-.005a14.912 14.912 0 01-.463-.013zm8.884-1.79l1.349-2.241 1.062-1.764h11.449v4.48H36.74l.286-.476zm-17.285-6.55c-1.183-.117-1.895-.297-2.656-.67l-.294-.145-.287-.195-.288-.195-.255-.246-.256-.246-.164-.208-.163-.209-.153-.263-.154-.264-.12-.308a5.03 5.03 0 01-.284-1.002l-.044-.24-.029-.416-.029-.417.03-.393a8.89 8.89 0 01.074-.663l.045-.268.097-.326.096-.327.153-.324.153-.324.16-.242.16-.242.265-.282.266-.281.21-.163a4.67 4.67 0 01.882-.54l.28-.136.335-.113.334-.113.322-.072a8.52 8.52 0 011.314-.187l.405-.029h.923l.405.029c.223.016.578.054.79.085l.384.057.375.096c.483.123.79.236 1.205.445l.335.168.26.188.26.189.23.229c.266.264.426.47.63.81l.143.242.11.27c.144.348.243.7.315 1.105l.057.327.015.611.014.612-.033.296a8.63 8.63 0 01-.089.58l-.056.283-.095.292-.096.291-.129.262c-.07.144-.2.37-.285.502l-.157.241-.323.328-.323.329-.28.187-.28.188-.321.156-.322.156-.335.113-.335.112-.322.072a9.33 9.33 0 01-1.244.187l-.336.03-.699-.005a21.47 21.47 0 01-.797-.014zm1.689-1.764c.121-.034.29-.093.376-.133l.155-.072.148-.116.149-.116.133-.202.134-.203.076-.235.077-.236.045-.274.045-.275.013-1.187.013-1.188-.032-.366-.032-.366-.067-.269-.067-.268-.092-.177-.092-.178-.169-.17-.168-.17-.14-.076-.14-.076-.248-.073-.248-.073-.333-.03-.334-.032-.333.033-.333.032-.204.058-.203.057-.182.09-.181.09-.17.17-.171.17-.102.213-.103.213-.053.214c-.03.118-.07.341-.09.497l-.036.282v1.19l.002 1.192.048.354.047.355.091.27.09.269.107.163.107.163.13.116.13.116.224.109.224.108.21.044.279.057c.038.007.29.009.56.004l.488-.008.222-.06zm11.66 1.74a5.949 5.949 0 01-1.132-.275l-.321-.112-.307-.155-.307-.155-.266-.18-.266-.182-.221-.2a4.645 4.645 0 01-.748-.866l-.168-.253-.135-.286a5.164 5.164 0 01-.447-1.576l-.03-.24V8.018l.042-.303a4.94 4.94 0 01.215-.956l.086-.27.134-.283.134-.284.17-.255c.206-.312.455-.601.747-.867l.22-.2.266-.18c.357-.241.57-.357.937-.506a5.828 5.828 0 011.495-.39l.238-.032.68.002.68.003.383.03c1.194.093 2.281.314 2.927.595l.121.052-.35.832c-.193.457-.36.842-.372.854l-.021.023-.288-.101a7.409 7.409 0 00-1.837-.385l-.365-.031-.284.032-.285.031-.211.055-.212.055-.205.1-.204.1-.182.148-.182.149-.142.18-.142.18-.126.263-.126.263-.08.323-.08.324-.035.296-.034.296.016.568.016.569.057.281c.132.653.349 1.107.691 1.449.279.278.612.46 1.031.563l.196.048.28.024.279.024.307-.024c.393-.032.648-.07 1.048-.156l.321-.07.387-.13.387-.131.022.025c.011.014.176.394.366.844l.345.82-.051.037a2.785 2.785 0 01-.39.151c-.667.223-1.254.343-2.183.445l-.391.043-.909.011-.909.012-.28-.04zm11.813.025c-.77-.069-1.44-.18-2.032-.337l-.37-.098-.294-.112a7.236 7.236 0 01-.577-.256l-.282-.143-.214-.149-.214-.15-.204-.196-.206-.196-.149-.23-.15-.228-.069-.17a3.347 3.347 0 01-.119-.369l-.05-.198v-.709l.034-.185c.076-.41.237-.793.462-1.095l.128-.174.178-.169.177-.168.203-.137c.111-.075.324-.197.473-.272l.27-.135.285-.1c.599-.211 1.42-.374 2.3-.458l.462-.043.797-.028a50.46 50.46 0 011.054-.028h.258l.026-.05.025-.05-.023-.413-.022-.412-.042-.183a2.341 2.341 0 00-.099-.318l-.057-.135-.133-.144-.133-.145-.136-.07a2.347 2.347 0 00-.35-.13l-.214-.061h-1.678l-.391.05-.392.051-.363.095-.364.094-.419.175c-.23.096-.44.181-.463.189l-.044.014-.163-.449-.256-.712-.094-.263.133-.058c.461-.202 1.455-.415 2.439-.522l.377-.042.776-.034.776-.034.622.034.622.034.322.043c.658.09 1.309.27 1.783.496l.237.113.241.162.24.162.211.214.21.214.135.205.134.206.094.22.094.22.057.227c.031.124.07.335.085.467l.03.24v5.998l-.315.1a17.59 17.59 0 01-3.18.684l-.378.047-.992.008c-.546.004-1.05.002-1.119-.004zm1.816-1.744l.323-.031.035-.029.035-.029-.007-1.62-.007-1.62-.433-.009-.434-.009-.4.032c-.447.035-.75.084-1.064.171l-.213.059-.228.111-.228.112-.156.145-.157.145-.102.21-.103.212-.013.293-.013.294.047.215.047.215.087.178.087.179.198.198.198.2.21.103c.264.13.53.212.853.262l.251.04.432.002.432.003.323-.032zM.986 13.347l-.901-.008V.13L3.53.11 6.976.087l.993.015.993.014.368.058c.883.14 1.504.366 2.054.747l.242.168.22.233c.275.29.37.43.542.795l.136.289.07.269c.037.148.084.372.102.496l.033.227v.383l-.001.383-.046.284-.046.283-.098.298-.098.298-.1.184c-.055.102-.161.27-.237.374l-.139.19-.236.227-.236.227-.23.154a5.042 5.042 0 01-.944.49l-.294.122.002.065.002.066 1.626 2.96a600.775 600.775 0 011.627 2.971c0 .006-1.028.01-2.286.008l-2.285-.002-.594-1.21A89.59 89.59 0 006.33 8.689l-.304-.553H4.237l-.05.02-.048.02v5.192l-1.126-.006c-.619-.004-1.53-.01-2.027-.015zm3.88-7.112c.374-.023.9-.09 1.248-.158l.297-.058.283-.094c.366-.121.607-.234.86-.399l.203-.133.179-.175.18-.174.119-.17c.157-.224.27-.456.364-.752l.077-.24v-.2l-.002-.2-.044-.176a1.493 1.493 0 00-.273-.566l-.11-.149-.198-.14-.198-.142-.216-.084-.216-.085-.29-.064-.292-.065H5.495L4.153 2.01l-.007 2.095-.008 2.096.033.04.034.04.197-.014c.11-.009.318-.023.464-.032z" fill="#000"/></svg>