<svg width="32" height="33" viewBox="0 0 32 33" fill="none" xmlns="http://www.w3.org/2000/svg"><path d="M26.689 7.53c1.145-1.777 3.217-4.975 3.217-4.975L27.257.589l-4.55 6.95-.187.284h3.982l.187-.293zm-3.392 5.295h-2.332V10.23l-.211.327-.82 1.253c-1.717 2.621-3.33 5.083-3.876 5.939-.739-1.16-1.53-2.416-2.318-3.666l-.002-.003c-.712-1.13-1.421-2.255-2.084-3.299l-1.22 4.32a963.683 963.683 0 013.901 6.278v11.21h3.47V21.388l5.435-8.434.057-.129zM7.628 7.832l-.56 1.966L4.834 6.26l-2.34-3.706L5.125.605l4.582 7.201.017.026H7.628z" fill="#000"/><path d="M31.088 8.754l-5.175-.008h-4.08v3.156h4.835L20.29 32.58h10.32v-3.174h-5.753l6.231-20.652zM11.02 9.797L7.94 20.662l3.372 11.917H8.289l-2.177-7.674-2.17 7.674H.912l3.38-11.917L.912 8.754h3.03l2.17 7.674 2.177-7.674h3.023l-.292 1.043z" fill="#000"/></svg>