<svg width="71" height="16" viewBox="0 0 71 16" fill="none" xmlns="http://www.w3.org/2000/svg"><path d="M68.921 0c-.895 0-1.695.576-1.982 1.439L62.3 15.668h4.382l4.221-12.95C71.32 1.375 70.33 0 68.921 0z" fill="#000"/><path d="M38.634.32H24.946L23.7 4.157h9.594L20.916 12.47c-.96.64-1.12 1.95-.384 2.814.64.768 1.728.895 2.56.352l12.472-8.378-2.75 8.41h4.381l3.902-11.99C41.609 2.013 40.393.32 38.634.32z" fill="#00C7B1"/><path d="M4.99.32L0 15.668h4.382L8.123 4.157h8.924L10.97 8.25c-.896.607-1.183 1.79-.576 2.685a1.952 1.952 0 002.687.544l7.58-5.116C23.346 4.54 22.067.32 18.804.32H4.99zm55.073 0H46.278l-5.021 15.348h4.382L49.38 4.157h8.923l-7.9 5.34 4.894 5.82c.64.767 1.727.894 2.559.35a1.89 1.89 0 00.383-2.813l-2.142-2.558 5.82-3.901C64.604 4.54 63.325.32 60.062.32z" fill="#000"/></svg>