<svg width="53" height="54" viewBox="0 0 53 54" fill="none" xmlns="http://www.w3.org/2000/svg"><path fill-rule="evenodd" clip-rule="evenodd" d="M5.972 32.855V21.107L24.07 10.262v33.46L5.972 32.856zM30.03 0L0 17.997v17.967L30.03 54V0z" fill="#92D416"/><path fill-rule="evenodd" clip-rule="evenodd" d="M10.36 26.985c0 1.03.419 1.806 1.224 1.806.719 0 1.19-.715 1.19-1.806 0-.883-.336-1.802-1.19-1.802-.902 0-1.224.919-1.224 1.802zm4.336-.06c0 2.195-1.562 3.2-3.157 3.2-1.753 0-3.106-1.142-3.106-3.09 0-1.93 1.274-3.176 3.2-3.176 1.852 0 3.063 1.267 3.063 3.067zm18.34 3.069h1.08v-8.701h-1.08v8.7zm2.904-5.932h1.079v5.932h-1.08v-5.932zm1.2-1.678c.008.37-.257.67-.687.67-.38 0-.65-.3-.65-.67 0-.381.287-.671.681-.671.399 0 .656.29.656.67zm14.861 3.081c-.076-.48-.483-.742-1.025-.742-.977 0-1.569.943-1.678 1.88 1.595.009 2.836-.204 2.703-1.114v-.024zm.811 4.19c-.398.253-1.087.47-1.887.47-1.574 0-2.426-1.073-2.608-2.383-.257-1.798.783-3.817 2.697-3.817 1.126 0 1.842.664 1.966 1.52.226 1.56-1.486 1.978-3.685 1.941-.017.248.11.811.29 1.116.306.542.815.808 1.429.808.71 0 1.197-.225 1.544-.41l.254.755zM19.416 23.86c-1.003 0-1.616.578-1.854.952h-.04v-.822H15.87v6.004h1.862v-3.462c0-.169.02-.336.068-.461.133-.339.436-.698.944-.698.69 0 .957.528.957 1.302v3.319h1.855V26.44c0-1.766-.918-2.582-2.14-2.582zm25.927.065c-.557 0-.958.142-1.309.417-.242.177-.49.432-.649.773h-.035c-.262-.7-.881-1.19-1.685-1.19-.98 0-1.534.532-1.87 1.098v-.96h-.975v5.93h1.048v-3.579c0-.189.027-.368.09-.53.173-.534.662-1.072 1.337-1.072.829 0 1.244.683 1.244 1.63v3.552h1.047v-3.657c0-.201.044-.404.097-.552.178-.527.657-.973 1.267-.973.885 0 1.292.683 1.292 1.814v3.368h1.06V26.5c0-2.062-1.17-2.575-1.96-2.575z" fill="#231F20"/></svg>