<svg width="75" height="32" viewBox="0 0 75 32" fill="none" xmlns="http://www.w3.org/2000/svg"><path d="M61.159 11.318H57.65v.033c-.322.617-.676 1.333-1.094 2.015-.419.716-.837 1.463-1.288 2.211-.74 1.268-1.513 2.601-2.253 3.87l-4.41-8.096v-.033H31.867v20.028h2.994V14.212h5.407v17.134h2.865V14.212h3.573c.45.748.87 1.495 1.288 2.243.547.91 1.062 1.853 1.577 2.796l.547.976.418.683c.355.585.74 1.202 1.127 1.788v8.648h2.833V22.73l3.347-5.787a137.636 137.636 0 012.19-3.674l1.126-1.886.032-.065h-.032zm-32.221.943c-1.738-.715-3.09-1.268-4.925-1.268-1.416 0-2.897.325-4.281.943-1.384.618-2.607 1.495-3.541 2.536-1.61 1.788-2.479 4.227-2.479 6.893 0 1.885.419 3.609 1.256 5.137a10.307 10.307 0 002.157 2.698c2.575 2.146 5.375 2.471 6.823 2.471 2.318 0 3.831-.715 4.732-1.17l.226-.098h.032v-3.446l-.065.032c-1.673 1.138-2.897 1.854-4.86 1.854a7.83 7.83 0 01-3.96-1.106c-1.223-.748-2.188-1.788-2.735-3.023a9.005 9.005 0 01-.709-3.317c0-.813.13-2.926 1.417-4.617 1.32-1.755 3.637-2.86 5.922-2.86 2.06 0 3.38.845 3.927 1.202.258.163.451.293.677.455l.321.228.065.032v-.065l.032-3.446v-.033h-.032v-.032zM4.41 5.823c-.837 0-1.48-.682-1.48-1.528 0-.845.675-1.528 1.48-1.528.837 0 1.48.618 1.48 1.528 0 .846-.643 1.528-1.48 1.528zm2.446-1.495v-.065c0-.455-.064-.878-.29-1.268a2.434 2.434 0 00-.9-.91c-.13-.066-.226-.098-.355-.163-.064-.033-.096-.033-.16-.033a2.428 2.428 0 00-.677-.097h-.257c-.547.032-1.03.26-1.449.65-.58.488-.837 1.106-.837 1.82 0 .684.226 1.269.708 1.757.483.487 1.063.715 1.739.715.096 0 .225 0 .322-.033h.032a.926.926 0 00.29-.065h.064c.096-.032.16-.065.257-.097h.033c.096-.033.193-.098.29-.13 0 0 .031 0 .031-.033a.978.978 0 00.226-.162v.39h.965V4.328h-.032zm60.515 1.495c-.837 0-1.48-.682-1.48-1.528 0-.845.675-1.528 1.48-1.528.837 0 1.48.618 1.48 1.528 0 .846-.675 1.528-1.48 1.528zm2.447-1.495v-.065c0-.455-.065-.878-.29-1.268a2.434 2.434 0 00-.901-.91c-.097-.066-.226-.098-.355-.163-.064-.033-.096-.033-.16-.033a2.428 2.428 0 00-.676-.097h-.258c-.547.032-1.03.26-1.448.65-.548.488-.805 1.106-.805 1.82 0 .684.225 1.269.708 1.757.483.487 1.062.715 1.738.715.097 0 .226 0 .322-.033h.032a.92.92 0 00.29-.065h.064c.097-.032.161-.065.258-.097h.032c.097-.033.193-.098.29-.13 0 0 .032 0 .032-.033a.978.978 0 00.225-.162v.39h.966l-.064-2.276zm-58.166-.065c0 .943-.676 1.528-1.48 1.528-.837 0-1.481-.683-1.481-1.528s.676-1.528 1.48-1.528c.838-.033 1.481.683 1.481 1.528zm.998-.065v-4h-.966V2.28a.517.517 0 00-.225-.13s-.032 0-.032-.033a1.136 1.136 0 00-.29-.13h-.032c-.096-.033-.16-.065-.257-.098h-.065c-.096-.032-.193-.032-.29-.065h-.032c-.096 0-.225-.032-.322-.032-.675 0-1.255.227-1.738.715-.483.488-.708 1.073-.708 1.756 0 .748.258 1.333.805 1.82.418.39.901.586 1.448.65h.258c.225 0 .483-.032.676-.097.064 0 .096-.032.16-.032.13-.033.226-.098.355-.163.386-.227.708-.52.901-.91.226-.39.29-.845.29-1.268v-.065h.064zm9.528-.52L23.37 5.14c-.483.487-.837.682-1.223.682-.515 0-.998-.487-.998-.975.032-.358.258-.618 1.03-1.17zm.225-1.268l-.032-.033c-.418-.52-.45-.585-.45-.813 0-.292.257-.52.547-.52.354 0 .58.195.58.52.031.293-.065.39-.645.846zm3.412 4.161l-1.158-1.398.16-.162.194-.228.064-.097c.161-.163.193-.228.322-.39v-.033l-.032-.033-.58-.585-.032-.032-.032.032-.064.098c-.097.13-.13.162-.322.39l-.226.26c-.032.032-.032.032-.032.065l-1.094-1.3c.772-.586 1.062-.976 1.062-1.529 0-.813-.644-1.398-1.513-1.398-.901 0-1.513.585-1.513 1.463 0 .423.193.846.612 1.3 0 0-.032 0-.032.033 0 0-.032 0-.032.033-.612.423-.644.423-.805.618l-.065-.033c-.322.325-.482.78-.482 1.203 0 .52.193 1.008.579 1.366.354.357.87.552 1.416.552.644 0 1.223-.292 1.803-.878l.611.716h1.256l-.065-.033zM0 6.604h.966V.199H0v6.405zm17.028-4.715l-.064.13-1.256 2.894-1.287-2.894-.065-.13h-1.03l.129.293 1.738 3.902-.805 1.82-.225.553h1.062l.161-.39 2.575-5.885.13-.293h-1.063zm31.674 4.715h.965V.199h-.965v6.405zM36.63 2.702c.708 0 1.223.488 1.416 1.138h-2.832c.16-.65.708-1.138 1.416-1.138zm0 3.089c-.676 0-1.223-.455-1.416-1.073h3.766c.032-.13.064-.26.064-.423V4.23c0-1.365-1.03-2.503-2.382-2.503-1.384 0-2.478 1.105-2.478 2.503 0 1.366 1.094 2.471 2.446 2.471.837 0 1.642-.39 2.092-1.04l-.837-.488c-.29.423-.74.618-1.255.618zm16.803-3.089c.708 0 1.223.488 1.416 1.138h-2.833a1.428 1.428 0 011.416-1.138zm0 3.089c-.676 0-1.224-.455-1.417-1.073h3.766c.032-.13.065-.26.065-.423V4.23c0-1.365-1.03-2.503-2.382-2.503-1.385 0-2.479 1.105-2.479 2.503a2.457 2.457 0 002.447 2.471c.836 0 1.641-.39 2.092-1.04l-.837-.488c-.29.423-.773.618-1.255.618zm10.46-2.08a1.953 1.953 0 00-1.963-1.952c-.58 0-1.094.26-1.48.65-.354-.422-.902-.65-1.481-.65a1.954 1.954 0 00-1.964 1.951v2.894h.966V3.678a.96.96 0 01.966-.91c.547 0 .965.422.998.942v2.893h.965V3.679a.96.96 0 01.966-.91.98.98 0 01.998.975v2.893h.998l.032-2.926zm11.042 0c0-1.074-.87-1.952-1.964-1.952A1.954 1.954 0 0071.01 3.71v2.893h.964V3.679a.96.96 0 01.966-.91.98.98 0 01.998.975v2.893h.998V3.71zm-30.837 0c0-1.074-.87-1.952-1.964-1.952a1.954 1.954 0 00-1.963 1.951v2.893h.966V3.679a.96.96 0 01.966-.91.98.98 0 01.998.975v2.893h.998V3.71zm3.508-1.822h-.772V.2h-.966v1.69h-.772v.91h.772v3.837h.966v-3.87h.772V1.89zM30.612 5.823c-.837 0-1.481-.682-1.481-1.528 0-.845.676-1.528 1.48-1.528.837 0 1.481.618 1.481 1.528a1.472 1.472 0 01-1.48 1.528zm2.478-1.495v-.065c0-.455-.064-.878-.29-1.268a2.434 2.434 0 00-.9-.91c-.097-.066-.226-.098-.355-.163-.064-.033-.097-.033-.16-.033a2.427 2.427 0 00-.677-.097h-.257c-.548.032-1.03.26-1.449.65-.547.488-.805 1.106-.805 1.82 0 .684.226 1.269.709 1.757.482.487 1.062.715 1.738.715.096 0 .225 0 .322-.033h.032a.931.931 0 00.29-.065h.064c.096-.032.16-.065.257-.097h.033c.096-.033.193-.098.29-.13 0 0 .032 0 .032-.033.064-.032.128-.097.225-.13l.064-.065v.423c0 .097 0 .227-.064.39-.097.293-.419.683-1.159.748h-.161c-.483 0-.966-.228-1.223-.586l-.837.488c.45.65 1.255 1.04 2.092 1.04.58 0 1.127-.162 1.61-.487.483-.358.676-.845.708-1.528V4.328h-.129z" fill="#000"/></svg>