<svg width="100" height="14" viewBox="0 0 100 14" fill="none" xmlns="http://www.w3.org/2000/svg"><path d="M97.885.306v1.788C96.86.76 95.308 0 93.389 0c-3.74 0-6.592 3.022-6.592 7.02 0 3.998 2.853 6.98 6.592 6.98 1.92 0 3.472-.76 4.496-2.092v1.786H100V.306h-2.115zm-4.44 11.666c-2.587 0-4.44-2.066-4.44-4.955 0-2.888 1.87-4.99 4.44-4.99 2.57 0 4.516 2.104 4.516 4.99 0 2.887-1.909 4.955-4.516 4.955zM84.602.306h-2.814L76.104 6.59V.306h-2.21v13.388h2.21V7.258l5.818 6.436h2.965L78.64 6.832 84.6.306zm-16.582 0h-2.21v13.388h2.21V.306zM57.817 10.14L50.772.306h-2.285v13.388h2.171V3.758l7.047 9.936h2.286V.306h-2.174v9.834zM37.04 0c-3.89 0-6.876 3.022-6.876 7s2.985 7 6.877 7 6.877-3.022 6.877-7-2.987-7-6.877-7zm0 11.974c-2.682 0-4.666-2.105-4.666-4.974s1.984-4.974 4.667-4.974c2.682 0 4.666 2.105 4.666 4.974s-1.984 4.974-4.666 4.974zM27.994.306h-2.815L19.493 6.59V.306h-2.21v13.388h2.21V7.258l5.818 6.436h2.965l-6.243-6.862 5.96-6.526zM6.857 0C2.984 0 0 3.041 0 7s2.984 6.963 6.857 6.963c1.87 0 3.476-.594 4.572-1.644v-2.83c-.925 1.53-2.607 2.467-4.42 2.467-2.435 0-4.305-1.617-4.728-3.939h9.148V1.856C10.369.65 8.67 0 6.857 0zm-4.58 5.967C2.678 3.62 4.442 1.99 6.743 1.99c2.3 0 3.91 1.701 4.1 3.978H2.276z" fill="#000"/></svg>