<svg width="83" height="20" viewBox="0 0 83 20" fill="none" xmlns="http://www.w3.org/2000/svg"><g clip-path="url(#clip0)"><path d="M14.06 0h6.025v6.026H14.06V0z" fill="#F65C14"/><path d="M14.06 6.987h6.025v6.026H14.06V6.987z" fill="#FCCBAD"/><path d="M7.03 6.987h6.026v6.026H7.029V6.987z" fill="#A4D6F3"/><path d="M7.03 13.974h6.026V20H7.029v-6.026z" fill="#1282D5"/><path d="M0 13.974h6.026V20H0v-6.026z" fill="#CAE1AF"/><path d="M0 6.987h6.026v6.026H0V6.987z" fill="#5B9F1B"/><path d="M23.359 12.664l1.091-1.965c.35.305.83.611 1.441.611.83 0 1.354-.524 1.354-1.397V3.275h2.62v6.638c0 2.489-1.529 3.668-3.712 3.668-1.048-.044-2.052-.262-2.794-.917zM31.654 9.3V3.275h2.664V9.17c0 1.18.698 2.053 2.14 2.053 1.396 0 2.139-.874 2.139-2.053V3.275h2.62v5.983c0 2.532-1.529 4.28-4.76 4.28-3.274 0-4.803-1.748-4.803-4.237zm10.61 2.664L43.661 10c.743.742 1.834 1.31 3.231 1.31.873 0 1.441-.35 1.441-.83 0-1.397-5.72-.262-5.72-4.148 0-1.703 1.441-3.188 4.017-3.188 1.616 0 3.013.48 4.104 1.397l-1.44 1.878c-.83-.699-1.965-1.048-2.97-1.048-.742 0-1.09.306-1.09.742 0 1.267 5.719.35 5.719 4.105 0 2.009-1.485 3.363-4.192 3.363-2.052-.044-3.449-.655-4.497-1.616zm11.92 1.397V5.546h-2.838V3.275h8.252v2.27H56.76v7.817h-2.576z" fill="#000"/><path d="M59.03 12.14c0-.787.655-1.442 1.44-1.442.787 0 1.441.655 1.441 1.441 0 .787-.654 1.442-1.44 1.442-.786-.044-1.441-.655-1.441-1.441zm10.042 1.222l-1.703-3.406h-1.31v3.406h-2.62V3.275h5.065c2.227 0 3.493 1.485 3.493 3.362 0 1.747-1.091 2.708-2.008 3.013l2.052 3.712h-2.97zm.262-6.725c0-.698-.568-1.091-1.266-1.091h-2.052v2.183h2.052c.698 0 1.266-.393 1.266-1.092zm4.104 2.664V3.275h2.663V9.17c0 1.18.699 2.053 2.14 2.053 1.397 0 2.14-.874 2.14-2.053V3.275H83v5.982c0 2.533-1.528 4.28-4.76 4.28-3.274 0-4.802-1.747-4.802-4.236z" fill="#F75F13"/><path d="M23.446 19.738l1.572-1.965-1.44-1.703h.96l1.179 1.485V16.07h.786v1.485l1.178-1.485h.961l-1.44 1.703 1.571 1.965h-.96l-1.092-1.485-.175.175v1.267h-.786v-1.267l-.174-.175-1.092 1.485h-1.048zm5.633 0V16.07h2.576v.699H29.82v.786h1.79v.698h-1.79v.83h1.834v.699h-2.576v-.044zm2.969-.611c.349 0 .567-.218.698-1.18l.218-1.877h2.62v3.668h-.786v-2.97h-1.135l-.131 1.223c-.175 1.529-.742 1.79-1.484 1.79v-.654zm4.235.611V16.07h2.576v.699h-1.834v.786h1.834v.698h-1.79v.83h1.833v.699h-2.62v-.044zm2.969-.524l.393-.524c.262.262.698.437 1.091.437.48 0 .786-.175.786-.48 0-.306-.262-.437-.83-.437h-.742v-.699h.742c.437 0 .743-.13.743-.393 0-.306-.35-.437-.742-.437-.35 0-.743.131-1.005.393l-.393-.48c.306-.35.83-.568 1.441-.568.873 0 1.441.393 1.441 1.005 0 .48-.393.786-.786.83.35.043.873.349.873.873 0 .611-.611 1.091-1.484 1.091-.699-.043-1.266-.305-1.528-.61zm6.112.524V18.21h-1.746v1.528h-.786V16.07h.786v1.441h1.746V16.07h.786v3.668h-.786zm4.017 0l-.218-.611H47.59l-.218.611h-.874l1.398-3.668h.96l1.397 3.668h-.873zm-1.004-2.882l-.568 1.572h1.135l-.567-1.572zm2.096 2.882l.83-1.397c-.394-.088-.787-.437-.787-1.092 0-.699.48-1.179 1.223-1.179h1.703v3.668h-.786v-1.31h-.568l-.742 1.31h-.873zm2.183-2.009v-1.004h-.83c-.306 0-.568.175-.568.48 0 .306.219.48.568.48h.83v.044zm2.925 2.01V16.07h2.576v.699h-1.834v2.97h-.742zm5.327 0l-.219-.612h-1.572l-.218.611h-.873l1.397-3.668h.96l1.398 3.668h-.873zm-1.005-2.883l-.567 1.572h1.135l-.568-1.572zm2.227 2.882V16.07h1.703c.786 0 1.222.524 1.222 1.18 0 .654-.436 1.178-1.222 1.178h-.917v1.31h-.786zm2.14-2.489c0-.306-.219-.48-.524-.48h-.83v1.004h.83c.305-.044.523-.218.523-.524zm3.405 2.49l-.218-.612h-1.572l-.218.611h-.874l1.398-3.668h.96l1.397 3.668h-.873zm-1.004-2.883l-.568 1.572h1.136l-.568-1.572zm4.759 2.882V18.21h-1.747v1.528h-.785V16.07h.785v1.441h1.747V16.07h.786v3.668h-.786zm2.358 0v-2.97h-1.092v-.698h2.925v.699h-1.047v2.97h-.786zm2.357 0V16.07h.786v2.358l1.703-2.358h.786v3.668h-.786v-2.445l-1.746 2.445h-.743zm3.843 0l.83-1.397c-.394-.088-.787-.437-.787-1.092 0-.699.48-1.179 1.223-1.179h1.703v3.668h-.786v-1.31h-.568l-.742 1.31h-.873zm2.183-2.009v-1.004h-.83c-.306 0-.567.175-.567.48 0 .306.218.48.567.48h.83v.044z" fill="#535451"/></g><defs><clipPath id="clip0"><path fill="#fff" d="M0 0h83v20H0z"/></clipPath></defs></svg>