<svg width="60" height="20" viewBox="0 0 60 20" fill="none" xmlns="http://www.w3.org/2000/svg"><path d="M6.062 4.975c1.04 0 2.216.238 3.191.62v2.18c-1.008-.462-2.081-.764-3.191-.764-2.065 0-3.779 1.352-3.779 3.82 0 2.467 1.712 3.819 3.779 3.819 1.108 0 2.183-.302 3.191-.764v2.179c-.973.383-2.148.62-3.191.62C2.318 16.689 0 14.014 0 10.833 0 7.65 2.318 4.975 6.062 4.975zm15.558.013V16.59h-2.183V6.944h-3.308c-.27 7.046-1.191 9.465-4.434 9.997l-.603-1.775c2.45-.463 2.703-3.348 2.954-10.178h7.574z" fill="#000"/><path d="M24.051 1.976v17.736l11.11-1.976V0l-11.11 1.976zm7.234.063c.603 0 1.075.48 1.075 1.043 0 .548-.47 1.011-1.075 1.011-.555 0-1.041-.463-1.041-1.011 0-.564.488-1.043 1.04-1.043zm-3.308 0c.588 0 1.057.48 1.057 1.043 0 .548-.47 1.011-1.057 1.011-.555 0-1.04-.463-1.04-1.011 0-.564.487-1.043 1.04-1.043zm5.038 14.553h-6.817V4.99h6.631v1.955h-4.448v2.686h4.062v1.955h-4.062v3.05h4.634v1.956z" fill="#1BA7E3"/><path d="M39.614 16.591h-2.183V4.99h3.846c2.081 0 4.062 1.243 4.062 3.664 0 2.536-1.965 3.68-4.046 3.68h-1.679v4.258zm0-6h1.226c1.461 0 2.216-.697 2.216-1.94 0-1.227-.755-1.873-2.216-1.873h-1.226v3.813zm13.776 3.68l-3.678-6.35v8.67H47.53V4.99h2.82l3.291 5.537 3.291-5.537h2.82v11.6h-2.183V7.92l-3.677 6.35h-.502z" fill="#000"/></svg>