<svg width="40" height="40" viewBox="0 0 40 40" fill="none" xmlns="http://www.w3.org/2000/svg"><g clip-path="url(#clip0_4763_3346)"><path d="M0 0v40h40.004V0H0z" fill="#848183"/><path d="M23.574 19.456a.309.309 0 00-.309-.277h-7.888a.31.31 0 00-.312.313v2.693a.307.307 0 00.19.289.308.308 0 00.119.024h4.264c0 1.808-2.488 3.944-5.053 3.944a6.442 6.442 0 11-.181-12.884 6.285 6.285 0 015.159 2.445.313.313 0 00.426.067l2.459-1.748a.314.314 0 00.067-.444c-2.174-2.842-5.468-4.406-9.081-4a10.186 10.186 0 001.151 20.305 8.9 8.9 0 006.087-2.277 12.914 12.914 0 002.377-3.607c.515-1.559.694-3.21.525-4.843zm11.107-9.305h-3.29a.216.216 0 00-.217.217v12.531c0 2.544-1.663 3.45-3.219 3.45a3.34 3.34 0 01-2.323-.977.246.246 0 00-.275-.056.246.246 0 00-.08.056l-2.3 2.295a.256.256 0 000 .356 7.084 7.084 0 004.975 2.064c3.457 0 6.956-2.17 6.956-7.191V10.368a.215.215 0 00-.14-.204.219.219 0 00-.087-.013z" fill="#fff"/></g><defs><clipPath id="clip0_4763_3346"><path fill="#fff" d="M0 0h40v40H0z"/></clipPath></defs></svg>