<svg width="70" height="14" viewBox="0 0 70 14" fill="none" xmlns="http://www.w3.org/2000/svg"><path d="M10.722 13.743V.257H0v13.486h2.788V2.975h5.145v10.768h2.789zm11.351-5.197a4.987 4.987 0 001.307-3.5c0-2.864-1.925-4.79-4.795-4.79h-5.553v13.487h2.788v-3.82h2.765c1.418 0 2.625-.479 3.488-1.377zM15.82 7.233V2.94h2.648c1.249 0 2.054.84 2.054 2.14 0 1.313-.805 2.16-2.054 2.16H15.82v-.007zm54.034 6.51V.257h-2.776l-6.196 9.625.56-.047V.257H58.69v13.486h2.777l6.399-9.945-.758.221v9.724h2.747zM31.605 0c-1.907 0-3.675.718-4.982 2.018A6.976 6.976 0 0024.605 7c0 1.908.718 3.675 2.018 4.982A6.978 6.978 0 0031.605 14c1.908 0 3.675-.717 4.982-2.018A6.977 6.977 0 0038.605 7c0-1.907-.717-3.675-2.018-4.982A6.977 6.977 0 0031.605 0zm0 11.3c-2.333 0-4.165-1.89-4.165-4.3a4.188 4.188 0 014.165-4.3c2.333 0 4.165 1.89 4.165 4.3a4.188 4.188 0 01-4.165 4.3zm23.677-.42a5.524 5.524 0 001.646-3.997c0-1.557-.584-2.975-1.645-4.019a6.003 6.003 0 00-4.241-1.633H49.84V0h-2.678v1.23h-1.224c-1.663 0-3.168.584-4.247 1.634a5.553 5.553 0 00-1.645 4.02c0 1.545.583 2.963 1.645 3.995 1.079 1.05 2.584 1.633 4.246 1.633h1.226V14h2.677v-1.493h1.202c1.656 0 3.161-.578 4.24-1.628zm-8.12-1.045H45.81a2.818 2.818 0 01-2.922-2.952 2.81 2.81 0 012.922-2.957h1.354v5.909zm2.672-5.91h1.33a2.817 2.817 0 012.928 2.958 2.811 2.811 0 01-2.928 2.952h-1.33v-5.91z" fill="#E01935"/></svg>