<svg width="63" height="26" viewBox="0 0 63 26" fill="none" xmlns="http://www.w3.org/2000/svg"><path d="M30.633 3.182l-4.736-1.584a.236.236 0 00-.141 0L21.02 3.182a.21.21 0 000 .402l2.275.738-.007 1.047c0 .028 0 .064.037.1.14.18 1.156.731 2.49.731 1.268 0 2.365-.509 2.498-.68.03-.037.037-.072.03-.094l.015-1.104 1.067-.344v.932l-.297.459a.353.353 0 000 .38l.4.63.4-.63a.352.352 0 000-.38l-.296-.466v-.997l1.008-.33a.21.21 0 00.148-.2.215.215 0 00-.155-.194zm30.121 10.381l-2.186 5.643-2.15-5.643h-2.371l3.35 7.872-1.512 3.363h2.238L63 13.563h-2.246zm-13.63 3.592c.29.323.63.56 1.023.717.4.158.904.308 1.526.452.601.158 1.046.3 1.32.43.274.129.415.33.415.588 0 .244-.111.444-.34.595-.23.158-.542.236-.942.236-.415 0-.756-.1-1.03-.308-.275-.2-.438-.459-.475-.774h-2.127c.03.495.2.946.519 1.355.319.409.749.731 1.29.968.54.236 1.156.358 1.838.358.66 0 1.245-.107 1.742-.315.496-.208.881-.495 1.148-.868.267-.365.4-.788.4-1.254-.007-.538-.155-.961-.444-1.29a2.702 2.702 0 00-1.016-.725c-.392-.158-.89-.308-1.49-.452-.592-.143-1.03-.286-1.312-.43-.281-.143-.422-.344-.422-.616a.64.64 0 01.312-.567c.207-.136.496-.2.882-.2.415 0 .74.093.985.286.245.187.386.445.415.768h2.017c-.06-.818-.386-1.463-.979-1.943-.222-.18-.526-.323-.808-.438-1.49.81-3.535 1.8-4.847 2.43.052.366.185.753.4.997z" fill="#7835FF"/><path d="M16.18 21.643v-8.08h-2.127v1.155c-.282-.373-.653-.674-1.12-.918-.466-.244-1.015-.366-1.637-.366-.712 0-1.357.173-1.935.51a3.582 3.582 0 00-1.371 1.455c-.334.63-.504 1.355-.504 2.172 0 .825.17 1.556.504 2.194a3.64 3.64 0 003.29 2c.623 0 1.172-.122 1.654-.373.474-.25.852-.559 1.119-.939v1.183h2.127v.007zm-2.424-2.767a2.14 2.14 0 01-.815.817 2.272 2.272 0 01-1.097.287c-.385 0-.741-.1-1.075-.294a2.208 2.208 0 01-.815-.839c-.208-.365-.311-.788-.311-1.276 0-.487.103-.903.31-1.262a2.16 2.16 0 01.809-.81c.333-.186.697-.28 1.082-.28.393 0 .756.094 1.097.287.34.187.615.46.815.818.2.35.304.781.304 1.276 0 .502-.104.925-.304 1.276zm6.448-7.42h-2.112v10.187h2.112V11.456zm1.92 8.338a3.69 3.69 0 001.49 1.462c.637.344 1.356.516 2.164.516.993 0 1.83-.25 2.52-.752.682-.502 1.149-1.14 1.386-1.915H27.41c-.334.653-.89.975-1.675.975-.542 0-1.001-.164-1.372-.494-.37-.33-.585-.789-.63-1.37h6.1c.037-.236.06-.494.06-.788 0-.789-.17-1.484-.52-2.094a3.57 3.57 0 00-1.46-1.405c-.63-.33-1.34-.495-2.134-.495-.823 0-1.549.173-2.186.51a3.592 3.592 0 00-1.475 1.455c-.349.63-.527 1.362-.527 2.2 0 .832.178 1.557.534 2.195zM24.4 15.57c.355-.308.793-.459 1.319-.459.556 0 1.023.158 1.4.473.386.316.579.739.586 1.262H23.74c.089-.545.304-.968.66-1.276z" fill="#000"/><path d="M37.126 21.643h2.112v-4.739c0-1.09-.304-1.935-.92-2.545-.614-.61-1.415-.91-2.408-.91-.519 0-1 .1-1.438.3a2.918 2.918 0 00-1.075.825v-1.003h-2.12V21.5l-.377.086a226.542 226.542 0 01-8.739 1.792c-3.795.703-8.279 1.434-12.763 1.484-3.254.036-5.53-.48-6.589-1.49l-.133-.13a2.103 2.103 0 01-.571-1.384.21.21 0 00-.215-.2c-.119 0-.222.1-.215.215.03.63.252 1.183.675 1.649.133.143.281.28.452.408 1.2.896 3.342 1.363 6.277 1.363h.32c4.513-.05 9.027-.782 12.844-1.492 3.15-.588 6.018-1.168 8.76-1.792 2.187-.495 4.203-.982 6.123-1.477v1.111zm-3.736-.645v-3.821c0-.638.17-1.133.504-1.477.334-.344.793-.516 1.379-.516.57 0 1.022.172 1.356.516.334.344.497.839.497 1.477v2.903c-1.209.309-2.446.617-3.736.918zm10.154.645v-6.402h1.868v-1.678h-1.868v-2.107h-2.12v2.107h-1v1.678h1v6.402h2.12z" fill="#000"/><path d="M2.802 21.643h2.112v-8.531h2.802V11.47H0v1.642h2.802v8.531zm5.262-7.606c2.38-1.8 4.98-3.284 7.36-4.56 2.209-1.183 4.21-2.158 6.107-2.968.111-.043.156-.165.111-.273-.044-.107-.177-.15-.281-.107-1.913.817-3.921 1.792-6.145 2.982-2.394 1.284-5.017 2.782-7.419 4.596a.202.202 0 00-.081.165c0 .172.207.272.348.165zm49.659-7.621c-.6-1.463-3.187-2.037-7.478-1.657-3.692.323-8.487 1.348-13.653 2.918-.208.065-.37-.179-.222-.337 1.756-1.892 2.401-3.491 1.838-4.574-.682-1.297-3.017-1.448-6.775-.458a.204.204 0 00-.148.258c.03.107.148.172.267.143 3.483-.925 5.707-.839 6.278.244.585 1.111-.497 3.04-2.965 5.284-.17.15 0 .415.215.35 5.752-1.849 11.154-3.06 15.202-3.419 4.024-.358 6.53.143 7.04 1.398.527 1.276-.467 2.932-2.875 4.782-.934.717-2.068 1.455-3.372 2.194a54.391 54.391 0 01-4.374 2.2 63.41 63.41 0 01-2.304.997.21.21 0 00-.134.194c0 .15.156.251.296.194.29-.122.579-.237.86-.359 0 0 .008 0 .008-.007.089-.043.585-.273 1.297-.61 1.312-.623 3.357-1.62 4.847-2.43.274-.15.526-.294.756-.423.237-.143.475-.294.697-.437a24.488 24.488 0 001.69-1.183c2.564-1.979 3.61-3.8 3.009-5.262z" fill="#000"/></svg>