<svg width="60" height="26" viewBox="0 0 60 26" fill="none" xmlns="http://www.w3.org/2000/svg"><path d="M23.535 12.987c-.427 0-.828-.054-1.175-.16a2.716 2.716 0 01-.962-.48 2.014 2.014 0 01-.614-.798c-.16-.32-.214-.692-.214-1.118 0-.56.107-1.065.32-1.544.214-.48.508-.879.882-1.252.374-.346.828-.612 1.363-.825.534-.213 1.121-.293 1.736-.293.374 0 .748.053 1.122.133.374.08.721.213 1.042.373L26.607 8.7h-.294a2.124 2.124 0 00-.72-.586c-.268-.133-.589-.186-.91-.186-.613 0-1.121.213-1.495.666-.374.452-.561.985-.561 1.65 0 .453.107.8.347 1.039.24.24.588.346 1.096.346.373 0 .72-.08 1.041-.24.32-.16.588-.32.802-.506h.267l-.428 1.678c-.4.16-.748.293-1.041.372-.321 0-.695.054-1.176.054zm6.839 0c-1.042 0-1.87-.24-2.431-.693-.561-.452-.855-1.118-.855-1.917 0-.559.107-1.064.294-1.544.187-.479.454-.878.801-1.224a3.81 3.81 0 011.256-.826c.508-.213 1.069-.293 1.656-.293.909 0 1.603.187 2.084.56.454.372.695.931.695 1.65 0 .24-.027.48-.08.72-.054.239-.107.478-.188.718h-4.594v.106c0 .426.16.773.454 1.012.294.24.774.373 1.389.373.427 0 .855-.08 1.229-.213.4-.133.721-.32 1.015-.48h.214l-.374 1.572c-.374.16-.802.292-1.203.372-.427.053-.881.107-1.362.107zm1.523-4.047c0-.053.026-.133.026-.187v-.16c0-.292-.08-.505-.267-.665-.187-.16-.427-.24-.774-.24-.401 0-.748.107-1.042.32-.267.213-.481.532-.641.932h2.698zm9.376-2.05c-.32-.266-.748-.4-1.282-.4-.4 0-.775.08-1.122.213-.347.16-.694.347-1.122.613l.16-.666h-2.671l-.294 1.305h.695L34.515 12.8h2.003l1.015-4.366c.267-.133.481-.24.695-.293.214-.08.374-.106.534-.106.32 0 .535.053.668.16.134.106.187.292.187.532 0 .133-.027.293-.053.452-.027.16-.08.347-.107.586l-.695 3.062h2.004l.908-3.994.08-.399c.027-.133.027-.24.027-.346-.053-.56-.214-.932-.508-1.198zm8.95 6.097c-1.042 0-1.87-.24-2.431-.693-.561-.452-.855-1.118-.855-1.917 0-.559.107-1.064.294-1.544.187-.479.454-.878.801-1.224a3.81 3.81 0 011.256-.826c.507-.213 1.068-.293 1.656-.293.908 0 1.603.187 2.084.56.48.372.694.931.694 1.65 0 .24-.026.48-.08.72a7.096 7.096 0 01-.187.718H48.86v.106c0 .426.16.773.454 1.012.294.24.775.373 1.39.373.427 0 .854-.08 1.228-.213.401-.133.722-.32 1.015-.48h.214l-.374 1.572c-.374.16-.801.292-1.202.372-.454.053-.908.107-1.362.107zm1.496-4.047c0-.053.026-.133.026-.187v-.16c0-.292-.08-.505-.267-.665-.187-.16-.427-.24-.775-.24-.4 0-.748.107-1.041.32-.267.213-.481.532-.642.932h2.699zm7.827-.4h-.187a1.243 1.243 0 00-.374-.053c-.16-.026-.32-.026-.481-.026a6.59 6.59 0 00-.748.053c-.24.026-.48.106-.748.186l-.962 4.127h-2.003l1.442-6.15h2.004l-.214.905c.374-.266.748-.506 1.122-.666.374-.16.748-.266 1.122-.266h.24c.08 0 .16 0 .241.027l-.454 1.863zM45.895 6.65l.4-1.757H44.32l-.401 1.757h-.828l-.294 1.305h.855L42.529 12.8h1.977c0-.053.026-.106.026-.16l1.096-4.712h1.309l.294-1.304-1.336.026zM9.43.5C4.22.5 0 4.707 0 9.898c0 5.192 4.22 9.399 9.43 9.399s9.43-4.207 9.43-9.399C18.86 4.707 14.64.5 9.43.5zm-.694 12.274H6.972l-1.148-2.237h-.882l-.507 2.237H2.858l1.416-6.07h2.378c.748 0 1.309.133 1.736.372.401.24.615.64.615 1.145 0 .48-.16.905-.454 1.225-.294.32-.695.585-1.203.745l1.39 2.583zm6.25-2.263c-.186.852-.534 1.437-1.014 1.837-.481.372-1.176.559-2.057.559-.802 0-1.416-.133-1.817-.426-.4-.293-.614-.719-.614-1.305 0-.106 0-.24.026-.373.027-.133.027-.24.054-.346l.881-3.754h1.576l-.881 3.754c-.027.08-.027.16-.054.24 0 .08-.026.16-.026.213 0 .266.08.453.24.586.16.133.4.186.775.186.347 0 .614-.106.828-.293.214-.186.374-.479.454-.878l.908-3.834h1.576l-.854 3.834zM7.054 7.928c-.16-.106-.401-.16-.695-.16h-.775L5.21 9.392h.775c.427 0 .748-.08.962-.266.24-.16.347-.4.347-.692 0-.24-.08-.4-.24-.506z" fill="#14295E"/><path d="M40.659 17.779c6.972-.107 12.876.772 18.834 2.183-6.278-2.822-13.197-4.42-21.399-4.286-11.968.186-22.6 3.993-29.545 9.824 8.308-4.5 19.608-7.535 32.11-7.721z" fill="#EF3F23"/></svg>