<svg width="100" height="15" viewBox="0 0 100 15" fill="none" xmlns="http://www.w3.org/2000/svg"><path d="M12.325 13.028c-.562.625-1.354 1.106-2.378 1.45-1.023.344-2.158.518-3.4.518-1.31 0-2.453-.266-3.44-.795a5.494 5.494 0 01-2.283-2.305C.291 10.886.016 9.702 0 8.34v-.955c0-1.402.255-2.612.765-3.637s1.242-1.805 2.198-2.35C3.923.856 5.04.586 6.328.586c1.792 0 3.19.396 4.2 1.191 1.012.792 1.606 1.95 1.797 3.463h-3.03c-.14-.803-.443-1.39-.917-1.765-.473-.373-1.126-.558-1.955-.558-1.059 0-1.863.37-2.417 1.106-.553.74-.832 1.839-.84 3.297v.895c0 1.473.298 2.583.9 3.334.601.751 1.481 1.128 2.648 1.128s2.003-.233 2.497-.695V9.565H6.379V7.433h5.942l.004 5.595zm8.625-6.042a8.668 8.668 0 00-1.075-.078c-1.135 0-1.88.359-2.234 1.07V14.8h-2.995V4.373h2.828l.083 1.244c.602-.959 1.434-1.436 2.501-1.436.33 0 .641.04.932.126l-.04 2.679zm3.6 2.704c0 .992.2 1.75.601 2.272.402.526.972.788 1.72.788.73 0 1.295-.259 1.701-.777.406-.518.613-1.347.613-2.486 0-.973-.207-1.724-.613-2.257-.41-.533-.98-.8-1.72-.8-.733 0-1.303.267-1.7.796-.403.53-.602 1.35-.602 2.464zm-2.995-.2c0-1.032.212-1.957.642-2.763a4.529 4.529 0 011.851-1.88c.805-.444 1.74-.662 2.808-.662 1.513 0 2.747.429 3.707 1.291.956.862 1.49 2.031 1.6 3.508l.02.714c0 1.598-.477 2.886-1.437 3.852-.963.965-2.254 1.45-3.87 1.45-1.617 0-2.907-.481-3.875-1.447-.964-.962-1.446-2.272-1.446-3.933v-.13zm22.233 1.525l1.473-6.638h2.891L45.29 14.8h-2.51l-2.126-6.56-2.127 6.56h-2.496L33.167 4.377h2.895l1.462 6.627 2.055-6.627h2.166l2.043 6.638zm20.42-1.946h-5.973V14.8h-3.114V.77h9.832v2.342h-6.718v3.626h5.973v2.33zm4.663.621c0 .992.204 1.75.602 2.272.402.526.971.788 1.72.788.725 0 1.294-.259 1.7-.777.407-.518.61-1.347.61-2.486 0-.973-.203-1.724-.61-2.257-.41-.533-.98-.8-1.72-.8-.733 0-1.298.267-1.7.796-.398.53-.602 1.35-.602 2.464zm-2.994-.2c0-1.032.21-1.957.641-2.763a4.53 4.53 0 011.852-1.88c.804-.444 1.74-.662 2.803-.662 1.517 0 2.748.429 3.707 1.291.956.862 1.494 2.031 1.601 3.508l.02.714c0 1.598-.478 2.886-1.437 3.852-.964.965-2.254 1.45-3.87 1.45-1.618 0-2.908-.481-3.876-1.447-.963-.962-1.445-2.272-1.445-3.933v-.13h.004zm15.005.2c0 .992.199 1.75.601 2.272.402.526.972.788 1.72.788.729 0 1.294-.259 1.7-.777.407-.518.614-1.347.614-2.486 0-.973-.207-1.724-.613-2.257-.406-.533-.98-.8-1.72-.8-.733 0-1.303.267-1.701.796-.398.53-.601 1.35-.601 2.464zm-2.995-.2c0-1.032.211-1.957.641-2.763a4.53 4.53 0 011.852-1.88c.804-.444 1.74-.662 2.807-.662 1.514 0 2.748.429 3.708 1.291.955.862 1.489 2.031 1.6 3.508l.02.714c0 1.598-.477 2.886-1.437 3.852-.96.965-2.254 1.45-3.87 1.45-1.614 0-2.908-.481-3.875-1.447-.964-.962-1.446-2.272-1.446-3.933v-.13zm15.005.219c0 .98.183 1.732.55 2.257.366.522.9.784 1.6.784.924 0 1.577-.366 1.96-1.095V7.522c-.37-.729-1.02-1.095-1.94-1.095-1.45 0-2.17 1.095-2.17 3.282zm-2.999-.196c0-1.628.39-2.92 1.179-3.885.784-.962 1.86-1.443 3.218-1.443 1.09 0 1.995.377 2.703 1.136V0H100v14.8h-2.704l-.147-1.106c-.749.866-1.705 1.302-2.88 1.302-1.321 0-2.38-.484-3.177-1.45-.796-.97-1.199-2.313-1.199-4.033z" fill="#00BB60"/></svg>