<svg width="84" height="20" viewBox="0 0 84 20" fill="none" xmlns="http://www.w3.org/2000/svg"><g clip-path="url(#clip0)" fill="#1D1D1B"><path d="M34.23.227h8.711V1.46H35.59v4.086h6.11v1.23h-6.11v4.188h7.437v1.232H34.23V.227zm24.137.005h1.36V10.95h6.282v1.248h-7.642V.232zm11.84 0h-1.36v11.965h1.36V.232zM14.949.22H13.62L8.371 12.213h1.394l1.433-3.163h6.12l1.412 3.163h1.464L14.949.219zm-3.22 7.618l2.538-6.104 2.523 6.104h-5.061zm43.554 4.365L52.964 7.14c1.273-.62 2.373-1.797 2.373-3.322 0-.975-.345-1.813-.934-2.395-.76-.752-2.176-1.198-3.655-1.198H46.01v11.977h1.36V7.549h4.318l2.12 4.655 1.475-.001zm-4.657-5.868H47.37V1.474h3.27c1.953 0 3.31.89 3.31 2.361.004 1.575-1.508 2.5-3.325 2.5zM6.918 5.751H1.365V1.475h7.648L9.016.226H0v11.977h1.365V6.984h5.547l.006-1.233zM22.213.23h4.904c1.383 0 2.49.376 3.164 1.06a2.682 2.682 0 01.771 1.951c0 1.557-.967 2.36-1.919 2.772 1.436.427 2.417 1.162 2.417 2.836 0 2.052-1.568 3.354-4.216 3.354h-5.121V.23zm4.678 5.338c1.644 0 2.785-.735 2.785-2.173 0-1.181-.952-1.95-2.68-1.95h-3.434v4.123h3.329zm.49 5.424c1.832 0 2.975-.81 2.975-2.174 0-1.3-1.109-2.053-3.218-2.053h-3.576v4.227h3.818zm55.492-1.935a4.958 4.958 0 01-2.491 1.812 4.993 4.993 0 01-3.088-.003 4.958 4.958 0 01-2.489-1.815 4.903 4.903 0 01.073-5.828 4.96 4.96 0 012.534-1.753 4.994 4.994 0 013.087.074 4.956 4.956 0 012.444 1.873L84 2.72A6.223 6.223 0 0080.93.363 6.27 6.27 0 0077.048.27a6.229 6.229 0 00-3.182 2.206 6.156 6.156 0 00-.08 7.323 6.226 6.226 0 003.135 2.274 6.27 6.27 0 003.88-.011 6.225 6.225 0 003.122-2.29l-1.051-.715zM14.37 14.99h1.328c.388-.017.777.024 1.153.123.245.078.455.24.592.456a1.2 1.2 0 01.182.656 1.005 1.005 0 01-.308.778 1.32 1.32 0 01-.51.27c.725.163 1.087.568 1.087 1.215a1.294 1.294 0 01-.428 1.006c-.294.243-.66.38-1.042.392-.181.015-.477.023-.888.023h-1.168l.003-4.92zm.932 1.98h.408c.23.013.46-.015.68-.082a.606.606 0 00.31-.52.6.6 0 00-.299-.525c-.24-.071-.49-.1-.74-.086h-.356l-.003 1.214zm0 2.17h.429c.44 0 .73-.032.87-.094.219-.099.326-.302.326-.613 0-.31-.123-.524-.372-.622a2.348 2.348 0 00-.803-.094h-.45v1.422zm5.204-2.178h1.967v.81h-1.967v1.337h2.243v.81h-3.196v-4.93h3.116v.811h-2.163v1.162zm6.079-1.972h1.067l1.04 1.959 1.027-1.96h1.05l-1.62 2.98v1.938h-.953v-1.939l-1.611-2.978zm7.291-.093a2.11 2.11 0 011.517.58c.478.46.718 1.114.718 1.964 0 .85-.24 1.505-.718 1.967a2.253 2.253 0 01-3.037 0c-.479-.46-.718-1.128-.718-2.003 0-.39.068-.779.203-1.146.166-.462.498-.846.933-1.08a2.18 2.18 0 011.102-.282zm0 .81a1.03 1.03 0 00-.874.405c-.247.332-.37.77-.37 1.311 0 .573.123 1.025.37 1.358a1.135 1.135 0 00.876.411 1.142 1.142 0 00.877-.41c.245-.335.369-.78.37-1.337 0-.558-.123-1.002-.37-1.333a1.026 1.026 0 00-.883-.41l.004.005zm3.872-.717h.952v2.823c-.013.273.014.546.08.81a.74.74 0 00.352.426c.176.093.373.14.573.135.527 0 .847-.216.958-.648a3.58 3.58 0 00.05-.726v-2.82h.952v2.835c.007.271-.01.542-.047.81a1.483 1.483 0 01-.577.97 2.469 2.469 0 01-2.673 0 1.484 1.484 0 01-.578-.97 4.99 4.99 0 01-.046-.81l.004-2.835zm5.847 0h1.238c.345-.007.69.012 1.033.058.37.048.705.24.933.532.197.266.3.59.29.92a1.39 1.39 0 01-.218.824 1.405 1.405 0 01-.66.545l1.143 2.038h-1.11l-1.013-1.878h-.68v1.878H43.6l-.004-4.917zm.952 2.233h.344a2.66 2.66 0 00.806-.082.621.621 0 00.316-.257.706.706 0 00.105-.385.605.605 0 00-.316-.576 1.21 1.21 0 00-.49-.119h-.765v1.42zm7.075-2.233h1.323c.39-.017.778.024 1.155.123.245.078.454.24.59.456a1.2 1.2 0 01.182.656 1.006 1.006 0 01-.295.778 1.321 1.321 0 01-.511.27c.725.163 1.088.568 1.088 1.215a1.293 1.293 0 01-.429 1.006c-.293.243-.659.38-1.04.392-.181.015-.478.023-.89.023h-1.167l-.006-4.92zm.932 1.98h.408c.23.013.46-.015.68-.082a.605.605 0 00.23-.822.606.606 0 00-.22-.223c-.24-.071-.49-.1-.74-.086h-.356l-.002 1.214zm0 2.17h.428c.44 0 .73-.032.872-.094.217-.1.326-.303.326-.613 0-.317-.125-.524-.374-.622a2.342 2.342 0 00-.802-.094h-.45v1.422zm5.204-2.178h1.966v.81h-1.966v1.337H60v.81h-3.195v-4.93h3.115v.811h-2.162v1.162zm7.097-.532h-.914a.782.782 0 00-.16-.442.774.774 0 00-.653-.27.89.89 0 00-.49.135.46.46 0 00-.232.405.418.418 0 00.254.371c.094.051.366.166.816.346.45.18.715.29.816.345.25.125.454.324.585.57.087.192.13.401.126.612a1.378 1.378 0 01-.559 1.168 1.946 1.946 0 01-1.207.345c-.782 0-1.334-.25-1.658-.753a1.972 1.972 0 01-.272-1.011h.92c.064.63.404.945 1.02.945.202.008.402-.043.574-.147a.437.437 0 00.214-.38c0-.186-.114-.343-.341-.467a14.419 14.419 0 00-.856-.371c-.521-.219-.867-.418-1.037-.598a1.271 1.271 0 01-.346-.897 1.317 1.317 0 01.342-.911c.189-.205.431-.355.7-.433.21-.066.43-.098.65-.097.352-.008.7.08 1.003.255.311.177.54.468.635.81.039.155.062.312.07.47zm1.342-1.44h3.566v.81h-1.316v4.11h-.951v-4.113h-1.303l.004-.807z"/></g><defs><clipPath id="clip0"><path fill="#fff" d="M0 0h84v20H0z"/></clipPath></defs></svg>