<svg width="67" height="21" viewBox="0 0 67 21" fill="none" xmlns="http://www.w3.org/2000/svg"><path fill-rule="evenodd" clip-rule="evenodd" d="M25.342 2.766c-3.473 0-6.358 2.274-7.006 5.53a.294.294 0 000 .079v10.96a.409.409 0 00.26.394.422.422 0 00.165.03h2.674c.274 0 .426-.12.426-.425V8.376c.485-1.48 1.815-2.397 3.493-2.397 2.162 0 3.672 1.519 3.672 3.7v.04a.326.326 0 00.205.308.33.33 0 00.129.026h2.775a.36.36 0 00.221-.113.352.352 0 00.094-.227v-.037c0-3.874-3.13-6.908-7.115-6.908l.007-.002zm16.8 13.965c-3.04-.001-5.172-2.162-5.172-5.133 0-3.03 2.129-5.161 5.168-5.161 3.008 0 5.137 2.13 5.137 5.16.003 2.972-2.126 5.133-5.134 5.133v.001zm0-13.563a8.987 8.987 0 00-5.2 1.619V.421a.404.404 0 00-.256-.39.42.42 0 00-.163-.031h-2.684a.421.421 0 00-.396.258.405.405 0 00-.03.163v11.184c0 4.8 3.92 8.402 8.724 8.402 4.77 0 8.692-3.601 8.692-8.402 0-4.8-3.916-8.438-8.688-8.438v.001zM8.721 16.73c-3.04 0-5.167-2.16-5.167-5.132 0-3.03 2.128-5.161 5.167-5.161 3.01 0 5.142 2.13 5.142 5.16 0 2.972-2.132 5.133-5.142 5.133zm0-13.563c-4.8 0-8.721 3.63-8.721 8.43C0 16.399 3.92 20 8.722 20c4.77 0 8.693-3.602 8.693-8.402 0-4.8-3.92-8.431-8.693-8.431zm57.035.28h-3.313a.437.437 0 00-.43.27L57.58 10.89h-.211l-4.651-7.198a.444.444 0 00-.394-.246H48.98a.22.22 0 00-.214.098.213.213 0 00.002.233l6.868 10.558v5.044a.393.393 0 00.259.396c.053.02.11.028.168.024h2.672a.39.39 0 00.315-.109.38.38 0 00.11-.311v-5.044l6.81-10.528a.237.237 0 000-.241.241.241 0 00-.212-.12z" fill="#E52A1B"/></svg>