<svg width="70" height="14" viewBox="0 0 70 14" fill="none" xmlns="http://www.w3.org/2000/svg"><path d="M10.325 7.874h-.244l-3.43-7.6H.5v13.452h4.001V5.331h.273l3.565 8.395h3.538l3.512-8.395h.245v8.395h4.082V.273h-5.933l-3.457 7.601zM57.633.273h-6.968v13.453h6.968c5.145 0 7.594-2.406 7.594-6.726 0-4.703-2.912-6.725-7.594-6.725V.273zm0 9.79h-2.885V3.936h2.885c1.824 0 3.565.793 3.565 3.062 0 2.27-1.552 3.062-3.565 3.062v.002zM27.8 0c-4.273 0-6.885 2.352-6.885 5.387h4.055c0-1.067 1.17-1.723 2.83-1.723 1.987 0 2.995.929 2.995 2.215l-4.6-.027c-3.755 0-5.553 1.695-5.58 4.046 0 2.708 2.315 4.102 4.927 4.102 1.66 0 3.728-.52 5.035-2.434h.217v2.16h4.055V6.344C34.85 2.106 31.774 0 27.8 0h.002zm2.995 8.558c-.707 1.203-2.776 2.05-4.274 2.05-1.17 0-1.824-.518-1.824-1.202 0-.601.517-1.093 2.015-1.093h4.083v.246zm36.473.848c-1.28 0-2.178 1.067-2.178 2.16 0 1.312.898 2.297 2.178 2.297 1.279 0 2.232-.985 2.232-2.297 0-1.093-.98-2.16-2.232-2.16zm-31.274 4.32h13.554v-3.665h-9.47V8.558h7.429V5.33h-7.43V3.937h9.471V.273H35.994v13.453z" fill="#1A2536"/></svg>