<svg width="112" height="24" viewBox="0 0 112 24" fill="none" xmlns="http://www.w3.org/2000/svg"><g clip-path="url(#clip0)"><path d="M10.774 4.224v2.449c0 .264-.008.264-.024.561.128-.289.254-.458.382-.633l1.52-2.023v-.354h.607v4.08h-.607V5.897c0-.143.01-.39.034-.583-.034.072-.09.209-.367.57l-1.545 2.03v.392h-.604V4.224h.604zM14 5.265a1.334 1.334 0 01.748-.936c.145-.071.446-.184.949-.184.342 0 .748.047 1.034.223a1 1 0 01.436 1.224.9.9 0 01-.197.298.953.953 0 01-.574.255v.016a1.1 1.1 0 01.694.312c.152.16.254.399.254.686 0 .473-.27.785-.51.945-.373.255-.86.28-1.192.28-.328 0-.893-.017-1.3-.378a1.447 1.447 0 01-.437-.798l.589-.12a.918.918 0 00.231.471c.151.161.423.327.884.327.239 0 .549-.046.739-.174a.616.616 0 00.296-.544c0-.256-.097-.417-.192-.504-.223-.21-.541-.231-.804-.231h-.454v-.496h.454c.168 0 .414-.03.565-.104.295-.135.352-.367.352-.575a.537.537 0 00-.224-.44c-.158-.128-.438-.177-.708-.177-.232 0-.517.05-.757.247a.904.904 0 00-.31.53L14 5.265zm7.038-1.041v3.585h.415V9.4h-.558V8.305h-2.699V9.4h-.558V7.81h.303c.154-.228.282-.472.382-.728.295-.753.327-1.553.35-2.49l.009-.368h2.356zm-1.855.715c-.024.598-.095 1.591-.358 2.295-.08.207-.207.479-.255.575h1.862V4.722H19.19l-.007.217zm2.735.32c.175-.871.836-1.113 1.719-1.113.272 0 .797.008 1.155.297.439.352.445.91.445 1.44V7.45c0 .225.025.497.105.857h-.638a6.508 6.508 0 01-.072-.76c-.11.231-.462.84-1.416.84-.519 0-.846-.175-1.045-.36a1.144 1.144 0 01-.365-.865c0-.55.312-.87.55-1.03.493-.337 1.13-.346 1.751-.346h.525V5.62c0-.218-.015-.49-.158-.681-.208-.28-.558-.297-.845-.297-.334 0-1.034.05-1.13.712l-.581-.095zm2.197 1.023c-.638 0-1.003.08-1.226.199a.745.745 0 00-.415.68c0 .16.065.391.296.543.112.08.302.153.581.153a1.248 1.248 0 00.963-.458 1.55 1.55 0 00.318-.918v-.2h-.517zm4.65-2.058v.498H27.49v3.583h-.605V4.722H25.61v-.498h3.153zm3.67 2.968a1.652 1.652 0 01-.662.888 1.771 1.771 0 01-1.043.304c-.572 0-1.027-.191-1.376-.593-.36-.408-.494-.926-.494-1.495 0-1.086.605-2.15 1.886-2.15 1.513 0 1.76 1.407 1.76 2.064v.143h-2.947c-.008.27.039.54.137.792.199.487.564.712 1.058.712.438 0 .701-.193.845-.353.112-.12.198-.287.247-.432l.588.12zm-.63-1.334c-.008-.248-.07-.545-.19-.744a.966.966 0 00-.86-.473c-.397 0-.701.192-.883.417-.174.23-.271.51-.279.8h2.213zm4.236-1.634v4.08h-.604V4.723H34.13c-.064 1.823-.135 2.367-.255 2.726-.27.793-.9.857-1.179.857h-.031v-.53h.063c.184-.008.463-.143.615-.421.119-.217.206-.616.246-2.673l.008-.457h2.443zm1.594 0v1.608h1.131c.317 0 .716.033 1.003.313.135.136.326.407.326.895 0 .393-.11.728-.407.985-.278.247-.58.28-.818.28h-1.84V4.224h.605zm0 3.585h.948c.175 0 .398 0 .596-.169.144-.127.247-.336.247-.606 0-.32-.143-.489-.27-.577-.153-.095-.39-.128-.55-.128h-.972v1.48zm5.617-2.159c-.03-.22-.107-.43-.223-.618-.11-.158-.342-.36-.74-.36-.35 0-.605.169-.78.457-.222.36-.264.823-.264 1.152 0 .767.215 1.102.263 1.167.135.2.374.407.772.407.303 0 .527-.102.71-.333.142-.186.23-.432.261-.663l.574.102c-.056.393-.23.752-.463.992-.286.296-.66.432-1.098.432-.51 0-.875-.185-1.114-.4-.398-.368-.605-1.023-.605-1.712 0-.543.12-1.04.422-1.464.278-.383.683-.664 1.337-.664.445 0 .82.135 1.106.465.23.264.366.64.414.935l-.572.105zm3.877-1.426v.498h-1.275v3.583h-.604V4.722h-1.274v-.498h3.153zm2.274 0c.326 0 .675.018.947.177.151.088.43.312.43.785 0 .271-.08.504-.272.68-.064.054-.238.208-.525.255v.016c.295.023.589.152.756.32.08.079.272.303.272.696 0 .374-.16.695-.422.903-.31.24-.66.249-.987.249h-1.998V4.224h1.799zm-1.196 1.704h1.13c.192 0 .44-.014.616-.206a.69.69 0 00.157-.464.475.475 0 00-.175-.391c-.167-.145-.358-.145-.542-.145h-1.186v1.206zm0 1.881h1.276c.293 0 .509-.08.636-.2a.69.69 0 00.19-.495.635.635 0 00-.245-.521c-.2-.152-.487-.168-.637-.168h-1.22v1.384zm5.131-3.664c1.051 0 1.831.785 1.831 2.12 0 1.336-.78 2.12-1.83 2.12-1.051 0-1.83-.784-1.83-2.12 0-1.335.779-2.12 1.83-2.12zm1.132 2.122c0-1.337-.645-1.594-1.132-1.594-.485 0-1.13.257-1.13 1.594 0 1.335.645 1.589 1.13 1.589.488 0 1.132-.255 1.132-1.59zM11.908 12.34l1.408 5.111 1.44-5.111h1.676v7.087h-1.11v-6.044l-1.677 6.044h-.842l-1.646-6.055v6.055h-.988V12.34h1.739zm8.54 0l1.892 7.086h-1.192l-.443-1.778h-2.057l-.43 1.778h-1.123l2.036-7.086h1.317zm-.771 1.146l-.79 3.233h1.591l-.802-3.233zm4.535-1.146v2.942h2.077V12.34h1.173v7.087h-1.173v-3.174h-2.077v3.174H23.04V12.34h1.172zm5.635 0v2.942h2.076V12.34h1.174v7.087h-1.174v-3.174h-2.076v3.174h-1.172V12.34h1.172zm5.648 5.753v1.272l-.781 1.559h-.505l.648-1.498h-.544v-1.333h1.182zm3.495-5.753v4.203c0 .31-.052.506-.083.857.217-.536.259-.62.278-.66l2.016-3.906v-.494h1.173v7.087H41.2V15.2c0-.184.03-.289.083-.919-.227.496-.125.332-.33.725L38.99 18.85v.58h-1.172v-7.09h1.173zm6.756 0c.545 0 1.09 0 1.502.258.401.258.72.785.72 1.517 0 .599-.186.93-.33 1.105a1.665 1.665 0 01-.72.466c.33.082.587.258.771.445.403.402.494.878.494 1.301 0 .961-.463 1.436-.802 1.653-.493.32-1.06.341-1.604.341h-2.19V12.34h2.16zm-.246 2.922c.277 0 .709-.031.915-.177.245-.175.36-.588.36-.857 0-.288-.114-.62-.33-.784-.225-.177-.607-.177-.832-.177h-.855v1.995h.742zm.195 3.234c.195 0 .556-.02.843-.207.401-.258.452-.641.452-.94 0-.177-.03-.66-.411-.94-.277-.206-.638-.216-.966-.216h-.854v2.303h.936zm6.22-6.156l1.893 7.086h-1.193l-.442-1.778h-2.057l-.43 1.778h-1.123L50.6 12.34h1.316zm-.77 1.146l-.791 3.233h1.592l-.802-3.233zm4.535-1.146v2.942h2.077V12.34h1.174v7.087h-1.174v-3.174H55.68v3.174h-1.172V12.34h1.172zm8.43.546c.79.847.853 2.386.853 2.996 0 .59-.062 2.17-.854 2.997-.307.32-.864.679-1.677.679-.708 0-1.295-.277-1.675-.67-.258-.269-.864-1.044-.864-2.996 0-.682.08-2.222.864-3.026.298-.312.853-.661 1.675-.661.825 0 1.358.34 1.677.681zm-2.84 1.405c-.08.361-.144 1.156-.144 1.591 0 .433.064 1.23.145 1.591.144.61.483 1.114 1.162 1.114.381 0 .906-.143 1.142-1.114.102-.423.154-.93.154-1.591 0-.766-.071-1.24-.154-1.59-.103-.404-.36-1.116-1.142-1.116-.205 0-.916.061-1.162 1.115zm6.831-1.951c.546 0 1.09 0 1.503.258.4.258.719.785.719 1.517 0 .599-.185.93-.33 1.105a1.663 1.663 0 01-.72.466c.33.082.587.258.773.445.4.402.493.878.493 1.301 0 .961-.464 1.436-.802 1.653-.494.32-1.06.341-1.605.341h-2.19V12.34h2.16zm-.247 2.922c.277 0 .71-.031.915-.177.247-.175.36-.588.36-.857 0-.288-.113-.62-.329-.784-.226-.177-.607-.177-.833-.177h-.853v1.995h.74zm.196 3.234c.196 0 .557-.02.843-.207.401-.258.452-.641.452-.94 0-.177-.03-.66-.41-.94-.278-.206-.637-.216-.966-.216h-.854v2.303h.935zm6.279-6.156v4.203c0 .31-.052.506-.082.857.215-.536.258-.62.277-.66l2.016-3.906v-.494h1.172v7.087H76.54V15.2c0-.184.03-.289.082-.919-.226.496-.124.332-.33.725l-1.964 3.843v.58h-1.172V12.34h1.173zm9.589-.208v.908h.05c.342 0 1.071.022 1.678.537.381.32.853.98.853 2.16 0 .93-.278 1.622-.658 2.024-.514.549-1.204.674-1.923.692v1.044h-1.13v-1.044c-.721-.018-1.411-.143-1.923-.692-.382-.402-.66-1.095-.66-2.024 0-1.18.474-1.84.855-2.16.606-.515 1.336-.537 1.676-.537h.053v-.908h1.129zm-1.099 1.839h-.072c-.441 0-.864.144-1.1.39-.36.374-.391 1.056-.391 1.386 0 .704.122 1.272.596 1.57.319.197.782.217.967.207v-3.553zm1.068 3.554c.186.01.648-.01.967-.207.473-.299.596-.867.596-1.57 0-.33-.03-1.012-.39-1.386-.083-.082-.401-.39-1.1-.39h-.073v3.553zm7.544-5.185v.97h-2.869v1.972h2.25v.971h-2.25v2.202h2.919v.972h-4.093V12.34h4.043zm2.544 0c.74 0 1.48.04 2.025.588.33.33.566.879.566 1.6 0 .507-.144 1.074-.464 1.447-.544.651-1.42.68-2.097.68h-.617v2.77h-1.173V12.34h1.76zm-.586 3.388h.586c.473 0 .916-.011 1.172-.414.062-.104.185-.343.185-.807 0-.248-.031-.61-.236-.877-.267-.361-.64-.361-1.12-.361h-.587v2.459zm8.02-2.46h-2.88v1.963h1.204c.318 0 .997.032 1.51.464.269.24.628.704.628 1.57 0 .57-.164 1.19-.504 1.583-.462.535-1.069.578-1.449.578h-2.561V12.34h4.052v.928zm-2.88 5.228h1.06c.309 0 .627-.124.801-.311.175-.185.288-.495.288-.9 0-.173-.02-.566-.288-.824-.185-.176-.534-.3-.864-.3h-.996v2.335zm8.334-6.156v.97h-2.869v1.972h2.251v.971h-2.251v2.202h2.922v.972h-4.094V12.34h4.041zm2.545 0c.74 0 1.481.04 2.025.588.33.33.567.879.567 1.6 0 .507-.145 1.074-.463 1.447-.546.651-1.419.68-2.097.68h-.618v2.77h-1.171V12.34h1.757zm-.586 3.388h.586c.474 0 .916-.011 1.172-.414.063-.104.186-.343.186-.807 0-.248-.031-.61-.236-.877-.269-.361-.638-.361-1.122-.361h-.586v2.459zM3.317 21.334V2.672h2.555V.006H0V24h5.872v-2.666" fill="#231F20"/></g><defs><clipPath id="clip0"><path fill="#fff" d="M0 0h112v24H0z"/></clipPath></defs></svg>