<svg width="101" height="17" viewBox="0 0 101 17" fill="none" xmlns="http://www.w3.org/2000/svg"><path fill-rule="evenodd" clip-rule="evenodd" d="M84.026 1.31c-.51.182-.99.449-1.444.8a4.92 4.92 0 00-1.066 1.2 3.886 3.886 0 00-.336.673 3.2 3.2 0 00-.175.661 1.933 1.933 0 00-.005.533c.02.166.077.32.175.464.175.283.464.427.877.427a1.34 1.34 0 00.783-.24 2.495 2.495 0 00.629-.8c.205-.437.505-.818.876-1.115a1.94 1.94 0 011.165-.336c.284 0 .526.043.722.134.188.08.355.207.484.37a1.3 1.3 0 01.258.563c.041.213.052.448.01.693a3.117 3.117 0 01-.165.678 4.421 4.421 0 01-.68 1.173 21.32 21.32 0 01-.515.587l-5.3 5.776c-.231.25-.432.496-.597.73-.17.235-.279.507-.32.806-.03.213-.026.4.016.565a.95.95 0 00.206.437c.144.203.33.32.567.358.227.037.48.053.757.053h5.531l.387-.005c.103 0 .206-.01.284-.022a.987.987 0 00.231-.053c.067-.016.14-.048.207-.08a1.5 1.5 0 00.479-.432c.129-.187.217-.41.258-.677.03-.267.015-.49-.062-.683a.898.898 0 00-.36-.427.832.832 0 00-.181-.09 2.91 2.91 0 00-.495-.07H83.02l4.144-4.48c.381-.41.711-.778.995-1.109.278-.325.515-.64.711-.96.196-.31.36-.64.48-.976.123-.341.216-.73.278-1.157a4.621 4.621 0 00-.057-1.814c-.122-.5-.367-.96-.711-1.333a3.217 3.217 0 00-1.279-.816c-.515-.187-1.103-.283-1.762-.283-.686 0-1.29.091-1.794.278zm12.727-.074a2.329 2.329 0 00-.35.336c-.104.128-.243.33-.413.608l-5.758 9.37a5.394 5.394 0 00-.356.63 1.968 1.968 0 00-.17.539c-.03.208-.02.405.031.586.053.194.158.369.302.504.144.136.321.227.513.264.221.043.49.064.814.064h3.752l-.066.454-.057.437c-.016.123-.026.23-.02.32-.004.163.02.326.071.48v.005a.848.848 0 00.366.491c.186.117.413.176.68.176.269 0 .516-.059.733-.176a1.32 1.32 0 00.51-.49c.088-.15.155-.31.206-.48.052-.177.098-.427.145-.763l.067-.454h.381l.387-.005a3 3 0 00.288-.021c.083-.01.155-.027.232-.054.067-.016.134-.048.206-.08.186-.106.346-.245.48-.426a1.65 1.65 0 00.257-.683c.037-.267.016-.49-.061-.677a.902.902 0 00-.542-.512 2.983 2.983 0 00-.494-.07l-.387-.005h-.382l.186-1.28c.046-.336.072-.587.072-.763 0-.17-.02-.33-.067-.48a.835.835 0 00-.37-.49 1.218 1.218 0 00-.676-.176 1.45 1.45 0 00-.732.176 1.348 1.348 0 00-.516.485l-.113.235a3.06 3.06 0 00-.165.576l-.072.437-.18 1.28h-2.526l5.072-8.25c.087-.134.155-.257.216-.358.052-.107.103-.197.14-.283.067-.145.114-.3.139-.458a.996.996 0 00-.041-.48 1.103 1.103 0 00-.238-.39 1.251 1.251 0 00-.376-.256 1.091 1.091 0 00-.459-.096c-.242 0-.464.07-.654.203" fill="#F7A72F"/><path fill-rule="evenodd" clip-rule="evenodd" d="M60.077.623a1.94 1.94 0 00-.927.821 1.761 1.761 0 00-.222.608c-.031.213-.02.41.03.603.052.186.135.352.248.49a1.27 1.27 0 001.005.454c.206 0 .413-.043.609-.123.387-.162.713-.45.927-.821h.006c.108-.192.18-.39.216-.603.031-.213.02-.416-.03-.608a1.323 1.323 0 00-.248-.49 1.347 1.347 0 00-.456-.338 1.307 1.307 0 00-.55-.116 1.61 1.61 0 00-.608.123zm-36.886 1.29l-5.346 5.531.686-4.453c.026-.166.052-.31.062-.427.015-.123.02-.23.026-.32 0-.096-.01-.181-.021-.261l-.062-.251a1.026 1.026 0 00-.412-.496 1.27 1.27 0 00-.712-.187H16l-.31 1.984L14 13.983l-.057.426c-.015.123-.025.23-.025.32 0 .096.005.182.02.262l.062.25a.979.979 0 00.407.491c.19.128.428.192.712.192.283 0 .54-.064.773-.192a1.51 1.51 0 00.562-.49c.051-.086.103-.171.139-.251a2.91 2.91 0 00.103-.256c.054-.248.102-.497.144-.747v-.005l.392-2.56 2.196-2.278 2.273 5.6c.062.166.129.32.196.464.072.14.155.267.237.374a.961.961 0 00.325.25c.129.06.288.091.48.091.241 0 .504-.075.783-.224.257-.139.464-.32.618-.533a1.34 1.34 0 00.263-.667.978.978 0 000-.245c0-.075-.015-.16-.036-.246a9.406 9.406 0 00-.237-.666l-2.583-6.374 3.207-3.328c.144-.144.257-.272.36-.384l.238-.304c.114-.164.19-.354.221-.554a1.14 1.14 0 00-.051-.582 1.23 1.23 0 00-.3-.437c-.221-.224-.896-.81-.896-.81s-.3.314-1.335 1.343zm30.922-.858s-.113.784-.226 1.408l-.073.426-.484 3.136a2.311 2.311 0 00-.995-.832 4.322 4.322 0 00-2.876.011c-.464.17-.871.41-1.217.72a3.64 3.64 0 00-.737.901c-.2.336-.36.694-.495 1.083a10.16 10.16 0 00-.324 1.227 28.968 28.968 0 00-.413 2.645h.005a9.142 9.142 0 00-.051 1.227c.01.39.062.752.154 1.088a2.403 2.403 0 001.47 1.621c.45.173.927.258 1.407.25.562 0 1.062-.085 1.505-.25.438-.17.871-.459 1.288-.864.016.176.042.325.078.443a.92.92 0 00.19.32c.186.208.449.31.794.31.248 0 .485-.054.707-.172.226-.112.397-.266.52-.448.092-.143.169-.297.227-.458.03-.086.057-.192.083-.31l.072-.442 1.726-11.206a5.14 5.14 0 00.078-.736c0-.165-.02-.32-.067-.464a.843.843 0 00-.366-.469 1.254 1.254 0 00-.676-.17h-1.304v.005zm-4.639 12.234a1.236 1.236 0 01-.433-.656 3.01 3.01 0 01-.087-.976c.047-.816.17-1.625.37-2.416.099-.373.227-.693.398-.965.165-.272.376-.49.634-.645.257-.16.587-.24.979-.24.397 0 .696.08.907.24.212.16.361.373.444.64.082.277.113.597.092.97a12.925 12.925 0 01-.37 2.416 3.675 3.675 0 01-.392.976 1.85 1.85 0 01-.65.656c-.305.17-.649.253-.995.24-.392 0-.69-.08-.897-.24zm15.33-9.642l-.072.426-.222 1.43h-.257c-.258 0-.439.01-.562.032a1.326 1.326 0 00-.356.117c-.168.08-.312.204-.42.36a1.143 1.143 0 00-.198.525l-.155 1.03h1.629l-.815 5.317c-.06.378-.064.763-.01 1.141.05.365.189.71.403 1.005.215.293.498.526.824.675.36.171.81.256 1.355.256h.145c.257 0 .474-.016.654-.048.18-.032.33-.074.454-.138.18-.09.335-.226.452-.393.116-.168.192-.362.218-.567h.005c.036-.24.02-.443-.051-.603a.698.698 0 00-.325-.357 1.157 1.157 0 00-.335-.118 4.847 4.847 0 00-.428-.053.903.903 0 01-.402-.09.55.55 0 01-.227-.209.632.632 0 01-.093-.293c-.01-.112 0-.23.016-.357l.794-5.163h.793c.248 0 .434-.01.557-.032.119-.021.237-.053.356-.112.168-.081.313-.206.422-.362a1.15 1.15 0 00.197-.529l.175-1.034h-2.18l.221-1.435a5.02 5.02 0 00.077-.73c0-.166-.02-.32-.062-.47a.848.848 0 00-.37-.47 1.254 1.254 0 00-.676-.17h-1.304l-.227 1.419zM73.98 5.06c-.335.075-.65.17-.938.293a5.397 5.397 0 00-1.438.923 4.912 4.912 0 00-1.227 1.744 7.28 7.28 0 00-.36 1.11 14.722 14.722 0 00-.413 2.666 6.01 6.01 0 00.02 1.11 3.264 3.264 0 001.845 2.661c.249.122.532.218.852.293a5.235 5.235 0 003.092-.293 4.695 4.695 0 001.444-.923 5.117 5.117 0 001.227-1.739c.139-.336.257-.704.36-1.109.098-.4.186-.848.258-1.333.077-.49.129-.939.155-1.334.02-.4.015-.768-.026-1.109a3.572 3.572 0 00-.686-1.744 3.129 3.129 0 00-1.154-.923 4.068 4.068 0 00-.85-.293 5.23 5.23 0 00-2.156 0h-.005zm-1.376 8a1.205 1.205 0 01-.258-.47 2.423 2.423 0 01-.087-.607c-.01-.224 0-.464.02-.715.056-.54.139-1.078.248-1.61a4.78 4.78 0 01.2-.72 3.19 3.19 0 01.28-.609c.178-.296.429-.538.726-.703.298-.164.632-.246.969-.235.516 0 .897.16 1.155.464.113.138.196.298.247.48.052.176.088.373.093.602.01.224 0 .464-.02.715a16.005 16.005 0 01-.248 1.61 4.848 4.848 0 01-.201.72 3.25 3.25 0 01-.279.609 1.96 1.96 0 01-.727.7 1.881 1.881 0 01-.968.233c-.516 0-.897-.15-1.15-.459v-.005zM39.108 5.327c-.6.242-1.148.605-1.613 1.066a6.147 6.147 0 00-1.206 1.734 8.314 8.314 0 00-.691 2.336 7.303 7.303 0 00-.005 2.698 3.59 3.59 0 00.83 1.691c.392.418.885.72 1.427.875a6.793 6.793 0 003.413.064 4.736 4.736 0 002.2-1.216c.228-.235.362-.48.403-.73.02-.15.01-.3-.031-.433a.966.966 0 00-.19-.363c-.176-.208-.568-.725-.573-.725-.01 0-.675.496-1.144.8a3.14 3.14 0 01-.923.437 3.65 3.65 0 01-.984.14c-.387 0-.717-.06-.99-.182a1.66 1.66 0 01-.65-.496 1.697 1.697 0 01-.324-.752 3.056 3.056 0 010-.97h5.077c.19 0 .397-.012.603-.038.206-.027.407-.128.603-.304.175-.16.31-.342.382-.56a2.89 2.89 0 00.154-.64 5.52 5.52 0 00-.062-1.899 3.866 3.866 0 00-.67-1.52 3.29 3.29 0 00-1.268-1.013 4.319 4.319 0 00-1.845-.368c-.68 0-1.325.122-1.923.368zm-.618 3.525a2.82 2.82 0 01.263-.555c.199-.344.482-.628.822-.822.34-.194.723-.291 1.11-.282.449 0 .805.102 1.068.304.268.214.443.475.536.8.056.198.087.384.087.555 0 .176-.01.373-.036.613h-4c.047-.234.093-.437.155-.613h-.005zm-6.273-3.808c-.493.13-.96.346-1.382.64a3.507 3.507 0 00-.53.437c0-.202-.027-.362-.068-.485a.88.88 0 00-.2-.33c-.186-.209-.45-.31-.795-.31h-1.304s-.139.747-.227 1.387l-.072.442-1.118 7.26-.062.426c-.016.117-.02.218-.02.31-.005.157.02.314.071.463a.82.82 0 00.366.47c.18.117.407.17.675.17.274 0 .516-.053.733-.17a1.31 1.31 0 00.515-.47c.088-.144.155-.299.206-.464.052-.165.103-.41.15-.736l.726-4.73c.052-.337.15-.63.29-.88.138-.257.303-.46.489-.625a1.99 1.99 0 011.278-.48c.175 0 .345.027.505.08.16.054.31.118.454.203.325.181.608.277.86.277a1.5 1.5 0 00.939-.373c.134-.117 1.026-.97 1.026-.97s-.155-.347-.377-.577a6.364 6.364 0 00-.598-.56 2.387 2.387 0 00-.721-.368 3.424 3.424 0 00-1.036-.128c-.258 0-.52.032-.773.091zM58.35 7.156l-.01.043V7.16l-.005.075-1.057 6.848-.061.427a2.248 2.248 0 00-.021.31c-.004.157.02.314.072.463a.832.832 0 00.36.47c.186.117.413.17.681.17.274 0 .516-.053.732-.17a1.31 1.31 0 00.516-.47c.087-.144.154-.299.206-.464a5.89 5.89 0 00.15-.736l1.066-6.939a5.15 5.15 0 00.078-.736c0-.16-.02-.32-.062-.464a.842.842 0 00-.371-.469 1.255 1.255 0 00-.676-.176h-1.32l-.283 1.85.005.006z" fill="#195491"/><path fill-rule="evenodd" clip-rule="evenodd" d="M12.186 5.3c-.17 0-.32.016-.444.021a1.809 1.809 0 00-.598.091c-.087.027-.17.053-.247.096-.227.107-.412.181-.567.405-.155.219-.258.48-.3.784l-.22 1.478s.102.016.788.016h.423c.34 0 .603-.032.778-.054.18-.032.35-.08.515-.16.222-.106.413-.266.567-.49.155-.224.253-.486.3-.79l.221-1.397h-1.216zM6.933 9.444a2.684 2.684 0 00-.33.032 1.77 1.77 0 00-.515.16 1.404 1.404 0 00-.567.49 1.791 1.791 0 00-.3.79L5 12.351l1.598-.006h3.598c.34 0 .603-.01.778-.037.18-.027.35-.08.516-.16.221-.101.412-.219.567-.443a1.87 1.87 0 00.299-.789l.221-1.472H6.933zM9.82 13.61H2.37l-.448.006a2.802 2.802 0 00-.33.032 1.324 1.324 0 00-.268.064 1.052 1.052 0 00-.243.096 1.404 1.404 0 00-.567.49 1.79 1.79 0 00-.299.79L0 16.495l1.933.005h7.438c.34 0 .603-.016.778-.037.18-.027.351-.022.516-.096.222-.107.412-.267.567-.49.155-.225.253-.486.299-.79l.222-1.478H9.814" fill="#89CAEA"/></svg>