<svg width="81" height="14" viewBox="0 0 81 14" fill="none" xmlns="http://www.w3.org/2000/svg"><path d="M6.348 3.131A3.09 3.09 0 014.435 5.99a3.105 3.105 0 01-3.378-.67A3.092 3.092 0 013.249.038c.822 0 1.61.326 2.191.906.581.58.908 1.367.908 2.187zm7.68 0a3.09 3.09 0 01-1.914 2.858 3.105 3.105 0 01-3.378-.67A3.091 3.091 0 0110.928.038a3.105 3.105 0 012.864 1.91c.156.375.236.777.236 1.183zm-7.68 7.707a3.089 3.089 0 01-1.913 2.859 3.106 3.106 0 01-3.378-.671 3.091 3.091 0 012.192-5.281 3.098 3.098 0 013.099 3.094zm7.68 0a3.089 3.089 0 01-1.914 2.859 3.105 3.105 0 01-3.378-.671 3.091 3.091 0 012.192-5.281 3.105 3.105 0 012.864 1.91c.156.375.236.777.236 1.184z" fill="#DB0032"/><path d="M75.617 11.343a1.106 1.106 0 01-1.02-.68A1.099 1.099 0 0175.4 9.16a1.106 1.106 0 011.32 1.081 1.1 1.1 0 01-1.104 1.102zm-.25-7.867a24.267 24.267 0 00-5.033.516v2.632c.332-.139 2.288-.712 3.81-.712.975 0 2.33.171 2.33 1.22v.302h-.667c-2.52 0-6.378.057-6.378 3.488 0 1.655 1.107 2.99 3.494 2.99 1.07 0 2.52-.17 3.469-1.447h.083v1.219h4.39V7.325c0-2.99-2.825-3.849-5.497-3.849zM27.679.35h5.116v13.34H27.68V8.773h-3.42v4.917h-5.118V.35h5.118v4.612h3.418V.35zm23.347 5.09c.687-1.697 2.253-1.958 3.226-1.958 3.38 0 3.47 2.535 3.47 3.277v6.937h-4.813V7.935c0-.552.02-1.355-.84-1.355s-.858.82-.858 1.355v5.755h-4.812V3.705h4.544v1.734h.083zm7.89 5.162c.84.363 2.139.801 3.552.801 1.242 0 1.757-.266 1.757-.667 0-.647-1.146-.59-1.776-.704-2.062-.363-3.915-.953-3.915-3.161 0-1.807 1.299-3.392 5.71-3.392 1.09.003 2.179.124 3.244.36.092.018.537.116.723.167v2.628l-.705-.214a10.227 10.227 0 00-2.796-.429c-.706 0-1.66.058-1.66.667 0 .4.497.515 1.547.61 1.718.172 4.143.534 4.143 3.068 0 1.277-.802 3.583-5.747 3.583a15.656 15.656 0 01-4.073-.572v-2.745h-.004zm-18.882.741a1.106 1.106 0 01-1.083-1.317 1.102 1.102 0 011.506-.803 1.104 1.104 0 01.681 1.018 1.101 1.101 0 01-1.104 1.102zm-.249-7.867c-1.59.009-3.175.211-4.716.602v2.61c1.11-.46 2.293-.724 3.494-.78.973 0 2.33.17 2.33 1.22v.301h-.669c-2.52 0-6.377.057-6.377 3.488 0 1.656 1.107 2.991 3.495 2.991 1.068 0 2.52-.171 3.469-1.448h.075v1.22h4.391V7.324c0-2.991-2.825-3.849-5.498-3.849h.006z" fill="#1D1D1B"/></svg>