<svg width="105" height="12" viewBox="0 0 105 12" fill="none" xmlns="http://www.w3.org/2000/svg"><path d="M13.734 0v12h-2.297V0h2.297zm49.521 0v10.04h5.584V12h-7.881V0h2.297zM105 0v1.953h-6.05v2.898h5.532v1.953H98.95v3.236H105V12h-8.347V0H105zM82.303 12L77.881 0h-2.914l-4.416 12h2.323c.341-.977.61-1.723.833-2.349h5.427c.216.6.479 1.347.833 2.349h2.336zm-7.88-4.302c.465-1.277.918-2.54 2-5.764 1.248 3.677 1.602 4.685 2.002 5.764h-4.002zM8.543 0v1.953H2.297v3.153h5.78V7.06h-5.78V12H0V0h8.543zm49.869 0v1.953h-6.247v3.153h5.781V7.06h-5.78V12h-2.297V0h8.543zM19.98 0l5.768 8.528V0h2.297v12H25.63l-5.768-8.528V12h-2.296V0h2.414zm14.318 0l5.768 8.528V0h2.296v12h-2.415L34.18 3.472V12h-2.297V0h2.415zm57.296 12h2.494l-3.3-4.806c.426-.096.84-.237 1.233-.44a3.552 3.552 0 001.194-.997c.151-.197.276-.414.38-.65.204-.473.316-.856.316-1.45 0-.593-.105-.931-.315-1.404a3.216 3.216 0 00-.906-1.2 3.552 3.552 0 00-.669-.447C91.148.146 90.151 0 89.173 0H84.45v12h2.296V7.36h1.667L91.594 12zM86.745 1.953h2.658c.886 0 1.791.32 2.132 1.168.151.377.145.753-.006 1.13-.341.843-1.24 1.155-2.126 1.155h-2.658V1.953z" fill="#000"/></svg>