<svg width="104" height="21" viewBox="0 0 104 21" fill="none" xmlns="http://www.w3.org/2000/svg"><path d="M43.776 7.516c-1.366 0-2.388.514-2.893 1.364h-.11V7.777h-2.497v11.68h2.497v-3.703h.11c.502.85 1.527 1.364 2.893 1.364 2.563 0 4.595-2.127 4.595-4.802 0-2.672-2.032-4.8-4.595-4.8zm-.505 7.291a2.477 2.477 0 01-2.498-2.491 2.469 2.469 0 012.498-2.492c1.434 0 2.524 1.09 2.524 2.492s-1.104 2.491-2.524 2.491zm56.358-6.605c-1.429 0-2.547.55-3.227 1.505h-.112c.186-1.727 1.148-2.566 3.219-2.866l3.625-.533V3.972l-3.866.558c-3.57.506-5.284 2.428-5.284 5.891 0 2.505.159 3.297.599 4.244.69 1.52 2.404 2.453 4.475 2.453 2.789 0 4.942-2.011 4.942-4.644-.003-2.533-1.781-4.272-4.371-4.272zm-.598 6.594c-1.42 0-2.47-.986-2.47-2.322 0-1.35 1.035-2.336 2.47-2.336 1.406 0 2.444.986 2.444 2.336 0 1.336-1.051 2.322-2.444 2.322zM35.658 5.035l-2.81 5.76-3.831-5.76H26.03l5.56 8.338-.154.316c-.24.506-.557.778-1.29.778H28.18v2.4h2.245c1.713 0 2.405-.442 3.12-1.895l4.916-9.94h-2.804v.003zm27.139 2.753l-.426 5.644c-.066.883-.358 1.205-1.05 1.205h-.611v2.297h1.489c1.674 0 2.417-.777 2.538-2.4l.328-4.385h3.07v6.708h2.525v-9.07h-7.863zm14.371 2.063a2.45 2.45 0 012.219 1.364l2.232-.855c-.623-1.725-2.39-2.842-4.503-2.842-2.83 0-4.967 2.075-4.967 4.802 0 2.725 2.14 4.803 4.967 4.803 2.112 0 3.88-1.117 4.503-2.842l-2.232-.855a2.454 2.454 0 01-2.219 1.364c-1.42 0-2.445-1.025-2.445-2.467 0-1.447 1.025-2.472 2.445-2.472zm12.336-2.077l-3.877 5.766V7.774H83.13v9.083h2.762l3.852-5.725v5.725h2.498V7.774h-2.738zM56.948 8.877h-.109c-.502-.85-1.527-1.364-2.893-1.364-2.563 0-4.596 2.127-4.596 4.802 0 2.672 2.033 4.802 4.596 4.802 1.366 0 2.388-.514 2.893-1.363h.11v1.102h2.497V7.774h-2.498v1.103zm-2.494 5.93c-1.42 0-2.524-1.09-2.524-2.492s1.09-2.491 2.524-2.491a2.469 2.469 0 012.497 2.491 2.479 2.479 0 01-2.497 2.492zm-35.462-3.592c0-3.289-1.762-6.18-4.41-7.827l.036 2.233c1.573 1.375 2.57 3.375 2.57 5.594 0 1.014-.212 1.98-.587 2.864a9.484 9.484 0 01-2.456-3.922c-.61-1.85-.751-3.875-.773-6.35l.003-1.063a9.56 9.56 0 00-1.703-.561l.003 1.622c.058 8.543 1.514 12.065 3.68 14.712 2.216-1.7 3.637-4.338 3.637-7.302 0 .003 0 .003 0 0zM7.32 3.806l.002-1.622a9.562 9.562 0 00-1.702.561l.003 1.064c-.025 2.472-.164 4.5-.774 6.35a9.473 9.473 0 01-2.456 3.921 7.322 7.322 0 01-.587-2.863c0-2.222.994-4.22 2.57-5.594l.036-2.233C1.762 5.034 0 7.925 0 11.214v.003c0 2.963 1.423 5.602 3.636 7.302 2.172-2.644 3.626-6.17 3.683-14.713zm3.028-3.27A10.463 10.463 0 009.498.5c-.261 0-.54.011-.852.036v1.92c0 8.41-.32 12.065-1.557 17.742a9.741 9.741 0 004.806.002c-1.23-5.635-1.547-9.29-1.547-17.745V.536z" fill="#3B175C"/></svg>