<svg width="95" height="16" viewBox="0 0 95 16" fill="none" xmlns="http://www.w3.org/2000/svg"><path d="M19.487.01H5.684v5.427h13.803V.01z" fill="url(#paint0_linear_7705_48103)"/><path d="M0 15.744V5.447L5.685 0v15.733H0v.01z" fill="url(#paint1_linear_7705_48103)"/><path d="M25.185 15.744V5.447L19.478 0v15.733h5.707v.01z" fill="url(#paint2_linear_7705_48103)"/><path d="M30.89 5.437h9.918v10.296h-2.853V8.118h-4.211v7.615H30.89V5.437zm19.635 0h2.854v10.296h-2.854V14.25a4.074 4.074 0 01-1.463 1.292 4 4 0 01-1.895.449c-2.8 0-4.885-2.211-4.885-5.394 0-3.183 2.042-5.447 4.948-5.447 1.306 0 2.6.577 3.295 1.634V5.437zm-.094 5.17c0-.353-.063-.705-.19-1.036a2.65 2.65 0 00-1.432-1.463 2.437 2.437 0 00-1.021-.214 2.696 2.696 0 00-1.842.833 2.768 2.768 0 00-.748 1.901c0 .705.274 1.389.769 1.89a2.626 2.626 0 001.853.812 2.65 2.65 0 001.863-.812 2.863 2.863 0 00.748-1.911zm11.486 5.137l-2.253-3.75h-1.569v3.75h-2.758V5.447h2.758v4.091h1.474l2.337-4.08h3.138l-3.032 5.073 3.39 5.202h-3.485v.01z" fill="#000"/><path d="M75.803 11.525H68.17c.295 1.207 1.274 1.922 2.6 1.922a3.47 3.47 0 001.464-.32 3.559 3.559 0 001.2-.897l1.643 1.698C74.119 15.23 72.36 16 70.58 16c-3.137 0-5.411-2.232-5.411-5.394 0-3.343 2.506-5.426 5.39-5.426 2.885 0 5.286 2.094 5.286 5.245.02.288 0 .651-.043 1.1zm-2.8-1.87c-.095-1.206-1.064-1.986-2.348-1.986-1.18 0-2.18.587-2.474 1.987h4.822zm12.655-4.218v2.702H82.51v7.616h-2.864V8.139h-3.148V5.448h9.16v-.011zm6.412-.022l-.579-1.004-.568 1.004h-.695l.895-1.484-.905-1.378h.726l.58.918.547-.918h.684l-.905 1.42.905 1.442h-.684zm2.928-.982c0 .63-.464 1.025-1.085 1.025a.824.824 0 01-.39-.053.863.863 0 01-.336-.214.81.81 0 01-.232-.331 1.43 1.43 0 01-.095-.395h.579a.47.47 0 00.18.32.49.49 0 00.336.107c.063 0 .126 0 .18-.022a.465.465 0 00.157-.106.5.5 0 00.095-.16c.01-.065.02-.118.01-.182a.356.356 0 00-.042-.182.35.35 0 00-.116-.16.531.531 0 00-.168-.096c-.063-.021-.127-.021-.19-.021a.626.626 0 00-.273.053.688.688 0 00-.211.182h-.526l.19-1.667h1.852l-.063.566h-1.327l-.053.556s.148-.171.558-.171a.96.96 0 01.38.053.89.89 0 01.316.214.944.944 0 01.21.32.702.702 0 01.064.364z" fill="#000"/><path d="M92.934 2.179C92.618.939 91.63.064 89.564.064h-2.483l.347 2.328c.263 2.094 1.053 2.756 2.432 3.012h.02c.011 0 .011 0 .011-.01 0-.011.011-.011.011-.011v-.021c0-.011 0-.011-.01-.022 0-.01-.011-.01-.021-.01-.948-.406-1.054-1.72-1.254-3.055l-.158-1.068h1.422c1.305 0 2.316-.022 2.969 1.014 0 .011.01.011.01.011h.032s.01 0 .01-.01l.01-.011c.022-.022.032-.022.022-.032z" fill="#5FAE2D"/><defs><linearGradient id="paint0_linear_7705_48103" x1="9.523" y1="2.913" x2="62.48" y2="40.491" gradientUnits="userSpaceOnUse"><stop stop-color="#00F0FF"/><stop offset="1" stop-color="#0184FF"/></linearGradient><linearGradient id="paint1_linear_7705_48103" x1="47.479" y1="14.535" x2="47.479" y2="1.343" gradientUnits="userSpaceOnUse"><stop stop-color="#0184FF"/><stop offset="1" stop-color="#2FAAF4"/></linearGradient><linearGradient id="paint2_linear_7705_48103" x1="47.618" y1="15.751" x2="47.618" y2=".97" gradientUnits="userSpaceOnUse"><stop offset=".17" stop-color="#0184FF"/><stop offset=".91" stop-color="#04BBE4"/></linearGradient></defs></svg>