<svg width="109" height="32" viewBox="0 0 109 32" fill="none" xmlns="http://www.w3.org/2000/svg"><path fill-rule="evenodd" clip-rule="evenodd" d="M94.7 5.967h2.612v9.703h-2.613v-3.722h-5.332v3.722h-2.612V5.967h2.612V9.94H94.7V5.967zm11.688 0H109v9.703h-2.612v-3.722h-5.332v3.722h-2.612V5.967h2.612V9.94h5.332V5.967zM32.197 7.812H28.92V5.967h9.194v1.845h-3.288v7.858h-2.63V7.812z" fill="#231F20"/><path fill-rule="evenodd" clip-rule="evenodd" d="M43.714 5.849c4.718 0 6.095 3.025 6.095 4.974 0 1.963-1.205 5.024-6.095 4.97-5.202-.037-6.266-3.007-6.266-4.97 0-1.968 1.444-4.974 6.266-4.974zm0 8.135c2.513-.018 3.496-1.704 3.496-3.18 0-1.462-1.1-3.179-3.496-3.179-2.39 0-3.631 1.722-3.631 3.18 0 1.476.74 3.21 3.631 3.18zM26.634 9.88c-.207-1.58-2.066-2.19-3.423-2.19-2.495 0-3.46 1.807-3.46 3.092 0 1.285.965 3.266 3.46 3.266 1.272 0 3.252-.556 3.514-2.45h2.549c0 2.782-3.082 4.153-6.163 4.153-2.702 0-5.905-1.339-5.905-4.832 0-3.53 2.928-5.025 5.905-5.025 2.342 0 5.887.748 6.284 3.982h-2.76v.004zm31.543-3.913h3.234l-4.439 3.826 4.786 5.877h-3.41l-3.442-4.191-1.998 1.667v2.524h-2.635V5.967h2.634v4.364l5.27-4.364zm12.496 0h3.618v9.703h-2.617V8.8h-.036l-2.91 6.87h-1.376l-2.964-6.783h-.013v6.783h-2.617V5.967h3.632l2.703 6.017 2.58-6.017z" fill="#231F20"/><path fill-rule="evenodd" clip-rule="evenodd" d="M80.11 8.33l-1.687 3.582h3.496L80.11 8.33zm2.856 5.617h-5.508l-.794 1.723h-2.378l4.75-9.703h2.77l4.94 9.703h-2.928l-.852-1.723zm-79.23-3.229c0-1.549 1.245-2.81 2.783-2.81a2.798 2.798 0 011.976.825c.525.527.82 1.24.821 1.985 0 1.549-1.263 2.824-2.797 2.824-1.534.005-2.784-1.27-2.784-2.824z" fill="#231F20"/><path fill-rule="evenodd" clip-rule="evenodd" d="M9.198 0L0 6.273v8.91s8.445 5.72 9.045 6.135C8.873 21.436 0 27.449 0 27.449V32l9.198-6.255v-8.859S.632 11.01.19 10.7c.172-.105 9.01-6.136 9.01-6.136V0z" fill="#231F20"/></svg>