<svg width="97" height="16" viewBox="0 0 97 16" fill="none" xmlns="http://www.w3.org/2000/svg"><g clip-path="url(#clip0)"><path d="M39.164 11.089c-.554.317-1.345.475-1.978.475-2.136 0-3.64-1.505-3.64-3.485 0-2.06 1.662-3.565 3.72-3.565.711 0 1.344.159 1.819.397v1.267c-.554-.317-1.187-.555-1.899-.555-1.424 0-2.453 1.11-2.453 2.456 0 1.346 1.029 2.376 2.453 2.376.791 0 1.424-.238 1.899-.634l.079 1.268zm1.741-6.416h1.186v.95c.475-.633 1.187-1.03 1.978-1.03.159 0 .317 0 .475.08V5.86c-.158-.08-.316-.08-.475-.08-.95 0-1.582.476-1.978 1.189v4.356h-1.186V4.673zm5.617 3.723c.158 1.346 1.187 2.06 2.453 2.06.95 0 1.661-.397 2.294-.793v1.346c-.633.397-1.503.634-2.373.634-2.057 0-3.64-1.426-3.64-3.485 0-2.139 1.503-3.485 3.323-3.485 1.662 0 3.086 1.109 3.086 3.247 0 .238 0 .476-.08.634h-5.063v-.158zm0-.95h3.956c-.08-1.347-1.108-1.823-1.899-1.823-.87 0-1.82.555-2.057 1.822zm9.969-2.932a4.3 4.3 0 011.582.317V.951h1.266v10.375h-1.186v-.396a3.372 3.372 0 01-1.9.555c-1.82 0-3.243-1.347-3.243-3.406-.08-1.98 1.424-3.565 3.481-3.565zm-.08 5.941c.634 0 1.267-.238 1.742-.554V6.019a3.674 3.674 0 00-1.662-.396c-1.424 0-2.294 1.11-2.294 2.456 0 1.346.79 2.376 2.215 2.376zm5.697-8.95c.475 0 .87.396.87.87a.879.879 0 01-.87.872.879.879 0 01-.87-.871c0-.475.396-.871.87-.871zm-.633 3.168h1.187v6.733h-1.187V4.673zm3.956 4.357V5.781h-1.265v-1.11h1.266v-1.82l1.186-.239v2.06h1.978v1.109h-1.978v3.01c0 .792.159 1.584 1.029 1.584.316 0 .712-.159 1.028-.317v1.188c-.237.159-.712.238-1.186.238-.475 0-1.108-.159-1.504-.634-.395-.317-.553-.871-.553-1.822zm-57.44 2.93c-2.215 0-4.035-1.822-4.035-4.04 0-2.138 1.82-3.96 4.035-3.96 1.187 0 2.295.554 3.086 1.426l2.373-3.248c-3.164-2.93-8.07-2.851-11.076.238-3.165 3.089-3.165 8.158 0 11.327 2.452 2.455 6.092 3.01 9.02 1.584L8.86 11.88c-.316.079-.633.079-.87.079z" fill="#8EBF17"/><path d="M73.423 14.337h-2.058V4.673h2.058v.317c.395-.237.949-.475 1.582-.475 1.74 0 3.165 1.346 3.165 3.485s-1.504 3.564-3.481 3.564c-.554 0-.95-.079-1.266-.237v3.01zm1.028-4.515c1.108 0 1.662-.792 1.662-1.743 0-1.03-.633-1.822-1.583-1.822-.395 0-.791.159-1.107.397v2.93c.237.159.632.238 1.028.238zM79.515.95h2.057v10.377h-2.057V.95zm8.228 9.822c-.554.476-1.187.792-2.057.792-.791 0-1.345-.237-1.74-.633-.396-.475-.634-1.03-.634-2.06V4.673h2.058v3.802c0 .476.079.792.237.95.158.238.475.318.712.318.554 0 1.028-.317 1.345-.634V4.673h2.057v6.733h-2.057l.08-.634zm3.64-1.584c.949.555 1.978.792 2.61.792.554 0 .95-.158.95-.554 0-.555-.712-.475-1.74-.713-1.267-.317-1.979-.871-1.979-1.98 0-1.426 1.266-2.218 2.928-2.218.791 0 1.82.158 2.532.554v1.822c-.87-.475-1.9-.713-2.532-.713-.554 0-.87.159-.87.476 0 .475.712.475 1.74.712 1.266.317 2.057.792 2.057 1.98 0 1.506-1.266 2.298-3.006 2.298-.792 0-1.82-.159-2.611-.555l-.08-1.9zm-65.194-8C22.549-1.03 17.96 0 15.507 3.327l-4.668 6.89 2.532 3.803 1.582-2.139c.633 1.188 1.583 2.218 2.849 3.01 3.798 2.297 8.703 1.11 10.997-2.693 2.374-3.802 1.187-8.792-2.61-11.01zM22.074 11.96c-2.215 0-4.035-1.821-4.035-4.04 0-2.217 1.82-3.96 4.035-3.96 2.216 0 4.035 1.822 4.035 4.04s-1.82 3.96-4.035 3.96z" fill="#2D2F31"/></g><defs><clipPath id="clip0"><path fill="#fff" d="M0 0h97v16H0z"/></clipPath></defs></svg>