<svg width="68" height="16" viewBox="0 0 68 16" fill="none" xmlns="http://www.w3.org/2000/svg"><path d="M34.18 1.87h4.63l-3.526 12.217h-4.37l-1.486-5.982-1.443 5.982h-4.247L20.302 1.87h4.543l1.274 5.986 1.313-5.986h4.076l1.4 5.986 1.273-5.986zm21.099 0v8.566h3.863v3.655h-8.576V1.873l4.713-.004zM41.27 14.086h-4.796L40.55 1.87h5.176l3.95 12.218H45.09l-.467-1.869h-2.886l-.467 1.87zm1.103-4.57h1.614l-.764-3.575-.85 3.574zm25.511-8.27H.224V0h67.66v1.247zm.044.622V5.32h-2.803v8.767h-4.71V5.32h-2.76V1.87h10.273zM.224 1.83h5.86c3.436 0 6.196 1.87 6.196 6.15 0 4.2-2.677 6.108-6.24 6.108H.224V1.83zm7.303 6.15c0-2.037-.977-2.575-2.46-2.575H4.68v5.029h.384c1.483 0 2.46-.582 2.46-2.455h.003zm12.605-.997h-3.31v1.04h2.887v2.534h-2.886v1.04h3.31v2.491h-6.837v-9.6h6.836v2.495zM.224 14.752h67.66V16H.224v-1.247z" fill="#FEBD17"/></svg>