<svg width="77" height="24" viewBox="0 0 77 24" fill="none" xmlns="http://www.w3.org/2000/svg"><path d="M0 6.968h5.654c2.675 0 4.247 1.173 4.247 3.307 0 1.29-.775 2.228-1.76 2.698 1.221.399 2.183 1.36 2.183 2.956 0 2.252-1.737 3.589-4.505 3.589H0V6.968zm2.228 1.806v3.402h3.19c1.431 0 2.159-.61 2.159-1.712 0-1.08-.728-1.69-2.159-1.69h-3.19zm0 5.208v3.73h3.404c1.595 0 2.37-.75 2.37-1.876 0-1.102-.775-1.854-2.37-1.854H2.228zm11.59-.07c.165 2.346 1.69 3.8 4.06 3.8 1.993 0 3.12-1.008 3.917-2.462l1.712.892c-.822 1.924-2.674 3.589-5.63 3.589-3.777 0-6.357-2.534-6.357-6.452 0-3.8 2.534-6.521 6.123-6.521 3.66 0 6.1 2.37 6.148 6.147 0 .234 0 .633-.048 1.009h-9.925v-.002zm.07-1.806h7.578c-.141-1.971-1.595-3.332-3.824-3.332-2.087 0-3.472 1.314-3.754 3.332zm17.737-5.35c3.777 0 6.474 2.698 6.474 6.474 0 3.8-2.698 6.5-6.499 6.5-3.753 0-6.452-2.7-6.452-6.475.002-3.8 2.7-6.499 6.477-6.499zm-6.31.399v-.82c0-2.91 1.641-4.576 4.293-4.576 2.088 0 3.167.845 4.88.845 1.079 0 1.642-.563 1.642-1.924V0h2.228v.703c0 2.699-1.196 3.918-3.379 3.918-2.158 0-3.284-.845-4.95-.845-1.62 0-2.487.868-2.487 2.604v.775h-2.228zm6.31 10.558c2.44 0 4.223-1.784 4.223-4.481 0-2.674-1.784-4.458-4.223-4.458-2.44 0-4.224 1.784-4.224 4.48.001 2.675 1.784 4.459 4.224 4.459zm10.394-1.643l5.63-9.102h2.37v12.551H47.79v-9.103l-5.63 9.103h-2.37V6.968h2.229v9.102zm12.295 7.554l1.548-4.106L51.17 6.966h2.37l3.471 9.502 3.519-9.502h2.276l-6.288 16.656h-2.204v.002zM65.95 9.759v9.759h-2.11V6.968h3.4l3.215 9.923 3.238-9.923H77v12.551h-2.205V9.76l-3.308 9.759H69.26l-3.309-9.76z" fill="#101010"/></svg>