<svg width="78" height="14" viewBox="0 0 78 14" fill="none" xmlns="http://www.w3.org/2000/svg"><path d="M3.593 13.709c-.058.052-.198.078-.423.078H.376c-.301 0-.422-.13-.36-.388l2.257-9.501c.11-.466.284-.921.522-1.368.237-.445.543-.84.92-1.182A4.302 4.302 0 015.083.523C5.616.316 6.23.213 6.926.213h5.984c.158 0 .254.023.29.069.033.044.025.176-.027.396l-.52 2.191c-.04.169-.093.282-.16.34-.066.058-.172.087-.316.087h-4.86a1.73 1.73 0 00-.655.107c-.176.07-.315.157-.417.261-.103.104-.185.22-.241.35a2.299 2.299 0 00-.132.387l-.284 1.202h5.175c.158 0 .253.027.287.077.034.053.024.189-.028.408l-.48 2.017c-.07.297-.23.447-.479.447H4.888l-1.153 4.847c-.037.155-.084.258-.142.31zM21.067 7c.107-.504.179-.986.215-1.445.037-.459.01-.856-.08-1.193a1.488 1.488 0 00-.518-.804c-.254-.2-.611-.302-1.07-.302-.38 0-.739.098-1.073.292a3.197 3.197 0 00-.895.786c-.263.329-.49.714-.687 1.153-.197.44-.352.899-.465 1.377a10.4 10.4 0 00-.264 1.609c-.034.479 0 .883.106 1.212.105.33.287.585.545.766.26.182.612.272 1.059.272.432 0 .816-.1 1.153-.3.337-.2.63-.472.881-.815.253-.343.468-.74.647-1.192.18-.453.33-.924.446-1.417zm3.922-.02a13.1 13.1 0 01-1.051 2.928 7.896 7.896 0 01-1.636 2.211 6.708 6.708 0 01-2.29 1.396c-.878.323-1.874.485-2.989.485-1.063 0-1.949-.159-2.653-.475-.705-.317-1.235-.776-1.591-1.376-.356-.602-.553-1.336-.59-2.202-.037-.866.073-1.841.332-2.929a11.49 11.49 0 011.09-2.887 8.663 8.663 0 011.708-2.222A7.082 7.082 0 0117.594.493C18.446.164 19.384 0 20.407 0c1.064 0 1.947.164 2.648.493.702.33 1.24.799 1.616 1.406.373.608.582 1.343.627 2.201.044.861-.057 1.82-.309 2.88zm22.936 2.386c.089-.375.047-.682-.124-.921-.171-.239-.472-.36-.903-.36H44.59l-.604 2.541h2.309c.262 0 .486-.039.675-.116a1.587 1.587 0 00.797-.718 1.96 1.96 0 00.159-.426zm-2.655-4.15h2.054c.26 0 .518-.065.77-.194.25-.13.422-.382.511-.757.07-.297.036-.523-.103-.678-.14-.156-.359-.233-.658-.233h-2.131l-.443 1.862zm5.175 1.164c.33.154.596.351.794.59.199.24.346.505.442.796.094.29.14.595.136.911-.002.317-.04.63-.114.94a4.824 4.824 0 01-.767 1.698c-.364.51-.807.95-1.328 1.319a6.198 6.198 0 01-1.726.852c-.633.201-1.29.3-1.972.3h-5.116c-.539 0-.863-.099-.973-.3-.108-.2-.11-.527-.003-.979l2.617-11.015c.1-.426.256-.745.465-.958.207-.215.581-.322 1.118-.322h5.118c.589 0 1.126.066 1.606.194.482.13.878.337 1.19.62.314.287.53.648.649 1.087.118.44.104.97-.044 1.59-.119.504-.373.992-.762 1.464a4.353 4.353 0 01-1.301 1.097l-.029.116zm11.748 7.407h-6.081c-.789 0-1.401-.11-1.84-.33-.44-.22-.76-.506-.956-.862a2.419 2.419 0 01-.298-1.194 5.52 5.52 0 01.151-1.3l1.474-6.204c.111-.465.285-.92.522-1.367.237-.445.544-.84.92-1.182a4.32 4.32 0 011.368-.825c.534-.207 1.149-.31 1.844-.31h5.806c.159 0 .254.023.289.069.036.044.026.177-.025.396l-.519 2.192c-.04.168-.095.28-.162.339-.066.058-.171.087-.315.087h-4.684a1.72 1.72 0 00-.655.107c-.175.07-.313.157-.416.262a1.124 1.124 0 00-.242.349c-.056.129-.1.258-.131.387l-.194.815h5.276c.158 0 .253.027.287.077.033.052.024.189-.03.408l-.478 2.016c-.071.297-.23.446-.48.446h-5.275l-.345 1.455c-.058.246-.076.44-.05.582a.505.505 0 00.17.32.7.7 0 00.342.136c.14.019.295.027.465.027h5c.157 0 .253.024.289.07.035.044.027.177-.025.396l-.521 2.193c-.07.296-.232.445-.48.445zM76.925 3.296H73.56L71.164 13.38c-.037.155-.085.262-.144.32-.063.058-.203.087-.426.087h-2.795c-.302 0-.42-.136-.354-.407L69.84 3.296h-3.288c-.275 0-.378-.148-.307-.445L66.76.678c.053-.22.113-.351.184-.397.07-.046.184-.068.34-.068h10.374c.156 0 .26.022.307.068.049.046.046.177-.006.397l-.515 2.173c-.072.297-.244.445-.52.445zM30.532 6.438l-1.683 6.942c-.036.155-.085.262-.145.32-.06.058-.201.087-.425.087h-2.793c-.303 0-.42-.135-.355-.407L27.95 1.746c.147-.607.347-1.016.601-1.222.252-.207.655-.31 1.206-.31h1.023c.197 0 .366.01.505.029.14.02.264.058.374.117a.924.924 0 01.302.261c.09.117.183.272.28.466l1.81 4.149.962 2.365h.138l1.69-6.98c.038-.155.087-.261.147-.32.06-.058.201-.087.423-.087h2.795c.302 0 .42.136.354.407l-2.818 11.634c-.106.44-.286.805-.54 1.096-.254.29-.677.436-1.267.436h-1.023c-.185 0-.349-.009-.495-.03a1.118 1.118 0 01-.385-.115 1.018 1.018 0 01-.31-.262 1.972 1.972 0 01-.273-.466l-1.788-4.071-.991-2.405h-.138z" fill="#D42A28"/></svg>