<svg width="84" height="22" viewBox="0 0 84 22" fill="none" xmlns="http://www.w3.org/2000/svg"><path d="M6.26.432h.348c.84 0 1.522.676 1.522 1.51 0 .833-.682 1.509-1.522 1.509H6.26c-.84 0-1.522-.676-1.522-1.51 0-.833.682-1.51 1.522-1.51zM.5 20.016v-1.553h2.456c0 .216.174.777.89.777.74 0 .957-.431.957-1.488V5.5h3.26v12.273c0 2.567-1.39 4.227-4.15 4.227C1.976 22 .89 21.137.5 20.015v.001zm8.83-7.743V5.5h3.282v6.169c0 1.272.479 2.135 1.74 2.135 1.543 0 2.042-1.122 2.042-2.179V5.5h3.282v10.893h-3.064l-.153-1.446c-.477.82-1.521 1.769-3.173 1.769-2.912 0-3.955-2.07-3.955-4.443zm15.788-4.12c-1.043 0-1.501.17-1.501.775 0 .582.5.563 1.39.713l1.392.194c2.108.302 3.564 1.1 3.564 3.193 0 2.156-1.717 3.688-4.672 3.688-3 0-4.5-1.445-4.76-2.157v-1.467h2.455c.087.324.826 1.251 2.347 1.251 1.26 0 1.696-.43 1.696-1.035 0-.69-.63-.949-1.674-1.122l-1.391-.172c-1.978-.259-3.282-1.23-3.282-3.257 0-2.092 1.457-3.344 4.239-3.344 1.17 0 1.78.087 3.13.087l2.107 2.653h-5.04z" fill="#DCDBD5"/><path d="M30.971 12.532V8.153h-2.92V5.5h2.964l.174-2.761h3.064v2.76h2.409v2.654h-2.41v4.271c0 1.1.37 1.596 1.219 1.596.869 0 1.043-.604 1.043-.841h2.347v1.467c-.457 1.143-1.587 2.071-3.652 2.071-2.695 0-4.238-1.574-4.238-4.185z" fill="#DCDBD5"/><path d="M40.215 8.153h-1.848V5.5h1.848V4.292C40.215 1.661 41.866 0 44.649 0c1.934 0 3.043.798 3.456 1.963v1.466H45.67c0-.172-.196-.669-1-.669-.783 0-1.174.475-1.174 1.51V5.5h3.5v2.653h-3.5v8.239h-3.281v-8.24l-.001.001zm15.218 2.761c0-1.596-.805-2.911-2.521-2.911-1.717 0-2.522 1.316-2.522 2.912 0 1.638.805 2.976 2.522 2.976 1.716 0 2.52-1.338 2.52-2.976zm-8.325 0c0-3.17 2.152-5.737 5.804-5.737 3.63 0 5.802 2.567 5.802 5.738 0 3.192-2.173 5.802-5.802 5.802-3.652 0-5.804-2.61-5.804-5.802zm20.803 0c0-1.596-.805-2.911-2.521-2.911-1.717 0-2.521 1.316-2.521 2.912 0 1.638.804 2.976 2.52 2.976 1.718 0 2.522-1.338 2.522-2.976zm-8.325 0c0-3.17 2.152-5.737 5.803-5.737 3.63 0 5.803 2.567 5.803 5.738 0 3.192-2.173 5.802-5.803 5.802-3.652 0-5.803-2.61-5.803-5.802zm20.653.021c0-1.596-1.043-2.825-2.608-2.825-1.695 0-2.608 1.25-2.608 2.846 0 1.575.913 2.826 2.608 2.826 1.565 0 2.608-1.229 2.608-2.847zm-8.498.022c0-3.257 1.934-5.78 4.956-5.78 1.587 0 2.76.669 3.542 1.79V.217H83.5v16.176h-3.043l-.196-1.552c-.717 1.142-2.02 1.876-3.63 1.876-3.086 0-4.89-2.589-4.89-5.76z" fill="#000"/></svg>