<svg width="45" height="34" viewBox="0 0 45 34" fill="none" xmlns="http://www.w3.org/2000/svg"><g clip-path="url(#clip0)" fill="#0D0802"><path d="M.023 33.874v-7.556h3.212c.464-.005.929.02 1.39.077.314.033.618.13.894.285.219.134.386.34.473.583.103.315.15.645.141.977a3.92 3.92 0 01-.058.741 1.626 1.626 0 01-.18.5 1.24 1.24 0 01-.305.348c-.13.1-.268.186-.414.259.147.073.289.158.423.253.13.09.241.207.327.341.097.155.167.327.204.506.051.242.075.489.07.736a2.79 2.79 0 01-.14.983 1.181 1.181 0 01-.485.594 2.327 2.327 0 01-.899.293c-.461.06-.926.088-1.39.083l-3.263-.003zm3.422-4.125c.343 0 .631-.012.864-.035.2-.013.393-.074.565-.177a.775.775 0 00.309-.435 2.85 2.85 0 00.093-.824 1.787 1.787 0 00-.111-.695.775.775 0 00-.35-.388 1.63 1.63 0 00-.625-.164 9.742 9.742 0 00-.934-.035h-2.4v2.753h2.589zm-.141 3.46c.366 0 .68-.006.94-.018.22-.002.435-.048.637-.135a.709.709 0 00.356-.383 1.99 1.99 0 00.111-.746 2.844 2.844 0 00-.106-.884.777.777 0 00-.333-.44 1.294 1.294 0 00-.589-.16 12.88 12.88 0 00-.876-.023H.863v2.79h2.44zm4.604.665v-7.556h5.608l-.117.672h-4.65v2.635h3.773v.672H8.749v2.894h4.767l-.117.683H7.908zm11.787-6.61a5.94 5.94 0 00-.432-.13 9.585 9.585 0 00-1.286-.24 6.38 6.38 0 00-.706-.042c-.694 0-1.22.1-1.577.3-.358.2-.539.566-.543 1.096-.005.194.009.387.04.578.024.126.09.24.187.323.13.098.28.166.439.2.193.052.463.111.806.183.435.093.874.179 1.313.253.41.066.812.176 1.199.33a2.3 2.3 0 01.88.606c.246.3.373.682.358 1.07a2.42 2.42 0 01-.223 1.113c-.14.278-.355.512-.618.677a2.552 2.552 0 01-.952.334 7.706 7.706 0 01-1.221.088 10.233 10.233 0 01-2.582-.347 3.245 3.245 0 01-.643-.229l.17-.331c.055-.101.117-.208.187-.317a6.874 6.874 0 001.132.341c.257.054.543.102.848.142.325.04.653.06.98.059.328 0 .623-.008.883-.023.231-.009.458-.065.667-.165a.949.949 0 00.423-.441c.109-.27.157-.562.142-.854a1.54 1.54 0 00-.082-.559.695.695 0 00-.269-.33 1.506 1.506 0 00-.502-.193c-.21-.048-.472-.102-.783-.165a69.002 69.002 0 01-1.671-.336 4.236 4.236 0 01-1.116-.377 1.417 1.417 0 01-.618-.611 2.307 2.307 0 01-.193-1.03 1.782 1.782 0 01.819-1.542 2.86 2.86 0 01.876-.382 4.15 4.15 0 011.058-.13c.272 0 .55.01.834.029a9.637 9.637 0 011.566.232c.203.045.401.111.59.199l-.38.621zm4.135 6.61V26.99h-2.65l.115-.671h6.181l-.117.67h-2.683v6.885h-.845zm3.529 0v-.854h.9v.854h-.9zm3.691-3.566v3.566h-.83v-7.556h5.225l-.118.672h-4.276v2.635h3.796v.683h-3.796zm5.514 3.566v-7.556h.847v7.556h-.847zm4.72 0V26.99h-2.651l.115-.671h6.181l-.117.67H42.13v6.885h-.846z"/><path d="M.023 33.874v-7.556h3.212c.464-.005.929.02 1.39.077.314.033.618.13.894.285.219.134.386.34.473.583.103.315.15.645.141.977a3.92 3.92 0 01-.058.741 1.626 1.626 0 01-.18.5 1.24 1.24 0 01-.305.348c-.13.1-.268.186-.414.259.147.073.289.158.423.253.13.09.241.207.327.341.097.155.167.327.204.506.051.242.075.489.07.736a2.79 2.79 0 01-.14.983 1.181 1.181 0 01-.485.594 2.327 2.327 0 01-.899.293c-.461.06-.926.088-1.39.083l-3.263-.003zm3.422-4.125c.343 0 .631-.012.864-.035.2-.013.393-.074.565-.177a.775.775 0 00.309-.435 2.85 2.85 0 00.093-.824 1.787 1.787 0 00-.111-.695.775.775 0 00-.35-.388 1.63 1.63 0 00-.625-.164 9.742 9.742 0 00-.934-.035h-2.4v2.753h2.589zm-.141 3.46c.366 0 .68-.006.94-.018.22-.002.435-.048.637-.135a.709.709 0 00.356-.383 1.99 1.99 0 00.111-.746 2.844 2.844 0 00-.106-.884.777.777 0 00-.333-.44 1.294 1.294 0 00-.589-.16 12.88 12.88 0 00-.876-.023H.863v2.79h2.44zm4.604.665v-7.556h5.608l-.117.672h-4.65v2.635h3.773v.672H8.749v2.894h4.767l-.117.683H7.908zm11.787-6.61a5.94 5.94 0 00-.432-.13 9.585 9.585 0 00-1.286-.24 6.38 6.38 0 00-.706-.042c-.694 0-1.22.1-1.577.3-.358.2-.539.566-.543 1.096-.005.194.009.387.04.578.024.126.09.24.187.323.13.098.28.166.439.2.193.052.463.111.806.183.435.093.874.179 1.313.253.41.066.812.176 1.199.33a2.3 2.3 0 01.88.606c.246.3.373.682.358 1.07a2.42 2.42 0 01-.223 1.113c-.14.278-.355.512-.618.677a2.552 2.552 0 01-.952.334 7.706 7.706 0 01-1.221.088 10.233 10.233 0 01-2.582-.347 3.245 3.245 0 01-.643-.229l.17-.331c.055-.101.117-.208.187-.317a6.874 6.874 0 001.132.341c.257.054.543.102.848.142.325.04.653.06.98.059.328 0 .623-.008.883-.023.231-.009.458-.065.667-.165a.949.949 0 00.423-.441c.109-.27.157-.562.142-.854a1.54 1.54 0 00-.082-.559.695.695 0 00-.269-.33 1.506 1.506 0 00-.502-.193c-.21-.048-.472-.102-.783-.165a69.002 69.002 0 01-1.671-.336 4.236 4.236 0 01-1.116-.377 1.417 1.417 0 01-.618-.611 2.307 2.307 0 01-.193-1.03 1.782 1.782 0 01.819-1.542 2.86 2.86 0 01.876-.382 4.15 4.15 0 011.058-.13c.272 0 .55.01.834.029a9.637 9.637 0 011.566.232c.203.045.401.111.59.199l-.38.621zm4.135 6.61V26.99h-2.65l.115-.671h6.181l-.117.67h-2.683v6.885h-.845zm3.529 0v-.854h.9v.854h-.9zm3.691-3.566v3.566h-.83v-7.556h5.225l-.118.672h-4.276v2.635h3.796v.683h-3.796zm5.514 3.566v-7.556h.847v7.556h-.847zm4.72 0V26.99h-2.651l.115-.671h6.181l-.117.67H42.13v6.885h-.846zM44.992 0H26.245v6.062h18.747V0zM29.995 16.189h-3.75v5.396h3.75v-5.396zm5.623-8.127h-9.373v5.463h9.373V8.062zm-13.281 5.286l-1.13-1.891-.422-.692.324-.568.847-1.508.298-.526v-5.68L19.31.001H0v5.475h14.997v2.76H0v13.35h19.317l3.163-2.375V13.59l-.143-.242zm-7.342 2.987H7.498v-3.22h7.499l-.002 3.22z"/></g><defs><clipPath id="clip0"><path fill="#fff" d="M0 0h45v34H0z"/></clipPath></defs></svg>