<svg width="100" height="18" viewBox="0 0 100 18" fill="none" xmlns="http://www.w3.org/2000/svg"><path d="M57.883 6.704a1.65 1.65 0 01.61-1.073 1.696 1.696 0 011.193-.36 1.509 1.509 0 011.105.458c.234.271.359.619.35.975a1.65 1.65 0 01-.611 1.072 1.696 1.696 0 01-1.193.361 1.743 1.743 0 01-1.164-.458c-.29-.344-.465-.631-.29-.975z" fill="#EC1C25"/><path d="M84.002 12.323a.972.972 0 000-.974 1.593 1.593 0 00-.989-.345 2.31 2.31 0 00-1.454.975 2.169 2.169 0 000 2.065v.172h.175c.49-.145.944-.387 1.334-.713a3.67 3.67 0 00.934-1.18zm-54.45.918a1.448 1.448 0 00.465 1.09 1.545 1.545 0 001.28.458c.486-.037.94-.252 1.273-.602.334-.35.523-.81.53-1.29a1.981 1.981 0 00-.348-.975 1.545 1.545 0 00-1.28-.459 2.019 2.019 0 00-1.298.535 1.964 1.964 0 00-.622 1.243zm29.145.344c-1.92 3.67-6.457 5.104-8.61 1.778-2.734 2.236-6.457 2.695-7.271-.172v-.172l-.175.172c-1.28 1.433-2.909 2.236-4.188 1.892-.815-.172-1.28-.975-1.455-2.064a10.99 10.99 0 00-.174-1.262c-.175-.459-.175-.803-.466-.975a.73.73 0 00-.814.172c-.25.186-.524.34-.814.459 0 1.261-1.164 2.867-2.618 3.498-1.63.63-3.723.344-4.712-1.262v-.172l-.175.172c-1.105 1.147-2.618 1.778-3.723 1.434a2.964 2.964 0 01-1.394-.643 2.904 2.904 0 01-.875-1.25c-.174-.458-1.28-3.497-1.28-3.497l-.174-.172-.175.172s-2.617 4.3-2.734 4.644a2.12 2.12 0 01-.621.641 2.17 2.17 0 01-.833.334 1.198 1.198 0 01-.614-.259 1.171 1.171 0 01-.375-.544c-.175-.458-1.92-5.447-2.094-5.447l-.175-.172-.174.172S9.25 15.993 8.9 16.337c-.16.255-.371.473-.622.641a2.17 2.17 0 01-.833.334c-.465 0-.814-.458-.989-.975 0-.171-.989-2.867-1.629-5.562C4.014 8.195 3.374 5.672 3.2 5.5c-.175-.46-.466-.803-.64-.803-.35 0-.64.344-.815.803a6.16 6.16 0 00-.465 2.236H0C.175 5.672.814 3.09 1.803 1.658c.266-.39.633-.702 1.063-.904a2.69 2.69 0 011.38-.243c.327.038.637.166.894.368.257.203.451.473.561.779.989 2.236 3.083 9.29 3.083 9.404l.175.344.174-.344s2.269-5.276 2.618-5.734c.107-.26.282-.487.507-.658a1.62 1.62 0 01.773-.317c.231.007.454.09.633.235s.304.345.356.567c.174.46 2.443 6.538 2.443 6.538l.175.344.174-.344s2.269-4.932 2.443-5.448a1.59 1.59 0 01.507-.658 1.62 1.62 0 01.773-.317c.338.055.653.203.91.426.258.223.446.512.544.836.175.344.64 1.777 1.28 3.326.64 1.892 1.455 3.842 1.455 4.128.11.334.337.619.64.803.349.172.988 0 1.628-.458a3.478 3.478 0 01.815-2.696 4.575 4.575 0 011.614-1.1 4.634 4.634 0 011.934-.333 3.482 3.482 0 011.894.417 3.417 3.417 0 011.364 1.36v.172l.175-.172a18.994 18.994 0 012.618-1.433 1.41 1.41 0 011.628 0 1.416 1.416 0 01.64.975l.175.458c.174.631.232 1.262.349 1.893a1.393 1.393 0 00.64.975 1.008 1.008 0 001.105-.345c.349-.171.64-.63.814-.802-.174-.631-.64-3.326-.64-3.326h3.258c.142 1.348.355 2.688.64 4.014a.908.908 0 00.465.803 1.372 1.372 0 001.164 0 6.239 6.239 0 002.094-1.147c-1.28-3.842-.465-9.29 1.63-11.526 1.279-1.434 3.257-1.434 3.897.458 1.163 3.04-.35 8.143-2.444 10.38 1.804 2.408 4.712.63 5.643-2.065l-.174-.975h3.257s.466 2.696.466 3.212c.174.974.465 1.146.814 1.146.815.173 1.92-1.146 3.083-3.325a2.875 2.875 0 00-.174-.975h3.083c0 .172.35 2.064.35 2.236 0 .344.174.459.348.459.226.004.448-.055.64-.172l1.28-1.262c.465-.458.814-.974.989-.974.349-.345.64-.46.989-.345.349 0 .465.172.814.631.175.172.99 1.606 1.454 2.409.12.286.277.555.466.802a2.413 2.413 0 001.287 1.236 2.462 2.462 0 001.796.026h.175v-.172a2.18 2.18 0 01-.175-2.064 4.946 4.946 0 012.269-2.58c1.163-.632 3.258-.632 4.072 0a1.49 1.49 0 01.749.87 1.452 1.452 0 01-.11 1.136.433.433 0 00-.115.23c-.466.802-1.63 1.605-2.91 2.236h-.174l.175.172c1.163.803 4.363.63 6.98-.803h.175v-.172c-.349-.459-2.269-3.842-2.269-3.842h3.55l1.279 2.409v.172h.174a10.637 10.637 0 002.91-2.409h1.919a23.097 23.097 0 01-4.189 3.326h-.174v.172c1.28 2.236 3.257 1.778 5.817.459.175.172.466.975.64 1.147-5.817 3.039-8.26 1.147-9.075 0h-.174c-6.632 3.039-9.541 1.433-10.355.802-1.804.631-5.178 1.893-6.981-.802-.35-.459-.466-.975-.64-1.147a.15.15 0 00-.104-.166.156.156 0 00-.07-.006c-.175-.172-.35-.344-.466-.344-.175 0-.35.172-.465.344-.35.344-2.095 2.408-2.27 2.58a1.39 1.39 0 01-.657.443 1.415 1.415 0 01-.796.016c-.466-.172-.64-.459-.815-1.147-.116-.803-.29-1.606-.465-2.408v-.344l-.175.344c-1.163 1.892-3.374 3.842-5.177 3.498-1.63-.574-2.27-1.72-2.618-3.785zm-6.806-1.778c1.803-2.064 2.443-6.078 1.629-7.798-.35-.631-.815-.631-1.106-.172-1.163.974-1.454 5.62-.523 7.97z" fill="#EC1C25"/></svg>