<svg width="80" height="20" viewBox="0 0 80 20" fill="none" xmlns="http://www.w3.org/2000/svg"><g clip-path="url(#clip0)"><path fill-rule="evenodd" clip-rule="evenodd" d="M5.607.165v4.262h3.355l.974 1.43.92 1.43.947 1.456.948 1.429V4.427h4.762V19.28H13.48l-.486-.662-.433-.662-.893-1.323-.866-1.377-.893-1.324-.027 1.298v4.05H.222l-.055-4.74V.19L.195.166h5.412zM.709.8v3.574l.216.211.217.24.243.21.298.186.325.16.378.105.19.027.19.026h.46l.297-.053.298-.08.27-.106.298-.132.243-.186.19-.184.162-.213.054-.105.027-.106.054-.423-.027-.45-.027-.477V.72L4.01.694H.79L.736.72.709.8zm4.925 4.156l-.027 3.416V18.75H9.34v-6.698l3.842 5.85.297.503.164.212.053.08.081.053.163.026.19.027h.432l.406-.053h1.976V4.956h-3.653v7.096l-1.164-1.774-1.136-1.774-1.164-1.8-.568-.873-.623-.875H5.634zM.709 18.696l1.082.054H4.01l1.055-.053V5.407l-.054-.027-.081.027-.081.053-.108.105-.082.08-.243.105-.244.107-.243.079-.27.079-.244.027-.271.026h-.541l-.27-.053-.271-.052-.244-.08-.243-.08-.244-.105-.216-.133-.217-.132-.19-.159v13.423zM33.316.165l-.298 1.985-.27 2.012.406-.079.432-.053.406-.027.38-.026h.405l.38.026.378.027.351.026.352.053.352.08.324.079.65.212.298.133.595.29.541.345.488.397.46.423.406.477.35.503.299.556.244.556.215.609.028-1.059V4.427h5.087v8.26l.027.477.027.45.081.397.054.185.082.159.108.159.108.106.108.132.163.08.135.052.163.053.297.027h.27l.298-.053.244-.106.243-.159.19-.159.135-.185.109-.212.053-.212.082-.264.027-.265.054-.609.027-.688-.027-.662v-.69l-.054-1.217V4.427h5.114V8.77l.162-.45.19-.476.216-.425.244-.397.27-.396.298-.371.325-.344.352-.292.379-.29.405-.265.433-.239.46-.211.488-.16.54-.132.541-.105.596-.08.65-.053h.621l.569.052.569.08.54.106.515.16.487.185.46.211.433.265.406.265.352.317.352.344.297.371.27.397.217.424.19.45.053-.795v-.82l-.027-.847.027-.82h4.898V9.51h2.435V4.427h4.926V19.28h-4.925v-5.93h-2.382l-.054 1.456v1.483l.028 1.509-.028 1.482h-4.898v-3.203l-.134.291-.163.291-.163.265-.189.265-.19.238-.433.477-.486.423-.271.185-.271.16-.595.317-.649.265-.352.08-.379.105-.378.08-.38.052-1.218.08-.405-.027-.433-.026-.379-.027-.406-.053-.379-.079-.379-.106-.703-.212-.325-.159-.298-.158-.27-.16-.244-.184-.46-.371-.405-.424-.38-.45-.35-.503-.299-.53-.27-.555-.217-.556-.054 1.032v1.06l.027 1.058v1.06H49.85v-1.06l-.678.424-.378.238-.38.185-.404.186-.46.159-.488.105-.514.053-.569.027-.567-.053-.488-.08-.486-.132-.433-.185-.407-.212-.35-.265-.326-.317-.298-.318-.27-.37-.216-.398-.19-.45-.162-.45-.136-.477-.108-.476-.054-.53-.19.53-.189.503-.244.476-.27.45-.298.45-.325.398-.351.37-.379.345-.866.582-.487.238-.541.212-.541.159-.596.132-.65.08-.676.026h-.676l-.65-.053-.595-.08-.595-.158-.541-.185-.488-.212-.486-.265-.433-.291-.407-.344-.352-.371-.324-.397-.325-.424-.27-.476-.217-.477-.217-.503-.188-.53-.028 1.033v3.177H22.68V5.01h-4.573l-.65-4.765V.19l.027-.026h15.831zM18.108.8l.244 1.827.243 1.8h3.518l1.136.026v10.75l.027 3.547h3.22l1.056-.053V4.427h4.546l.162-.9.135-.98.136-.953.109-.9H18.108l-.027.027.027.08zm13.854 4.263l-.324.132-.324.158-.298.186-.271.211-.271.239-.243.265-.46.529-.217.292-.216.29-.189.318-.163.318-.135.344-.135.345-.109.343-.108.344-.08.398-.082.423-.054.424-.055.45v.424l-.026.45.026.45.028.423.027.424.08.45.055.397.108.424.109.397.108.37.27.689.163.318.189.317.19.318.216.265.243.29.245.24.27.237.27.212.298.212.324.185.326.16.35.158.76.212.405.08.433.079.92.053h.432l.434-.053.811-.106.406-.106.758-.265.351-.159.326-.159.648-.423.298-.212.542-.53.298-.37.27-.397.27-.477.217-.476.189-.53.136-.53.135-.582.162-1.164.028-.61v-.582l-.055-.609-.054-.582-.081-.583L41 9.245l-.162-.53-.162-.475-.216-.45-.244-.45-.27-.398-.298-.397-.325-.37-.378-.318-.38-.292-.432-.265-.488-.237-.487-.186-.541-.16-.568-.104-.595-.08-.65-.027-.65.027-.352.026-.703.107-.297.105-.109.053-.053.053-.136.133-.216-.028-.136.028-.19.053zm29.117-.424l-.487.027-.487.052-.433.08-.433.105-.758.265-.352.16-.351.185-.325.211-.297.239-.271.237-.487.53-.217.291-.216.318-.19.344-.162.345-.162.344-.271.794-.108.397-.109.424-.053.423-.055.424-.054.45v.926l.028.45.026.45.082.477.08.45.11.45.107.371.136.37.135.345.189.344.162.344.433.636.244.29.27.265.271.265.298.238.298.212.324.186.325.158.38.16.351.105.432.106.433.08.434.052.46.053.432.027.92-.053.433-.027.433-.079.433-.106.406-.106.406-.132.379-.186.352-.185.324-.212.325-.238.38-.344.324-.37.27-.398.244-.45.217-.476.188-.53.136-.609.109-.635-.92-.133-.894-.132-1.84-.265-.189.61-.081.264-.136.265-.135.238-.324.424-.433.317-.244.106-.244.08-.243.053-.244.026-.243-.026h-.216l-.245-.053-.433-.16-.215-.105-.19-.106-.19-.132-.134-.16-.136-.132-.135-.185-.163-.291-.135-.37-.108-.398-.082-.424-.081-.45-.053-.503v-.953l.053-.503.054-.45.11-.45.134-.423.163-.371.189-.344.108-.132.135-.133.27-.212.244-.133.271-.105.298-.079.324-.053h.325l.351.026.352.08.326.131.243.133.217.185.162.213.162.237.109.265.134.292.19.608 1.84-.317.92-.186.433-.08.433-.104-.08-.583-.136-.53-.19-.53-.217-.476-.27-.424-.297-.423-.352-.345-.38-.344-.432-.29-.46-.265-.488-.212-.54-.159-.57-.132-.594-.08-.649-.052-.65.026zm-19.05 6.248l-.027 1.482v2.171l.081.689.108.635.054.291.11.291.08.239.108.238.136.238.135.212.162.212.19.212.379.37.215.186.217.132.244.159.487.212.542.158.27.027.433.026h.405l.407-.053.378-.079.352-.08.379-.132.324-.159.326-.159.595-.37.27-.212.244-.238.217-.239.215-.238.19-.238.162-.238v2.118h3.68l.055-6.884-.054-6.91h-3.95v4.686l.026 1.404v1.403l-.027.635-.082.61-.053.264-.054.238-.108.238-.082.186-.163.212-.188.185-.19.159-.243.132-.217.08-.271.052-.243.053h-.271l-.243-.026-.271-.053-.244-.08-.433-.264-.189-.16-.162-.184-.135-.239-.162-.423-.11-.53-.054-.53v-1.217l.028-.636.027-1.27V4.956h-3.95l-.055.054v5.877zM28.093 5.01v2.752l.028.874.216-.556.27-.555.298-.504.325-.476.351-.45.407-.397.433-.37.486-.318h-2.814zm40.022 10.35l.027 3.389h2.868l.92-.053v-4.421l.054-1.457h3.518v5.93h3.761l.027-3.415V5.01h-3.788v5.03h-.92l-.893.026-.92-.026-.866-.027V5.01h-3.788v10.35zm-5.79-6.645l-.272-.133-.297-.053-.325-.026-.325.026-.298.053-.27.107-.244.105-.189.16-.08.105-.11.106-.162.292-.108.343-.108.371-.081.423-.055.45v.927l.028.477.053.45.081.45.11.397.107.37.163.318.162.265.19.185.189.16.243.105.244.08.27.026h.298l.298-.026.27-.08.27-.106.217-.185.19-.212.162-.238.136-.291.08-.292.109-.317.19-.689 1.028.133 3.084.476v-3.415l-2.137.397-2.138.37-.135-.634-.081-.318-.082-.29-.271-.477-.19-.185-.216-.16z" fill="#70277A"/><path fill-rule="evenodd" clip-rule="evenodd" d="M34.426 7.948l.188-.026h.19l.406.026.352.106.352.158.324.186.271.212.217.265.188.318.11.265.107.317.081.344.081.37.028.398.053.794v.424l-.026.397-.027.423-.081.37-.055.372-.108.344-.108.318-.109.29-.162.239-.189.238-.244.238-.298.212-.324.16-.352.105-.19.053-.189.026h-.189l-.216-.026-.19-.027-.217-.026-.486-.212-.217-.159-.19-.159-.324-.423-.136-.238-.135-.265-.108-.265-.162-.582-.054-.318-.081-.662v-.715l.026-.82.055-.398.054-.37.081-.344.081-.318.136-.29.134-.266.109-.159.162-.185.162-.159.19-.16.217-.132.243-.132.27-.08.299-.052zM33.207 9.35l-.108.212-.08.265-.11.291-.053.318-.054.344-.028.37-.053.742.053.741.028.344.054.345.162.635.108.265.136.238.107.185.298.291.38.212.189.053.216.053.217.026h.405l.433-.105.19-.106.162-.133.19-.132.135-.185.135-.212.136-.265.108-.291.082-.318.053-.344.054-.37.027-.398.028-.397-.028-.768-.053-.74-.081-.319-.055-.317-.08-.265-.11-.239-.135-.211-.162-.186-.217-.158-.243-.132-.271-.133-.27-.053-.298-.053-.297.026-.217.053-.216.08-.19.08-.163.105-.162.132-.135.133-.108.133-.109.158z" fill="#70277A"/><path d="M10.992 8.504l-1.164-1.8-.568-.873-.623-.875H5.634l-.027 3.416V18.75H9.34v-6.698l3.842 5.85.298.503.163.212.053.08.081.053.164.026.188.027h.434l.405-.053h1.976V4.956h-3.653v7.096l-1.164-1.774-1.136-1.774zM32.26 3.527l.136-.98.135-.953.109-.9H18.109L18.08.72l.028.08.243 1.826.243 1.8h3.519l1.136.026v10.75l.026 3.547h3.221l1.055-.053V4.427h4.546l.162-.9zM5.066 3.024V.72L4.01.694H.79L.736.72.709.8v3.573l.216.211.217.24.243.21.298.186.325.16.379.105.19.027.189.026h.46l.297-.053.298-.08.27-.106.298-.132.244-.186.19-.184.161-.213.055-.105.027-.106.054-.423-.027-.45-.027-.477z" fill="#fff"/><path d="M4.93 5.407l-.08.053-.11.105-.08.08-.244.105-.243.107-.244.079-.27.079-.244.027-.27.026h-.542l-.27-.053-.271-.052-.244-.08-.243-.08-.244-.105-.216-.133-.217-.132-.189-.159v13.423l1.082.053h2.22l1.055-.053V5.407l-.054-.027-.082.027zm68.76 4.659l-.921-.027-.865-.026V5.01h-3.789v10.35l.027 3.389h2.869l.92-.053v-4.421l.054-1.457h3.517v5.93h3.762l.026-3.415V5.01h-3.788v5.03h-.92l-.892.026zm-7.983 3.627l-1.84-.265-.19.61-.08.264-.136.265-.136.238-.324.424-.433.317-.243.106-.245.08-.243.053-.243.026-.243-.027h-.217l-.244-.052-.433-.16-.216-.105-.19-.106-.19-.132-.134-.16-.136-.132-.135-.185-.162-.291-.136-.37-.108-.398-.082-.424-.08-.45-.054-.503v-.953l.053-.503.055-.45.108-.45.135-.423.163-.371.189-.344.109-.132.134-.133.271-.212.243-.133.271-.105.298-.079.324-.053h.326l.35.026.353.08.325.131.243.133.217.185.162.213.162.237.11.265.133.292.19.608 1.84-.317.92-.186.433-.08.434-.104-.082-.583-.135-.53-.19-.53-.216-.476-.27-.424-.298-.423-.352-.345-.379-.344-.433-.29-.46-.265-.487-.212-.541-.159-.569-.132-.595-.08-.649-.052-.65.026-.487.027-.486.052-.434.08-.433.105-.757.265-.352.16-.352.185-.325.211-.297.239-.271.237-.487.53-.216.291-.217.318-.19.344-.162.345-.162.344-.271.794-.108.397-.108.424-.054.423-.054.424-.055.45v.926l.028.45.027.45.08.477.082.45.109.45.107.371.136.37.135.345.19.344.161.344.433.636.245.29.27.265.27.265.298.238.298.212.324.186.326.158.378.16.352.105.433.106.433.08.433.052.46.053.433.027.92-.053.432-.027.434-.079.433-.106.405-.106.407-.132.378-.186.352-.185.325-.212.324-.238.38-.344.324-.37.271-.398.243-.45.217-.476.189-.53.135-.609.109-.635-.92-.133-.893-.132zm-24.49-3.309l-.08-.583L41 9.245l-.162-.53-.163-.476-.216-.45-.243-.45-.271-.397-.298-.397-.324-.37-.379-.318-.38-.292-.432-.265-.487-.237-.488-.186-.54-.16-.568-.104-.596-.08-.65-.027-.65.027-.351.026-.703.107-.298.105-.109.053-.053.053-.136.133-.216-.028-.135.028-.19.053-.325.132-.324.158-.298.186-.27.211-.272.239-.243.265-.46.529-.216.292-.217.29-.189.318-.163.318-.134.344-.136.345-.109.343-.107.344-.081.398-.082.423-.054.424-.054.45v.424l-.027.45.027.45.027.423.027.424.081.45.055.397.107.424.11.397.107.37.27.689.163.318.189.317.19.318.216.265.244.29.244.24.27.237.27.212.298.212.325.185.325.16.351.158.758.212.406.08.433.079.92.053h.433l.433-.053.812-.106.405-.106.759-.265.35-.159.326-.159.649-.423.297-.212.542-.53.298-.37.27-.397.27-.477.217-.476.19-.53.135-.53.135-.582.162-1.164.028-.61v-.582l-.054-.609-.055-.582zm-3.842 1.72l-.027.398-.027.423-.08.37-.055.372-.109.344-.108.317-.109.292-.162.238-.189.238-.244.238-.297.212-.325.16-.352.105-.189.053-.19.026h-.188l-.217-.026-.19-.027-.217-.026-.486-.212-.217-.159-.19-.159-.324-.423-.135-.238-.136-.265-.108-.265-.162-.582-.054-.318-.081-.662v-.715l.026-.82.055-.398.054-.37.081-.344.081-.318.136-.291.134-.265.11-.159.161-.185.163-.159.19-.16.216-.132.243-.132.271-.08.298-.052.189-.026h.19l.405.026.352.106.352.158.324.186.271.212.217.265.189.318.109.265.107.317.081.344.081.37.028.398.054.794v.424zm16.723-7.148h-3.95v4.686l.026 1.404v1.403l-.026.635-.082.61-.054.264-.054.238-.108.238-.082.186-.162.212-.189.185-.19.159-.243.132-.217.08-.27.052-.244.053h-.27l-.244-.026-.271-.053-.243-.08-.434-.264-.188-.16-.163-.184-.135-.239-.162-.423-.109-.53-.054-.53v-1.217l.027-.636.027-1.27V4.956h-3.95l-.055.054v5.877l-.027 1.482v2.171l.082.689.107.635.055.291.108.291.082.239.107.238.136.238.135.212.163.212.188.212.38.37.216.186.216.132.245.159.486.212.542.158.27.027.433.026h.405l.407-.053.379-.079.352-.08.378-.132.325-.159.325-.159.595-.37.27-.212.244-.238.217-.239.216-.238.19-.238.162-.238v2.118h3.68l.055-6.884-.055-6.91z" fill="#fff"/></g><defs><clipPath id="clip0"><path fill="#fff" d="M0 0h80v20H0z"/></clipPath></defs></svg>