<svg width="82" height="30" viewBox="0 0 82 30" fill="none" xmlns="http://www.w3.org/2000/svg"><g clip-path="url(#clip0_2864_41)" fill="#E2001A"><path d="M37.71 27.639h-2.309c-.077 0-.115-.078-.115-.116v-7.007a.663.663 0 000-.387c-.116-.658-.731-1.084-1.386-1.006-.654.116-1.077.735-1 1.393v8.749c0 .348.27.658.654.696h4.271a1.124 1.124 0 001.04-1.2c0-.735-.5-1.161-1.155-1.122zm-8.35-7.936l-6.157 8.361c-.154.194-.23.426-.23.697 0 .349.153.736.5.93a1.18 1.18 0 001.577-.233l1.193-1.626h2.886v.93c.038.657.577 1.16 1.193 1.122a1.12 1.12 0 001.116-1.123v-8.284c0-.348-.154-.696-.385-.89-.5-.464-1.27-.426-1.693.116zm-.27 5.768h-1.077c-.038 0-.077-.039-.077-.078l1.155-1.587v1.665zm-3.116-4.955c0-.62-.5-1.122-1.078-1.122-.308 0-.615.116-.808.31l-2.616 2.748c-.039.038-.077.038-.116.038-.038 0-.077 0-.077-.038l-2.616-2.749a1.197 1.197 0 00-.808-.348c-.616 0-1.078.503-1.078 1.084 0 .27.115.58.27.774l3.193 3.677.039 3.871c0 .62.5 1.123 1.116 1.123a1.12 1.12 0 001.116-1.123l.076-3.832 3.117-3.677c.193-.233.27-.504.27-.736zm-13.507-1.161c-2.886 0-5.233 2.361-5.233 5.264 0 2.904 2.347 5.265 5.233 5.265 2.886 0 5.234-2.4 5.234-5.303 0-2.826-2.348-5.188-5.234-5.226zm0 8.052c-1.577 0-2.809-1.24-2.809-2.826 0-1.587 1.232-2.826 2.81-2.826 1.577 0 2.808 1.239 2.808 2.826s-1.231 2.826-2.809 2.826zm55.219-8.284c-.578.038-1.04.503-1.04 1.045v4.916c0 .039-.038.077-.076.077-.039 0-.039 0-.039-.038l-2.847-5.071c-.424-.775-1.424-1.007-2.155-.542-.423.27-.731.774-.77 1.277v8.052c.039.658.616 1.122 1.193 1.084a1.162 1.162 0 001.078-1.084v-4.916c0-.04.038-.078.076-.078.039 0 .039 0 .039.039l2.924 5.187c.385.735 1.309.968 2.04.58.5-.27.77-.774.77-1.277v-8.168c-.039-.619-.54-1.122-1.193-1.083zM5.387 25.587c.924-.58 1.54-1.587 1.5-2.67v-.04c.04-1.896-1.5-3.483-3.385-3.522-.924-.078-1.886.232-2.54.89C.231 20.981 0 21.91 0 22.916l.154 5.845c0 .62.5 1.123 1.116 1.123a1.12 1.12 0 001.116-1.123l.038-2.787c0-.077.039-.116.116-.116h.077l2.732 3.755c.192.194.423.27.73.27.616 0 1.078-.502 1.117-1.083 0-.155-.039-.31-.116-.503l-1.693-2.71zm-1.962-1.626h-.193c-.654-.038-1.077-.62-1.039-1.2a1.118 1.118 0 011.193-1.045h.193c.654.039 1.077.62 1.039 1.2-.039.62-.616 1.2-1.193 1.045zm46.521 2.4a1.51 1.51 0 00-.538.116l-.924.62a2.83 2.83 0 01-1.5.426c-1.617-.078-2.81-1.471-2.733-3.02.078-1.51 1.232-2.67 2.733-2.748.538 0 1.038.155 1.5.426l.885.619c.154.077.308.116.539.116a1.12 1.12 0 001.116-1.122c0-.233-.077-.542-.27-.736a4.719 4.719 0 00-3.616-1.665c-2.886 0-5.234 2.362-5.234 5.265 0 2.787 2.155 5.11 4.926 5.265 1.5 0 2.886-.62 3.925-1.704.153-.193.269-.425.23-.735.116-.62-.423-1.123-1.038-1.123zm21.395-7.277c-.692 0-1.193.58-1.193 1.2v8.477c0 .697.578 1.2 1.193 1.2.693 0 1.193-.58 1.193-1.2v-8.477c0-.658-.5-1.2-1.193-1.2zm-17.508.58a1.34 1.34 0 00-.924-.387c-.692 0-1.192.31-1.192 1.007v8.477c0 .658.538 1.123 1.154 1.123.616 0 1.154-.503 1.193-1.123v-.929h2.886l1.193 1.626c.192.271.577.426.923.426a1.12 1.12 0 001.116-1.123c0-.232-.077-.503-.23-.697l-6.12-8.4zm1.385 5.73c0 .038-.038.077-.077.077h-1.077v-1.742l1.154 1.626c.039 0 .039 0 0 .038zm25.55-6.271c-.577.038-1.038.503-1.038 1.045v4.916c0 .039-.039.077-.077.077-.039 0-.039 0-.077-.038l-2.81-5.071c-.422-.775-1.423-1.007-2.154-.542-.423.27-.731.774-.77 1.277v8.052c0 .658.539 1.161 1.155 1.161.615 0 1.154-.542 1.154-1.161v-4.916c0-.04.039-.078.077-.078s.038 0 .038.039l2.925 5.187c.385.735 1.308.968 2.04.58.5-.27.769-.774.769-1.277v-8.168c-.077-.619-.616-1.122-1.231-1.083zm-29.706-5.42c-2.462-1.82-6.156-2.903-9.966-2.903-3.81 0-7.542 1.084-9.966 2.903-.23.155-.346.426-.346.736 0 .542.385.929.923.929.193 0 .385-.078.577-.194 1.655-1.239 4.849-2.555 8.89-2.555 4.04 0 7.195 1.316 8.85 2.555l.038.039c.385.27 1 .193 1.27-.232.23-.426.154-1.007-.27-1.278zm-9.966-.697c-3.54 0-6.888 1.046-8.965 2.787h-.039a.706.706 0 00-.077.89c.115.156.27.233.5.233.154 0 .27-.039.385-.155 1.847-1.548 4.925-2.516 8.158-2.516 3.232 0 6.272.93 8.157 2.516.27.233.693.194.885-.077.231-.271.193-.697-.077-.89-2.077-1.704-5.425-2.788-8.927-2.788zM29.63 6.31c.27-1.123-.385-2.245-1.539-2.594a2.258 2.258 0 00-.539-.077 2.075 2.075 0 00-2.077 2.09c0 1.161.923 2.09 2.077 2.09 1.04.078 1.847-.58 2.078-1.51zm11.466 3.25a2.075 2.075 0 002.078-2.09c0-1.161-.923-2.09-2.078-2.09a2.075 2.075 0 00-2.078 2.09c0 1.161.885 2.09 2.078 2.09zm0-5.342a2.075 2.075 0 002.078-2.09C43.174.968 42.251 0 41.096 0a2.075 2.075 0 00-2.078 2.09c-.038 1.2.885 2.13 2.078 2.13zM34.94 6.116c-1.116.31-1.77 1.51-1.463 2.632.231.89 1.078 1.51 2.001 1.549h.039c.154 0 .346-.039.538-.078 1.116-.31 1.77-1.47 1.501-2.593a2.105 2.105 0 00-2.04-1.587c-.23 0-.384.038-.576.077zm-2.617 4.761c.27-1.122-.385-2.322-1.54-2.593a2.26 2.26 0 00-.538-.078c-.346 0-.731.117-1.078.271a1.99 1.99 0 00-.962 1.278 2.008 2.008 0 00.231 1.626c.347.658 1.04 1.006 1.809 1.045.346 0 .77-.078 1.077-.271.5-.271.885-.736 1-1.278zm13.814-.696c.192.038.346.077.577.077 1.155 0 2.078-.968 2.078-2.09 0-.968-.654-1.78-1.54-2.013-.192-.039-.345-.078-.576-.078-1.155 0-2.078.968-2.078 2.13-.039.89.616 1.741 1.539 1.974zm1.385-5.11c.154.039.347.077.578.077 1.154 0 2.077-.967 2.077-2.09 0-.968-.654-1.78-1.539-2.013-.192-.039-.346-.077-.577-.077-1.154 0-2.078.967-2.078 2.129 0 .851.654 1.703 1.54 1.974zm5.464 3.445c-.307-.193-.692-.27-1.039-.27a2.075 2.075 0 00-2.078 2.09c0 .154.039.348.078.541.115.542.5 1.007.961 1.278 1.001.62 2.31.232 2.886-.774.27-.504.347-1.046.231-1.626-.23-.465-.577-.93-1.039-1.239zm3.656-3.251c-.116-.542-.5-1.007-.962-1.278-1-.62-2.309-.232-2.886.774a2.367 2.367 0 00-.23 1.626c.115.542.5 1.007.961 1.278 1 .619 2.309.27 2.886-.736.308-.542.385-1.2.23-1.664zm-22.51-.117c.192 0 .384-.038.577-.077 1.115-.31 1.77-1.51 1.5-2.594a2.059 2.059 0 00-2-1.548c-.193 0-.347.039-.578.077-1.116.31-1.77 1.51-1.5 2.594a2.069 2.069 0 002 1.548z"/></g><defs><clipPath id="clip0_2864_41"><path fill="#fff" d="M0 0h82v30H0z"/></clipPath></defs></svg>