<svg width="75" height="40" viewBox="0 0 75 40" fill="none" xmlns="http://www.w3.org/2000/svg"><path d="M1.554 15.153H0v9.341h5.698v-1.45H1.554v-7.891zm31.01 0H31.15v9.341h5.18v-1.45h-3.767v-7.891zM8.797 20.564h3.54v-1.451h-3.54v-2.48h4.087v-1.48H7.251v9.34h5.698v-1.45H8.796v-2.48.001zm16.36 0h3.219v-1.451h-3.22v-2.48h3.717v-1.48h-5.12v9.34h5.178v-1.45h-3.774v-2.48.001zm-5.877-.54l-.757 2.24-.938-2.572-2.057-4.54h-1.543l4.63 10.38 4.175-10.38h-1.543l-1.967 4.873zm33.099-4.871c-2.61 0-4.83 2.099-4.83 4.67 0 2.573 2.31 4.671 5.01 4.671 2.61 0 4.83-2.099 4.83-4.67 0-2.572-2.28-4.671-5.01-4.671zm.18 7.922c-1.92 0-3.57-1.448-3.57-3.251 0-1.804 1.56-3.252 3.39-3.252 1.92 0 3.57 1.448 3.57 3.251 0 1.804-1.56 3.252-3.39 3.252zM75 23.043h-4.152v-2.48h3.573v-1.45h-3.573v-2.48h4.12v-1.48h-5.666v9.34H75v-1.45zm-9.288-1.46l-1.74-1.925-5.029-5.024v9.808h1.55v-6.288l1.613 1.835 5.125 5.025v-9.899h-1.519v6.47-.001z" fill="#000"/><path d="M45.613 0l-9.666 14.64 2.044-.51L45.613 0z" fill="url(#paint0_linear_7705_48030)"/><path d="M29.21 17.499l11.188-1.619-1.261-.758-9.927 2.377z" fill="url(#paint1_linear_7705_48030)"/><path d="M39.679 13.709l1.101.787-.42 1.386-1.26-.759.579-1.414z" fill="url(#paint2_linear_7705_48030)"/><path d="M41.905 15.662l.594-.088.695-1.4-2.68.627 1.39.86z" fill="url(#paint3_linear_7705_48030)"/><path d="M53.222 12.803l-2.086-1.924L30.399 40l22.823-27.197z" fill="url(#paint4_linear_7705_48030)"/><path d="M51.136 10.878L30.399 40l12.81-25.826-2.681.627.435-1.4 10.173-2.522zm-12 4.244l.58-1.414-3.753.933L45.643 0l-7.999 2.785L29.21 17.5l9.927-2.377z" fill="url(#paint5_linear_7705_48030)"/><defs><linearGradient id="paint0_linear_7705_48030" x1="42.653" y1="9.115" x2="40.051" y2="6.66" gradientUnits="userSpaceOnUse"><stop offset=".107" stop-color="#F0A120"/><stop offset=".995" stop-color="#9D5B48"/></linearGradient><linearGradient id="paint1_linear_7705_48030" x1="37.284" y1="19.052" x2="32.885" y2="14.9" gradientUnits="userSpaceOnUse"><stop offset=".107" stop-color="#F0A120"/><stop offset=".995" stop-color="#9D5B48"/></linearGradient><linearGradient id="paint2_linear_7705_48030" x1="40.971" y1="15.705" x2="38.942" y2="14.183" gradientUnits="userSpaceOnUse"><stop offset=".107" stop-color="#F0A120"/><stop offset=".995" stop-color="#9D5B48"/></linearGradient><linearGradient id="paint3_linear_7705_48030" x1="43.821" y1="15.279" x2="40.387" y2="14.318" gradientUnits="userSpaceOnUse"><stop offset=".107" stop-color="#F0A120"/><stop offset=".995" stop-color="#9D5B48"/></linearGradient><linearGradient id="paint4_linear_7705_48030" x1="42.512" y1="27.067" x2="39.446" y2="24.174" gradientUnits="userSpaceOnUse"><stop offset=".107" stop-color="#F0A120"/><stop offset=".995" stop-color="#9D5B48"/></linearGradient><linearGradient id="paint5_linear_7705_48030" x1="25.74" y1="26.591" x2="54.606" y2="8.672" gradientUnits="userSpaceOnUse"><stop offset=".097" stop-color="#E5BF21"/><stop offset="1" stop-color="#FFD757"/></linearGradient></defs></svg>