<svg width="120" height="24" viewBox="0 0 120 24" fill="none" xmlns="http://www.w3.org/2000/svg"><path d="M11.81 1.328c2.077 0 4.107.626 5.834 1.8a10.637 10.637 0 013.868 4.789 10.833 10.833 0 01.598 6.165 10.727 10.727 0 01-2.874 5.465 10.418 10.418 0 01-7.408 3.062 10.42 10.42 0 01-7.383-3.126 10.76 10.76 0 01-3.076-7.502 10.763 10.763 0 013.014-7.528 10.425 10.425 0 013.405-2.318 10.29 10.29 0 014.022-.807zm0-.806c-2.235 0-4.418.673-6.276 1.935a11.44 11.44 0 00-4.16 5.15A11.65 11.65 0 00.73 14.24a11.536 11.536 0 003.091 5.877 11.24 11.24 0 005.784 3.141c2.191.443 4.462.216 6.526-.653a11.336 11.336 0 005.07-4.227 11.64 11.64 0 001.044-10.77 11.49 11.49 0 00-2.45-3.723 11.286 11.286 0 00-3.664-2.488A11.14 11.14 0 0011.81.522z" fill="#3BAD6A"/><path d="M11.81.331c2.27 0 4.491.685 6.38 1.967a11.631 11.631 0 014.229 5.237 11.845 11.845 0 01.654 6.741 11.728 11.728 0 01-3.143 5.975 11.428 11.428 0 01-5.88 3.193c-2.228.45-4.537.22-6.635-.663a11.526 11.526 0 01-5.154-4.298A11.803 11.803 0 01.326 12a11.777 11.777 0 013.367-8.247A11.404 11.404 0 0111.81.33zm0-.331C9.473 0 7.19.704 5.248 2.022a11.96 11.96 0 00-4.35 5.386 12.18 12.18 0 00-.672 6.933 12.061 12.061 0 003.232 6.144 11.753 11.753 0 006.047 3.284c2.29.463 4.665.226 6.823-.682a11.852 11.852 0 005.3-4.42A12.137 12.137 0 0023.619 12c0-3.183-1.244-6.235-3.459-8.485A11.715 11.715 0 0011.81 0z" fill="#CEE1B0"/><path d="M10.525 7.376A3.015 3.015 0 009.13 7.01H6.703a.348.348 0 00-.26.104.359.359 0 00-.104.264v9.85c0 .1.039.195.108.265a.364.364 0 00.52 0 .376.376 0 00.107-.264v-4.557H9.13c.486-.007.965-.13 1.396-.359.924-.478 1.391-1.31 1.391-2.473 0-1.163-.469-1.993-1.39-2.465zm-.32 4.281c-.333.175-.701.27-1.076.278H7.074V7.756H9.13c.375.003.743.099 1.074.279.663.344.99.936.99 1.807 0 .87-.327 1.467-.988 1.815zm2.465 5.94a.34.34 0 01-.261-.103.352.352 0 01-.102-.266V9.855c0-1.156.471-1.985 1.398-2.462a3.04 3.04 0 011.305-.382h.321a.36.36 0 01.347.239.377.377 0 01.023.148.352.352 0 01-.229.34.337.337 0 01-.142.018h-.313c-.35.022-.69.122-.996.293-.66.347-.978.937-.978 1.806v2.08h1.58a.355.355 0 01.27.101.37.37 0 01.112.268.374.374 0 01-.237.347.36.36 0 01-.144.023h-1.58v4.554a.365.365 0 01-.107.268.35.35 0 01-.266.101z" fill="#62B56D"/><path d="M19.077 7.773v.49c.01 2.888-1.816 4.398-3.33 4.408h-.224a.364.364 0 01-.275-.098.375.375 0 01-.121-.27.365.365 0 01.254-.353 1.38 1.38 0 01.28-.017c1.362 0 2.595-1.145 2.67-3.493.02-.636-.016-.686-.424-.688h-1.73a.364.364 0 01-.255-.102.376.376 0 01.217-.643h2.192c.652.004.746.369.746.766z" fill="#CEE1B0"/><path d="M14.523 10.967a.268.268 0 01-.26-.207.27.27 0 01.032-.204c.785-1.311 2.394-1.817 2.467-1.836a.26.26 0 01.335.135c.052.122.03.299-.182.383-.014.006-1.49.478-2.161 1.6a.272.272 0 01-.23.13z" fill="#CEE1B0"/><path d="M29.406 15.713V7.137h.015c.22 0 .636 0 1.076-.011.492 0 1.015-.013 1.328-.013 2.855 0 3.283 1.73 3.283 2.762 0 1.342-.972 2.786-3.108 2.786-.254 0-.724 0-1.085-.037v3.089h-1.509zm1.515-4.545c.381.039.73.059 1.036.059.975 0 1.556-.51 1.556-1.365S33 8.545 31.97 8.545c-.275 0-.608.01-.96.02h-.09v2.603z" fill="#525252"/><path d="M29.42 15.698V7.152c.472 0 1.812-.025 2.404-.025 2.489 0 3.275 1.343 3.275 2.741 0 1.454-1.076 2.772-3.093 2.772-.254 0-.737 0-1.1-.037v3.09l-1.485.005zm1.487-7.143v2.626c.35.036.713.06 1.05.06.883 0 1.57-.433 1.57-1.379 0-.891-.543-1.33-1.558-1.33-.302 0-.664.013-1.062.023zm7.374 7.292c-1.757 0-2.94-1.164-2.94-2.896 0-1.705 1.19-2.895 2.892-2.895 1.474 0 2.588 1.103 2.588 2.566.01.256-.02.512-.086.76v.01h-3.93c.12.774.738 1.253 1.615 1.253a2.5 2.5 0 001.526-.497l.014-.012.41 1.017h-.007c-.511.443-1.274.694-2.082.694zm1.12-3.423a1.148 1.148 0 00-.308-.82 1.25 1.25 0 00-.922-.348c-.76 0-1.247.403-1.407 1.168h2.638z" fill="#525252"/><path d="M40.352 15.149c-.543.463-1.316.683-2.077.683-1.753 0-2.925-1.154-2.925-2.885 0-1.598 1.088-2.884 2.877-2.884 1.4 0 2.57 1.01 2.57 2.551.01.256-.018.511-.085.758h-3.925c.12.829.772 1.28 1.63 1.28a2.495 2.495 0 001.535-.5l.4.997zm-3.611-2.71h2.67c.012-.671-.447-1.196-1.245-1.196-.834-.002-1.28.476-1.425 1.197zm5.168 3.274V10.19h1.417v.507a1.397 1.397 0 011.23-.605c.473 0 .684.085.857.21h.009l-.506 1.345-.014-.01a1.134 1.134 0 00-.694-.205c-.405 0-.685.184-.88.576v3.696l-1.42.009z" fill="#525252"/><path d="M41.923 10.204h1.389v.537a1.385 1.385 0 011.245-.635c.446 0 .663.073.845.208l-.496 1.318a1.149 1.149 0 00-.7-.202.93.93 0 00-.538.153.947.947 0 00-.356.434v3.687h-1.39v-5.5zm4.321 5.509v-6.4c0-1.489.692-2.308 1.947-2.308.624 0 1.24.207 1.533.518l-.484 1.103-.014-.016a1.117 1.117 0 00-.788-.264c-.505 0-.782.381-.782 1.072v.767h1.474v1.348h-1.467v4.183l-1.419-.003z" fill="#525252"/><path d="M46.258 9.313c0-1.526.725-2.295 1.933-2.295.653 0 1.245.22 1.523.512l-.47 1.074a1.134 1.134 0 00-.799-.268c-.47 0-.796.33-.796 1.086v.782h1.473v1.319h-1.473v4.182h-1.39V9.313zm6.427 6.534c-1.75 0-2.974-1.192-2.974-2.896 0-1.705 1.224-2.895 2.974-2.895 1.75 0 2.975 1.19 2.975 2.895 0 1.704-1.223 2.896-2.975 2.896zm0-4.444c-.845 0-1.459.65-1.459 1.547 0 .898.614 1.561 1.46 1.561.865 0 1.47-.642 1.47-1.56 0-.92-.617-1.548-1.47-1.548z" fill="#525252"/><path d="M52.685 10.07c1.8 0 2.96 1.233 2.96 2.885 0 1.651-1.16 2.885-2.96 2.885s-2.96-1.234-2.96-2.885c0-1.652 1.16-2.885 2.96-2.885zm0 4.455c.856 0 1.486-.623 1.486-1.575 0-.927-.64-1.562-1.486-1.562-.82 0-1.473.61-1.473 1.562 0 .916.63 1.575 1.473 1.575zm4.155 1.188V10.19h1.418v.507a1.392 1.392 0 011.23-.605c.473 0 .683.085.856.21h.008l-.505 1.344-.014-.008a1.133 1.133 0 00-.694-.207c-.407 0-.687.185-.88.578v3.695l-1.42.009z" fill="#525252"/><path d="M56.852 10.204h1.39v.537a1.38 1.38 0 011.243-.635c.45 0 .666.074.847.208l-.495 1.318a1.149 1.149 0 00-.701-.208.929.929 0 00-.538.153.944.944 0 00-.356.434v3.687h-1.39v-5.494zm11.122 5.509v-3.239c0-.706-.286-1.035-.917-1.035a1.2 1.2 0 00-1.11.627v3.647h-1.4v-3.335c0-.589-.332-.94-.89-.94a1.294 1.294 0 00-1.125.578v3.694h-1.41v-5.52h1.417v.587a2.316 2.316 0 011.689-.685c.762 0 1.368.33 1.588.865a2.205 2.205 0 011.833-.866c1.163 0 1.752.68 1.752 2.02v3.606l-1.427-.004z" fill="#525252"/><path d="M69.38 15.698h-1.39v-3.224c0-.683-.285-1.05-.93-1.05a1.215 1.215 0 00-.65.157 1.233 1.233 0 00-.473.478c0 .087.013.289.013.404v3.235h-1.39v-3.317c0-.577-.315-.954-.906-.954a1.307 1.307 0 00-1.142.587v3.687h-1.389v-5.497h1.389v.61a2.296 2.296 0 011.703-.708c.834 0 1.39.38 1.583.88a2.194 2.194 0 011.837-.88c.991 0 1.74.5 1.74 2.002l.005 3.59zm2.765.087c-1.043 0-1.713-.667-1.713-1.7 0-1.107.764-1.795 1.999-1.795.43-.003.851.115 1.219.34.018-.55-.069-.907-.273-1.12a.955.955 0 00-.73-.254 3.01 3.01 0 00-1.373.356l-.061.029-.358-1.053h.01a3.995 3.995 0 011.928-.527c1.513 0 2.189.709 2.189 2.298v3.36h-1.237v-.606c-.327.42-.918.672-1.6.672zm.555-2.514c-.394 0-.856.174-.856.669 0 .383.298.632.76.632.46 0 .811-.166 1.038-.494v-.553a1.557 1.557 0 00-.942-.254z" fill="#525252"/><path d="M70.865 10.595a3.995 3.995 0 011.921-.525c1.606 0 2.174.83 2.174 2.283v3.345h-1.207v-.636c-.286.415-.871.708-1.608.708-.99 0-1.703-.621-1.703-1.684 0-1.21.882-1.782 1.981-1.782.436-.004.864.118 1.232.354.036-.916-.205-1.417-1.014-1.417-.629 0-1.027.196-1.428.38l-.348-1.026zm2.79 3.49v-.56a1.529 1.529 0 00-.955-.269c-.458 0-.869.22-.869.684 0 .415.338.646.774.646.58 0 .88-.255 1.05-.5zm6.508 1.628v-2.995c0-.836-.416-1.28-1.204-1.28a1.591 1.591 0 00-1.175.521v3.75h-1.418v-5.52h1.418v.529a2.19 2.19 0 011.544-.626c1.494 0 2.25.802 2.25 2.382v3.239h-1.415z" fill="#525252"/><path d="M76.385 10.204h1.389v.55a2.183 2.183 0 011.559-.648c1.329 0 2.235.648 2.235 2.368v3.224h-1.39v-2.98c0-.878-.447-1.298-1.22-1.298a1.62 1.62 0 00-1.184.525v3.75h-1.39v-5.491zm9.205 5.643c-1.772 0-2.963-1.164-2.963-2.896 0-1.65 1.217-2.895 2.83-2.895.952 0 1.713.258 2.197.748v.009l-.667 1.135-.013-.011a1.811 1.811 0 00-1.343-.534 1.469 1.469 0 00-1.075.45 1.501 1.501 0 00-.421 1.098 1.55 1.55 0 00.449 1.115 1.518 1.518 0 001.107.445 1.813 1.813 0 001.392-.666l.011-.015.668 1.05v.008c-.44.6-1.253.959-2.172.959z" fill="#525252"/><path d="M87.752 14.88c-.46.622-1.284.952-2.162.952-1.765 0-2.948-1.154-2.948-2.885 0-1.598 1.16-2.884 2.815-2.884.894 0 1.678.232 2.187.744l-.653 1.11a1.826 1.826 0 00-1.353-.536 1.49 1.49 0 00-1.083.457 1.518 1.518 0 00-.427 1.105 1.554 1.554 0 00.45 1.128 1.527 1.527 0 001.12.447 1.84 1.84 0 001.402-.67l.652 1.032zm3.406.967c-1.757 0-2.937-1.164-2.937-2.896 0-1.705 1.187-2.895 2.889-2.895 1.476 0 2.588 1.103 2.588 2.566.01.256-.02.512-.086.76v.01H89.69c.12.774.736 1.253 1.614 1.253a2.492 2.492 0 001.525-.497l.015-.012.41 1.017h-.009c-.51.443-1.272.694-2.087.694zm1.123-3.423a1.154 1.154 0 00-.309-.82 1.255 1.255 0 00-.922-.348c-.762 0-1.25.403-1.408 1.168h2.639z" fill="#525252"/><path d="M93.241 15.149c-.544.463-1.317.683-2.078.683-1.752 0-2.924-1.154-2.924-2.885 0-1.598 1.088-2.884 2.875-2.884 1.402 0 2.57 1.01 2.57 2.551.01.256-.02.51-.084.758h-3.928c.121.829.774 1.28 1.632 1.28a2.492 2.492 0 001.533-.5l.404.997zm-3.617-2.71h2.67c.012-.671-.446-1.196-1.244-1.196-.834-.002-1.28.476-1.426 1.197zm7.788 3.274v-6.4c0-1.489.693-2.308 1.947-2.308.624 0 1.241.207 1.534.518l-.484 1.103-.014-.016a1.119 1.119 0 00-.789-.264c-.505 0-.783.381-.783 1.072v.767h1.474v1.348H98.83v4.183l-1.418-.003z" fill="#525252"/><path d="M97.427 9.313c0-1.526.725-2.295 1.932-2.295.653 0 1.245.22 1.524.512l-.471 1.074a1.136 1.136 0 00-.799-.268c-.47 0-.796.33-.796 1.086v.782h1.473v1.319h-1.473v4.182h-1.39V9.313zm6.426 6.534c-1.751 0-2.973-1.192-2.973-2.896 0-1.705 1.222-2.895 2.973-2.895 1.752 0 2.975 1.19 2.975 2.895 0 1.704-1.223 2.896-2.975 2.896zm0-4.444c-.845 0-1.459.65-1.459 1.547 0 .898.614 1.561 1.459 1.561.846 0 1.472-.642 1.472-1.56 0-.92-.618-1.548-1.472-1.548z" fill="#525252"/><path d="M103.853 10.07c1.8 0 2.961 1.233 2.961 2.885 0 1.651-1.161 2.885-2.961 2.885-1.8 0-2.959-1.234-2.959-2.885 0-1.652 1.159-2.885 2.959-2.885zm0 4.455c.857 0 1.486-.623 1.486-1.575 0-.927-.639-1.562-1.486-1.562-.82 0-1.473.61-1.473 1.562-.003.916.628 1.575 1.473 1.575zm6.79 1.322c-1.752 0-2.975-1.192-2.975-2.896 0-1.705 1.223-2.895 2.975-2.895 1.751 0 2.973 1.19 2.973 2.895 0 1.704-1.222 2.896-2.973 2.896zm0-4.444c-.847 0-1.461.65-1.461 1.547 0 .898.614 1.561 1.461 1.561.846 0 1.471-.642 1.471-1.56 0-.92-.619-1.548-1.471-1.548z" fill="#525252"/><path d="M110.643 10.07c1.8 0 2.959 1.233 2.959 2.885 0 1.651-1.159 2.885-2.959 2.885s-2.961-1.234-2.961-2.885c0-1.652 1.161-2.885 2.961-2.885zm0 4.455c.856 0 1.486-.623 1.486-1.575 0-.927-.641-1.562-1.486-1.562-.823 0-1.475.61-1.475 1.562 0 .916.632 1.575 1.475 1.575zm6.389 1.285c-1.57 0-2.569-1.098-2.569-2.798 0-1.74 1.233-2.956 2.998-2.956.39-.02.778.07 1.122.258V7.14H120v8.576h-1.417v-.553a2.074 2.074 0 01-1.551.646zm.484-4.407c-.744 0-1.544.489-1.544 1.56 0 .89.555 1.512 1.35 1.512a1.797 1.797 0 001.259-.558v-2.198a2.013 2.013 0 00-1.065-.316z" fill="#525252"/><path d="M118.591 15.124a2.04 2.04 0 01-1.559.67c-1.559 0-2.561-1.11-2.561-2.782 0-1.73 1.232-2.942 2.984-2.942.398-.021.794.072 1.142.268V7.152h1.389v8.546h-1.389l-.006-.574zm0-1.197v-2.208a1.973 1.973 0 00-1.075-.33c-.822 0-1.559.56-1.559 1.574 0 .977.628 1.526 1.365 1.526a1.81 1.81 0 001.269-.562z" fill="#525252"/></svg>