<svg width="120" height="20" viewBox="0 0 120 20" fill="none" xmlns="http://www.w3.org/2000/svg"><path fill-rule="evenodd" clip-rule="evenodd" d="M35.169 12.704c-.718 1.335-1.941 2.371-3.43 2.904a6.77 6.77 0 01-4.616-.027c-1.482-.55-2.691-1.6-3.391-2.944a5.67 5.67 0 01-.393-4.322c.447-1.436 1.45-2.664 2.81-3.441a6.734 6.734 0 014.545-.762c1.563.287 2.956 1.113 3.904 2.315a5.738 5.738 0 011.223 4.183H24.365c.07.522.232 1.034.482 1.514.564 1.083 1.538 1.929 2.732 2.372 1.193.442 2.52.45 3.719.021 1.199-.428 2.184-1.263 2.762-2.34l1.109.527zm-4.713-7.447c1.259.231 2.38.896 3.145 1.865.525.666.855 1.443.968 2.253H24.367a4.57 4.57 0 01.164-.732c.36-1.157 1.168-2.146 2.264-2.773a5.425 5.425 0 013.66-.613z" fill="#57AE7D"/><path d="M72.505 10c0 3.314-2.858 6-6.385 6-3.527 0-6.386-2.686-6.386-6s2.859-6 6.386-6c3.526 0 6.385 2.686 6.385 6zm-11.53 0c0 2.67 2.304 4.833 5.145 4.833 2.84 0 5.144-2.164 5.144-4.833 0-2.67-2.303-4.833-5.144-4.833S60.975 7.33 60.975 10z" fill="#57AE7D"/><path fill-rule="evenodd" clip-rule="evenodd" d="M55.942 10.5c.918 0 1.797-.342 2.446-.952a3.154 3.154 0 001.013-2.298c0-.862-.364-1.689-1.013-2.298A3.575 3.575 0 0055.942 4h-7.45v12h1.33v-5.5h6.12zm1.608-4.76a2.35 2.35 0 00-1.608-.626h-6.12v4.272h6.12a2.35 2.35 0 001.608-.626c.426-.4.666-.944.666-1.51 0-.566-.24-1.11-.666-1.51zm47.816 4.76c.917 0 1.797-.342 2.446-.952a3.156 3.156 0 001.013-2.298c0-.862-.365-1.689-1.013-2.298A3.577 3.577 0 00105.366 4h-7.45v12h1.33v-5.5h6.12zm1.607-4.76a2.348 2.348 0 00-1.607-.626h-6.12v4.272h6.12c.603 0 1.181-.225 1.607-.626.427-.4.666-.944.666-1.51a2.07 2.07 0 00-.666-1.51zm-31.932 8.503c-1.197-1.126-1.87-2.652-1.87-4.243 0-1.591.672-3.117 1.87-4.243a6.562 6.562 0 013.85-1.724v-.346h1.33v.346a6.557 6.557 0 013.851 1.724c1.197 1.126 1.87 2.652 1.87 4.243 0 1.591-.672 3.117-1.87 4.243a6.562 6.562 0 01-3.85 1.724v.345h-1.33v-.345a6.561 6.561 0 01-3.85-1.724zM74.412 10c0-1.282.542-2.511 1.507-3.418a5.278 5.278 0 012.972-1.375v9.586a5.278 5.278 0 01-2.972-1.375c-.965-.907-1.507-2.136-1.507-3.418zm10.289 0c0-1.282-.542-2.511-1.507-3.418a5.278 5.278 0 00-2.972-1.375v9.586a5.278 5.278 0 002.972-1.375c.965-.907 1.507-2.136 1.507-3.418z" fill="#57AE7D"/><path d="M109.49 4h1.318l3.947 10.282L118.67 4H120v12h-1.33V7.769l-3.206 8.35h-1.418l-3.226-8.403V16h-1.33V4z" fill="#57AE7D"/><path fill-rule="evenodd" clip-rule="evenodd" d="M46.747 9.548a3.154 3.154 0 001.014-2.298c0-.862-.365-1.689-1.014-2.298A3.575 3.575 0 0044.301 4h-7.45v12h7.45a3.57 3.57 0 002.446-.952 3.154 3.154 0 001.014-2.298c0-.862-.365-1.689-1.014-2.298a3.434 3.434 0 00-.602-.452 3.43 3.43 0 00.602-.452zM45.91 5.74a2.35 2.35 0 00-1.608-.626h-6.12v4.272h6.12a2.35 2.35 0 001.608-.626c.426-.4.666-.944.666-1.51 0-.566-.24-1.11-.666-1.51zm0 5.5a2.35 2.35 0 00-1.608-.626h-6.12v4.272h6.12a2.35 2.35 0 001.608-.626c.426-.4.666-.944.666-1.51 0-.566-.24-1.11-.666-1.51zm38.436 4.821h1.467l2.593-5.405h4.996l2.695 5.405h1.468L91.59 3.938h-1.335l-5.91 12.123zm4.674-6.686l1.835-3.826 1.908 3.826H89.02z" fill="#57AE7D"/><ellipse cx="10.643" cy="10" rx="10.643" ry="10" fill="#57AE7D"/><path d="M5.652 5.838c.235-.474.66-.842 1.182-1.023l7.568-2.632c.64-.223 1.342.136 1.49.762a.999.999 0 01-.067.654l-.212.455a2.06 2.06 0 01-1.17 1.054l-7.657 2.8c-.682.249-1.433-.163-1.538-.844a1.01 1.01 0 01.095-.603l.31-.623zm.118 4.739c.235-.473.66-.841 1.182-1.023l7.567-2.632c.64-.223 1.343.137 1.491.763a.999.999 0 01-.068.654l-.212.455a2.06 2.06 0 01-1.169 1.053l-7.657 2.8c-.682.25-1.434-.163-1.538-.843a1.01 1.01 0 01.095-.603l.309-.624zm.012 4.74a2.07 2.07 0 011.181-1.023l7.568-2.632c.64-.223 1.343.136 1.49.762a.999.999 0 01-.067.654l-.212.455a2.061 2.061 0 01-1.169 1.054l-7.657 2.8c-.682.25-1.434-.163-1.538-.843a1.01 1.01 0 01.095-.604l.309-.623z" fill="#fff"/></svg>