<svg width="39" height="48" viewBox="0 0 39 48" fill="none" xmlns="http://www.w3.org/2000/svg"><path d="M23.013 17.635a6.536 6.536 0 00-3.1-.735h-5.606v14.022h5.607a6.539 6.539 0 003.101-.736 5.506 5.506 0 002.218-2.145c.548-.94.822-2.051.822-3.332v-1.595c0-1.282-.274-2.392-.822-3.332a5.5 5.5 0 00-2.22-2.147zm-.211 7.523c0 1.036-.268 1.837-.803 2.402-.534.566-1.23.848-2.085.848h-2.496v-8.994h2.496c.856 0 1.552.282 2.087.849.534.566.802 1.366.802 2.4l-.001 2.495zM8.47 26.444L3.337 16.9H.45v.002H.168v14.023h2.83l-.137-9.54 5.13 9.54h2.887v-.003h.284V16.9H8.333l.137 9.545zm20.63 3.611c1.031.72 2.334 1.079 3.91 1.079 1.737 0 3.1-.372 4.087-1.113.987-.742 1.482-1.91 1.486-3.504 0-.912-.229-1.642-.686-2.188a4.128 4.128 0 00-1.634-1.206 18.399 18.399 0 00-2.433-.756 17.357 17.357 0 01-1.585-.45 2.778 2.778 0 01-.96-.539 1.101 1.101 0 01-.374-.847c0-.394.2-.711.6-.95.4-.24.962-.358 1.684-.358.696 0 1.24.147 1.635.44a1.44 1.44 0 01.591 1.213v.185h2.867v-.255c0-1.363-.479-2.389-1.437-3.076-.958-.688-2.192-1.032-3.702-1.032a7.354 7.354 0 00-2.669.46 4.227 4.227 0 00-1.9 1.398c-.476.628-.713 1.392-.713 2.29 0 .968.228 1.737.685 2.31.43.549.997.979 1.646 1.247.795.313 1.611.573 2.442.778.67.163 1.192.31 1.566.44.342.11.657.291.924.53a1.142 1.142 0 01.365.869 1.36 1.36 0 01-.156.646c-.105.2-.257.37-.445.5-.4.299-1.06.448-1.978.448-.787 0-1.398-.174-1.832-.521a1.741 1.741 0 01-.496-.635 1.71 1.71 0 01-.154-.786l.02-.327h-2.88l-.021.449c0 1.46.516 2.547 1.548 3.261zm-6.473 4.192a6.964 6.964 0 00-6.266 0 5.59 5.59 0 00-2.245 2.172c-.548.943-.832 2.078-.832 3.369v1.943c0 1.286.274 2.425.832 3.368a5.592 5.592 0 002.245 2.172c.84.444 1.807.642 3.133.642s2.293-.198 3.134-.642a5.592 5.592 0 002.244-2.172c.549-.943.832-2.079.832-3.368v-1.947c0-1.287-.274-2.425-.832-3.369a5.589 5.589 0 00-2.244-2.168zm-.174 5.075v2.867c0 1.024-.274 1.824-.823 2.38-.548.557-1.262.838-2.137.838s-1.594-.282-2.136-.837c-.544-.555-.823-1.357-.823-2.381V39.32c0-1.022.274-1.824.823-2.38.548-.557 1.262-.837 2.136-.837.873 0 1.592.281 2.137.836.546.555.825 1.359.825 2.381l-.002.002zm15.587.808a4.368 4.368 0 00.548-2.156v-.122a4.172 4.172 0 00-.562-2.147 4.069 4.069 0 00-1.514-1.5 4.16 4.16 0 00-2.078-.544h-6.278v14.03h3.09v-5.422h3.192a3.997 3.997 0 002.096-.572 4.134 4.134 0 001.506-1.567zm-2.56-2.075a1.7 1.7 0 01-.5 1.213 1.67 1.67 0 01-1.265.521h-2.468v-3.615h2.468a1.682 1.682 0 011.274.521c.323.334.5.778.493 1.238v.122h-.001zM7.812 39.227H3.185v-5.573H.168V47.69h3.037v-5.846h4.606v5.846h3.016V33.654H7.81v5.573zM8.875 6.791c1.587-.449 2.301-1.502 2.301-2.987v-.078c0-2.4-1.586-3.63-4.7-3.63H.168v13.958h6.566c3.313 0 4.979-1.327 4.979-3.908v-.079c0-1.87-.986-2.904-2.838-3.276zM3.303 2.263h2.636c1.508 0 2.182.528 2.182 1.7v.077c0 1.25-.595 1.796-2.162 1.796H3.303V2.263zm5.23 7.633c0 1.269-.715 1.971-2.301 1.971h-2.93V7.865h2.776c1.746 0 2.454.644 2.454 1.953v.078zm8.967-1.23h1.732l2.865 5.39h3.301l-3.153-5.93h.026a4.352 4.352 0 002.083-1.248c.536-.605.833-1.387.833-2.46V4.34c0-1.425-.536-2.499-1.487-3.201C22.748.437 21.377.096 19.71.096h-5.403v13.958H17.5V8.666zm0-6.15h2.132c1.567 0 2.556.488 2.556 1.913v.079c0 1.327-.95 2.01-2.556 2.01H17.5V2.516zM27.845 7.77v2.665h5.432l1.989 3.62h3.297L30.957.186H27.66l4.153 7.584h-3.968z" fill="#000"/></svg>