<svg width="60" height="60" viewBox="0 0 60 60" fill="none" xmlns="http://www.w3.org/2000/svg"><path d="M30 60c16.569 0 30-13.431 30-30C60 13.431 46.569 0 30 0 13.431 0 0 13.431 0 30c0 16.569 13.431 30 30 30z" fill="#fff"/><path d="M54.105 20.213a13.424 13.424 0 003.2-2.65 29.783 29.783 0 012.4 8.249 33.25 33.25 0 01-1.945-1.484 19.976 19.976 0 01-3.655-4.114zm-12.697 3.425c0-1.761-.535-2.653-1.703-2.653a2.272 2.272 0 00-1.683.892v4.018c.42.405.981.634 1.565.634 1.006 0 1.816-.87 1.816-2.89h.005zm10.825-8.633a7.988 7.988 0 00.75 3.137c1.297-.892 2.304-1.928 2.304-3.713a1.714 1.714 0 00-.255-.964L55 13.422a1.383 1.383 0 00-1.183-.519c-.954 0-1.589.634-1.589 2.1h.004l.001.002zm-2.878 10.217c0 1.5 1.067 2.59 2.878 2.59a5.864 5.864 0 003.254-1.007 22.336 22.336 0 01-4.174-4.978 4.527 4.527 0 00-1.96 3.396h.002v-.001zM35 36.642a2.672 2.672 0 101.02.203 2.676 2.676 0 00-1.023-.203H35zm-5.895-15.459a2.671 2.671 0 101.022.204 2.674 2.674 0 00-1.025-.204h.003zM60 29.995a30 30 0 11-7.077-19.346c-2.64.368-3.823 2.151-3.823 4.53a11.373 11.373 0 001.095 4.546c-1.44.807-4.232 2.792-4.232 6.017 0 3.483 2.82 4.978 5.67 4.978a8.36 8.36 0 005.872-2.331A21.034 21.034 0 0060 29.857c-.005.047-.003.091-.003.138H60zM35.115 32.31h2.91v-2.87l-.1-1.565a3.412 3.412 0 002.337 1.03c2.118 0 4.138-1.942 4.138-5.306 0-3.03-1.467-4.99-3.842-4.99a4.316 4.316 0 00-2.791 1.208h-.084l-.2-.97h-2.375l.005 13.463h.002zm-21.903-7.405c0-1.822-.99-2.87-2.554-3.503l-1.663-.675c-1.11-.457-1.96-.733-1.96-1.527 0-.732.633-1.166 1.642-1.166a4.174 4.174 0 012.673 1.03l1.485-1.842a5.977 5.977 0 00-4.158-1.705c-2.692 0-4.592 1.703-4.592 3.841a3.761 3.761 0 002.593 3.524l1.684.713c1.128.475 1.86.733 1.86 1.545 0 .772-.594 1.247-1.8 1.247a5.235 5.235 0 01-3.187-1.35l-1.663 2a7.068 7.068 0 004.771 1.861c3.082.006 4.864-1.856 4.864-3.994h.005v.001zm5.895 15.459c0-1.822-.99-2.87-2.554-3.504l-1.663-.675c-1.11-.455-1.96-.733-1.96-1.525 0-.733.633-1.166 1.642-1.166a4.176 4.176 0 012.673 1.028l1.485-1.842a5.98 5.98 0 00-4.158-1.701c-2.692 0-4.592 1.701-4.592 3.84a3.762 3.762 0 002.593 3.524l1.684.712c1.123.475 1.86.733 1.86 1.545 0 .772-.594 1.247-1.8 1.247a5.233 5.233 0 01-3.187-1.35l-1.663 2a7.067 7.067 0 004.771 1.861c3.08.006 4.864-1.856 4.864-3.994h.005zm1.221-17.417v5.72h2.91v-6.099c0-2.455-.911-3.96-3.05-3.96a4.51 4.51 0 00-3.028 1.35l.138-1.761V14.79h-2.91v13.88h2.91v-6.633a2.486 2.486 0 011.822-.95c.827-.002 1.203.433 1.203 1.858h.005v.002zm8.805 15.082c0-2.456-.911-3.96-3.05-3.96a4.51 4.51 0 00-3.028 1.35l.138-1.764V30.25h-2.91v13.88h2.912v-6.634a2.484 2.484 0 011.822-.95c.831 0 1.206.437 1.206 1.862v5.722h2.912v-6.1h-.002zm.014-9.084a5.15 5.15 0 10-5.149-5.166 5.18 5.18 0 005.144 5.166h.005zm11.041 10.29a5.148 5.148 0 10-.39 1.975 5.116 5.116 0 00.385-1.975h.005zm14.422-4.93h-2.692l-.931 4.555c-.179.968-.277 1.92-.455 2.91h-.079c-.2-.99-.375-1.942-.613-2.91l-1.11-4.555h-2.513l-1.09 4.555c-.237.93-.395 1.92-.574 2.91h-.08c-.158-.99-.276-1.942-.435-2.91l-.95-4.555h-2.891l2.455 9.824h3.326l.872-3.92c.178-.91.317-1.822.495-2.87h.075c.178 1.05.337 1.96.533 2.87l.892 3.92h3.407l2.358-9.824z" fill="#27BFC8"/></svg>