<svg width="110" height="14" viewBox="0 0 110 14" fill="none" xmlns="http://www.w3.org/2000/svg"><path d="M7.78 9.737c0 1.231-.343 2.155-.998 2.805-.654.65-1.549.958-2.65.958H0V.773h3.925c1.205 0 2.134.308 2.754.924.62.616.93 1.471.93 2.532 0 .547-.104 1.026-.345 1.47-.24.445-.62.822-1.239 1.095v.103c.31.103.585.24.792.445.206.205.413.41.55.684.138.274.242.547.31.821.07.308.104.616.104.89zM5.51 4.33c0-.513-.138-.923-.414-1.197-.275-.308-.723-.445-1.342-.445H2.1v3.319h1.687c.585 0 1.033-.171 1.308-.48.276-.307.414-.684.414-1.197zm.206 5.303c0-.547-.138-.992-.413-1.3-.275-.342-.723-.513-1.343-.513H2.1v3.729h1.86c.344 0 .62-.034.826-.137.206-.102.413-.24.55-.41a1.27 1.27 0 00.276-.616c.069-.24.103-.48.103-.753zm11.464-.102c0 .616-.103 1.164-.275 1.643-.207.479-.448.923-.827 1.265a3.332 3.332 0 01-1.24.787 4.654 4.654 0 01-1.583.274c-.688 0-1.308-.103-1.79-.342-.516-.24-.93-.548-1.24-.924a3.522 3.522 0 01-.688-1.334 6.053 6.053 0 01-.207-1.608V4.468c0-.445.07-.923.207-1.368.138-.48.379-.89.689-1.266.31-.376.723-.684 1.205-.924.482-.24 1.101-.376 1.824-.376.689 0 1.274.103 1.756.342.482.24.895.547 1.24.924.31.376.55.787.722 1.266.138.479.241.957.241 1.436l-.034 5.03zm-2.134-5.063c0-.17-.035-.342-.07-.547a2.398 2.398 0 00-.275-.616 1.59 1.59 0 00-.55-.513c-.242-.137-.517-.205-.861-.205-.345 0-.654.068-.895.205-.242.137-.448.274-.586.479-.137.205-.24.41-.31.616a2.095 2.095 0 00-.103.615l.035 4.858c0 .616.137 1.13.413 1.54.275.41.757.616 1.446.616a1.81 1.81 0 001.239-.48c.344-.307.517-.752.517-1.333V4.468zM25.684 13.5l-3.03-5.474-1.343-2.634-.068.034V13.5h-2.135V.74h1.962l2.858 5.2 1.515 2.873.069-.034V.739h2.1V13.5h-1.928zm10.673 0l-3.03-5.474-1.343-2.634-.069.034V13.5h-2.134V.74h1.928l2.857 5.2 1.515 2.873.069-.034V.739h2.1V13.5h-1.893zm4.2 0V.74h2.135V13.5h-2.135zm4.476 0V.74h7.127v1.95h-5.027v3.42h4.338v1.882h-4.338v3.524h5.027V13.5h-7.127zm18.385-1.13c-.413.377-.86.685-1.343.856a4.362 4.362 0 01-1.48.274c-.517 0-.999-.069-1.412-.274-.413-.205-.757-.41-1.033-.718a2.978 2.978 0 01-.62-1.06 3.96 3.96 0 01-.206-1.3c0-.753.172-1.438.517-2.02.344-.58.86-1.162 1.583-1.71-.31-.479-.62-.958-.86-1.402a3.152 3.152 0 01-.38-1.506c0-.41.07-.82.207-1.197a2.99 2.99 0 01.586-.958c.275-.273.585-.479.964-.616A3.87 3.87 0 0161.249.5c.585 0 1.136.103 1.687.342.55.205.998.616 1.377 1.129-.241.205-.448.41-.689.582-.24.205-.447.41-.688.615a2.74 2.74 0 00-.792-.684 2.091 2.091 0 00-.826-.17c-.379 0-.689.136-.86.375-.207.24-.276.514-.276.821 0 .308.103.685.344 1.164.24.479.516.958.86 1.47a44.58 44.58 0 001.102 1.574c.379.548.723 1.027 1.033 1.471.138-.273.207-.547.276-.855.068-.308.103-.616.172-.924l1.79.206a10.737 10.737 0 01-.344 1.71 7.267 7.267 0 01-.689 1.574c.069.137.207.342.344.547.138.24.31.445.482.719.172.24.345.479.482.684.172.205.276.41.38.547h-2.308l-.688-1.026zm-2.995-4.412a3.78 3.78 0 00-.861.992c-.207.342-.31.718-.31 1.129 0 .444.138.82.379 1.129.275.308.654.479 1.136.479.31 0 .62-.069.93-.206.31-.136.55-.307.757-.547l-2.031-2.976zM78.601 9.77c0 1.164-.344 2.088-1.067 2.738-.723.65-1.722.992-3.03.992-1.033 0-1.894-.206-2.548-.616-.688-.41-1.205-.924-1.583-1.574l1.721-1.231c.275.444.62.787.998 1.06.38.274.861.41 1.446.41.689 0 1.136-.17 1.446-.478.31-.308.413-.719.413-1.197 0-.308-.068-.548-.172-.753-.103-.205-.275-.376-.447-.547a6.77 6.77 0 00-.723-.41 14.723 14.723 0 00-.93-.309c-.62-.205-1.136-.41-1.583-.616a3.681 3.681 0 01-1.068-.752 2.245 2.245 0 01-.585-.992c-.138-.377-.172-.787-.172-1.266 0-.513.103-1.026.275-1.471.172-.445.448-.821.792-1.163a3.754 3.754 0 011.24-.753 4.655 4.655 0 011.583-.274c.964 0 1.722.171 2.341.48a4.045 4.045 0 011.446 1.3l-1.618 1.334c-.275-.377-.62-.685-.964-.856a2.758 2.758 0 00-1.24-.273c-.55 0-.963.136-1.273.444-.31.308-.448.685-.448 1.13 0 .273.07.478.207.683.138.206.31.343.55.514.242.136.517.273.827.41.31.103.654.24.998.342.586.171 1.102.41 1.515.616.413.24.723.513.964.821.241.308.413.65.517 1.026.138.308.172.753.172 1.232zm1.721 3.73V.74h2.1v10.776h4.958V13.5h-7.058zm8.538 0V.74h2.135V13.5h-2.134zM97.227.773c.86 0 1.584.171 2.203.48.62.307 1.068.855 1.343 1.573.172.445.275 1.026.31 1.676.034.65.034 1.437.034 2.258 0 1.026 0 1.916-.034 2.668 0 .753-.103 1.369-.31 1.882a3.46 3.46 0 01-.62 1.06c-.275.274-.55.514-.895.685a3.764 3.764 0 01-1.102.342 6.87 6.87 0 01-1.205.102h-3.683V.773h3.959zm1.79 4.756c0-.856-.138-1.54-.447-2.053-.31-.513-.861-.753-1.653-.753h-1.48v8.861h1.514c.792 0 1.343-.205 1.619-.615.275-.411.447-.993.447-1.711v-3.73zm3.856-4.824H110v1.95h-5.027v3.421h4.338v1.916h-4.338v3.524H110V13.5h-7.127V.705z" fill="#000"/></svg>