<svg width="73" height="17" viewBox="0 0 73 17" fill="none" xmlns="http://www.w3.org/2000/svg"><path d="M41.11 0l-9.143 1.198v2.716l9.142-.819V0z" fill="#E40038"/><path d="M10.412 9.867c0-3.021 1.671-4.402 4.825-4.402s4.832 1.38 4.832 4.402c0 3.02-1.665 4.452-4.832 4.452s-4.825-1.431-4.825-4.452zm2.762.024c0 1.649.49 2.221 2.063 2.221 1.574 0 2.052-.572 2.052-2.221 0-1.65-.474-2.22-2.052-2.22s-2.063.564-2.063 2.22zm23.021 2.23c-1.572 0-2.061-.573-2.061-2.222 0-1.648.49-2.219 2.06-2.219 1.572 0 2.055.564 2.055 2.22 0 1.655-.474 2.221-2.054 2.221zm3.182-5.88l-7.41-5.043V3.91l2.31 1.568.455.268a2.821 2.821 0 00-1.637.42c-1.141.69-1.739 1.906-1.739 3.703 0 3.02 1.663 4.45 4.823 4.45s4.832-1.43 4.832-4.45c0-1.743-.565-2.943-1.65-3.642M4.712 12.06c-1.571 0-2.062-.573-2.062-2.222 0-1.648.49-2.219 2.062-2.219 1.572 0 2.054.564 2.054 2.22 0 1.655-.473 2.221-2.054 2.221zm.944-6.61c-1.494 0-2.706.923-3.009 1.306v-1.11H0V17h2.632v-4.038c.309.392 1.522 1.307 3.015 1.307 2.493 0 3.862-1.357 3.862-4.411 0-3.054-1.369-4.402-3.853-4.402m53.483.198v3.082h-3.493V5.654h-2.65v8.34h2.65v-3.123h3.493v3.123h2.65v-8.34h-2.65zM44.68 9.838c0-1.655.474-2.219 2.054-2.219 1.58 0 2.063.564 2.063 2.22 0 1.655-.491 2.221-2.063 2.221-1.571 0-2.054-.573-2.054-2.222zm-2.743.014c0 3.049 1.37 4.41 3.863 4.41 1.5 0 2.706-.908 3.015-1.307v1.04h2.632v-8.35h-2.648v1.111c-.302-.383-1.521-1.306-3.008-1.306-2.484 0-3.854 1.357-3.854 4.402zm-14.185 1.06c-.202.871-.762 1.2-1.956 1.2-1.571 0-2.06-.572-2.06-2.221 0-1.65.489-2.22 2.06-2.22 1.196 0 1.756.325 1.956 1.2l2.763-.217c-.413-2.179-2.028-3.196-4.723-3.196-3.152 0-4.823 1.381-4.823 4.402s1.662 4.452 4.823 4.452c2.69 0 4.29-1.037 4.714-3.197l-2.754-.203zM73 13.992l-4.193-4.378 3.967-3.96h-3.276l-3.556 3.622V5.654h-2.601v8.338h2.601v-3.84l3.652 3.84H73z" fill="#00234D"/></svg>