<svg width="108" height="28" viewBox="0 0 108 28" fill="none" xmlns="http://www.w3.org/2000/svg"><path d="M40.543 11.816a2.08 2.08 0 00-.798-.63 2.367 2.367 0 00-.995-.222c-.42 0-.798.08-1.137.237a2.626 2.626 0 00-.87.646 2.93 2.93 0 00-.56.961 3.45 3.45 0 00-.2 1.182c0 .392.063.764.189 1.113.125.351.307.66.545.925.237.266.528.477.87.63.342.155.73.232 1.163.232.425 0 .8-.088 1.121-.263.322-.174.594-.42.818-.735l.848.64a2.99 2.99 0 01-.848.762c-.23.144-.509.27-.834.378-.324.11-.7.163-1.126.163a3.654 3.654 0 01-1.588-.336 3.824 3.824 0 01-1.965-2.116 3.889 3.889 0 01-.262-1.393c0-.575.094-1.104.283-1.592a3.78 3.78 0 01.792-1.26 3.53 3.53 0 011.22-.825 4.075 4.075 0 011.572-.294c.49 0 .97.095 1.441.284.472.188.858.48 1.158.871l-.837.642zm2.517-1.808h4.789v.946h-3.784v2.216h3.522v.946h-3.522v2.385h3.973v.946h-4.979v-7.439zm6.536 0h1.499l2.357 5.631h.042l2.337-5.631h1.5v7.439h-1.008v-6.115h-.02l-2.505 6.115h-.671l-2.505-6.115h-.02v6.115h-1.006v-7.439zm15.727 7.442h-1.006v-6.115h-.021l-4.13 6.115h-1.278v-7.438h1.006v6.114h.021l4.087-6.114h1.321v7.438zm9.361-7.417h2.579c.321 0 .62.04.896.116.277.077.514.19.713.341.198.152.356.344.472.579.115.234.172.509.172.824 0 .427-.119.776-.356 1.045a2.07 2.07 0 01-.922.594v.02c.223.015.432.073.629.175.195.101.364.233.507.399a1.937 1.937 0 01.467 1.276c0 .337-.068.632-.204.888a1.94 1.94 0 01-.56.647 2.56 2.56 0 01-.829.398 3.614 3.614 0 01-1.017.137h-2.546v-7.439zm1.007 3.089h1.373c.189 0 .367-.019.534-.057a1.19 1.19 0 00.44-.195.984.984 0 00.299-.347c.073-.14.11-.311.11-.515 0-.293-.094-.55-.283-.766-.189-.217-.486-.326-.89-.326H75.69v2.206zm0 3.468h1.477c.154 0 .323-.017.509-.048a1.5 1.5 0 00.519-.19c.16-.094.297-.221.409-.383.11-.16.167-.374.167-.64 0-.442-.143-.773-.43-.993-.287-.221-.674-.331-1.163-.331h-1.488v2.585zm5.696-6.557h4.79v.946h-3.784v2.217h3.522v.945h-3.522v2.385h3.972v.946h-4.978v-7.439zm8.289.946h-2.39v-.946h5.785v.946h-2.39v6.493h-1.005v-6.493zm10.751 6.493H99.42v-6.115h-.02l-4.13 6.115h-1.279v-7.439h1.007v6.115h.02l4.088-6.115h1.321v7.439zm1.558-7.439h1.005v3.215h.084l3.281-3.215h1.404l-3.584 3.436L108 17.472h-1.467l-3.459-3.72h-.084v3.72h-1.005v-7.439zm-29.397 6.479v-6.504h-1.002v6.504h-3.708l-.003-6.493H66.87v7.438h5.988v1.06c.507-.084.895-.527.895-1.06v-.945h-1.166zM13.967 28C6.266 28 0 21.72 0 14S6.266 0 13.967 0c7.7 0 13.966 6.28 13.966 14s-6.265 14-13.966 14zm0-27.037C6.795.963.96 6.81.96 14c0 7.188 5.834 13.037 13.006 13.037 7.171 0 13.006-5.849 13.006-13.037 0-7.19-5.835-13.038-13.006-13.038z" fill="#846F65"/><path d="M19.838 8.192a3.757 3.757 0 00-2.761-1.243c-.15 0-.302.01-.449.03-1.19.166-2.136 1.017-2.661 1.603-.525-.586-1.471-1.438-2.662-1.603a3.328 3.328 0 00-.448-.03 3.755 3.755 0 00-2.762 1.243c-.517.582-1.095 1.612-.913 3.223.143 1.258.587 2.481 1.322 3.637.581.914 1.345 1.787 2.27 2.595 1.564 1.365 3.042 2.068 3.104 2.1l.089.04.088-.04c.062-.032 1.54-.735 3.104-2.1.926-.808 1.69-1.68 2.27-2.595.735-1.156 1.18-2.38 1.323-3.637.182-1.61-.396-2.641-.914-3.223zm.128 3.133c-.13 1.137-.534 2.248-1.204 3.3-.54.85-1.254 1.666-2.122 2.424a14.616 14.616 0 01-2.673 1.851c-.499-.264-1.56-.88-2.674-1.85-.868-.759-1.582-1.574-2.122-2.424-.67-1.053-1.074-2.164-1.204-3.3-.117-1.045.13-1.946.718-2.606a2.952 2.952 0 012.172-.978c.117 0 .232.007.34.022 1.427.199 2.529 1.773 2.54 1.788l.23.337.23-.337c.011-.015 1.113-1.59 2.54-1.788.109-.015.223-.022.34-.022a2.95 2.95 0 012.171.978c.588.66.836 1.561.718 2.605z" fill="#846F65"/><path d="M23.097 10.364a3.755 3.755 0 00-2.761-1.244c-.15 0-.302.01-.45.031-1.19.165-2.135 1.016-2.66 1.602-.525-.586-1.471-1.437-2.662-1.602a3.251 3.251 0 00-.449-.03 3.754 3.754 0 00-2.76 1.243c-.518.581-1.097 1.612-.914 3.222.143 1.258.587 2.482 1.321 3.638.582.914 1.346 1.787 2.27 2.595 1.565 1.365 3.043 2.068 3.105 2.097l.089.042.088-.042c.063-.03 1.54-.732 3.104-2.097.925-.808 1.69-1.68 2.271-2.595.734-1.156 1.179-2.38 1.321-3.638.183-1.61-.396-2.641-.913-3.222zm.128 3.133c-.13 1.137-.534 2.248-1.204 3.3-.54.851-1.254 1.666-2.122 2.423a14.626 14.626 0 01-2.673 1.852c-.499-.265-1.56-.88-2.674-1.852-.868-.757-1.582-1.572-2.122-2.423-.67-1.052-1.075-2.163-1.204-3.3-.117-1.044.13-1.946.718-2.605a2.952 2.952 0 012.171-.979c.118 0 .232.008.341.023 1.427.198 2.528 1.772 2.539 1.788l.231.337.23-.337c.011-.016 1.113-1.59 2.54-1.788.109-.015.223-.023.34-.023.813 0 1.626.366 2.171.98.588.658.836 1.56.718 2.604z" fill="#846F65"/><path d="M16.58 10.364a3.755 3.755 0 00-2.762-1.244c-.151 0-.302.01-.449.031-1.19.165-2.136 1.016-2.661 1.602-.525-.586-1.471-1.437-2.662-1.602a3.256 3.256 0 00-.449-.03 3.755 3.755 0 00-2.76 1.243c-.518.581-1.097 1.612-.914 3.222.143 1.258.587 2.482 1.322 3.638.581.914 1.345 1.787 2.27 2.595 1.564 1.365 3.042 2.068 3.105 2.097l.088.042.088-.042c.063-.03 1.54-.732 3.105-2.097.925-.808 1.688-1.68 2.27-2.595.735-1.156 1.179-2.38 1.322-3.638.182-1.61-.396-2.641-.914-3.222zm.127 3.133c-.13 1.137-.534 2.248-1.203 3.3-.541.851-1.255 1.666-2.123 2.423a14.62 14.62 0 01-2.673 1.852c-.498-.265-1.56-.88-2.674-1.852-.868-.757-1.582-1.572-2.122-2.423-.67-1.052-1.075-2.163-1.204-3.3-.117-1.044.13-1.946.718-2.605a2.953 2.953 0 012.171-.979c.118 0 .232.008.341.023 1.426.198 2.528 1.772 2.539 1.788l.23.337.232-.337c.01-.016 1.112-1.59 2.538-1.788a2.48 2.48 0 01.34-.023 2.95 2.95 0 012.172.98c.588.658.836 1.56.718 2.604zm19.515 8.4c0-.541.427-.986 1.014-.986.588 0 1.009.438 1.009.986 0 .543-.427.988-1.014.988s-1.009-.44-1.009-.988zm1.585 0c0-.327-.239-.6-.576-.6-.338 0-.57.269-.57.6 0 .328.238.6.575.6.337 0 .571-.267.571-.6zm2.399-.567h-.58v-.386h1.577v.386h-.579v1.522h-.418V21.33zm2.989 0h-.58v-.386h1.577v.386h-.578v1.522h-.42V21.33zm2.545-.386h1.436v.373h-1.02v.387h.898v.374h-.898v.4h1.033v.374h-1.448v-1.908zm3.049 0h.42v.755h.77v-.755h.42v1.908h-.42v-.765h-.77v.765h-.42v-1.908zm3.293 0h.419v.834l.772-.834h.506l-.775.81.81 1.098h-.503l-.59-.812-.22.228v.584h-.42v-1.908zm4.851 1.908h-.413V21.6l-.832 1.25h-.395v-1.907h.414v1.251l.837-1.25h.39v1.907zm3.727-1.908h.419v.755h.772v-.755h.418v1.908h-.418v-.765h-.772v.765h-.42v-1.908zm3.946-.014h.385l.816 1.922h-.437l-.175-.429h-.804l-.175.429h-.426l.816-1.922zm.44 1.124l-.253-.619-.252.619h.505zm4.894.798h-2.612v-1.908h.418v1.529h.677v-1.529h.419v1.529h.68v-1.529h.418v1.908zm3.323 0h-.413V21.6l-.832 1.25h-.395v-1.907h.414v1.251l.837-1.25h.389v1.907zm2.203-.971l-.636-.937h.49l.398.619.403-.619h.476l-.636.931.663.977h-.49l-.426-.655-.43.655h-.476l.664-.97zm5.844.259c-.127.063-.31.142-.502.142-.378 0-.64-.199-.64-.64v-.698h.42v.576c0 .236.092.369.307.369a.721.721 0 00.416-.122v-.823h.42v1.908h-.42v-.712zm3.367-1.196h.454l-.73 1.474c-.167.333-.358.463-.624.463a.79.79 0 01-.41-.111l.163-.309a.42.42 0 00.225.062c.077 0 .164-.034.24-.15l-.761-1.429h.467l.516 1.008.46-1.008zm1.958 0h.884c.217 0 .389.06.497.169a.44.44 0 01.13.33.443.443 0 01-.25.411c.22.085.357.213.357.474 0 .35-.283.524-.713.524h-.905v-1.908zm.794.77c.185 0 .302-.058.302-.206 0-.126-.098-.197-.274-.197h-.414v.404h.386zm.112.77c.184 0 .296-.066.296-.213 0-.129-.095-.207-.31-.207h-.484v.42h.498zm2.2-.587c0-.541.408-.986.993-.986a.96.96 0 01.736.31l-.25.29c-.147-.134-.272-.213-.49-.213-.32 0-.551.268-.551.6 0 .326.225.6.552.6.217 0 .35-.088.5-.224l.266.287c-.195.209-.413.324-.78.324-.56 0-.976-.434-.976-.988zm3.761-.567h-.579v-.386H94.5v.386h-.58v1.522h-.418V21.33zm2.545-.386h.884c.218 0 .389.06.498.169a.44.44 0 01.13.33.444.444 0 01-.25.411c.22.085.356.213.356.474 0 .35-.283.524-.712.524h-.906v-1.908zm.795.77c.184 0 .301-.058.301-.206 0-.126-.098-.197-.274-.197h-.413v.404h.386zm.111.77c.185 0 .296-.066.296-.213 0-.129-.095-.207-.31-.207h-.483v.42h.497z" fill="#846F65"/></svg>