<svg width="72" height="40" viewBox="0 0 72 40" fill="none" xmlns="http://www.w3.org/2000/svg"><path fill-rule="evenodd" clip-rule="evenodd" d="M50.144 6.34c1.956 0 3.842.33 5.587.946a7.136 7.136 0 01-.566-2.744c0-1.727.613-3.312 1.65-4.542a7.047 7.047 0 013.23 5.914c0 .189 0 .354-.024.544A9.731 9.731 0 0165.16 4.99c2.428 0 4.62.875 6.34 2.342-1.744 2.72-4.785 4.542-8.273 4.542-.236 0-.472 0-.684-.024a16.756 16.756 0 014.361 11.307C66.904 32.454 59.384 40 50.12 40s-16.783-7.546-16.783-16.842c.047-9.296 7.543-16.819 16.807-16.819z" fill="#08B438"/><path fill-rule="evenodd" clip-rule="evenodd" d="M61.765 30.254V19.468h-2.83v10.786h2.83zM60.35 18.285c.943 0 1.697-.757 1.697-1.703 0-.946-.754-1.68-1.697-1.68-.92 0-1.697.734-1.697 1.68s.778 1.703 1.697 1.703zm-4.22 11.97V15.351h-2.828v14.902h2.829zm-10.866.26c3.276 0 5.139-1.798 6.2-3.667l-2.711-1.325c-.613 1.23-1.957 2.177-3.49 2.177-2.686 0-4.643-2.082-4.643-4.897 0-2.815 1.957-4.896 4.644-4.896 1.532 0 2.876.97 3.489 2.176l2.71-1.348c-1.037-1.845-2.946-3.643-6.2-3.643-4.454 0-7.896 3.122-7.896 7.711 0 4.59 3.442 7.712 7.897 7.712z" fill="#fff"/><path fill-rule="evenodd" clip-rule="evenodd" d="M27.915 30.254v-7.12c.471-.686 1.72-1.23 2.64-1.23.306 0 .59.024.778.071v-2.791c-1.344 0-2.664.78-3.418 1.75v-1.466h-2.829v10.786h2.829zm-11.315 0V15.352h-4.455l-3.607 9.012-3.606-9.012H.5v14.902h3.159V19.823l4.196 10.431h1.39l4.196-10.431v10.431H16.6zm4.266-11.969c.943 0 1.698-.757 1.698-1.703 0-.946-.755-1.68-1.698-1.68-.919 0-1.697.734-1.697 1.68s.778 1.703 1.697 1.703zm1.438 11.97V19.467h-2.828v10.786h2.828z" fill="#2C3771"/></svg>