<svg width="104" height="14" viewBox="0 0 104 14" fill="none" xmlns="http://www.w3.org/2000/svg"><path d="M36.367 6.967l.762-.006-.907-1.299.744-.167-1.155-1.078.695-.317-1.36-.808.61-.455-1.492-.515.501-.574-1.553-.192.375-.664-1.572.138.23-.73-1.506.466.073-.766-1.372.772-.085-.766-1.185 1.041-.242-.73-.943 1.27-.387-.665-.659 1.436-.526-.562-.35 1.544-.623-.449-.024 1.586-.701-.305.308 1.556-.75-.156.381.892h4.673V4.25c0-.312.254-.563.568-.563h2.056c.314 0 .568.251.568.563v.538h2.177c.205 0 .374.168.374.371 0 .204-.17.372-.374.372h-2.177v2.932h2.177c.205 0 .374.168.374.372 0 .203-.17.37-.374.37h-2.177v.545a.565.565 0 01-.568.563h-2.056a.565.565 0 01-.568-.563V7.536H23.48l.556.796-.743.167 1.172 1.078-.695.317 1.355.814-.611.455 1.493.515-.502.574 1.566.192-.375.664 1.572-.138-.23.73 1.505-.466-.072.766 1.36-.772.09.76 1.186-1.041.241.724.943-1.263.387.664.66-1.436.519.568.345-1.544.622.449.018-1.586.702.305-.309-1.556.75.156-.617-1.46zM20.432 8.35c.303-.234.617-.509.913-.82h-4.667l-4.225 3.55v2.178h10.682v-2.765h-5.296l2.593-2.143zm-11.77 0a8.11 8.11 0 00.913-.82H4.908L.683 11.08v2.178h10.681v-2.765H6.075L8.662 8.35zM5.477 3.376c.997 0 1.946.826 1.759 1.55-.145.557-.701 1.173-1.076 1.538h4.226c.61-1.101 1.148-3.04-.98-4.806C8.161.628 5.12-.21 2.158 1.478 1.481 1.868.78 2.454 0 3.304L2.624 5.01c.791-1.251 1.922-1.634 2.853-1.634zm11.77 0c.997 0 1.946.826 1.759 1.55-.145.557-.701 1.173-1.076 1.538h4.225c.61-1.101 1.149-3.04-.979-4.806-1.245-1.03-4.286-1.868-7.248-.18-.671.383-1.372.97-2.158 1.82l2.623 1.706c.792-1.245 1.923-1.628 2.854-1.628zm33.381 6.069c0-.844-.49-1.25-1.457-1.25h-2.642v2.537h2.642c.967 0 1.457-.437 1.457-1.287zm-4.099-3.61h2.134c.95 0 1.42-.406 1.42-1.214 0-.79-.477-1.215-1.42-1.215H46.53v2.43zm7.49 3.873c0 2.167-1.662 3.52-4.709 3.52h-6.081V.91h5.76c2.83 0 4.486 1.161 4.486 3.202 0 1.215-.592 2.149-1.608 2.676 1.372.46 2.152 1.442 2.152 2.92zm11.262-2.639c0-2.131-1.408-3.52-3.198-3.52-1.795 0-3.198 1.389-3.198 3.52 0 2.13 1.409 3.52 3.198 3.52 1.79.005 3.198-1.39 3.198-3.52zm-9.787 0c0-3.7 2.793-6.41 6.59-6.41 3.795 0 6.588 2.71 6.588 6.41 0 3.699-2.793 6.41-6.589 6.41-3.796 0-6.589-2.711-6.589-6.41zM81.252.91v12.324h-3.3V3.669h-3.404l-.066 2.005c-.151 4.806-.78 7.763-3.79 7.763-.46 0-.968-.072-1.524-.21l.187-2.854c.151.036.303.054.46.054 1.372 0 1.626-1.832 1.729-4.615l.169-4.914h9.54V.91zm9.498 8.008c0-1.16-.714-1.604-1.845-1.604H86.82v3.418h2.085c1.119 0 1.844-.652 1.844-1.814zm3.372-.071c0 2.885-1.916 4.387-4.993 4.387h-5.604V.91h3.3v3.926h2.745c2.872 0 4.552 1.317 4.552 4.01zM104 3.67h-3.621v9.564h-3.3V3.669h-3.646V.91H104v2.76z" fill="#000"/></svg>