<svg width="56" height="20" viewBox="0 0 56 20" fill="none" xmlns="http://www.w3.org/2000/svg"><g clip-path="url(#clip0)"><path d="M16.228 2.67H2.888L3.85.007h13.34l-.962 2.665zm-.48 1.333H2.402l-.96 2.665H14.78l.967-2.665zM14.306 7.99H.961L0 10.654h13.327l.98-2.665z" fill="#009FDF"/><path d="M48.012 17.323h2.403a2.08 2.08 0 001.837-.721c.33-.435.496-.974.469-1.52a2.124 2.124 0 00-.823-1.818 2.387 2.387 0 00-1.507-.387h-2.379v4.446zm-3.153 2.683V4.003h10.324l-.907 2.684h-6.264v3.543h2.553c2.06 0 3.129.497 3.868 1.133a4.712 4.712 0 011.215 1.714c.271.657.392 1.367.352 2.077a4.64 4.64 0 01-.435 2.22 4.588 4.588 0 01-1.433 1.741c-.99.69-2.03.885-4.144.885l-5.129.006zm-9.141 0V6.68h-4.589V4.003h12.74l-.908 2.684h-4.06v13.325l-3.183-.006zm-12.715-9.594h1.802c.369.025.739-.004 1.1-.085a1.73 1.73 0 00.915-.697 1.76 1.76 0 00.285-1.12c.05-.393-.044-.79-.266-1.118a1.604 1.604 0 00-.935-.657 4.337 4.337 0 00-1.201-.109h-1.7v3.786zm0 2.768v4.197h2.198a2.35 2.35 0 001.7-.472 2.09 2.09 0 00.66-1.648c.01-.49-.137-.97-.42-1.369-.468-.605-1.045-.72-2.03-.72l-2.108.012zm5.081-1.69v.054a5.556 5.556 0 011.484.86 3.784 3.784 0 011.345 3.132c0 2.186-1.153 3.767-3.045 4.24a8.028 8.028 0 01-2.306.224H19.85V4.003h5.081a9.317 9.317 0 012.403.224c1.837.497 3.045 1.775 3.045 3.792a3.57 3.57 0 01-1.015 2.605 3.85 3.85 0 01-1.25.854l-.03.012z" fill="#0A2973"/></g><defs><clipPath id="clip0"><path fill="#fff" d="M0 0h56v20H0z"/></clipPath></defs></svg>