<svg width="51" height="58" viewBox="0 0 51 58" fill="none" xmlns="http://www.w3.org/2000/svg"><path d="M51 0H0v58h51V0z" fill="#161717"/><path d="M50.477.52H.523v56.96h49.954V.52z" fill="#fff"/><path d="M48.093 2.968H3V47.81h45.093V2.968z" fill="#DD2E27"/><path fill-rule="evenodd" clip-rule="evenodd" d="M6.22 44.461l4.882-10.39h4.671l4.864 10.389h-4.12l-.744-1.792h-4.67l-.764 1.792-4.118.001zm7.218-7.91l-1.57 3.83h3.14l-1.57-3.83zm8.255-2.48h6.646c1.616 0 2.703.279 3.259.834.556.557.837 1.16.837 1.807a1.793 1.793 0 01-.611 1.352c-.43.396-.955.678-1.524.82v.03a5.101 5.101 0 011.98.795c.619.41.926 1.029.926 1.858 0 .516-.168 1.018-.478 1.431-.318.438-.819.792-1.494 1.061-.675.27-1.52.406-2.521.406h-7.02V34.072zm3.844 4.092h1.608c.675 0 1.135-.095 1.387-.294a.861.861 0 00.375-.683.88.88 0 00-.423-.751c-.278-.192-.727-.288-1.339-.288h-1.608v2.016zm0 4.221h1.768c1.37 0 2.057-.368 2.058-1.105 0-.45-.204-.734-.616-.856a5.077 5.077 0 00-1.439-.18h-1.771v2.141zm19.335 1.6c-.998.52-2.232.78-3.711.78a9.639 9.639 0 01-2.806-.39 6.89 6.89 0 01-2.24-1.113 5.03 5.03 0 01-1.461-1.753 4.91 4.91 0 01-.523-2.245c-.011-.8.179-1.589.553-2.296a5.144 5.144 0 011.52-1.74 7.11 7.11 0 012.242-1.084 9.398 9.398 0 012.663-.369c.659 0 1.316.068 1.961.203a7.218 7.218 0 011.806.627v3.015a4.79 4.79 0 00-3.255-1.245 4.18 4.18 0 00-1.83.39 2.964 2.964 0 00-1.243 1.066 2.766 2.766 0 00-.437 1.53 2.501 2.501 0 00.427 1.43c.303.442.726.79 1.218 1.006a4.449 4.449 0 001.87.364 5.189 5.189 0 003.254-1.123l-.008 2.947z" fill="#fff"/><path fill-rule="evenodd" clip-rule="evenodd" d="M4.237 52.482h2.202c-.067-.247-.261-.446-.592-.597a2.74 2.74 0 00-1.158-.229c-.299 0-.597.034-.889.1a3.174 3.174 0 00-.8.298v-1.02c.205-.067.414-.12.626-.16a6.13 6.13 0 01.675-.098 6.52 6.52 0 01.645-.034c.459-.003.917.049 1.364.155.384.092.751.242 1.089.446.285.17.528.404.709.683.17.251.26.547.261.85.005.345-.093.684-.28.974a2.307 2.307 0 01-.766.712 3.95 3.95 0 01-1.105.431c-.42.097-.848.145-1.279.143a6.07 6.07 0 01-1.934-.287v-1.04a3.665 3.665 0 001.775.408c.31.005.619-.038.915-.13a1.49 1.49 0 00.582-.325.766.766 0 00.229-.444h-2.27v-.836zm5.994-1.621h5.231v4.154h-1.925V51.86h-1.376v1.637c.003.187-.02.373-.066.553a1.088 1.088 0 01-.308.483c-.216.19-.476.323-.757.39a5.1 5.1 0 01-1.367.15 5.165 5.165 0 01-.805-.054v-.996c.14.023.281.036.423.04.21.01.42-.023.616-.099a.51.51 0 00.27-.291c.05-.169.073-.344.067-.52l-.003-2.291zm6.638 4.154v-4.154h4.129v.998h-2.196v.579h1.99v.91h-1.99v.667h2.2v.996l-4.133.004zm5.334 0v-4.154h1.928v1.743l2.075-1.743h2.261l-2.615 2.013 2.683 2.141H26.13l-1.994-1.784v1.784h-1.933zm8.018 0V51.86h-1.508v-.998h4.956v.998h-1.515v3.156H30.22zm4.303 0v-4.154h2.9a4.74 4.74 0 011.186.13c.28.063.546.176.784.335.17.118.31.271.412.45a.985.985 0 01.13.476 1.022 1.022 0 01-.122.475c-.102.18-.245.335-.419.45a2.287 2.287 0 01-.784.339 4.57 4.57 0 01-1.177.13h-.972v1.372l-1.938-.003zm1.928-3.24v.954h.556c.629 0 .944-.158.944-.478 0-.32-.315-.476-.944-.476h-.556zm7.946 3.364a6.41 6.41 0 01-1.613-.185 3.712 3.712 0 01-1.16-.49 2.164 2.164 0 01-.694-.707c-.15-.247-.23-.53-.23-.818a1.68 1.68 0 01.411-1.077c.275-.336.691-.605 1.25-.812a6.025 6.025 0 012.035-.305 6.516 6.516 0 011.617.18c.412.096.806.26 1.164.487.28.18.514.423.685.709a1.584 1.584 0 010 1.643 2.264 2.264 0 01-.685.708 3.67 3.67 0 01-1.164.486 6.593 6.593 0 01-1.617.18zm0-.999c.29.004.578-.043.852-.136.241-.079.457-.219.627-.406a.977.977 0 00.232-.66.966.966 0 00-.233-.65 1.392 1.392 0 00-.626-.405 2.681 2.681 0 00-1.7 0 1.391 1.391 0 00-.631.395.967.967 0 00-.235.65.978.978 0 00.235.66c.169.187.385.327.626.405.274.094.563.14.852.137v.01z" fill="#161717"/></svg>