<svg width="97" height="14" viewBox="0 0 97 14" fill="none" xmlns="http://www.w3.org/2000/svg"><path d="M24.248 6.934c0 2.209 2.197 3.367 4.349 3.367 1.736 0 4.225-.788 4.225-3.243 0-1.745-1.167-2.379-2.812-2.796-1.444-.34-3.196-.293-3.196-1.25 0-.757.83-1.035 1.614-1.035.906 0 1.828.37 1.828 1.374h2.275c-.2-2.285-2.029-3.166-4.057-3.166-1.983 0-3.98.88-3.98 3.166 0 1.622 1.414 2.332 2.904 2.58 2.244.37 2.904.463 2.904 1.327 0 .912-1.29 1.128-1.705 1.128-1 0-2.029-.464-2.075-1.575h-2.274v.123zm37.678.201c-1.321 0-2.151-1.297-2.074-2.58.077-1.204.707-2.408 2.197-2.408 1.445 0 2.274 1.204 2.197 2.671-.123 1.112-.737 2.317-2.32 2.317zM64.293.263v1.034S63.678 0 61.388 0c-2.489 0-4.026 2.162-4.026 4.587 0 2.548 1.368 4.54 4.103 4.54 2.075 0 2.736-1.081 2.736-1.081l.045 1.004c-.076 1.297-.752 1.992-2.074 1.992-.952 0-1.567-.34-1.706-1.081l-2.689.17c.077 1.869 2.198 2.965 4.149 2.965 4.349 0 4.856-2.286 4.856-4.17V.263h-2.49zm-31.086 9.59h2.535V4.525c0-1.622 1.122-1.992 1.567-1.992 1.368 0 1.491 1.127 1.491 2.162v5.158h2.535V4.525c0-1.622.907-1.992 1.568-1.992 1.444 0 1.536 1.173 1.536 2.208V9.9h2.52V3.691c0-2.41-1.367-3.336-3.273-3.336-1.244 0-2.197.757-2.689 1.545C40.506.772 39.507.355 38.385.355c-1.168 0-2.12.54-2.735 1.498h-.046V.603h-2.397v9.25zm16.872-5.884c0-.34.46-1.869 2.028-1.869 1.537 0 2.029 1.421 2.029 1.869h-4.057zm6.746 1.791c.2-2.795-1.368-5.667-4.718-5.667-2.95 0-4.687 2.378-4.687 5.003 0 2.672 1.783 4.911 4.764 4.911 2.151 0 3.765-.88 4.518-3.088l-2.613-.124c-.076.34-.752 1.174-1.828 1.174-1.445 0-2.244-1.128-2.244-2.209h6.808zM11.893 9.853c0-1.668 1.368-3.042 3.028-3.042s3.027 1.374 3.027 3.042c0 1.668-1.368 3.042-3.027 3.042a3.03 3.03 0 01-3.027-3.042z" fill="#000"/><path d="M5.978 9.853c0-1.668 1.367-3.042 3.027-3.042 1.66 0 3.027 1.374 3.027 3.042 0 1.668-1.368 3.042-3.027 3.042a3.021 3.021 0 01-3.028-3.042z" fill="#000"/><path d="M0 9.853C0 8.185 1.368 6.81 3.027 6.81c1.66 0 3.027 1.374 3.027 3.042 0 1.668-1.367 3.042-3.027 3.042C1.367 12.895 0 11.521 0 9.853zm11.893-5.961c0-1.668 1.368-3.043 3.028-3.043s3.027 1.375 3.027 3.043c0 1.668-1.368 3.042-3.027 3.042a3.03 3.03 0 01-3.027-3.042z" fill="#000"/><path d="M5.978 3.892c0-1.668 1.367-3.043 3.027-3.043 1.66 0 3.027 1.375 3.027 3.043 0 1.668-1.368 3.042-3.027 3.042a3.021 3.021 0 01-3.028-3.042zm11.801 0c0-1.668 1.367-3.043 3.027-3.043 1.66 0 3.027 1.375 3.027 3.043 0 1.668-1.367 3.042-3.027 3.042-1.66 0-3.027-1.374-3.027-3.042z" fill="#000"/><path d="M76.547 14c2.22 0 4.02-1.804 4.02-4.028 0-2.225-1.8-4.029-4.02-4.029a4.025 4.025 0 00-4.02 4.029c0 2.224 1.8 4.028 4.02 4.028z" fill="#0C9933"/><path d="M84.938 14c2.22 0 4.02-1.804 4.02-4.028 0-2.225-1.8-4.029-4.02-4.029a4.025 4.025 0 00-4.02 4.029c0 2.224 1.8 4.028 4.02 4.028z" fill="#000"/><path d="M92.98 14C95.2 14 97 12.196 97 9.972c0-2.225-1.8-4.029-4.02-4.029a4.025 4.025 0 00-4.022 4.029A4.026 4.026 0 0092.98 14z" fill="#E02133"/></svg>