<svg width="104" height="26" viewBox="0 0 104 26" fill="none" xmlns="http://www.w3.org/2000/svg"><path d="M31.814 13.062a3.685 3.685 0 013.715-3.732 3.575 3.575 0 012.773 1.136.137.137 0 010 .188l-.833.899a.136.136 0 01-.197 0 2.338 2.338 0 00-1.758-.79 2.153 2.153 0 00-2.062 2.3 2.179 2.179 0 002.145 2.298 2.455 2.455 0 001.761-.799.136.136 0 01.19 0l.8.786a.137.137 0 01.006.19 3.59 3.59 0 01-2.84 1.24 3.652 3.652 0 01-3.7-3.716zM40.2 9.478h1.368a.136.136 0 01.137.136v1.474A2.543 2.543 0 0144.1 9.34a.142.142 0 01.14.14l.002 1.464a.135.135 0 01-.133.132c-1.533.05-2.404.981-2.404 2.822v2.583a.136.136 0 01-.136.136H40.2a.136.136 0 01-.136-.136V9.615a.137.137 0 01.136-.137zm10.245 3.069c-.106-1.053-.73-1.878-1.816-1.878a1.934 1.934 0 00-1.856 1.878h3.672zm-5.274.01a3.554 3.554 0 013.412-3.227c2.27-.034 3.656 1.792 3.475 4.171a.14.14 0 01-.139.129h-5.134a1.997 1.997 0 002.061 1.81 2.55 2.55 0 001.85-.765.137.137 0 01.181-.004l.77.68a.139.139 0 01.013.194 3.62 3.62 0 01-2.84 1.233c-2.223 0-3.9-1.723-3.649-4.221zm14.098.478a2.145 2.145 0 00-2.074-2.286 2.104 2.104 0 00-2.06 2.313 2.125 2.125 0 002.06 2.283 2.16 2.16 0 002.074-2.31zm-5.789 0c0-2.366 1.612-3.705 3.324-3.705a2.965 2.965 0 012.439 1.26V6.882a.136.136 0 01.135-.136h1.37a.135.135 0 01.135.137v9.599a.136.136 0 01-.136.136H59.38a.136.136 0 01-.135-.136V15.43a2.869 2.869 0 01-2.44 1.337c-1.682 0-3.323-1.338-3.323-3.732zm14.023 1.609v-3.758h-.774a.135.135 0 01-.135-.135V9.616a.135.135 0 01.135-.136h.774V7.654a.137.137 0 01.136-.136h1.367a.137.137 0 01.135.136v1.825h1.79a.135.135 0 01.136.135v1.135a.133.133 0 01-.04.096.136.136 0 01-.096.04h-1.79v3.499a.782.782 0 00.884.892c.283.002.563-.051.826-.156a.137.137 0 01.128.009.135.135 0 01.062.112v1.047a.14.14 0 01-.072.122 2.894 2.894 0 01-1.406.327c-1.207.002-2.06-.524-2.06-2.093zm8.198-1.582a3.689 3.689 0 013.716-3.732 3.58 3.58 0 012.774 1.136.138.138 0 01.001.188l-.832.898a.136.136 0 01-.196.002 2.34 2.34 0 00-1.76-.79 2.15 2.15 0 00-2.061 2.298 2.176 2.176 0 002.143 2.299 2.467 2.467 0 001.764-.8.136.136 0 01.19 0l.799.787a.138.138 0 01.004.19 3.589 3.589 0 01-2.84 1.24 3.653 3.653 0 01-3.702-3.716zm8.364-6.315h1.37a.136.136 0 01.135.137v9.599a.136.136 0 01-.136.136h-1.37a.134.134 0 01-.124-.084.135.135 0 01-.01-.052v-9.6a.134.134 0 01.135-.136zm3.803 7.273V9.614a.136.136 0 01.136-.135h1.37a.137.137 0 01.136.135v3.92c0 1.11.558 1.743 1.533 1.743a1.59 1.59 0 001.614-1.769V9.615a.136.136 0 01.136-.135h1.369a.135.135 0 01.136.135v6.868a.136.136 0 01-.136.136h-1.369a.135.135 0 01-.126-.084.137.137 0 01-.01-.052v-.974a2.582 2.582 0 01-2.237 1.259c-1.615-.001-2.552-1.084-2.552-2.748zm14.462-.985a2.127 2.127 0 00-.533-1.582 2.113 2.113 0 00-1.513-.704 2.162 2.162 0 00-2.089 2.313 2.148 2.148 0 002.089 2.283 2.106 2.106 0 001.529-.707 2.101 2.101 0 00.517-1.603zm-4.095 2.473v.973a.135.135 0 01-.136.137h-1.367a.135.135 0 01-.126-.084.136.136 0 01-.01-.053V6.883a.137.137 0 01.136-.136H98.1a.136.136 0 01.136.136v3.786a2.866 2.866 0 012.428-1.34c1.697 0 3.336 1.34 3.336 3.733 0 2.367-1.627 3.705-3.336 3.705a2.926 2.926 0 01-2.428-1.26zm-34.838-6.03h1.37a.137.137 0 01.136.136v6.867a.136.136 0 01-.137.136h-1.37a.136.136 0 01-.136-.136V9.615a.137.137 0 01.137-.137zm-.083-2.436a2.66 2.66 0 00.002 1.048.303.303 0 00.237.237 2.7 2.7 0 001.052-.002.302.302 0 00.237-.236 2.66 2.66 0 00-.002-1.048.297.297 0 00-.237-.236 2.699 2.699 0 00-1.052 0 .303.303 0 00-.237.237zm9.68 8.254c-.069.346-.068.703.002 1.049a.3.3 0 00.237.236 2.7 2.7 0 001.052-.001.301.301 0 00.237-.237c.07-.346.07-.702-.001-1.048a.294.294 0 00-.129-.191.313.313 0 00-.108-.046 2.7 2.7 0 00-1.052.002.297.297 0 00-.192.128.282.282 0 00-.045.108z" fill="#343434"/><path d="M.012 0h26.07v25.999H.012V0z" fill="#fff"/><path d="M1.542 2.886A4.803 4.803 0 014.616.836 43.141 43.141 0 0121.441.82a4.865 4.865 0 013.078 2.044 4.78 4.78 0 01.72 1.738 42.783 42.783 0 01.02 16.776l-.005-.002a4.803 4.803 0 01-3.794 3.789 43.174 43.174 0 01-16.823.016 4.84 4.84 0 01-3.078-2.045 4.785 4.785 0 01-.72-1.739A42.792 42.792 0 01.821 4.623a4.8 4.8 0 01.72-1.737z" fill="#1CA8E3"/><path d="M20.049 19.206a.116.116 0 00.002-.166l-.991-.99a.11.11 0 00-.153-.002 1.522 1.522 0 01-2.078-2.221 1.569 1.569 0 012.078-.07.11.11 0 00.152-.002l.993-.99a.117.117 0 00-.002-.167 3.14 3.14 0 10-.002 4.608zm-8.764-7.803a.115.115 0 00.036-.083.118.118 0 00-.034-.083l-.993-.988a.11.11 0 00-.152-.002 1.568 1.568 0 01-2.078-.072 1.52 1.52 0 012.078-2.222.11.11 0 00.152-.003l.992-.99a.115.115 0 00-.002-.166 3.161 3.161 0 00-4.37.083 3.147 3.147 0 004.371 4.526zm-4.064 8.562L20.056 7.168a.112.112 0 00.024-.123.112.112 0 00-.024-.037l-.99-.988a.113.113 0 00-.161 0L6.07 18.817a.112.112 0 000 .16l.99.987a.116.116 0 00.16 0z" fill="#fff"/></svg>