<svg width="48" height="24" viewBox="0 0 48 24" fill="none" xmlns="http://www.w3.org/2000/svg"><path d="M3.158 8.86c-1.263 0-1.895 0-3.158-.05 0 4.963 0 9.976.053 14.94 3.579-.402 7.158-.753 10.737-1.003V20.34c-2.58.15-5.106.351-7.685.552.053-4.01.053-8.021.053-12.031zm12.895 13.586V8.71H13v13.836c0 .05 2-.05 3.053-.1zm9.842-3.409c-1.737-3.308-3.527-6.767-5.316-10.076-.105-.15-.263-.301-.474-.301-1.105 0-1.737 0-2.947.05 2.474 4.562 4.947 9.124 7.42 13.636 1.054 0 1.58 0 2.58.05 2.368-4.562 4.684-9.174 7.053-13.786h-2.79c-.21 0-.368.1-.474.3-.631 1.354-3.473 7.07-5.052 10.127zm9.895 3.76c4.105.35 8.157.652 12.21 1.203v-2.657c-3.053-.3-6.053-.451-9.105-.702v-3.559c3.052.15 4.526.2 7.579.35v-2.506l-7.58-.25v-3.359c3.632 0 5.474 0 9.106-.05V8.61c-4.895 0-7.316.05-12.21.05v14.137zm.736-19.852a270.869 270.869 0 014 3.46h.58V.488c-.527.05-.738.05-1.264.1v3.51C38.58 2.994 37.316 1.942 36 .838c-.316 0-.474.05-.737.05v5.666c.526 0 .737 0 1.263-.05v-3.56zm8.421.802c.79-.05 1.158-.1 1.948-.15v.902c-.106.1-.21.2-.369.25a1.592 1.592 0 01-.42.201l-.474.15c-.158.05-.316.05-.527.05-.263 0-.526 0-.79-.1-.262-.1-.473-.2-.63-.4a2.046 2.046 0 01-.422-.652 2.242 2.242 0 01-.158-.852c0-.301.053-.602.158-.853.105-.25.21-.5.421-.651.158-.2.369-.351.632-.451.79-.401 1.842-.301 2.631.05 0 .15.106.2.21.25.106.05.317.05.37-.1.157-.3.262-.451.42-.702 0 0-.473-.25-.79-.4-.315-.151-.63-.201-1-.251-.789-.1-1.578 0-2.315.3-.368.15-.737.401-1.053.652-.315.3-.578.602-.736 1.003-.21.4-.264.852-.264 1.353 0 .502.106.953.264 1.304.21.35.42.701.736.952.316.25.632.451 1 .552.369.1.737.15 1.158.15.369 0 .737-.05 1.053-.2.316-.1.632-.201.842-.352.263-.15.474-.25.632-.4.158-.15.316-.251.42-.351V2.494c-1.105.1-1.736.15-2.789.25-.158 0-.263.1-.263.251.105.301.105.451.105.752zM.842 3.196c.526.3 1.105.4 1.684.501.527.1 1.158.15 1.58.451.473.351.157.903-.317 1.103a2.59 2.59 0 01-1.631.1c-.474-.15-.947-.35-1.369-.651-.157-.05-.368 0-.42.15-.106.3-.264.702-.264.702l.21.15c.37.251.79.452 1.264.602.842.3 1.895.3 2.79-.05.368-.15.736-.351 1-.702.21-.3.263-.752.21-1.103-.105-.952-.947-1.404-1.79-1.654-.473-.1-.894-.15-1.368-.25-.316-.051-1.053-.201-1.158-.602-.105-.401.21-.652.632-.752.42-.1.894-.05 1.316 0 .473.1.947.25 1.42.5.053 0 .106.051.158.101.106.1.316.05.369-.1.105-.2.21-.351.316-.552 0 0-.158-.1-.21-.15-.106-.05-.211-.15-.317-.2L4.316.489A3.988 3.988 0 003.053.138C2.105-.012.789.038.21.89c-.21.35-.263.852-.157 1.253.105.451.368.852.79 1.053zm9.842.15c-1.158-.05-1.737-.1-2.947-.15V.689C7.21.64 6.947.64 6.42.59v5.966c.526 0 .79 0 1.316.05V4.249c1.158.05 1.737.05 2.947.1v2.306H12V.94c-.526-.05-.79-.05-1.316-.05v2.456zm5.579 2.507a2.67 2.67 0 01-.947-.15 2.21 2.21 0 01-.737-.452c-.21-.2-.369-.4-.474-.652a1.991 1.991 0 010-1.554c.106-.25.263-.45.474-.601.21-.15.421-.3.737-.401.263-.1.579-.1.947-.1.316 0 .632.05.947.2.264.1.527.25.737.451.21.2.369.401.474.652.105.25.158.501.158.802 0 .25-.053.551-.158.752a1.38 1.38 0 01-.474.602c-.21.15-.42.3-.736.4-.316.05-.632.05-.948.05zm2.369.3c.315-.25.578-.55.79-.902.21-.35.315-.802.315-1.253 0-.451-.105-.902-.316-1.253-.21-.351-.474-.702-.79-.953a3.837 3.837 0 00-1.105-.601c-.42-.15-.842-.2-1.263-.251-.42 0-.842.05-1.263.15-.421.1-.79.251-1.105.502-.316.25-.58.551-.79.902-.21.35-.316.802-.316 1.303 0 .502.106.953.316 1.304.21.35.474.702.79.952.316.25.684.451 1.105.602.421.15.842.2 1.263.2.421 0 .842-.05 1.263-.15.421-.15.79-.3 1.106-.551zm3.158-3.91h1.684c.158 0 .368 0 .473.05.158.05.264.15.369.201.105.1.158.2.21.3a.896.896 0 01.106.352c0 .15-.053.25-.106.4-.052.101-.158.201-.263.302-.158.1-.263.15-.42.2-.159.05-.317.05-.527.05H21.79V2.243zm0 2.808h1.736c.316 0 .632-.05.948-.15.316-.101.526-.201.79-.402.21-.15.42-.35.526-.601.105-.251.21-.502.21-.802 0-.301-.053-.602-.21-.803-.106-.25-.316-.45-.527-.601-.21-.15-.474-.3-.79-.351-.315-.1-.63-.15-.947-.15h-3v5.514h1.316c-.052-.652-.052-.953-.052-1.654zm6.105-2.858c.684 0 1.052 0 1.684-.05.158 0 .368 0 .474.05.157.05.263.1.368.2.105.101.158.201.21.302.053.1.106.25.106.35 0 .15-.053.251-.105.401-.053.1-.158.251-.264.301-.105.1-.263.15-.42.2-.159.05-.316.101-.527.101-.631 0-.947 0-1.526.05V2.193zm0 2.858c.684 0 1.052 0 1.737-.05.315 0 .631-.05.947-.15.316-.101.526-.252.79-.402.21-.15.42-.401.526-.601.105-.251.21-.502.21-.803 0-.3-.052-.601-.21-.852-.105-.25-.316-.451-.527-.601-.263-.15-.526-.301-.842-.351-.316-.1-.631-.1-.947-.1-1.21.05-1.79.05-3 .05v5.514h1.316V5.051zM34.105.94c-.526.05-.737.05-1.263.05v5.615c.526 0 .737 0 1.263-.05V.94z" fill="#FF3D29"/></svg>