<svg width="110" height="12" viewBox="0 0 110 12" fill="none" xmlns="http://www.w3.org/2000/svg"><path d="M11.45 2.272C11.7.938 11.3.049 9.7.049H4.75L4.3 2.321h4.2c.25 0 .35.148.3.444l-.55 2.766h-2.6l.4-1.926L0 6.469h4.5l-.4 1.926L8.05 6.52l-.5 2.716c-.05.296-.2.395-.5.395h-4.2l-.45 2.32h4.95c1.6 0 2.35-.938 2.6-2.222l1.5-7.456zm8.15 9.679L21.95 0h-5.5c-1.6 0-2.4.938-2.65 2.222L11 11.951h2.7l2.55-9.186c.05-.296.2-.444.45-.444h2.2l-1.9 9.63h2.6zm8.75-5.531l-.55 2.913c-.05.297-.25.445-.5.445h-2.2l.75-3.803h2.2c.3.05.4.148.3.445zM31 6.123c.25-1.333-.15-2.271-1.75-2.271H26.3l.75-3.803h-2.6L22.1 12h5.55c1.65 0 2.35-.938 2.65-2.222l.7-3.655zm8.55-3.802L38.1 9.63h-2.75l1.9-6.865c.05-.296.2-.444.45-.444h1.85zM40.7 9.63L42.6 0h-5.2c-1.6 0-2.4.938-2.65 2.222l-2.1 7.358h-1.1l-.5 2.321H41l.45-2.32h-.75v.049zm9-6.865l-1.25 6.47c-.1.296-.25.395-.5.395H46.1c-.25 0-.35-.1-.3-.395l1.3-6.47c.05-.296.15-.444.45-.444h1.85c.25 0 .35.148.3.444zm2.65-.493C52.6.938 52.2.049 50.6.049h-3.3c-1.6 0-2.4.939-2.7 2.223l-1.45 7.456c-.25 1.334.15 2.223 1.75 2.223h3.35c1.65 0 2.4-.939 2.65-2.223l1.45-7.456zm7.35.493l-.6 2.963c-.05.346-.2.445-.5.445h-2.2l.8-3.852h2.2c.25 0 .35.148.3.444zm2.65-.493C62.65.938 62.2.049 60.6.049h-5.5L52.75 12h2.5l.7-3.457h3c1.6 0 2.25-.938 2.55-2.271l.85-4zm5.3.888l-.4 4.642h-1.8L67.5 3.16h.15zm2.15 8.79L70.1 0h-3.5l-5.8 11.95h2.8l.95-2.222h2.5l-.2 2.223h2.95zm9.55-9.629L77.9 9.63h-2.75l1.9-6.865c.05-.296.2-.444.45-.444h1.85zM80.5 9.63L82.4 0h-5.2c-1.6 0-2.4.938-2.65 2.222l-2.1 7.358h-1.1l-.5 2.321h9.95l.45-2.32h-.75v.049zm9.3-6.865l-1.3 6.47c-.05.296-.2.395-.45.395H86.2c-.25 0-.35-.1-.3-.395l1.25-6.47c.1-.296.25-.444.45-.444h1.85c.25 0 .4.148.35.444zM90.65.05H87.3c-1.6 0-2.35.939-2.6 2.223l-1.45 7.456c-.25 1.334.15 2.223 1.75 2.223h3.35c1.6 0 2.35-.939 2.6-2.223l1.5-7.456c.2-1.334-.2-2.223-1.8-2.223zm4.3 9.186L94.4 12h-2.55l.55-2.765h2.55zm13.75 1.037c-.2.987-.75 1.679-1.95 1.679h-2.15c-1.2 0-1.5-.692-1.3-1.68l1.3-6.666h1.85l-1.25 6.37c-.05.149 0 .247.1.247h1.35c.15 0 .2-.05.25-.247l1.25-6.37H110l-1.3 6.667zm-7.9-4.741l-.45 2.074c-.05.247-.15.296-.35.296h-1.5l.55-2.666h1.55c.15 0 .25.098.2.296zm.6-1.926h-3.85L95.9 11.95h1.75l.5-2.42H99l.4 2.42h1.95l-.5-2.47c.7-.197 1.05-.79 1.2-1.53l.55-2.766c.25-.938-.05-1.58-1.2-1.58z" fill="#ED3342"/></svg>