<svg width="109" height="18" viewBox="0 0 109 18" fill="none" xmlns="http://www.w3.org/2000/svg"><path d="M7.64 11.638c1.423 0 2.577-1.181 2.577-2.638 0-1.457-1.154-2.638-2.578-2.638-1.423 0-2.577 1.181-2.577 2.638 0 1.457 1.154 2.638 2.577 2.638z" fill="#FFD240"/><path d="M11.397 7.572v3.725l-3.758 2.265-3.788-2.265V7.448L.124 5.245V13.5l7.515 4.469 7.484-4.469V5.369l-3.726 2.203z" fill="#FFD240"/><path d="M7.608.031L.683 4.159l3.789 2.234 3.136-1.862 3.26 1.924 3.79-2.234L7.608.03zM22.949 4.5c1.925 0 2.92 1.49 2.92 3.01 0 1.521-.964 2.98-2.92 2.98h-1.988v2.979h-1.304V4.5h3.292zm0 4.717c1.087 0 1.615-.838 1.615-1.707 0-.869-.528-1.707-1.615-1.707h-1.988v3.383h1.988v.031zm9.13-2.389c-.186-.807-1.056-1.149-1.832-1.149-.59 0-1.273.218-1.615.683-.187.217-.249.528-.218.838.063.931 1.087 1.024 2.05 1.117 1.242.155 2.764.466 3.105 1.924.031.187.063.404.063.59 0 1.738-1.708 2.731-3.323 2.731-1.398 0-3.075-.807-3.23-2.42v-.249l1.304-.03v.185-.062c.094.838 1.118 1.273 1.926 1.273.962 0 2.018-.528 2.018-1.459 0-.093 0-.186-.03-.31-.156-.683-1.088-.807-1.988-.9-1.398-.155-3.044-.435-3.168-2.328-.062-.59.093-1.21.497-1.707.59-.776 1.677-1.18 2.733-1.18 1.397 0 2.826.715 3.043 2.36l-1.335.093zM35.433 4.5l2.453 3.941L40.339 4.5h1.553l-3.323 5.307v3.662h-1.304V9.838L33.942 4.53h1.49V4.5zm7.825 1.303a4.34 4.34 0 013.106-1.334c2.05 0 3.664 1.272 4.192 3.32h-1.273c-.466-1.334-1.584-2.017-2.888-2.017-.87 0-1.646.373-2.205.962a3.343 3.343 0 00-.932 2.297c0 .9.373 1.707.932 2.297.559.59 1.335.962 2.205.962 1.366 0 2.515-.776 2.981-2.142h1.273c-.528 2.049-2.142 3.414-4.254 3.414a4.341 4.341 0 01-3.106-1.334 4.637 4.637 0 01-1.273-3.197c-.062-1.272.466-2.39 1.242-3.228zm10.031 2.514h3.788V4.531h1.305V13.5h-1.304V9.59h-3.79v3.91h-1.303V4.531h1.304v3.786zM60.99 5.71a4.603 4.603 0 013.261-1.365c1.273 0 2.422.527 3.292 1.365A4.721 4.721 0 0168.878 9c0 1.303-.528 2.42-1.335 3.29-.839.869-1.988 1.365-3.292 1.365a4.603 4.603 0 01-3.26-1.365A4.721 4.721 0 0159.654 9c0-1.303.497-2.452 1.335-3.29zm5.621.931a3.285 3.285 0 00-2.36-.993c-.9 0-1.708.373-2.33.993A3.328 3.328 0 0060.96 9c0 .931.373 1.769.963 2.359.59.62 1.428.993 2.329.993.9 0 1.739-.373 2.36-.993.59-.59.963-1.397.963-2.359a3.33 3.33 0 00-.963-2.359zm6.801-2.11c2.95 0 4.41 2.235 4.41 4.5 0 2.234-1.491 4.469-4.41 4.469h-3.23V4.531h3.23zm0 7.666c2.08 0 3.136-1.583 3.136-3.166s-1.055-3.197-3.136-3.197h-1.925v6.363h1.925zm6.988 0h4.16V13.5h-5.465V4.531h5.465v1.304H80.4v2.513h4.067v1.304H80.4v2.545zm6.862 1.272h-1.304V4.5h1.056l2.95 4.345 2.95-4.345h1.025v8.969h-1.273v-6.3l-2.36 3.476h-.746l-2.298-3.476v6.3zM99.87 5.741h-1.677v6.487h1.677v1.241h-4.627v-1.241h1.677V5.74h-1.677V4.5h4.627v1.241zm6.77 5.463h-3.633l-.87 2.265h-1.397l3.602-9.093h.963l3.602 9.093h-1.398l-.869-2.265zm-3.168-1.21h2.702l-1.335-3.539-1.367 3.538z" fill="#282828"/></svg>