<svg width="119" height="22" viewBox="0 0 119 22" fill="none" xmlns="http://www.w3.org/2000/svg"><g clip-path="url(#clip0)"><path d="M19.612 7.6l-2.278 2.295a7.21 7.21 0 01.24 1.822 7.354 7.354 0 01-1.483 4.427 7.332 7.332 0 01-3.846 2.637l-.278.073a7.313 7.313 0 01-6.555-1.585 7.339 7.339 0 01-2.485-6.279 7.347 7.347 0 013.69-5.653 7.315 7.315 0 016.739-.238l2.16-2.163A10.23 10.23 0 003.088 4.393a10.279 10.279 0 00-1.754 12.41 10.25 10.25 0 004.941 4.396 10.228 10.228 0 0012.094-3.211 10.275 10.275 0 002.12-6.27c-.002-1.42-.3-2.823-.878-4.118z" fill="#2F80ED"/><path d="M24.355 0c-7.819 3.554-13.866 11.668-13.866 11.668L8.204 7.512l-2.916 2.922 3.819 4.455s.52.64 1.614 1.895C17.258 3.412 24.355 0 24.355 0z" fill="#47D31A"/><path d="M27.135 11.727c0-2.956 2.33-5.376 5.534-5.376 3.204 0 5.495 2.389 5.495 5.376 0 2.988-2.325 5.377-5.526 5.377-3.201 0-5.503-2.393-5.503-5.377zm8.644 0a3.162 3.162 0 00-1.9-3.01 3.147 3.147 0 00-1.224-.259c-1.84 0-3.125 1.457-3.125 3.27a3.163 3.163 0 001.916 3.013 3.15 3.15 0 001.23.252c1.83 0 3.103-1.454 3.103-3.266zm5.223 5.2l-.163 1.871h-1.9v-3.805h.862c.666-1.426.77-3.429.77-5.345v-.696h6.496v6.041h1.083l-.264 3.805h-1.899v-1.871h-4.985zm3.819-1.934v-4.097h-2.142v.178c0 1.35-.104 2.747-.594 3.92h2.736zm4.026-2.035c0-2.285 1.836-4.142 4.315-4.142s4.284 1.826 4.284 4.142c0 2.316-1.84 4.146-4.315 4.146-2.475 0-4.284-1.826-4.284-4.146zm6.374 0a2.118 2.118 0 00-1.264-2.021 2.11 2.11 0 00-.82-.177c-1.29 0-2.061.995-2.061 2.198a2.118 2.118 0 001.264 2.021c.258.114.537.174.819.177 1.291 0 2.062-.995 2.062-2.198zm3.485-.608c0-2.39.347-4.932 3.337-5.481l4.242-.786.347 1.78-4.357.863c-1.468.296-1.867 1.113-1.926 1.871.295-.518 1.26-1.335 2.888-1.335a3.775 3.775 0 013.491 2.367c.187.463.28.959.276 1.458a4.05 4.05 0 01-2.586 3.759 4.033 4.033 0 01-1.58.268c-2.663-.01-4.132-1.704-4.132-4.764zm6.097.758a1.997 1.997 0 00-1.944-2.087c-1.143 0-1.913.922-1.913 2.087a1.977 1.977 0 001.944 2.048c1.156 0 1.913-.897 1.913-2.048zm3.677-4.146h2.253v1.145a2.926 2.926 0 012.496-1.29c1.85 0 3.618 1.453 3.618 4.141 0 2.689-1.736 4.115-3.618 4.115a3.059 3.059 0 01-2.479-1.186v3.415h-2.253l-.017-10.34zm6.096 3.969c0-1.322-.892-2.198-1.944-2.198s-1.927.876-1.927 2.225c0 1.35.875 2.198 1.927 2.198s1.944-.859 1.944-2.226zm11.151 3.996h-2.18v-4.636l-3.1 4.636h-2.118V8.963h2.19v4.65l3.1-4.65h2.108v7.964zm1.882-7.964h2.284l2.149 3.342 2.18-3.342h2.284v7.964h-2.284v-4.785l-2.208 3.269-2.18-3.238v4.754h-2.225V8.963zm10.901 6.402h1.364v1.561h-1.365v-1.561zm3.617-6.117h1.142v1.533c.621-.921 1.528-1.707 2.937-1.707 1.837 0 3.659 1.454 3.659 4.01s-1.808 4.006-3.655 4.006a3.467 3.467 0 01-2.937-1.634v3.846h-1.142l-.004-10.054zm6.569 3.825c0-1.812-1.247-2.97-2.698-2.97a2.859 2.859 0 00-2.011.914 2.881 2.881 0 00-.767 2.074 2.88 2.88 0 00.769 2.066 2.853 2.853 0 002.009.904c1.482.003 2.698-1.106 2.698-2.984v-.004zm2.374 5.887l.386-.907c.368.198.782.295 1.201.282.694 0 1.11-.348 1.572-1.44l-3.472-7.651h1.261l2.777 6.399 2.461-6.4h1.216l-3.219 7.93c-.649 1.59-1.389 2.17-2.548 2.17a3.507 3.507 0 01-1.635-.382z" fill="#000"/></g><defs><clipPath id="clip0"><path fill="#fff" d="M0 0h119v22H0z"/></clipPath></defs></svg>