<svg width="63" height="25" viewBox="0 0 63 25" fill="none" xmlns="http://www.w3.org/2000/svg"><path d="M62.946.053A14.441 14.441 0 0061.876 0c-3.32 0-9.077.824-13.682 11.056h.857C47.71 3.88 42.759 0 36.949 0c-3.08 0-5.703.957-8.006 2.95-2.035 1.754-3.963 4.386-5.997 8.266-3.213 6.166-5.784 9.302-10.844 9.302-4.74 0-8.595-3.827-8.595-8.531 0-4.705 3.695-8.532 7.711-8.532 2.089 0 4.82.718 6.453 3.163l2.41-3.668A12.37 12.37 0 0012.102 0C5.435 0 0 5.395 0 12.013s5.435 12.014 12.102 12.014c3.32 0 9.023-.665 13.735-11.482H24.9c1.74 9.063 7.765 11.482 12.075 11.482 8.14 0 11.968-7.31 14.003-11.19 3.24-6.192 5.837-9.329 10.898-9.329.374 0 .75.027 1.124.08L62.946.053zM28.408 12.518c-.402-3.64 1.526-6.06 3.668-7.574 1.472-1.01 3.079-1.462 4.9-1.462 4.738 0 8.594 3.827 8.594 8.531 0 4.705-3.856 8.532-8.595 8.532-3.641-.027-7.952-2.419-8.567-8.027z" fill="#000"/></svg>