<svg width="80" height="15" viewBox="0 0 80 15" fill="none" xmlns="http://www.w3.org/2000/svg"><path d="M46.566 0H33.803l6.382 6.72L46.566 0z" fill="#D65D8B"/><path d="M33.803 14.951h12.763l-6.381-6.72-6.382 6.72z" fill="#FFEA47"/><path fill-rule="evenodd" clip-rule="evenodd" d="M1.017 0H0v14.951h1.017V1.948l5.642 8.62h.046l5.642-8.62v13.003h1.063V0h-1.017L6.705 8.864 1.017 0zm23.307 0H23.26v14.951h1.064V0zM57.11 0h-1.064v14.951h1.064V0zm9.803 1.023h6.058V14.95h1.064V1.023H80V0H66.913v1.023zM33.755.003l-.72.757 6.419 6.76-6.367 6.704.72.758 6.366-6.705 6.334 6.67.72-.757-6.335-6.67L47.278.792 46.56.036l-6.386 6.726-6.419-6.76z" fill="#000"/><path d="M33.063.78v13.44l6.382-6.72L33.063.78z" fill="#7CC3E3"/><path d="M47.26 14.22V.78L40.878 7.5l6.382 6.72z" fill="#8072AF"/></svg>