<svg width="55" height="24" viewBox="0 0 55 24" fill="none" xmlns="http://www.w3.org/2000/svg"><path d="M12.07 24c6.66 0 12.068-5.366 12.068-11.997C24.138 5.37 18.73 0 12.07 0 5.4 0 0 5.371 0 12.003 0 18.633 5.399 24 12.07 24z" fill="#A50034"/><path d="M11.583 6.735v10.53h3.364v-.947h-2.394V6.735h-.97zM8.215 9.608c.8 0 1.446-.647 1.446-1.438a1.445 1.445 0 00-2.891 0c0 .791.645 1.438 1.445 1.438z" fill="#fff"/><path d="M12.553 1.959a13.096 13.096 0 00-.48-.014C6.5 1.945 1.967 6.458 1.967 11.998c0 2.69 1.05 5.213 2.954 7.11a10.094 10.094 0 007.15 2.937 10.07 10.07 0 007.136-2.938 9.957 9.957 0 002.964-7.11v-.447h-7.215v.926h6.253c0 .02 0 .118-.005.144-.318 4.736-4.293 8.487-9.133 8.487a9.113 9.113 0 01-6.476-2.67 8.986 8.986 0 01-2.69-6.44 9.02 9.02 0 012.69-6.442 9.124 9.124 0 016.476-2.667c.106 0 .362 0 .48.006V1.96z" fill="#fff"/><path d="M33.215 4.04h-3.627v15.623h11.14v-3.041h-7.513V4.04zm15.49 9.67h2.954v2.73c-.544.207-1.606.413-2.617.413-3.264 0-4.351-1.65-4.351-5 0-3.196 1.035-5.08 4.3-5.08 1.813 0 2.85.568 3.703 1.65l2.255-2.062c-1.373-1.958-3.783-2.55-6.036-2.55-5.079 0-7.747 2.757-7.747 8.015 0 5.233 2.41 8.068 7.721 8.068 2.435 0 4.818-.618 6.113-1.52v-7.578h-6.295v2.913z" fill="#6B6B6B"/></svg>