<svg width="70" height="12" viewBox="0 0 70 12" fill="none" xmlns="http://www.w3.org/2000/svg"><path d="M23.8.249V11.75h-3.733V7.212h-3.934v4.54h-3.8V.248h3.734v4.539H20v-4.6h3.8v.062zm13.066 9.14V.249h-3.733V11.75h6.8l.533-2.3-3.6-.062zM30.333.249H26.6V11.75h3.733V.25zm15.267 0h-3.734V11.75H45.6V.25zM64.133 3.17c0-.622.666-.933 1.733-.933 1.2 0 2.467.249 3.333.56L68.866.31C67.866.124 67 0 65.4 0c-3.067 0-5.134 1.12-5.134 3.482 0 4.041 5.867 3.233 5.867 5.098 0 .746-.6 1.12-1.933 1.12-1.267 0-3.134-.374-4.267-.933l.4 2.673c1.133.373 2.666.56 3.933.56C67.4 12 70 11.067 70 8.145c.067-3.855-5.866-3.17-5.866-4.974zm-4.867 1.181c0 2.923-2.2 4.601-5.733 4.601H52.2v2.736h-3.734V.25c1.267-.126 3.067-.25 4.6-.25 3.8 0 6.2 1.12 6.2 4.352zm-3.733.063c0-1.43-.867-2.239-2.733-2.239h-.6v4.726h.6c1.933 0 2.733-.995 2.733-2.487zM10.8 4.352c0 2.923-2.2 4.601-5.733 4.601H3.733v2.736H0V.25C1.267.124 3.067 0 4.6 0c3.867 0 6.2 1.12 6.2 4.352zm-3.667.063c0-1.43-.866-2.239-2.733-2.239h-.6v4.726h.6c1.933 0 2.733-.995 2.733-2.487z" fill="#0B5ED7"/></svg>