<svg width="36" height="36" viewBox="0 0 36 36" fill="none" xmlns="http://www.w3.org/2000/svg"><path d="M0 5.786A5.786 5.786 0 015.786 0h24.428A5.786 5.786 0 0136 5.786v24.428A5.786 5.786 0 0130.214 36H5.786A5.786 5.786 0 010 30.214V5.786z" fill="url(#paint0_linear_7705_48088)"/><path d="M16.624 10.125c-.515.711-1.21 1.234-2.421 1.234-1.562 0-2.82-1.195-2.82-2.843 0-1.593 1.226-2.843 2.882-2.843 1.117 0 1.812.484 2.296 1.156l-1.109.86c-.312-.391-.68-.633-1.202-.633-.766 0-1.305.648-1.305 1.46 0 .82.54 1.46 1.305 1.46.57 0 .906-.265 1.234-.663l1.14.812zM5.741 11.25h1.516V7.11h1.64V5.783H4.1V7.11h1.64v4.14zm3.579 0h1.523V5.783H9.32v5.467zm7.683 0h1.515V9.836l.554-.617 1.375 2.031h1.82l-2.14-3.116 2.07-2.351H20.4L18.518 8V5.783h-1.515v5.467zm9.868 0h-4.436V5.783h4.397V7.07h-2.898v.83h2.625v1.195h-2.625v.867h2.937v1.289zm1.993 0h1.358V7.11h1.48V5.783h-4.477V7.11h1.64v4.14zM4.406 18h4.163v-1.328H5.92v-4.14H4.406V18z" fill="#fff"/><path fill-rule="evenodd" clip-rule="evenodd" d="M10.337 18H8.829l2.202-5.507h1.382L14.615 18h-1.537l-.377-.976h-1.995l-.37.976zm1.374-3.71l-.584 1.554h1.16l-.576-1.554z" fill="#fff"/><path d="M15.01 18h1.5v-3l2.336 3h1.328v-5.467h-1.5v2.89l-2.25-2.89h-1.413V18z" fill="#fff"/><path fill-rule="evenodd" clip-rule="evenodd" d="M22.97 18h-2.077v-5.467h2.109c1.952 0 3.085 1.124 3.085 2.718 0 1.577-1.148 2.749-3.116 2.749zm-.562-4.14v2.797h.617c.906 0 1.508-.5 1.508-1.399 0-.874-.602-1.398-1.508-1.398h-.617z" fill="#fff"/><path d="M18.964 24.429H15.75v5.785h1.768v-4.339l1.125 4.34h2.25l.964-4.34v4.34h1.768v-5.786h-3.054l-.803 3.696-.804-3.696zm10.286 0h-4.982v1.446h1.607v4.34h1.768v-4.34h1.607v-1.446zm.321 2.892a2.893 2.893 0 012.893-2.892H36v1.446h-3.375a1.446 1.446 0 000 2.893H36v1.446h-3.536a2.893 2.893 0 01-2.893-2.893z" fill="#fff"/><path opacity=".96" d="M0 20.571h36v1.447H0V20.57z" fill="url(#paint1_linear_7705_48088)"/><defs><linearGradient id="paint0_linear_7705_48088" x1="36" y1="18" x2="0" y2="18" gradientUnits="userSpaceOnUse"><stop stop-color="#ED1F24"/><stop offset="1" stop-color="#FD7A24"/></linearGradient><linearGradient id="paint1_linear_7705_48088" x1="36" y1="21.214" x2="3.214" y2="21.214" gradientUnits="userSpaceOnUse"><stop stop-color="#fff"/><stop offset="1" stop-color="#fff" stop-opacity="0"/></linearGradient></defs></svg>