<svg width="76" height="20" viewBox="0 0 76 20" fill="none" xmlns="http://www.w3.org/2000/svg"><g clip-path="url(#clip0_1440_21)"><path d="M17.876 6.254l2.125 7.818L10.26 20 .5 14.06l2.267-7.806A3.247 3.247 0 011.24 4.733a3.34 3.34 0 01-.256-2.161A3.29 3.29 0 012.11.722 3.176 3.176 0 014.123 0h.291c.761.008 1.495.29 2.071.797.438.373.761.867.931 1.422h5.723c.334-1.03 1.239-1.893 2.31-2.13.209-.05.423-.08.638-.089h.291c.853 0 1.671.346 2.274.96.603.616.942 1.45.942 2.32 0 1.318-.62 2.454-1.718 2.974z" fill="#F19137"/><path d="M6.84 5.151l1.827-.013-2.655 3.976a5.149 5.149 0 01-.844-.353l1.672-3.61zm6.66-.013l1.892.013-2.668 3.982a5.01 5.01 0 01-.921-.329L13.5 5.138z" fill="#fff"/><path d="M6.011 9.114c.25.067.506.107.764.12h.008c.063.003.125.005.185.005s.123 0 .185-.005h.005a3.556 3.556 0 003.007-1.911h.189a3.54 3.54 0 001.324 1.406l.125.075L13.5 5.137H8.667L6.011 9.114zM9.19 13.14v2.384c1.273.076 2.572-.273 3.587-.988 1.183-.82 1.894-1.998 2.072-3.41h-1.51c-.489 1.983-2.347 2.64-4.149 2.013z" fill="#000"/><path d="M10.136 12.354l.115.002c.037 0 .075 0 .116-.002 1.031-.053 2.141-.856 2.141-2.493v-.112H7.993v.112c0 1.636 1.108 2.438 2.138 2.492h.005z" fill="#000"/><path d="M17.876 6.254c1.098-.52 1.717-1.656 1.717-2.974 0-.87-.338-1.704-.941-2.32A3.184 3.184 0 0016.378 0h-.291a3.35 3.35 0 00-.64.089c-1.071.237-1.976 1.1-2.31 2.13H7.415A3.04 3.04 0 006.483.797 3.188 3.188 0 004.414 0h-.29C3.39 0 2.68.254 2.107.722A3.29 3.29 0 00.98 2.572a3.34 3.34 0 00.257 2.162c.325.67.864 1.207 1.529 1.522L.5 14.06 10.259 20 20 14.072l-2.124-7.818zM10.26 17.407l-7.48-3.92 1.222-5.596h.154c.252.317.556.587.898.798l.113.07L6.839 5.15H4.354a1.42 1.42 0 01-1.017-.43 1.481 1.481 0 01-.42-1.036c0-.389.15-.762.42-1.037a1.423 1.423 0 011.815-.187c.213.145.383.346.491.582a1.468 1.468 0 01.13.827v.08h8.97a1.477 1.477 0 01.285-1.177 1.426 1.426 0 011.432-.52 1.424 1.424 0 01.975.79c.093.2.14.417.139.637 0 .388-.149.76-.417 1.037a1.426 1.426 0 01-1.012.435h-.756L12.72 9.133c.21.048.422.078.636.089h.007c.063.004.126.004.184.004.06 0 .122 0 .19-.004a3.563 3.563 0 002.705-1.437h.152l1.141 5.7-7.475 3.922zM30.684 5.174l-3.33 8.4c-1.177 2.95-2.747 3.505-3.92 3.505a4.13 4.13 0 01-1.341-.193l-.02-2.412c.386.162.797.248 1.214.255.608 0 1.194-.212 1.572-.833l-3.855-8.722h3.017l1.928 6.134h.147l1.656-6.134h2.932zm34.822 2.523l-1.342 6.389h-.146l-1.655-6.39H59.66l3.248 8.827c-.42.706-.964.92-1.509.92-.314 0-.691-.086-1.026-.214l.02 2.158c.4.088.807.131 1.215.129.986 0 2.725-.599 3.709-3.462l2.85-8.357h-2.661z" fill="#000"/><path d="M59.366 7.697h-2.43l-2.85 4.552V7.697h-2.262v9.126h2.263v-1.945l1.487-1.987 2.054 3.932h2.64l-3.333-5.813 2.431-3.313zm-8.464 3.633c-.105-2.137-1.53-3.911-3.98-3.911-2.347 0-4.464 1.774-4.464 4.83s2.117 4.83 4.463 4.83c2.452 0 3.878-1.966 3.981-3.89h-2.554c.084 1.261-.479 2.223-1.673 2.223-1.236 0-1.68-1.325-1.68-3.163 0-1.838.444-3.184 1.68-3.184 1.194 0 1.757.983 1.673 2.267l2.554-.002zm18.06-3.634l-.167 5.878c-.021 1.047-.482 1.453-.964 1.453a1.822 1.822 0 01-.608-.085v1.99c.314.107.65.15 1.07.15 1.256 0 2.618-.813 2.722-3.313l.168-4.296h2.158v7.35h2.158V7.696h-6.537zM36.069 13.51h-.147l-1.634-5.813H30.39v9.126h2.2l-.021-7.416h.146l2.347 7.416h1.823l2.325-7.416h.19l-.064 7.416h2.22V7.697H37.64l-1.571 5.814z" fill="#000"/></g><defs><clipPath id="clip0_1440_21"><path fill="#fff" transform="translate(.5)" d="M0 0h75v20H0z"/></clipPath></defs></svg>