<svg width="83" height="23" viewBox="0 0 83 23" fill="none" xmlns="http://www.w3.org/2000/svg"><path d="M10.25 16.065c0-1.826-1.08-3.143-3.796-3.455 0-.37 0-.728.012-1.063H3.75c0 .347.012.705.012 1.063C1.082 12.934 0 14.24 0 16.065c0 1.848 1.104 3.142 3.762 3.454 0 .358-.012.705-.012 1.04h2.716c-.012-.324-.012-.67-.024-1.028 2.716-.312 3.809-1.606 3.809-3.466zm-3.808 1.167c0-.44 0-.867.012-1.294 0-.335.012-.682.012-1.017.747.185 1.058.578 1.058 1.144 0 .589-.322.982-1.082 1.167zm-3.715-1.167c0-.566.31-.96 1.058-1.144v2.3c-.748-.186-1.058-.579-1.058-1.156zm33.179 4.61c1.714 0 4.004-.44 4.855-2.508a34.317 34.317 0 01-2.416-1.143c-.357.912-1.059 1.328-2.347 1.328-1.61 0-2.301-.866-2.358-1.952-.058-1.075.54-2.16 2.185-2.16.863 0 2.037.323 2.52 1.27.725-.37 1.507-.75 2.427-1.074-.909-1.849-2.738-2.507-4.866-2.507-3.624 0-5.062 1.86-5.062 4.47 0 2.646 1.484 4.275 5.062 4.275zm15.482-4.61c0-1.826-1.081-3.143-3.796-3.455 0-.37 0-.728.011-1.063h-2.715c0 .347.012.705.012 1.063-2.681.324-3.763 1.63-3.763 3.455 0 1.848 1.105 3.142 3.763 3.454 0 .358-.012.705-.012 1.04h2.715c-.011-.324-.011-.67-.023-1.028 2.715-.312 3.808-1.606 3.808-3.466zm-3.808 1.167c0-.44 0-.867.012-1.294 0-.335.011-.682.011-1.017.748.185 1.058.578 1.058 1.144 0 .589-.322.982-1.081 1.167zm-3.716-1.167c0-.566.31-.96 1.058-1.144v2.3c-.747-.186-1.058-.579-1.058-1.156zm13.298 4.61c3.693 0 5.131-1.722 5.131-4.38 0-2.61-1.438-4.366-5.13-4.366-3.682 0-5.12 1.756-5.12 4.367 0 2.646 1.484 4.378 5.12 4.378zm0-2.357c-1.714 0-2.392-.682-2.392-2.022 0-1.317.667-2.01 2.392-2.01 1.738 0 2.405.693 2.405 2.01 0 1.352-.667 2.022-2.405 2.022zm8.716-6.135v-.012h-2.83c.115 2.796.115 5.592 0 8.388h2.83v-2.033h2.393c3.267 0 4.084-1.34 4.084-3.235 0-1.78-.817-3.108-4.084-3.108h-2.393zm0 4.113V14.47h1.587c1.899 0 2.29.162 2.29.902 0 .75-.437.924-2.29.924h-1.587zm16.189-4.113l-8.097-.012c0 1.918.046 4.194-.091 4.934-.173.935-.507 1.27-1.151 1.398h-.575V22.5h2.726v-1.71h5.396v1.675H83v-3.962h-.933v-6.32zm-5.508 5.823c.241-1.283.196-2.415.219-3.57h2.378v4.067h-2.724c.058-.162.092-.324.127-.497z" fill="#000"/><path fill-rule="evenodd" clip-rule="evenodd" d="M12.18 19.515c.828.762 2.12 1.143 3.877 1.143 1.78 0 3.08-.38 3.9-1.143.82-.763 1.23-1.841 1.23-3.235 0-1.371-.413-2.442-1.242-3.212-.82-.77-2.116-1.155-3.888-1.155-1.764 0-3.06.385-3.889 1.155-.82.77-1.23 1.84-1.23 3.212 0 1.386.414 2.464 1.242 3.235zm5.718-1.699c-.376.324-.99.486-1.841.486-.844 0-1.453-.166-1.83-.497-.375-.331-.563-.84-.563-1.525 0-.678.188-1.183.564-1.514.376-.33.985-.496 1.829-.496.851 0 1.465.165 1.84.496.376.332.564.836.564 1.514 0 .693-.188 1.205-.563 1.536zm7.008 2.727V17.18h.604c.905 1.163 1.477 2.047 2.27 3.384h3.53c-1.239-1.694-1.995-2.691-3.42-4.23v-.417l3.271-3.762h-3.468l-.17.244c-.545.783-1.19 1.711-2.272 2.783a4.07 4.07 0 01-.345-.011v-3.016H22.04c.061 1.495.092 2.892.092 4.194s-.03 2.7-.092 4.194h2.865z" fill="#000"/><path d="M48.165 1.471l7.517 3.493L54.774.5l10.41 7.49 5.498-1.583-2.162 3.985H50.105l-1.939-8.92z" fill="#F90"/><path d="M67.933 7.199l2.749-.792-1.08 1.992-1.67-1.2z" fill="#000"/><path fill-rule="evenodd" clip-rule="evenodd" d="M63.723 10.392a6.185 6.185 0 00-.047-.81c-.248-2.043-1.41-3.58-2.595-3.436-1.184.145-1.943 1.918-1.695 3.96.015.096.031.191.05.286h4.287zm-4.498 0a6.357 6.357 0 00-.028-.287c-.248-2.041-1.41-3.58-2.595-3.434-1.125.137-1.91 1.804-1.773 3.72h4.396z" fill="#fff"/><path fill-rule="evenodd" clip-rule="evenodd" d="M61.399 10.392c.01-.17.005-.348-.017-.53-.116-.953-.657-1.671-1.208-1.604-.55.067-.903.894-.787 1.847.01.099.024.195.043.287h1.97zm-4.535 0a2.96 2.96 0 00-.022-.409c-.116-.953-.656-1.67-1.207-1.603-.531.065-.915 1.085-.838 2.012h2.067z" fill="#000"/></svg>