<svg width="119" height="27" viewBox="0 0 119 27" fill="none" xmlns="http://www.w3.org/2000/svg"><path fill-rule="evenodd" clip-rule="evenodd" d="M29.756 12.629l.39-1.256-1.294.042c-.109 0-.904-.024-1.675-.584.058.005.114.014.175.014.793 0 1.562-.48 1.869-1.166l.557-1.24c-.698.01-1.337-.078-1.337-.078-.006 0-.508-.066-1.09-.662-.417-.426-.934-.653-1.493-.653a2.153 2.153 0 00-.652.104c.03-.1.057-.202.074-.307.176-1.16-.567-2.043-.567-2.043l-.973-1.208-.604 1.42c-.002.004-.155.338-.427.5a2.646 2.646 0 00-.716-1.336c-.815-.845-1.806-.972-2.325-.972-.24 0-.412.027-.453.034l-1.175.232c.067-.263.212-.723.476-1.135l.649-1.013-1.632.187-.52-1.107-1.007.52-.93-.922-.928.921-1.009-.52-.519 1.107-1.63-.187.649 1.015c.264.412.408.87.475 1.132l-1.12-.222-.04-.006a2.93 2.93 0 00-.468-.036c-.519 0-1.51.127-2.322.972a2.64 2.64 0 00-.718 1.336c-.27-.161-.422-.488-.422-.488l-.604-1.43-.99 1.218c-.12.157-.716.987-.555 2.033.017.104.044.206.074.306a2.123 2.123 0 00-.65-.104c-.56 0-1.077.226-1.495.653-.58.594-1.08.661-1.076.661 0 0-.53.096-1.349.08L.934 9.68c.308.686 1.077 1.165 1.869 1.165.06 0 .116-.009.175-.013a3.04 3.04 0 01-1.66.583L0 11.373l.399 1.255c.202.648.873 1.72 2.158 1.835-.14.587-.45 1.246-1.13 1.53l-.983.405.536.936c.302.504 1.012 1.094 2.022 1.094.218 0 .43-.023.633-.066.052.23.117.461.194.691.3.898.04 1.523.038 1.53l-.484 1.019 1.081.285c.014.005.341.096.75.096a2.287 2.287 0 00.892-.176c.14.252.31.482.509.688.693.714 1.677 1.075 2.92 1.075h.005l.888-.012-1.835.766L9.986 25c.507.247 1.107.54 1.72.764l-.175.477.48.22c.043.02.968.433 2.503.522 0 0 .37.017.574.017.205 0 .572-.018.572-.018 1.524-.09 2.442-.501 2.484-.521l.482-.22-.175-.478c.628-.23 1.25-.536 1.737-.773l1.368-.667-1.83-.765.892.012c1.245 0 2.23-.362 2.922-1.076a3.32 3.32 0 00.508-.687c.283.117.586.177.893.175.402 0 .733-.089.742-.092l1.086-.288-.473-1c-.011-.026-.27-.651.03-1.55a7.33 7.33 0 00.194-.69c.203.043.417.066.637.066a2.36 2.36 0 002.023-1.104l.53-.926-.982-.405c-.682-.283-.992-.942-1.13-1.529 1.269-.111 1.949-1.183 2.158-1.834v-.001z" fill="#FFFFFE"/><path fill-rule="evenodd" clip-rule="evenodd" d="M26.725 16.355c-.817-.405-1.333-1.477-1.458-1.863-.135 2.127-1.17 3.602-2.38 5.022-.628.737-.847 1.453-.847 1.453s.121-.811.664-1.472c1.128-1.36 2.201-3.053 2.281-5.011.055-1.366-.295-2.474-.842-3.387.306.95.262 2.116-.776 3.203 0 0 2.068-2.484-.823-5.032-1.157-.969-2.423-1.567-3.074-1.991 2.354.77 3.504-.078 3.504-.078-.752.653-1.725.642-2.33.548.165.08.336.164.518.262 1.986 1.081 3.77 2.86 4.074 5.324v-.019c.46 2.42 1.489 3.04 1.489 3.04zm.605-2.82a.571.571 0 00.052.002c1.107 0 1.481-1.188 1.481-1.188h-.021a4.003 4.003 0 01-3.012-1.53c-.765-.975-1.392-1.832-2.631-2.169l-.123-.022-.026-.125c-.034-.19.095-.367.39-.559 1.71-1.122.548-2.555.548-2.555s-.487 1.145-1.58 1.145l-.081-.002c-.124-.006-.244-.01-.364-.036l-.202-.04s.312-.85-.44-1.629a2.268 2.268 0 00-1.653-.689c-.2 0-.327.026-.327.026.377.495.65 1.317.214 1.824-.377.435-1.297.456-1.297 1.106 0 .275.256.595.716.884 1.384.873 2.757 2.033 3.328 3.587.714 1.937-.09 3.224-1.237 3.962 0 0 .36.332.881.374.106.01.21.015.307.015 1.102 0 1.672-.518 1.672-.518s-.095.716-.667 1.38c-.53.614-1.224.976-2.283.991 0 0-.033.493.435.92.301.269.994.357.994.357s-1.298.263-1.442 2.186c-.078 1.041-.343 1.403-.343 1.403h.024c3.011 0 2.934-2.59 2.934-2.59s.21.766 1.05.967c.101.027.21.037.313.037.27 0 .505-.064.505-.064s-.44-.93-.004-2.232c.363-1.08.304-1.881.304-1.881s.406.615 1.412.62h.01a1.414 1.414 0 001.203-.636c-2.008-.836-1.81-3.534-1.81-3.534s.261.196.77.215v-.001zm-20.063 5.98c-1.21-1.42-2.245-2.895-2.382-5.022-.124.387-.64 1.459-1.455 1.863 0 0 1.026-.621 1.487-3.04v.018C5.223 10.87 7.006 9.09 8.992 8.01c.182-.1.353-.183.516-.263-.603.094-1.577.105-2.328-.547 0 0 1.15.847 3.503.077-.65.424-1.917 1.022-3.073 1.991-2.891 2.548-.823 5.032-.823 5.032-1.04-1.088-1.082-2.252-.776-3.203-.547.913-.898 2.021-.84 3.388.078 1.957 1.15 3.65 2.276 5.01.546.66.669 1.471.669 1.471s-.222-.715-.85-1.452zm.484-.469s.692-.087.993-.357c.468-.426.436-.919.436-.919-1.06-.015-1.754-.377-2.286-.99-.57-.665-.665-1.381-.665-1.381s.57.518 1.67.518c.1 0 .203-.004.308-.015.326-.033.634-.163.884-.374-1.149-.738-1.953-2.025-1.24-3.963.571-1.553 1.944-2.713 3.329-3.587.459-.288.715-.608.715-.883 0-.65-.92-.671-1.296-1.106-.436-.507-.163-1.329.214-1.824 0 0-.126-.026-.328-.026-.396 0-1.086.1-1.652.69-.754.78-.44 1.629-.44 1.629l-.202.04c-.12.024-.241.03-.365.036l-.08.001c-1.094 0-1.58-1.144-1.58-1.144s-1.16 1.432.549 2.554c.293.192.423.37.389.56l-.027.123-.124.023c-1.237.337-1.865 1.194-2.63 2.168a4 4 0 01-3.012 1.53H1.29s.375 1.19 1.483 1.19c.017 0 .033 0 .052-.002.509-.018.77-.214.77-.214s.197 2.698-1.81 3.534c0 0 .365.638 1.203.638h.01c1.007-.007 1.412-.622 1.412-.622s-.06.801.302 1.881c.436 1.302-.002 2.232-.002 2.232s.234.063.505.063c.105 0 .212-.01.312-.036.84-.2 1.05-.968 1.05-.968s-.077 2.59 2.935 2.59h.023s-.265-.36-.342-1.402C9.05 19.31 7.75 19.045 7.75 19.045zM14.397 9.5h1.42v.488c-.167-.204-.492-.162-.492-.162v.704s.01.346.133.496h-.703c.123-.15.133-.496.133-.496v-.704s-.323-.042-.491.162V9.5zm-1.547.073c.049.053.097.111.144.17l.033.04c.043.058.087.12.129.182l.028.042c.05.076.098.155.146.236.434.752 1.13 1.202 1.746 1.203.618-.001 1.312-.45 1.747-1.203a4.93 4.93 0 01.148-.24 3.503 3.503 0 01.335-.431l.024-.024c.223-.227.485-.4.831-.497l-.154-.09H18l-.612-.355-.628-.361-1.678.916-.005-.004-.003.004-1.678-.916-.629.36-.612.357h-.007l-.155.09c.345.095.608.266.83.494.01.008.017.02.028.027z" fill="#FFFFFE"/><path fill-rule="evenodd" clip-rule="evenodd" d="M14.542 6.395v.46l-.088-.04c-.004-.004-.134-.032-.359-.212-.372-.289-.38-.556-.38-.556l.826.348zm.389 2.158v-2.86l-1.816-.619.48 2.772 1.336.707zm.682-2.158l.825-.348s-.006.267-.38.556c-.225.179-.354.208-.358.211l-.087.04v-.459zm.946 1.452l.477-2.772-1.814.617v2.86l1.337-.706zm-4.196 7.337c.177.063.391.077.502.077.004-.014.01-.03.015-.051a.973.973 0 00.026-.1c.03-.16.041-.338.044-.454a.636.636 0 01-.238-.252c-.068-.142-.164-.21-.304-.21-.183 0-.379.112-.464.163-.066.395.225.754.42.826zm4.016-1.518a32.26 32.26 0 01-1.029 1.04l-.04.04-2.086-.033a2.175 2.175 0 01-.067.513l-.016.066 2.48.447c.258-.18.968-.7 1.245-.905a1.212 1.212 0 01-.175-.887 1.242 1.242 0 01-.312-.281z" fill="#FFFFFE"/><path fill-rule="evenodd" clip-rule="evenodd" d="M16.662 11.15c-.48.478-.941.655-1.353.697a2.178 2.178 0 01-.227.012h-.01a2.16 2.16 0 01-.45-.047.85.85 0 00.036.545c.087.192.264.336.523.432l.087.034v.094a.87.87 0 00.683.805 5.46 5.46 0 00.277-.297c-.134-.318-.063-.644.133-.803-.008.034-.095.832.543 1.129l.106.05-.032.112c-.01.034-.223.807.55 1.094l.137.053-.06.132c-.014.03-.317.73.397 1.13h1.547v-1.234c-.55-.067-.783-.511-.843-.826-.256-.043-.454-.154-.59-.334-.325-.429-.045-.822-.041-.843-.001.003 0 .42.257.68.127.123.278.22.507.242l.112.01.01.115c.002.025.063.59.588.68v-2.518c0-.39.113-.783.25-1.145h-3.137v.001zm-4.167 1.154l-.041 1.603.182.028.445-1.538-.227-.473-.358.38h-.001zm.963 5.935a.09.09 0 01-.086-.097.09.09 0 01.097-.085.093.093 0 01.088.097.093.093 0 01-.099.085zm3.937 1.42c.013 0 .029.001.043.005.278.08.347 1.078.832 1.167a.61.61 0 00.13.013c.14 0 .224-.06.314-.167 0 0-.244-.383-.427-.643-.242-.34-.43-.75-.881-.75l-.036.001a.449.449 0 00-.24.081.932.932 0 00-.507-.155c-.282 0-.502.13-.613.13h-.004l-1.007-.1c-.158-.015-.283-.174-.328-.236l-.017-.027c0-.028 0-.056-.002-.08-.034-.827-.672-1.18-.9-1.187 0 0 .027-.157-.034-.217l-.222.27-.73-.366.52.61-.44.496c-.055.056-.048.132-.025.165l.19.168.242-.147a.117.117 0 01.06-.012c.067 0 .167.018.257.018.1 0 .184-.02.194-.114-.03.307-.314.84-.127 1.258l.138.316-.891-.128-.418.706c-.128.235-.149.489-.025.627l.156.196s.22-.233.268-.386l-.07-.078c-.06-.066-.057-.124-.02-.195l.261-.435 1.051.248.056-.095c.071-.119.174-.154.287-.154a.91.91 0 01.144.014c.195.038.516.09.837.09.353 0 .703-.063.89-.272.38.566 1.153.656 1.092.944l-.203.97a4.47 4.47 0 00.387-.031l.194-1.01a5.75 5.75 0 00.041-.258c-.075-.076-.255-.236-.357-.43-.136-.263-.062-.4-.189-.742 0 0 .04-.08.129-.08v.001z" fill="#FFFFFE"/><path fill-rule="evenodd" clip-rule="evenodd" d="M12.021 20.576s.35-.143.381-.247l-.047-.116c-.033-.076-.029-.158.035-.203l.376-.261.63.121s-.115-.143-.104-.333l-.6-.127-.566.345a.55.55 0 00-.18.655l.075.166zm4.449 1.645a8.88 8.88 0 01.373-.006s.323-.95.341-.98a7.904 7.904 0 01-.703-.372c.096.145.33.309.284.436l-.295.922z" fill="#FFFFFE"/><path fill-rule="evenodd" clip-rule="evenodd" d="M19.55 16.593h-8.946v3.374c0 1.38.996 2.244 2.466 2.244 1.227 0 1.551.047 2.007.502.315-.315.575-.432 1.111-.476l.012-.052.282-.874c-.016-.02-.476-.545-.476-.545-.183.061-.337.072-.595.072a4.87 4.87 0 01-.888-.093.403.403 0 00-.093-.01c-.04 0-.042.003-.053.022l-.056.093-.103.17-.193-.045-.858-.203-.118.195.018.021.104.116-.046.15c-.063.197-.268.426-.33.49l-.215.23-.196-.247-.147-.185c-.155-.173-.19-.438-.103-.716a.018.018 0 01-.009.003l-.242.1-.108-.237-.077-.168a.823.823 0 01.272-.99l.69-.392.659.13c.015-.064.04-.29.057-.347-.012-.002-.024-.004-.037-.004l-.38.14-.364-.252s-.143-.138-.014-.276l.354-.538-.897-1.127 1.378.567.092-.114.186-.224.21.202a.402.402 0 01.112.2c.38.148 1.06.585 1.12 1.297l-.213.085v.005a.28.28 0 00.102.085l.984.096c.025-.004.055-.015.09-.025.123-.042.306-.103.524-.103.177 0 .349.041.513.119a.74.74 0 01.222-.046l.048-.002c.526 0 .788.395.998.71a3.9 3.9 0 00.106.157c.184.26.424.64.434.657l.109.17-.134.155a.653.653 0 01-.52.258.955.955 0 01-.177-.018.758.758 0 01-.157-.049 4.12 4.12 0 01-.028.168l-.172.903c1.031-.254 1.687-1.036 1.687-2.154l-.003-3.374zm-8.946-.272h6.958c-.347-.36-.342-.815-.254-1.111a1.148 1.148 0 01-.26-.172c-.271.201-1.101.807-1.318.96l-.047.031-2.73-.495h-.056c-.065 0-.16-.003-.265-.016a.266.266 0 01-.476.096.267.267 0 01-.048-.201l.01-.06c-.28-.198-.542-.643-.426-1.111l.011-.05.04-.028c.04-.027.081-.053.124-.076l-.199-.032a.137.137 0 01-.112-.155.135.135 0 01.155-.114l.472.075.044-1.668.703-.747.44.927-.464 1.606.417.066a.136.136 0 01.067.237.134.134 0 01-.087.032l-.022-.001-.34-.056c.005.011.011.017.016.028a.373.373 0 00.163.151l2.081.034c.088-.086.306-.3.532-.528a1.124 1.124 0 01-.73-.931c-.286-.123-.484-.305-.594-.544a1.142 1.142 0 01-.05-.734c-.277-.101-.57-.287-.867-.584h-3.136c.135.362.248.755.248 1.144v4.027z" fill="#FFE52B"/><path fill-rule="evenodd" clip-rule="evenodd" d="M25.857 7.98c.252 0 .547.087.825.376.874.89 1.688.94 1.688.94-.148.327-.576.615-1.02.615a.917.917 0 01-.307-.051c-.602-.204-.817-1.108-1.873-1.671 0 0 .294-.208.687-.208zm-.86.53c.506.27.801.633 1.06.954.254.313.494.615.873.74.133.046.275.069.42.069.566 0 1.135-.348 1.35-.83l.217-.48-.525-.032c-.024 0-.7-.063-1.45-.832-.31-.316-.683-.481-1.085-.481-.492 0-.857.246-.896.272l-.483.34.52.28zm.238 4.805v.018c-.305-2.463-2.088-4.242-4.074-5.324a12.836 12.836 0 00-.517-.262c.604.094 1.577.105 2.33-.548 0 0-1.151.848-3.505.078.65.424 1.918 1.022 3.074 1.991 2.89 2.548.823 5.032.823 5.032 1.04-1.087 1.082-2.252.776-3.203.547.913.896 2.021.842 3.388-.079 1.957-1.152 3.65-2.281 5.01-.543.66-.663 1.471-.663 1.471s.219-.715.846-1.451c1.21-1.422 2.245-2.896 2.38-5.023.125.387.641 1.459 1.458 1.863 0 0-1.027-.621-1.489-3.04zm-15.724 9.32c-3.012 0-2.935-2.59-2.935-2.59s-.211.767-1.05.967a1.235 1.235 0 01-.313.037 2.17 2.17 0 01-.505-.064s.44-.93.002-2.232c-.36-1.08-.302-1.881-.302-1.881s-.405.615-1.412.622h-.01c-.837 0-1.203-.638-1.203-.638 2.007-.836 1.81-3.534 1.81-3.534s-.261.196-.769.215h-.053c-1.107 0-1.483-1.188-1.483-1.188h.023c.205 0 1.848-.048 3.01-1.53.766-.975 1.394-1.832 2.63-2.169l.125-.022.027-.125c.035-.189-.096-.367-.39-.559-1.709-1.122-.548-2.554-.548-2.554s.485 1.144 1.581 1.144h.08c.123-.007.245-.013.364-.038l.202-.039s-.313-.85.44-1.63a2.267 2.267 0 011.98-.663c-.377.495-.65 1.317-.215 1.824.378.436 1.297.456 1.297 1.105 0 .276-.256.596-.715.885-1.385.873-2.758 2.033-3.329 3.587-.712 1.937.092 3.224 1.24 3.962 0 0-.361.332-.883.374a3.16 3.16 0 01-.308.015c-1.101 0-1.67-.517-1.67-.517s.095.715.664 1.38c.532.614 1.226.975 2.285.99 0 0 .034.493-.435.92-.3.27-.993.357-.993.357s1.299.264 1.441 2.186c.078 1.041.342 1.403.342 1.403H9.51zm.32-.207c0-.004-.211-.333-.279-1.223-.079-1.065-.48-1.688-.878-2.045a1.25 1.25 0 00.311-.203c.583-.526.559-1.143.555-1.212l-.022-.333-.334-.005c-.89-.014-1.512-.281-2.015-.867a2.715 2.715 0 01-.29-.408c.278.085.618.147 1.02.147.107 0 .22-.006.338-.014.405-.04.788-.204 1.097-.468l.347-.32-.395-.255c-.885-.567-1.79-1.643-1.095-3.531.45-1.227 1.49-2.338 3.181-3.404.572-.36.884-.787.884-1.194 0-.628-.524-.876-.907-1.053-.188-.09-.383-.179-.477-.289-.298-.345-.048-1.007.23-1.366l.353-.464-.574-.114c-.016-.002-.166-.03-.396-.03-.428 0-1.246.104-1.912.797-.556.577-.63 1.19-.6 1.587a3.573 3.573 0 01-.166.01h-.061c-.838 0-1.233-.89-1.248-.924l-.235-.556-.381.468c-.022.029-.58.725-.443 1.597.09.58.453 1.08 1.077 1.492a.98.98 0 01.149.112c-1.178.383-1.834 1.224-2.527 2.108l-.1.126a3.639 3.639 0 01-2.74 1.392l-.51-.015.155.487c.018.059.47 1.443 1.828 1.443l.065-.002c.144-.004.273-.024.387-.046-.055.754-.333 2.15-1.58 2.668l-.38.159.205.36c.02.032.483.816 1.532.816.375.003.746-.084 1.08-.254.04.341.125.779.288 1.269.38 1.132.026 1.927.013 1.959l-.188.395.423.112c.029.008.29.073.597.073.423.001.833-.15 1.155-.425.115.355.313.756.655 1.11.582.6 1.419.903 2.512.903l.662-.01-.366-.56z" fill="#1A1919"/><path fill-rule="evenodd" clip-rule="evenodd" d="M3.47 8.356c.28-.289.574-.376.828-.376.39 0 .686.209.686.209-1.055.564-1.273 1.468-1.876 1.672a.906.906 0 01-.305.05c-.444 0-.873-.288-1.019-.616 0 0 .813-.05 1.686-.94zm-.667 1.917a1.3 1.3 0 00.422-.069c.378-.125.619-.426.873-.74.259-.32.55-.683 1.057-.953l.52-.28-.483-.342c-.04-.025-.403-.27-.894-.27-.404 0-.778.164-1.087.48-.75.77-1.424.832-1.449.832l-.524.031.215.482c.217.48.785.829 1.35.829zm2.366 4.212c-.055-1.367.294-2.475.841-3.388-.304.951-.263 2.116.778 3.204 0 0-2.07-2.486.822-5.032 1.157-.97 2.423-1.568 3.073-1.992-2.353.77-3.503-.078-3.503-.078.752.653 1.725.643 2.329.548-.164.08-.335.163-.517.263-1.986 1.08-3.769 2.86-4.075 5.323v-.018c-.46 2.419-1.487 3.04-1.487 3.04.817-.405 1.33-1.477 1.456-1.863.137 2.127 1.171 3.602 2.38 5.023.628.736.849 1.451.849 1.451s-.122-.81-.667-1.47c-1.127-1.36-2.2-3.054-2.279-5.011zM14.397 9.5v.49c.168-.206.492-.164.492-.164v.704s-.01.346-.134.496h.703c-.122-.15-.134-.496-.134-.496v-.704s.325-.042.492.163V9.5h-1.42zm-.302-2.897c.225.179.355.209.359.211l.087.04v-.459l-.825-.348s.007.267.38.556zm1.963 0c.373-.289.38-.556.38-.556l-.825.348v.46l.087-.04c.004-.003.133-.033.358-.212z" fill="#1A1919"/><path fill-rule="evenodd" clip-rule="evenodd" d="M15.076 5.378l-1.988-.788c.169-.402.948-.743 1.989-.744 1.04 0 1.82.342 1.99.744l-1.99.788zm1.483 2.469l-1.337.706V5.691l1.815-.617-.478 2.771v.002zm.828.759l.611.356h.01l.153.09c-.345.095-.61.269-.83.496l-.024.023a2.943 2.943 0 00-.15.174l-.028.036a2.62 2.62 0 00-.135.19l-.023.032a4.53 4.53 0 00-.147.24c-.436.752-1.13 1.202-1.748 1.203-.617-.001-1.312-.45-1.746-1.203a5.147 5.147 0 00-.146-.236l-.028-.042a4.817 4.817 0 00-.129-.181c-.01-.016-.021-.028-.032-.042a3.488 3.488 0 00-.145-.169c-.01-.008-.018-.018-.027-.027a1.8 1.8 0 00-.831-.495l.155-.09h.007l.613-.355.628-.361 1.678.916.003-.003.005.003 1.678-.916.628.36zM19.8 11.15c-.137.362-.25.755-.25 1.144l.001 2.518c-.524-.087-.587-.654-.589-.68l-.01-.114-.113-.01a.8.8 0 01-.506-.243c-.258-.258-.258-.676-.258-.68-.003.022-.282.413.042.842a.896.896 0 00.59.337c.06.314.294.758.844.826v1.23h-1.548c-.714-.397-.411-1.098-.397-1.128l.06-.133-.136-.052c-.774-.287-.56-1.06-.55-1.094l.032-.113-.107-.05c-.637-.296-.551-1.095-.542-1.128-.197.16-.268.484-.133.804-.073.084-.171.185-.278.296a.868.868 0 01-.683-.806v-.093l-.088-.034c-.257-.095-.434-.24-.522-.433a.852.852 0 01-.037-.545c.148.03.3.047.45.047h.011c.077 0 .152-.004.227-.011.413-.042.873-.219 1.353-.697H19.8zm-1.934 10.97l.173-.902.028-.167a.96.96 0 00.335.066c.263 0 .417-.14.52-.258l.13-.155-.107-.17a16.63 16.63 0 00-.434-.657 3.62 3.62 0 01-.106-.157c-.21-.315-.472-.71-1-.71l-.046.002a.774.774 0 00-.222.045 1.199 1.199 0 00-.513-.117 1.592 1.592 0 00-.523.101c-.035.01-.067.022-.091.026l-.984-.096a.282.282 0 01-.102-.084v-.006l.213-.085c-.06-.712-.741-1.15-1.12-1.298a.401.401 0 00-.111-.2l-.211-.2-.186.223-.091.114-1.379-.568.896 1.128-.353.538c-.13.137.014.276.014.276l.365.253.38-.142c.012 0 .023.003.036.005-.018.058-.042.284-.057.347l-.658-.13-.69.392a.82.82 0 00-.273.99l.077.168.108.238.242-.1.01-.005c-.088.279-.052.543.103.717l.147.185.195.248.214-.231c.063-.064.268-.293.33-.49l.047-.15-.104-.116-.018-.02.118-.195.858.203.194.044.103-.17.056-.093c.01-.02.012-.023.052-.023.03 0 .061.004.094.011.292.058.59.089.888.092.256 0 .411-.01.594-.07 0 0 .46.523.476.544l-.282.873-.013.053c-.534.044-.794.161-1.109.476-.457-.454-.78-.502-2.007-.502-1.47 0-2.466-.864-2.466-2.244v-3.374h8.945l.002 3.373c0 1.12-.656 1.9-1.687 2.155zm-5.51-1.907l.047.117c-.032.102-.38.246-.38.246l-.075-.166a.55.55 0 01.18-.656l.566-.345.6.127a.532.532 0 00.102.334l-.628-.12-.377.26c-.063.045-.068.127-.035.203zm5.415.953l-.193 1.01a3.746 3.746 0 01-.387.032l.203-.97c.06-.288-.71-.378-1.092-.944-.187.21-.537.272-.889.272a4.5 4.5 0 01-.839-.09.924.924 0 00-.142-.014c-.114 0-.216.035-.287.155l-.056.095-1.052-.248-.262.434c-.036.07-.04.13.02.195l.072.078c-.05.153-.269.386-.269.386l-.156-.196c-.124-.138-.103-.392.025-.627l.418-.707.89.13-.137-.318c-.187-.418.097-.95.127-1.257-.01.093-.095.114-.193.114-.09 0-.19-.017-.257-.017-.027 0-.05.003-.061.011l-.242.147-.19-.168c-.023-.032-.03-.109.025-.166l.441-.496-.52-.61.728.368.223-.27c.061.06.034.216.034.216.228.007.867.36.9 1.186.002.025.002.053.002.08l.017.028c.045.063.17.222.328.236l1.007.1h.004c.111 0 .331-.13.613-.13.154 0 .325.04.507.155 0 0 .092-.073.24-.08.012-.003.025-.003.035-.003.452 0 .64.41.883.751.182.259.426.643.426.643-.09.107-.174.167-.314.167a.655.655 0 01-.13-.013c-.484-.09-.555-1.088-.831-1.167a.166.166 0 00-.044-.006c-.09 0-.128.08-.128.08.127.34.052.478.189.74.101.195.281.355.356.431 0 0-.02.148-.042.258zm-.928 1.049c-.134 0-.26.001-.372.006l.295-.922c.046-.128-.188-.292-.284-.437.146.092.522.294.704.373-.118.326-.232.652-.343.98zm-4.388-8.308l.042-1.603.358-.38.226.473-.445 1.538-.182-.028zm.258.497a.633.633 0 00.238.251 2.946 2.946 0 01-.044.455 1.177 1.177 0 01-.026.1l-.015.05c-.11 0-.326-.013-.5-.077-.196-.072-.487-.43-.42-.826.084-.052.28-.162.463-.162.14 0 .236.066.304.209zm4.153.43c-.275.204-.986.724-1.243.905l-2.482-.448.017-.065c.032-.13.066-.306.068-.513l2.085.033.04-.04c.032-.031.693-.672 1.03-1.04.08.1.18.196.31.28-.044.246-.025.594.175.888zm-3.374-3.684c.3.297.59.482.868.584-.035.143-.083.44.05.734.11.239.308.421.595.544.031.293.216.736.73.931-.226.227-.445.442-.532.527l-2.082-.032a.373.373 0 01-.163-.153c-.004-.01-.011-.015-.016-.027l.34.056h.022a.134.134 0 00.133-.112.137.137 0 00-.112-.156l-.418-.067.463-1.605-.438-.927-.704.747-.043 1.668-.473-.075c-.073-.015-.143.04-.156.113a.138.138 0 00.113.157l.199.03c-.072.04-.119.073-.124.077l-.04.028-.01.05c-.116.468.144.913.425 1.111l-.01.06a.266.266 0 00.047.2.262.262 0 00.384.055.267.267 0 00.092-.15c.105.012.201.016.266.016h.056l2.73.494.047-.03c.218-.153 1.047-.759 1.319-.96.075.064.158.123.26.172-.089.296-.095.75.253 1.111h-6.958v-4.026c0-.39-.113-.783-.248-1.145h3.135zm-.376-6.075l1.816.617v2.86l-1.336-.706-.48-2.772v.001zm4.43-.345c0-.698-1.171-1.326-2.465-1.326h-.008c-1.293 0-2.464.628-2.464 1.326l.026.171.516 2.973-.519.301-1.341.787h.005s-.302.155-.442.25c-.511.356-.62.876-.323 1.09.073-.423.407-.866 1.031-.866.45 0 .794.234 1.071.583.072.088.14.182.202.283.078.128.156.24.233.349H9.61c.253.512.495 1.054.495 1.643v7.673c0 1.857 1.425 2.743 2.965 2.743 1.19 0 1.351-.054 2.008.602.654-.656.815-.602 2.006-.602 1.542 0 2.963-.886 2.963-2.743v-7.672c0-.59.242-1.132.498-1.644h-3.459c.078-.108.155-.221.233-.349.064-.1.131-.195.2-.283.28-.35.623-.583 1.074-.583.624 0 .957.443 1.03.866.298-.214.19-.734-.324-1.09-.137-.095-.44-.25-.44-.25h.006l-1.345-.787-.516-.301.516-2.973.025-.171z" fill="#1A1919"/><path d="M39.762 17.518h2.38v-5.543h3.268V9.958h-8.917v2.017h3.269v5.543zm12.868-7.56l-3.967 4.4v-4.4h-2.3v7.56h2.03l3.967-4.4v4.4h2.3v-7.56h-2.03zm6.074 4.75h3.697v2.81h2.3v-7.56h-2.3v2.764h-3.697V9.958h-2.3v7.56h2.3v-2.81zm12.405 2.81c.523 0 1-.047 1.444-.175 1.19-.333 1.967-1.302 1.967-2.62 0-1.255-.666-2.128-1.73-2.525-.507-.19-1.11-.207-1.681-.207h-2.364V9.958h-2.301v7.56h4.665zm-2.364-3.748h1.967c.317 0 .619 0 .889.095.38.127.603.445.603.826a.95.95 0 01-.587.89c-.254.11-.508.11-.905.11h-1.967V13.77zm9.266.89h.635l2.744 2.858h3.063l-3.824-3.939 3.68-3.62h-2.887L78.646 12.8h-.635V9.958h-2.3v7.56h2.3V14.66z" fill="#000"/><path d="M89.186 9.752c-3.094 0-4.95 1.747-4.95 4.002s1.856 4.002 4.95 4.002c3.079 0 4.935-1.747 4.935-4.002s-1.856-4.002-4.934-4.002zm0 6.162c-1.539 0-2.522-.921-2.522-2.16s.983-2.144 2.522-2.144c1.524 0 2.523.905 2.523 2.144s-1 2.16-2.523 2.16zm12.597-5.622v-.763h-2.3v.763c-2.888.063-4.618 1.286-4.618 3.446s1.73 3.288 4.617 3.351v.763h2.301v-.763c2.904-.063 4.633-1.19 4.633-3.35s-1.729-3.384-4.633-3.447zm-2.3 5.177c-1.587-.063-2.285-.714-2.285-1.73 0-1.017.698-1.748 2.284-1.811v3.541zm2.3 0v-3.541c1.603.063 2.285.794 2.285 1.81 0 1.017-.682 1.668-2.285 1.731zm12.287-5.177v-.763h-2.3v.763c-2.888.063-4.618 1.286-4.618 3.446s1.73 3.288 4.618 3.351v.763h2.3v-.763c2.904-.063 4.633-1.19 4.633-3.35s-1.729-3.384-4.633-3.447zm-2.3 5.177c-1.587-.063-2.285-.714-2.285-1.73 0-1.017.698-1.748 2.285-1.811v3.541zm2.3 0v-3.541c1.603.063 2.285.794 2.285 1.81 0 1.017-.682 1.668-2.285 1.731z" fill="#000"/><path fill-rule="evenodd" clip-rule="evenodd" d="M15.076 3.846c-1.04 0-1.82.342-1.99.745l1.99.786 1.99-.786c-.169-.403-.949-.744-1.99-.745zm.021 20.837h-.04c-.63.004-1.498-.126-1.915-.249l-.503 1.365c.331.119 1.455.346 2.44.346.982 0 2.106-.227 2.437-.346l-.502-1.364c-.42.122-1.287.252-1.917.248zm3.806-1.358c-.375.213-1.21.532-1.696.68l.407 1.127a10.183 10.183 0 001.886-.705l-.847-.282.25-.82zm-7.652 0l.25.82-.847.282c.511.258 1.135.499 1.885.704l.408-1.127c-.485-.148-1.322-.466-1.696-.68zM15.076 2.54c.784 0 1.552.188 2.144.518.054-.181.13-.402.232-.633l-.224.027-.234.024-.1-.214-.3-.633-.543.285-.213.108-.17-.167-.592-.588-.591.588-.17.167-.211-.108-.547-.285-.296.633-.101.215-.235-.025-.222-.027c.102.231.177.452.232.633.593-.33 1.36-.518 2.141-.518zm11.967 7.32c.102.034.206.05.308.05.444 0 .873-.288 1.02-.617 0 0-.814-.049-1.688-.94-.278-.287-.573-.373-.825-.373-.393 0-.688.207-.688.207 1.057.564 1.272 1.47 1.873 1.673zm-24.24.05a.897.897 0 00.305-.051c.603-.204.82-1.108 1.875-1.671 0 0-.295-.208-.686-.208-.253 0-.548.086-.827.375-.873.89-1.686.94-1.686.94.146.327.575.615 1.019.615z" fill="#FFFFFE"/><path fill-rule="evenodd" clip-rule="evenodd" d="M13.47 18.057a.09.09 0 00-.098.085.089.089 0 00.022.067.091.091 0 00.064.03.093.093 0 00.098-.085.093.093 0 00-.087-.097zm4.145 7.075l-.408-1.127c.486-.149 1.321-.468 1.697-.68l-.25.82.846.282c-.512.257-1.133.498-1.885.704v.001zm-2.537 1.013c-.984 0-2.108-.227-2.44-.346l.504-1.364c.417.122 1.285.252 1.915.248h.04c.63.004 1.497-.126 1.917-.248l.502 1.364c-.332.12-1.455.346-2.438.346zm-4.423-1.718l.847-.282-.25-.82c.373.212 1.21.532 1.695.68l-.408 1.127a10.264 10.264 0 01-1.884-.705zm8.883-.25l-.515-.199.142-.533.157-.582s-.913.497-2.2.87c-.365.104-.641.152-.641.152v.397s-.689.119-1.384.119h-.04c-.696 0-1.383-.12-1.383-.12v-.396s-.277-.048-.642-.153a12.128 12.128 0 01-2.198-.87l.154.583.146.533-.518.199-.573.214c.657.319 1.568.782 2.4 1.01l-.195.539s1.056.483 2.817.487v.001h.023c1.763-.005 2.82-.488 2.82-.488l-.198-.539c.833-.228 1.746-.69 2.4-1.01l-.572-.214zM12.926 2.452l.234.026.1-.215.296-.633.547.285.213.108.76-.756.592.588.17.168.213-.108.544-.285.3.633.099.215.234-.026.224-.026a5.403 5.403 0 00-.233.634c-.59-.331-1.359-.519-2.143-.519-.78 0-1.548.188-2.142.519a5.424 5.424 0 00-.231-.634l.222.026zm2.15.419c1.05 0 1.888.35 2.352.72 0 0 .138-.831.608-1.564l-.845.095-.442-.941-.849.44-.824-.817-.821.816-.85-.44-.442.943-.845-.097c.47.734.608 1.564.608 1.564.466-.37 1.303-.72 2.35-.72zM28.37 16.856s-.364.638-1.202.638h-.01c-1.007-.007-1.413-.622-1.413-.622s.059.8-.303 1.881c-.436 1.302.003 2.232.003 2.232s-.234.064-.505.064c-.103 0-.211-.01-.313-.037-.84-.2-1.05-.967-1.05-.967s.078 2.59-2.934 2.59h-.024s.265-.362.344-1.403c.143-1.922 1.44-2.187 1.44-2.187s-.692-.087-.992-.356c-.47-.427-.437-.92-.437-.92 1.06-.015 1.755-.376 2.284-.99.341-.393.571-.87.667-1.381 0 0-.57.519-1.672.519-.097 0-.2-.005-.306-.015a1.614 1.614 0 01-.882-.375c1.147-.738 1.951-2.025 1.238-3.963-.571-1.553-1.945-2.713-3.328-3.586-.46-.288-.717-.61-.717-.885 0-.649.92-.67 1.298-1.105.436-.507.162-1.329-.215-1.824 0 0 .127-.026.327-.026.399 0 1.087.1 1.654.69.751.78.44 1.629.44 1.629l.2.04c.121.024.241.03.366.036l.08.001c1.093 0 1.58-1.145 1.58-1.145s1.162 1.433-.547 2.555c-.295.192-.425.37-.39.56l.026.124.122.022c1.239.337 1.866 1.195 2.632 2.168a4.003 4.003 0 003.01 1.53h.023s-.375 1.19-1.482 1.19c-.018 0-.034 0-.052-.002-.508-.018-.77-.214-.77-.214s-.197 2.698 1.81 3.534zm-.988-2.955c1.356 0 1.81-1.384 1.83-1.443l.15-.488-.508.016h-.001c-.18 0-1.677-.04-2.737-1.392l-.101-.126c-.693-.884-1.351-1.725-2.527-2.108a1.17 1.17 0 01.15-.112c.624-.412.987-.911 1.077-1.492.135-.872-.421-1.568-.445-1.597l-.378-.468-.236.556c-.016.034-.413.923-1.247.923h-.062a3.596 3.596 0 01-.166-.01c.03-.396-.043-1.01-.598-1.586-.667-.693-1.486-.797-1.915-.797-.228 0-.38.028-.397.03l-.57.114.35.464c.277.36.528 1.02.231 1.366-.095.111-.29.2-.477.29-.384.176-.909.424-.909 1.052 0 .407.315.833.886 1.194 1.688 1.065 2.73 2.177 3.18 3.404.697 1.887-.211 2.964-1.094 3.53l-.395.256.347.319c.046.041.47.415 1.095.47.12.007.233.014.339.014.4 0 .742-.064 1.02-.148a2.61 2.61 0 01-.289.408c-.503.586-1.124.853-2.016.867l-.332.005-.025.333c-.003.068-.028.686.555 1.212.09.081.197.149.311.203-.397.357-.798.98-.876 2.045-.066.89-.278 1.22-.28 1.223l-.366.561.662.009c1.094 0 1.932-.302 2.512-.902.3-.316.524-.696.655-1.111.322.275.732.425 1.155.425.31 0 .568-.066.597-.072l.422-.113-.186-.395c-.014-.032-.366-.826.013-1.96.163-.49.246-.928.287-1.27.267.14.623.254 1.084.256 1.047 0 1.508-.784 1.528-.817l.207-.36-.383-.157c-1.247-.52-1.523-1.914-1.579-2.669.114.022.242.042.388.046l.064.002z" fill="#1A1919"/></svg>