<svg width="65" height="14" viewBox="0 0 65 14" fill="none" xmlns="http://www.w3.org/2000/svg"><path d="M64.786 14a.208.208 0 00.152-.063.215.215 0 00.062-.155v-1.447a.22.22 0 00-.062-.155.211.211 0 00-.152-.063h-1.9c-.454 0-1.604-.027-2.246-.355a1.4 1.4 0 01-.482-.355.756.756 0 01-.133-.49V.217a.22.22 0 00-.062-.155A.21.21 0 0059.81 0h-4.12a.207.207 0 00-.152.063.215.215 0 00-.062.155v10.343c-.009.496.111.986.348 1.42a3.11 3.11 0 001.15 1.037c1.552.873 4.307.955 5.377.955h2.434m-55.262-.055a.208.208 0 00.153-.063.216.216 0 00.061-.155V1.91h5.002a.208.208 0 00.152-.063.215.215 0 00.062-.155V.245a.22.22 0 00-.061-.155.21.21 0 00-.153-.063H.215C.08.054 0 .137 0 .245v1.447a.205.205 0 00.057.16.196.196 0 00.157.058h5.002v11.817a.22.22 0 00.062.155.211.211 0 00.152.063h4.092" fill="#EB212E"/><path d="M23.165 7.014a.957.957 0 01-.134.49 1.115 1.115 0 01-.481.356c-.642.327-1.819.354-2.247.354h-3.611v-1.61c0-.173.046-.343.134-.49.126-.161.292-.284.481-.356.642-.327 1.82-.354 2.247-.354h.722c.455 0 1.605.027 2.247.354a1.4 1.4 0 01.482.355c.1.143.147.317.133.491v.41h.027zm4.467 6.904a.208.208 0 00.152-.063.217.217 0 00.062-.155v-1.42a.219.219 0 00-.062-.155.21.21 0 00-.152-.063h-8.078c-.455 0-1.605-.027-2.247-.354a1.401 1.401 0 01-.481-.355.756.756 0 01-.134-.491v-.764h4.12c1.07 0 3.905-.055 5.456-.847a3.32 3.32 0 001.15-.873c.535-.737.589-2.183 0-2.974a2.826 2.826 0 00-1.15-.874c-1.551-.791-4.387-.846-5.457-.846h-1.765c-1.07 0-3.905.082-5.457.874a3.16 3.16 0 00-1.15.955c-.246.369-.368.81-.348 1.255v4.12c-.024.447.099.889.348 1.256a3.21 3.21 0 001.15.955c1.551.792 4.387.874 5.457.874h8.586v-.055zm20.918-2.865a.956.956 0 01-.134.49 1.124 1.124 0 01-.482.356c-.642.327-1.819.354-2.246.354h-.723c-.455 0-1.605-.027-2.247-.354a1.4 1.4 0 01-.481-.355.756.756 0 01-.134-.491v-.464c0-.174.046-.344.134-.492.126-.16.293-.282.481-.354.642-.328 1.82-.355 2.247-.355h3.611v1.665h-.026zm4.253-5.513a3.21 3.21 0 00-1.15-.955c-1.552-.792-4.387-.873-5.457-.873H39.16a.208.208 0 00-.152.063.215.215 0 00-.062.155v1.446a.22.22 0 00.062.155.21.21 0 00.152.064h6.526c.455 0 1.605.027 2.247.354a1.4 1.4 0 01.482.355c.1.143.147.317.134.491v.683h-4.12c-1.07 0-3.905.054-5.456.846-.442.202-.834.5-1.15.873-.562.791-.59 2.265 0 3.056.303.388.699.689 1.15.874 1.551.791 4.386.846 5.456.846h1.766c1.07 0 3.905-.082 5.456-.874.453-.22.847-.548 1.15-.955.246-.369.368-.81.348-1.255V6.823a2.185 2.185 0 00-.347-1.283zm-23.031 8.187a.22.22 0 00.062.155.211.211 0 00.152.063h4.12a.208.208 0 00.198-.134.22.22 0 00.015-.084V5.595h2.515a.207.207 0 00.152-.063.216.216 0 00.062-.156V3.93a.22.22 0 00-.062-.155.21.21 0 00-.152-.063h-2.515v-.655a.887.887 0 01.134-.492c.126-.16.293-.282.481-.354.643-.328 1.9-.355 2.328-.355h1.819a.207.207 0 00.152-.063.218.218 0 00.062-.156V.218a.22.22 0 00-.062-.155A.21.21 0 0039.08 0h-2.328c-1.07 0-3.905.082-5.456.955-.458.25-.852.604-1.15 1.037a2.681 2.681 0 00-.348 1.528v10.207" fill="#EB212E"/></svg>