<svg width="87" height="14" viewBox="0 0 87 14" fill="none" xmlns="http://www.w3.org/2000/svg"><path fill-rule="evenodd" clip-rule="evenodd" d="M22.176 3.001L16.634 13.36v.136h9.914v-2.578h-5.58L26.493.657V.5h-9.386v2.501h5.068zm13.952 5.047V5.525H31.69V3h4.814V.5h-7.717v12.995h7.89v-2.653H31.69V8.047h4.437zm14.075 5.447V.5h-2.898v7.017L40.04.5h-.744v12.995h2.898V6.088l7.345 7.407h.664zm7.378-2.616h-1.84V3.121h1.84c2.229 0 3.394 1.943 3.394 3.86.006 1.873-1.063 3.898-3.394 3.898zM57.618.522h-4.776v12.973h4.782a6.062 6.062 0 004.49-1.782A6.74 6.74 0 0063.88 6.95c0-3.2-2.148-6.427-6.26-6.427zm15.42 7.526V5.525h-4.442V3h4.82V.5h-7.718v12.995h7.89v-2.653h-4.986V8.047h4.436zM87 13.495V.5h-2.898v7.017L76.837.5h-.74v12.995h2.9V6.088l7.344 7.407H87z" fill="#000"/><path fill-rule="evenodd" clip-rule="evenodd" d="M4.048.5H0v4.06a2.45 2.45 0 00.655 1.661c.42.451.993.726 1.606.77a4.233 4.233 0 014.22 4.235 2.438 2.438 0 002.418 2.269h4.053V9.434a2.454 2.454 0 00-.656-1.66 2.438 2.438 0 00-1.605-.771 4.23 4.23 0 01-4.22-4.234 2.456 2.456 0 00-.77-1.61A2.44 2.44 0 004.048.5z" fill="url(#paint0_linear_7705_47955)"/><path fill-rule="evenodd" clip-rule="evenodd" d="M12.952 4.56V.5H8.905c-.675 0-1.312.282-1.77.774 0 0-6.493 6.503-6.606 6.65A2.417 2.417 0 000 9.433v4.06h4.048c.75 0 1.451-.346 1.91-.941l6.27-6.26a2.429 2.429 0 00.724-1.732z" fill="url(#paint1_linear_7705_47955)"/><defs><linearGradient id="paint0_linear_7705_47955" x1="12.948" y1="13.496" x2="-.046" y2=".546" gradientUnits="userSpaceOnUse"><stop stop-color="#64B345"/><stop offset=".24" stop-color="#95C13D"/><stop offset=".3" stop-color="#5EA745"/><stop offset=".5" stop-color="#019046"/><stop offset=".68" stop-color="#5EA745"/><stop offset=".74" stop-color="#95C13D"/><stop offset="1" stop-color="#53AE47"/></linearGradient><linearGradient id="paint1_linear_7705_47955" x1="1.694" y1="17.282" x2="11.306" y2="-3.251" gradientUnits="userSpaceOnUse"><stop stop-color="#53AE47"/><stop offset="1" stop-color="#FDEC06"/></linearGradient></defs></svg>