<svg width="90" height="26" viewBox="0 0 90 26" fill="none" xmlns="http://www.w3.org/2000/svg"><path fill-rule="evenodd" clip-rule="evenodd" d="M21.998 3.506C19.734 1.251 16.478 1 12.5 1c-3.984 0-7.244.255-9.507 2.516S.5 9.031.5 13.01c0 3.98.23 7.236 2.493 9.498 2.264 2.262 5.524 2.49 9.507 2.49 3.983 0 7.243-.228 9.506-2.49C24.27 20.246 24.5 16.99 24.5 13.01c0-3.984-.233-7.243-2.502-9.504z" fill="#FF6900"/><path fill-rule="evenodd" clip-rule="evenodd" d="M20.12 8.134c.09 0 .164.07.164.157v9.416a.161.161 0 01-.164.157h-2.11a.16.16 0 01-.163-.157V8.291a.16.16 0 01.164-.157h2.109zm-9.153 0c1.591 0 3.255.071 4.075.874.807.79.894 2.365.898 3.893v4.806a.16.16 0 01-.164.157h-2.108a.161.161 0 01-.165-.157v-4.89c-.002-.853-.052-1.73-.502-2.171-.387-.38-1.11-.467-1.862-.486H7.317a.16.16 0 00-.163.157v7.39a.161.161 0 01-.165.157H4.88a.16.16 0 01-.163-.157V8.291a.16.16 0 01.163-.157h6.088zm.473 3.75c.09 0 .162.07.162.156v5.668a.16.16 0 01-.162.156H9.224a.16.16 0 01-.164-.157V12.04a.16.16 0 01.164-.156h2.216z" fill="#fff"/><path d="M32.389 19.001h2.47l3.023-4.658h.07l2.989 4.658h2.61L39.394 12.7v-.062l4.227-6.32h-2.54l-2.97 4.764h-.07L35.104 6.32h-2.681l4.096 6.266v.062L32.389 19zm12.928 0h2.189V9.685h-2.189V19zM46.398 8.28a1.19 1.19 0 001.204-1.187c0-.659-.527-1.186-1.204-1.186a1.19 1.19 0 00-1.195 1.186c0 .65.536 1.187 1.195 1.187zm6.706 9.218c-.95 0-1.582-.483-1.582-1.248 0-.738.606-1.213 1.661-1.283l2.153-.132v.712c0 1.125-.993 1.951-2.232 1.951zm-.66 1.653c1.196 0 2.365-.624 2.901-1.635h.044v1.485h2.11v-6.416c0-1.872-1.503-3.093-3.815-3.093-2.373 0-3.858 1.248-3.955 2.988h2.03c.14-.774.8-1.275 1.837-1.275 1.081 0 1.74.563 1.74 1.538v.668l-2.46.141c-2.268.14-3.542 1.134-3.542 2.786 0 1.679 1.309 2.813 3.11 2.813zm11.303.035c2.734 0 4.509-1.82 4.509-4.843 0-3.014-1.793-4.851-4.509-4.851s-4.509 1.845-4.509 4.851c0 3.024 1.776 4.843 4.51 4.843zm0-1.732c-1.389 0-2.285-1.125-2.285-3.11 0-1.978.905-3.112 2.285-3.112 1.389 0 2.285 1.134 2.285 3.111 0 1.986-.896 3.111-2.285 3.111zm6.275 1.547h2.189v-5.704c0-1.125.738-1.942 1.793-1.942 1.02 0 1.652.641 1.652 1.679V19h2.127v-5.757c0-1.116.72-1.89 1.775-1.89 1.073 0 1.67.651 1.67 1.794V19h2.189v-6.39c0-1.863-1.204-3.102-3.041-3.102-1.345 0-2.452.72-2.9 1.872h-.053c-.343-1.195-1.284-1.872-2.602-1.872-1.266 0-2.25.712-2.654 1.793h-.044V9.685h-2.1V19zm15.565 0h2.189V9.685h-2.189V19zM86.668 8.28a1.19 1.19 0 001.204-1.187c0-.659-.527-1.186-1.204-1.186a1.19 1.19 0 00-1.195 1.186c0 .65.536 1.187 1.195 1.187z" fill="#000"/></svg>