<svg width="98" height="25" viewBox="0 0 98 25" fill="none" xmlns="http://www.w3.org/2000/svg"><path fill-rule="evenodd" clip-rule="evenodd" d="M71.078 7.01c-.225.779-.458 1.557-.683 2.336l-1.597 5.536c-.169.586-.425.776-1.035.776h-.845c-.507 0-.778-.193-.923-.691-.451-1.546-.898-3.095-1.347-4.642-.3-1.036-.601-2.07-.904-3.105a.412.412 0 00-.11-.2v7.732c0 .642-.264.908-.901.909-.413 0-.826.003-1.24 0-.488-.005-.788-.303-.788-.794a9154.28 9154.28 0 010-10.481c0-.479.296-.781.768-.784 1.004-.005 2.008-.005 3.012 0 .427 0 .704.212.829.662.366 1.329.72 2.66 1.078 3.991l.976 3.64c.043-.122.072-.192.091-.265l1.915-7.144c.197-.733.39-.885 1.142-.885h2.703c.545 0 .831.287.832.834v10.397c0 .541-.292.827-.838.83h-1.24c-.563 0-.85-.282-.85-.846V7.019l-.045-.009zm-15.609.94a11392.644 11392.644 0 00-3.668 7.19c-.184.363-.464.534-.882.523-.665-.018-1.332-.003-1.998-.005-.53 0-.829-.29-.83-.81V4.394c0-.495.295-.789.786-.796.44-.005.882-.003 1.323 0 .529.004.818.292.819.82v7.067l.045.018c.054-.091.113-.18.16-.273 1.19-2.33 2.386-4.657 3.565-6.993.225-.445.52-.672 1.035-.645.59.03 1.182.006 1.773.008.57 0 .854.281.854.84v10.371c0 .564-.281.85-.844.852h-1.268c-.523-.004-.814-.296-.814-.825V7.966l-.056-.016zm23.783 5.171h5.85c.546 0 .83.287.833.834 0 .31.004.62 0 .93-.008.46-.3.77-.754.77-2.703.005-5.407.005-8.11 0-.457 0-.764-.304-.764-.759-.004-3.513-.004-7.026 0-10.54 0-.458.303-.76.763-.76 2.703-.004 5.407-.004 8.11 0 .456 0 .747.307.755.768.005.31 0 .62 0 .93-.003.547-.287.835-.832.835h-5.85v2.255h5.788c.622 0 .892.268.893.887v.845c-.005.507-.296.802-.807.803-1.867.002-3.735.002-5.603 0h-.27l-.002 2.202zM41.203 3.597h1.014c.406.003.634.154.774.527C44.286 7.58 45.578 11.04 46.87 14.5c.264.709-.063 1.158-.822 1.158H44.75c-.51 0-.713-.141-.883-.613-.17-.47-.343-.932-.502-1.403-.047-.138-.113-.187-.259-.187-1.276.006-2.553.006-3.83 0-.145 0-.214.043-.261.184-.166.488-.344.971-.521 1.455-.147.405-.372.564-.805.564-.498 0-.995.005-1.492 0-.563-.007-.918-.46-.732-.99.476-1.342.98-2.674 1.477-4.01.805-2.16 1.612-4.32 2.422-6.478.162-.433.377-.581.851-.583h.987zm.022 3.459h-.068l-1.266 3.854h2.602l-1.268-3.854zm49.89 4.769V14.8c0 .579-.282.857-.866.858-.423 0-.845.004-1.268 0-.49-.004-.793-.3-.793-.79-.003-3.494-.003-6.989 0-10.483 0-.492.298-.79.792-.79 1.501 0 3.003-.017 4.505.011a7.55 7.55 0 011.613.206c1.803.433 2.777 1.603 2.868 3.451a6.55 6.55 0 01-.13 1.733c-.337 1.533-1.407 2.343-2.883 2.645-.584.12-1.19.15-1.788.175-.673.031-1.347.009-2.05.009zm.02-5.689v3.149c.837 0 1.653.023 2.467-.007.814-.03 1.455-.74 1.455-1.569 0-.828-.636-1.537-1.457-1.567-.822-.03-1.63-.005-2.464-.005zM32.987 9.068c.323.19.66.345.943.563.742.58.99 1.384.95 2.296-.088 1.96-1.634 3.246-3.463 3.607a7.327 7.327 0 01-3.561-.169c-1.465-.44-2.46-1.353-2.822-2.89-.133-.563.161-.979.738-.984.488-.004.976 0 1.465 0 .41 0 .624.151.773.527.483 1.22 1.98 1.723 3.118 1.045.45-.267.676-.661.653-1.192-.023-.53-.267-.964-.767-1.145-.387-.14-.817-.197-1.233-.22-.675-.036-.915-.245-.921-.92a4.846 4.846 0 01.023-.59c.042-.368.31-.597.685-.614.281-.012.563-.003.838-.056.727-.14 1.133-.62 1.095-1.249-.035-.594-.571-1.13-1.25-1.157-.412-.016-.837.06-1.24.156-.327.077-.577.315-.713.634-.196.457-.522.65-1.021.608-.355-.03-.713-.006-1.07-.007-.653 0-.976-.416-.81-1.058.233-.894.782-1.55 1.569-2.01.704-.411 1.486-.574 2.285-.632.948-.07 1.893-.022 2.812.259.611.186 1.162.472 1.613.937 1.23 1.266.98 3.252-.529 4.164l-.16.097zM53.6 3.036c-.798-.015-1.467-.127-2.07-.493-.35-.211-.654-.475-.824-.858-.17-.382-.056-.772.265-.996a.754.754 0 011.02.125c.61.69 1.375.754 2.183.531.287-.078.546-.303.783-.504.236-.2.49-.348.813-.263a.762.762 0 01.578.591c.07.285-.03.536-.201.761-.477.63-1.146.914-1.897 1.04-.249.042-.503.053-.65.066z" fill="#4B5959"/><path d="M25.096 20.162h1.728c.901 0 1.551.354 1.551 1.326 0 .884-.568 1.293-1.386 1.293h-.866v1.315h-1.027v-3.934zm1.606 1.823c.353 0 .68-.027.68-.486 0-.38-.238-.497-.596-.497h-.663v.984h.58zm4.018 2.205c-1.214 0-1.971-.862-1.971-2.061 0-1.166.778-2.06 1.96-2.06 1.17 0 1.926.8 1.926 2.065 0 1.156-.722 2.056-1.915 2.056zm-.022-3.285c-.552 0-.9.47-.9 1.215 0 .768.337 1.226.904 1.226.558 0 .883-.458.883-1.242.002-.748-.335-1.2-.887-1.2zm4.394 3.191H33.21v-3.934h3.097v.829h-2.084v.486h.922c.916 0 1.496.41 1.496 1.293.002.953-.572 1.326-1.55 1.326zm-.166-1.817h-.707v.983h.733c.436 0 .65-.116.65-.497.003-.437-.322-.487-.676-.487zm4.118 1.911c-1.214 0-1.971-.862-1.971-2.061 0-1.166.778-2.06 1.96-2.06 1.17 0 1.925.8 1.925 2.065.001 1.156-.722 2.056-1.914 2.056zm-.022-3.287c-.552 0-.901.47-.901 1.215 0 .768.338 1.227.905 1.227.558 0 .883-.458.883-1.243.001-.746-.335-1.197-.887-1.197v-.002zm5.635.132h-1.165v3.061h-1.038v-3.06H41.29v-.874h3.367v.873zm4.061 3.155c-1.214 0-1.97-.862-1.97-2.061 0-1.166.778-2.06 1.959-2.06 1.17 0 1.926.8 1.926 2.065 0 1.156-.721 2.056-1.915 2.056zm-.022-3.287c-.551 0-.9.47-.9 1.215 0 .768.337 1.227.904 1.227.558 0 .884-.458.884-1.243.002-.746-.334-1.197-.886-1.197l-.002-.002zm5.907 3.193h-1.032v-1.624h-1.33v1.624h-1.033v-3.934h1.033v1.403h1.33v-1.403h1.032v3.934zm4.113 0h-1.033v-3.06h-.872l-.05 1.53c-.038 1.11-.53 1.607-1.203 1.607a2.283 2.283 0 01-.54-.071v-.823c.097.033.2.05.303.05.232 0 .42-.1.442-.906l.066-2.26h2.887v3.933zm4.299 0h-1.06l-.255-.718h-1.358l-.26.718h-1.048l1.474-3.939h1.037l1.47 3.94zm-1.987-2.834l-.45 1.375h.894l-.444-1.375zm5.707 2.834h-.999l.072-2.619-1.342 2.62H63.34v-3.935h.999l-.04 2.62 1.342-2.62h1.094v3.934zm-1.622-4.126c-.52 0-1.01-.243-1.01-.835h.474c.05.216.276.32.536.32s.486-.104.535-.32h.474c0 .591-.49.835-1.01.835zm5.734 4.126h-1.032v-1.624h-1.328v1.624h-1.032v-3.934h1.032v1.403h1.33v-1.403h1.033l-.003 3.934zm4.018.094c-1.093 0-1.738-.52-1.755-1.41h1.032c0 .464.32.62.718.62.347 0 .59-.198.59-.474 0-.326-.26-.503-.634-.503h-.365v-.719c.116.011.249.011.298.011.442 0 .602-.204.602-.442 0-.215-.205-.42-.514-.42-.398 0-.62.166-.64.481h-.978c.016-.817.612-1.265 1.595-1.265.938 0 1.534.409 1.534 1.094 0 .339-.26.68-.557.79.422.085.72.464.706.895.002.8-.71 1.342-1.632 1.342zm5.746-.094h-1.06l-.254-.718H77.94l-.26.718h-1.047l1.474-3.939h1.037l1.468 3.94zm-1.986-2.834l-.45 1.375h.894l-.444-1.375zm5.706 2.834h-.999l.072-2.619-1.343 2.62h-1.127v-3.935h1l-.04 2.62 1.342-2.62h1.094l.001 3.934zM82.71 19.97c-.519 0-1.01-.243-1.01-.835h.475c.05.216.276.32.535.32.26 0 .486-.104.536-.32h.475c-.001.591-.493.835-1.011.835zm2.35.192h1.49l.718 2.73.732-2.73h1.452v3.934h-.97l.05-3-.878 3h-.789l-.872-2.995.033 2.995h-.966v-3.934zm6.95 4.028c-1.215 0-1.972-.862-1.972-2.061 0-1.166.778-2.06 1.96-2.06 1.17 0 1.925.8 1.925 2.065.002 1.156-.722 2.056-1.914 2.056zm-.023-3.287c-.552 0-.901.47-.901 1.215 0 .768.338 1.227.905 1.227.558 0 .883-.458.883-1.243 0-.746-.337-1.197-.887-1.197v-.002zm2.511-.741h1.976c.679 0 1.27.26 1.27.989 0 .395-.182.62-.513.795.469.155.706.481.706.967 0 .365-.132.669-.386.884-.338.287-.718.298-1.143.298h-1.91v-3.933zm1.739 1.547c.347 0 .507-.116.507-.381 0-.326-.26-.381-.536-.381h-.706v.763h.735zm.077 1.574c.309 0 .585-.06.585-.447s-.292-.451-.613-.451h-.784v.902l.812-.004z" fill="#7D8888"/><path d="M6.83 17.28H.002v6.834H6.83V17.28z" fill="#FF8900"/><path d="M6.83 17.28L.002 24.114V17.28H6.83z" fill="#FFA700"/><path d="M13.66 17.28H6.83v6.834h6.828V17.28z" fill="#FFB83A"/><path d="M13.66 17.28l-6.83 6.834V17.28h6.828z" fill="#FFCA49"/><path d="M13.66 10.446H6.83v6.833h6.828v-6.833z" fill="#B8BA3C"/><path d="M13.66 10.446l-6.83 6.833v-6.833h6.828z" fill="#CACB4B"/><path d="M20.487 10.446H13.66v6.833h6.828v-6.833z" fill="#71BB3E"/><path d="M20.487 10.446l-6.828 6.833v-6.833h6.828z" fill="#8DCC4E"/><path d="M20.487 3.612H13.66v6.833h6.828V3.612z" fill="#4C9D33"/><path d="M20.487 3.612l-6.828 6.834V3.612h6.828z" fill="#5FB640"/></svg>