<svg width="113" height="10" viewBox="0 0 113 10" fill="none" xmlns="http://www.w3.org/2000/svg"><path d="M15.445 5.84a3.343 3.343 0 001.02-1.697 3.38 3.38 0 00-.113-1.984A3.327 3.327 0 0015.146.592 3.253 3.253 0 0013.276 0H3.283A3.263 3.263 0 00.961.979 3.361 3.361 0 000 3.336v5.507c0 .581.56 1.062 1.133 1.062.574 0 1.11-.48 1.112-1.062V6.727h10.272c1.21 0 1.716.137 1.735 1.428v.813c0 .563.54 1.032 1.099 1.032.56 0 1.08-.469 1.08-1.032V7.84c0-.935-.336-1.583-.986-2zm-2.393-1.144H2.227V3.368c0-.352.138-.69.383-.939.245-.248.578-.388.925-.388h9.517a1.3 1.3 0 01.898.403 1.338 1.338 0 010 1.848 1.3 1.3 0 01-.898.404zm85.149-3.431H86.92a1.07 1.07 0 00-.737.319c-.197.198-.31.465-.319.746.008.283.122.551.318.752.196.2.46.319.738.33h3.824c.176 0 .345.07.47.197a.678.678 0 01.193.475v4.73c0 .593.578 1.07 1.163 1.07.585 0 1.163-.477 1.163-1.07V4.078a.674.674 0 01.41-.621.654.654 0 01.253-.051h3.808c.276-.012.54-.129.735-.328.195-.2.31-.467.32-.748a1.104 1.104 0 00-.32-.746 1.072 1.072 0 00-.737-.319zm-16.953-.001h-5.267a4.197 4.197 0 00-2.942 1.28 4.32 4.32 0 00-1.214 3.006v3.26c0 .592.572 1.082 1.153 1.082.583 0 1.13-.49 1.13-1.082V5.55c0-.569.224-1.114.62-1.516a2.097 2.097 0 011.493-.628h4.79a2.1 2.1 0 011.494.628c.396.402.619.947.62 1.516v3.26c0 .592.533 1.072 1.116 1.072.584 0 1.164-.48 1.164-1.072V5.55a4.32 4.32 0 00-1.213-3.007 4.196 4.196 0 00-2.944-1.28zm-27.66-.058c-.585 0-1.13.49-1.13 1.082V5.55a2.146 2.146 0 01-1.305 1.982 2.084 2.084 0 01-.81.163h-3.342a.745.745 0 01-.534-.225.766.766 0 01-.221-.542v-4.66c0-.593-.575-1.09-1.162-1.09-.586 0-1.138.497-1.138 1.097v4.66c0 .204-.08.398-.221.542a.75.75 0 01-.534.224h-3.342c-.56 0-1.097-.226-1.493-.628a2.161 2.161 0 01-.619-1.517V2.288c0-.591-.568-1.082-1.15-1.082-.583 0-1.131.49-1.131 1.082v3.267a4.297 4.297 0 001.211 3 4.172 4.172 0 002.94 1.268h3.89c1.103 0 1.596-.564 1.596-.564.432.357.97.56 1.527.575.886 0 3.958-.01 3.958-.01a4.179 4.179 0 002.942-1.269 4.306 4.306 0 001.216-3V2.288c.003-.591-.565-1.082-1.148-1.082zm-24.195.056h-6.81a4.171 4.171 0 00-1.64.304 4.22 4.22 0 00-1.396.925 4.281 4.281 0 00-.936 1.4 4.344 4.344 0 000 3.318 4.27 4.27 0 002.332 2.325c.522.211 1.08.314 1.64.304h6.81a4.171 4.171 0 001.64-.304 4.222 4.222 0 001.397-.924c.4-.4.719-.876.936-1.4a4.342 4.342 0 00-.936-4.72 4.236 4.236 0 00-1.396-.924 4.171 4.171 0 00-1.64-.304zm-.165 6.431h-6.483c-1.122 0-2.025-1.006-2.025-2.143 0-1.138.906-2.141 2.026-2.141h6.482c1.121 0 2.026 1.003 2.026 2.14 0 1.138-.905 2.144-2.026 2.144zm34.107-.977h3.706c1.864 0 3.034-1.032 3.034-2.714 0-1.47-1.204-2.741-3.034-2.741h-6.264a4.17 4.17 0 00-1.64.304 4.22 4.22 0 00-1.397.924c-.4.4-.718.876-.936 1.401a4.348 4.348 0 000 3.318c.218.525.536 1.001.936 1.4.4.4.875.714 1.397.925a4.169 4.169 0 001.64.304h7.07c.26-.01.506-.12.688-.307a1.04 1.04 0 00.296-.7 1.03 1.03 0 00-.298-.694 1 1 0 00-.686-.296h-7.103a2.23 2.23 0 01-1.11-.3 2.27 2.27 0 01-.82-.814h4.521v-.01zm-2.588-3.458h6.469c.445 0 .82.356.82.747 0 .39-.375.766-.82.766H58.63c.157-.442.444-.825.823-1.096.38-.27.831-.416 1.294-.417zm52.245 1.272c0-1.95-1.505-3.262-3.426-3.262h-7.711c-.26.01-.506.119-.69.306a1.048 1.048 0 00-.297.701c.008.262.115.51.299.694.183.184.429.29.688.294h7.863c.293 0 .574.12.781.33.207.21.323.495.323.793h-8.311c-1.863 0-3.032 1.03-3.032 2.712 0 1.468 1.203 2.742 3.032 2.742h6.27c2.812 0 4.208-1.274 4.208-3.446.003-.09.022-1.63.003-1.864zm-3.58 3.32h-7.074c-.447 0-.82-.356-.82-.746s.373-.766.82-.766h8.546c.002.398-.152.781-.428 1.064a1.475 1.475 0 01-1.044.449z" fill="#143649"/></svg>