<svg width="88" height="16" viewBox="0 0 88 16" fill="none" xmlns="http://www.w3.org/2000/svg"><path d="M77.735 6.693h-4.776V15.5h4.776V6.693zm-14.72-3.257V5.69c-.535-1.611-2.174-2.757-4.42-2.757-.926 0-1.995.18-2.673.43l-.32 3.4-.357-3.507h-4.134v12.207h4.704V8.412c0-.752.535-1.397 1.32-1.397.748 0 1.39.645 1.39 1.397v7.052h4.704V8.268c0-.716.57-1.288 1.283-1.288a1.28 1.28 0 011.283 1.288v7.196H70.5V7.015c0-2.255-1.889-4.08-4.67-4.08-.926 0-2.102.214-2.815.5zM33.717 6.765l-.356-3.508h-4.277v12.207h4.776V8.412c0-.752.642-1.397 1.39-1.397.748 0 1.39.645 1.39 1.397v7.052h4.776V7.015c0-2.255-1.889-4.08-4.669-4.08-.927 0-1.996.178-2.673.429l-.357 3.4zM11.94 3.436V5.69c-.535-1.611-2.174-2.757-4.42-2.757-.926 0-1.995.18-2.673.43l-.32 3.4-.357-3.507H0v12.207h4.705V8.412c0-.752.534-1.397 1.319-1.397.748 0 1.39.645 1.39 1.397v7.052h4.704V8.268c0-.716.57-1.288 1.283-1.288a1.28 1.28 0 011.284 1.288v7.196h4.704V7.015c0-2.255-1.889-4.08-4.669-4.08-.89 0-2.103.214-2.78.5zm68.219-.179v12.207h4.705V9.557C84.899 7.66 86.004 7.16 88 7.16V3.364c-.32-.107-.677-.215-1.14-.215-.82 0-1.39.25-1.996.609v3.33l-.606-3.796h-4.1v-.035zM43.876 6.156v9.308h4.776V6.156c-.642.537-1.497.895-2.389.895-.89-.036-1.746-.358-2.387-.895zM21.849 7.195v8.27h4.776V4.437l-4.776 2.757z" fill="#252223"/><path d="M43.554 3.292c0 1.504 1.248 2.721 2.71 2.721 1.496 0 2.708-1.253 2.708-2.72 0-1.504-1.247-2.721-2.709-2.721-1.497-.036-2.709 1.217-2.709 2.72zM77.735.894h-4.776V5.69h4.776V.894z" fill="#C9252A"/><path fill-rule="evenodd" clip-rule="evenodd" d="M21.849.5l2.387 1.396 2.389 1.36-4.776 2.793V.5z" fill="#C9252A"/></svg>