<svg width="111" height="16" viewBox="0 0 111 16" fill="none" xmlns="http://www.w3.org/2000/svg"><path fill-rule="evenodd" clip-rule="evenodd" d="M75.655 4.734c3.091 0 5.593 2.517 5.593 5.615 0 3.102-2.507 5.614-5.593 5.614-3.091 0-5.593-2.517-5.593-5.614 0-3.103 2.507-5.615 5.593-5.615zM93.293 6.19l3.6-.208v9.773h1.435V5.982l3.585.208V4.937h-8.615V6.19h-.005zM32.99 7.57l.005 8.19h1.509V4.942H33.49l-4.705 6.883-4.615-6.888h-.834v10.818h1.158l.005-7.939 4.169 6.28 4.323-6.525zm10.904 4.218h-3.67l1.561-4.265.191-.64 1.918 4.905zm-4.106 1.184h4.563l1.088 2.788h1.604L42.795 4.942h-1.04L37.462 15.76h1.307l1.02-2.788zm9.412 1.29c2.358 2.756 7.36 2.17 7.17-1.605-.123-2.388-3.182-2.858-4.61-3.881-1.1-.79-.94-2.005-.112-2.618 1.062-.79 2.65-.155 3.627.501l.776-1.029c-1.216-.773-2.847-1.151-4.175-.741-2.124.65-2.974 3.295-1.158 4.798 1.466 1.21 4.377 1.835 4.435 3.413.027.666-.228 1.146-.616 1.434-1.338.997-3.452-.112-4.397-1.194-.314.293-.643.613-.94.922zm18.753-8.387l-.701.901c-.324-.25-.76-.527-1.1-.671a3.863 3.863 0 00-3.808.41c-2.405 1.728-2.405 5.923 0 7.65 1.334.96 3.192.993 4.802-.244l.802.9a4.836 4.836 0 01-.76.507 5.586 5.586 0 01-2.645.672 5.58 5.58 0 01-4.923-2.959 5.76 5.76 0 010-5.374 5.575 5.575 0 014.923-2.96c1.211-.01 2.465.4 3.41 1.168zM77.455 0l-3.627 2.037.398.762 3.872-1.594L77.455 0zm5.184 6.19l3.6-.208v9.773h1.435V5.982l3.585.208V4.937h-8.62V6.19zm21.552 9.565H111v-1.216l-5.348.144v-4.015l4.488.086v-1.27l-4.488.075V5.95l5.199.203V4.937h-6.66v10.818zM74.439 5.79c2.273-.613 4.43 1.03 5.093 3.514.664 2.484-.382 5-2.656 5.614-2.273.613-4.429-1.04-5.093-3.53-.664-2.484.383-4.985 2.656-5.598z" fill="#8E1537"/><path d="M11.426 5.645l.552-.555.552.555-.552.554-.552-.554zm1.353.252l.552.555-.552.554-.552-.554.552-.555zm.257 1.362l.552-.554.552.554-.553.555-.551-.555zm.803.808l.553.554.552-.554-.552-.555-.553.555zm.803.805l.552.554.552-.554-.552-.555-.553.555zm.807.81l.552.555.552-.555-.552-.554-.552.554zm.802.805l.552.555.552-.555-.552-.554-.552.554zm-5.63-4.036l.552.555.553-.555-.553-.554-.552.554zm.807.805l.553.555.552-.555-.552-.554-.553.554zm.803.807l.552-.555.553.555-.553.554-.552-.554zm.807.809l.552.554.552-.554-.552-.555-.552.555zm.798.81l.553-.554.552.554-.552.555-.553-.555zm.81.807l.552-.554.551.555-.552.554-.552-.555zm.8.809l.552-.554.552.554-.552.554-.552-.554zM9.819 7.256l.552.555.553-.555-.553-.554-.552.554zm.802.81l.552.555.553-.554-.553-.555-.552.555zm.806.809l.552-.555.552.555-.552.554-.552-.554zm.803.807l.553.555.552-.555-.552-.554-.553.554zm.806.808l.552-.554.553.554-.553.555-.552-.555zm.805.803l.553-.554.551.554-.552.555-.552-.555zm.804.811l.553-.554.552.555-.552.554-.553-.555zM9.012 8.067l.552.554.553-.554-.553-.555-.552.555zm.807.805l.552.554.553-.554-.553-.555-.552.555zm.804.807l.552-.554.552.554-.553.555-.551-.555zm.805.808l.553.555.552-.555-.552-.554-.553.554zm.802.81l.553.555.552-.554-.552-.555-.553.555zm.808.806l.552.554.552-.554-.552-.555-.552.555zm.803.806l.553-.554.552.555-.553.554-.552-.555zm-3.218-1.615l.553-.555.551.555-.552.554-.552-.554zm.805.809l.553.554.552-.554-.552-.555-.553.555zm.804.806l.553-.554.552.554-.553.555-.552-.555zm.806.81l.552.554.552-.555-.552-.554-.552.554zm-3.219-1.616l.552.554.553-.554-.553-.555-.552.555zm.805.807l.552-.555.552.555-.552.554-.552-.554zm.8.807l.553-.555.551.555-.552.554-.551-.554zm.806.806l.553.555.552-.555-.552-.549-.553.55zM9.014 12.91l.553-.555.552.555-.552.554-.553-.554zm.805.808l.552.555.553-.555-.553-.554-.552.554zm.802.805l.552.555.553-.555-.553-.549-.552.55zm.804.81l.552-.554.552.555-.552.553-.552-.553zM0 10.5l5.476-5.497L10.95 10.5l-5.475 5.497L0 10.5z" fill="#8E1537"/></svg>