<svg width="114" height="22" viewBox="0 0 114 22" fill="none" xmlns="http://www.w3.org/2000/svg"><path d="M21.595 15.272V7.733a4.102 4.102 0 013.017-1.482c1.224 0 1.41 1.371 1.41 3.787 0 2.679-.026 5.234-.026 5.234h2.67V10.2c0-2.1-.06-3.613-.503-4.545-1.38-2.969-5.266-1.732-7.163-.03-1.546-2.924-4.891-1.798-6.804.06l-.209-1.562h-2.169v11.159h2.675V7.874a4.262 4.262 0 013.106-1.623c1.156 0 1.365 1.371 1.365 3.787 0 2.679-.023 5.234-.023 5.234h2.654zm15.92-2.383c-.957.35-4.177.908-4.177-.925 0-.974.94-1.358 2.765-1.358h1.422l-.01 2.283zm2.68-3.765c0-3.552-.538-5.196-4.452-5.196a13.425 13.425 0 00-4.775.81l1.05 2.23c2.034-.833 5.477-1.583 5.477 1.283-.153-.02-.897-.02-1.641-.02-3.519 0-5.14 1.4-5.14 3.834 0 2.111.855 3.472 3.519 3.472 1.113 0 2.948-.634 3.292-.851v.586h2.67V9.124zm9.3-5.206c-1.474.086-3.301 1.16-4.316 2.146l-.267-1.951h-2.179v11.159h2.67V7.874c.555-.525 2.54-1.232 4.096-1.232l-.005-2.724zm9.148.296h-3.064V0h-1.76l-.914 4.214H50.59v2.454h2.322s-.02 3.592-.02 4.708c0 2.84 1.197 4.14 3.823 4.14a16.22 16.22 0 001.943-.123v-2.5c-.251.051-1.36.079-1.636.079-.975 0-1.44-.758-1.44-2.083V6.668h3.076l-.015-2.454zm-49.06 6.801a2.875 2.875 0 00-.78-1.083 5.062 5.062 0 00-1.509-.873 11.635 11.635 0 00-2.388-.627 5.76 5.76 0 01-1.098-.275 1.976 1.976 0 01-.616-.35.836.836 0 01-.299-.7.973.973 0 01.07-.371.663.663 0 01.272-.31c.195-.11.41-.176.63-.198.354-.04.71-.046 1.064-.017.313.023.624.065.933.126.341.066.72.154 1.108.252a14.244 14.244 0 011.33.435l.731-2.348c-.342-.086-.694-.167-1.048-.253-.355-.086-.716-.151-1.053-.217-1.395-.252-2.938-.44-4.336-.111a3.841 3.841 0 00-1.392.598 2.73 2.73 0 00-.85.967 3.612 3.612 0 00-.176 2.671c.153.408.401.773.724 1.063.433.383.93.684 1.47.889 1.257.505 2.376.505 3.502.901.229.075.445.187.638.331.128.096.23.223.297.369.054.126.08.263.075.401 0 .122-.02.244-.063.359a.731.731 0 01-.264.335 1.563 1.563 0 01-.64.233 4.88 4.88 0 01-1.114.032 9.38 9.38 0 01-1.076-.116 13.42 13.42 0 01-1.189-.272 13.24 13.24 0 01-.92-.288c-.25-.088-.517-.19-.774-.296l-.754 2.399c.342.09.697.18 1.053.252.403.094.81.18 1.207.253.452.086.897.159 1.312.217 1.161.162 2.425.227 3.564-.06a3.876 3.876 0 001.437-.672c.334-.258.605-.588.792-.967a3.51 3.51 0 00.123-2.684" fill="#1D1D1B"/><path d="M108.968 5.756c2.101 0 2.843.518 2.971 2.947h-5.967c.204-2.273.639-2.947 2.996-2.947zm4.391 7.168c-1.036.464-3.056.783-3.979.783-2.639 0-3.405-.213-3.431-3.283h7.988c.128-5.195-1.174-6.455-5.069-6.455-3.818 0-5.093 1.439-5.093 5.96 0 4.681 1.478 5.636 5.324 5.636a16.523 16.523 0 004.901-.783l-.641-1.858zM62.812 20.02H60.83V22h5.937v-1.98h-1.97v-4.814c.665.404 1.256.81 2.892.81 3.77 0 5.351-1.396 5.351-6.059s-1.822-5.983-4.82-5.983a6.128 6.128 0 00-3.424 1.03v-.712H60.83v1.98h1.98l.003 13.749zm22.16-15.729v1.98h1.969v7.008h-1.968v1.98h5.934v-1.98h-1.97V4.292h-3.964zm-4.194 8.988h-1.97V7.397c0-.944 1.563-1.393 3.304-1.393.505 0 1.01.036 1.509.11V4.04a13.11 13.11 0 00-1.333-.066c-1.847 0-2.998.56-3.486 1.146v-.828h-3.958v1.98h1.97v7.008h-1.97v1.98h5.934v-1.98zm19.185-5.302v-1.97c-.144-.032-1.418-.115-2.142-.115-2.639 0-3.456.563-3.456 4.095 0 3.352.817 3.676 3.456 3.676a14.818 14.818 0 003.914-.738l.64 1.869c-1.005.383-3.476.782-4.654.782-4 0-5.502-.954-5.502-5.635 0-4.68 1.535-5.963 5.502-5.963 1.563 0 3.85.313 4.235.313v3.683l-1.993.003zm-35.165-.404c.251-.576 1.42-1.714 3.069-1.714 1.947 0 3.05.631 3.05 4.14 0 3.282-.869 4.14-3.518 4.14-1.664 0-2.609-1.42-2.609-1.792l.008-4.774z" fill="#3882C4"/></svg>