<svg width="120" height="14" viewBox="0 0 120 14" fill="none" xmlns="http://www.w3.org/2000/svg"><path d="M0 .508h5.584v4.85c.25.003.509.015.732-.118.4-.178.604-.594.848-.94.788-1.176 1.586-2.346 2.37-3.526.093-.118.158-.314.342-.266 1.383-.004 2.766.003 4.15-.002a676.381 676.381 0 01-3.213 4.771c.11.128.274.162.424.21.766.323 1.322 1.025 1.569 1.833.466 1.059.887 2.14 1.344 3.204.114.31.258.609.371.92.122.253.225.516.323.78.125.245.216.507.319.764-1.8.005-3.599-.004-5.398.004a1.266 1.266 0 01-.402-.058c-.085-.335-.253-.639-.37-.96-.124-.254-.219-.519-.32-.782-.36-.689-.518-1.492-.992-2.113-.506-.626-1.387-.766-2.097-.47v4.38H0V.508zm16.66 1.319C17.305.51 19.034.273 20.244.81c.765.342 1.426 1.287.996 2.15-.189.4-.518.708-.89.923-.985.484-2.231.445-3.123-.238-.538-.4-.841-1.162-.567-1.817zM88.942.5c1.913.013 3.827.01 5.74.001.39.837.706 1.71 1.08 2.556.098.263.207.523.322.78.113.31.255.61.373.918.125.252.218.519.321.782.126.25.22.517.322.78.681 1.58 1.318 3.18 1.99 4.765.114.31.257.608.372.918.146.328.27.665.423.99-1.93-.016-3.863.029-5.792-.024-.05-.147-.103-.292-.156-.438-.131-.248-.221-.517-.324-.778a6.097 6.097 0 01-.266-.644c-.053-.111-.098-.312-.252-.288-1.457-.004-2.913 0-4.37-.002-.095.332-.258.637-.373.961a11.44 11.44 0 00-.32.781c-.068.145-.133.291-.2.435-.956.002-1.91-.024-2.863.015.142-.345.292-.686.426-1.035.112-.257.222-.517.322-.78.67-1.585 1.31-3.184 1.99-4.765.102-.263.194-.53.322-.78.097-.264.2-.527.323-.78.114-.311.257-.609.371-.92.114-.257.222-.517.323-.78.175-.403.341-.811.509-1.218A24.3 24.3 0 0188.942.5zm.95 7.534c.72-.01 1.438 0 2.156-.004-.242-.665-.541-1.305-.798-1.964a10.208 10.208 0 01-.248-.604c-.422.83-.717 1.725-1.11 2.572zM102.389.809c1.209-.536 2.938-.3 3.584 1.018.285.681-.06 1.467-.624 1.865-.896.63-2.102.667-3.068.19-.372-.216-.7-.522-.889-.923-.426-.858.233-1.81.997-2.15zm-57.18.422h4.832c.002 1.618-.006 3.236.004 4.854.667-.421 1.377-.787 2.153-.933.883-.08 1.804-.033 2.608.394.872.444 1.525 1.258 1.872 2.192.05.203.133.402.128.616v4.635h-4.403V9.14c-.008-.776-.936-1.36-1.606-1.013-.48.182-.801.713-.758 1.238.004 1.209 0 2.415.002 3.623h-4.832V1.23zm70.014 0H120v11.703h-4.777l-.004-.64c-.633.252-1.254.59-1.941.644-.376.023-.752.173-1.126.068-.939-.059-1.905-.217-2.723-.73-.595-.337-1.068-.878-1.378-1.499-.392-.818-.384-1.743-.329-2.632.051-.29.13-.574.218-.854a3.58 3.58 0 011.751-1.907c1.545-.713 3.387-.82 4.955-.116.182.103.374.19.574.25.006-1.43 0-2.858.003-4.287zm-2.696 7.27c-.166.654.086 1.436.694 1.74.671.325 1.5.077 2.004-.46-.006-.58-.002-1.161-.002-1.742a1.993 1.993 0 00-1.247-.623c-.653-.047-1.324.4-1.449 1.085zM24.43 2.346h4.886v3.009h2.47v2.118h-2.47c-.001.78.002 1.56-.002 2.34-.033.617.388 1.162.897 1.431.391.156.828.192 1.214-.002.12-.076.242-.15.364-.224-.008.547-.001 1.096-.005 1.643-1.182.554-2.473.781-3.76.83-.566-.078-1.137-.137-1.674-.356-.725-.313-1.402-.823-1.743-1.576-.143-.378-.17-.787-.178-1.188.003-.961 0-1.922.002-2.883-.483-.031-.968-.01-1.45-.015V5.355c.482-.006.967.014 1.449-.016V2.346zm12.827 2.589c.842-.08 1.696-.246 2.538-.064 1.068.073 2.14.35 3.072.908l.133.175c.019.698 0 1.398.006 2.097-.956-.558-2.1-.585-3.165-.47-.437.029-.85.198-1.256.357-.39.23-.734.596-.787 1.08-.063.571.332 1.086.813 1.316.915.465 1.973.467 2.965.367.5-.055.98-.233 1.428-.468-.025.744.062 1.498-.045 2.236-.305.14-.6.3-.903.443-.863.336-1.775.48-2.69.54-.44.094-.89.023-1.329-.036-1.442-.082-2.942-.525-4.015-1.575a3.995 3.995 0 01-.656-.983c-.675-1.448-.417-3.34.71-4.472a4.883 4.883 0 011.215-.837c.614-.323 1.294-.481 1.966-.614zm23.361.672c1.119-.576 2.376-.717 3.604-.81 1.3-.002 2.629.204 3.804.811.72.381 1.387.928 1.749 1.695a4.91 4.91 0 01.347 2.512c-2.257-.005-4.513 0-6.769-.002-.065.556.16 1.187.678 1.427.795.407 1.73.42 2.592.283 1.15-.086 2.308-.293 3.396-.7-.016.535.009 1.071-.017 1.606-.196.107-.386.225-.59.313-1.321.56-2.76.633-4.167.706-.81.15-1.626-.073-2.44-.074-.636-.101-1.273-.23-1.88-.462-.996-.403-1.905-1.18-2.214-2.276-.242-.622-.188-1.293-.188-1.947.081-1.332.935-2.53 2.095-3.082zm2.735 2.423c.806.001 1.613-.003 2.42.002l-.007-.272a1.35 1.35 0 00-.732-1.163c-.86-.39-1.852.492-1.68 1.433zm13.429-1.95c.857-.489 1.777-1.018 2.791-.95a3.623 3.623 0 011.97.419c.756.348 1.346 1.009 1.71 1.77.257.49.346 1.05.346 1.603-.004 1.351.001 2.705-.003 4.056-1.467.015-2.934.022-4.4-.002 0-1.168 0-2.335.002-3.502 0-.21-.037-.418-.064-.626-.275-.646-1.044-1.045-1.678-.694-.228.146-.41.348-.553.581-.062.207-.145.41-.126.631.004 1.207.001 2.415.002 3.623h-4.766c-.027-2.545-.004-5.09-.011-7.634h4.777c0 .242 0 .484.003.726zm-60.245-.725h4.832v7.634h-4.832V5.355zm84.726 0h4.832v7.634h-4.832V5.355z" fill="#C3122F"/></svg>