<svg width="60" height="32" viewBox="0 0 60 32" fill="none" xmlns="http://www.w3.org/2000/svg"><path d="M21.274 9.04c-1.297 0-2.335.519-3.372 2.047l-4.033 6.081.374-4.727c.115-1.787-1.008-3.4-2.997-3.4-1.844 0-2.997 1.239-3.112 2.824L7.5 20.57c-.144 2.161.98 3.4 2.766 3.4s2.91-1.297 3.746-2.479l3.89-5.908-.346 4.986c-.173 2.018.922 3.4 2.91 3.4 1.845 0 3.055-1.095 3.17-2.737l.634-8.791c.144-1.73-.69-3.4-2.996-3.4z" fill="url(#paint0_linear_7705_48086)"/><path d="M14.238 12.445l-.374 4.727.143 4.323c-.836 1.183-1.96 2.48-3.746 2.48s-2.91-1.24-2.766-3.401l.634-8.705c.115-1.585 1.268-2.825 3.112-2.825 1.989 0 3.113 1.614 2.997 3.401z" fill="url(#paint1_linear_7705_48086)"/><path d="M56.976 9.017c-1.283 0-2.35.513-3.364 2.054l-4.039 6.095.365-4.757c.135-1.784-.986-3.392-2.986-3.392-1.864 0-3.012 1.257-3.12 2.838l-.636 8.69c-.148 2.188.973 3.404 2.81 3.404 1.838 0 2.892-1.257 3.702-2.473l3.904-5.905-.35 4.973c-.15 2.04.918 3.405 2.917 3.405 1.851 0 3.04-1.095 3.161-2.743l.649-8.797c.121-1.703-.716-3.392-3.013-3.392zM41.603 19.759c0-1.986-1.514-3.27-3.513-3.527 1.864-.391 3.5-1.621 3.5-3.621 0-2.217-1.716-3.473-4.864-3.46h-6.377c-2.944 0-4.039 1.19-4.268 4.432l-.379 5.433c-.257 3.648.783 4.797 4.377 4.797h6.106c3.513 0 5.418-1.445 5.418-4.054zm-6.026-.392c0 1.257-.972 1.852-2.594 1.852l-1.718-.014s.27-1.77.443-3.54h1.573c1.35 0 2.296.554 2.296 1.703zm.068-5.945c0 1.08-.878 1.73-2.432 1.73H31.92s.13-1.972.045-3.393h1.423c1.419 0 2.256.609 2.256 1.662zm-21.393-1.228c0-1.648-1.066-3.155-3.026-3.155-1.96 0-3.097 1.47-3.097 3.055 0 1.7 1.276 3.026 3.062 3.026 1.787 0 3.06-1.225 3.06-2.925z" fill="#F30745"/><path d="M28.853 5.787c-.776-.977-1.949-1.762-3.783-2.397-1.852-.64-4.281-1.093-7.46-1.458-3.18-.365-5.649-.473-7.597-.269-1.93.202-3.251.702-4.227 1.477-.976.776-1.762 1.95-2.396 3.784-.64 1.852-1.094 4.282-1.459 7.462-.364 3.18-.473 5.65-.268 7.598.202 1.931.702 3.252 1.477 4.228.776.977 1.949 1.763 3.783 2.397 1.851.64 4.28 1.094 7.46 1.46 3.18.364 5.648.472 7.596.268 1.93-.203 3.251-.703 4.227-1.478.758-.602 1.4-1.443 1.947-2.647h1.693c-2.16 5.492-6.34 6.474-15.641 5.407C1.347 30.143-1.093 27.07.38 14.208 1.856 1.346 4.928-1.094 17.787.38c8.04.923 12.008 2.47 13.491 6.643h-1.68a5.77 5.77 0 00-.745-1.237z" fill="url(#paint2_linear_7705_48086)"/><defs><linearGradient id="paint0_linear_7705_48086" x1="15.224" y1="16.432" x2="8.991" y2="15.641" gradientUnits="userSpaceOnUse"><stop offset=".15" stop-color="#F30745"/><stop offset=".62" stop-color="#F30745" stop-opacity=".6"/><stop offset="1" stop-color="#F30745" stop-opacity="0"/></linearGradient><linearGradient id="paint1_linear_7705_48086" x1="9.476" y1="23.861" x2="11.168" y2="14.637" gradientUnits="userSpaceOnUse"><stop offset=".15" stop-color="#F30745"/><stop offset=".62" stop-color="#F30745" stop-opacity=".6"/><stop offset="1" stop-color="#F30745" stop-opacity="0"/></linearGradient><linearGradient id="paint2_linear_7705_48086" x1="65.801" y1="51.231" x2="41.784" y2="-16.127" gradientUnits="userSpaceOnUse"><stop offset=".798" stop-color="#F30745"/><stop offset=".977" stop-color="#FFBCCE"/></linearGradient></defs></svg>