<svg width="104" height="14" viewBox="0 0 104 14" fill="none" xmlns="http://www.w3.org/2000/svg"><path d="M6.93 5.291l4.09 5.89H8.73L5.21 6.157H3.52v5.024H1.516V1.874H0L1.01 0h2.51v4.425h1.69L8.556 0h2.274l-3.9 5.291zm3.473 1.859c0-.872.2-1.633.6-2.284a3.823 3.823 0 011.595-1.401 4.942 4.942 0 012.178-.489c.8 0 1.521.158 2.163.473a3.727 3.727 0 011.595 1.449c.39.63.584 1.38.584 2.252 0 .881-.195 1.643-.584 2.283a3.97 3.97 0 01-1.595 1.465 4.716 4.716 0 01-2.162.504 4.78 4.78 0 01-2.163-.504 3.91 3.91 0 01-1.626-1.465c-.39-.65-.585-1.412-.585-2.283zm34.053-3.922h1.784v1.087c.273-.42.636-.74 1.089-.96.463-.232 1.058-.347 1.784-.347.747 0 1.41.168 1.99.504.557.346.988.84 1.294 1.48.315.63.473 1.354.473 2.173 0 .83-.158 1.565-.473 2.205a3.449 3.449 0 01-1.295 1.465c-.263.178-.573.31-.931.393-.348.095-.7.142-1.058.142-.621 0-1.084-.047-1.39-.142-.63-.189-1.078-.504-1.341-.945V14h-1.926V3.228zm-24.312 0h1.91v3.024h3.268V3.228h1.895v7.953h-1.895V7.827h-3.268v3.354h-1.91V3.228zm7.91 0h7.34V4.74H32.68v6.441h-1.942v-6.44h-2.684V3.227zm9.977 0a117.436 117.436 0 011.957 5.796 108.58 108.58 0 011.895-5.796h1.926l-2.937 8.11c-.242.662-.473 1.171-.694 1.528a2.345 2.345 0 01-.9.803c-.348.19-.81.284-1.39.284-.326 0-.505-.005-.536-.016l-.647-1.512c.2.042.447.063.741.063.358 0 .648-.052.869-.157.2-.084.352-.2.458-.347a1.86 1.86 0 00.268-.52L36.01 3.229h2.02zM12.345 7.134c0 .871.21 1.538.632 2 .42.451 1.005.677 1.752.677.758 0 1.347-.226 1.768-.677.432-.462.648-1.129.648-2 0-.85-.211-1.491-.632-1.921-.42-.441-1.016-.662-1.784-.662-.758 0-1.347.22-1.768.662-.41.43-.616 1.07-.616 1.92zm33.99.016c.02.787.231 1.417.631 1.89.4.472.963.708 1.69.708.725 0 1.283-.236 1.672-.709.4-.472.606-1.102.616-1.89-.01-.776-.216-1.396-.616-1.858-.389-.472-.947-.708-1.673-.708-.726 0-1.29.23-1.689.693-.4.462-.61 1.086-.632 1.874z" fill="#222"/><path d="M70.062 11.181H56.185V0h1.453v9.968h4.752V0h1.452v9.968h4.767V0h1.453v11.181zm4.945-3.512h-1.374v3.512h-1.358V3.228h1.358v3.339h1.389l2.62-3.339h1.453l-2.984 3.827 3.237 4.126H77.8L75.007 7.67zm12.775-.456c0 .818-.173 1.543-.52 2.173a3.833 3.833 0 01-1.484 1.496c-.632.346-1.353.52-2.164.52-.82 0-1.541-.179-2.162-.536a3.723 3.723 0 01-1.5-1.464c-.347-.63-.521-1.36-.521-2.19V7.15c0-.809.179-1.523.537-2.142a3.649 3.649 0 011.468-1.465c.632-.357 1.357-.535 2.178-.535.811 0 1.532.173 2.164.52a3.65 3.65 0 011.468 1.464c.358.63.536 1.35.536 2.158v.063zm-6.962 0c0 .609.116 1.139.347 1.59.232.473.558.835.98 1.087.42.252.91.378 1.467.378.558 0 1.047-.132 1.468-.394.422-.252.743-.609.964-1.07.231-.463.347-.993.347-1.591V7.15c0-.599-.116-1.124-.347-1.575a2.539 2.539 0 00-.995-1.055 2.742 2.742 0 00-1.437-.378 2.83 2.83 0 00-1.436.362 2.65 2.65 0 00-.995 1.07c-.242.463-.363.988-.363 1.576v.063zm7.27 2.803c.158.042.326.063.506.063.294 0 .516-.079.663-.236.147-.168.247-.452.3-.85.052-.452.09-1.035.11-1.749l.095-4.016h5.904v7.953h-1.357v-6.85H90.98l-.08 3.008c-.03 1.08-.1 1.874-.205 2.378-.115.545-.326.94-.63 1.18-.296.242-.743.363-1.343.363l-.316-.032-.315-.063v-1.15zm14.678 1.165v-1.07c-.283.42-.662.745-1.136.976-.474.22-1.021.33-1.642.33-.884 0-1.579-.2-2.084-.598-.495-.399-.742-.96-.742-1.685v-.079c0-.798.28-1.401.837-1.81.569-.42 1.442-.662 2.621-.725l2.084-.142v-.535c0-.567-.164-.993-.49-1.276-.326-.294-.8-.441-1.421-.441-.516 0-.984.105-1.405.315-.41.2-.831.535-1.263 1.008l-.868-.788c.916-1.102 2.084-1.653 3.504-1.653 1.021 0 1.816.241 2.384.724.569.483.853 1.155.853 2.016v5.433h-1.232zm-2.052-3.7c-.82.041-1.4.178-1.736.409-.337.23-.506.598-.506 1.102v.079c0 .41.153.724.458.945.316.22.758.33 1.326.33.453 0 .869-.089 1.248-.267.379-.179.673-.425.883-.74.211-.326.317-.693.317-1.103v-.85l-1.99.094z" fill="#F03B36"/></svg>