<svg width="86" height="12" viewBox="0 0 86 12" fill="none" xmlns="http://www.w3.org/2000/svg"><g clip-path="url(#clip0)" fill="#333"><path d="M20.932.072v.073l-5.103 2.963H8.68L7.634 4.916h4.917v.072C9.87 6.512 8.455 7.295 8.306 7.338H6.22c-.466.692-.8 1.27-1.006 1.734h10.578l.037.036h.038c-1.018 1.76-1.602 2.723-1.75 2.892H.073l-.037-.036H0L6.965.072h13.967z"/><path d="M29.554.072c1.614.12 2.421.639 2.421 1.555v.144c0 .482-.372 1.313-1.117 2.494-1.918 3.32-3.036 5.187-3.352 5.602C26.276 11.29 24.613 12 22.515 12h-8.53c.075-.217 1.205-2.169 3.39-5.855L20.951.072h8.603zM19.2 9.036h.186L23.297 9c.51 0 1.105-.361 1.788-1.084.64-.886 1.434-2.2 2.384-3.94l.037-.325v-.036c-.062-.338-.31-.507-.745-.507h-4.023c-.31.446-1.49 2.422-3.538 5.928zM37.879.072h10.13v.073l-4.804 2.891h-5.29c-1.054 0-2.023.603-2.904 1.807v.073l2.98-.036h1.973c1.49 0 2.372.265 2.645.795.1.168.149.385.149.65 0 .488-.571 1.549-1.713 3.181-.932 1.078-1.875 1.765-2.831 2.06-.882.29-1.651.434-2.31.434h-5.363l-3.054-.036v-.072l5.066-2.928h3.315c1.502 0 2.532-.578 3.09-1.735h-5.474c-1.074 0-1.77-.265-2.086-.795l-.149-.542c0-.693.795-2.043 2.384-4.049 1.21-1.18 2.625-1.77 4.246-1.77z"/><path d="M57.935 0l3.24.036v.072l-5.065 3h-3.277C49.388 9.036 47.637 12 47.58 12h-3.464v-.036l5.252-8.892h-4.99V3l5.139-3h8.417zm7.208.036h4.618c1.44 0 2.285.434 2.532 1.301l.038.253v.073c0 .536-.46 1.536-1.378 3-1.726 2.982-2.707 4.632-2.943 4.951-1.328 1.567-2.917 2.35-4.767 2.35L57.805 12c-1.061 0-1.769-.325-2.123-.976a.883.883 0 01-.112-.47v-.144c0-.579.497-1.627 1.49-3.145 1.564-2.657 2.52-4.223 2.868-4.699C61.318.88 63.057.036 65.143.036zm-4.991 8.277c0 .307.21.524.633.65h2.719c1.123 0 2.116-.915 2.98-2.746.868-1.331 1.303-2.175 1.303-2.53 0-.41-.397-.615-1.192-.615h-1.564c-1.558 0-2.75.904-3.576 2.711-.869 1.331-1.303 2.175-1.303 2.53zM83.356.072c1.272 0 2.104.314 2.495.94.1.175.149.368.149.578v.073c0 .566-.484 1.59-1.452 3.072-2.384 4.169-3.8 6.59-4.246 7.265h-3.464v-.036l4.47-7.663c.123-.229.185-.446.185-.65v-.109c0-.313-.235-.47-.707-.47h-4.06c-3.433 5.886-5.196 8.862-5.29 8.928h-3.389c0-.072 1.155-2.06 3.464-5.964L75.05.072h8.306z"/></g><defs><clipPath id="clip0"><path fill="#fff" d="M0 0h86v12H0z"/></clipPath></defs></svg>