<svg width="80" height="22" viewBox="0 0 80 22" fill="none" xmlns="http://www.w3.org/2000/svg"><path fill-rule="evenodd" clip-rule="evenodd" d="M79.323 2.415V1.123c0-.198-.028-.35-.266-.444C77.876.2 76.837 0 75.723 0c-3.087 0-5.23 1.075-5.268 3.698-.076 4.35 7.192 3.68 7.144 6.368-.029 1.764-1.743 2.18-3.41 2.123a7.665 7.665 0 01-3.41-.906c-.229-.113-.334-.123-.343.208l-.01 1.452c0 .236.086.35.248.434 1.076.529 2.658.783 3.753.783 3.392 0 5.573-1.198 5.573-4.075 0-4.651-7.212-4.132-7.173-6.49.028-1.463 1.677-1.746 2.962-1.737 1.124.01 2.21.293 3.182.755.257.113.352.038.352-.198zM47.621.472c-.114-.16-.267-.274-.419-.274H46.04c-.267 0-.362.094-.362.35v13.046c0 .255.095.35.362.35h1.524c.267 0 .362-.095.362-.35V4.52l4.496 6.802c.153.226.248.302.467.302.22 0 .324-.076.476-.302l4.496-6.802v9.066c0 .255.096.349.363.349h1.524c.267 0 .361-.094.361-.35V.548c0-.255-.094-.349-.361-.349h-1.163c-.152 0-.304.113-.418.274l-5.278 7.934L47.621.472zM4.06 8.585c1.248-.028 2.42-.415 2.953-.594 3.267-1.095 4.468-1.378 5.83-.963.076.029.18.066.21.029.037-.048-.03-.16-.077-.236-1.753-2.227-5.382-1.293-6.716-.878C2.65 7.047 1.715 7.311.21 6.981c-.085-.019-.162-.057-.2-.01-.038.048.038.18.105.255.429.52 1.086.925 1.677 1.123v5.255c0 .264.057.349.276.349h10.707c.22 0 .276-.057.276-.274v-1.51c0-.216-.057-.273-.276-.273H4.078V8.585h-.02zm.01-6.368h8.687c.22 0 .276-.057.276-.274V.463c0-.218-.057-.274-.276-.274H2.049c-.22 0-.276.056-.276.33v5.585c.99-.047 2.029-.5 2.305-1.198l-.01-2.689zm28.596 6.368c1.248-.028 2.42-.415 2.953-.594 3.268-1.095 4.468-1.378 5.83-.963.076.029.181.066.21.029.038-.048-.029-.16-.076-.236-1.772-2.217-5.402-1.283-6.735-.868-3.61 1.104-4.544 1.368-6.059 1.038-.085-.02-.162-.057-.2-.01-.038.047.038.18.105.255.429.519 1.086.924 1.676 1.122v5.255c0 .264.058.35.277.35h10.707c.22 0 .276-.057.276-.274v-1.51c0-.217-.057-.273-.276-.273h-8.697V8.585h.01zm.01-6.368h8.688c.219 0 .276-.057.276-.274V.463c0-.218-.057-.274-.277-.274l-10.707.01c-.219 0-.276.056-.276.33v5.584c.99-.047 2.02-.5 2.296-1.198V2.217zM64.673.189c-.267 0-.353.094-.353.349v13.066c0 .255.086.349.353.349h1.629c.266 0 .352-.095.352-.35V.548c0-.255-.095-.349-.352-.349h-1.63v-.01zM27.33 12.199v1.452c0 .264-.048.302-.324.302h-9.583c-.267 0-.353-.085-.353-.35V.51c0-.264.048-.32.324-.32h1.677c.266 0 .324.056.324.32v11.387h7.601c.267 0 .334.038.334.302z" fill="#131B29"/><path d="M26.53 18.189v3h2.191v.698h-3.01v-3.698h.82zm5.278-.113c1.18 0 2.133.877 2.133 1.952 0 1.095-.952 1.972-2.133 1.972s-2.105-.868-2.105-1.972c0-1.075.924-1.952 2.105-1.952zm0 3.226c.714 0 1.276-.576 1.276-1.274 0-.688-.562-1.254-1.276-1.254-.705 0-1.248.566-1.248 1.254 0 .698.552 1.274 1.248 1.274zm7.058-3.113v3.698h-.705l-1.895-2.283h-.01v2.283h-.819v-3.698h.705l1.905 2.292h.01V18.19h.81zm1.801 0h1.753c.686 0 1.133.188 1.467.528.324.33.505.802.505 1.32 0 .538-.191 1.029-.534 1.369-.324.302-.724.49-1.429.49h-1.762V18.19zm1.724 3c.429 0 .61-.095.8-.265.22-.216.343-.509.343-.886 0-.35-.105-.642-.314-.859-.19-.188-.39-.292-.829-.292h-.905v2.302h.905zm5.315-3.113c1.182 0 2.134.877 2.134 1.952 0 1.095-.952 1.972-2.134 1.972-1.18 0-2.105-.868-2.105-1.972-.01-1.075.915-1.952 2.105-1.952zm0 3.226c.715 0 1.277-.576 1.277-1.274 0-.688-.562-1.254-1.276-1.254-.705 0-1.248.566-1.248 1.254a1.242 1.242 0 001.247 1.274zm7.05-3.113v3.698h-.715l-1.895-2.283h-.01v2.283h-.81v-3.698h.696l1.905 2.292h.02V18.19h.809z" fill="#131B29"/></svg>