<svg width="74" height="18" viewBox="0 0 74 18" fill="none" xmlns="http://www.w3.org/2000/svg"><path d="M70.968 9.147c0-4.06-1.969-6.17-3.76-6.17-1.001 0-1.627.45-2.811 1.824-.748.872-2.078 2.832-3.008 4.238 1.068 1.625 2.182 3.302 2.814 4.074 1.067 1.3 1.684 2.061 2.962 2.061 1.962 0 3.802-2.275 3.802-6.027h.001zm-12.512.174c-1.165-1.682-2.339-3.369-2.997-4.173-1.067-1.3-1.596-2.157-2.875-2.157-1.96 0-3.802 2.275-3.802 6.026 0 4.061 1.969 6.17 3.76 6.17 1.001 0 1.627-.448 2.811-1.823.759-.882 2.15-2.747 3.103-4.043zm15.34-.466c0 5.788-2.997 9.115-6.654 9.115-1.816 0-3.607-1.036-5.081-2.973-.697-.91-1.489-2.082-2.208-3.21-.71.98-1.87 2.55-2.84 3.723-1.375 1.663-2.746 2.46-4.537 2.46-3.39 0-6.523-2.813-6.523-8.664 0-5.937 2.997-9.115 6.654-9.115 1.817 0 3.363 1.024 4.898 3.136a253.609 253.609 0 012.408 3.366c.683-1.09 1.835-2.852 2.824-4.04 1.38-1.659 2.746-2.46 4.536-2.46 3.39 0 6.523 2.814 6.523 8.664v-.002zm-62.905 5.76L4.995.647H.465v17.03h2.769V3.913l5.931 13.763h3.156l5.93-13.723v13.723h2.875V.646h-4.222l-6.013 13.97zM38.486.647h3.24v17.03h-2.835V4.549l-9.074 13.127H26.65V.646h2.838V13.7l9-13.054-.001.002z" fill="#000"/></svg>