<svg width="118" height="24" viewBox="0 0 118 24" fill="none" xmlns="http://www.w3.org/2000/svg"><path d="M23.95 12c0 6.627-5.362 12-11.975 12C5.36 24 0 18.627 0 12S5.361 0 11.975 0C18.588 0 23.95 5.373 23.95 12z" fill="#4DEE8D"/><path fill-rule="evenodd" clip-rule="evenodd" d="M9.144 7.706l2.954-2.987h2.77l2.892 2.925v5.818l-5.785 5.819H9.082l-2.893-2.925v-5.663l2.955-2.987zm0 0v8.712h5.662V7.706H9.144z" fill="#000"/><path d="M38.79 16.989v-.904h-5.934l5.719-7.833V7.55h-6.781v.903h5.449l-5.772 7.82v.715h7.32zm8.646 0v-.904h-5.664v-3.708h4.48v-.903h-4.48v-3.02h5.462V7.55h-6.458v9.438h6.66zm2.942 0v-4.247h2.88l2.96 4.247h1.17l-3.04-4.342c1.398-.229 2.22-1.2 2.22-2.535 0-1.55-1.131-2.561-2.974-2.561h-4.212v9.438h.996zm0-8.535h3.162c1.278 0 2.032.62 2.032 1.699 0 1.079-.74 1.685-2.032 1.685h-3.162V8.454zm9.604.337c-.901.93-1.346 2.09-1.346 3.479 0 1.388.444 2.562 1.346 3.492.901.93 2.032 1.389 3.39 1.389 1.36 0 2.476-.459 3.378-1.39.901-.93 1.359-2.103 1.359-3.491 0-1.39-.458-2.549-1.36-3.479-.9-.93-2.017-1.402-3.376-1.402-1.36 0-2.49.472-3.391 1.402zm.74 6.297c-.713-.755-1.076-1.7-1.076-2.818 0-1.12.363-2.063 1.076-2.818.713-.755 1.601-1.133 2.65-1.133 1.05 0 1.938.378 2.651 1.133.713.755 1.077 1.699 1.077 2.818s-.364 2.063-1.077 2.818c-.713.755-1.601 1.132-2.65 1.132-1.05 0-1.938-.377-2.651-1.132zm14.11 2.062c1.13 0 2.072-.283 2.84-.835v-1.039c-.781.634-1.71.944-2.8.944-1.09 0-2.018-.377-2.758-1.119-.74-.741-1.103-1.685-1.103-2.831 0-1.133.363-2.077 1.103-2.818.74-.755 1.642-1.133 2.732-1.133.928 0 1.803.27 2.623.796V8.09c-.74-.472-1.614-.701-2.637-.701-1.385 0-2.53.458-3.458 1.389-.914.916-1.372 2.076-1.372 3.492 0 1.415.458 2.588 1.372 3.505.929.917 2.073 1.376 3.458 1.376zm5.674-8.359c-.902.93-1.346 2.09-1.346 3.479 0 1.388.444 2.562 1.346 3.492.901.93 2.031 1.389 3.39 1.389 1.36 0 2.476-.459 3.377-1.39.902-.93 1.36-2.103 1.36-3.491 0-1.39-.458-2.549-1.36-3.479-.901-.93-2.018-1.402-3.377-1.402s-2.489.472-3.39 1.402zm.74 6.297c-.713-.755-1.077-1.7-1.077-2.818 0-1.12.364-2.063 1.077-2.818.713-.755 1.6-1.133 2.65-1.133 1.05 0 1.938.378 2.65 1.133.714.755 1.077 1.699 1.077 2.818s-.363 2.063-1.076 2.818c-.713.755-1.601 1.132-2.65 1.132-1.05 0-1.938-.377-2.651-1.132zm12.751 1.901c1.52 0 2.745-.432 3.687-1.308.942-.876 1.413-2.01 1.413-3.411 0-1.403-.471-2.535-1.413-3.412-.942-.876-2.166-1.307-3.687-1.307h-3.081v9.438h3.081zm-2.085-8.535h1.964c1.305 0 2.328.35 3.081 1.038.754.688 1.13 1.618 1.13 2.778s-.376 2.09-1.13 2.777c-.753.688-1.776 1.038-3.081 1.038h-1.964V8.454zm16.136 8.535v-.904h-5.664v-3.708h4.48v-.903h-4.48v-3.02h5.462V7.55h-6.458v9.438h6.66zm2.942 0v-4.247h2.879l2.96 4.247H118l-3.041-4.342c1.4-.229 2.22-1.2 2.22-2.535 0-1.55-1.13-2.561-2.973-2.561h-4.212v9.438h.996zm0-8.535h3.162c1.278 0 2.032.62 2.032 1.699 0 1.079-.74 1.685-2.032 1.685h-3.162V8.454z" fill="#000"/></svg>