<svg width="82" height="14" viewBox="0 0 82 14" fill="none" xmlns="http://www.w3.org/2000/svg"><path d="M0 13.884V.116h2.913c.533 0 1.003.07 1.41.213.406.142.774.393 1.104.754.33.36.558.786.685 1.276.127.477.19 1.128.19 1.953 0 .619-.037 1.141-.114 1.566a3.169 3.169 0 01-.438 1.2A2.93 2.93 0 014.684 8.14c-.444.245-1.028.367-1.752.367h-.99v5.376H0zM1.942 1.972v4.68h.933c.394 0 .698-.058.914-.174a1.08 1.08 0 00.476-.484c.102-.193.159-.431.172-.715.025-.284.038-.6.038-.948 0-.322-.007-.625-.02-.908a2.035 2.035 0 00-.17-.774 1.091 1.091 0 00-.458-.503c-.203-.116-.495-.174-.876-.174H1.942zm7.754 0v4.293h1.105c.342 0 .615-.045.819-.135.203-.103.361-.245.476-.426.101-.18.17-.4.209-.657.038-.27.057-.58.057-.928 0-.348-.019-.651-.057-.909a1.867 1.867 0 00-.229-.696c-.24-.361-.698-.542-1.37-.542h-1.01zM7.754 13.884V.116h3.123c2.285 0 3.427 1.347 3.427 4.041 0 .813-.127 1.502-.38 2.07-.242.567-.673 1.024-1.295 1.372l2.094 6.285h-2.056l-1.81-5.878h-1.16v5.878H7.753zm7.993-10.52c0-.554.095-1.044.286-1.469a3.1 3.1 0 01.762-1.064c.304-.27.647-.476 1.028-.618A3.463 3.463 0 0119.003 0c.394 0 .781.07 1.162.213.393.142.749.348 1.066.618.305.284.552.639.743 1.064.19.425.285.915.285 1.47v7.27c0 .58-.095 1.077-.285 1.49a3.07 3.07 0 01-.743 1.024 3.232 3.232 0 01-1.066.638c-.38.142-.768.213-1.162.213-.393 0-.787-.07-1.18-.213a3.068 3.068 0 01-1.028-.638 2.95 2.95 0 01-.762-1.025c-.19-.412-.286-.909-.286-1.489v-7.27zm1.942 7.271c0 .477.128.832.381 1.064.267.22.578.329.933.329.356 0 .66-.11.914-.33.267-.231.4-.586.4-1.063v-7.27c0-.477-.133-.825-.4-1.045a1.308 1.308 0 00-.914-.348c-.355 0-.666.116-.933.348-.253.22-.38.568-.38 1.045v7.27zm6.28 3.249V.116h2.875c1.117 0 1.961.31 2.533.928.584.619.876 1.496.876 2.63v6.44c0 1.288-.311 2.242-.933 2.861-.61.606-1.492.909-2.647.909h-2.704zm1.942-11.912v10.056h.895c.546 0 .933-.136 1.162-.407.228-.283.342-.721.342-1.314V3.674c0-.541-.107-.96-.323-1.257-.216-.296-.61-.445-1.18-.445h-.896zM38.36.116V10.79c0 .451-.082.87-.248 1.257a3.073 3.073 0 01-.666 1.005 3.225 3.225 0 01-1.01.697c-.38.167-.786.251-1.218.251-.431 0-.838-.084-1.219-.251a3.308 3.308 0 01-.99-.697 3.364 3.364 0 01-.685-1.005 3.171 3.171 0 01-.248-1.257V.116h1.943v10.48c0 .49.114.851.342 1.084.229.232.514.348.857.348.343 0 .629-.116.857-.348.228-.232.343-.593.343-1.083V.116h1.942zm7.993 9.843v.85c0 .426-.082.832-.247 1.219a3.267 3.267 0 01-1.638 1.721 2.86 2.86 0 01-1.2.251c-.367 0-.742-.052-1.123-.155a2.646 2.646 0 01-1.028-.541 3.133 3.133 0 01-.762-.986c-.19-.413-.285-.935-.285-1.567v-7.58c0-.45.076-.87.228-1.257A2.914 2.914 0 0141.936.251 3.272 3.272 0 0143.23 0c.914 0 1.657.303 2.228.909.28.296.495.65.648 1.063.165.4.247.838.247 1.315v.774h-1.942v-.658a1.61 1.61 0 00-.324-1.005 1.042 1.042 0 00-.876-.426c-.482 0-.805.155-.97.464-.153.297-.23.677-.23 1.141v7.039c0 .4.083.735.248 1.005.178.271.49.407.933.407.128 0 .26-.02.4-.058a1.34 1.34 0 00.419-.232 1.18 1.18 0 00.286-.426 1.75 1.75 0 00.114-.677V9.96h1.942zm2.86 3.925V1.972h-2.246V.116h6.436v1.856h-2.247v11.912h-1.942zm11.33-9.804h-1.941v-.445c0-.45-.108-.838-.324-1.16-.203-.335-.552-.503-1.047-.503-.267 0-.483.052-.648.155a1.287 1.287 0 00-.4.387 1.658 1.658 0 00-.209.58 3.617 3.617 0 00-.057.657c0 .271.006.497.019.677.025.18.076.342.152.484.076.141.184.264.324.367.152.103.356.206.61.31l1.485.599c.431.167.78.367 1.047.6.266.218.476.476.628.773.14.31.235.664.286 1.063.05.387.076.832.076 1.335 0 .58-.057 1.121-.171 1.624-.115.49-.299.909-.553 1.257-.266.36-.615.644-1.047.85-.431.207-.958.31-1.58.31a3.42 3.42 0 01-1.314-.251 3.124 3.124 0 01-1.047-.697 3.58 3.58 0 01-.705-1.024 3.363 3.363 0 01-.248-1.296v-.735h1.943v.619c0 .361.101.69.304.986.216.284.572.426 1.067.426.33 0 .584-.046.761-.136a1.08 1.08 0 00.438-.425c.102-.18.16-.393.172-.638.025-.258.038-.542.038-.851 0-.361-.013-.658-.038-.89a1.543 1.543 0 00-.153-.56 1.048 1.048 0 00-.361-.348c-.14-.09-.33-.187-.572-.29l-1.39-.58c-.838-.349-1.403-.806-1.694-1.374-.28-.58-.42-1.302-.42-2.165 0-.516.07-1.006.21-1.47.14-.464.35-.864.629-1.199.266-.335.603-.6 1.009-.793C56.24.103 56.735 0 57.307 0c.482 0 .92.09 1.314.27.406.181.755.42 1.047.716.584.619.876 1.328.876 2.127v.967zm2.729 9.804V1.972h-2.247V.116h6.436v1.856h-2.247v11.912h-1.942zm7.927-4.815l-.952-4.989h-.038l-.952 4.99H71.2zm-4.798 4.815L69.429.116h1.618l3.028 13.768h-1.943l-.57-2.959h-2.648l-.57 2.959H66.4zM76.973 1.972v4.293h1.105c.342 0 .615-.045.818-.135.204-.103.362-.245.476-.426.102-.18.172-.4.21-.657.038-.27.057-.58.057-.928 0-.348-.02-.651-.057-.909a1.87 1.87 0 00-.229-.696c-.24-.361-.698-.542-1.37-.542h-1.01zm-1.942 11.912V.116h3.123c2.285 0 3.427 1.347 3.427 4.041 0 .813-.127 1.502-.38 2.07-.242.567-.673 1.024-1.296 1.372L82 13.884h-2.056l-1.81-5.878h-1.161v5.878h-1.942z" fill="#000"/></svg>