<svg width="102" height="20" viewBox="0 0 102 20" fill="none" xmlns="http://www.w3.org/2000/svg"><path fill-rule="evenodd" clip-rule="evenodd" d="M18.218 18.237H9.11C4.08 18.237 0 14.155 0 9.118 0 4.082 4.078 0 9.11 0c5.03 0 9.108 4.082 9.108 9.118v9.119z" fill="#02C5AB"/><path fill-rule="evenodd" clip-rule="evenodd" d="M14.148 10.677c-.254.048-1.244.195-1.72.107a.246.246 0 01-.163-.385c.39-.51 1.525-1.547 1.91-1.4.333.127.601 1.558-.027 1.678zM5.911 7.969c-.12-.025-.343-.164-.225-.505a.279.279 0 00.006-.017c.157-.417.79-1.725 1.257-1.793.032-.005 5.15-.005 5.181 0 .467.068 1.1 1.376 1.258 1.793l.005.017c.118.341-.105.48-.226.505-.478.097-6.777.097-7.256 0zm.74 2.815c-.475.088-1.465-.06-1.72-.107-.627-.12-.36-1.55-.026-1.678.385-.147 1.52.89 1.91 1.4a.246.246 0 01-.163.385zm8.936-3.766c-.172-.188-.767-.197-1.098-.08a.638.638 0 00-.265.205c-.092.109-.155.192-.223.255l-.032-.078c-.217-.529-1.096-2.187-1.745-2.273-.212-.027-5.156-.027-5.369 0-.648.086-1.526 1.744-1.744 2.273l-.033.079c-.067-.064-.13-.147-.222-.256a.64.64 0 00-.265-.206c-.332-.116-.926-.107-1.099.08-.14.153-.27.488.132.666.219.097.585.193.922.27-.495.455-1.169 1.38-.715 2.955v2.478c0 .141.123.256.273.256h1.72a.265.265 0 00.27-.236v-.654h6.886l.004.633c0 .142.123.257.273.257h1.719c.15 0 .273-.115.273-.256v-2.478c.454-1.576-.22-2.5-.716-2.955.337-.077.704-.173.922-.27.403-.178.272-.513.132-.665z" fill="#fff"/><path fill-rule="evenodd" clip-rule="evenodd" d="M58.587 5.52a5.107 5.107 0 00-5.104 5.11 5.106 5.106 0 005.104 5.108 5.106 5.106 0 005.103-5.109 5.106 5.106 0 00-5.103-5.109zm0 2.133a2.978 2.978 0 012.973 2.976 2.978 2.978 0 01-2.973 2.977 2.978 2.978 0 01-2.974-2.977 2.978 2.978 0 012.974-2.976z" fill="#1A1A1A"/><path fill-rule="evenodd" clip-rule="evenodd" d="M90.496 5.52a5.106 5.106 0 00-5.104 5.11 5.106 5.106 0 005.104 5.108 5.106 5.106 0 005.103-5.109 5.106 5.106 0 00-5.103-5.109zm0 2.133a2.978 2.978 0 012.973 2.976 2.978 2.978 0 01-2.973 2.977 2.979 2.979 0 01-2.974-2.977 2.979 2.979 0 012.974-2.976z" fill="#02C5AB"/><path fill-rule="evenodd" clip-rule="evenodd" d="M51.002 13.441a.92.92 0 01-.919-.92v-5.12h2.208V5.726h-2.207V3.569h-2.132v2.157H46.26V7.4h1.693v5.12a3.056 3.056 0 003.05 3.054h1.549v-2.133h-1.55z" fill="#1A1A1A"/><path fill-rule="evenodd" clip-rule="evenodd" d="M100.45 13.441a.92.92 0 01-.918-.92v-5.12h2.208V5.726h-2.208V3.569h-2.131v2.157h-1.692V7.4H97.4v5.12a3.056 3.056 0 003.049 3.054H102v-2.133h-1.55zm-21.099-.067h-2.949v-.525c0-2.446.02-3.137.566-3.908a2.854 2.854 0 012.383-1.288 2.863 2.863 0 012.858 2.86 2.863 2.863 0 01-2.858 2.861zm0-7.854a4.99 4.99 0 00-4.988 4.994V20h2.039v-4.493h2.95a4.99 4.99 0 004.987-4.993 4.99 4.99 0 00-4.988-4.994zM69.119 9.632c-1.797-.344-2.096-.591-2.081-1.01.004-.118.021-.507.607-.794 1.178-.577 3.288-.281 4.403.472l.993-1.884c-1.762-1.064-4.522-1.288-6.315-.433-1.131.54-1.776 1.45-1.816 2.563-.086 2.408 2.27 2.74 3.828 3.046.365.072.674.144.94.219l.045.012c.796.232 1.144.5 1.15.915v.033c-.014.277-.285.487-.69.626a3.17 3.17 0 01-.343.095 4.848 4.848 0 01-.723.101c-.063.004-.127.004-.191.007-1.33.033-2.807-.355-3.246-.74l-1.166 1.78c.92.648 2.579 1.09 4.178 1.09.875 0 1.71-.043 2.41-.344 1.19-.512 1.88-1.422 1.934-2.626.099-2.247-2.169-2.793-3.917-3.128z" fill="#02C5AB"/><path fill-rule="evenodd" clip-rule="evenodd" d="M43.017 5.726v5.435a2.518 2.518 0 01-2.513 2.516 2.517 2.517 0 01-2.514-2.516V5.726h-2.13v5.435a4.646 4.646 0 004.644 4.649 4.646 4.646 0 004.644-4.649V5.726h-2.13zm-10.39 7.724h-2.899a2.797 2.797 0 01-2.792-2.794 2.796 2.796 0 012.792-2.795c.488 0 .946.127 1.345.347 1.283.673 1.554 1.63 1.554 2.929v2.313zm-2.899-7.721a4.924 4.924 0 00-4.922 4.927 4.924 4.924 0 004.922 4.927h4.922v-4.927a4.924 4.924 0 00-4.922-4.927z" fill="#1A1A1A"/></svg>