<svg width="71" height="60" viewBox="0 0 71 60" fill="none" xmlns="http://www.w3.org/2000/svg"><path d="M19.254 45.975c2.092.602 3.352.803 4.155.803.229 0 .43-.029.601-.057v3.04c-4.04-1.32-6.217-3.47-6.847-4.187h.057c.344 0 .974.086 2.034.401zm4.728 0c-.029.029-.2.115-.573.086-.66 0-1.891-.2-3.954-.803-1.118-.315-1.777-.43-2.235-.43-.258 0-.459.029-.63.143-.172.086-.287.316-.258.46 0 .114.028.2.057.257.372 1.148.487 2.266.487 3.327 0 .316 0 .631-.029.918C7.02 47.523.057 40.956.057 40.956c5.444 2.266 9.054 2.438 9.054 2.438-3.065-2.295-6.39-9.407-6.39-9.407 4.385 5.592 11.605 8.747 17.909 10.066 1.403.287 2.292.632 2.836.918.029.029 1.06.66.516 1.004zm29.425 3.04c0 2.352.63 4.245.86 4.847-4.642 5.249-12.722 6.023-16.876 6.023h-3.782c-4.155 0-12.235-.774-16.876-6.023.229-.602.86-2.495.86-4.847 0-.717-.058-1.462-.201-2.237 1.805 1.664 6.246 4.79 13.867 4.79h8.481c7.622 0 12.063-3.126 13.868-4.79-.143.775-.2 1.549-.2 2.237zm8.482-5.593s3.61-.172 9.054-2.437c0 0-6.963 6.568-16.79 8.977-.03-.287-.03-.603-.03-.918 0-1.033.144-2.18.488-3.327a.485.485 0 00.057-.258c0-.144-.086-.373-.258-.459-.172-.115-.372-.143-.63-.143-.458 0-1.117.114-2.235.43-2.063.573-3.295.803-3.954.803-.344 0-.516-.058-.573-.086-.544-.344.487-.975.516-.975.544-.287 1.432-.631 2.836-.918 6.333-1.348 13.524-4.474 17.937-10.067-.029-.029-3.353 7.084-6.418 9.379zM46.96 49.761v-3.04c.172.057.372.057.602.057.802 0 2.034-.23 4.154-.803 1.089-.315 1.72-.401 2.034-.401h.058c-.63.688-2.808 2.839-6.848 4.187z" fill="#001C93"/><path d="M15.53.057v27.534c0 11.042 8.939 19.99 19.97 19.99 11.031 0 19.97-8.948 19.97-19.99V.057H15.53z" fill="#001C93"/><path d="M52.834 2.667v24.924c0 4.818-1.948 9.12-5.07 12.275A17.248 17.248 0 0135.5 44.943c-4.814 0-9.111-1.95-12.263-5.077a17.283 17.283 0 01-5.072-12.275V2.667h34.67zm-.687.717H18.853v24.207c0 4.445 1.72 8.633 4.87 11.788A16.527 16.527 0 0035.5 44.254c4.441 0 8.624-1.72 11.776-4.875 3.152-3.155 4.87-7.343 4.87-11.788V3.384z" fill="#fff"/><path d="M13.954 29.283c.143 1.118.315 2.237.573 3.356 0-.03-2.092 1.376-1.433 3.355a27.712 27.712 0 01-1.089-4.015v-.029c-.057-.717.058-1.462.23-2.065.028-.143.085-.287.143-.401l.172-.029a6.81 6.81 0 00-.401 1.778c.458-1.118 1.49-1.778 1.805-1.95zm-.23 8.661c1.09 2.524 3.697 4.16 3.61 3.959-.859-.144-2.091.143-2.062.172-.402-1.205-1.891-3.958-1.834-3.987-1.232-2.667-1.948-5.564-2.292-8.46l.344-.03c.315 2.869 1.002 5.708 2.234 8.346zm-1.26-1.72c-.66-1.922-3.095-2.323-3.123-2.323a31.796 31.796 0 01-.688-3.958c.315.114 1.347.516 2.092 1.319a11.858 11.858 0 00-.946-1.463l.2-.029c.087.115.173.259.287.402.373.545.802 1.233 1.06 1.95.258 1.377.63 2.754 1.118 4.102z" fill="#6180E5"/><path d="M10.974 22.285l.344.029a38.644 38.644 0 00.172 7.285l-.344.028a39.31 39.31 0 01-.172-7.342zm-1.204 7.17c.086.086.144.172.23.287l-.2.028c-.058-.085-.116-.143-.173-.229l-.028-.057-.058.028c-.057.03-.086.03-.143.03-.287.028-.544-.144-.573-.402-.029-.259.2-.488.487-.517.287-.028.544.172.573.402 0 .115-.029.23-.086.315l-.029.029v.086zm4.04-6.998c-.086 1.176-.086 2.323-.086 3.499 0 0-2.349.918-2.149 2.983a33.674 33.674 0 01-.171-4.159v-.029c.057-.717.343-1.434.63-1.979.057-.143.143-.258.2-.372h.172a6.914 6.914 0 00-.716 1.663c.63-1.032 1.777-1.491 2.12-1.606zm-3.782.172c.287.602.545 1.348.688 2.094-.029 1.405.057 2.84.172 4.245-.2-2.037-2.493-2.926-2.493-2.926-.029-1.32 0-2.639.086-3.93.287.144 1.232.747 1.834 1.664-.2-.602-.459-1.176-.66-1.606h.201c.03.172.086.316.172.46zm3.353 6.023v.029c.028.2-.172.401-.459.459h-.2l-.029.057c-.029.086-.086.172-.115.258l-.172.029c.058-.144.086-.258.144-.344l.028-.058-.057-.029c-.086-.057-.172-.143-.172-.258v-.028c-.029-.23.172-.43.459-.46h.028c.258-.028.487.116.545.345z" fill="#6180E5"/><path d="M11.117 16.922c.057-.717.458-2.467 2.235-3.184 0 0-.143 1.09.258 1.549-.143.63-.23 1.29-.344 1.921-.516.201-1.175.488-1.461 1.234-.086-.603-.373-1.119-.688-1.52zm.344 1.75c0 .716.057 1.433.086 2.122-.057.487-.086 1.003-.115 1.49l-.344-.028c.086-1.176.201-2.38.373-3.585zm-1.69 3.211c.057.086.114.201.171.316h-.2c-.058-.086-.086-.172-.115-.23l-.028-.057H9.54c-.057 0-.114.029-.143 0-.287-.029-.516-.23-.487-.488.029-.258.258-.43.573-.401.286.029.516.258.487.488 0 .114-.057.2-.143.286l-.086.029.028.057zm1.862.316c.057-1.061.172-2.123.315-3.184.458-1.09 1.69-1.491 2.006-1.549a43.02 43.02 0 00-.373 2.697s-1.862.487-1.948 2.036zm-.315-3.7a52.19 52.19 0 00-.373 3.643c.115-1.779-1.748-2.782-1.776-2.811.143-1.119.286-2.209.487-3.299.286.23 1.49 1.148 1.662 2.467zm2.177 3.241c-.028.23-.229.373-.515.373h-.03l-.142-.029h-.058l-.028.058c-.058.085-.115.143-.172.258h-.172c.086-.115.143-.23.2-.316l.029-.029-.029-.028c-.086-.086-.143-.172-.143-.287v-.029c.029-.23.23-.401.516-.373h.028c.287.03.488.201.488.43l.028-.028zm43.552 7.543c-.144 1.118-.316 2.237-.574 3.356 0-.03 2.092 1.376 1.433 3.355a27.7 27.7 0 001.089-4.015v-.029c.057-.717-.057-1.462-.23-2.065a1.66 1.66 0 00-.143-.401l-.172-.029c.172.459.344 1.09.402 1.778-.459-1.118-1.49-1.778-1.805-1.95zm.229 8.661c-1.09 2.524-3.696 4.16-3.61 3.959.86-.144 2.091.143 2.063.172.4-1.205 1.89-3.958 1.833-3.987 1.232-2.667 1.949-5.564 2.292-8.46l-.343-.03c-.344 2.869-1.032 5.708-2.235 8.346zm1.26-1.72c.66-1.922 3.095-2.323 3.123-2.323.316-1.32.545-2.64.688-3.958-.315.114-1.346.516-2.092 1.319.287-.574.66-1.09.946-1.463l-.2-.029c-.087.115-.172.259-.287.402-.372.545-.802 1.233-1.06 1.95-.287 1.377-.63 2.754-1.118 4.102z" fill="#6180E5"/><path d="M60.026 22.285l-.344.029a38.652 38.652 0 01-.171 7.285l.343.028c.287-2.438.316-4.904.172-7.342zm1.204 7.17c-.086.086-.144.172-.23.287l.201.028c.057-.085.115-.143.172-.229l.029-.057.057.028a.258.258 0 00.143.03c.287.028.545-.144.573-.402.029-.259-.2-.488-.487-.517-.286-.028-.544.172-.573.402 0 .115.029.23.086.315l.029.029v.086zm-4.04-6.998c.086 1.176.086 2.323.086 3.499 0 0 2.35.918 2.149 2.983.143-1.377.2-2.782.172-4.159v-.029c-.058-.717-.344-1.434-.63-1.979-.058-.143-.144-.258-.201-.372h-.172c.258.43.544 1.032.716 1.663-.659-1.032-1.776-1.491-2.12-1.606zm3.782.172a8.972 8.972 0 00-.688 2.094c.029 1.405-.057 2.84-.172 4.245.2-2.037 2.493-2.926 2.493-2.926.029-1.32 0-2.639-.086-3.93-.286.144-1.232.747-1.834 1.664.2-.602.459-1.176.66-1.606h-.201c-.029.172-.115.316-.172.46zm-3.352 6.023v.029c-.03.2.171.401.458.459h.2l.03.057c.028.086.085.172.114.258l.172.029c-.058-.144-.086-.258-.144-.344l-.028-.058.057-.029c.086-.057.172-.143.172-.258v-.028c.029-.23-.172-.43-.458-.46h-.03c-.257-.028-.515.116-.543.345z" fill="#6180E5"/><path d="M59.883 16.922c-.057-.717-.458-2.467-2.235-3.184 0 0 .143 1.09-.258 1.549.144.63.23 1.29.344 1.921.516.201 1.175.488 1.461 1.234.058-.603.373-1.119.688-1.52zm-.344 1.75c0 .716-.057 1.433-.086 2.122.058.487.086 1.003.115 1.49l.344-.028c-.115-1.176-.23-2.38-.373-3.585zm1.662 3.211a3.106 3.106 0 00-.172.316h.2c.058-.086.087-.172.115-.23l.029-.057h.057c.058 0 .115.029.144 0 .286-.029.515-.23.487-.488-.03-.258-.258-.43-.573-.401-.287.029-.516.258-.487.488 0 .114.057.2.143.286l.028.029.029.057zm-1.834.316a39.881 39.881 0 00-.315-3.184c-.458-1.09-1.69-1.491-2.005-1.549.143.89.286 1.807.372 2.697-.029 0 1.862.487 1.948 2.036zm.316-3.7c.171 1.205.286 2.438.372 3.643-.115-1.779 1.748-2.782 1.776-2.811-.143-1.119-.286-2.209-.487-3.299-.315.23-1.49 1.148-1.662 2.467zm-2.178 3.241c.029.23.23.373.516.373h.028l.115-.029.057-.029.029.058c.057.086.114.143.172.258h.172c-.086-.115-.144-.23-.2-.316l-.03-.028.03-.029c.085-.086.142-.172.142-.287v-.028c-.028-.23-.229-.402-.515-.373h-.029c-.286.028-.487.2-.487.43z" fill="#6180E5"/><path d="M48.852 26.96H36.847a.257.257 0 01-.258-.258c0-.144.114-.258.258-.258h12.005c.143 0 .258.114.258.258a.257.257 0 01-.258.258zm-13.18-1.004c-.029 0-.057 0-.086-.029-.086-.057-.115-.172-.057-.23a9.388 9.388 0 012.35-2.408 10.692 10.692 0 012.864-1.434c1.69-.545 3.439-.66 4.613-.631 1.261.028 2.465.2 2.866.43.086.057.114.143.057.23-.057.085-.143.114-.23.057-.315-.172-1.375-.373-2.721-.402-1.605-.028-3.21.172-4.499.602a10.135 10.135 0 00-2.779 1.406 9.184 9.184 0 00-2.263 2.323c-.03.057-.058.086-.115.086z" fill="#fff"/><path d="M39.511 23.547c-.057 0-.143-.058-.172-.115-.028-.086 0-.2.115-.23.401-.143.86-.286 1.29-.4 1.69-.431 3.438-.488 4.584-.488 1.26.028 2.435.143 2.865.344.086.028.143.143.086.23-.029.085-.143.143-.23.085-.315-.143-1.375-.287-2.721-.315-1.605-.029-3.21.143-4.499.459-.43.114-.86.23-1.26.401-.029 0-.029.029-.058.029zm-3.839 3.155c-.057 0-.086-.029-.115-.058-.057-.057-.057-.172 0-.258 1.519-1.434 3.353-2.38 5.215-2.724 1.834-.345 3.582-.345 4.699-.287 1.347.057 2.35.23 2.722.344a.195.195 0 01.115.23.195.195 0 01-.23.114c-.286-.115-1.232-.287-2.636-.344a21.387 21.387 0 00-4.613.287c-1.805.315-3.581 1.262-5.042 2.638-.03.058-.086.058-.115.058z" fill="#fff"/><path d="M48.136 25.01c-.63-.086-3.926-.287-7.335-.058-.086 0-.172-.057-.172-.172 0-.086.057-.172.172-.172 3.438-.23 6.762-.029 7.392.057.086 0 .172.087.143.201a.215.215 0 01-.2.144zm-12.464 2.351a.158.158 0 01-.143-.086c-.058-.086-.029-.2.028-.258a8.813 8.813 0 012.006-1.032 9.032 9.032 0 012.837-.545c3.209-.058 5.96 0 7.736.028.086 0 .172.087.172.173a.185.185 0 01-.172.172 162.91 162.91 0 00-7.736-.029c-2.378.057-4.155 1.176-4.642 1.52-.029.029-.057.057-.086.057z" fill="#fff"/><path d="M35.672 27.935a.257.257 0 01-.258-.258c0-.143.115-.258.258-.258.258 0 .487-.086.659-.23a.551.551 0 00.258-.459c0-.143.114-.258.258-.258.143 0 .258.115.258.258 0 .345-.144.66-.43.89-.287.172-.63.315-1.003.315z" fill="#fff"/><path d="M35.672 27.935a1.58 1.58 0 01-1.003-.344 1.113 1.113 0 01-.43-.89c0-.143.115-.257.258-.257.144 0 .258.114.258.258 0 .172.086.344.258.459.172.143.401.23.659.23.143 0 .258.114.258.257 0 .172-.115.287-.258.287z" fill="#fff"/><path d="M34.497 26.96H22.492a.257.257 0 01-.258-.258c0-.144.115-.258.258-.258h12.005c.144 0 .258.114.258.258a.257.257 0 01-.258.258zm1.175-1.004a.158.158 0 01-.143-.086 9.184 9.184 0 00-2.264-2.323 10.135 10.135 0 00-2.78-1.405c-1.288-.43-2.893-.631-4.497-.603-1.347.029-2.407.23-2.722.402-.086.057-.201.029-.23-.058-.057-.086-.028-.2.058-.229.43-.23 1.604-.402 2.865-.43 1.175-.029 2.894.057 4.613.63 1.06.345 2.034.832 2.865 1.435a9.88 9.88 0 012.35 2.409c.057.086.028.2-.058.23 0 .028-.028.028-.057.028z" fill="#fff"/><path d="M31.804 23.547h-.057a16.46 16.46 0 00-1.261-.402c-1.29-.315-2.894-.487-4.498-.459-1.003.03-2.321.115-2.722.316-.086.029-.201 0-.23-.086-.028-.086 0-.2.086-.23.43-.172 1.605-.315 2.866-.344 1.174-.028 2.893.058 4.584.488.458.115.888.258 1.29.401a.195.195 0 01.114.23c-.029.029-.086.086-.172.086zm3.868 3.155c-.057 0-.086-.029-.115-.058-1.46-1.376-3.237-2.323-5.042-2.638a21.479 21.479 0 00-4.613-.287c-1.404.057-2.35.23-2.636.344a.195.195 0 01-.23-.115.195.195 0 01.115-.229c.372-.143 1.375-.287 2.722-.344a22.236 22.236 0 014.699.287c1.862.344 3.725 1.319 5.215 2.724a.181.181 0 010 .258c-.03.058-.086.058-.115.058z" fill="#fff"/><path d="M23.18 25.01c-.086 0-.172-.058-.172-.144s.057-.172.143-.2c.63-.087 3.954-.287 7.392-.058.086 0 .172.086.172.172a.185.185 0 01-.172.172c-3.438-.2-6.704 0-7.363.058zm12.492 2.351c-.029 0-.057 0-.115-.028-.487-.344-2.263-1.463-4.641-1.52-3.21-.058-5.931 0-7.736.028a.185.185 0 01-.172-.172c0-.086.086-.172.172-.172 1.805-.057 4.555-.086 7.736-.029a9.034 9.034 0 014.842 1.578c.086.057.086.172.029.258-.03.029-.058.057-.115.057zm0-6.453a.158.158 0 01-.143-.086 9.184 9.184 0 00-2.264-2.323 10.135 10.135 0 00-2.78-1.405c-.916-.316-1.976-.488-3.093-.574-.917-.057-1.863-.057-2.694.058a.215.215 0 01-.2-.144c0-.086.057-.172.143-.2.745-.087 3.41-.288 5.96.544 1.06.344 2.034.832 2.865 1.434a9.88 9.88 0 012.35 2.41c.057.085.028.2-.058.229-.029.029-.057.057-.086.057zm.344-13.68c0 .458-.373.831-.373.831s-.372-.373-.372-.831c0-.46.372-.832.372-.832s.373.373.373.832z" fill="#fff"/><path d="M35.672 8.231c-.057 0-.086-.028-.115-.057-.028-.029-.4-.43-.4-.946 0-.517.4-.947.4-.947a.217.217 0 01.115-.057c.029 0 .086.028.115.057.028.029.4.43.4.947 0 .516-.4.946-.4.946-.03.057-.086.057-.115.057zm0-1.548a1.024 1.024 0 00-.172.545c0 .2.086.401.172.545.086-.144.172-.316.172-.545 0-.201-.086-.402-.172-.545zm-1.404.545c.115.458-.143.889-.143.889s-.43-.258-.545-.717c-.114-.46.144-.89.144-.89s.43.259.544.718z" fill="#fff"/><path d="M34.125 8.289c-.029 0-.057 0-.086-.029-.029 0-.516-.315-.63-.832a1.526 1.526 0 01.171-1.032.395.395 0 01.115-.086c.057 0 .086 0 .143.028.029 0 .516.316.63.832a1.53 1.53 0 01-.171 1.033c-.029.028-.058.057-.115.086h-.057zm-.344-1.492a1.228 1.228 0 00-.057.574c.057.2.2.373.315.488.057-.144.086-.373.057-.574a.904.904 0 00-.315-.488zM29.34 8.862c.258.373.172.89.172.89s-.516-.087-.774-.488c-.258-.373-.172-.89-.172-.89s.487.116.774.488z" fill="#fff"/><path d="M29.512 9.924h-.029c-.029 0-.573-.115-.888-.545-.287-.43-.2-1.004-.2-1.004 0-.058.028-.086.085-.115.029-.029.086-.029.144-.029.028 0 .573.115.888.545.286.43.2 1.004.2 1.004 0 .058-.028.086-.086.115-.057.029-.086.029-.114.029zm-.803-1.291c0 .143.03.373.172.545.115.172.316.287.459.344 0-.143-.029-.373-.172-.545-.115-.2-.315-.287-.459-.344zm2.064-.66c.315.344.286.86.286.86s-.516-.028-.83-.372c-.316-.344-.287-.86-.287-.86s.544.028.83.372z" fill="#fff"/><path d="M31.088 9.006c-.029 0-.029 0 0 0-.029 0-.602-.058-.946-.43-.344-.402-.344-.947-.344-.976 0-.057.029-.086.058-.114a.219.219 0 01.143-.058c.029 0 .602.058.945.43.344.402.344.947.344.976 0 .057-.028.086-.057.114a.483.483 0 01-.143.058zM30.142 7.8c.029.144.086.373.23.516.143.173.343.23.515.287-.029-.143-.086-.373-.23-.516a.857.857 0 00-.515-.287zm2.235 2.611c.143.43-.057.918-.057.918s-.459-.23-.63-.66c-.144-.43.057-.918.057-.918s.487.23.63.66z" fill="#fff"/><path d="M32.32 11.501c-.029 0-.058 0-.086-.029-.029 0-.516-.258-.717-.774-.171-.488.058-1.004.058-1.033.028-.057.057-.086.114-.086.058-.028.086 0 .144 0 .028 0 .515.259.716.775.172.487-.057 1.004-.057 1.032-.03.058-.058.086-.115.086-.029.029-.057.029-.057.029zm-.459-1.463c-.028.144-.057.373 0 .574.086.2.23.344.344.459.029-.144.057-.373 0-.574-.057-.23-.23-.373-.344-.459zm-5.358 1.406c.373.286.43.803.43.803s-.516.057-.888-.23c-.373-.287-.43-.803-.43-.803s.516-.057.888.23z" fill="#fff"/><path d="M26.819 12.419c-.201 0-.574-.029-.86-.258-.43-.316-.516-.89-.516-.918 0-.058 0-.086.029-.143.028-.03.057-.058.114-.058.03 0 .602-.057 1.003.258.43.316.516.89.516.918 0 .057 0 .086-.029.143-.028.03-.057.058-.114.058h-.143zm-.975-1.004c.058.143.144.344.316.488.171.143.4.172.544.172-.057-.144-.143-.345-.315-.488a1.09 1.09 0 00-.545-.172zm-1.919 4.761c.458-.057.86.287.86.287s-.345.401-.803.43c-.459.057-.86-.287-.86-.287s.344-.401.803-.43z" fill="#fff"/><path d="M23.896 17.065c-.487 0-.86-.315-.888-.315a.218.218 0 01-.058-.115c0-.058 0-.086.03-.144.028-.028.4-.458.916-.487.516-.058.974.315.974.315a.217.217 0 01.057.115c0 .057 0 .086-.028.143-.029.03-.401.46-.917.488h-.086zm-.487-.488c.143.086.344.144.573.144.2-.029.401-.143.516-.23a1.128 1.128 0 00-.573-.143c-.201 0-.373.115-.516.23zm4.613-6.453c.172.43 0 .918 0 .918s-.487-.2-.66-.63c-.171-.431 0-.919 0-.919s.488.201.66.631z" fill="#fff"/><path d="M28.022 11.214h-.057c-.03 0-.545-.23-.745-.717-.201-.487 0-1.004 0-1.032.028-.058.057-.086.086-.086.057-.029.085-.029.143 0 .028 0 .544.23.745.717.2.487 0 1.004 0 1.032-.029 0-.057.057-.115.057 0 .03-.029.03-.057.03zm-.544-1.434c-.03.144-.03.373.057.574.086.2.258.344.372.43a1.035 1.035 0 00-.057-.574c-.086-.2-.258-.344-.373-.43zm-2.522 4.474c.373.258.459.775.459.775s-.516.086-.889-.201c-.372-.258-.458-.774-.458-.774s.516-.058.888.2z" fill="#fff"/><path d="M25.243 15.23c-.201 0-.545-.03-.831-.23-.43-.315-.516-.86-.545-.89 0-.056 0-.085.029-.143.029-.028.057-.057.115-.057.028 0 .601-.086 1.002.23.43.315.516.86.545.889 0 .057 0 .086-.029.143-.029.029-.057.057-.114.057h-.172zm-.946-1.004c.057.143.172.344.344.459.172.114.401.172.544.172-.057-.144-.172-.345-.343-.46-.172-.114-.402-.143-.545-.171zm4.986.028c.458.086.744.488.744.488s-.43.287-.888.2c-.458-.085-.745-.487-.745-.487s.43-.287.889-.2z" fill="#fff"/><path d="M29.311 15.143c-.057 0-.114 0-.2-.028-.516-.086-.86-.545-.86-.574-.029-.029-.029-.086-.029-.143 0-.058.03-.086.086-.115.029 0 .488-.344 1.003-.23.516.087.86.545.86.574.028.029.028.086.028.144 0 .057-.028.086-.086.114 0 0-.343.258-.802.258zm-.63-.63c.114.114.286.229.516.286.2.029.43-.028.573-.086a1.108 1.108 0 00-.516-.287c-.2-.057-.43.03-.573.086zm2.894 1.663c0 .459-.373.832-.373.832s-.372-.373-.372-.832c0-.459.372-.832.372-.832s.401.373.373.832z" fill="#fff"/><path d="M31.23 17.18c-.056 0-.085-.029-.114-.058-.028-.028-.4-.43-.4-.946s.4-.946.4-.946a.217.217 0 01.115-.058c.057 0 .086.029.114.057.03.03.402.43.402.947 0 .516-.401.946-.401.946-.03.058-.058.058-.115.058zm0-1.549a1.024 1.024 0 00-.171.545c0 .2.086.402.172.545.086-.143.172-.316.172-.545 0-.2-.086-.402-.172-.545zm-4.555-2.151c.401.23.516.746.516.746s-.516.114-.888-.115c-.373-.23-.516-.746-.516-.746s.487-.143.888.115z" fill="#fff"/><path d="M26.904 14.426c-.2 0-.458-.028-.687-.172-.459-.287-.602-.831-.602-.86 0-.057 0-.086.029-.143a.356.356 0 01.114-.086c.029 0 .573-.115 1.032.143.458.287.602.832.602.86 0 .058 0 .086-.03.144-.028.057-.056.057-.114.086-.028 0-.172.028-.344.028zm-.888-.917c.058.143.172.344.373.43a.835.835 0 00.573.115c-.058-.144-.172-.345-.373-.43a.895.895 0 00-.573-.115zm4.441-2.18c.287.373.23.889.23.889s-.516-.086-.803-.43c-.286-.373-.229-.89-.229-.89s.544.087.802.43z" fill="#fff"/><path d="M30.686 12.39c-.057 0-.601-.086-.916-.516-.316-.402-.258-.975-.258-1.004 0-.057.028-.086.057-.115.029-.028.086-.028.143-.028.029 0 .573.086.917.516.315.401.258.975.258 1.004 0 .057-.029.086-.057.114-.057.03-.115.03-.143.03zm-.83-1.262c0 .144.057.373.171.545.144.172.344.258.488.316 0-.144-.058-.373-.172-.545-.144-.172-.344-.259-.487-.316zm3.524 1.664c-.086.459-.516.745-.516.745s-.286-.43-.2-.889c.085-.459.515-.745.515-.745s.287.43.2.889z" fill="#fff"/><path d="M32.893 13.71h-.029c-.057 0-.086-.03-.114-.087 0-.028-.316-.487-.23-1.003.086-.517.573-.832.573-.86.029-.03.086-.03.144-.03.057 0 .085.03.114.086 0 .03.315.488.23 1.004-.087.517-.574.832-.574.86-.057 0-.086.03-.114.03zm.258-1.55c-.115.115-.258.287-.287.488-.029.201.029.43.086.574.115-.115.258-.287.287-.488.028-.2-.03-.401-.086-.573zm1.604 1.98c.2.401.029.917.029.917s-.487-.172-.688-.573c-.2-.402-.028-.918-.028-.918s.487.143.687.574z" fill="#fff"/><path d="M34.812 15.2h-.057c-.029 0-.544-.2-.774-.688-.229-.458-.057-1.003-.057-1.032a.396.396 0 01.086-.115c.029-.028.086-.028.143 0 .03 0 .545.201.774.689.23.458.057 1.003.057 1.032-.028.057-.057.086-.086.115h-.086zm-.63-1.404a.859.859 0 00.086.573c.086.2.258.316.401.402a.86.86 0 00-.086-.574c-.086-.2-.258-.315-.4-.401zm.229 2.81c.2.402.029.918.029.918s-.487-.172-.688-.574c-.2-.401-.028-.917-.028-.917s.487.143.687.573z" fill="#fff"/><path d="M34.44 17.667h-.057c-.029 0-.545-.2-.774-.688-.23-.459-.057-1.004-.057-1.032.028-.058.057-.086.086-.115.028-.029.086-.029.143 0 .029 0 .544.2.774.688.229.459.057 1.004.057 1.033a.394.394 0 01-.086.114h-.086zm-.602-1.405a.86.86 0 00.086.574c.086.2.258.315.401.401a.859.859 0 00-.086-.573c-.086-.173-.258-.316-.4-.402z" fill="#fff"/><path d="M35.672 20.908a.185.185 0 01-.172-.172v-6.854c0-.976-.688-2.438-2.034-4.217C32.463 8.29 31.43 7.2 31.403 7.2c-.057-.057-.057-.172 0-.258.057-.058.172-.058.258 0 0 0 1.06 1.118 2.063 2.495a16.757 16.757 0 011.432 2.237c.43.86.66 1.606.66 2.18v6.854a.156.156 0 01-.144.201z" fill="#fff"/><path d="M32.921 9.407c-1.547 0-2.263-.602-2.292-.63-.086-.058-.086-.173-.028-.259.057-.086.172-.086.257-.028 0 0 .201.172.573.315.373.143.975.287 1.834.23.086 0 .172.057.172.172 0 .086-.057.172-.172.172-.114.028-.229.028-.344.028zm.086 1.549a7.125 7.125 0 01-1.747-.23c-.745-.2-1.433-.516-1.949-.917-.086-.058-.086-.172-.028-.258.057-.086.171-.086.257-.029a4.943 4.943 0 001.834.86c.888.23 1.863.287 2.837.115.086-.028.172.058.2.144.029.086-.057.172-.143.2-.43.086-.86.115-1.26.115zm-.344 4.331h-.057c-1.346-.43-2.521-1.434-3.094-1.98-.803-.774-1.462-1.605-1.576-2.064a.195.195 0 01.114-.23.197.197 0 01.23.115c.114.43.83 1.29 1.49 1.922.573.545 1.69 1.491 2.95 1.921.087.029.144.115.115.23-.028.057-.086.086-.172.086z" fill="#fff"/><path d="M29.14 13.222c-1.347 0-2.006-.545-2.694-1.119-.086-.086-.2-.143-.287-.23-.085-.056-.085-.171-.028-.257.057-.086.172-.086.258-.029.114.086.2.172.286.23.373.286.688.573 1.118.774.458.2.974.287 1.604.258.086 0 .172.057.172.172 0 .086-.057.172-.172.172-.086.029-.172.029-.258.029zm2.492 1.548a.185.185 0 01-.172-.171c-.029-.918-.315-1.607-.917-2.266a.215.215 0 010-.258.215.215 0 01.258 0c.66.717.946 1.491 1.003 2.495 0 .115-.057.2-.172.2zm1.862 3.872a.157.157 0 01-.143-.085c-.516-.718-.688-2.008-.745-2.725-.086-1.033 0-2.123.172-2.81.029-.087.115-.144.2-.116.087.029.144.115.115.201-.344 1.32-.229 4.188.516 5.249.057.086.029.2-.029.258 0 .028-.028.028-.086.028zm1.089-4.101c.573 1.348 1.089 3.356 1.089 4.302l-1.089-4.302z" fill="#fff"/><path d="M35.672 19.015a.185.185 0 01-.172-.172c0-.918-.516-2.925-1.06-4.216-.029-.086 0-.2.086-.23.086-.028.2 0 .23.087.6 1.348 1.088 3.384 1.088 4.36a.185.185 0 01-.172.171zm-1.462-2.122c.402.89.43 2.008.402 2.438l-.401-2.438z" fill="#fff"/><path d="M34.64 19.532c-.114 0-.171-.086-.171-.172.028-.488-.03-1.55-.401-2.381-.03-.086 0-.2.085-.23.086-.028.201 0 .23.087.458 1.09.43 2.38.43 2.524a.185.185 0 01-.172.172zm-9.741-4.79c.515.315 1.432 1.147 1.862 1.463L24.9 14.742z" fill="#fff"/><path d="M26.733 16.405c-.03 0-.086 0-.115-.028-.115-.086-.287-.258-.487-.43-.43-.373-.974-.832-1.347-1.033-.086-.057-.114-.143-.057-.23.057-.085.143-.114.23-.057.372.23.945.688 1.374 1.09.201.172.373.316.488.402.085.057.085.172.028.258 0 0-.057.028-.114.028zm0-2.609c.744.602 1.661 2.122 1.92 2.667l-1.92-2.668z" fill="#fff"/><path d="M28.652 16.635c-.057 0-.114-.029-.172-.086-.229-.516-1.146-2.037-1.862-2.61-.086-.057-.086-.172-.029-.258.058-.086.172-.086.258-.029.774.631 1.72 2.18 1.977 2.725.029.086 0 .2-.086.23-.029.028-.057.028-.086.028zm.831-1.893c.946.029 1.404-.115 1.72-.2l-1.72.2z" fill="#fff"/><path d="M29.712 14.914h-.229a.185.185 0 01-.172-.172c0-.086.086-.172.172-.172.888.028 1.347-.115 1.633-.2h.029c.086-.03.2.028.23.114.028.086-.03.2-.115.23h-.03c-.286.057-.744.2-1.518.2zm4.269-7.284c.115.487.172 1.806.087 2.437l-.087-2.438z" fill="#fff"/><path d="M34.068 10.268c-.115-.029-.201-.115-.172-.201.085-.602.057-1.893-.086-2.38-.03-.087.028-.201.114-.201.086-.029.2.028.2.114.144.517.173 1.865.087 2.524.028.058-.058.144-.143.144zm1.604 14.914a.185.185 0 01-.172-.172V7.514c0-.086.086-.172.172-.172s.172.086.172.172V25.01a.185.185 0 01-.172.172zm-3.496-14.14s.889 1.434.717 2.467l-.717-2.467z" fill="#fff"/><path d="M32.893 13.71c-.029 0-.029 0 0 0-.115-.03-.2-.115-.172-.201.143-.976-.688-2.352-.688-2.352-.057-.086-.029-.2.057-.23.086-.057.201-.028.23.058.028.057.917 1.491.745 2.61-.029.057-.115.114-.172.114zm2.779 7.198c-.029 0-.057 0-.086-.028-.086-.058-.115-.172-.057-.23a9.388 9.388 0 012.35-2.409 10.721 10.721 0 012.864-1.434c2.55-.832 5.186-.631 5.96-.545.086 0 .172.086.143.2a.156.156 0 01-.2.144 16.668 16.668 0 00-2.694-.057c-1.146.086-2.177.258-3.094.573a10.134 10.134 0 00-2.78 1.406 9.182 9.182 0 00-2.263 2.323c-.057.029-.086.057-.143.057zM35.3 7.228c0 .458.372.831.372.831s.373-.373.373-.831c0-.46-.373-.832-.373-.832s-.372.373-.372.832z" fill="#fff"/><path d="M35.672 8.231c-.057 0-.086-.028-.115-.057-.028-.029-.4-.43-.4-.946 0-.517.4-.947.4-.947a.217.217 0 01.115-.057c.029 0 .086.028.115.057.028.029.4.43.4.947 0 .516-.4.946-.4.946-.03.057-.086.057-.115.057zm0-1.548a1.024 1.024 0 00-.172.545c0 .2.086.401.172.545.086-.144.172-.316.172-.545 0-.201-.086-.402-.172-.545zm1.375.545c-.114.458.144.889.144.889s.43-.258.544-.717c.114-.46-.143-.89-.143-.89s-.43.259-.545.718z" fill="#fff"/><path d="M37.22 8.289h-.058c-.057 0-.086-.029-.115-.086 0-.029-.286-.517-.172-1.033.115-.516.602-.803.63-.832.03-.028.087-.028.144-.028.057 0 .086.028.115.086 0 .029.286.516.171 1.032-.114.517-.601.803-.63.832-.029.029-.057.029-.086.029zm0-1.033c-.058.201 0 .43.056.574.115-.115.258-.287.316-.488.057-.2 0-.43-.058-.573-.114.114-.258.286-.315.487zm4.784 1.606c-.258.373-.172.89-.172.89s.516-.087.774-.488c.258-.373.172-.89.172-.89s-.516.116-.774.488z" fill="#fff"/><path d="M41.803 9.924c-.028 0-.057 0-.085-.03a.396.396 0 01-.086-.114c0-.029-.086-.573.2-1.004.287-.43.86-.545.888-.545.058 0 .086 0 .144.03.028.028.057.056.086.114 0 .028.086.573-.2 1.004-.288.43-.86.545-.89.545h-.056zm.344-.947c-.114.172-.143.402-.172.545.144-.057.344-.172.459-.344.114-.172.143-.402.172-.545-.144.057-.344.143-.459.344zm-1.604-1.004c-.315.344-.287.86-.287.86s.516-.028.831-.372c.315-.344.287-.86.287-.86s-.545.028-.831.372z" fill="#fff"/><path d="M40.256 9.006c-.057 0-.086-.029-.114-.058a.218.218 0 01-.058-.114c0-.029-.028-.603.344-.975.344-.402.917-.43.946-.43.057 0 .086 0 .143.057a.217.217 0 01.057.114c0 .03.029.603-.343.976-.373.372-.946.43-.975.43zm.917-1.205a1.048 1.048 0 00-.516.287 1.15 1.15 0 00-.229.516c.144-.028.344-.114.516-.287.143-.143.2-.372.23-.516zm-2.235 2.61c-.143.43.058.918.058.918s.458-.23.63-.66c.143-.43-.057-.918-.057-.918s-.459.23-.63.66z" fill="#fff"/><path d="M38.996 11.501h-.058a.387.387 0 01-.114-.086c0-.029-.23-.545-.058-1.032.172-.488.688-.746.717-.775.028-.029.086-.029.143 0a.408.408 0 01.115.086c0 .029.229.545.057 1.033-.172.487-.688.745-.716.774h-.086zm.114-1.032a.789.789 0 000 .573c.115-.086.287-.258.344-.459a.789.789 0 000-.573c-.114.114-.258.258-.344.459zm5.73.975c-.372.286-.43.803-.43.803s.517.057.89-.23c.372-.287.429-.803.429-.803s-.544-.057-.888.23z" fill="#fff"/><path d="M44.497 12.419h-.143c-.058 0-.086-.029-.115-.058-.029-.028-.029-.086-.029-.143 0-.029.086-.574.516-.918.43-.315.974-.258 1.003-.258.057 0 .086.029.114.058.03.028.03.085.03.143 0 .029-.087.573-.517.918-.286.23-.659.258-.86.258zm.43-.832c-.172.143-.258.344-.316.488.144 0 .373-.058.545-.172.172-.144.258-.345.315-.488a1.09 1.09 0 00-.544.172zm2.463 4.589c-.458-.057-.859.287-.859.287s.344.401.802.43c.459.057.86-.287.86-.287s-.344-.401-.802-.43z" fill="#fff"/><path d="M47.42 17.065h-.115c-.516-.057-.889-.488-.917-.488-.029-.028-.057-.086-.029-.143 0-.057.029-.086.057-.115.03-.028.459-.372.975-.315.515.057.888.487.917.487.028.03.057.087.028.144 0 .057-.028.086-.057.115 0 0-.401.315-.86.315zm-.602-.602c.114.086.315.23.515.23.201.028.43-.058.573-.144-.114-.086-.315-.23-.515-.23-.23 0-.43.086-.573.144zm-3.524-6.339c-.172.43 0 .918 0 .918s.487-.2.659-.63c.171-.431 0-.919 0-.919s-.459.201-.66.631z" fill="#fff"/><path d="M43.294 11.214c-.03 0-.058 0-.058-.029-.057-.028-.086-.057-.086-.085 0-.03-.2-.545 0-1.033.2-.488.745-.717.745-.717.057-.029.086-.029.143 0 .058.029.086.057.086.086 0 .029.2.545 0 1.033-.2.487-.745.716-.745.716-.028.03-.057.03-.085.03zm.544-1.434a.93.93 0 00-.373.43c-.086.201-.086.43-.057.574a.93.93 0 00.373-.43c.114-.201.086-.43.057-.574zm2.522 4.474c-.373.258-.46.775-.46.775s.517.086.889-.201c.372-.287.458-.774.458-.774s-.515-.058-.888.2z" fill="#fff"/><path d="M46.073 15.23h-.2c-.058 0-.087-.03-.115-.058-.03-.029-.03-.086-.03-.143 0-.029.115-.574.545-.89.43-.315.974-.229 1.003-.229.057 0 .086.029.115.057.028.03.028.087.028.144 0 .029-.114.574-.544.889-.258.2-.602.23-.802.23zm.945-1.004a1.09 1.09 0 00-.544.172c-.172.114-.287.315-.344.459.143 0 .372-.058.544-.172.201-.115.287-.287.344-.46zm-4.985.028c-.459.086-.745.488-.745.488s.43.287.888.2c.459-.085.745-.487.745-.487s-.43-.287-.888-.2z" fill="#fff"/><path d="M42.004 15.143c-.43 0-.802-.258-.83-.258a.395.395 0 01-.087-.114c0-.058 0-.086.029-.144 0-.029.344-.487.86-.573.515-.087.974.229 1.002.229.029.029.058.057.086.115 0 .057 0 .086-.028.143 0 .029-.344.488-.86.574-.057.028-.115.028-.172.028zm-.458-.458c.143.057.343.114.573.086.2-.03.4-.173.516-.287a1.152 1.152 0 00-.574-.086c-.2.057-.4.172-.515.287zm-1.806 1.491c0 .459.373.832.373.832s.373-.373.373-.832c0-.459-.373-.832-.373-.832s-.372.373-.372.832z" fill="#fff"/><path d="M40.084 17.18c-.057 0-.086-.029-.114-.058-.029-.028-.401-.43-.401-.946s.4-.946.4-.946a.217.217 0 01.115-.058c.058 0 .086.029.115.057.029.03.401.43.401.947 0 .516-.401.946-.401.946 0 .058-.057.058-.115.058zm-.172-1.004c0 .2.087.402.172.545.086-.143.172-.344.172-.545 0-.23-.086-.402-.172-.545a1.115 1.115 0 00-.172.545zm4.757-2.696c-.401.23-.516.746-.516.746s.516.114.888-.115c.373-.23.516-.746.516-.746s-.516-.143-.888.115z" fill="#fff"/><path d="M44.41 14.426a1.8 1.8 0 01-.314-.028c-.058 0-.086-.029-.115-.086-.029-.029-.029-.086-.029-.144 0-.028.144-.573.602-.86.459-.287 1.003-.143 1.032-.143.057 0 .086.028.114.086.029.028.029.086.029.143 0 .029-.143.573-.602.86a1.735 1.735 0 01-.716.172zm-.028-.372c.144 0 .373 0 .573-.115.172-.115.287-.287.373-.43-.144 0-.373 0-.573.114a.866.866 0 00-.373.43zm-3.524-2.725c-.286.373-.23.889-.23.889s.517-.086.803-.43c.287-.373.23-.89.23-.89s-.517.087-.803.43z" fill="#fff"/><path d="M40.629 12.39c-.029 0-.086 0-.115-.029a.217.217 0 01-.057-.114c0-.029-.057-.603.258-1.004.315-.402.888-.516.917-.516.057 0 .086 0 .143.028a.218.218 0 01.057.115c0 .029.057.602-.258 1.004-.315.43-.888.516-.945.516.029 0 .029 0 0 0zm.372-.946c-.143.172-.172.401-.172.545.144-.058.344-.144.487-.316.144-.172.172-.401.172-.545-.172.057-.372.144-.487.316zm-3.066 1.348c.087.459.516.745.516.745s.287-.43.2-.889c-.085-.459-.515-.745-.515-.745s-.287.43-.2.889z" fill="#fff"/><path d="M38.451 13.71c-.028 0-.057 0-.114-.03-.029 0-.488-.343-.573-.86-.086-.516.2-1.004.229-1.004.029-.028.057-.057.114-.086.058 0 .086 0 .144.03.028 0 .487.343.573.86.086.516-.2 1.003-.23 1.003a.395.395 0 01-.114.086h-.029zm-.258-1.55a1.214 1.214 0 00-.086.574c.03.201.172.373.287.488.057-.144.114-.373.086-.574-.057-.172-.2-.373-.287-.487zm-1.633 1.98c-.2.401-.028.917-.028.917s.487-.172.687-.573c.2-.402.029-.918.029-.918s-.487.143-.688.574z" fill="#fff"/><path d="M36.532 15.2c-.03 0-.058 0-.086-.028-.03-.029-.086-.057-.086-.115 0-.028-.172-.573.057-1.032.23-.459.773-.66.773-.688.058-.03.087 0 .144 0 .028.028.086.057.086.114 0 .029.172.574-.058 1.033-.229.459-.773.66-.773.688-.029.029-.057.029-.057.029zm.2-1.003c-.086.2-.086.402-.086.574.143-.086.315-.201.401-.402.086-.2.086-.402.086-.573-.143.086-.315.2-.4.401zm.172 2.409c-.2.402-.029.918-.029.918s.487-.172.688-.574c.2-.401.029-.917.029-.917s-.487.143-.688.573z" fill="#fff"/><path d="M36.875 17.667c-.028 0-.057 0-.086-.028-.028-.029-.086-.058-.086-.115 0-.029-.171-.574.058-1.033.229-.458.773-.66.773-.688.058-.029.086 0 .144 0 .028.029.086.057.086.115 0 .029.171.573-.058 1.032-.229.46-.773.66-.773.689-.029.028-.058.028-.058.028zm.602-1.405c-.143.086-.315.2-.401.401-.086.201-.086.402-.086.574.143-.086.315-.2.401-.401a.839.839 0 00.086-.574z" fill="#fff"/><path d="M35.672 20.908a.185.185 0 01-.172-.172v-6.854c0-.603.23-1.32.66-2.18.343-.689.83-1.434 1.432-2.237a35.65 35.65 0 012.063-2.496.18.18 0 01.258 0 .181.181 0 010 .259s-1.032 1.09-2.063 2.466c-1.318 1.778-2.035 3.241-2.035 4.216v6.855c.029.057-.057.143-.143.143z" fill="#fff"/><path d="M38.394 9.407h-.344a.185.185 0 01-.172-.172c0-.086.086-.172.172-.172 1.633.086 2.407-.545 2.407-.545.086-.057.172-.057.258.029.057.086.057.172-.029.258-.029 0-.745.602-2.292.602zm-.086 1.549a6.44 6.44 0 01-1.26-.115c-.087-.028-.173-.114-.144-.2.029-.086.115-.172.2-.144a6.692 6.692 0 002.837-.114 5.168 5.168 0 001.834-.861c.086-.057.2-.057.258.029.057.086.057.2-.029.258a5.115 5.115 0 01-1.948.918c-.573.172-1.146.23-1.748.23zm.344 4.331a.193.193 0 01-.172-.115.195.195 0 01.114-.23c1.261-.4 2.407-1.376 2.952-1.92.63-.603 1.346-1.464 1.49-1.922.028-.087.114-.144.229-.115.086.028.143.115.114.23-.114.458-.773 1.319-1.575 2.064-.574.545-1.748 1.549-3.095 1.98-.029.028-.029.028-.057.028z" fill="#fff"/><path d="M42.176 13.222h-.258a.185.185 0 01-.172-.172c0-.086.086-.172.172-.172.63.028 1.146-.058 1.605-.258.4-.201.745-.46 1.117-.775.086-.086.2-.172.287-.23.086-.057.172-.057.258.03.057.085.057.171-.03.258-.085.086-.2.172-.286.229-.687.545-1.346 1.09-2.693 1.09zm-2.493 1.548c-.114 0-.172-.085-.172-.171.058-1.004.344-1.75 1.003-2.496.057-.086.172-.086.258 0 .086.058.086.172 0 .258-.602.66-.86 1.348-.917 2.266 0 .058-.086.144-.172.144zm-1.863 3.872c-.028 0-.056 0-.114-.028-.086-.058-.086-.172-.028-.258.745-1.033.86-3.93.515-5.249-.028-.086.029-.2.115-.2.086-.03.2.028.2.114.172.688.23 1.778.172 2.81-.057.718-.2 2.008-.745 2.726 0 .057-.057.085-.114.085zm-1.06-4.101c-.572 1.348-1.088 3.356-1.088 4.302l1.089-4.302z" fill="#fff"/><path d="M35.672 19.015a.185.185 0 01-.172-.172c0-.975.516-3.011 1.089-4.36.029-.085.143-.143.23-.085.085.028.142.143.085.23-.573 1.29-1.06 3.297-1.06 4.215a.185.185 0 01-.172.172zm1.433-2.122c-.401.89-.43 2.008-.401 2.438l.4-2.438z" fill="#fff"/><path d="M36.703 19.532a.185.185 0 01-.172-.172c0-.144-.057-1.434.43-2.524.029-.086.144-.144.23-.086.085.028.143.143.085.229-.343.832-.4 1.893-.4 2.38 0 .087-.087.144-.172.173zm9.742-4.79c-.516.315-1.432 1.147-1.862 1.463l1.862-1.463z" fill="#fff"/><path d="M44.583 16.405a.219.219 0 01-.143-.057c-.058-.086-.058-.172.028-.258.115-.086.287-.23.487-.402.459-.373 1.003-.86 1.376-1.09.085-.057.2-.028.229.058.057.086.029.2-.058.23-.343.2-.888.659-1.346 1.032-.2.172-.373.315-.487.43 0 .029-.057.057-.086.057zm.028-2.609c-.744.602-1.661 2.122-1.92 2.667l1.92-2.668z" fill="#fff"/><path d="M42.663 16.635c-.028 0-.057 0-.086-.029-.086-.029-.114-.143-.086-.23.258-.544 1.204-2.093 1.977-2.724.086-.057.172-.057.258.029.057.086.057.172-.029.258-.716.573-1.633 2.094-1.862 2.61-.029.057-.086.086-.172.086zm-.831-1.893c-.945.029-1.404-.115-1.719-.2l1.72.2z" fill="#fff"/><path d="M41.603 14.914c-.774 0-1.232-.115-1.519-.2h-.028c-.086-.03-.143-.116-.115-.23.029-.086.115-.144.23-.115h.028c.315.086.774.23 1.633.2.086 0 .172.087.172.173a.185.185 0 01-.172.172h-.229zM37.334 7.63c-.115.487-.172 1.806-.086 2.437l.086-2.438z" fill="#fff"/><path d="M37.248 10.268c-.086 0-.172-.058-.172-.144-.086-.66-.057-2.007.086-2.524.029-.086.114-.143.2-.114.086.028.144.114.115.2-.114.488-.172 1.779-.086 2.381.057.086-.029.172-.143.2.029 0 .029 0 0 0zm-1.576 15.688a.185.185 0 01-.172-.172V7.514c0-.086.086-.172.172-.172s.172.086.172.172v18.27c0 .115-.086.172-.172.172zm3.467-14.914s-.888 1.434-.716 2.467l.716-2.467z" fill="#fff"/><path d="M38.451 13.71c-.086 0-.172-.058-.172-.144-.172-1.09.688-2.524.745-2.61.058-.086.172-.115.23-.057.086.057.114.172.057.23 0 .028-.831 1.376-.688 2.351 0 .115-.057.2-.172.23zM24.33 33.995v-1.998h1.81v1.998h1.234V29.19H26.14v1.709h-1.81v-1.71h-1.235v4.806h1.234zm4.874 0l.405-1.016h1.783l.404 1.016h1.324l-2.016-4.833h-1.187l-2.016 4.833h1.303zm1.296-3.288l.5 1.283h-1l.5-1.283zm3.883 4.221v-.933h2.895v.934h1.165V32.91h-.63v-3.72h-3.58v.864c0 1.312-.186 2.266-.549 2.856h-.46v2.019h1.16zm.645-2.018c.275-.748.419-1.627.432-2.636h1.118v2.636h-1.55zm5.288 1.085v-3.72h1.687v3.72h1.234V29.19h-4.156v4.805h1.235zm5.316-1.428c-.24-.254-.356-.584-.356-.975s.116-.72.356-.975c.24-.254.542-.384.906-.384.363 0 .658.13.898.384s.363.584.363.975c0 .392-.123.721-.363.975s-.535.384-.898.384c-.364 0-.666-.13-.906-.384zm2.716.796a2.43 2.43 0 00.72-1.77c0-.694-.24-1.285-.72-1.772-.48-.487-1.084-.728-1.81-.728-.727 0-1.331.24-1.811.728a2.431 2.431 0 00-.72 1.771c0 .694.24 1.284.72 1.771.48.488 1.084.728 1.81.728.727 0 1.33-.24 1.811-.728zM20.6 52.342l-.114-.057c.086-.143.143-.23.23-.373-.201-.115-.316-.143-.516-.258-.086.143-.143.23-.258.373l-.115-.058c.2-.315.315-.458.545-.774l.114.057c-.086.144-.143.201-.229.345.2.114.315.143.516.258.086-.144.143-.201.229-.344l.115.057c-.2.287-.316.459-.516.774zm.746.345c0-.03.029-.058.029-.087a.363.363 0 01-.172.03c-.058 0-.086-.03-.144-.058-.086-.029-.114-.086-.143-.115-.029-.057-.029-.115.029-.172.086-.115.229-.115.487-.029.057.029.086.029.143.058 0-.03 0-.03.029-.03.028-.056.028-.085.028-.114 0-.029-.057-.057-.114-.086a.539.539 0 00-.23-.057v-.086c.058 0 .087 0 .144.028.057 0 .086.03.143.058a.294.294 0 01.172.143c.029.058.029.115-.029.172a1.917 1.917 0 01-.258.402c-.085-.029-.085-.057-.114-.057zm-.23-.201c.087.028.144.057.201.028.058 0 .115-.057.143-.114 0-.029.03-.029.03-.058l-.115-.057a.877.877 0 00-.23-.057c-.057 0-.086.028-.114.057-.029.029-.029.057 0 .086 0 .086.028.115.086.115zm1.175.86l-.114-.057c.057-.086.057-.115.114-.201-.258-.115-.372-.172-.63-.258.143-.23.2-.373.344-.602l.114.057c-.114.2-.171.315-.315.516.172.058.258.115.401.172.115-.2.172-.315.287-.545l.114.058c-.114.2-.171.315-.286.545l.115.057c-.029.086-.086.143-.144.258zm.717-.716c-.086.142-.115.228-.2.4-.03.03-.03.058-.058.087 0 0 0 .028-.029.028.287-.143.43-.23.688-.373.057.03.086.03.143.058-.115.258-.2.373-.315.63-.057-.028-.057-.028-.115-.028.086-.143.115-.23.2-.373.03-.028.03-.057.03-.086.028-.028.028-.057.028-.086-.286.144-.401.23-.688.373-.057-.029-.085-.029-.143-.057.143-.258.2-.373.344-.603.057 0 .057.03.115.03zm1.318.86c-.058.114-.115.172-.2.2a.585.585 0 01-.316 0 .59.59 0 01-.172-.114c-.029-.058-.057-.087-.057-.172 0-.087 0-.115.028-.201.058-.115.115-.172.2-.201a.585.585 0 01.316 0 .356.356 0 01.23.172c.028.115.028.23-.03.316zm-.602-.201c-.029.086-.057.143-.029.2.029.058.058.087.144.115.085.029.143.029.2 0a.294.294 0 00.143-.172c.029-.086.058-.143.029-.2-.029-.058-.057-.087-.143-.115-.086-.029-.144-.029-.2 0a.293.293 0 00-.144.172zm1.06 0c-.057.114-.057.172-.114.258l.43.143c.057-.114.057-.172.114-.258.057.029.057.029.114.029-.114.258-.171.373-.257.63-.058-.028-.086-.028-.115-.028.057-.115.086-.172.115-.287l-.43-.143a1.201 1.201 0 00-.115.287c-.057-.029-.086-.029-.114-.029.114-.258.172-.373.286-.63.029 0 .057 0 .086.028zm1.06 1.032v-.086c-.057.029-.114.058-.143.058-.057 0-.086 0-.172-.03-.086-.028-.143-.056-.172-.114-.029-.057-.029-.086 0-.172.057-.115.2-.143.459-.086a.258.258 0 00.143.029c0-.029 0-.029.029-.029.028-.057.028-.086 0-.115a.396.396 0 00-.115-.086c-.057-.028-.143-.028-.23-.028v-.086h.144c.057 0 .086 0 .143.028a.462.462 0 01.2.115.183.183 0 010 .172c-.057.172-.114.258-.171.43-.086.029-.086.029-.115 0zm-.258-.143c.086.029.144.029.2 0a.224.224 0 00.115-.115c0-.029 0-.029.03-.057-.058 0-.087-.029-.115-.029-.086-.029-.172-.029-.23-.029-.057 0-.086.03-.114.087v.086c.028.028.057.057.114.057zm1.204.402c-.058 0-.086-.03-.115-.03.086-.229.115-.343.2-.573-.085-.029-.143-.029-.229-.057-.057.143-.114.23-.171.315-.058.086-.115.115-.144.144-.057.028-.114.028-.172.028-.028 0-.057-.028-.057-.028 0-.03.029-.058.029-.086h.028c.058.028.115-.03.201-.115.057-.086.143-.23.23-.402.171.058.286.086.458.115-.144.316-.172.43-.258.688zm.487-.287c.086.028.143.028.258.057.2.057.286.143.258.258-.03.057-.058.115-.115.144-.057.028-.143.028-.258 0-.143-.03-.23-.058-.372-.087.086-.258.143-.401.229-.66.057 0 .086.03.114.03-.057.114-.057.172-.114.258zm-.029.086c-.029.086-.029.114-.057.2.086.03.143.03.23.058a.183.183 0 00.171 0c.029 0 .057-.029.086-.058 0-.028 0-.057-.029-.086a.22.22 0 00-.143-.057c-.115 0-.143-.029-.258-.057zm1.003-.144c-.029.115-.057.172-.086.287.172.029.258.057.459.086.028-.115.057-.172.085-.287.058 0 .086.029.115.029-.057.258-.115.401-.172.66-.057 0-.086-.03-.114-.03.028-.114.057-.171.085-.286-.171-.029-.286-.057-.458-.086-.029.115-.057.172-.086.287-.057 0-.086-.029-.114-.029.085-.258.114-.401.2-.66.029.03.057.03.086.03zm1.175.947v-.086c-.058.028-.086.057-.143.057h-.172a.467.467 0 01-.172-.086c-.029-.029-.058-.086-.029-.143.029-.144.172-.172.458-.144.058 0 .086 0 .144.029v-.144c-.029-.028-.058-.057-.115-.057h-.23c0-.029 0-.057-.028-.086.058 0 .086-.029.143-.029h.144a.683.683 0 01.2.086c.029.058.058.115.029.172-.029.173-.057.259-.115.46-.057-.03-.086-.03-.114-.03zm-.258-.144c.086.029.143 0 .2-.028.058-.03.086-.058.115-.144 0-.029 0-.029.029-.057-.058 0-.086 0-.115-.029a.313.313 0 00-.23 0c-.056 0-.085.057-.085.086 0 .029 0 .058.029.086-.03.058 0 .086.057.086zm.659.201c-.057 0-.086-.029-.143-.029.114-.086.171-.143.286-.23-.057-.028-.114-.056-.143-.085-.029-.029-.029-.086-.029-.144 0-.057.058-.114.115-.143.057-.029.143-.029.229-.029.143.03.23.03.373.058-.058.258-.086.401-.144.66-.057 0-.086 0-.114-.03.028-.114.028-.171.057-.257-.086 0-.115-.03-.2-.03a2.238 2.238 0 01-.287.259zm.114-.459c-.028.086.058.115.172.144.086 0 .115.028.201.028.029-.086.029-.143.057-.23-.086 0-.143-.028-.229-.028-.115-.029-.2 0-.2.086zm1.605.688v-.086c-.057.03-.086.058-.143.058h-.172c-.086 0-.143-.029-.172-.086a.22.22 0 01-.057-.144c.028-.143.172-.2.43-.172h.143v-.028c0-.058 0-.086-.029-.115-.029-.029-.057-.058-.115-.058a.71.71 0 00-.229.03c0-.03-.029-.058-.029-.087.058 0 .087-.029.144-.029h.143c.086 0 .172.03.2.087a.307.307 0 01.058.172c-.029.172-.029.286-.057.459-.058.028-.058.028-.115 0zm-.258-.086c.086 0 .143 0 .2-.028a.158.158 0 00.087-.144v-.057h-.345c-.056.029-.085.057-.085.086 0 .029 0 .057.029.086.028.029.057.057.114.057zm1.204-.487h.143c-.143.115-.23.172-.401.287.143.143.2.23.343.372h-.143c-.143-.143-.2-.229-.344-.372-.028.143-.028.2-.057.344h-.114c.028-.258.057-.402.085-.66h.115c-.029.144-.029.201-.057.316l.43-.287zm.744.745c0-.028 0-.057-.028-.086-.057.03-.086.058-.143.087-.058.028-.086.028-.172 0-.086 0-.144-.03-.2-.058-.058-.029-.058-.086-.058-.143.028-.144.143-.201.43-.172h.143v-.029c0-.057 0-.086-.029-.115-.029-.028-.057-.057-.143-.057-.057 0-.143 0-.23.029 0-.029-.028-.058-.028-.086.029-.03.086-.03.143-.03h.144c.086 0 .172.03.2.058.057.029.057.086.057.172-.028.172-.028.287-.028.46 0-.03-.029-.03-.057-.03zm-.286-.086c.086 0 .143 0 .2-.028a.158.158 0 00.087-.144v-.057h-.115c-.086 0-.172 0-.23.029-.057.028-.085.057-.085.086 0 .029 0 .057.028.086.029 0 .086.028.115.028zm1.347.373h-.115v-.23c-.23 0-.344-.028-.573-.028 0 .086 0 .144-.029.23h-.114c0-.115.028-.201.028-.316h.058a.418.418 0 00.172-.258.579.579 0 00.086-.315c.171 0 .257 0 .4.028 0 .23-.028.344-.028.603h.115a.486.486 0 010 .286zm-.201-.315c0-.2.029-.316.029-.516h-.172a.642.642 0 01-.086.287c-.057.085-.086.171-.143.229a.806.806 0 01.372 0zm.745.115c-.115 0-.23-.03-.287-.086-.057-.058-.086-.144-.086-.258 0-.115.03-.201.115-.259.057-.057.143-.086.258-.086.115 0 .172.029.23.086a.326.326 0 01.085.23v.057h-.573c0 .086.029.143.057.172a.414.414 0 00.201.058c.086 0 .172 0 .258-.03v.087a.216.216 0 01-.115.029h-.143zm0-.631a.407.407 0 00-.172.057c-.029.029-.057.086-.086.143h.43a.219.219 0 00-.057-.143c0-.029-.058-.029-.115-.057zm.974.544c0-.028 0-.028.029-.057 0-.029.029-.057.029-.086.085-.172.143-.258.229-.459h.172v.689h-.115v-.545s0 .028-.029.028c-.028.029-.028.058-.028.086-.086.172-.115.258-.2.43h-.116c-.085-.172-.143-.258-.2-.43-.029-.057-.057-.086-.057-.143v.545h-.115v-.688h.143c.086.172.115.258.2.43 0 .086.03.143.058.2zm.802-.602c0 .172 0 .258.03.43v.144c.171-.23.257-.344.429-.602h.143c.029.258.029.401.029.688h-.115c0-.172 0-.258-.029-.402v-.172c-.171.23-.257.344-.43.603h-.171c0-.258 0-.402-.029-.689h.143zm.946.632h-.143c.086-.116.143-.173.229-.288a.219.219 0 01-.143-.057.218.218 0 01-.058-.115.22.22 0 01.058-.143.414.414 0 01.2-.057c.143 0 .23 0 .373-.03.028.259.028.403.057.69h-.115c0-.116 0-.173-.028-.259h-.2c-.115.086-.144.143-.23.258zm-.029-.46c0 .086.086.115.23.115h.2c0-.086 0-.143-.029-.23h-.229c-.114 0-.172.03-.172.115zm2.035.545h-.115c0-.086-.029-.143-.029-.23-.229.03-.343.03-.573.058 0 .086.029.144.029.23h-.115c0-.115-.028-.201-.028-.316h.057c.057-.086.115-.172.143-.287.029-.114.029-.2.029-.315.172-.029.258-.029.401-.029.029.23.057.344.086.574h.115a.589.589 0 000 .315zm-.287-.287c-.029-.2-.029-.315-.057-.516-.086 0-.115 0-.172.029 0 .086 0 .172-.029.287a.576.576 0 01-.114.23c.114 0 .2-.03.372-.03zm1.06-.372c.029.114 0 .2-.057.258a.363.363 0 01-.258.114c-.086 0-.143 0-.2-.028-.058-.029-.115-.058-.144-.115l-.086-.172c-.028-.115 0-.2.057-.258a.363.363 0 01.258-.115c.115 0 .201 0 .287.057a.301.301 0 01.143.259zm-.63.057c0 .086.057.143.086.2.057.03.114.058.2.058.086 0 .144-.029.172-.086.029-.057.058-.115.029-.2a.468.468 0 00-.086-.173c-.057-.028-.115-.057-.2-.057-.086 0-.144.029-.172.086-.03.029-.03.086-.03.172zm1.06.23c-.057 0-.086 0-.115.028a5.289 5.289 0 01-.114-.66c.286-.028.4-.057.687-.086.058.259.086.402.144.66-.058 0-.086 0-.115.029-.057-.23-.057-.344-.114-.574-.172.029-.258.029-.43.057-.029.201 0 .316.057.545zm1.461-.603c.029.115.029.2-.028.258-.058.086-.144.115-.258.144h-.2l-.173-.086-.086-.172c-.028-.115 0-.201.058-.259a.555.555 0 01.258-.143c.114-.029.2 0 .286.057.057.03.115.115.143.201zm-.63.115c.029.086.057.143.114.172.058.029.115.057.201.029.086 0 .143-.058.172-.086.029-.058.029-.115.029-.201-.029-.086-.058-.144-.115-.172-.057-.029-.115-.058-.2-.029-.087 0-.144.057-.172.086-.03.057-.058.115-.03.2zm1.547.057c-.057 0-.086.029-.114.029a4.367 4.367 0 00-.172-.574c-.086.029-.144.029-.23.058.029.143.029.258.029.344a.414.414 0 01-.057.2.157.157 0 01-.144.087h-.057c0-.029 0-.058-.029-.086h.03c.056 0 .085-.058.085-.172 0-.115 0-.259-.029-.46.201-.028.287-.057.459-.085.114.258.143.401.23.66zm.2-.746c.03.115.058.173.087.287.172-.028.258-.057.458-.114-.029-.115-.057-.172-.086-.287.057 0 .086-.029.115-.029.086.258.114.402.2.66-.057 0-.086.029-.114.029-.029-.115-.058-.173-.086-.287-.172.028-.258.057-.459.114.029.115.058.172.086.287-.057 0-.086.029-.114.029-.086-.258-.115-.402-.2-.66.028 0 .056 0 .114-.029zm.917-.2c.058.172.086.258.144.401 0 .058.029.058.029.115v.029c.114-.258.143-.402.229-.66.057-.029.086-.029.143-.029.086.258.143.402.23.66-.058 0-.058.029-.116.029-.057-.172-.085-.23-.143-.402 0-.029-.028-.057-.028-.086 0-.029-.029-.057-.029-.086-.086.258-.143.402-.23.66-.056.028-.085.028-.143.028-.086-.258-.143-.401-.229-.66h.143zm1.405-.287c-.115.029-.144.057-.258.086.086.23.143.344.229.574-.057 0-.086.028-.115.028-.086-.23-.114-.344-.2-.573-.115.028-.144.057-.258.057 0-.029-.029-.057-.029-.086.258-.057.373-.115.63-.172-.028.029-.028.029 0 .086zm.716.401a.585.585 0 01-.315 0 .346.346 0 01-.2-.2c-.03-.115-.058-.201 0-.287.028-.086.114-.144.2-.172a.396.396 0 01.258 0 .258.258 0 01.171.172c0 .029.03.029.03.057-.23.058-.316.115-.545.172.028.086.086.115.143.144a.244.244 0 00.2 0 .576.576 0 00.23-.115c.028.029.028.057.028.086a.217.217 0 01-.114.058c0 .057-.029.086-.086.086zm-.287-.573c-.057.029-.114.057-.143.086-.029.057-.029.086 0 .172.172-.057.258-.086.401-.115-.029-.057-.057-.114-.114-.114-.058 0-.058-.03-.144-.03zm1.376.201c-.058.028-.086.028-.115.028-.115-.23-.143-.315-.258-.545-.086.03-.143.058-.23.086a.993.993 0 01.087.345v.2a.224.224 0 01-.115.115h-.057c0-.029-.029-.029-.029-.057h.029c.057-.029.086-.086.057-.172 0-.115-.057-.258-.114-.46.172-.057.286-.085.458-.143.115.23.172.344.287.603zm.2-.488c.086-.029.143-.057.23-.086.2-.086.315-.057.372.057a.183.183 0 010 .172c-.029.058-.115.087-.2.144-.144.057-.201.086-.345.143-.114-.258-.172-.373-.286-.63.057-.03.057-.03.114-.03l.115.23zm.029.057c.028.087.057.115.086.201.086-.029.143-.057.229-.086a.624.624 0 00.143-.086c.029-.029.029-.057 0-.086-.028-.029-.057-.057-.086-.057-.028 0-.086 0-.172.028-.057.058-.114.058-.2.086zm.688-.659c.057.114.085.143.143.258.172-.057.258-.115.43-.172-.058-.115-.087-.144-.144-.258l.115-.058c.143.259.2.373.344.603l-.115.057-.143-.287c-.172.058-.258.115-.43.172l.143.287-.114.057a6.461 6.461 0 01-.316-.63c.03 0 .03 0 .087-.03zm1.604-.287c.057.086.086.2.057.258-.028.086-.114.144-.2.2-.058.03-.144.058-.2.03a.53.53 0 01-.201-.058.346.346 0 01-.144-.143.286.286 0 01-.028-.258c.028-.086.086-.144.2-.201a.347.347 0 01.287-.029c.114.029.172.086.229.201zm-.573.258c.057.086.086.115.172.144a.244.244 0 00.2 0c.086-.03.115-.087.144-.144.028-.057 0-.115-.058-.2-.057-.087-.086-.115-.172-.144a.176.176 0 00-.2.029c-.086.028-.115.086-.143.143 0 .029.028.086.057.172zm1.089-.774a1.93 1.93 0 00-.344.172c.114.2.2.315.315.516l-.114.057c-.144-.229-.23-.372-.373-.602.172-.086.258-.115.458-.2a.06.06 0 01.058.057zm.946-.172c.056.086.085.172.056.258-.028.086-.085.143-.2.2a.53.53 0 01-.2.058.53.53 0 01-.201-.057.344.344 0 01-.143-.144c-.058-.086-.086-.172-.058-.258.029-.086.086-.143.2-.2a.347.347 0 01.287-.03c.115 0 .172.058.258.173zm-.574.258a.382.382 0 00.172.143c.057.029.143 0 .2-.029a.345.345 0 00.144-.143c0-.057 0-.115-.057-.2-.058-.087-.115-.115-.172-.144-.058-.029-.144 0-.2.029-.087.028-.115.086-.115.143a.177.177 0 00.028.2zm-28.165 2.983c-.057-.03-.086-.03-.114-.058.114-.258.2-.373.315-.63.286.114.4.143.687.257-.114.258-.172.373-.286.631-.058-.028-.086-.028-.115-.057.115-.23.144-.316.258-.545a2.677 2.677 0 01-.43-.172c-.143.258-.2.373-.315.574zm1.232.459c-.057-.03-.114-.03-.143-.087a.387.387 0 01-.086-.114c0 .028-.029.086-.029.114-.057.115-.057.144-.114.258-.058-.028-.086-.028-.115-.057.172-.373.258-.545.43-.918.028 0 .057.03.114.03 0 .028 0 .056-.028.085.057-.029.086-.029.143-.029.057 0 .115 0 .143.03a.356.356 0 01.23.171.399.399 0 010 .258c-.058.115-.115.172-.201.201-.143.086-.23.086-.344.057zm.23-.603c-.087-.029-.144-.029-.201 0-.058.029-.086.086-.143.144v.028c-.03.086-.058.172-.03.201.03.057.087.086.173.115.086.028.143.028.2 0a.294.294 0 00.144-.172c.028-.086.028-.144.028-.201-.057-.029-.086-.086-.172-.115zm1.203.66a.284.284 0 01-.2.2.585.585 0 01-.316 0c-.086-.028-.143-.057-.172-.114-.057-.058-.086-.086-.086-.144 0-.057 0-.114.029-.2.057-.115.114-.172.2-.201a.585.585 0 01.316 0c.114.029.2.086.229.172a.49.49 0 010 .287zm-.63-.201c-.03.086-.03.144 0 .2.028.058.085.087.171.115a.316.316 0 00.23 0 .293.293 0 00.143-.172c.028-.086.028-.143 0-.2-.029-.058-.086-.086-.172-.115-.086-.029-.143-.029-.2 0-.115.057-.144.115-.173.172zm1.747.516c-.028.086-.086.172-.2.201-.115.029-.2.057-.344.029-.029.114-.058.172-.115.287-.057 0-.086-.03-.143-.03.029-.114.057-.171.115-.286-.115-.029-.23-.115-.258-.172a.28.28 0 01-.029-.258.347.347 0 01.2-.2c.087-.03.201-.03.344-.03.03-.114.058-.143.086-.258.058 0 .058.029.115.029-.029.115-.057.143-.086.258.115.057.2.115.258.172.086.086.114.172.057.258zm-.802-.23c-.029.087-.029.144 0 .202.029.057.086.114.2.143.087-.2.115-.316.172-.516-.085-.029-.172-.029-.229 0a.382.382 0 00-.143.172zm.688.202c.057-.144 0-.258-.201-.316-.086.2-.115.287-.172.488.115.028.172 0 .23-.029a.345.345 0 00.143-.143zm.601.516c-.114-.029-.229-.086-.286-.172a.28.28 0 01-.029-.258.357.357 0 01.172-.23.34.34 0 01.287-.029c.114.03.171.058.229.144.057.057.057.143.028.23 0 .028 0 .028-.028.057-.23-.058-.344-.086-.602-.144-.029.086-.029.144.029.201.028.057.086.086.172.115a.96.96 0 00.286.029c0 .028-.029.057-.029.086h-.143c.029 0-.028-.03-.086-.03zm.144-.602c-.058-.03-.115 0-.172 0a.224.224 0 00-.115.114c.172.058.258.058.458.115.03-.057.03-.115 0-.143-.028-.03-.085-.086-.171-.086zm.744.803a.553.553 0 01-.257-.144.279.279 0 01-.029-.258c.029-.115.086-.2.172-.23.086-.057.2-.057.315-.028.029 0 .086.029.115.029.028.028.057.028.086.057-.029.029-.029.057-.058.086-.028-.029-.057-.029-.086-.029-.028 0-.057-.028-.086-.028-.172-.029-.286.028-.343.2-.029.087-.029.144 0 .201.028.058.086.086.171.115a.317.317 0 00.23 0c0 .029-.029.057-.029.086-.029-.029-.114-.057-.2-.057zm.774.143c-.114-.029-.23-.086-.258-.143a.28.28 0 01-.028-.259c.028-.114.086-.2.172-.229.085-.057.2-.057.315-.029.028 0 .086.03.114.03.029.028.058.028.086.028-.028.028-.028.057-.057.086-.029 0-.057-.029-.086-.029-.029 0-.057-.029-.086-.029-.172-.028-.287.03-.315.201-.029.086-.029.144.029.201.028.057.085.086.171.115.086 0 .144.028.23 0 0 .028 0 .057-.029.086-.086 0-.172 0-.258-.029zm.716-.574c-.028.172-.057.259-.085.43 0 .058-.03.058-.03.115v.029c.23-.2.373-.287.602-.488.058 0 .087.03.172.03-.057.257-.085.4-.143.659-.057 0-.086 0-.114-.029.028-.172.057-.258.085-.401 0-.03 0-.058.03-.086 0-.03 0-.058.028-.087-.23.201-.344.287-.602.488-.057 0-.086-.029-.172-.029.058-.258.086-.401.172-.66-.029.03 0 .03.057.03zm1.576.574c-.028.115-.057.2-.143.23-.086.028-.2.057-.315.057a.414.414 0 01-.2-.058c-.058-.028-.087-.086-.115-.143-.029-.057-.029-.115 0-.2.028-.115.086-.201.143-.23.086-.058.172-.058.315-.058.115.03.2.058.258.144.057.086.057.172.057.258zm-.659-.086c-.028.086 0 .143.029.2.029.058.086.087.172.087s.143 0 .2-.029c.058-.029.086-.115.115-.2.029-.087 0-.144-.029-.201-.028-.058-.086-.086-.171-.086-.086 0-.144 0-.201.028-.057.058-.115.115-.115.201zm1.06-.201c-.028.115-.028.172-.057.287.2.029.287.029.487.057.029-.114.029-.172.029-.286h.143c-.028.258-.057.401-.086.66h-.143c.029-.115.029-.173.029-.316-.201-.029-.287-.029-.488-.058-.028.115-.028.172-.057.316-.057 0-.086 0-.143-.029.057-.258.057-.401.114-.66.115.03.144.03.172.03zm1.347.832c0-.029 0-.057-.029-.086-.057.029-.085.057-.143.086h-.172a.414.414 0 01-.2-.057c-.058-.03-.058-.086-.058-.144.029-.143.172-.2.459-.172h.143v-.029c0-.057 0-.086-.029-.114a.218.218 0 00-.143-.058c-.086 0-.143 0-.258.029 0-.029-.028-.057-.028-.086.057 0 .086-.029.143-.029h.143c.115 0 .172.029.23.086.057.029.057.086.057.172-.029.173-.029.287-.058.46.029-.058 0-.058-.057-.058zm-.286-.115c.086 0 .143 0 .2-.028a.158.158 0 00.086-.144v-.057h-.143c-.115 0-.172 0-.23.029-.057.028-.085.057-.085.086 0 .028 0 .057.028.086a.266.266 0 00.144.028zm1.346.173h-.143c.029-.23.029-.345.057-.603-.114 0-.143 0-.258-.029a2.974 2.974 0 01-.086.345.44.44 0 01-.114.172c-.057.028-.086.057-.172.057h-.057v-.086h.028c.058 0 .115-.029.172-.143.057-.087.086-.259.115-.46.2 0 .315.03.516.03-.03.315-.058.458-.058.716zm.43-.374h.258c.23 0 .344.087.315.201a.158.158 0 01-.086.144.573.573 0 01-.258.057c-.172 0-.229 0-.4-.029.028-.258.028-.401.028-.688h.143v.316zm0 .087v.229h.258c.057 0 .114 0 .172-.029.057-.028.057-.057.057-.086 0-.028-.029-.057-.057-.086-.029-.028-.086-.028-.172-.028h-.258zm.974-.345v.287h.487v-.287h.143v.689h-.143v-.316h-.487v.316h-.143c0-.258 0-.402.029-.689h.114zm1.662.345c0 .114-.029.2-.086.258-.057.057-.172.086-.286.086-.086 0-.144 0-.201-.029-.057-.029-.115-.057-.143-.115a.407.407 0 01-.058-.172c0-.114.029-.2.115-.258.057-.057.172-.086.287-.086.114 0 .229.029.286.086a.346.346 0 01.086.23zm-.688 0c0 .086.029.143.058.2.057.058.114.058.2.058a.404.404 0 00.2-.058c.058-.057.058-.114.058-.2a.26.26 0 00-.086-.201c-.057-.058-.114-.058-.2-.058a.414.414 0 00-.201.058c0 .057-.029.114-.029.2zm1.433-.287c-.143 0-.23 0-.401.028 0 .23.029.345.029.603h-.144c0-.258-.028-.402-.028-.689.2 0 .315 0 .515-.028.029.028.029.057.029.086zm.945.2c0 .115-.028.201-.086.259a.437.437 0 01-.286.114c-.086 0-.143 0-.2-.028-.058-.029-.115-.058-.144-.115a.407.407 0 01-.057-.172c0-.115.029-.2.086-.258a.438.438 0 01.286-.115c.115 0 .23.029.287.086.057.029.086.115.114.23zm-.659.03a.26.26 0 00.086.2.414.414 0 00.201.057.26.26 0 00.2-.086.397.397 0 00.058-.2.26.26 0 00-.086-.201.414.414 0 00-.2-.058.26.26 0 00-.201.086c-.057.058-.086.115-.057.201zm2.063-.173c.03.115 0 .2-.057.258a.437.437 0 01-.286.115c-.086 0-.144 0-.23-.029-.057-.028-.114-.057-.143-.114l-.086-.173c0-.114 0-.2.086-.258a.382.382 0 01.287-.114c.114 0 .229 0 .315.057.057.057.086.143.114.258zm-.659.057a.26.26 0 00.086.201c.058.029.115.058.2.058a.26.26 0 00.201-.086c.03-.058.058-.115.03-.201 0-.086-.058-.144-.087-.201a.414.414 0 00-.2-.057c-.086 0-.144.028-.172.086-.058.057-.086.114-.058.2zm.831-.143a.646.646 0 01.029-.344c.029-.086.115-.144.23-.172.142-.058.257-.086.372-.115.028.029.028.057.028.086-.172.057-.315.086-.372.115-.086.029-.115.057-.143.115-.03.057-.03.114-.03.2.03-.028.058-.057.115-.086.058-.028.087-.028.144-.057.114 0 .2 0 .258.057a.513.513 0 01.143.201c.029.115 0 .2-.057.258a.382.382 0 01-.287.115.323.323 0 01-.315-.086c-.029-.058-.086-.144-.115-.287zm.459.287c.172-.029.229-.115.2-.258-.028-.144-.114-.23-.258-.201-.028 0-.085.029-.114.029-.029.028-.058.028-.086.057-.029.029-.057.057-.057.086 0 .086.057.2.114.23.029.028.115.057.2.057zm1.06-.058h-.172c-.057 0-.086-.028-.143-.057 0 .029.028.086.028.115.029.115.029.172.058.287-.058 0-.086 0-.144.028-.085-.373-.114-.573-.2-.975.029 0 .057 0 .114-.029.03.03.03.058.03.087.028-.03.056-.087.114-.087.028-.028.086-.028.143-.057.115-.029.2 0 .287.057.085.058.114.144.143.23a.36.36 0 01-.029.258.624.624 0 01-.23.143zm-.172-.602c-.086 0-.143.029-.172.086-.029.058-.029.115-.029.201v.029c.03.086.058.172.115.2.057.03.115.058.2.03.087 0 .144-.058.172-.087.03-.057.03-.115.03-.2-.03-.087-.058-.144-.115-.173-.058-.086-.115-.114-.201-.086zm1.289.373c-.028-.029-.028-.057-.057-.086a.224.224 0 01-.115.115c-.028.028-.086.028-.143.057a.304.304 0 01-.23-.029c-.056-.028-.085-.057-.114-.143-.028-.143.086-.23.373-.287.057 0 .086-.029.143-.029v-.028c0-.057-.029-.086-.086-.115-.029-.029-.086-.029-.143 0-.057 0-.143.057-.23.086l-.057-.057a.217.217 0 01.115-.058c.057-.028.086-.028.143-.028.115-.029.172-.029.23 0 .057.028.085.086.114.143.057.172.057.258.115.459h-.058zm-.315 0a.466.466 0 00.172-.086c.029-.029.057-.086.029-.143 0-.03 0-.03-.029-.058-.057 0-.086.029-.143.029a.969.969 0 00-.23.086c-.028.029-.057.057-.057.115 0 .028.029.057.058.086.114-.029.143-.029.2-.029zm.745-.487c.172-.03.23-.087.2-.144-.028-.057-.085-.086-.229-.057-.028 0-.086.028-.114.028-.029 0-.057.03-.115.058-.028-.029-.028-.058-.057-.086a.858.858 0 01.286-.115.397.397 0 01.258 0c.058.029.115.057.115.115.029.086-.029.143-.115.172.058 0 .115 0 .172.029l.086.085c.029.058 0 .115-.057.173-.057.057-.143.086-.258.114-.115.029-.23.029-.315.029 0-.029 0-.057-.029-.086.115.029.2 0 .315 0 .086-.029.144-.029.172-.057.029-.03.058-.058.029-.086-.029-.087-.115-.087-.287-.058-.057 0-.086.029-.114.029 0-.029 0-.058-.029-.086.029-.029.057-.029.086-.057zm1.375-.23c.03.115.03.2-.028.287a.417.417 0 01-.258.172.316.316 0 01-.23 0c-.057 0-.114-.057-.171-.086a.6.6 0 01-.115-.172c-.029-.115-.029-.201.029-.287.057-.086.143-.115.258-.143.114-.03.229-.03.315.028.086.029.143.086.2.201zm-.659.143c.03.087.058.144.115.172.057.03.115.03.2.03.087-.03.144-.058.172-.116.03-.057.03-.114 0-.2-.028-.086-.057-.144-.114-.172-.057-.03-.115-.03-.2-.03-.087.03-.144.058-.173.116-.028.057-.028.114 0 .2zm1.49-.545c.029.03 0 .086 0 .115a.395.395 0 01-.114.086h.172l.086.086c.028.058 0 .115-.03.172a.432.432 0 01-.228.115c-.143.029-.23.057-.373.086-.086-.258-.143-.401-.229-.66.143-.028.23-.057.373-.086.2-.057.315-.028.343.087zm-.114.058a.062.062 0 00-.058-.058c-.028 0-.085 0-.143.03-.086.028-.143.028-.23.056.03.087.03.115.058.173.086-.03.144-.03.23-.058.085-.028.143-.028.171-.057-.028-.029 0-.058-.028-.086zm.143.258c0-.029-.029-.057-.086-.057-.029 0-.115 0-.172.028-.086.029-.143.029-.23.058.03.086.058.114.087.2.086-.028.143-.028.23-.057.114-.029.171-.086.171-.172zm.888-.029c-.029-.028-.029-.057-.057-.086a.397.397 0 01-.086.115.218.218 0 01-.143.057.316.316 0 01-.23 0c-.057-.028-.114-.057-.114-.114-.057-.144.057-.23.344-.316.057-.029.086-.029.143-.057 0-.029 0-.029-.029-.029-.028-.057-.057-.086-.086-.086-.028-.029-.086-.029-.143 0-.057.029-.143.057-.23.115l-.056-.058c.028-.028.086-.057.114-.086.057-.028.086-.028.143-.057a.313.313 0 01.23 0c.057.029.114.057.143.143.057.172.114.258.172.43-.057 0-.057 0-.115.03zm-.315 0c.086-.028.143-.057.172-.114.029-.058.029-.087.029-.172 0-.03 0-.03-.03-.058-.056.029-.085.029-.114.029-.114.029-.172.057-.2.086-.029.028-.057.086-.029.115 0 .028.029.057.086.057 0 .086.057.086.086.057zm.544-.803c.058.115.058.172.115.258.2-.057.287-.086.459-.143-.058-.115-.058-.172-.115-.258.057-.029.086-.029.114-.029.115.258.172.373.287.631-.057.029-.086.029-.115.029-.057-.115-.086-.172-.114-.287-.2.057-.287.086-.459.143.058.115.058.172.115.287-.057.029-.086.029-.115.029-.114-.258-.143-.373-.258-.631.03 0 .058 0 .086-.029zm.975-.287c.086.172.114.23.172.402.028.029.028.057.028.115v.028c.086-.286.115-.401.2-.688.058-.029.087-.029.144-.057.115.258.172.372.286.63-.057.03-.057.03-.114.03-.086-.144-.115-.23-.172-.373 0-.03-.029-.058-.029-.087 0-.028-.028-.057-.028-.086-.086.287-.115.402-.2.689-.058.028-.087.028-.173.057-.114-.258-.172-.373-.286-.63.114-.03.143-.03.172-.03zm1.203.287c-.057.029-.086.029-.143.058.057-.144.057-.201.114-.345h-.172c-.057-.028-.085-.057-.114-.086a.183.183 0 010-.172c.029-.057.086-.086.172-.114.143-.058.229-.087.372-.144.115.258.2.373.315.631-.057.029-.086.029-.114.057a.71.71 0 01-.115-.258c-.086.03-.114.058-.2.086a.859.859 0 00-.115.287zm-.2-.43c.028.086.114.086.257.029.086-.029.115-.058.2-.086-.028-.086-.056-.115-.114-.201-.086.029-.143.057-.229.086-.115.029-.143.086-.115.172z" fill="#fff"/></svg>