<svg width="103" height="16" viewBox="0 0 103 16" fill="none" xmlns="http://www.w3.org/2000/svg"><path d="M21.254 4.095A3.319 3.319 0 0020.218 1.7a3.524 3.524 0 00-1.144-.734 3.69 3.69 0 00-1.356-.26h-2.37c.478.666.215 1.697-.656 2.179L7.255 6.998h-1.75v.968L.275 10.87v.502l1.325.734c.264.143.564.218.867.217h6.539c.23 0 .458-.044.67-.128.213-.085.406-.208.567-.363.33-.317.513-.743.513-1.186v-.258l2.625 1.445v.485h-2.625v.483l2.186 1.21 1.314-.727c.266-.148.487-.36.64-.613.153-.255.234-.544.234-.838V9.419l6.124-3.392v1.94h-2.625v.484l2.194 1.209 1.306-.73c.267-.149.487-.36.64-.614a1.62 1.62 0 00.235-.838V5.77c0-.22-.046-.438-.134-.641a1.672 1.672 0 00-.38-.544 1.754 1.754 0 00-.566-.363 1.815 1.815 0 00-.67-.127zM7.255 8.93v-.963h1.75l-1.75.963zm3.5-4.834l-5.25-2.902V.706h8.344c.18 0 .353.056.495.16a.78.78 0 01.29.417.75.75 0 01-.034.5.79.79 0 01-.344.376l-3.5 1.936z" fill="#FF373C"/><path d="M39.436 3.923c-.885 0-1.75.25-2.485.722a4.33 4.33 0 00-1.648 1.923 4.119 4.119 0 00-.254 2.476 4.234 4.234 0 001.224 2.195 4.536 4.536 0 002.29 1.173c.868.165 1.767.08 2.585-.244a4.437 4.437 0 002.007-1.579 4.159 4.159 0 00.754-2.38 4.089 4.089 0 00-.328-1.647 4.242 4.242 0 00-.969-1.397 4.447 4.447 0 00-1.457-.928 4.598 4.598 0 00-1.72-.314zm0 6.942c-1.52 0-2.673-1.096-2.673-2.657 0-1.56 1.162-2.656 2.673-2.656 1.511 0 2.684 1.096 2.684 2.656s-1.16 2.657-2.684 2.657zm-7.754-3.428l3.575 4.885h-2.055L30.52 8.636l-1.426 1.456v2.229h-1.782V4.095h1.782v3.77l3.67-3.77H35l-3.317 3.342zm44.412-3.514a4.61 4.61 0 00-2.485.722 4.33 4.33 0 00-1.647 1.923 4.12 4.12 0 00-.255 2.476 4.233 4.233 0 001.224 2.195 4.538 4.538 0 002.29 1.173c.868.165 1.768.08 2.585-.244a4.437 4.437 0 002.007-1.579 4.158 4.158 0 00.754-2.38 4.092 4.092 0 00-.329-1.647 4.234 4.234 0 00-.968-1.396 4.457 4.457 0 00-1.457-.928 4.6 4.6 0 00-1.719-.315zm0 6.942c-1.52 0-2.684-1.096-2.684-2.657 0-1.56 1.164-2.656 2.684-2.656 1.52 0 2.684 1.096 2.684 2.656s-1.164 2.657-2.684 2.657zm13.022-6.942a3.766 3.766 0 00-2.255.683c-.272.188-.507.42-.697.683V4.094h-1.782v11.61h1.782v-4.581a2.9 2.9 0 00.697.683c.649.46 1.443.7 2.255.683 2.138 0 4.025-1.8 4.025-4.286 0-2.486-1.878-4.28-4.025-4.28zm-.357 6.942c-1.425 0-2.593-1.096-2.593-2.657 0-1.56 1.162-2.656 2.593-2.656 1.43 0 2.595 1.096 2.595 2.656s-1.164 2.657-2.597 2.657h.002zM58.078 3.923a4.668 4.668 0 00-1.712.344c-.54.22-1.03.54-1.438.942a4.194 4.194 0 00-1.278 3.043 4.2 4.2 0 001.343 3.018c.416.392.912.703 1.457.913a4.67 4.67 0 001.719.311 5.026 5.026 0 002.773-.772c.34-.208.642-.469.89-.772l-1.069-1.195a3.079 3.079 0 01-.678.565 3.41 3.41 0 01-1.825.548c-1.45 0-2.495-.942-2.684-2.048h6.618l.036-.24a4.71 4.71 0 00.055-.618c-.002-2.342-1.773-4.04-4.207-4.04zM55.572 7.35c.357-1.114 1.144-1.878 2.504-1.878 1.27 0 2.058.77 2.326 1.878h-4.83zm46.488-3.256l-4.833 11.61h-1.96l1.426-3.388-3.4-8.222h1.969l2.414 5.998 2.415-5.998h1.969zM83.15 11.38c.001.22-.066.436-.194.62a1.153 1.153 0 01-.522.412 1.21 1.21 0 01-.672.064 1.18 1.18 0 01-.597-.305 1.108 1.108 0 01-.32-.572 1.068 1.068 0 01.067-.643c.088-.204.237-.379.429-.5.191-.124.416-.189.646-.189.307.005.6.124.817.332.216.208.341.488.347.781zM70.04 9.671l1.247 1.116a4.737 4.737 0 01-3.667 1.707 4.576 4.576 0 01-3.163-1.255 4.198 4.198 0 01-1.31-3.03c0-1.137.471-2.227 1.31-3.031a4.46 4.46 0 011.447-.928 4.671 4.671 0 011.716-.327 4.65 4.65 0 012.701.823c.33.228.626.499.877.806L69.95 6.665a2.524 2.524 0 00-.59-.548 3.035 3.035 0 00-1.736-.565c-1.52 0-2.683 1.096-2.683 2.656s1.163 2.657 2.683 2.657a2.82 2.82 0 001.771-.599 4.22 4.22 0 00.644-.601v.007zM46.067 4.094h6.492v8.227h-1.782V5.723h-3.106l-.296 3.437a5.49 5.49 0 01-.43 1.841c-.189.43-.523.79-.951 1.025a3.326 3.326 0 01-1.567.33h-.438V10.74h.269c.475 0 .812-.126 1.01-.378.204-.253.327-.695.371-1.33l.428-4.938z" fill="#000"/></svg>