<svg width="101" height="20" viewBox="0 0 101 20" fill="none" xmlns="http://www.w3.org/2000/svg"><path d="M19.935 6.607a3.3 3.3 0 003.297-3.303A3.3 3.3 0 0019.935 0a3.3 3.3 0 00-3.297 3.304 3.3 3.3 0 003.297 3.303z" fill="#F07D00"/><path d="M41.926 6.607a3.3 3.3 0 003.298-3.303A3.3 3.3 0 0041.927 0a3.3 3.3 0 00-3.298 3.304 3.3 3.3 0 003.297 3.303z" fill="#6E3C91"/><path d="M0 13.64v6.151h5.285v-5.523h3.457v5.523h5.285v-5.523h3.457v-5.41H4.774A4.778 4.778 0 000 13.64z" fill="#FFB900"/><path d="M17.995 8.858h-.51v6.15a4.778 4.778 0 004.773 4.783h.511v-6.15a4.779 4.779 0 00-4.774-4.783z" fill="#F07D00"/><path d="M40.253 8.858v5.41h3.458v5.523h5.285v-6.15a4.778 4.778 0 00-4.775-4.783h-3.968z" fill="#6E3C91"/><path d="M34.968 14.381h-3.457V8.858h-5.284v5.523h-3.458v5.41h12.2v-5.41z" fill="#E6324B"/><path d="M34.968 13.64v6.151h.511a4.778 4.778 0 004.774-4.783v-6.15h-.51a4.778 4.778 0 00-4.775 4.783z" fill="#BE2387"/><path d="M7 6.607a3.3 3.3 0 003.297-3.303A3.3 3.3 0 006.999 0a3.3 3.3 0 00-3.297 3.304A3.3 3.3 0 007 6.607z" fill="#FFB900"/><path d="M59.192 8.856v4.502H53.1V8.856h1.252v3.493h1.175V8.856h1.252v3.493h1.161V8.856h1.252zm3.227 2.779h-.578v1.723h-1.265V8.856h1.265v1.75h.61l1.072-1.75h1.335l-1.406 2.174 1.419 2.328h-1.432l-1.02-1.723zm2.929-.528c0-1.35 1.06-2.34 2.497-2.34 1.438 0 2.497.99 2.497 2.34 0 1.35-1.059 2.341-2.497 2.341s-2.497-.99-2.497-2.34zm3.71 0c0-.778-.532-1.286-1.213-1.286-.68 0-1.213.508-1.213 1.286 0 .779.533 1.287 1.213 1.287s1.213-.508 1.213-1.287zm6.53-2.251v4.502h-1.251V9.866h-1.29l-.026.733c-.058 1.756-.296 2.836-1.438 2.836a2.47 2.47 0 01-.578-.077l.07-1.042c.058.013.116.02.174.02.52 0 .616-.67.655-1.685l.064-1.795h3.62zm4.498 3.628h-1.9l-.353.874h-1.297l1.984-4.502h1.252l1.99 4.502h-1.323l-.353-.874zm-.372-.94l-.578-1.44-.578 1.44h1.156zm-22.396 3.742v4.502H56.06v-3.492h-1.708v3.492H53.1v-4.502h4.218zm5.412 1.666c0 1.022-.77 1.659-1.995 1.659h-.784v1.177h-1.27v-4.502h2.054c1.226 0 1.996.637 1.996 1.666zm-1.283 0c0-.419-.263-.663-.79-.663h-.706v1.319h.706c.527 0 .79-.245.79-.656zm2.099.585c0-1.35 1.06-2.341 2.497-2.341 1.438 0 2.497.99 2.497 2.34 0 1.351-1.059 2.342-2.497 2.342s-2.497-.99-2.497-2.341zm3.71 0c0-.778-.532-1.287-1.213-1.287-.68 0-1.213.509-1.213 1.287 0 .778.533 1.286 1.213 1.286s1.213-.508 1.213-1.286zm5.644 1.968V20h-1.162v-.495c-1.521-.11-2.336-.81-2.336-1.981 0-1.177.815-1.872 2.336-1.987v-.463H72.9v.463c1.521.103 2.337.81 2.337 1.987 0 1.17-.81 1.89-2.337 1.98zm-1.162-.997v-1.974c-.77.09-1.104.392-1.104.99 0 .592.379.894 1.104.984zm2.266-.99c0-.592-.36-.9-1.104-.984v1.98c.764-.083 1.104-.405 1.104-.996zm5.885 1.286v.984H76.28v-4.502h3.524v.984H77.54v.759h1.996v.952H77.54v.823h2.35zm.807-1.267c0-1.37 1.046-2.341 2.471-2.341.828 0 1.496.302 1.932.849l-.809.733c-.282-.341-.629-.527-1.059-.527-.738 0-1.251.514-1.251 1.286 0 .771.513 1.286 1.251 1.286.43 0 .777-.186 1.06-.527l.808.733c-.436.547-1.104.849-1.932.849-1.425 0-2.471-.971-2.471-2.341zm4.988 0c0-1.37 1.046-2.341 2.472-2.341.828 0 1.495.302 1.932.849l-.81.733c-.282-.341-.628-.527-1.058-.527-.739 0-1.252.514-1.252 1.286 0 .771.513 1.286 1.252 1.286.43 0 .776-.186 1.059-.527l.809.733c-.437.547-1.104.849-1.932.849-1.426 0-2.472-.971-2.472-2.341zm5.352-2.251h1.251v2.643l1.855-2.643h1.195v4.502h-1.252V17.15l-1.849 2.637h-1.2v-4.502zm5.664 0h1.251v2.643l1.855-2.643H101v4.502h-1.252V17.15L97.9 19.788h-1.2v-4.502zm.827-1.319h.854c.007.296.141.444.462.444.321 0 .469-.148.475-.444h.854c0 .676-.398 1.049-1.329 1.049-.93 0-1.316-.373-1.316-1.049zM55.622 6.488l-.004-1.926-.953 1.605h-.174l-.953-1.593v1.914h-.362V3.845h.31l1.1 1.857 1.085-1.857h.309l.003 2.643h-.361zm3.167-.328v.328h-1.915V3.845h1.862v.329H57.25v.811h1.323v.321H57.25v.853h1.538zm3.049-.835h-.501v1.163h-.37V5.325h-.504l-.739 1.163h-.44l.87-1.374-.807-1.269h.404l.704 1.148h.513V3.845h.369v1.148h.505l.708-1.148h.403l-.806 1.276.87 1.367h-.44l-.739-1.163zm4.492.835v.905h-.35v-.577h-2.17l-.005.577h-.35l.004-.906h.128c.362-.022.448-.66.475-1.464l.026-.85h1.854V6.16h.388zm-2.25 0h1.489V4.173h-1.157l-.019.555c-.022.645-.086 1.226-.313 1.43zm5.087-2.315l-1.172 2.178c-.189.355-.452.518-.739.518a.888.888 0 01-.354-.08L67 6.16c.087.03.17.05.249.05.154 0 .294-.076.41-.265l.06-.094-1.062-2.005h.403l.856 1.676.878-1.676h.373zm2.854 0v2.643h-.377V5.31H70.13v1.178h-.377V3.845h.377v1.136h1.514V3.845h.377zm2.673 1.982h-1.401l-.29.66h-.388l1.194-2.642h.373l1.198 2.643h-.395l-.29-.661zm-.132-.302l-.569-1.295-.568 1.295h1.138zm3.541-.759c0 .574-.415.921-1.1.921h-.653v.8h-.376V3.846h1.028c.686 0 1.1.348 1.1.921zm-.377 0c0-.377-.253-.592-.735-.592h-.64v1.185h.64c.482 0 .735-.215.735-.593zm.904.4c0-.774.596-1.351 1.406-1.351.802 0 1.398.574 1.398 1.351 0 .778-.596 1.352-1.398 1.352-.81 0-1.406-.578-1.406-1.352zm2.427 0c0-.585-.437-1.015-1.021-1.015-.592 0-1.029.43-1.029 1.015s.437 1.016 1.029 1.016c.584 0 1.02-.43 1.02-1.016zm3.547.994v.905h-.35v-.577h-2.17l-.005.577h-.35l.004-.906h.128c.362-.022.448-.66.475-1.464l.026-.85h1.854V6.16h.388zm-2.25 0h1.489V4.173h-1.157l-.019.555c-.022.645-.087 1.226-.313 1.43zm5.14-2.315v2.643h-.376V5.31h-1.515v1.178h-.377V3.845h.377v1.136h1.515V3.845h.376zm2.674 1.982h-1.402l-.29.66h-.388l1.194-2.642h.373l1.198 2.643h-.395l-.29-.661zm-.132-.302l-.57-1.295-.568 1.295h1.138zm3.444-1.68v2.643h-.369v-.77h-.727c-.034 0-.068 0-.102-.004l-.527.774h-.4l.584-.838c-.373-.125-.584-.427-.584-.854 0-.603.418-.95 1.066-.95h1.06zM92.414 5.4h.697V4.174h-.674c-.449 0-.701.211-.701.619 0 .389.23.607.678.607z" fill="#323232"/></svg>