<svg width="64" height="35" viewBox="0 0 64 35" fill="none" xmlns="http://www.w3.org/2000/svg"><path d="M29.53 14.312h2.237c1.245 0 1.896.504 1.896 1.485 0 .673-.283 1.093-.934 1.261.736.168 1.133.588 1.133 1.346 0 1.12-.651 1.653-1.982 1.653h-2.35v-5.745zm1.246.868v1.486h.765c.622 0 .877-.224.877-.757 0-.504-.255-.729-.877-.729h-.765zm0 2.327v1.653h.878c.622 0 .905-.308.905-.813 0-.56-.282-.84-.99-.84h-.793zm7.842-1.654v4.204h-1.16v-.673c-.227.42-.623.757-1.331.757-.963 0-1.416-.7-1.416-1.598v-2.718h1.16v2.55c0 .56.256.841.737.841.482 0 .85-.308.85-.925v-2.466h1.16v.028zm.793 2.887h1.076c.057.364.226.588.736.588.453 0 .651-.168.651-.448s-.255-.42-.85-.505c-.565-.084-.933-.196-1.188-.42-.255-.196-.369-.477-.369-.897 0-.924.907-1.317 1.643-1.317.906 0 1.614.364 1.727 1.317h-1.048c-.056-.336-.254-.504-.65-.504-.37 0-.595.168-.595.448s.198.364.792.476c.878.14 1.614.365 1.614 1.318 0 .924-.65 1.4-1.755 1.4-1.076-.055-1.727-.56-1.784-1.456zm4.332-4.092c0-.364.283-.645.651-.645.368 0 .651.28.651.645a.637.637 0 01-.65.644c-.37-.027-.652-.28-.652-.644zm1.246 1.205v4.204h-1.133v-4.204h1.133zm2.293 0v.672c.226-.42.651-.784 1.36-.784.424 0 .764.14.99.393.255.252.396.672.396 1.232v2.663h-1.16v-2.522c0-.59-.227-.841-.737-.841-.481 0-.849.308-.849.924v2.439h-1.16v-4.204h1.16v.028zm7.73 2.887c-.142.897-.85 1.4-1.982 1.4-1.274 0-2.18-.868-2.18-2.13 0-1.4.906-2.269 2.151-2.269 1.33 0 2.039.925 2.039 2.158v.308h-3.001c.028.7.396 1.093 1.047 1.093.538 0 .793-.224.878-.588h1.047v.028zm-2.01-2.186c-.51 0-.878.336-.963.953h1.868c-.028-.645-.34-.953-.906-.953zm2.576 2.186h1.075c.057.364.227.588.736.588.453 0 .651-.168.651-.448s-.254-.42-.849-.505c-.566-.084-.934-.196-1.189-.42-.254-.196-.368-.477-.368-.897 0-.924.906-1.317 1.642-1.317.906 0 1.614.364 1.727 1.317h-1.047c-.057-.336-.255-.504-.652-.504-.367 0-.594.168-.594.448s.198.364.793.476c.877.14 1.614.365 1.614 1.318 0 .924-.651 1.4-1.756 1.4-1.075-.055-1.727-.56-1.783-1.456zm4.133 0h1.076c.056.364.227.588.736.588.453 0 .651-.168.651-.448s-.255-.42-.849-.505c-.566-.084-.934-.196-1.189-.42-.255-.196-.368-.477-.368-.897 0-.924.906-1.317 1.642-1.317.906 0 1.614.364 1.727 1.317H62.09c-.057-.336-.256-.504-.652-.504-.368 0-.595.168-.595.448s.199.364.793.476c.878.14 1.614.365 1.614 1.318 0 .924-.651 1.4-1.755 1.4-1.104-.055-1.755-.56-1.784-1.456zM34.598 7.92c-.142 1.43-1.16 2.159-2.548 2.159-1.84 0-2.86-1.121-2.86-2.943 0-1.738 1.162-3 2.832-3 1.359 0 2.378.73 2.52 2.103H33.21c-.084-.7-.452-1.065-1.188-1.065-.906 0-1.473.7-1.473 1.906 0 1.26.538 1.962 1.473 1.962.707 0 1.188-.364 1.302-1.093h1.274V7.92zm.764-3.363c0-.364.284-.644.652-.644.368 0 .65.28.65.644a.638.638 0 01-.65.645.637.637 0 01-.652-.645zM36.58 5.79v4.204h-1.133V5.791h1.133zm1.33 2.943v-2.13h-.537V5.79h.538v-.924h1.16v.925h.878v.813h-.878v2.018c0 .336.142.504.453.504.17 0 .312-.028.453-.084v.897a2.184 2.184 0 01-.707.112c-.878 0-1.36-.449-1.36-1.317zm2.52-2.943h1.246l.991 2.523.934-2.523h1.105l-2.265 5.634h-1.105l.737-1.85-1.643-3.783zM29.36 27.68h1.218c.113.7.481.953 1.133.953.566 0 .934-.309.934-.757 0-.589-.623-.673-1.077-.757-1.16-.168-2.038-.504-2.038-1.737 0-1.15 1.104-1.71 2.067-1.71 1.274 0 2.038.56 2.123 1.71h-1.189c-.085-.505-.396-.757-.962-.757s-.85.252-.85.645c0 .588.623.672 1.048.729 1.16.167 2.095.476 2.095 1.737 0 1.205-1.104 1.822-2.18 1.822-1.274.028-2.237-.533-2.322-1.878zm8.267.196h1.048c-.113 1.15-.963 1.681-1.982 1.681-1.302 0-2.152-.896-2.152-2.13 0-1.4.935-2.242 2.152-2.242 1.076 0 1.84.533 1.954 1.626H37.57c-.085-.476-.369-.729-.85-.729-.622 0-.99.449-.99 1.262 0 .953.368 1.345 1.019 1.345.453.028.82-.253.877-.813zm1.84-4.484h1.162v2.578c.226-.42.65-.756 1.359-.756.99 0 1.387.756 1.387 1.625v2.69h-1.133v-2.522c0-.589-.226-.84-.736-.84s-.877.308-.877.924v2.439h-1.162v-6.138zm11.92 6.194c-1.245 0-2.18-.841-2.18-2.13 0-1.374.935-2.242 2.209-2.242s2.18.84 2.18 2.157c0 1.374-.934 2.215-2.209 2.215zm0-.897c.652 0 1.02-.477 1.02-1.29 0-.869-.368-1.345-1.02-1.345-.622 0-1.019.477-1.019 1.261.029.897.368 1.374 1.02 1.374zm4.247-5.297v6.11h-1.16v-6.11h1.16zm-9.258 6.194c-1.246 0-2.18-.841-2.18-2.13 0-1.374.934-2.242 2.208-2.242 1.275 0 2.18.84 2.18 2.157 0 1.374-.934 2.215-2.208 2.215zm.028-.897c.652 0 1.02-.477 1.02-1.29 0-.869-.369-1.345-1.02-1.345-.622 0-1.019.477-1.019 1.261 0 .897.34 1.374 1.02 1.374zM24.01 16.133V.72H0v15.414C0 27.428 12.004 34.49 12.004 34.49S24.01 27.428 24.01 16.133zM12.004 33.117c-1.783-1.15-10.787-7.37-10.787-16.984V1.924h21.574v14.21c0 9.584-9.003 15.806-10.787 16.983z" fill="#000"/><path d="M13.024 27.82h1.048c-.113 1.15-.963 1.682-1.982 1.682-1.302 0-2.152-.897-2.152-2.13 0-1.402.934-2.242 2.152-2.242 1.076 0 1.84.533 1.953 1.625h-1.076c-.084-.476-.368-.729-.849-.729-.623 0-.99.45-.99 1.262 0 .953.367 1.346 1.018 1.346.453 0 .821-.281.878-.814zm5.35-14.293c-1.217 0-2.236.785-2.803 1.402h-2.094l2.378-2.355c.821.028 2.095-.14 2.973-.98 1.387-1.346.934-3.728.934-3.728s-2.378-.449-3.765.925c-.85.813-.991 2.102-.991 2.942l-2.378 2.355v-3.924c.566-.56 1.415-1.57 1.415-2.774 0-1.906-2.039-3.28-2.039-3.28s-2.01 1.402-2.01 3.28c0 1.205.793 2.214 1.416 2.774v3.924l-2.378-2.354c0-.813-.142-2.103-.991-2.943-1.389-1.374-3.766-.926-3.766-.926s-.453 2.383.905 3.728c.85.84 2.152 1.009 3.001.981l2.378 2.354H8.465c-.594-.589-1.613-1.402-2.803-1.402-1.953 0-3.34 2.018-3.34 2.018s1.415 1.99 3.34 1.99c1.218 0 2.237-.785 2.803-1.401h2.747l-.595 4.092c-.17 1.15-1.02 1.541-1.246 1.626h-.764v1.204h6.823v-1.204h-.792c-.227-.085-1.076-.477-1.246-1.626l-.595-4.092h2.775c.566.589 1.557 1.402 2.803 1.402 1.868 0 3.34-1.99 3.34-1.99s-1.444-2.018-3.34-2.018zm-1.529-3.895c.482-.477 1.246-.617 1.756-.645-.028.504-.17 1.29-.651 1.738-.482.476-1.246.616-1.756.644.029-.504.142-1.289.651-1.737zM6.002 10.725c-.482-.477-.595-1.234-.623-1.738.51.028 1.274.168 1.755.645.482.476.595 1.233.623 1.737-.51-.028-1.274-.168-1.755-.644zm-.397 5.577c-.679 0-1.33-.449-1.698-.785.368-.364 1.019-.785 1.698-.785.68 0 1.302.449 1.699.785-.396.364-1.019.785-1.699.785zm5.578-8.94c0-.673.481-1.29.793-1.682.368.392.792 1.009.792 1.681 0 .701-.453 1.317-.792 1.71-.34-.393-.793-1.037-.793-1.71zm.793 14.49h-.794c.538-.786.538-1.459.708-2.832h.17c.17 1.373.142 2.046.708 2.83l-.792.001zm6.398-5.55c-.68 0-1.33-.449-1.698-.785.368-.336 1.019-.785 1.698-.785.68 0 1.303.449 1.7.785-.397.364-1.02.785-1.7.785z" fill="#000"/></svg>