<svg width="86" height="26" viewBox="0 0 86 26" fill="none" xmlns="http://www.w3.org/2000/svg"><path d="M77.958 17.588l4.129-4.55h-2.365l-3.79 4.359v-4.359h-1.84l-.037 9.635h1.876v-4.588l6.72 7.877h2.401l-7.094-8.374zM40.538 13h-2.365l-3.79 4.359v-4.397h-1.84l-.038 9.673h1.877v-4.588l6.719 7.838 2.402.039-7.094-8.374L40.538 13z" fill="#00AAFA"/><path d="M48.495 13v.727a4.85 4.85 0 00-3.003-1.033c-2.778 0-5.03 2.294-5.03 5.124 0 2.83 2.252 5.123 5.03 5.123a5.065 5.065 0 003.003-.994v.65h1.914v-9.635L48.495 13zm-3.003 8.144c-1.802 0-3.228-1.49-3.228-3.288 0-1.835 1.463-3.288 3.228-3.288 1.801 0 3.228 1.491 3.228 3.288 0 1.835-1.464 3.288-3.228 3.288zm11.447-8.412a4.85 4.85 0 00-3.003 1.033V13h-1.914v12.924h1.914v-3.939a4.85 4.85 0 003.003 1.033c2.778 0 5.03-2.294 5.067-5.124-.038-2.867-2.29-5.161-5.067-5.161zm0 8.45c-1.802 0-3.228-1.49-3.228-3.288 0-1.835 1.464-3.288 3.228-3.288 1.802 0 3.228 1.491 3.228 3.327 0 1.758-1.464 3.25-3.228 3.25zm-28.375-7.264c-.113 1.72-1.502 3.059-3.228 3.059-.15 0-.263 0-.413-.039.375-1.261.6-2.561.6-3.938 0-7.15-5.705-13-12.761-13C5.742 0 0 5.812 0 13s5.705 13 12.762 13c5.03 0 9.383-2.982 11.485-7.303a5.01 5.01 0 001.089.115 5.008 5.008 0 003.228-1.186v5.01h1.914v-9.674h-1.914v.956zM12.762 24.165c-6.043 0-10.96-5.01-10.96-11.165.037-6.156 4.917-11.165 10.96-11.165 6.043 0 10.96 5.01 10.922 11.165 0 1.109-.15 2.18-.45 3.174-.676-.612-1.126-1.492-1.126-2.486v-.726h-1.802v.726c0 1.797.9 3.365 2.252 4.283-1.802 3.67-5.517 6.194-9.796 6.194zm57.577-5.545c-.075 1.453-1.276 2.639-2.74 2.639-1.502 0-2.74-1.262-2.74-2.791v-5.392h-1.764v5.392c0 2.561 1.989 4.588 4.504 4.588 1.05 0 1.99-.344 2.74-.956v.65h1.877v-9.674h-1.877v5.544z" fill="#00AAFA"/></svg>