<svg width="114" height="16" viewBox="0 0 114 16" fill="none" xmlns="http://www.w3.org/2000/svg"><g clip-path="url(#clip0_66_95)"><path d="M19.428 3.411h2.421v3.633h4.146V3.411h2.421v9.393h-2.421v-3.81h-4.146v3.81h-2.421V3.411zm15.598 9.606c-.66 0-1.29-.095-1.89-.284-.586-.2-1.1-.496-1.54-.886a4.272 4.272 0 01-1.046-1.506c-.257-.615-.385-1.33-.385-2.145v-.354c0-.78.122-1.46.367-2.038a3.912 3.912 0 011.009-1.436c.428-.39.923-.68 1.486-.868a5.361 5.361 0 011.816-.301c1.529 0 2.69.39 3.485 1.17.795.779 1.193 1.907 1.193 3.384v.993h-6.88c.013.413.086.774.22 1.08.135.296.313.538.533.727.22.19.47.331.752.426.293.082.587.124.88.124.624 0 1.095-.089 1.413-.266a1.49 1.49 0 00.678-.78h2.22c-.195.98-.679 1.72-1.449 2.215-.77.497-1.724.745-2.862.745zm-.091-7.904a3.44 3.44 0 00-.844.106c-.27.07-.508.183-.716.337a1.76 1.76 0 00-.513.62c-.135.26-.208.573-.22.94h4.53c-.012-.39-.079-.716-.201-.976a1.459 1.459 0 00-.477-.62 1.704 1.704 0 00-.697-.319 4.015 4.015 0 00-.862-.088zm8.518.247h-3.1V3.412h8.621v1.95h-3.1v7.443h-2.421V5.361zm11.208 7.657a6.24 6.24 0 01-1.89-.284c-.587-.2-1.1-.502-1.54-.904a4.272 4.272 0 01-1.046-1.506c-.257-.603-.385-1.312-.385-2.127v-.354c0-.768.128-1.442.385-2.02a4.167 4.167 0 011.046-1.454c.44-.39.953-.68 1.54-.868a5.91 5.91 0 011.89-.301c.66 0 1.284.1 1.871.3.587.19 1.1.48 1.541.87.453.39.807.873 1.064 1.452.257.58.385 1.253.385 2.02v.355c0 .804-.128 1.507-.385 2.11a4.162 4.162 0 01-1.064 1.506c-.44.401-.954.703-1.54.903a5.74 5.74 0 01-1.872.302zm0-1.985c.685 0 1.253-.236 1.706-.71.465-.472.697-1.18.697-2.126v-.354c0-.863-.232-1.518-.697-1.967-.453-.461-1.021-.692-1.706-.692-.697 0-1.272.23-1.724.692-.453.449-.679 1.104-.679 1.967v.354c0 .957.226 1.672.679 2.145.452.46 1.027.69 1.724.69zm6.509 1.985a4.72 4.72 0 01-.367-.018c-.146 0-.269-.012-.366-.036v-2.108c.06.011.153.017.275.017a.973.973 0 00.605-.195c.171-.141.312-.378.422-.709.122-.33.208-.768.257-1.311.06-.555.092-1.24.092-2.056v-3.19h7.704v9.393h-2.421V5.361h-3.045v1.595c0 1.217-.068 2.22-.202 3.012-.123.78-.318 1.395-.587 1.844-.257.449-.587.762-.99.939-.392.177-.85.266-1.377.266zm15.222 0a6.24 6.24 0 01-1.89-.284c-.587-.2-1.1-.502-1.54-.904a4.273 4.273 0 01-1.046-1.506c-.257-.603-.386-1.312-.386-2.127v-.354c0-.768.129-1.442.386-2.02a4.167 4.167 0 011.045-1.454c.44-.39.954-.68 1.541-.868a5.91 5.91 0 011.89-.301c.66 0 1.284.1 1.87.3.588.19 1.101.48 1.542.87.452.39.807.873 1.064 1.452.256.58.385 1.253.385 2.02v.355c0 .804-.129 1.507-.385 2.11a4.163 4.163 0 01-1.064 1.506c-.44.401-.954.703-1.541.903a5.738 5.738 0 01-1.871.302zm0-1.985c.684 0 1.253-.236 1.706-.71.464-.472.697-1.18.697-2.126v-.354c0-.863-.233-1.518-.697-1.967-.453-.461-1.022-.692-1.706-.692-.697 0-1.272.23-1.725.692-.452.449-.679 1.104-.679 1.967v.354c0 .957.227 1.672.68 2.145.452.46 1.026.69 1.724.69zm6.78-7.621h6.97v1.95h-4.548v7.443h-2.422V3.411zm8.434 0h2.42v6.026l4.33-6.026h2.238v9.393h-2.421V6.778l-4.33 6.026h-2.237V3.411zm13.158 5.866c-.746-.236-1.29-.59-1.632-1.063-.343-.473-.514-1.028-.514-1.666 0-.46.079-.88.238-1.258a2.66 2.66 0 01.752-.993c.331-.283.746-.502 1.248-.655.514-.154 1.113-.23 1.798-.23h4.586v9.392h-2.422V9.561h-1.742l-2.11 3.243h-2.715l2.513-3.527zm.275-2.729c0 .402.135.697.404.886.281.19.654.284 1.119.284h2.256V5.36h-2.256c-.465 0-.838.1-1.119.3-.269.19-.404.485-.404.887z" fill="#000"/><path fill-rule="evenodd" clip-rule="evenodd" d="M3.63 8.282a3.033 3.033 0 00-.234-.01C1.796 8.273.5 9.525.5 11.069c0 1.544 1.296 2.796 2.896 2.796 1.599 0 2.895-1.252 2.895-2.796 0-.118-.007-.235-.022-.35-1.37-.106-2.47-1.131-2.639-2.436z" fill="#5D00F5"/><path fill-rule="evenodd" clip-rule="evenodd" d="M6.291 4.932c0-1.544-1.296-2.796-2.895-2.796C1.796 2.136.5 3.388.5 4.932c0 1.544 1.296 2.795 2.896 2.795.074 0 .147-.002.22-.008.107-1.374 1.243-2.471 2.667-2.575.005-.07.008-.14.008-.212z" fill="#EB236B"/><path fill-rule="evenodd" clip-rule="evenodd" d="M9.39 7.706c.118.014.24.021.362.021 1.6 0 2.896-1.251 2.896-2.795S11.35 2.136 9.752 2.136c-1.6 0-2.896 1.252-2.896 2.796 0 .076.004.151.01.226 1.352.163 2.414 1.226 2.524 2.548z" fill="#4BD0A0"/><path fill-rule="evenodd" clip-rule="evenodd" d="M6.88 10.704c-.015.119-.024.24-.024.364 0 1.544 1.297 2.796 2.896 2.796 1.6 0 2.896-1.252 2.896-2.796 0-1.544-1.297-2.795-2.896-2.795-.128 0-.254.008-.377.023-.17 1.253-1.197 2.245-2.494 2.408z" fill="#06F"/></g><defs><clipPath id="clip0_66_95"><path fill="#fff" transform="translate(.5 .5)" d="M0 0h113v15H0z"/></clipPath></defs></svg>