<svg width="108" height="14" viewBox="0 0 108 14" fill="none" xmlns="http://www.w3.org/2000/svg"><path d="M10.964 11.286c-.237.454-.335.533-.566.77-.465.405-.978.628-1.599.812-.853.22-2.032.303-2.948.146-1.659-.246-3.408-1.718-4.145-3.627-.541-1.492-.62-2.791-.232-4.15.31-1.138.735-2.166 1.588-2.974.892-.808 1.704-1.167 2.945-1.278 1.435-.146 3.102.11 4.305.992.465.367.774 1.411 1.045 1.925h.312l-.388-2.227S9.77.5 6.705.5C2.478.5 0 3.401 0 7c0 1.322.478 2.7 1.254 3.766.814 1.065 1.64 1.836 3.16 2.318 1.607.517 3.106.526 4.773.122.737-.184 1.513-.44 2.133-.918l.388-2.154h-.35s-.15.585-.394 1.152zm8.459 1.802c-3.064 0-5.272-2.636-5.272-6.088S16.359.912 19.423.912 24.694 3.548 24.694 7s-2.207 6.088-5.271 6.088zm0-12.588C15.622.5 12.87 3.401 12.87 7s2.75 6.5 6.552 6.5c3.8 0 6.551-2.901 6.551-6.5S23.224.5 19.423.5zm7.401 1.787h.311c.776-1.175 2.946-1.375 5.739-1.375h2.988l-9.508 12.33v.258h10.592l.272-1.787h-.312c-.776 1.212-2.946 1.375-5.738 1.375h-3.34L37.374.758V.5H27.095l-.271 1.787zM47.927.675h.155c.232 0 .147.23-.008.486l-3.488 5.986-.039.073-.581-.991-3.301-5.178c-.194-.294-.117-.38.038-.38h.078V.5h-2.482v.286c.349 0 .776.008 1.124.632l3.922 6.243v3.995c0 .55-.116.955-.271 1.248-.155.22-.35.367-.582.367v.229h2.947v-.229c-.465 0-.853-.698-.853-1.285V7.94l3.72-6.316c.155-.257.461-.815 1.086-.815V.5h-1.474l.009.175zM64 .719c.387 0 .62.259.737.59.077.256.116.587.116.88V7h-7.83V1.86c0-.588.393-1.14.858-1.14L57.876.5H54.93l.005.219c.388 0 .615.259.732.59.116.256.116 1.051.116 1.345v9.621c.004.449-.138.59-.245.694-.164.176-.346.238-.608.282v.249h2.947v-.25c-.465 0-.853-.521-.853-1.109V7.475h7.83v4.335c0 .551-.08.947-.224 1.111a.986.986 0 01-.63.33v.249h2.948v-.25c-.465 0-.853-.986-.853-1.573V1.395c0-.588.388-.676.853-.676V.5H64v.219zM95.692 11.59l-.31-10.208c-.04-.441.348-.62.814-.62V.5h-2.094v.074l-4.614 11.09L83.905.5h-1.358l.944 1.777-.09 9.9c0 .625-.122 1.073-.664 1.073h-.04l.007.25h1.785l-.006-.25c-.504 0-.614-.374-.614-1.109l.021-8.986 4.977 9.978.35.367 4.93-12.03.004-.01c0-.037.3 6.972.3 10.094 0 1.212-.466 1.696-.893 1.696v.25h3.025v-.25h-.038c-.388 0-.815-.484-.853-1.66zm11.997.123c-.696 1.383-2.633 1.375-5.464 1.375h-1.668v-5.75h3.448c1.009 0 1.299.441 1.299.809v.036h.211V6.155h-.211c0 .331-.29.772-1.299.772h-3.448V.912h1.474c2.676 0 4.607-.104 5.27 1.412h.35L107.341.5h-8.879v.328c.466 0 .854.37.854 1.361v9.621c0 1.03-.388 1.44-.854 1.44v.25h9.267l.271-1.787h-.311zm-32.946 1.375c-3.064 0-5.271-2.636-5.271-6.088S71.678.912 74.743.912 80.015 3.548 80.015 7s-2.208 6.088-5.272 6.088zm0-12.588c-3.8 0-6.551 2.901-6.551 6.5s2.75 6.5 6.551 6.5 6.552-2.901 6.552-6.5S78.543.5 74.743.5z" fill="#785A54"/></svg>