<svg width="84" height="24" viewBox="0 0 84 24" fill="none" xmlns="http://www.w3.org/2000/svg"><path d="M7.018 6.592h2.557v8.776h5.542v2.04H7.018V6.592zm18.092 8.807v2.008h-8.557V6.592h8.35v2.009h-5.809v2.348h5.131v1.947h-5.13v2.503h6.014zm3.937 1.467a5.452 5.452 0 01-2.163-2c-.522-.85-.782-1.805-.782-2.866 0-1.061.26-2.017.782-2.866a5.456 5.456 0 012.163-2.001c.92-.484 1.954-.726 3.101-.726 1.148 0 2.179.242 3.094.726a5.533 5.533 0 012.162 2c.526.85.789 1.806.79 2.867 0 1.06-.264 2.016-.79 2.866a5.529 5.529 0 01-2.163 2c-.915.485-1.947.727-3.094.727-1.147 0-2.181-.242-3.102-.727m4.87-1.846a3.192 3.192 0 001.24-1.228c.3-.525.45-1.123.45-1.792 0-.67-.15-1.267-.45-1.792a3.195 3.195 0 00-1.24-1.229 3.763 3.763 0 00-3.536 0 3.2 3.2 0 00-1.238 1.229c-.3.525-.45 1.122-.45 1.792 0 .67.15 1.267.45 1.792.288.514.717.94 1.239 1.228a3.764 3.764 0 003.535 0zm16.029 2.387l-.016-6.489-3.252 5.346h-1.152l-3.236-5.207v6.35h-2.4V6.592h2.115l4.136 6.721 4.073-6.72h2.1l.032 10.814h-2.4zm12.529-2.317h-5.13l-.978 2.317h-2.62L58.67 6.592h2.526l4.94 10.815h-2.683l-.98-2.317zm-.805-1.9l-1.752-4.141-1.752 4.14h3.504zm13.389 4.217l-2.668-3.754-2.62 3.754h-2.937l4.088-5.5-3.883-5.315h2.905l2.542 3.508 2.494-3.508h2.762l-3.851 5.222 4.12 5.593h-2.952z" fill="#1D1D1B"/><path d="M84 0H0v24h84m-2.631-2.575H2.631V2.575h78.738v18.85z" fill="#85BE4C"/></svg>