<svg width="109" height="20" viewBox="0 0 109 20" fill="none" xmlns="http://www.w3.org/2000/svg"><path d="M51.903 0c2.683 0 4.648 1.81 4.648 4.621 0 2.812-1.965 4.621-4.648 4.621-2.684 0-4.648-1.81-4.648-4.621C47.255 1.809 49.218 0 51.903 0zm0 7.457c1.63 0 2.683-1.198 2.683-2.836s-1.054-2.836-2.683-2.836c-1.63 0-2.684 1.198-2.684 2.836.024 1.663 1.078 2.836 2.684 2.836zM58.156.244h3.33c1.774 0 3.26.612 3.26 2.666 0 1.222-.647 2.176-1.87 2.42l2.18 3.716h-2.275l-1.797-3.52h-.935v3.52h-1.893V.244zm1.893 3.644h1.126c.695 0 1.606-.025 1.606-.978 0-.88-.791-1.027-1.462-1.027h-1.246v2.005h-.024zM66.327.244h1.893v8.802h-1.893V.244zm11.74 8.166c-1.126.588-2.348.857-3.618.857-2.683 0-4.648-1.81-4.648-4.622 0-2.811 1.965-4.62 4.648-4.62 1.366 0 2.564.317 3.427 1.124l-1.342 1.492c-.503-.538-1.126-.832-2.085-.832-1.629 0-2.683 1.198-2.683 2.836 0 1.639 1.054 2.837 2.683 2.837a3.71 3.71 0 001.797-.44V5.623H74.69V3.84h3.378v4.57zM80.008.244h1.893v8.802h-1.893V.244zm3.93 0h2.587l3.666 6.113h.024V.244h1.893v8.802h-2.492l-3.762-6.259h-.023v6.26h-1.893V.243zm13.082 0h1.58l3.762 8.802h-2.132l-.743-1.858h-3.355l-.718 1.858H93.33L97.02.244zm.719 2.543l-1.055 2.739h2.109l-1.054-2.739zm5.846-2.543h1.893v7.018H109v1.784h-5.415V.244zM47.782 11.002h2.875l1.989 5.746h.023l1.99-5.746h2.85v8.802h-1.868v-6.748h-.024l-2.277 6.748h-1.437l-2.18-6.748h-.025v6.748h-1.892v-8.802h-.024zm15.31 0h1.582l3.761 8.802h-2.132l-.743-1.858h-3.354l-.72 1.858h-2.084l3.69-8.802zm.743 2.568l-1.054 2.738h2.108l-1.054-2.738zm6.421-2.568h3.33c1.774 0 3.26.612 3.26 2.665 0 1.223-.648 2.177-1.87 2.421l2.18 3.716h-2.275l-1.797-3.52h-.935v3.52h-1.893v-8.802zm1.893 3.643h1.126c.695 0 1.606-.024 1.606-.977 0-.88-.791-1.027-1.462-1.027h-1.246v2.005h-.024zm6.949-3.643h1.892v8.802h-1.892v-8.802zm4.6 0h2.588l3.666 6.113h.024v-6.113h1.892v8.802h-2.491l-3.762-6.259h-.024v6.26h-1.893v-8.803zm16.82 0v1.785h-3.953v1.638h3.737v1.785h-3.737v1.785h4.169v1.785h-6.086v-8.778h5.87zm6.996 2.152c-.311-.391-.91-.587-1.365-.587-.527 0-1.27.245-1.27.905 0 1.614 3.977.562 3.977 3.643 0 1.956-1.557 2.885-3.33 2.885-1.102 0-2.085-.342-2.899-1.1l1.341-1.516a2.124 2.124 0 001.654.831c.623 0 1.317-.293 1.317-.929 0-1.614-4.049-.733-4.049-3.667 0-1.883 1.605-2.861 3.283-2.861.982 0 1.917.269 2.635.929l-1.294 1.467z" fill="#004E8E"/><path d="M16.427.292h21.195v1.95H16.427V.292zM0 17.77h37.622v1.951H0v-1.95zm0-4.363h37.622v1.95H0v-1.95zm16.427-4.363h21.195v1.95H16.427v-1.95zm0-4.364h21.195v1.95H16.427V4.68z" fill="#F2392F"/><path d="M6.845 11.238c.651 0 1.18-.546 1.18-1.22 0-.672-.529-1.218-1.18-1.218-.652 0-1.18.546-1.18 1.219s.528 1.219 1.18 1.219zm0-4.364c.651 0 1.18-.546 1.18-1.219s-.529-1.219-1.18-1.219c-.652 0-1.18.546-1.18 1.22 0 .672.528 1.218 1.18 1.218zm0-4.388c.651 0 1.18-.546 1.18-1.219S7.496.048 6.845.048c-.652 0-1.18.546-1.18 1.22 0 .672.528 1.218 1.18 1.218zM1.18 11.238c.652 0 1.18-.546 1.18-1.22 0-.672-.528-1.218-1.18-1.218C.528 8.8 0 9.346 0 10.019s.528 1.219 1.18 1.219zm0-4.364c.652 0 1.18-.546 1.18-1.219s-.528-1.219-1.18-1.219c-.652 0-1.18.546-1.18 1.22 0 .672.528 1.218 1.18 1.218zm0-4.388c.652 0 1.18-.546 1.18-1.219S1.832.048 1.18.048C.528.048 0 .594 0 1.268c0 .672.528 1.218 1.18 1.218zm11.258 8.752c.652 0 1.18-.546 1.18-1.22 0-.672-.528-1.218-1.18-1.218-.651 0-1.18.546-1.18 1.219s.529 1.219 1.18 1.219zm0-4.364c.652 0 1.18-.546 1.18-1.219s-.528-1.219-1.18-1.219c-.651 0-1.18.546-1.18 1.22 0 .672.529 1.218 1.18 1.218zm0-4.388c.652 0 1.18-.546 1.18-1.219S13.09.048 12.438.048c-.651 0-1.18.546-1.18 1.22 0 .672.529 1.218 1.18 1.218z" fill="#004E8E"/></svg>