<svg width="106" height="20" viewBox="0 0 106 20" fill="none" xmlns="http://www.w3.org/2000/svg"><path d="M40.664 10.04c0 1.9-.742 3.2-2.549 3.2-1.706 0-2.388-1-2.388-2.56V4.9h-2.168v5.76c0 2.66 1.164 4.54 4.175 4.54 1.224 0 2.207-.46 2.93-1.3v1h2.168v-10h-2.168v5.14zM52.146 8.9h-4.617v-4H45.36v10.019h2.169v-3.98h4.616v3.98h2.168V4.899h-2.168v4zm11.417-4h-6.744v10.019h2.188v-7.92h4.556V4.9zm1.65 5.719c0 1.82-.623 2.5-1.847 2.28v2.02c2.57.24 4.014-1.02 4.014-4.2V7h3.352v7.94h2.188V4.9h-7.707v5.72zM79.94 4.643c-3.01 0-5.319 2.3-5.319 5.3s2.409 5.3 5.42 5.3c1.886 0 3.512-.9 4.475-2.3l-1.826-1.14a3.098 3.098 0 01-2.65 1.44c-1.485 0-2.87-.96-3.11-2.42h8.27c.04-.3.08-.6.08-.9 0-.3-.02-.6-.08-.9-.402-2.52-2.55-4.38-5.26-4.38zm-2.99 4.4c.24-1.46 1.505-2.42 2.99-2.42 1.485 0 2.75.96 2.99 2.42h-5.98zm24.268 4.218c-1.787 0-3.232-1.42-3.232-3.32s1.445-3.32 3.232-3.32c1.144 0 2.087.58 2.649 1.44l1.827-1.14c-.964-1.38-2.59-2.3-4.476-2.3-3.011 0-5.44 2.3-5.44 5.3s2.429 5.3 5.44 5.3c1.886 0 3.512-.9 4.476-2.3l-1.827-1.14a3.027 3.027 0 01-2.649 1.48zm-9.774-3.402c1.846-1.14 3.271-3.24 4.195-4.96H93.33c-.863 1.58-2.428 3.54-4.255 4.3V4.9H86.91v10.02h2.167v-4.28c1.847.76 3.553 2.72 4.416 4.3H95.8c-.963-1.78-2.428-3.96-4.355-5.08z" fill="#322F55"/><path d="M28.782 1.54l-1.044 2.82A22.302 22.302 0 0020.031 3c-2.71 0-5.319.48-7.707 1.36L11.28 1.54A25.4 25.4 0 0120.03 0c3.072 0 6.022.54 8.752 1.54zM20.03 6c-2.348 0-4.596.42-6.684 1.18L14.391 10a16.477 16.477 0 015.64-1c1.987 0 3.874.36 5.64 1l1.044-2.82A19.488 19.488 0 0020.03 6zm0 6a13.117 13.117 0 00-4.616.82l1.043 2.82c1.104-.4 2.308-.62 3.573-.62 1.264 0 2.449.22 3.573.62l1.043-2.82A13.58 13.58 0 0020.03 12zM8.75 20c3.07 0 6.021-.54 8.75-1.54l-1.043-2.82A22.385 22.385 0 018.751 17c-2.71 0-5.319-.48-7.707-1.36L0 18.46A25.313 25.313 0 008.751 20zm0-6c2.348 0 4.596-.42 6.684-1.18L14.39 10a16.49 16.49 0 01-5.64 1c-1.987 0-3.874-.36-5.64-1l-1.044 2.82A19.486 19.486 0 008.751 14zm0-6a13.12 13.12 0 004.616-.82l-1.043-2.82c-1.104.4-2.309.62-3.573.62-1.218 0-2.427-.209-3.573-.62L4.135 7.18C5.58 7.7 7.125 8 8.75 8z" fill="url(#paint0_linear_7705_48045)"/><defs><linearGradient id="paint0_linear_7705_48045" x1="14.388" y1="0" x2="14.388" y2="20" gradientUnits="userSpaceOnUse"><stop offset=".15" stop-color="#F76D63"/><stop offset=".5" stop-color="#C769C5"/><stop offset=".85" stop-color="#8D70FF"/></linearGradient></defs></svg>