<svg width="102" height="12" viewBox="0 0 102 12" fill="none" xmlns="http://www.w3.org/2000/svg"><path d="M6.121 8.673c.118-.604-.208-1.071-.976-1.403l-1.311-.545C1.994 5.897 1.119 4.77 1.21 3.343a2.97 2.97 0 01.672-1.74c.41-.512.978-.91 1.704-1.194A6.259 6.259 0 015.96.001c1.152.021 2.077.358 2.776 1.01.704.651 1.05 1.525 1.04 2.62h-2.72c.016-.448-.08-.806-.288-1.074-.202-.272-.538-.414-1.008-.424a2.117 2.117 0 00-1.216.32c-.352.225-.56.527-.623.906-.102.534.293.972 1.183 1.314.896.342 1.547.636 1.952.882C8.332 6.319 8.93 7.35 8.85 8.649a3.171 3.171 0 01-.648 1.771c-.39.508-.93.9-1.624 1.178-.688.278-1.46.412-2.32.401a5.6 5.6 0 01-1.751-.296c-.539-.187-1-.46-1.384-.818C.343 10.164-.03 9.215.002 8.04l2.744.008c-.032.598.082 1.052.344 1.362.26.305.7.457 1.32.457.458 0 .84-.104 1.143-.312.31-.214.499-.508.568-.882zm13.087 3.158h-2.72l.84-4.873h-3.991l-.848 4.873H9.753L11.769.16h2.743l-.808 4.633h4l.8-4.633h2.728l-2.024 11.67zm4.712 0h-2.736L23.208.16h2.727L23.92 11.83zm11.406 0H32.68l-2.784-7.366-1.28 7.366H25.88L27.895.16h2.672l2.776 7.366L34.614.16h2.736l-2.024 11.67zm40.709-1.218a1.27 1.27 0 01.415-1.01 1.462 1.462 0 011.032-.401c.395 0 .73.123 1.008.369.277.24.422.555.432.945.011.401-.125.738-.408 1.01a1.456 1.456 0 01-1.04.401c-.405 0-.744-.123-1.015-.369a1.267 1.267 0 01-.424-.945zM85.6 7.71h-1.52l-.72 4.12h-2.735L82.642.16l4.111.008c1.318 0 2.33.31 3.04.93.715.614 1.035 1.456.96 2.524-.059.845-.301 1.545-.728 2.1-.427.55-1.024.986-1.792 1.307l1.568 4.665v.136h-2.92l-1.28-4.12zm-1.15-2.17l1.6.016c.438 0 .816-.107 1.136-.32a1.76 1.76 0 00.696-.874A2.08 2.08 0 0088 3.279c-.106-.593-.485-.906-1.136-.938l-1.855-.008-.56 3.206zM102 .161l-1.296 7.614c-.187 1.32-.73 2.36-1.632 3.118-.896.759-2.026 1.127-3.392 1.106-.847-.016-1.583-.198-2.208-.545a3.262 3.262 0 01-1.383-1.483c-.293-.64-.392-1.37-.296-2.188L93.089.161h2.751l-1.288 7.63a3.694 3.694 0 00-.015.762c.026.395.149.702.367.921.224.22.54.337.944.353 1.174.037 1.88-.644 2.12-2.044L99.264.161H102z" fill="#000" fill-opacity=".87"/><path d="M43.526 8.673c.117-.604-.208-1.071-.976-1.403l-1.312-.545c-1.84-.828-2.715-1.955-2.624-3.382a2.97 2.97 0 01.672-1.74c.41-.512.979-.91 1.704-1.194a6.259 6.259 0 012.376-.408c1.151.021 2.077.358 2.775 1.01.704.651 1.05 1.525 1.04 2.62h-2.72c.017-.448-.08-.806-.288-1.074-.202-.272-.538-.414-1.007-.424a2.117 2.117 0 00-1.216.32c-.352.225-.56.527-.624.906-.102.534.293.972 1.184 1.314.896.342 1.546.636 1.952.882 1.274.764 1.871 1.795 1.791 3.094a3.172 3.172 0 01-.648 1.771c-.389.508-.93.9-1.623 1.178-.688.278-1.462.412-2.32.401a5.601 5.601 0 01-1.752-.296c-.539-.187-1-.46-1.384-.818-.779-.721-1.152-1.67-1.12-2.845l2.744.008c-.032.598.083 1.052.344 1.362.261.305.701.457 1.32.457.458 0 .84-.104 1.144-.312a1.33 1.33 0 00.568-.882zm10.47.978h-3.72l-1.031 2.18h-3.016L52.397.16h2.575l2.152 11.67h-2.848l-.28-2.18zm-2.695-2.172h2.416l-.512-4.024L51.3 7.48zm9.879 2.188h4.744l-.377 2.164h-7.479L60.084.16h2.744L61.18 9.667zm13.47-2.781h-4.28l-.487 2.78h5.063l-.376 2.165h-7.798L68.787.16h7.815l-.376 2.172h-5.07l-.433 2.46h4.288l-.36 2.093z" fill="#F44336"/></svg>