<svg width="71" height="26" viewBox="0 0 71 26" fill="none" xmlns="http://www.w3.org/2000/svg"><path d="M56.28 19.019c5.114-2.676 6.338-6.056 4.767-7.006-2.318-1.288-8.7 1.016-7.964 7.344-.316.187-.95.529-.95.529l.416 1.275s.894-.53 1.124-.689c.75.601 1.138.931 2.29.961 2.464.056 4.58-2.662 4.58-2.662l-.618-.961c.014-.008-2.695 2.584-3.646 1.209zm.678-3.88c.733-1.287 1.916-2.29 2.506-1.89.59.401-.59 2.435-3.342 4.605-.114-.194.101-1.415.836-2.715zM9.96 21.425a1.942 1.942 0 01-1.34-.558c-1.224-1.275-.072-5.584.172-6.514a.134.134 0 00-.129-.172.15.15 0 00-.129.072c-.52 1.045-3.327 7.172-5.805 7.172h-.145c-2.405-.23-2.087-3.523-1.34-5.527H5.12c-.316.859-.417 1.401-.417 1.69.014.2.187.314.345.23.402-.216 1.065-1.075 1.641-2.062 1.037-1.818 2.391-4.538 4.72-11.423h4.24c-1.253 3.836-2.277 7.301-2.83 11.265a.229.229 0 00.122.24.234.234 0 00.268-.04c1.209-1.131 5.64-10.636 5.904-11.465h4.264s-4.192 11.523-3.845 13.455a.34.34 0 00.26.304.346.346 0 00.372-.146c.246-.3.592-.745.836-1.017l.604.6c-1.208 1.488-3.182 4.165-5.14 3.85a1.647 1.647 0 01-.826-.442c-2.044-1.76.806-7.657 1.312-9.047.114-.3.215-.586.288-.758a.14.14 0 00-.131-.187.149.149 0 00-.13.072c-.1.215-.36.773-.46.96-1.257 2.59-4.166 9.448-6.557 9.448zM50.001 7.282a4.631 4.631 0 00-3.098 1.115l.03 1.131s1.354-1.36 2.766-.773c.92.373 1.611 1.446 1.094 3.321-.029.115-.087.33-.115.445-.403-.859-1.902-1.518-3.99.056-1.527 1.145-1.916 2.362-2.216 3.351-.433 1.445-.403 3.003-.072 3.936a2.76 2.76 0 001.599 1.601c3.456 1.304 6.18-4.003 7.013-7.829.532-2.418.935-6.284-3.011-6.354zm-1.86 11.623c-.388.258-1.05.372-1.151-.817-.13-1.703 1.124-3.707 1.498-4.18.649-.787 1.527-.829 1.513.4-.014 1.434-.894 3.966-1.86 4.597zM37.715 6.293c-2.044-.7-9.265 1.576-11.652 9.519-.288.086-1.684.43-1.684.43l-.604 1.632 2.137-.659s-.232 4.08 3.37 4.204c2.838-.102 4.32-4.252 3.414-7.072-.173.086-2.45 1.173-2.45 1.173s.476 2.764-.531 3.403a.344.344 0 01-.492-.1c-.288-.4-.475-1.46-.157-2.863 5.199-2.69 8.756-7.407 8.974-9.046a.55.55 0 00-.325-.62zm-6.467 7.029c-.539.415-1.112.784-1.712 1.103 0 0 .271-.63.475-.99.56-.928 3.239-4.521 5.487-5.18a.11.11 0 01.141.07.107.107 0 01.002.058c0 .789-2.85 3.78-4.393 4.939zm10.717 5.87a.108.108 0 00.157.127c.279-.182.547-.377.806-.586l.288.873c-.173.186-1.557 1.275-2.417 1.675-.935.43-1.785-.142-1.916-.83-.128-.801.274-1.846.274-1.846s-1.482 1.69-2.995 2.504c-.3.188-.642.296-.995.316-1.021-.03-1.34-1-1.222-1.533.128-.629 1.512-4.853 1.683-5.54a.116.116 0 00-.038-.1.119.119 0 00-.105-.027c-.418.114-1.512.828-1.512.828V13.88s3.168-2.148 3.96-2.376c.735-.2 1.37.214 1.182 1.045-.086.572-2.147 5.54-2.147 6.17a.102.102 0 00.035.092.106.106 0 00.096.022c.59-.172 1.67-1.087 2.492-2.39.777-1.218 1.295-2.749 1.943-4.653h2.752c-.002.014-2.091 6.356-2.32 7.401zm28.733-5.956c.059.888-.791 5.569-4.248 7.445-1.023.558-1.714.772-2.334.744-1.469-.044-2.16-1.23-2.319-1.617-1.683-4.152 3.241-8.008 3.241-8.008h2.852s-4.35 3.451-3.744 6.514c.475 1.86 2.216.96 3.183-1.145.187-.416 1.353-3.179.62-3.22-.649-.045-1.513 1.316-1.513 1.316l-.604-.916c.475-.6 1.8-2.176 3.285-2.677.242-.068 1.567-.34 1.581 1.564zM22.89 19.163a1.143 1.143 0 011.05.698 1.124 1.124 0 01-.246 1.233 1.14 1.14 0 01-1.942-.8 1.117 1.117 0 01.7-1.047c.14-.056.288-.085.438-.084z" fill="#E31235"/></svg>