<svg width="62" height="24" viewBox="0 0 62 24" fill="none" xmlns="http://www.w3.org/2000/svg"><path d="M.873 8.802v3.219l8.846-.955V7.582L.873 8.802zm2.823 3.414v11.029h3.238V11.89l-3.238.325zm7.217-4.799v15.828h3.412V6.946l-3.412.471zm4.048-.558v3.64l4.928-.531V6.179l-4.928.68zm0 6.35v3.708l3.235-.173v-3.808l-3.235.274zm0 6.38v3.656h4.928v-3.802l-4.928.146zm17.67-15.173v18.829h4.474V3.799l-4.474.617zm5.309-.733v4.331l6.519-.703V2.784l-6.52.9zm0 7.589v4.411l4.273-.229v-4.542l-4.273.36zm0 7.635v4.338h6.519v-4.53l-6.52.192zM21.192 6v17.246h3.887V5.463l-3.887.536zm4.613 13.27v3.976h5.642V19.1l-5.642.167zm33.269-16.7C57.66 1.26 55.587.72 53.32 1.04v4.804c.918-.05 1.662.285 1.993.958.524 1.062-.016 2.655-1.29 4.13-1.966 2.278-7.195 6.94-7.195 6.94l7.506-.243c4.586-4.398 6.233-7.067 6.528-10.399a5.64 5.64 0 00-1.788-4.66zm2.053 20.674v-5.027l-15.224.45 15.224 4.577zm-15.224-4.577l.002 4.577h15.222l-15.224-4.577zM52.445 1.15c-4.423.925-6.595 4.119-6.344 9.33l4.715-.41c-.214-2.945.703-3.643 1.63-4.027l-.001-4.893z" fill="#141414"/></svg>