<svg width="112" height="32" viewBox="0 0 112 32" fill="none" xmlns="http://www.w3.org/2000/svg"><path d="M18.387 24.17c1.672 1.195 4.2.839 5.23.155-1.328.098-3.684-.363-4.736-1.274.835-.8 2.413-2.367 3.817-1.553 1.375.797 1.711 1.973 4.403.745-.54 2.893-5.297 5.302-7.573 3.983-.62-.359-1.057-1.03-1.141-2.057z" fill="#73BE44"/><path d="M22.432 17.233c1.038-1.14 2.27-1.535 3.471-1.56-1.102.292-1.752.75-2.659 2.707 3.18-.202 5.233-.973 7.795-4.985-.586.096-1.82.772-2.572.541-.681-.126-1.427-.26-2.14-.26-1.689-.003-3.245.652-3.895 3.557z" fill="#F5B314"/><path d="M18.703 12.01c.913-1.382 1.629-2.04 2.683-2.704-.96 1.322-1.343 1.85-1.675 3.268 3.59.52 7.33-5.887 7.137-8.45-1.675 2.28-3.113 1.66-5.27 2.328-1.101.333-2.013.908-2.634 1.612-.959 1.098-1.2 2.57-.24 3.946z" fill="#FF5749"/><path d="M18.173 0c-.813 2.043-2.832 2.252-2.142 5.144 1.245-1.124 1.663-1.635 1.742-2.243.176.97.086 1.751-1.08 2.917 2.754-.688 2.866-2.47 2.367-4.02-.218-.68-.604-1.343-.887-1.798z" fill="#F41B83"/><path d="M11.784 2.255c.979 1.56 2.674 1.424 2.543 3.911-1.196-.736-1.617-1.093-1.775-1.582.003.826.195 1.456 1.331 2.239-2.372-.147-2.734-1.598-2.558-2.951.078-.594.295-1.199.46-1.617z" fill="#F01BF4"/><path d="M5.154 7.093c2.359 1.502 4.601.206 6.038 3.71-2.122-.228-2.933-.443-3.468-1.012.54 1.133 1.214 1.874 3.285 2.205-3.357 1.352-4.797-.404-5.435-2.38-.28-.867-.374-1.84-.42-2.523z" fill="#7B1BF4"/><path d="M0 16.466c1.32 3.326 4.995 5.506 7.64 2.492-.78-.498-2.236-1.09-3.3-1.121.721-.217 1.385-.738 3.305.153-.765-1.104-1.468-1.642-2.17-1.917-1.959-.723-3.712.829-5.475.393z" fill="#1B53F4"/><path d="M11.67 28.734c.194-2.089 1.005-3.823 1.946-5.649-2.79-.913-4.088-4.05-4.997-5.613-.65-1.183-1.557-2.26-2.27-3.732.908 1.31 1.652 1.798 2.465 2.842-.129-.947-.324-2.025-.52-3.134.748 1.732.974 2.939 1.072 4.018 1.037 2.289 2.757 4.314 4.605 4.999 1.558-3.076 3.312-7.552 1.202-10.754-.747-1.137-1.884-2.345-3.732-3.62 1.848.523 3.505 1.567 4.997 3.135.228-3.24-.096-4.938-1.2-6.469.81.59 1.393 1.667 1.685 3.335.358-.884.91-1.503 1.624-1.83-.91.621-1.297 1.6-1.493 2.712.096.914.13 1.926.096 3.135.714 1.242.974 2.613.877 4.019-.26 3.819-3.504 7.51-3.895 10.646.391-.98 1.364-1.991 2.563-3.137 2.758-2.61 4.866-5.453 4.997-9.34.65 3.755-1.557 7.184-4.218 9.7-1.039.982-2.14 2.157-2.758 3.504-.52 1.11-.714 1.797-.195 2.81.876 1.013 2.367 1.274 3.959 1.436H7.708c2.305-.236 3.701-.333 3.961-3.013zm27.474-6.522h-3.377v9.634h-2.083v-9.634h-3.377v-1.738h8.837v1.738zm6.574 1.565v8.07h-1.17c-.253 0-.413-.119-.48-.355l-.132-.644a4.35 4.35 0 01-1.076.818c-.393.204-.855.306-1.387.306a2.86 2.86 0 01-1.154-.22 2.36 2.36 0 01-.836-.637 2.844 2.844 0 01-.52-.967 4.298 4.298 0 01-.17-1.243v-5.128h1.913v5.128c0 .493.111.876.334 1.148.227.268.565.401 1.014.401.33 0 .64-.073.93-.22.289-.152.563-.359.82-.621v-5.836h1.914zm4.408-2.631v2.39h1.4v1.628h-1.4v4.148c0 .307.058.527.175.66.115.134.337.2.665.2.242 0 .456-.018.643-.054v1.683c-.429.133-.87.199-1.324.199-1.533 0-2.314-.786-2.344-2.358v-4.477h-1.196v-1.629s.994-.054 1.291-.417c.586-.712.49-1.973.49-1.973h1.6zm6.239 2.505a4.25 4.25 0 011.604.291c.485.194.898.47 1.239.826.346.357.612.792.798 1.306a5.04 5.04 0 01.279 1.722 5.03 5.03 0 01-.28 1.73 3.688 3.688 0 01-.797 1.314 3.42 3.42 0 01-1.24.834 4.247 4.247 0 01-1.603.29 4.33 4.33 0 01-1.619-.29 3.498 3.498 0 01-1.246-.834 3.84 3.84 0 01-.798-1.314 5.065 5.065 0 01-.279-1.73c0-.634.093-1.209.279-1.722.19-.514.457-.95.798-1.306a3.547 3.547 0 011.246-.826 4.328 4.328 0 011.62-.29zm0 6.82c.661 0 1.15-.226 1.464-.677.32-.451.48-1.112.48-1.982 0-.87-.16-1.534-.48-1.99-.315-.456-.803-.684-1.464-.684-.67 0-1.17.23-1.494.692-.32.456-.48 1.117-.48 1.982s.16 1.526.48 1.982c.325.45.823.676 1.494.676zm7.184-5.294c.248-.482.542-.86.883-1.132a1.85 1.85 0 011.208-.417c.367 0 .661.081.883.244l-.124 1.455a.388.388 0 01-.116.204.305.305 0 01-.194.055 2.24 2.24 0 01-.349-.04 2.555 2.555 0 00-.44-.038 1.43 1.43 0 00-1.015.37 1.904 1.904 0 00-.349.424 4.593 4.593 0 00-.279.574v4.97h-1.913v-8.069h1.123c.196 0 .333.037.41.11.078.069.13.194.155.378l.117.912zm14.957.983c0 .834-.137 1.607-.41 2.32a5.408 5.408 0 01-1.147 1.84 5.277 5.277 0 01-1.789 1.22c-.697.288-1.472.432-2.324.432-.847 0-1.618-.144-2.316-.432a5.355 5.355 0 01-1.797-1.22 5.509 5.509 0 01-1.154-1.84 6.421 6.421 0 01-.41-2.32c0-.833.137-1.604.41-2.312A5.493 5.493 0 0168.723 22c.501-.52 1.1-.923 1.797-1.212.698-.293 1.47-.44 2.316-.44.568 0 1.103.068 1.603.205.501.13.961.32 1.38.566a4.87 4.87 0 011.122.889c.336.346.62.734.852 1.164.233.43.408.896.527 1.4a6.63 6.63 0 01.186 1.588zm-2.13 0c0-.624-.083-1.182-.248-1.675a3.6 3.6 0 00-.705-1.266 3.01 3.01 0 00-1.115-.795 3.745 3.745 0 00-1.472-.275 3.8 3.8 0 00-1.479.275 3.095 3.095 0 00-1.115.795 3.6 3.6 0 00-.705 1.266 5.264 5.264 0 00-.248 1.675c0 .624.083 1.185.248 1.683.165.493.4.913.705 1.259.31.34.681.603 1.115.786a3.8 3.8 0 001.48.275c.547 0 1.037-.091 1.471-.275.439-.183.81-.446 1.115-.786.305-.346.54-.766.705-1.259a5.336 5.336 0 00.248-1.683zm5.31-1.392c.16-.162.328-.312.504-.448a3.088 3.088 0 011.208-.582 3.02 3.02 0 01.744-.087c.434 0 .818.076 1.154.228a2.2 2.2 0 01.837.63c.227.267.397.59.51.967.12.372.179.784.179 1.235v5.136h-1.913V26.71c0-.493-.112-.873-.333-1.14-.223-.273-.56-.41-1.015-.41-.33 0-.64.076-.93.229a3.327 3.327 0 00-.82.62v5.836h-1.914v-8.069h1.17c.248 0 .41.118.488.354l.131.637zm8.892-4.608v11.686h-1.913V20.16h1.912zm3.889 3.617v8.07h-1.921v-8.07h1.92zm3.739.991c.16-.162.328-.312.504-.448a3.08 3.08 0 011.208-.582c.227-.058.475-.087.743-.087.434 0 .819.076 1.154.228.336.147.615.357.837.63.227.267.398.59.511.967.119.372.178.784.178 1.235v5.136h-1.913V26.71c0-.493-.111-.873-.333-1.14-.222-.273-.56-.41-1.014-.41-.331 0-.64.076-.93.229a3.29 3.29 0 00-.82.62v5.836h-1.914v-8.069h1.17c.247 0 .41.118.487.354l.132.637zm12.074 2.116c0-.252-.036-.488-.108-.708a1.635 1.635 0 00-.31-.59 1.41 1.41 0 00-.534-.393c-.212-.1-.46-.15-.744-.15-.552 0-.989.16-1.309.48-.315.32-.516.774-.604 1.36h3.609zm-3.648 1.172c.031.414.104.773.217 1.077.114.299.264.548.45.747.186.194.405.341.658.44.258.095.542.142.852.142.31 0 .575-.036.798-.11.227-.073.423-.154.588-.244.171-.089.318-.17.442-.243a.753.753 0 01.372-.11c.16 0 .279.06.356.18l.55.708c-.212.252-.45.464-.713.637a4.18 4.18 0 01-.829.41c-.284.099-.575.17-.875.212a6.08 6.08 0 01-.859.063 4.243 4.243 0 01-1.542-.276 3.518 3.518 0 01-1.239-.826 3.93 3.93 0 01-.829-1.352c-.201-.54-.302-1.164-.302-1.872 0-.55.088-1.067.263-1.55.176-.487.426-.91.752-1.266.33-.362.73-.647 1.2-.857a3.931 3.931 0 011.604-.315c.501 0 .963.082 1.386.244a2.99 2.99 0 011.092.716c.305.31.542.692.713 1.148.175.451.263.968.263 1.55 0 .293-.031.492-.093.597-.062.1-.181.15-.356.15h-4.919z" fill="#666"/><path d="M92.104 22.896c1.763-.46 3.339-2.27 3.464-3.364-.691.962-2.347 2.307-3.563 2.505-.066-1.026-.228-2.996 1.124-3.49 1.323-.484 2.312-.042 3.015-2.579 1.652 2.018.911 5.455-1.014 6.744-.642.276-2.2.46-3.026.184z" fill="#7B1BF4"/></svg>