<svg width="74" height="21" viewBox="0 0 74 21" fill="none" xmlns="http://www.w3.org/2000/svg"><path d="M10.35 13.433a1.43 1.43 0 001.429-1.429v-1.198a.26.26 0 01.26-.261h6.146a.26.26 0 01.261.26v1.201a8.094 8.094 0 01-16.187 0V9.065a.26.26 0 00-.261-.261H.261A.26.26 0 010 8.544v-4.71a.26.26 0 01.26-.262h1.736a.26.26 0 00.261-.26V.332a.26.26 0 01.26-.26h6.145a.26.26 0 01.26.26V3.31a.26.26 0 00.261.261h7.478a.26.26 0 01.26.261V8.54a.261.261 0 01-.26.261H9.183a.26.26 0 00-.26.26v2.942c0 .789.64 1.429 1.428 1.429zm17.264 0a1.43 1.43 0 001.428-1.429v-8.17a.26.26 0 01.261-.262h6.272a.26.26 0 01.259.274l-.126 8.158a8.094 8.094 0 01-16.187 0v-8.17a.26.26 0 01.26-.262h6.144a.26.26 0 01.261.261v8.171c0 .789.64 1.429 1.428 1.429z" fill="#25006B"/><path d="M45.709 8.93l-.783 3.174c-.175.646.289 1.308.959 1.327a1.941 1.941 0 001.927-1.432l.344-1.266a.26.26 0 01.252-.192h6.125a.262.262 0 01.252.33l-.751 2.756a8.78 8.78 0 01-8.47 6.47c-4.774 0-8.243-4.54-6.987-9.149l.431-1.881a.262.262 0 00-.251-.33h-1.673a.26.26 0 01-.251-.329l1.284-4.71a.261.261 0 01.251-.192h1.956a.261.261 0 00.251-.193l.944-3.12A.262.262 0 0141.77 0h6.125a.26.26 0 01.252.33l-.87 2.846a.262.262 0 00.252.33h7.452a.26.26 0 01.252.329l-1.284 4.71a.262.262 0 01-.252.192h-7.735a.264.264 0 00-.253.193zM67.36 3.728l-2.28 8.367a1.813 1.813 0 01-1.75 1.338c-.74 0-1.278-.705-1.084-1.42l2.222-8.149a.262.262 0 00-.251-.329h-6.126a.26.26 0 00-.251.193l-2.053 7.536c-1.212 4.448 2.136 8.832 6.746 8.832a9.205 9.205 0 008.882-6.786l2.575-9.447a.262.262 0 00-.251-.33h-6.126a.27.27 0 00-.253.195z" fill="#7D71FF"/></svg>