<svg width="64" height="20" viewBox="0 0 64 20" fill="none" xmlns="http://www.w3.org/2000/svg"><path d="M29.892 5.892c0 1.5-1.201 2.361-3.244 2.361-.63 0-1.92-.043-2.798-.11V.085h5.21v1.39h-3.392v1.844c.326-.01.653-.023.976-.023 2.047 0 3.248.952 3.248 2.596zm-1.888-.124c0-.681-.495-1.087-1.346-1.087-.327 0-.664.01-.99.023v2.137c.37.01.717.024.99.024.851 0 1.346-.413 1.346-1.097zm13.151.986V2.366h-4.14c.027.463.007.926-.04 1.339-.129 1.066-.425 2.153-1.061 3.042-.347 0-.64.014-.64.014v2.61s.903.06 1.572.083l.085-1.426h3.39l.083 1.426c.67-.023 1.572-.084 1.572-.084V6.754h-.821zm-1.744 0H37.55a9.12 9.12 0 00.397-.842 7.49 7.49 0 00.377-1.19c.07-.356.114-.715.145-1.064h.942v3.096zm5.639-2.539c-.169 0-.337 0-.505.01V2.366c-.657 0-1.74.084-1.74.084v5.69c.649.066 1.504.11 2.278.11 1.673 0 2.663-.751 2.663-2.013 0-1.26-.99-2.022-2.697-2.022zm.033 2.85h-.538V5.423c.168-.01.336-.01.504-.01.606 0 .966.312.966.829 0 .513-.35.825-.932.825zM33.989 2.35l-.754 2.653-.552 1.764s-.367-1.496-.586-2.284c-.182-.654-.37-1.442-.579-2.083-.508-.097-1.104-.047-1.767.148l1.71 5.437.633.094c-.064.231-.179.597-.32.815a2.267 2.267 0 01-.559.573 1.355 1.355 0 01-.535.229l.707 1.107c.808-.111 1.629-.92 2.043-2.08l2.201-6.118-1.642-.255zm-8.244 9.338c1.27 0 2.02.547 2.02 1.523 0 .58-.394 1.05-1.067 1.231.889.134 1.404.66 1.404 1.422 0 1.074-.943 1.71-2.538 1.71a3.44 3.44 0 01-2.27-.828l.607-.996c.448.393 1.01.527 1.494.527.596 0 .943-.225.943-.594 0-.379-.303-.594-.808-.594h-.788v-1.087h.583c.414 0 .673-.177.673-.503 0-.325-.26-.513-.717-.513-.313 0-.818.077-1.225.336l-.448-1.064c.7-.402 1.474-.57 2.137-.57zm10.031 2.942c0-1.845 1.11-2.942 3.02-2.942 1.908 0 3.032 1.097 3.032 2.942 0 1.845-1.124 2.941-3.033 2.941-1.908 0-3.019-1.093-3.019-2.941zm4.288 0c0-.986-.47-1.577-1.259-1.577-.787 0-1.258.594-1.258 1.577 0 .986.47 1.566 1.258 1.566s1.26-.58 1.26-1.566zm8.893 0c0-1.845 1.111-2.942 3.02-2.942 1.908 0 3.032 1.097 3.032 2.942 0 1.845-1.124 2.941-3.032 2.941-1.909 0-3.02-1.093-3.02-2.941zm4.289 0c0-.986-.472-1.577-1.26-1.577-.787 0-1.258.594-1.258 1.577 0 .986.471 1.566 1.259 1.566.787 0 1.259-.58 1.259-1.566zm7.634 1.174c0 1.107-.943 1.768-2.548 1.768-1.091 0-1.919-.044-2.538-.111v-5.662c.582-.067 1.38-.11 2.39-.11 1.571 0 2.48.626 2.48 1.7 0 .513-.28.905-.808 1.164.663.234 1.024.67 1.024 1.25zm-3.356-2.861v1.22h.683c.481 0 .764-.244.764-.613 0-.36-.28-.604-.764-.604h-.683v-.003zm1.639 2.707c0-.403-.313-.651-.808-.651h-.831v1.308c.259.01.528.01.831.01.492.003.808-.255.808-.668zm-23.771.422h-.818v-4.384h-4.14a7.92 7.92 0 01-.04 1.338c-.128 1.067-.424 2.154-1.06 3.043-.347 0-.623.007-.64.013v2.61s.902.06 1.572.084l.084-1.426h3.39l.084 1.426c.67-.024 1.572-.084 1.572-.084l-.004-2.62zm-2.561 0h-1.862c.148-.275.28-.557.398-.842.148-.362.282-.768.377-1.19.07-.356.114-.715.144-1.064h.943v3.096zm13.329-4.361c-.66 0-1.316.208-1.797.822v-.704c-.657 0-1.74.084-1.74.084v8s1.02.064 1.74.087v-2.425c.326.01.63.023.841.023 1.966 0 3.134-1.153 3.134-3.122 0-1.735-.862-2.765-2.178-2.765zm-1.12 4.6c-.193 0-.415 0-.674-.01v-2.496s.07-.101.209-.222c.245-.211.595-.325.834-.362a.992.992 0 011.057.53c.075.201.111.443.111.721 0 1.168-.585 1.838-1.538 1.838zm17.943 1.455c.562 0 1.017-.453 1.017-1.013 0-.56-.455-1.013-1.017-1.013a1.014 1.014 0 100 2.026zm-.797-2.797h1.619l.053-5.079a24.499 24.499 0 00-1.52-.06 1.96 1.96 0 00-.206.01l.054 5.129z" fill="#7AA52A"/><path d="M10.447 4.513C8.821 1.021 5.351-.814 2.695.414.04 1.642-.795 5.47.83 8.961c2.4 5.155 8.685 9.187 9.87 8.64 1.18-.546 2.147-7.929-.253-13.088z" fill="#C22821"/><path d="M20 8.904c1.605-3.502.747-7.323-1.916-8.534-2.662-1.21-6.126.645-7.731 4.143-2.37 5.17-1.357 12.549-.172 13.089 1.188.543 7.45-3.53 9.819-8.698z" fill="#7AA52A"/></svg>