<svg width="105" height="14" viewBox="0 0 105 14" fill="none" xmlns="http://www.w3.org/2000/svg"><path d="M104.65 10.984l-3.093-8.106c-.143-.408-.263-.73-.355-.976a3.755 3.755 0 00-.349-.678 1.682 1.682 0 00-.538-.523 1.806 1.806 0 00-1.655 0 1.635 1.635 0 00-.538.529c-.16.259-.29.534-.39.821-.114.327-.223.609-.31.839l-3.011 8.163a11.33 11.33 0 00-.27.764 1.98 1.98 0 00-.08.534 1.214 1.214 0 001.146 1.149.868.868 0 00.761-.333c.245-.397.437-.824.573-1.27l.573-1.614h4.793l.572 1.58.27.672c.073.203.171.396.292.574a.965.965 0 00.819.402 1.084 1.084 0 00.79-.373c.214-.21.338-.497.343-.798a4.331 4.331 0 00-.36-1.35l.017-.006zm-6.93-2.602l1.719-5.17 1.775 5.198-3.493-.028zm-5.726 2.372L88.678 5.67l2.904-2.935a1.61 1.61 0 00.538-1.103 1.071 1.071 0 00-.315-.787 1.145 1.145 0 00-.83-.345 1.057 1.057 0 00-.642.178 4.589 4.589 0 00-.572.574L85.07 6.47V2.045c.03-.41-.088-.818-.332-1.149A1.1 1.1 0 0083.874.5a1.08 1.08 0 00-.87.385c-.23.337-.342.741-.316 1.149v10.294c.01.198.057.393.138.575.098.193.25.354.435.465a1.142 1.142 0 001.455-.213c.246-.33.366-.737.338-1.149V9.352l1.952-1.993 2.823 4.596.384.683c.134.236.316.442.533.604.24.16.525.24.813.23a1.141 1.141 0 00.842-.311 1.016 1.016 0 00.309-.73 1.953 1.953 0 00-.178-.775 7.086 7.086 0 00-.532-.93l-.006.028zM80.077.529h-7.599a1.274 1.274 0 00-.899.287 1.028 1.028 0 00-.303.781 1.021 1.021 0 00.297.77 1.236 1.236 0 00.905.293h2.606v9.26a1.78 1.78 0 00.337 1.184 1.147 1.147 0 001.33.287c.149-.067.281-.165.388-.287.249-.344.367-.766.333-1.19V2.66h2.605c.332.026.66-.08.916-.293a1.005 1.005 0 00.31-.77 1.049 1.049 0 00-.304-.775 1.28 1.28 0 00-.922-.293zM69.323.747A1.143 1.143 0 0068.607.5a1.102 1.102 0 00-.516.115 1.26 1.26 0 00-.377.299 3.109 3.109 0 00-.333.488c-.114.195-.229.408-.349.626l-4.295 7.399V1.959a1.791 1.791 0 00-.269-1.091.871.871 0 00-.739-.368.885.885 0 00-.756.368 1.727 1.727 0 00-.28 1.091v9.886c0 1.103.4 1.655 1.202 1.655a1.285 1.285 0 00.991-.414c.146-.153.276-.32.39-.5l.36-.574 4.186-7.324v7.353c-.029.388.074.775.292 1.097a.93.93 0 00.756.373.915.915 0 00.762-.373c.214-.32.314-.702.286-1.086V2.344a3.114 3.114 0 00-.12-.97 1.315 1.315 0 00-.475-.627zm-9.861 10.777a19.5 19.5 0 00-.144-.437l-2.863-8.209c-.097-.316-.2-.614-.303-.896a3.618 3.618 0 00-.355-.747 1.566 1.566 0 00-.533-.528A1.537 1.537 0 0054.451.5a1.565 1.565 0 00-.813.201c-.221.13-.406.314-.539.534a4.11 4.11 0 00-.36.747c-.103.282-.207.575-.304.896l-2.812 8.14a7.79 7.79 0 01-.148.437 4.7 4.7 0 00-.127.465 2.122 2.122 0 00-.051.42c.001.298.118.585.326.798a1.084 1.084 0 00.83.362.948.948 0 00.865-.402c.228-.4.403-.826.522-1.27l2.668-8.456 2.68 8.49c.138.449.24.759.315.931.075.183.193.345.344.471.187.148.42.224.658.213a1.04 1.04 0 00.573-.167 1.176 1.176 0 00.572-.976 2.16 2.16 0 00-.045-.408 3.617 3.617 0 00-.126-.425l-.017.023zm-12.65-9.812a3.88 3.88 0 00-1.49-.92A6.184 6.184 0 0043.325.5a7.656 7.656 0 00-2.342.316 3.674 3.674 0 00-1.615.965 4.024 4.024 0 00-.91 1.683 9.005 9.005 0 00-.293 2.447v6.044c-.03.41.085.817.327 1.149a1.072 1.072 0 00.859.39 1.085 1.085 0 00.893-.356c.24-.333.355-.74.327-1.149V5.768a5.91 5.91 0 01.223-1.764 2.03 2.03 0 01.785-1.103 2.77 2.77 0 011.58-.39 2.284 2.284 0 011.981.792c.433.725.633 1.565.573 2.407v6.245c-.028.408.085.814.32 1.149a1.083 1.083 0 00.86.385 1.144 1.144 0 00.882-.35c.244-.332.361-.74.332-1.15V5.906a9.654 9.654 0 00-.27-2.465 3.817 3.817 0 00-1.019-1.723l-.005-.006zM35.932 8.21a.84.84 0 00-.722.316 2.86 2.86 0 00-.378.816 3.275 3.275 0 01-1.071 1.597 2.77 2.77 0 01-1.718.546 2.85 2.85 0 01-1.66-.477 3.078 3.078 0 01-1.089-1.46 6.676 6.676 0 01-.39-2.447 5.718 5.718 0 01.871-3.395 2.763 2.763 0 012.348-1.194 2.537 2.537 0 011.518.465c.49.366.883.847 1.145 1.402.131.289.303.557.51.798a.932.932 0 00.687.236.903.903 0 00.675-.316 1.15 1.15 0 00.287-.77 3.056 3.056 0 00-.573-1.689 4.705 4.705 0 00-1.718-1.505A5.21 5.21 0 0032.09.5a5.51 5.51 0 00-2.21.448 5.154 5.154 0 00-1.81 1.275 5.962 5.962 0 00-1.186 2.08 8.331 8.331 0 00-.412 2.717 9.15 9.15 0 00.166 1.77c.104.54.27 1.065.492 1.568.207.472.47.918.785 1.327.322.407.71.758 1.145 1.04.428.265.896.46 1.386.574a7.1 7.1 0 001.718.19 5.14 5.14 0 002.153-.426 4.365 4.365 0 001.512-1.074c.367-.403.662-.868.87-1.373a3.45 3.45 0 00.281-1.298 1.087 1.087 0 00-.31-.776.98.98 0 00-.738-.333zM22.56 1.316A5.98 5.98 0 0019.416.5a6.008 6.008 0 00-2.383.454 4.823 4.823 0 00-1.803 1.298c-.518.6-.907 1.3-1.146 2.057a8.643 8.643 0 00-.39 2.654 9.057 9.057 0 00.373 2.636 5.87 5.87 0 001.105 2.08A4.89 4.89 0 0017 13.023a6.16 6.16 0 002.474.477 6.185 6.185 0 002.468-.465 4.897 4.897 0 001.816-1.339 5.809 5.809 0 001.105-2.062 8.997 8.997 0 00.372-2.654 8.064 8.064 0 00-.676-3.447 5.022 5.022 0 00-1.987-2.258l-.011.04zm-.2 8.168a3.341 3.341 0 01-1.226 1.511 3.05 3.05 0 01-1.684.489 2.93 2.93 0 01-2.376-1.15 4.112 4.112 0 01-.716-1.435 7.068 7.068 0 01-.252-1.948 6.856 6.856 0 01.252-1.919c.136-.503.366-.976.675-1.396a3.014 3.014 0 012.383-1.125 3.114 3.114 0 011.786.522c.542.38.957.914 1.192 1.534a6.24 6.24 0 01.418 2.396 6.204 6.204 0 01-.453 2.521zM10.877.58h-.716a2.615 2.615 0 00-.968.133.85.85 0 00-.447.465 7.722 7.722 0 00-.332 1.103L6.697 9.23 4.98 2.282a7.722 7.722 0 00-.332-1.103.85.85 0 00-.458-.465A2.615 2.615 0 003.22.58h-.739A1.805 1.805 0 001.4.873a1.299 1.299 0 00-.4 1.15V12.04c-.03.39.077.778.303 1.097a.985.985 0 00.784.362.977.977 0 00.796-.362 1.64 1.64 0 00.304-1.091V3.275l1.89 8.094.194.764c.054.234.138.46.252.672a1.4 1.4 0 00.453.5c.21.134.455.202.704.195a1.2 1.2 0 00.87-.305c.2-.182.348-.414.43-.672.08-.247.183-.631.303-1.149l1.879-8.1v8.767a1.64 1.64 0 00.303 1.091.981.981 0 00.779.368.994.994 0 00.802-.368c.224-.317.332-.703.303-1.091V1.994a1.302 1.302 0 00-.39-1.12A1.778 1.778 0 0010.878.58z" fill="#171819"/></svg>