<svg width="82" height="20" viewBox="0 0 82 20" fill="none" xmlns="http://www.w3.org/2000/svg"><path d="M15.285 4.312c-.263 0-.546-.099-.748-.316a.987.987 0 01.04-1.422l1.84-1.7a1.043 1.043 0 011.456.04.987.987 0 01-.04 1.422l-1.84 1.72a1.194 1.194 0 01-.708.256z" fill="#09CE81"/><path d="M8.836 6.19c.525 0 .95.414.95.928a.939.939 0 01-.95.928h-2.79v6.777c0 .613-.506 1.107-1.133 1.107a1.118 1.118 0 01-1.132-1.107V8.027H.95A.939.939 0 010 7.098a.962.962 0 01.95-.909h7.886zm11.645 4.168c0 .75-.606 1.284-1.415 1.284h-6.854c.303 1.522 1.557 2.49 3.255 2.49 1.092 0 2.002-.455 2.568-1.107.243-.257.546-.494.89-.494.566 0 1.01.396 1.01.91 0 .276-.12.592-.363.83-.789.928-2.305 1.679-4.186 1.679-3.053 0-5.459-2.154-5.459-5 0-2.746 2.224-4.998 5.419-4.998 2.85 0 5.135 2.213 5.135 4.406zm-2.163-.336C17.974 8.6 16.903 7.77 15.346 7.77c-1.719 0-2.81.928-3.134 2.252h6.106zM29.317 6.19c.526 0 .95.414.95.928a.938.938 0 01-.95.928h-2.81v6.777c0 .613-.506 1.107-1.133 1.107a1.118 1.118 0 01-1.132-1.107V8.027h-2.81a.939.939 0 01-.95-.929c0-.514.424-.929.95-.929h7.885v.02zM32.511 20c-.667 0-1.152-.474-1.152-1.146V7.157c0-.71.384-1.146 1.092-1.146.526 0 1.01.317 1.01.83v1.344h.041c.546-1.423 2.164-2.253 3.68-2.253 2.568 0 4.974 2.055 4.974 5.019 0 2.944-2.406 4.999-4.934 4.999-1.556 0-3.012-.87-3.538-2.134h-.04v5.058c.02.652-.465 1.126-1.133 1.126zm7.38-9.05c0-1.679-1.395-3.042-3.113-3.042-1.699 0-3.114 1.363-3.114 3.043 0 1.68 1.395 3.043 3.114 3.043 1.718 0 3.113-1.364 3.113-3.043zm5.237 4.98c-.83 0-1.274-.455-1.274-1.265V7.157c0-.75.404-1.165 1.132-1.165.728 0 1.133.414 1.133 1.165v5.888l5.075-6.283c.404-.553.849-.79 1.536-.79.83 0 1.274.454 1.274 1.264v7.508c0 .751-.404 1.166-1.132 1.166-.728 0-1.133-.415-1.133-1.166V8.856l-5.075 6.284c-.404.553-.849.79-1.536.79zm12.434-.02c-.626 0-1.112-.474-1.112-1.126V7.118c0-.652.465-1.126 1.133-1.126.647 0 1.132.474 1.132 1.126V10.2l4.731-3.774c.344-.257.627-.434.97-.434.587 0 1.032.434 1.032.968a.932.932 0 01-.344.75l-3.316 2.707 3.821 3.774c.162.178.223.395.223.632 0 .613-.465 1.107-1.092 1.107-.384 0-.728-.198-.97-.455l-3.72-3.714-1.355 1.067v1.976c0 .632-.486 1.106-1.133 1.106zm13.547.06c-2.629 0-5.035-2.056-5.035-5 0-2.963 2.447-4.998 5.035-4.998 1.658 0 3.093.889 3.64 2.134l.04-1.383c.06-.415.485-.712 1.051-.712.606 0 1.051.475 1.051 1.127v7.685c0 .613-.364 1.127-1.051 1.127-.627 0-.99-.336-1.051-.712l-.04-1.383c-.547 1.245-2.043 2.114-3.64 2.114zm3.477-5.02c0-1.679-1.395-3.042-3.113-3.042-1.719 0-3.114 1.363-3.114 3.043 0 1.68 1.395 3.042 3.114 3.042 1.718 0 3.113-1.363 3.113-3.042z" fill="#7E28DC"/><path d="M61.808 4.964c-.263 0-.525-.099-.728-.296-3.639-3.557-9.563-3.557-13.202 0a1.042 1.042 0 01-1.456 0 .986.986 0 010-1.423c4.428-4.327 11.666-4.327 16.094 0a.986.986 0 010 1.423.959.959 0 01-.708.296z" fill="#5ECEF7"/><path d="M81.946 14.053c.222.79-.263 1.6-1.072 1.818a1.522 1.522 0 01-1.86-1.048c-.222-.79.263-1.6 1.072-1.817a1.515 1.515 0 011.86 1.047z" fill="#FF62BA"/></svg>