<svg width="103" height="16" viewBox="0 0 103 16" fill="none" xmlns="http://www.w3.org/2000/svg"><g clip-path="url(#clip0)"><path d="M46.063 4.792l2.15-1.608h-7.197v9.632h7.197v-1.608h-5.14v-2.46h4.392V7.142h-4.393v-2.35h2.991zM35.58 6.936h-2.493V4.792h3.988l2.15-1.608H31.03v9.632h4.284c2.399 0 3.785-1.104 3.785-3.027 0-1.844-1.246-2.853-3.52-2.853zm-.343 4.272h-2.15V8.544h2.15c1.308 0 1.916.441 1.916 1.34 0 .898-.654 1.324-1.916 1.324zm18.802-8.024h-3.91v9.632h2.056v-2.727h1.87c2.492 0 4.05-1.325 4.05-3.453s-1.558-3.452-4.066-3.452zm-.047 5.297H52.17V4.792h1.822c1.324 0 2.04.662 2.04 1.844 0 1.183-.716 1.845-2.04 1.845zM27.51 10.735a3.68 3.68 0 01-1.776.457c-1.854 0-3.193-1.34-3.193-3.184s1.34-3.184 3.193-3.184a3.08 3.08 0 011.87.599l1.48-1.104-.094-.094c-.857-.773-2.01-1.167-3.318-1.167-1.418 0-2.71.489-3.645 1.372a4.776 4.776 0 00-1.433 3.515 5.008 5.008 0 001.433 3.578c.981.93 2.29 1.45 3.63 1.419 1.48 0 2.772-.52 3.645-1.466l-1.325-.993-.467.252zM82.827 3.2v9.631h2.056v-3.94h4.377v3.94h2.057V3.2H89.26v3.957h-4.377V3.2h-2.056zm-3.537 9.631h2.166L77.436 3.2H75.35l-4.097 9.631h2.072l.826-1.938h4.362l.778 1.938zm-4.517-3.546l1.589-3.862 1.495 3.862h-3.084zm21.155-.347h1.277l3.147 3.878H103l-4.206-4.982 3.676-4.65h-2.352l-3.053 4.13h-1.137v-4.13H93.87v9.632h2.057V8.938zM64.46 6.952V4.808h5.375V3.2h-7.43v9.631h4.283c2.4 0 3.785-1.103 3.785-3.026 0-1.844-1.246-2.853-3.52-2.853H64.46zm0 1.608h2.15c1.309 0 1.916.44 1.916 1.34 0 .898-.638 1.34-1.916 1.34h-2.15V8.56zm-50.3-5.439c.374.489.686 1.025.95 1.592L7.915 10.09 4.892 8.165V5.864l3.006 1.907 6.262-4.65z" fill="#21A038"/><path d="M1.823 8.008c0-.11 0-.205.015-.316L.016 7.598c0 .126-.016.268-.016.394a8.03 8.03 0 002.321 5.659l1.293-1.309a6.095 6.095 0 01-1.791-4.334z" fill="url(#paint0_linear)"/><path d="M7.898 1.86c.11 0 .203 0 .312.016L8.303.03c-.124 0-.265-.015-.39-.015-2.18 0-4.159.898-5.592 2.348l1.293 1.309A5.98 5.98 0 017.898 1.86z" fill="url(#paint1_linear)"/><path d="M7.898 14.156c-.11 0-.203 0-.312-.016l-.093 1.844c.124 0 .264.016.39.016 2.18 0 4.158-.899 5.592-2.349l-1.293-1.308a5.891 5.891 0 01-4.284 1.813z" fill="url(#paint2_linear)"/><path d="M11.325 2.932l1.542-1.15A7.856 7.856 0 007.897 0v1.844a6.076 6.076 0 013.428 1.088z" fill="url(#paint3_linear)"/><path d="M15.812 8.008c0-.489-.047-.962-.125-1.435L13.989 7.85v.158a6.14 6.14 0 01-2.01 4.555l1.231 1.372a8.027 8.027 0 002.602-5.927z" fill="#21A038"/><path d="M7.898 14.156a6.004 6.004 0 01-4.502-2.034L2.04 13.367A7.82 7.82 0 007.898 16v-1.844z" fill="url(#paint4_linear)"/><path d="M3.832 3.452l-1.23-1.371A7.996 7.996 0 000 8.008h1.823c0-1.797.778-3.437 2.01-4.556z" fill="url(#paint5_linear)"/></g><defs><linearGradient id="paint0_linear" x1="2.127" y1="13.427" x2=".252" y2="7.988" gradientUnits="userSpaceOnUse"><stop offset=".144" stop-color="#F2E913"/><stop offset=".304" stop-color="#E7E518"/><stop offset=".582" stop-color="#CADB26"/><stop offset=".891" stop-color="#A3CD39"/></linearGradient><linearGradient id="paint1_linear" x1="2.841" y1="2.156" x2="7.57" y2=".348" gradientUnits="userSpaceOnUse"><stop offset=".059" stop-color="#0FA8E0"/><stop offset=".538" stop-color="#0099F9"/><stop offset=".923" stop-color="#0291EB"/></linearGradient><linearGradient id="paint2_linear" x1="7.386" y1="14.431" x2="13.02" y2="13.154" gradientUnits="userSpaceOnUse"><stop offset=".123" stop-color="#A3CD39"/><stop offset=".285" stop-color="#86C339"/><stop offset=".869" stop-color="#21A038"/></linearGradient><linearGradient id="paint3_linear" x1="7.523" y1="1.175" x2="12.21" y2="2.626" gradientUnits="userSpaceOnUse"><stop offset=".057" stop-color="#0291EB"/><stop offset=".79" stop-color="#0C8ACB"/></linearGradient><linearGradient id="paint4_linear" x1="2.504" y1="13.66" x2="7.539" y2="15.547" gradientUnits="userSpaceOnUse"><stop offset=".132" stop-color="#F2E913"/><stop offset=".298" stop-color="#EBE716"/><stop offset=".531" stop-color="#D9E01F"/><stop offset=".802" stop-color="#BBD62D"/><stop offset=".983" stop-color="#A3CD39"/></linearGradient><linearGradient id="paint5_linear" x1="1.397" y1="8.23" x2="3.423" y2="2.94" gradientUnits="userSpaceOnUse"><stop offset=".07" stop-color="#A3CD39"/><stop offset=".26" stop-color="#81C55F"/><stop offset=".922" stop-color="#0FA8E0"/></linearGradient><clipPath id="clip0"><path fill="#fff" d="M0 0h103v16H0z"/></clipPath></defs></svg>