<svg width="105" height="14" viewBox="0 0 105 14" fill="none" xmlns="http://www.w3.org/2000/svg"><path d="M99.57 5.827l-1.302-.196c-2.478-.373-3.52-.885-3.52-1.897 0-.903 1.303-1.422 3.429-1.422 2.499 0 4.969.837 5.924 1.58V1.348C102.927.652 100.815 0 98.201 0c-4.697 0-6.272 2.001-6.272 3.7 0 2.357 1.99 3.706 5.492 4.233l1.303.195c2.495.373 3.46.837 3.46 1.8 0 .878-.923 1.586-3.784 1.586-2.86 0-5.08-.917-6.171-1.677v2.6a12.476 12.476 0 005.959 1.396c4.223 0 6.812-1.49 6.812-3.773 0-2.36-1.812-3.693-5.43-4.233zM7.377.317L0 13.634h3.098l1.742-3.316h7.987l1.742 3.316h3.098L10.283.317H7.377zm-1.48 7.975L8.711 2.95h.275l2.788 5.342H5.896zM41.712.317l-7.378 13.317h3.098l1.743-3.316h7.99l1.742 3.316h3.098L44.604.317h-2.892zM40.23 8.292l2.788-5.342h.276l2.787 5.342h-5.85zM80.998.317L73.62 13.634h3.097l1.743-3.316h7.99l1.743 3.316h3.104L83.904.317h-2.906zm-1.481 7.975l2.787-5.342h.283l2.787 5.342h-5.857zM30.902 1.196c-1.21-.568-3.181-.879-5.22-.879h-6.405v13.317h6.405c2.039 0 4.01-.31 5.227-.879a6.134 6.134 0 003.627-5.781 6.14 6.14 0 00-3.634-5.778zm-1.463 9.614c-.85.421-2.44.644-4.018.644h-3.468V2.508h3.485c1.593 0 3.168.223 4.018.642 1.585.791 2.255 2.228 2.255 3.825s-.67 3.037-2.272 3.835zm33.424-1.744L58.016.317h-4.349v13.317h2.663V2.692h.268L62.863 14 69.13 2.692h.268v10.942h2.662V.317h-4.352l-4.844 8.749z" fill="#26BBB3"/></svg>