<svg width="112" height="16" viewBox="0 0 112 16" fill="none" xmlns="http://www.w3.org/2000/svg"><g clip-path="url(#clip0_3205_2242)"><path fill-rule="evenodd" clip-rule="evenodd" d="M3.798 16h104.333a3.295 3.295 0 003.297-3.293V3.293A3.295 3.295 0 00108.131 0H3.798A3.295 3.295 0 00.5 3.292v9.416A3.295 3.295 0 003.798 16zm19.204-2.394H20.2c-3.09 0-5.604-2.51-5.604-5.594 0-3.085 2.514-5.595 5.604-5.595h2.802c3.09 0 5.604 2.51 5.604 5.595s-2.514 5.594-5.604 5.594zm0-9.44H20.2a3.854 3.854 0 00-3.853 3.846 3.854 3.854 0 003.853 3.846h2.802a3.854 3.854 0 003.853-3.846 3.854 3.854 0 00-3.853-3.846zM3.796 13.583a.875.875 0 00.876-.874V5.422l7.807 7.9a.876.876 0 001.499-.613V3.29a.875.875 0 00-1.752 0v7.287l-7.807-7.9a.877.877 0 00-1.499.613v9.418c0 .482.392.874.876.874zm26.359 0a.875.875 0 00.876-.874v-6.71l5.212 7.22a.876.876 0 001.586-.51V3.29a.875.875 0 00-1.752 0V10l-5.212-7.22a.876.876 0 00-1.586.51v9.418c0 .482.392.874.876.874zM72.543 2.429a.875.875 0 00-.876.874v7.576L61.532 2.626a.877.877 0 00-1.429.677v9.417a.875.875 0 001.751 0V5.144l10.135 8.254a.877.877 0 001.43-.678V3.303a.875.875 0 00-.876-.874zM51.588 6.343a3.922 3.922 0 017.842 0V9.68a3.922 3.922 0 01-7.842 0V6.343zm3.921 5.503a2.17 2.17 0 002.17-2.166V6.343a2.17 2.17 0 00-4.34 0V9.68a2.17 2.17 0 002.17 2.166zm29.833-9.429a3.779 3.779 0 00-3.778 3.771v3.623a3.779 3.779 0 007.556 0V6.188a3.779 3.779 0 00-3.778-3.77zm2.026 7.394a2.027 2.027 0 01-4.052 0V6.188a2.027 2.027 0 014.052 0v3.623zm-36.51 3.783h-6.764c-3.083 0-5.592-2.504-5.592-5.582 0-3.079 2.509-5.583 5.592-5.583h6.763a.875.875 0 110 1.748h-6.763a3.842 3.842 0 00-3.84 3.835 3.842 3.842 0 003.84 3.834h6.763a.875.875 0 110 1.748zM80.71 2.396h-3.379a3.24 3.24 0 00-3.24 3.234v7.1a.875.875 0 001.752 0V8.874h3.514a.875.875 0 100-1.748h-3.514V5.63c0-.82.668-1.486 1.488-1.486h3.38a.875.875 0 100-1.748zm17.618.02a3.24 3.24 0 013.24 3.234 3.241 3.241 0 01-3.24 3.234h-.01l3.017 3.252a.873.873 0 01-.643 1.468.872.872 0 01-.642-.28l-4.119-4.44h-4.386v3.846a.875.875 0 01-1.752 0V5.65a3.24 3.24 0 013.24-3.235h5.295zm-5.295 1.748c-.82 0-1.488.666-1.488 1.486v1.486h6.783a1.49 1.49 0 001.488-1.486c0-.82-.667-1.486-1.488-1.486h-5.295zm15.311-1.72a.876.876 0 00-.985.437l-1.735 3.257-1.734-3.257a.876.876 0 00-1.649.41v9.418a.875.875 0 001.752 0V6.797l.858 1.613a.876.876 0 001.546 0l.86-1.612v5.91a.875.875 0 001.751 0V3.292a.875.875 0 00-.664-.848z" fill="#110B09"/></g><defs><clipPath id="clip0_3205_2242"><path fill="#fff" transform="translate(.5)" d="M0 0h111v16H0z"/></clipPath></defs></svg>