<svg width="80" height="18" viewBox="0 0 80 18" fill="none" xmlns="http://www.w3.org/2000/svg"><path fill-rule="evenodd" clip-rule="evenodd" d="M76.865 16.232l-.408-5.94-1.651 5.94h-2.774l-1.482-5.94-.308 5.94h-3.26l1.156-12.185h3.907l1.511 6.281 1.557-6.28h3.805l1.083 12.184h-3.136zm-15.593.221c-3.529 0-5.416-2.431-5.416-6.305 0-3.911 1.857-6.301 5.416-6.301 3.56 0 5.418 2.39 5.418 6.301 0 3.874-1.888 6.305-5.418 6.305zm-.012-10.01c-1.434 0-1.856 1.695-1.856 3.705 0 1.91.422 3.68 1.855 3.68s1.855-1.77 1.855-3.68c0-2.01-.422-3.705-1.854-3.705zm-5.33 10.918h-3.35v-1.148h-4.204v1.148h-3.25v-3.713h.825l3.067-9.946h3.147l3.017 9.946h.748v3.713zm-5.407-8.733l-1.281 5.032h2.515l-1.233-5.032zM37.594 9.685l-2.605 6.547h-3.498V4.017h3.246v6.557l2.604-6.557h3.499v12.215h-3.246V9.685zm.232-6.617a4.803 4.803 0 01-1.658.296 4.578 4.578 0 01-2.464-.717c-.766-.476-1.489-1.21-1.824-2.205L35.258 0c.06 1.292 1.709 1.324 1.769 0l3.424.442c-.237.683-.745 1.24-1.173 1.676a3.96 3.96 0 01-1.452.95zM25.212 16.463c-3.535 0-5.426-2.433-5.426-6.316 0-3.916 1.86-6.312 5.426-6.312 3.567 0 5.427 2.396 5.427 6.312 0 3.883-1.892 6.316-5.427 6.316zm-.015-10.027c-1.434 0-1.857 1.697-1.857 3.71 0 1.915.423 3.686 1.857 3.686 1.436 0 1.859-1.771 1.859-3.685 0-2.014-.423-3.71-1.86-3.71zM19.07 12.7c0 1.206-.68 2.479-1.702 3.084-.531.317-1.043.448-1.83.448h-5.52V4.038h5.223c2.119.051 3.32.832 3.393 3.001.046 1.288-.46 2.293-1.55 2.718v.037c1.447.373 1.986 1.522 1.986 2.906zm-4.034-5.651c-.175-.181-.38-.27-.765-.27h-1.008v1.888h1.008c.422 0 .637-.091.795-.275a.962.962 0 00.236-.642c0-.286-.09-.52-.266-.701zm-.735 4.247h-1.012v2.216h1.012c.579 0 1.082-.341 1.082-1.077 0-.734-.483-1.14-1.082-1.14zM6.072 6.769v9.463H2.81V6.769H0V4.047h9.238l-.375 2.722h-2.79z" fill="#093"/></svg>