<svg width="54" height="44" viewBox="0 0 54 44" fill="none" xmlns="http://www.w3.org/2000/svg"><path d="M4.387 0H0v34.486h4.387V0zm12.524 0h-4.387v34.486h4.387V0zm8.376 0H20.9v34.486h4.387V0zM37.25 0h-4.387v34.486h4.388V0zm8.375 0h-4.387v34.486h4.387V0zM54 0h-4.386v34.486H54V0zM0 38.427h1.224l.538 2.195c.114.457.195.933.293 1.482h.019c.08-.52.18-1.016.286-1.482l.519-2.195h1.608l.528 2.195c.107.448.197.924.295 1.482h.018c.107-.566.187-1.024.294-1.482l.528-2.195h1.153L6.15 42.886H4.487l-.544-2.193c-.109-.468-.188-.952-.288-1.485h-.008a19.33 19.33 0 01-.268 1.476l-.547 2.201H1.2L0 38.427zm8.762 0h1.223l.54 2.195c.114.457.194.933.293 1.482h.018c.08-.52.179-1.016.286-1.482l.518-2.195h1.608l.53 2.195c.106.448.196.924.294 1.482h.019c.107-.566.187-1.024.293-1.482l.529-2.195h1.152l-1.152 4.459h-1.665l-.543-2.192c-.108-.468-.188-.953-.288-1.485h-.008c-.08.532-.16 1.007-.267 1.475l-.547 2.202H9.96l-1.2-4.46zm8.764 0h1.224l.539 2.195c.114.457.194.933.293 1.482h.018c.08-.52.18-1.016.286-1.482l.52-2.195h1.607l.528 2.195c.107.448.197.924.296 1.482h.017c.108-.566.188-1.024.294-1.482l.528-2.195h1.154l-1.154 4.459h-1.663l-.544-2.192c-.108-.468-.188-.953-.288-1.485h-.01a18.926 18.926 0 01-.265 1.475l-.548 2.202h-1.633l-1.199-4.46zm8.504 4.53c-.535 0-.679-.143-.679-.656 0-.512.144-.665.68-.665.547 0 .689.153.689.665 0 .513-.142.656-.69.656zm2.167-1.007h1.369V39.2l-1.127.432-.269-.746 1.629-.809h.903v3.873h1.143v.935h-3.648v-.935zm5.039.108L34.65 40.8c.698-.611 1.038-.97 1.038-1.347 0-.38-.27-.568-.859-.568-.464 0-.922.082-1.342.208l-.135-.889a6.274 6.274 0 011.745-.235c1.27 0 1.826.487 1.826 1.277 0 .79-.459 1.268-1.27 1.908l-.87.734h2.19v.999h-3.736v-.829zm5.191.882c.411.089.856.144 1.313.144.803 0 1.242-.36 1.242-.925 0-.594-.295-.855-1.869-.855v-.883c1.36 0 1.745-.474 1.745-.906 0-.449-.34-.63-.984-.63-.42 0-.841.075-1.243.19l-.134-.89a6.828 6.828 0 011.691-.214c1.222 0 1.833.447 1.833 1.256 0 .765-.403 1.257-1.039 1.538.67.126 1.172.547 1.172 1.32 0 1.107-.734 1.915-2.332 1.915a6.77 6.77 0 01-1.512-.152l.117-.908zm5.76.017c-.536 0-.68-.143-.68-.656 0-.512.144-.665.68-.665.546 0 .688.153.688.665 0 .513-.142.656-.688.656zm2.183-4.53h.977l.07.47c.393-.324.76-.605 1.143-.605.161 0 .27.03.377.092l-.144 1.05a.812.812 0 00-.376-.08c-.232 0-.5.135-.858.357v3.174h-1.187l-.001-4.458zm4.752 0v2.834c0 .582.177.744.56.744.298 0 .618-.135 1.03-.413v-3.165h1.19v4.459h-.984l-.063-.45c-.536.333-1.012.53-1.581.53-.93 0-1.343-.44-1.343-1.465v-3.074h1.191z" fill="#3274BE"/></svg>