<svg width="66" height="32" viewBox="0 0 66 32" fill="none" xmlns="http://www.w3.org/2000/svg"><path d="M0 0h66v32H0V0z" fill="#000"/><path d="M0 32h66V0H0v32z" fill="#E4002B"/><path d="M8.331 26.482H4.398V5.518h3.317c3.011 0 4.889.907 5.907 2.856.445.85.743 1.93.912 3.305.154 1.435.22 2.878.197 4.321a39.866 39.866 0 01-.17 4.197c-.15 1.371-.418 2.457-.818 3.32a4.693 4.693 0 01-1.923 2.18c-.91.528-2.051.785-3.489.785zM8.214 8.756v14.488c.669-.008 1.09-.084 1.41-.255.353-.188.593-.508.755-1.008.335-1.035.36-2.96.36-6.01 0-3.031-.024-4.945-.36-5.97-.162-.494-.402-.81-.755-.995-.318-.167-.74-.241-1.41-.25zm8.289 17.726h3.816V5.518h-3.816v20.964zm5.861-20.964h8.628v3.238H26.18v5.36h3.552v3.415H26.18v5.713h5.019v3.238h-8.834V5.518zm12.91 14.899c0 1.179 0 3.238 1.644 3.238 1.261 0 1.702-1.177 1.702-2.03 0-3.74-6.927-4.594-6.927-10.807 0-3.151 1.703-5.712 4.931-5.712 3.433 0 4.754 2.62 4.843 6.388h-3.405c0-1.177 0-3.15-1.526-3.15-.91 0-1.438.766-1.438 1.915 0 3.563 6.925 4.77 6.925 10.866 0 3.208-1.818 5.77-5.253 5.77-4.079 0-4.9-3.592-4.9-6.478h3.404zM43.32 5.518h8.629v3.238h-4.814v5.36h3.552v3.415h-3.552v5.713h5.019v3.238h-8.835V5.518zm10.535 0h3.817v17.726H61.6v3.238h-7.745V5.518z" fill="#FFFFFE"/></svg>