<svg width="100" height="26" viewBox="0 0 100 26" fill="none" xmlns="http://www.w3.org/2000/svg"><path d="M76.768 11.993l-1.172-7.665a.851.851 0 00-1-.669h-.01a.956.956 0 00-.799.66c-.222.46-2.142 4.906-2.142 4.906s-1.99-4.567-2.193-5.056a.9.9 0 00-1.162-.48.889.889 0 00-.536.67l-1.202 7.634c-.04.25-.131.719-.131.869-.02.27.171.5.444.53h.02c.293 0 .526-.24.526-.52v-.05l1.213-8.084s2.273 5.296 2.404 5.576a.75.75 0 00.617.45c.263-.02.475-.2.546-.45.141-.29 2.435-5.586 2.435-5.586l1.212 8.084c-.03.29.172.54.465.57h.05c.294 0 .526-.24.537-.53.01-.11-.081-.61-.122-.86zm-27.99.4l5.84-7.695a.615.615 0 00-.06-.88.662.662 0 00-.344-.149H48.19a.447.447 0 00-.505.39c-.03.25.141.47.394.5h5.457l-5.892 7.623a.724.724 0 00.516 1.1h6.426c.253.03.475-.14.506-.39a.444.444 0 00-.394-.5h-5.952.03zm12.489-8.184a.516.516 0 00-.414-.61c-.03-.01-.071-.01-.101-.01a.506.506 0 00-.506.51c0 .04.01.07.01.11v8.533a.51.51 0 00.385.61c.04.01.07.01.11.01.294 0 .526-.23.526-.52 0-.03 0-.07-.01-.1V4.209zM81.77 9.904c0 2.219 1.758 3.348 3.648 3.348 1.89 0 3.709-1.13 3.709-3.348V4.13a.536.536 0 00-.455-.62.54.54 0 00-.626.63v5.685c-.081 1.45-1.334 2.568-2.8 2.498a2.662 2.662 0 01-2.526-2.498V4.1a.493.493 0 00-.384-.59.498.498 0 00-.596.38.73.73 0 000 .21v5.775l.03.03zm15.35 2.798a.55.55 0 01-.485.61h-.07a.498.498 0 01-.496-.51c0-.04.01-.07.01-.11V4.608h-2.567a.446.446 0 01-.444-.44c0-.24.202-.44.444-.44h6.043c.243 0 .445.2.445.44s-.202.44-.445.44H97.12v8.094zM42.825 6.996c.091-1.748-1.273-3.227-3.031-3.317a3.16 3.16 0 00-.435.01h-2.324c-.404 0-.627.13-.627.44s.223.43.627.43h2.355c1.222-.14 2.334.739 2.465 1.948.02.17.02.33 0 .5v.29h-4.194c-2.243 0-3.556 1.158-3.556 3.017 0 1.858 1.263 2.968 3.506 2.968h4.669a.62.62 0 00.565-.65V6.996h-.02zm-.98 5.396h-4.022c-1.788 0-2.718-.76-2.718-2.088 0-1.33.99-2.118 2.779-2.118h3.981v4.206h-.02zm12.55 10.192c.03.13-.05.26-.181.3a.26.26 0 01-.303-.18.241.241 0 010-.12v-4.196c-.03-.13.05-.26.181-.3a.26.26 0 01.303.18c.01.04.01.08 0 .12v1.808h2.618v-1.808c-.03-.13.05-.26.182-.3a.26.26 0 01.303.18c.01.04.01.08 0 .12v4.196c.03.13-.05.26-.182.3a.26.26 0 01-.303-.18.241.241 0 010-.12v-1.938h-2.617v1.938zm7.114-4.506c1.344 0 2.022 1.199 2.022 2.398 0 1.2-.678 2.398-2.021 2.398-1.344 0-2.021-1.199-2.021-2.398s.666-2.398 2.02-2.398zm1.496 2.398c0-.89-.384-1.958-1.495-1.958-1.112 0-1.496 1.069-1.496 1.958 0 .89.384 1.959 1.495 1.959 1.112 0 1.496-1.07 1.496-1.959zm3.567 2.108c.03.13-.05.26-.182.3a.26.26 0 01-.303-.18.241.241 0 010-.12v-4.017h-.92a.223.223 0 01-.272-.16.22.22 0 01.161-.27c.04-.01.081-.01.112 0h2.324c.121 0 .222.1.222.22s-.101.22-.222.22h-.93v4.007h.01zm3.577-.18h1.466c.12 0 .222.1.222.22s-.101.22-.222.22h-1.668c-.121.03-.252-.04-.283-.16-.01-.03-.01-.06-.01-.09v-4.206a.245.245 0 01.222-.26h1.648c.12-.03.242.04.272.16a.22.22 0 01-.161.27.208.208 0 01-.111 0h-1.365v1.708h1.324c.121-.03.243.04.273.16a.22.22 0 01-.162.27c-.04.01-.08.01-.11 0h-1.325v1.709h-.01zm4.467 0h1.253c.121 0 .222.1.222.22s-.1.22-.222.22h-1.496a.252.252 0 01-.252-.23v-4.216c-.03-.13.05-.26.182-.3.13-.04.262.05.303.18.01.04.01.08 0 .12l.01 4.007zm2.94-.09c0-.12.101-.23.223-.23.08.02.161.05.222.11.242.15.505.23.788.25.586.01 1.071-.45 1.092-1.029 0-1.129-2.264-.72-2.264-2.118.03-.7.626-1.24 1.334-1.21H79c.435-.04.85.16 1.082.52.01.12-.071.23-.202.25a3.368 3.368 0 00-.92-.33.805.805 0 00-.859.72c0 1.04 2.264.61 2.264 2.118.03.8-.607 1.47-1.405 1.5h-.101c-.778.01-1.304-.28-1.304-.55z" fill="#000"/><path d="M13.147 26c7.26 0 13.147-5.82 13.147-13S20.407 0 13.147 0C5.886 0 0 5.82 0 13s5.886 13 13.147 13z" fill="url(#paint0_radial)"/><path d="M24.182 12.11c-2.193 8.664-15.976 9.833-20.443 3.158a9.385 9.385 0 00-2.567 3.118c3.012 6.525 10.813 9.403 17.411 6.425 4.416-1.998 7.357-6.235 7.66-11.021a3.802 3.802 0 00-2.061-1.68z" fill="url(#paint1_radial)"/><path d="M17.927 1.41l-.475-.17 1.323 3.826.486.2a10.107 10.107 0 015.214 4.826c.141-3.817-2.577-7.164-6.548-8.683z" fill="#BF2D3E"/><path d="M20.857 17.167c0-.72.04-1.45.04-2.169C20.897 7.056 19.1.56 16.886.56c-1.324 0-2.517 2.378-3.254 5.945 0 .09.07.17.161.17h.01c.081.01.152-.02.192-.09.536-2.888 1.355-4.746 2.264-4.746 1.617 0 2.92 5.775 2.92 13 0 .859-.02 1.698-.05 2.498-1.314.09-2.729.13-4.224.13-6.7 0-12.136-.94-12.136-2.099 0-1.159 5.436-2.098 12.136-2.098h2.193c.08-.02.131-.1.121-.18-.01-.06-.06-.1-.121-.12-.829 0-1.769-.05-2.638-.05-7.84 0-14.197 1.27-14.197 2.848 0 1.579 6.376 2.838 14.218 2.838 1.596 0 3.142-.05 4.567-.15a29.563 29.563 0 01-1.03 6.645s.565-.22 1.04-.46c.323-.16.637-.33.93-.53.414-1.898.687-3.837.798-5.775a34.12 34.12 0 004.72-.76s.11-.27.221-.619c.112-.35.223-.72.223-.72-1.637.52-3.355.83-5.093.93z" fill="#fff"/><defs><radialGradient id="paint0_radial" cx="0" cy="0" r="1" gradientUnits="userSpaceOnUse" gradientTransform="matrix(20.1157 0 0 19.8912 10.113 10.158)"><stop stop-color="#F47925"/><stop offset=".08" stop-color="#F17325"/><stop offset=".19" stop-color="#E76427"/><stop offset=".31" stop-color="#D74A28"/><stop offset=".44" stop-color="#C1252B"/><stop offset=".52" stop-color="#B10B2D"/><stop offset=".61" stop-color="#A30926"/><stop offset=".78" stop-color="#7F0413"/><stop offset=".87" stop-color="#670006"/><stop offset=".9" stop-color="#6A0008"/><stop offset=".93" stop-color="#74020D"/><stop offset=".96" stop-color="#850416"/><stop offset=".98" stop-color="#9D0822"/><stop offset=".99" stop-color="#B10B2D"/></radialGradient><radialGradient id="paint1_radial" cx="0" cy="0" r="1" gradientUnits="userSpaceOnUse" gradientTransform="matrix(17.7342 0 0 17.5363 10.573 16.11)"><stop offset=".67" stop-color="#9E0425"/><stop offset=".74" stop-color="#AD092E"/><stop offset=".83" stop-color="#B70C34"/><stop offset=".93" stop-color="#BA0D36"/><stop offset="1" stop-color="#BA0D36"/></radialGradient></defs></svg>