<svg width="100" height="26" viewBox="0 0 100 26" fill="none" xmlns="http://www.w3.org/2000/svg"><g clip-path="url(#clip0)" fill-rule="evenodd" clip-rule="evenodd"><path d="M11.405 25.988l-6.43-6.24-4.193 4.16a1.3 1.3 0 00.249 1.817c.224.171.499.263.78.263h9.594z" fill="#FF4F12"/><path d="M15.55 9.36L6.22 0 1.01 5.444A3.646 3.646 0 000 7.964V23.92C0 25.069.928 26 2.073 26a1.29 1.29 0 01-.907-2.202" fill="#7800FF"/><path d="M82.033 16.22h-2.244l-2.68 2.72v-2.72h-1.897v7.493h1.897v-3.097l2.726 3.097h2.288L78.6 19.695l3.433-3.475zM21.83 18.165h-2.74v-3.323h2.74c1.386 0 2.018.665 2.018 1.662 0 .997-.632 1.661-2.017 1.661zm.06-5.105h-4.788v10.574h1.988v-3.686h2.8c2.38 0 3.946-1.224 3.946-3.444 0-2.22-1.566-3.444-3.945-3.444zm8.433 9.073c-1.114 0-2.153-.8-2.153-2.175 0-1.375 1.04-2.176 2.153-2.176 1.115 0 2.154.801 2.154 2.175 0 1.375-1.04 2.176-2.153 2.176zm0-6.133c-2.047 0-4.08 1.33-4.08 3.957 0 2.63 2.033 3.958 4.08 3.958 2.048 0 4.081-1.329 4.081-3.957 0-2.629-2.033-3.958-4.08-3.958zm8.92 6.133c-1.144 0-1.987-.831-1.987-2.175 0-1.33.873-2.176 1.987-2.176.678 0 1.265.318 1.732 1.028l1.626-.937C42.06 16.71 40.885 16 39.258 16c-2.123 0-3.93 1.57-3.93 3.957 0 2.387 1.717 3.958 3.93 3.958 1.596 0 2.665-.725 3.418-2.009l-1.566-.86c-.451.634-.933 1.087-1.867 1.087zm20.206-1.668c-.09 1.148-.317 1.405-.708 1.405-.268 0-.394-.03-.577-.078l.01 1.939s.236.072.672.072c1.611 0 2.214-1.042 2.364-3.262l.181-2.614h2.138v5.77h1.897V16.22h-5.661l-.316 4.245zm-7.462-1.505c.271-.845 1.024-1.51 2.018-1.51 1.054 0 1.762.574 1.942 1.51h-3.96zM54.065 16c-2.168 0-3.93 1.586-3.93 3.957 0 2.372 1.762 3.958 3.84 3.958 1.641 0 2.68-.619 3.433-1.903l-1.506-.755c-.467.589-.888 1.027-1.897 1.027-1.114 0-1.927-.725-2.048-1.873h5.752v-.665c0-2.19-1.506-3.746-3.644-3.746zm14.274 2.96c.27-.845 1.023-1.51 2.017-1.51 1.054 0 1.762.574 1.943 1.51h-3.96zM70.417 16c-2.169 0-3.93 1.586-3.93 3.957 0 2.372 1.761 3.958 3.84 3.958 1.64 0 2.68-.619 3.432-1.903l-1.505-.755c-.467.589-.889 1.027-1.898 1.027-1.114 0-1.927-.725-2.047-1.873h5.751v-.665c0-2.19-1.505-3.746-3.643-3.746zm-27.145 1.882h2.229v5.83h1.897v-5.83h2.228V16.22h-6.354v1.662z" fill="#000"/><path d="M85.893 22.133c-1.115 0-2.153-.8-2.153-2.175 0-1.375 1.038-2.176 2.153-2.176 1.114 0 2.153.801 2.153 2.175 0 1.375-1.039 2.176-2.153 2.176zm0-6.133c-2.048 0-4.08 1.33-4.08 3.957 0 2.629 2.032 3.958 4.08 3.958 2.047 0 4.08-1.329 4.08-3.957 0-2.629-2.032-3.958-4.08-3.958zm11.627.22l-2.059 5.248-2.06-5.248h-2.479v7.48h1.804v-4.735l1.999 4.734h1.473l1.999-4.735V23.7H100v-7.48h-2.48z" fill="#000"/></g><defs><clipPath id="clip0"><path fill="#fff" d="M0 0h100v26H0z"/></clipPath></defs></svg>