<svg width="97" height="20" viewBox="0 0 97 20" fill="none" xmlns="http://www.w3.org/2000/svg"><path fill-rule="evenodd" clip-rule="evenodd" d="M96.97 14.39h-1.345l-.743-2.715c-.183-.583-.549-.872-1.095-.872l-1.786-.014v3.598h-1.244V5.673c.712-.075 1.722-.112 3.03-.112 1.048 0 1.787.18 2.22.545.432.36.649 1.024.649 1.984 0 .698-.126 1.226-.37 1.58-.247.354-.658.568-1.227.643v.065c.563.17.925.588 1.095 1.262l.817 2.75zM58.029 9.844v.051c.63.058 1.074.28 1.339.664.264.385.396.936.396 1.661 0 .875-.207 1.474-.624 1.794-.413.32-1.139.48-2.17.48-1.416 0-2.508-.034-3.27-.102V5.677c.677-.069 1.644-.103 2.89-.103 1.093 0 1.849.157 2.272.474.424.316.635.915.635 1.8 0 .633-.12 1.11-.353 1.433-.23.324-.604.511-1.115.562zm-8.137.051v-.051c.508-.051.885-.238 1.115-.562.234-.323.353-.8.353-1.433 0-.885-.21-1.484-.634-1.8-.424-.317-1.18-.474-2.271-.474-1.248 0-2.214.035-2.892.103v8.714c.762.068 1.854.102 3.271.102 1.03 0 1.756-.16 2.17-.48.417-.32.624-.92.624-1.794 0-.725-.133-1.276-.397-1.661s-.708-.606-1.34-.664zm-6.38 3.448l.064.974c-.763.068-2.004.102-3.723.102-.535 0-.96-.14-1.27-.422-.313-.283-.472-.664-.479-1.144V7.218c.007-.48.166-.86.478-1.143.309-.283.732-.422 1.271-.422 1.72 0 2.96.034 3.723.102l-.065.983h-3.447c-.251 0-.43.062-.536.184-.105.123-.156.33-.156.627V9.29h3.662v1.025H39.37v2.223c0 .296.05.504.156.626.105.123.282.184.536.184h3.447v-.007zm-7.08-7.665v.003H35.09l-1.244 6.668c-.024.12-.054.3-.088.545-.017.117-.03.22-.042.308l-.033.237h-.288a24.766 24.766 0 00-.19-1.1l-1.234-6.24a.546.546 0 00-.17-.295.45.45 0 00-.308-.12h-1.346c-.26 0-.42.137-.478.416l-1.244 6.226c-.085.38-.15.752-.19 1.113h-.288c-.078-.6-.129-.97-.153-1.114L26.55 5.68h-1.332l1.661 8.35c.058.245.217.368.478.368h1.41a.526.526 0 00.322-.11.415.415 0 00.17-.272l1.244-6.403.19-.983h.264c.034.218.092.544.177.983l1.257 6.403c.061.252.224.378.492.378h1.397c.25 0 .417-.122.491-.367l1.66-8.347h.002v-.003zM46.797 9.39h1.76c.603 0 1.02-.095 1.25-.282.23-.19.346-.558.346-1.106 0-.538-.126-.899-.376-1.08-.251-.18-.712-.272-1.383-.272h-1.597v2.74zm1.848 4.027l-1.848-.014v-3.04h1.773c.681.01 1.15.126 1.403.354.254.225.383.654.383 1.287 0 .565-.122.94-.359 1.13-.24.188-.692.283-1.352.283zm8.048-4.027h-1.76V6.65h1.597c.671 0 1.132.092 1.383.273.251.18.377.54.377 1.079 0 .548-.116.915-.346 1.106-.23.187-.648.282-1.251.282zm-1.76 4.013l1.848.014c.661 0 1.112-.095 1.353-.283.237-.19.359-.565.359-1.13 0-.633-.129-1.062-.383-1.287-.254-.228-.722-.343-1.404-.354h-1.773v3.04zm8.052-1.64h3.458l.807 2.628h1.295l-2.73-8.374c-.05-.228-.203-.34-.454-.34H64.08c-.24 0-.397.112-.465.34L60.9 14.39h1.282l.803-2.628zm3.132-1.1l-1.02-3.308a21.715 21.715 0 01-.109-.354l-.026-.088v-.001c-.034-.116-.06-.205-.082-.265h-.34l-.2.708-1.02 3.309h2.797zm10.704 3.235v-8.22h-1.245V11.8c0 .395.024.847.065 1.351h-.19a97.63 97.63 0 00-.197-.435 20.18 20.18 0 00-.233-.494 10.57 10.57 0 01-.177-.371l-2.627-5.783c-.126-.263-.309-.392-.553-.392h-1.156c-.319 0-.478.167-.478.494v8.22h1.258V8.063c0-.47-.024-.875-.065-1.212h.177c.04.15.213.555.515 1.212L74.62 14c.111.262.29.391.542.391h1.193c.309 0 .465-.166.465-.493zm4.58-3.537h-.98c.058.353.088.653.088.895v3.131H79.25V5.673h1.258v2.68c0 .36-.03.69-.088.983h.98l2.552-3.663h1.37l-2.454 3.56a4.28 4.28 0 01-.53.607v.037c.235.2.438.422.604.657l2.54 3.853h-1.397L81.4 10.36zm5.672 4.03h1.257V5.677h-1.257v8.714zm6.688-4.674H92V6.664c.32-.01.906-.014 1.76-.014.62 0 1.048.106 1.278.317.23.208.346.61.346 1.198 0 .6-.115 1.004-.346 1.219-.23.214-.658.326-1.278.333z" fill="#000"/><path fill-rule="evenodd" clip-rule="evenodd" d="M96.97 14.39h-1.345l-.743-2.715c-.183-.583-.549-.872-1.095-.872l-1.786-.014v3.598h-1.244V5.673c.712-.075 1.722-.112 3.03-.112 1.048 0 1.787.18 2.22.545.432.36.649 1.024.649 1.984 0 .698-.126 1.226-.37 1.58-.247.354-.658.568-1.227.643v.065c.563.17.925.588 1.095 1.262l.817 2.75zM58.029 9.844v.051c.63.058 1.074.28 1.339.664.264.385.396.936.396 1.661 0 .875-.207 1.474-.624 1.794-.413.32-1.139.48-2.17.48-1.416 0-2.508-.034-3.27-.102V5.677c.677-.069 1.644-.103 2.89-.103 1.093 0 1.849.157 2.272.474.424.316.635.915.635 1.8 0 .633-.12 1.11-.353 1.433-.23.324-.604.511-1.115.562zm-8.137.051v-.051c.508-.051.885-.238 1.115-.562.234-.323.353-.8.353-1.433 0-.885-.21-1.484-.634-1.8-.424-.317-1.18-.474-2.271-.474-1.248 0-2.214.035-2.892.103v8.714c.762.068 1.854.102 3.271.102 1.03 0 1.756-.16 2.17-.48.417-.32.624-.92.624-1.794 0-.725-.133-1.276-.397-1.661s-.708-.606-1.34-.664zm-6.38 3.448l.064.974c-.763.068-2.004.102-3.723.102-.535 0-.96-.14-1.27-.422-.313-.283-.472-.664-.479-1.144V7.218c.007-.48.166-.86.478-1.143.309-.283.732-.422 1.271-.422 1.72 0 2.96.034 3.723.102l-.065.983h-3.447c-.251 0-.43.062-.536.184-.105.123-.156.33-.156.627V9.29h3.662v1.025H39.37v2.223c0 .296.05.504.156.626.105.123.282.184.536.184h3.447v-.007zm-7.08-7.665v.003H35.09l-1.244 6.668c-.024.12-.054.3-.088.545-.017.117-.03.22-.042.308l-.033.237h-.288a24.766 24.766 0 00-.19-1.1l-1.234-6.24a.546.546 0 00-.17-.295.45.45 0 00-.308-.12h-1.346c-.26 0-.42.137-.478.416l-1.244 6.226c-.085.38-.15.752-.19 1.113h-.288c-.078-.6-.129-.97-.153-1.114L26.55 5.68h-1.332l1.661 8.35c.058.245.217.368.478.368h1.41a.526.526 0 00.322-.11.415.415 0 00.17-.272l1.244-6.403.19-.983h.264c.034.218.092.544.177.983l1.257 6.403c.061.252.224.378.492.378h1.397c.25 0 .417-.122.491-.367l1.66-8.347h.002v-.003zM46.797 9.39h1.76c.603 0 1.02-.095 1.25-.282.23-.19.346-.558.346-1.106 0-.538-.126-.899-.376-1.08-.251-.18-.712-.272-1.383-.272h-1.597v2.74zm1.848 4.027l-1.848-.014v-3.04h1.773c.681.01 1.15.126 1.403.354.254.225.383.654.383 1.287 0 .565-.122.94-.359 1.13-.24.188-.692.283-1.352.283zm8.048-4.027h-1.76V6.65h1.597c.671 0 1.132.092 1.383.273.251.18.377.54.377 1.079 0 .548-.116.915-.346 1.106-.23.187-.648.282-1.251.282zm-1.76 4.013l1.848.014c.661 0 1.112-.095 1.353-.283.237-.19.359-.565.359-1.13 0-.633-.129-1.062-.383-1.287-.254-.228-.722-.343-1.404-.354h-1.773v3.04zm8.052-1.64h3.458l.807 2.628h1.295l-2.73-8.374c-.05-.228-.203-.34-.454-.34H64.08c-.24 0-.397.112-.465.34L60.9 14.39h1.282l.803-2.628zm3.132-1.1l-1.02-3.308a21.715 21.715 0 01-.109-.354l-.026-.088v-.001c-.034-.116-.06-.205-.082-.265h-.34l-.2.708-1.02 3.309h2.797zm10.704 3.235v-8.22h-1.245V11.8c0 .395.024.847.065 1.351h-.19a97.63 97.63 0 00-.197-.435 20.18 20.18 0 00-.233-.494 10.57 10.57 0 01-.177-.371l-2.627-5.783c-.126-.263-.309-.392-.553-.392h-1.156c-.319 0-.478.167-.478.494v8.22h1.258V8.063c0-.47-.024-.875-.065-1.212h.177c.04.15.213.555.515 1.212L74.62 14c.111.262.29.391.542.391h1.193c.309 0 .465-.166.465-.493zm4.58-3.537h-.98c.058.353.088.653.088.895v3.131H79.25V5.673h1.258v2.68c0 .36-.03.69-.088.983h.98l2.552-3.663h1.37l-2.454 3.56a4.28 4.28 0 01-.53.607v.037c.235.2.438.422.604.657l2.54 3.853h-1.397L81.4 10.36zm5.672 4.03h1.257V5.677h-1.257v8.714zm6.688-4.674H92V6.664c.32-.01.906-.014 1.76-.014.62 0 1.048.106 1.278.317.23.208.346.61.346 1.198 0 .6-.115 1.004-.346 1.219-.23.214-.658.326-1.278.333z" fill="#000"/><path d="M9.687 0c5.343 0 9.687 4.355 9.687 9.733 0 5.369-4.334 9.733-9.687 9.733C4.344 19.466 0 15.111 0 9.733S4.334 0 9.687 0z" fill="#F8DA5E"/><path d="M6.004 11.595a.667.667 0 01-.099-.14.465.465 0 01-.03-.168c0-.06.01-.119.03-.169.02-.05.05-.099.099-.138l5.557-5.604a.7.7 0 01.138-.099c.05-.02.108-.03.168-.03.059 0 .118.01.167.03.05.02.1.05.139.1l3.316 3.342c.04.04.07.089.099.138.02.05.03.11.03.169 0 .06-.01.119-.03.169a.326.326 0 01-.099.138l-5.557 5.604a.413.413 0 01-.306.119.412.412 0 01-.306-.119l-3.316-3.342z" fill="#fff"/><path d="M6.004 11.595a.667.667 0 01-.099-.14.465.465 0 01-.03-.168c0-.06.01-.119.03-.169.02-.05.05-.099.099-.138l5.557-5.604a.7.7 0 01.138-.099c.05-.02.108-.03.168-.03.059 0 .118.01.167.03.05.02.1.05.139.1l3.316 3.342c.04.04.07.089.099.138.02.05.03.11.03.169 0 .06-.01.119-.03.169a.326.326 0 01-.099.138l-5.557 5.604a.413.413 0 01-.306.119.412.412 0 01-.306-.119l-3.316-3.342z" stroke="#030608" stroke-width="1.5" stroke-miterlimit="10"/><path d="M9.86 14.983c-.039.039-.087.068-.135.097a.49.49 0 01-.328 0 .32.32 0 01-.136-.097L3.83 9.517a.425.425 0 01-.125-.3c0-.117.048-.223.125-.3l3.252-3.261c.038-.039.087-.068.135-.097a.49.49 0 01.328 0 .32.32 0 01.135.097l5.432 5.467a.425.425 0 01.126.3.425.425 0 01-.126.3l-3.251 3.26z" fill="#fff"/><path d="M9.86 14.983c-.039.039-.087.068-.135.097a.49.49 0 01-.328 0 .32.32 0 01-.136-.097L3.83 9.517a.425.425 0 01-.125-.3c0-.117.048-.223.125-.3l3.252-3.261c.038-.039.087-.068.135-.097a.49.49 0 01.328 0 .32.32 0 01.135.097l5.432 5.467a.425.425 0 01.126.3.425.425 0 01-.126.3l-3.251 3.26z" stroke="#030608" stroke-width="1.5" stroke-miterlimit="10"/><path d="M10.776 12.946a.31.31 0 00.308-.31.308.308 0 10-.615 0c0 .171.137.31.307.31zm2.696-6.341l-.87-.874-2.392 2.404.87.874 2.392-2.404z" fill="#000"/></svg>