<svg width="108" height="14" viewBox="0 0 108 14" fill="none" xmlns="http://www.w3.org/2000/svg"><path d="M107.226.925a2.663 2.663 0 00-3.736 0l-1.314 1.3-1.314-1.3a2.662 2.662 0 00-3.736 0 2.592 2.592 0 000 3.695l1.314 1.3 3.736 3.695 5.05-4.995a2.592 2.592 0 000-3.695z" fill="#FF5B00"/><path d="M98.44 5.92l-1.314-1.299a2.593 2.593 0 010-3.695 2.663 2.663 0 013.736 0l1.314 1.3-3.736 3.695z" fill="#FF8150"/><path d="M8.995 6.965c0 1.948-1.778 2.93-4.288 2.93C1.587 9.898.348 8.449 0 6.5h2.528c.192 1.12.871 1.518 2.127 1.518 1.272 0 1.813-.448 1.813-1.224 0-.57-.279-1.018-1.395-1.018H3.469V3.88h1.342c1.046 0 1.36-.328 1.36-.93 0-.656-.418-1.121-1.639-1.121-.854 0-1.62.24-1.813 1.224H.192C.506 1.38 1.656 0 4.567 0c2.406 0 4.114.965 4.114 2.776 0 .965-.488 1.552-1.186 1.897.942.379 1.5 1.19 1.5 2.292zm12.708.397v4.724H19.21V9.689h-7.2v2.397H9.518V7.362h1.708c.332-.276.541-.827.697-1.793l.871-5.362h7.165v7.155h1.744zm-4.237 0V2.535h-2.545L14.4 5.69c-.123.776-.297 1.293-.541 1.672h3.608zm15.158-2.414c0 2.914-1.883 4.949-4.376 4.949-1.36 0-2.354-.586-3.033-1.483V14h-2.493V.207h2.493v1.327C25.878.62 26.907 0 28.25 0c2.457 0 4.375 2.017 4.375 4.948zm-2.527 0c0-1.552-1.029-2.603-2.423-2.603-1.395 0-2.459 1.051-2.459 2.603 0 1.569 1.064 2.604 2.459 2.604 1.377-.001 2.423-1.035 2.423-2.604zM43.443.207l-.018 9.482h-2.493V8.414c-.663.896-1.656 1.483-2.998 1.483-2.51 0-4.376-2.035-4.376-4.949 0-2.931 1.9-4.948 4.359-4.948 1.36 0 2.37.62 3.033 1.534V.207h2.493zM40.95 4.948c0-1.552-1.064-2.603-2.459-2.603s-2.423 1.051-2.423 2.603c0 1.569 1.045 2.604 2.423 2.604 1.395-.001 2.459-1.035 2.459-2.604zm12.256 2c0 1.948-1.516 2.742-3.487 2.742h-5.073V.207h4.637c1.918 0 3.434.5 3.434 2.397 0 .983-.523 1.5-1.237 1.965 1.116.327 1.726 1.172 1.726 2.38zm-4.131-4.81H47.14v1.828h1.935c.854 0 1.133-.31 1.133-.896 0-.622-.279-.932-1.133-.932zm1.604 4.586c0-.673-.314-1-1.151-1h-2.389V7.76h2.389c.871 0 1.15-.346 1.15-1.035zm3.257-1.776c0-2.81 2.11-4.948 5.003-4.948 2.335 0 4.41 1.396 4.776 3.81h-2.563c-.297-1.034-1.203-1.534-2.214-1.534-1.517 0-2.494 1.104-2.476 2.672-.018 1.587.994 2.673 2.459 2.673 1.028 0 1.934-.517 2.231-1.552h2.563c-.383 2.5-2.493 3.828-4.794 3.828-2.876 0-4.985-2.138-4.985-4.949zM73.887.207v9.482h-2.493V6.327l.157-2.81-3.956 6.172h-2.877V.207h2.493v3.362l-.122 2.776 3.94-6.138h2.858zM83.3 2.535h-2.963V9.69h-2.493V2.535h-2.946V.207h8.401l.001 2.328zM93.445.207v9.482h-2.493V6.327l.158-2.81-3.957 6.172h-2.877V.207h2.493v3.362l-.122 2.776 3.94-6.138h2.858z" fill="#000"/></svg>