<svg width="86" height="38" viewBox="0 0 86 38" fill="none" xmlns="http://www.w3.org/2000/svg"><path fill-rule="evenodd" clip-rule="evenodd" d="M83.564 17.475c1.103.033 1.218.017 1.86-.016.197-.828.395-1.655.576-2.466-1.646.877-3.456.414-4.888.083-.378-.083-2.534-.53-2.534-.513.264-1.324.527-2.665.774-3.989.428.083.855.166 1.283.265 1.317.265 2.534.563 3.127.728.148-.645.28-1.274.428-1.92-.626-.099-1.843-.347-3.176-.628-.428-.083-.872-.182-1.3-.265l.642-3.326c.477.1.938.198 1.415.281 1.382.282 2.78.613 3.39.811.148-.645.296-1.307.444-1.97a95.826 95.826 0 01-3.456-.645c-1.3-.264-2.583-.513-3.883-.76-.05.562-.297 2.051-.527 3.342-.379 2.052-.757 4.088-1.119 6.14-.148.843-.46 2.316-.691 3.326 1.267.231 2.518.48 3.785.744.707.116 2.748.745 3.85.778zM9.331 14.678c-.362.067-.724.15-1.086.216l-.89-4.37c.429-.082.84-.165 1.268-.264 1.481-.281 2.682.38 2.93 1.738.246 1.34-.692 2.366-2.222 2.68zm.378-8.042c.198 1.042-.477 1.837-1.497 2.019l-1.169.248c-.23-1.125-.46-2.267-.69-3.392 1.2-.447 3.043-.563 3.356 1.125zm1.037 2.102c.806-.513 1.399-1.573 1.185-2.797C11.108 1.19 2.156 4.286 0 6.189c.313.662.625 1.34.954 2.019.692-.976 2.09-1.572 3.061-1.986.148.646.297 1.308.428 1.887.412 1.903.823 3.806 1.234 5.692.28 1.258.56 2.764.626 3.343A134.53 134.53 0 019.84 16.4c3.011-.596 4.36-2.632 4.015-4.733-.28-1.754-1.662-2.747-3.11-2.93zm59.357 5.825c-1.201.132-1.925.347-3.686.115-4.13-.53-6.714-3.756-6.434-7.48.296-3.706 3.554-6.486 8.063-5.907 1.58.215 2.436.579 3.505 1.042-.115.828-.23 1.639-.362 2.466-.839-.927-1.958-1.39-3.274-1.572-3.012-.38-5.332 1.539-5.579 4.203-.247 2.665 1.63 4.998 4.328 5.345.642.083 1.201.083 1.53-.082.066-.546.148-1.092.214-1.639.181-1.29.214-1.837.247-2.4.774.1 1.564.216 2.337.332-.115.562-.247 1.158-.444 2.432l-.445 3.145zm-23.746-3.36c.56 0 1.12.017 1.695.033 2.485.05 4.591-1.969 4.723-4.5.132-2.533-1.876-4.767-4.542-4.816a60.772 60.772 0 00-1.76-.033c-.05 3.094-.083 6.205-.116 9.316zm-2.37 1.82c.05-.595.1-2.118.1-3.408V3.409c0-1.29-.034-2.83-.1-3.409 1.498 0 2.995.017 4.493.05 3.867.099 6.862 3.193 6.615 6.785-.246 3.59-3.373 6.304-6.928 6.222-1.398-.017-2.78-.033-4.18-.033zm-6.977-3.26c.05 1.291.148 2.814.214 3.393-.79.033-1.58.066-2.37.116 0-.596-.033-2.102-.099-3.393-.098-2.068-.214-4.137-.312-6.205-.066-1.291-.181-2.83-.247-3.393.856-.05 1.695-.082 2.55-.116-.016.563 0 2.119.05 3.41.05 2.051.132 4.12.214 6.189zm-15.485-2.1c.395-.05.773-.1 1.168-.149 1.432-.165 2.37-1.175 2.238-2.499-.115-1.158-1.119-2.135-2.896-1.936-.362.033-.691.083-1.053.132l.543 4.452zm.428 3.409c.164 1.274.345 2.714.477 3.293-.79.1-1.596.199-2.386.314-.017-.595-.198-2.035-.379-3.31-.28-2.068-.56-4.153-.856-6.221-.18-1.275-.395-2.797-.543-3.36 1.218-.165 2.42-.314 3.637-.463 3.242-.38 5.167 1.142 5.365 3.409.18 2.019-.988 3.194-2.32 3.79 1.662 1.522 3.406 3.723 5.101 5.08a166.64 166.64 0 00-2.979.265c-1.02-1.093-2.896-3.161-4.048-4.766-.164.033-.329.082-.477.099-.263.033-.543.066-.823.1.082.578.148 1.174.23 1.77zM6.369 27.47a48.96 48.96 0 00-1.663.53c10.17-5.13 24.389-8.34 40.137-8.34 15.749 0 29.983 3.193 40.137 8.34a48.862 48.862 0 00-1.662-.53c-10.944-3.723-24.19-5.907-38.475-5.907-14.284 0-27.531 2.184-38.474 5.907z" fill="#BE1622"/><path d="M32.57 34.434v-1.47h.61c.584 0 1.192 0 1.46.024v-.892c-.268.025-.877.049-1.46.049h-1.632c.024.24.049.915.049 1.494v2.77c0 .386-.025 1.037-.05 1.495h1.705c.584 0 1.193 0 1.437.024v-.892c-.244.024-.852.024-1.437.024h-.682v-1.807h.56c.585 0 1.12 0 1.388.024v-.867c-.268.024-.803.024-1.388.024h-.56zM39.46 38c1.12 0 1.9-.699 1.9-1.71 0-1.663-2.07-1.76-2.07-2.772 0-.482.317-.747.804-.747.462 0 .9.169 1.096.53V32.17c-.366-.048-.658-.169-1.096-.169-1.096 0-1.826.602-1.826 1.639 0 1.662 2.02 1.686 2.02 2.77 0 .483-.316.82-.827.82-.536 0-1.145-.265-1.388-.627v1.205c.463.048.803.193 1.388.193zM66 32.096c-.243.025-.9.049-1.485.049h-1.948c-.584 0-1.217-.025-1.485-.049v.892c.268 0 .9-.024 1.485-.024h.463c.024.313.024.723.024 1.084v2.338c0 .554 0 1.228-.024 1.493h1.07a21.35 21.35 0 01-.048-1.493v-3.422h.463c.584 0 1.242 0 1.485.024v-.892z" fill="#BE1622"/><path fill-rule="evenodd" clip-rule="evenodd" d="M47.764 32.024c1.728 0 3.067 1.325 3.067 2.988 0 1.639-1.339 2.964-3.068 2.964-1.704 0-3.043-1.325-3.043-2.964-.024-1.663 1.315-2.988 3.044-2.988zm2.045 2.964c0 1.18-.901 2.145-2.045 2.145-1.145 0-2.046-.94-2.021-2.145 0-1.18.876-2.12 2.02-2.12 1.145 0 2.046.94 2.046 2.12zm5.624 1.422c0 .578 0 1.205.024 1.47h-1.07c.023-.266.048-.892.048-1.47v-2.771c0-.579 0-1.254-.049-1.494h1.51c1.339 0 2.094.747 2.094 1.734 0 .892-.536 1.374-1.145 1.567.222.262.45.56.684.864.43.563.879 1.147 1.337 1.57h-1.315c-.39-.507-1.144-1.519-1.534-2.29-.073.024-.146.024-.194.024h-.366v.796h-.024zm.487-1.518h-.511v-1.976h.438c.755 0 1.12.482 1.12.988 0 .578-.414.988-1.047.988zM25.047 36.41c0 .578 0 1.205.024 1.47H24c.024-.266.049-.892.049-1.47v-2.771c0-.579-.025-1.254-.049-1.494h1.51c1.339 0 2.093.747 2.093 1.734 0 .892-.535 1.374-1.144 1.567.222.262.45.56.683.864.432.563.88 1.147 1.338 1.57h-1.315c-.414-.507-1.144-1.519-1.534-2.29-.073.024-.146.024-.219.024h-.34v.796h-.025zm.487-1.518h-.511v-1.976h.438c.755 0 1.12.482 1.12.988 0 .578-.438.988-1.047.988z" fill="#BE1622"/></svg>