<svg width="60" height="20" viewBox="0 0 60 20" fill="none" xmlns="http://www.w3.org/2000/svg"><path d="M31.454 19.65h4.211v-7.921h9.004V7.897h-9.004V3.832h9.213V0H31.454v19.65zM49.414 0h-3.838v3.832h3.838V0zM28.5 7.22a7.048 7.048 0 00-2.327-1.566c-.907-.374-1.908-.56-2.978-.56-1.07 0-2.094.186-3.001.56A7.252 7.252 0 0017.82 7.22a6.881 6.881 0 00-1.536 2.383 7.708 7.708 0 00-.558 2.944c0 1.074.186 2.08.582 2.967.395.911.907 1.706 1.582 2.36a7.61 7.61 0 002.396 1.565c.93.374 1.954.561 3.048.561a7.91 7.91 0 002.21-.327 7.478 7.478 0 002-.935 7.516 7.516 0 001.63-1.472 7.646 7.646 0 001.116-1.939l.116-.304h-4.35l-.07.094a2.457 2.457 0 01-1.117.84 4.564 4.564 0 01-1.512.258c-.86 0-1.605-.234-2.21-.678a3.052 3.052 0 01-1.117-1.565h10.446v-.187c.046-.234.07-.467.07-.678v-.63a7.92 7.92 0 00-.535-2.898c-.373-.887-.861-1.682-1.513-2.36zm-8.422 3.598c.14-.608.488-1.098 1.023-1.496a3.557 3.557 0 012.094-.677c.791 0 1.489.21 2.047.654.489.374.815.888.954 1.519h-6.118zM15.006 8.2c.395-.747.581-1.588.581-2.476 0-.77-.14-1.518-.395-2.22a5.096 5.096 0 00-1.21-1.822c-.535-.514-1.233-.911-2.047-1.215C11.097.14 10.12 0 9.003 0H0v3.832h8.631c.861 0 1.559.187 2.048.514.465.327.697.84.697 1.542 0 .654-.232 1.145-.72 1.495-.49.35-1.187.538-2.025.538h-4.42V3.972C2.024 4.462.349 6.262 0 8.505v11.144h9.003c1.117 0 2.094-.14 2.909-.443.814-.304 1.512-.701 2.047-1.215a4.81 4.81 0 001.21-1.823c.279-.7.395-1.448.395-2.22 0-.91-.186-1.728-.581-2.476a4.234 4.234 0 00-1.42-1.659 4.356 4.356 0 001.443-1.612zm-4.35 7.104c-.49.35-1.187.514-2.025.514h-4.42v-4.066h4.42c.861 0 1.559.187 2.048.514.465.328.697.841.697 1.542 0 .678-.232 1.145-.72 1.496z" fill="#80C342"/><path d="M55.859 5.467V2.383h-4.072v3.084h-6.211V19.65h4.071V9.088H60V5.467h-4.141z" fill="#80C342"/><path d="M56.185 15.63c-.21-.28-.326-.653-.326-1.097v-5.28a5.525 5.525 0 00-4.072 4.158v1.706c0 1.332.466 2.43 1.373 3.27.908.842 2.257 1.262 4.025 1.262H60v-3.621h-2.792c-.488 0-.814-.14-1.023-.397z" fill="#80C342"/></svg>