<svg width="69" height="18" viewBox="0 0 69 18" fill="none" xmlns="http://www.w3.org/2000/svg"><path d="M24.326 6.584c-1.558-2.087-4.801-2.589-7.193-1.579-2.395.984-3.853 3.41-3.83 5.995-.026 2.57 1.292 5.023 3.714 5.995 2.758 1.093 6.346.411 8.133-2.062l-1.817-1.39c-.9 1.084-1.891 1.87-3.362 1.854-1.985.032-4.108-1.376-4.108-3.505h9.843c.066-1.838-.188-3.842-1.38-5.308zM15.88 9.937c.28-4.488 7.279-4.852 7.284 0H15.88zM31.438 4.21c.19-1.568 1.4-1.637 2.732-1.579L34.157.525c-3.316-.212-5.05.899-5.18 4.307h-2.66v2.107h2.644v10.275h2.411V6.938h2.796V4.83h-2.785c.01-.224.029-.431.054-.621zm22.488 2.374c-1.557-2.087-4.8-2.589-7.193-1.579-2.394.984-3.853 3.41-3.83 5.995-.026 2.57 1.292 5.023 3.715 5.995 2.757 1.094 6.346.411 8.133-2.062l-1.819-1.39c-.899 1.084-1.891 1.87-3.361 1.854-1.984.032-4.108-1.376-4.108-3.505h9.843c.066-1.838-.188-3.842-1.38-5.308zm-8.462 3.353c.278-4.488 7.278-4.852 7.283 0h-7.283zM69 11.025c-.006-1.56-.392-3.21-1.38-4.441-1.558-2.088-4.8-2.59-7.193-1.58-2.394.985-3.853 3.41-3.83 5.996-.027 2.57 1.291 5.023 3.713 5.994 2.759 1.094 6.347.411 8.135-2.061l-1.82-1.392c-.9 1.085-1.89 1.87-3.36 1.855-1.985.033-4.11-1.375-4.11-3.505H69v-.866zm-9.843-1.088c.28-4.488 7.279-4.853 7.284 0h-7.285zM41.623 4.564c-1.486.014-3.033.838-3.705 2.186V4.83h-2.412v12.383h2.412v-6.195c-.134-2.839 1.782-4.364 4.415-3.773V4.631a3.6 3.6 0 00-.709-.068v.001zM8.282 8.384c.895-.326 2.848-1.158 2.848-3.686 0-2.527-1.843-4.194-5.2-4.193H0v16.708l5.93-.003c3.137 0 5.93-1.544 5.93-4.662 0-2.824-2.322-4.158-3.578-4.166v.001zM2.237 2.558l3.887-.006c1.832 0 2.532 1.228 2.532 2.434 0 1.516-1.033 2.432-3.225 2.432H2.235V2.56h.002zm3.566 12.605H2.24v-5.69h3.563c2.821 0 3.564 1.527 3.564 2.845 0 2.709-2.797 2.845-3.563 2.845z" fill="#000"/></svg>