<svg width="89" height="24" viewBox="0 0 89 24" fill="none" xmlns="http://www.w3.org/2000/svg"><path fill-rule="evenodd" clip-rule="evenodd" d="M1.214 7.939v8.336H0V7.939h1.214zm3.776 8.84c.602 1.214 1.202 1.48 1.483 1.48.28 0 .88-.266 1.483-1.48.562-1.134.944-2.785.944-4.672 0-1.888-.382-3.538-.944-4.672-.602-1.215-1.203-1.48-1.483-1.48s-.881.265-1.483 1.48c-.563 1.134-.945 2.784-.945 4.672 0 1.887.382 3.538.945 4.672zm-2.158-4.672c0 4.056 1.63 7.343 3.64 7.343 2.012 0 3.642-3.287 3.642-7.343s-1.63-7.344-3.641-7.344-3.641 3.288-3.641 7.344zm20.339 6.471c1.157-1.608 1.91-3.893 1.91-6.471 0-2.579-.753-4.863-1.91-6.47-1.159-1.612-2.647-2.461-4.157-2.461-1.511 0-2.999.849-4.158 2.46-1.157 1.608-1.91 3.892-1.91 6.47 0 2.58.753 4.864 1.91 6.472 1.16 1.61 2.647 2.46 4.158 2.46 1.51 0 2.998-.85 4.157-2.46zm-4.157 3.651c4.021 0 7.282-4.532 7.282-10.122s-3.26-10.122-7.282-10.122-7.282 4.532-7.282 10.122 3.26 10.122 7.282 10.122zM76.864 1.19H40.859c-6.032 0-10.923 4.8-10.923 10.718 0 5.92 4.89 10.718 10.923 10.718h36.005c6.032 0 10.922-4.799 10.922-10.718S82.896 1.191 76.864 1.191zM40.859 0c-6.703 0-12.136 5.332-12.136 11.908 0 6.577 5.433 11.909 12.136 11.909h36.005C83.566 23.817 89 18.485 89 11.908 89 5.332 83.566 0 76.864 0H40.859z" fill="#FF95D5"/><path d="M41.84 16.425c2.124 0 3.687-1.4 3.874-3.285h-1.308c-.136 1.418-1.292 2.134-2.55 2.134-1.715 0-2.905-1.116-2.905-3.267v-.133c0-2.051 1.24-3.318 2.855-3.318 1.223 0 2.243.517 2.464 1.9h1.393c-.272-2.217-2.005-3.05-3.857-3.05-2.379 0-4.316 1.8-4.316 4.468v.133c0 2.717 1.87 4.418 4.35 4.418zm9.245-1.151c-1.818 0-2.906-1.283-2.906-3.284v-.133c0-2 1.122-3.301 2.906-3.301 1.767 0 2.905 1.3 2.905 3.318v.116c0 1.967-1.121 3.284-2.905 3.284zm-.017 1.15c2.514 0 4.383-1.816 4.383-4.45v-.134c0-2.617-1.852-4.435-4.366-4.435-2.515 0-4.367 1.834-4.367 4.452v.133c0 2.55 1.818 4.435 4.35 4.435zm11.809-7.702V7.555h-7.154v1.167h2.872v7.553h1.41V8.722h2.872zm12.09 7.703c1.173 0 2.43-.767 2.923-1.617v1.467h1.41v-8.72h-1.41v1.368c-.526-.85-1.41-1.518-2.786-1.518-2.243 0-4.061 1.884-4.061 4.552v.133c0 2.734 1.8 4.335 3.924 4.335zm.154-1.15c-1.41 0-2.617-1.05-2.617-3.252v-.133c0-2.134 1.105-3.334 2.736-3.334 1.614 0 2.701 1.033 2.701 3.284v.133c0 2.234-1.308 3.301-2.82 3.301z" fill="#FF95D5"/><path d="M65.524 10.989V7.522h-1.41v8.72h1.41V12.35h.496l3.446 3.891h1.716l-4.129-4.618 3.806-4.101h-1.648l-3.142 3.467h-.545z" fill="#FF95D5"/></svg>