<svg width="116" height="32" viewBox="0 0 116 32" fill="none" xmlns="http://www.w3.org/2000/svg"><path d="M15.4 13.9a.681.681 0 00-.681.677.681.681 0 001.363 0 .681.681 0 00-.682-.676zm0 2.911a.681.681 0 00-.681.677.681.681 0 001.363 0 .681.681 0 00-.682-.677z" fill="#B32442"/><path d="M18.967 15.722c0-1.134-.423-2.57-.807-3.332-.511-1.013-.945-1.649-1.713-2.412a8.15 8.15 0 00-2.215-1.613c-.073-.036-.14-.071-.209-.107-.754-.376-2.2-.819-3.304-.819h-.648c-.228 0-.545.32-.545.544v16.124c0 .234.331.544.594.544h.52c1.198 0 2.61-.432 3.417-.834l.175-.092c.95-.493 1.548-.951 2.288-1.694 1.328-1.328 2.447-3.378 2.447-6.024v-.285zm-1.318.646c0 1.929-1.12 3.821-2.093 4.793-.4.397-.832.748-1.319 1.058-.219.138-.452.27-.686.387-.589.295-1.854.722-2.725.722V8.757c.885 0 2.068.417 2.69.707.244.117.488.254.726.402.472.305.92.661 1.275 1.018a7.585 7.585 0 011.426 1.999c.297.62.71 1.822.71 2.707v.773l-.004.005zM7.58 8.859c-.316 0-.647.275-.647.544v13.28c0 .234.33.544.593.544h.107c.288 0 .594-.305.594-.595V9.454c0-.325-.311-.595-.647-.595zm-5.193 4.508c-.316 0-.647.213-.647.412v4.523c0 .178.33.412.594.412h.107c.287 0 .593-.234.593-.453v-4.437c0-.244-.311-.453-.647-.453v-.005zm2.599-2.463c-.302 0-.647.274-.647.544v9.133c0 .3.316.595.594.595h.077c.331 0 .623-.295.623-.646v-8.98a.642.642 0 00-.647-.646zM25.65 4.951l-.02-.025c-.068-.056-.132-.117-.205-.168a1.914 1.914 0 00-.209-.143c-.078-.045-.15-.091-.224-.132a3.952 3.952 0 00-.204-.107h-.02l-.02-.015a5.23 5.23 0 00-1.104-.402 5.969 5.969 0 00-2.419-.097c-.38.066-.754.173-1.1.32-.209.092-.418.2-.613.321a3.551 3.551 0 00-1.294 1.4 3.28 3.28 0 00-.204.519c-.112.391-.2 1.073-.04 1.689.37 1.41 1.504 2.238 2.896 2.391.988.107 2.025-.117 2.803-.677.069-.05.137-.106.2-.168.058-.056.117-.106.165-.167l.02-.016a.753.753 0 00.185-.427.713.713 0 00-.04-.234.708.708 0 00-.126-.204.553.553 0 00-.224-.142c-.087-.03-.18-.036-.282-.03a.986.986 0 00-.287.076 1.09 1.09 0 00-.253.152l-.02.016-.053.04-.053.041-.044.036-.054.035c-.73.473-1.873.57-2.628.092a2.085 2.085 0 01-.677-.712 1.963 1.963 0 01-.189-.458 1.738 1.738 0 01.37-1.66c.063-.07.126-.142.204-.208.073-.07.156-.132.229-.188.083-.056.175-.112.263-.163h.01c.238-.122.5-.224.768-.29.283-.071.575-.112.872-.122a4.466 4.466 0 011.932.361c.043.02.092.041.145.067l.064.03-1.962.845-.019.01-.02.01-1.435.62-.039.016a.832.832 0 00-.297.229.686.686 0 00-.15.371v.138c0 .03.014.06.024.096l.02.036c.019.04.038.087.072.127.03.036.068.071.102.102v.015a.655.655 0 00.385.112c.14 0 .306-.03.491-.112l.876-.376.04-.016.043-.02 3.217-1.389c.423-.183.837-.488.52-.997-.107-.183-.277-.336-.408-.453l.02.005zm-.108 20.729l-3.216-1.39-.044-.02-.04-.015-.875-.377a1.218 1.218 0 00-.492-.112c-.15 0-.282.04-.38.112l-.019.015a.534.534 0 00-.175.229l-.02.036a.312.312 0 00-.024.096.328.328 0 000 .138c.015.132.059.26.151.376a.78.78 0 00.297.23l.039.015 1.43.62.02.01.02.01 1.96.845-.063.03a1.466 1.466 0 01-.146.067l-.15.061a4.37 4.37 0 01-.867.24 4.29 4.29 0 01-.915.06 4.135 4.135 0 01-.87-.122 3.701 3.701 0 01-.77-.29h-.019c-.092-.056-.18-.107-.263-.168a2.682 2.682 0 01-.229-.188 1.622 1.622 0 01-.204-.209 1.706 1.706 0 01-.165-.218 1.956 1.956 0 01-.21-.463 1.793 1.793 0 01-.068-.504c0-.163.024-.32.073-.473a1.967 1.967 0 01.487-.855c.112-.122.238-.224.38-.316.754-.478 1.897-.381 2.627.092l.054.036.044.03.053.046.054.04.02.016c.077.061.165.117.252.153.093.04.195.07.288.076.097.01.194 0 .282-.03a.568.568 0 00.35-.346.736.736 0 00.039-.235.516.516 0 00-.058-.229.903.903 0 00-.127-.198l-.02-.015a2.355 2.355 0 00-.165-.168c-.063-.056-.131-.117-.2-.168-.773-.56-1.815-.784-2.802-.677-1.392.153-2.526.977-2.896 2.392-.16.615-.078 1.297.039 1.689a3.152 3.152 0 00.535 1.043c.127.173.278.32.438.468.166.142.34.28.53.402a4.743 4.743 0 001.713.641 5.32 5.32 0 001.208.076 5.718 5.718 0 001.211-.173 5.33 5.33 0 001.105-.402l.02-.01h.014a4.022 4.022 0 00.428-.24c.073-.045.146-.096.21-.142.073-.05.136-.106.204-.167l.02-.02c.13-.128.301-.275.413-.464.321-.503-.092-.809-.516-.992v.005zM42.6 14.302c-1.755 0-2.86 1.168-2.86 2.878 0 1.563 1.174 2.635 2.892 2.635.723.01 1.47-.156 1.985-.623.612-.555-.152-1.348-.82-.77-.35.261-.778.362-1.193.362-.778 0-1.39-.467-1.588-1.146h3.651c.622 0 .691-.284.691-.623-.01-1.614-.994-2.709-2.749-2.709l-.01-.004zm-1.603 2.41c.152-.825.755-1.375 1.612-1.375 1.032 0 1.501.555 1.58 1.375h-3.192zm15.423-2.305c-.198 0-.373.05-.483.179L53.012 17.9v-2.993c0-.326-.318-.5-.621-.5-.304 0-.627.179-.627.509v4.285c0 .344.327.51.627.51.207 0 .373-.051.483-.17l2.93-3.314v2.97c0 .344.326.509.625.509.3 0 .627-.17.627-.51v-4.29c0-.325-.323-.499-.627-.499h-.009zm4.49 2.42l1.787-1.366c.755-.573.032-1.416-.69-.885L60.1 15.984l-.677.605v-1.646c0-.71-1.248-.71-1.248 0v4.244c0 .344.295.532.612.532.318 0 .636-.188.636-.532v-1.283l.502-.335 2.008 1.93c.659.623 1.547-.206.82-.894l-1.843-1.774v-.004zm7.567-2.42c-.35 0-.557.17-.613.417a2.804 2.804 0 00-1.57-.522c-1.612 0-2.699 1.127-2.699 2.74 0 1.614.963 2.773 2.556 2.773.548 0 1.207-.17 1.709-.54.046.26.253.44.612.44.36 0 .627-.22.627-.541v-4.226c0-.326-.254-.541-.627-.541h.005zm-.626 3.557c-.254.531-.921.802-1.57.802-.867 0-1.438-.679-1.438-1.71s.613-1.7 1.534-1.7c.57 0 1.197.293 1.469.802v1.801l.005.005zm6.857-3.557H70.54c-.778 0-.843 1.054 0 1.054h1.47v3.745c0 .344.326.509.625.509.3 0 .627-.17.627-.51v-3.748h1.446c.866 0 .856-1.05 0-1.05zm3.638-.105c-1.755 0-2.86 1.168-2.86 2.878 0 1.563 1.175 2.635 2.897 2.635.723.01 1.469-.156 1.985-.623.612-.555-.152-1.348-.82-.77-.35.261-.778.362-1.197.362-.779 0-1.391-.467-1.59-1.146h3.653c.621 0 .69-.284.69-.623-.013-1.614-.999-2.709-2.753-2.709l-.005-.004zm-1.603 2.41c.152-.825.756-1.375 1.612-1.375 1.032 0 1.501.555 1.58 1.375h-3.192zm9.46 1.605c-.35.334-.834.467-1.271.467-.986 0-1.644-.678-1.644-1.71 0-1.03.635-1.75 1.602-1.75.438 0 .921.137 1.262.508.502.564 1.359-.105.825-.687-.59-.646-1.285-.843-2.087-.843-1.722 0-2.86 1.095-2.86 2.782 0 1.686 1.152 2.731 2.892 2.731.788 0 1.557-.238 2.128-.834.553-.573-.203-1.283-.838-.665h-.01zm14.515.183c-.363 0-.649.248-.649.614 0 .367.286.605.649.605.387 0 .631-.247.631-.605 0-.357-.248-.614-.631-.614zm4.675-4.198c-.493 0-1.087.123-1.589.467-.055-.238-.253-.362-.58-.362-.396 0-.636.197-.636.532v5.994c0 .344.309.532.622.532s.613-.188.613-.532v-1.595a3.18 3.18 0 001.611.482c1.589 0 2.653-1.137 2.653-2.814 0-1.61-1.068-2.7-2.694-2.7v-.004zm.009 4.464c-.668 0-1.349-.312-1.579-.857v-1.733c.271-.522.898-.825 1.482-.825.921 0 1.534.67 1.534 1.66 0 1.044-.571 1.75-1.437 1.75v.005zm8.004-4.359a.625.625 0 00-.58.362l-1.469 3.149-1.912-3.14c-.119-.206-.35-.375-.58-.375-.396 0-.764.407-.571.824l2.381 3.97-.341.614c-.253.449-.677.596-1.073.596-.856 0-.856 1.054 0 1.054.986 0 1.746-.353 2.174-1.155l2.542-5.12c.157-.417-.193-.783-.571-.783v.004zm-64.686.289a.534.534 0 00-.479-.289.533.533 0 00-.478.289l-2.124 4.24c-.152.417.198.779.571.779a.627.627 0 00.58-.362l1.244-2.663a.237.237 0 01.424 0l1.243 2.663a.62.62 0 00.58.362c.374 0 .723-.362.571-.78l-2.127-4.239h-.005zm-10.463 3.877c-.087-.05-.106-.036-.106-.137.065-2.292-.023-4.455-.004-6.747 0-.325-.25-.6-.585-.66-.843-.146-1.621.129-2.372.463-2.215.986-4.034 2.828-4.605 5.134a33.579 33.579 0 00-.401 1.814c-.014.074-.079.12-.157.124-.483.037-.925.495-1.188.88-.28.413-.336.93-.336 1.412 0 .816 1.225.839 1.225.027 0-.339.055-.595.143-.765a.78.78 0 01.695-.403h7.161c.217 0 .429.1.548.27.143.202.194.65.194.87 0 .812 1.266.812 1.266 0 0-.687-.253-1.374-.806-1.832-.207-.174-.442-.312-.672-.454v.005zm-1.308-.183c0 .092-.078.165-.175.165h-5.167c-.097 0-.161-.082-.152-.174.11-1.063.318-2.154.884-3.117.535-.912 1.34-1.663 2.252-2.236.34-.216.705-.404 1.073-.578.318-.151.7-.353 1.069-.27.147.032.22.142.22.284v5.93l-.004-.004zm53.877-1.563l1.787-1.366c.755-.573.032-1.416-.69-.885l-1.912 1.408-.677.605v-1.646c0-.71-1.248-.71-1.248 0v4.244c0 .344.295.532.613.532s.635-.188.635-.532v-1.283l.502-.335 2.008 1.93c.659.623 1.548-.206.825-.894l-1.843-1.774v-.004zm7.562-2.42c-.35 0-.557.17-.612.417a2.806 2.806 0 00-1.57-.522c-1.612 0-2.7 1.127-2.7 2.74 0 1.614.963 2.773 2.557 2.773.548 0 1.206-.17 1.713-.54.046.26.253.44.612.44.36 0 .622-.22.622-.541v-4.226c0-.326-.249-.541-.622-.541zm-.626 3.557c-.253.531-.921.802-1.57.802-.866 0-1.437-.679-1.437-1.71s.613-1.7 1.534-1.7c.57 0 1.197.293 1.468.802v1.801l.005.005z" fill="#B32442"/></svg>