<svg width="99" height="30" viewBox="0 0 99 30" fill="none" xmlns="http://www.w3.org/2000/svg"><path fill-rule="evenodd" clip-rule="evenodd" d="M18.31 0C8.206 0 0 5.972 0 13.347c0 3.075 1.423 5.918 3.83 8.176L.124 30l8.68-5.26c2.777 1.226 6.028 1.937 9.507 1.937 10.104 0 18.31-5.972 18.31-13.348C36.62 5.972 28.414 0 18.31 0zm24.442 10.166c.756-.409 1.652-.498 2.443-.213l.492-2.577c-1.863-.267-2.97.693-3.462 1.297l-.263.302.298-1.564h-2.39l-1.792 9.366h2.39l.931-4.816a2.664 2.664 0 011.353-1.795zm8.242-2.897c2.249 0 3.883 1.617 3.9 3.839a4.363 4.363 0 01-.333 1.901h-7.152l.017.107c.088 1.084.88 1.742 2.11 1.742.843 0 1.739-.302 2.407-.8l1.932.587c-1.124 1.51-3.25 2.31-4.797 2.31-1.265 0-2.337-.498-3.057-1.368-.738-.907-1.002-2.133-.756-3.448.51-2.684 3.075-4.87 5.729-4.87zm-3.241 3.91h4.892l-.017-.107c-.106-.853-.773-1.724-2.074-1.724-1.353 0-2.32.907-2.723 1.689l-.078.142zM64.7 8.353c-.563-.693-1.494-1.084-2.566-1.084-1.265 0-2.214.55-2.794 1.03l-.21.178.79-4.105h-2.39l-2.39 12.44h2.39l.932-4.869c.28-1.404 1.405-2.435 2.67-2.435.528 0 .967.196 1.266.551.316.391.44.96.316 1.582l-1.002 5.154h2.39l1.125-5.865c.193-1.013.017-1.902-.527-2.577zm9.576 0l.176-.924V7.41h2.372l-1.792 9.366h-2.39l.194-.924-.211.16a4.478 4.478 0 01-2.742.924c-1.142 0-2.16-.462-2.846-1.315-.738-.924-1.02-2.186-.773-3.501.51-2.684 2.987-4.87 5.535-4.87.984 0 1.774.32 2.337.942l.14.16zm-3.69 6.434c1.424 0 2.865-1.209 3.146-2.648.123-.711-.035-1.422-.457-1.938-.404-.515-1.002-.782-1.687-.782-1.459 0-2.847 1.191-3.11 2.666-.14.729.017 1.44.421 1.938.387.497.984.764 1.687.764zm9.138 1.208c.58.622 1.37.942 2.337.942 2.548 0 5.025-2.168 5.552-4.852.246-1.315-.052-2.595-.79-3.5-.686-.836-1.705-1.298-2.847-1.298-.984 0-1.915.302-2.741.924l-.211.16.193-.924h-2.39l-2.53 13.17h2.372l.914-4.746.14.124zm.421-3.91c.264-1.44 1.687-2.648 3.128-2.648.686 0 1.3.267 1.687.747.422.497.58 1.208.44 1.937-.282 1.475-1.688 2.666-3.128 2.666-.686 0-1.283-.285-1.687-.782-.422-.498-.58-1.209-.44-1.92zM96.47 8.353l.175-.924V7.41H99l-1.792 9.366h-2.373l.194-.924-.211.16a4.477 4.477 0 01-2.741.924c-1.142 0-2.162-.462-2.847-1.315-.738-.924-1.02-2.186-.773-3.501.51-2.684 2.987-4.87 5.535-4.87.984 0 1.775.32 2.337.942l.14.16zm-3.69 6.434c1.423 0 2.863-1.209 3.144-2.648.124-.711-.034-1.422-.456-1.938-.404-.515-1.001-.782-1.687-.782-1.458 0-2.847 1.191-3.11 2.666-.14.729.017 1.44.422 1.938.386.497.984.764 1.686.764zM22.474 8.335c-.562-.693-1.494-1.084-2.566-1.084-1.265 0-2.231.551-2.811 1.031l-.299.231.826-4.212h-2.337L12.88 16.813h2.354l.932-4.887c.28-1.44 1.44-2.489 2.74-2.489.546 0 1.002.214 1.301.587.334.409.457.995.334 1.635L19.54 16.83h2.337l1.143-5.9c.193-1.05 0-1.938-.545-2.596zM7.328 14.858c.966 0 1.88-.551 2.478-1.458l1.968.623c-1.09 1.795-3.023 2.95-4.938 2.95-1.248 0-2.337-.48-3.058-1.369-.738-.924-1.019-2.15-.755-3.465.51-2.684 3.093-4.888 5.763-4.888 1.898 0 3.357 1.155 3.76 2.95l-2.248.622c-.281-.906-1.02-1.475-1.95-1.475-1.424 0-2.865 1.244-3.129 2.737-.158.747 0 1.475.44 2.009.386.497.984.764 1.669.764zm10.49 7.109c2.302 0 4.305-1.315 5.325-3.235h2.442c-1.142 3.217-4.217 5.527-7.784 5.527s-6.625-2.31-7.784-5.527h2.477c1.02 1.92 3.023 3.235 5.324 3.235zM29.925 7.234c2.25 0 3.901 1.617 3.919 3.856a4.254 4.254 0 01-.334 1.848h-7.257l.017.143c.088 1.12.897 1.795 2.162 1.795.843 0 1.757-.303 2.442-.8l1.898.586c-1.142 1.511-3.268 2.293-4.797 2.293-1.248 0-2.337-.48-3.058-1.368-.738-.925-1.019-2.15-.755-3.466.51-2.684 3.092-4.888 5.763-4.888zm-3.25 3.785l-.106.213h5.026l-.018-.16c-.088-.888-.79-1.777-2.126-1.777-1.388 0-2.355.924-2.776 1.724z" fill="#636AFF"/><path d="M19.91 7.251c1.071 0 2.003.391 2.565 1.084.545.658.738 1.547.545 2.595l-1.143 5.9H19.54l1.002-5.171c.123-.64 0-1.226-.334-1.635-.299-.373-.755-.587-1.3-.587-1.3 0-2.46 1.049-2.741 2.489l-.932 4.887h-2.354L15.288 4.3h2.337L16.8 8.513l.299-.23c.58-.48 1.546-1.032 2.811-1.032zM9.806 13.4c-.598.907-1.512 1.458-2.478 1.458-.685 0-1.283-.267-1.67-.764-.439-.534-.597-1.262-.439-2.009.264-1.493 1.705-2.737 3.128-2.737.931 0 1.67.57 1.95 1.475l2.25-.622c-.404-1.795-1.863-2.95-3.76-2.95-2.671 0-5.255 2.204-5.764 4.888-.264 1.315.017 2.541.755 3.465.72.889 1.81 1.369 3.058 1.369 1.915 0 3.848-1.155 4.938-2.95L9.806 13.4zm13.337 5.332c-1.02 1.92-3.023 3.235-5.325 3.235s-4.305-1.315-5.324-3.235h-2.477c1.16 3.217 4.217 5.527 7.784 5.527s6.642-2.31 7.784-5.527h-2.442z" fill="#FFF400"/><path fill-rule="evenodd" clip-rule="evenodd" d="M29.925 7.234c2.25 0 3.901 1.617 3.919 3.856a4.254 4.254 0 01-.334 1.848h-7.257l.017.143c.088 1.12.897 1.795 2.162 1.795.843 0 1.757-.303 2.442-.8l1.898.586c-1.142 1.511-3.268 2.293-4.797 2.293-1.248 0-2.337-.48-3.058-1.368-.738-.925-1.019-2.15-.755-3.466.51-2.684 3.092-4.888 5.763-4.888zm-3.356 3.998l.106-.213c.421-.8 1.388-1.724 2.776-1.724 1.335 0 2.038.889 2.126 1.777l.018.16h-5.026z" fill="#FFF400"/></svg>