<svg width="82" height="12" viewBox="0 0 82 12" fill="none" xmlns="http://www.w3.org/2000/svg"><path fill-rule="evenodd" clip-rule="evenodd" d="M0 6c0-3.307 2.58-6 5.75-6s5.75 2.692 5.75 6c0 3.309-2.58 6-5.75 6S0 9.309 0 6zm5.751 4.35c1.677 0 2.804-1.748 2.804-4.35 0-2.6-1.127-4.348-2.804-4.348-1.679 0-2.806 1.747-2.806 4.35 0 2.6 1.127 4.348 2.806 4.348v.001zM60.695 0a.38.38 0 01.21.098.38.38 0 01.093.173v1.173a.354.354 0 01-.351.349l-3.102-.007v8.422c0 .034 0 .067.002.1v1.349a.417.417 0 01-.106.242.382.382 0 01-.24.101h-2.406a.354.354 0 01-.348-.35v-1.168c.005-.091.007-.182.007-.274V1.893l-.007-.107h-.106l-3.016.006a.365.365 0 01-.223-.1.41.41 0 01-.104-.226V.352a.357.357 0 01.354-.35L60.695 0zm10.196 11.9a.416.416 0 00.106-.245v-1.098a.352.352 0 00-.344-.348h-4.545V6.117h3.09a.354.354 0 00.354-.347V4.697a.375.375 0 00-.1-.239.406.406 0 00-.233-.105H66.11l-.002-2.558h2.343c.006 0 .01 0 .016-.002a.134.134 0 01.014-.002h2.172a.353.353 0 00.344-.348V.344a.416.416 0 00-.106-.243c-.099-.099-.24-.1-.24-.1h-7.308s-.142.001-.24.1a.408.408 0 00-.106.235v11.316c.003.19.155.344.347.348h7.306s.142-.002.24-.1zM75.163 0s.137.002.233.1a.42.42 0 01.099.217l.002 11.337a.35.35 0 01-.335.346h-2.33s-.137-.002-.232-.1a.416.416 0 01-.103-.24V.355c0-.194.153-.354.34-.356h2.326zM22.999 11.78a.21.21 0 00-.033-.107l-2.5-4.724s1.933-.765 1.91-3.291C22.355 1.555 20.625 0 18.317 0h-4.47a.356.356 0 00-.349.356v11.32a.375.375 0 00.098.217c.089.09.215.104.238.106h2.394a.353.353 0 00.343-.346l-.004-10.02v-.045h.586c1.367.006 3.088.357 3.134 2.173.045 1.79-1.599 2.502-2.94 2.573a.216.216 0 00-.21.217c0 .04.014.075.033.107l1.835 3.633c.819 1.463 1.71 1.739 2.802 1.707h.978A.217.217 0 0023 11.78v-.001zM37.765.1c.054.06.09.134.1.213l1.131 11.345c.01.101-.012.18-.062.237-.057.065-.157.102-.276.104h-2.422s-.14-.002-.237-.1a.41.41 0 01-.104-.221l-.737-7.502-2.588 7.668v.002h-.001a.216.216 0 01-.206.152V12h-1.521c-.302-.006-.413-.148-.517-.414l-2.551-7.592-.948 7.534c-.04.295-.257.468-.613.471h-1a.217.217 0 01-.215-.218L26.44.364c.032-.233.188-.361.44-.361L29.28 0a.362.362 0 01.225.1c.031.032.054.07.07.106l2.53 7.5L34.585.39c.11-.28.252-.388.528-.388L37.541 0a.363.363 0 01.223.1zM51.28 12a.219.219 0 00.211-.268l-.015-.043-.004-.014a.241.241 0 00-.01-.027L47.605.218a.346.346 0 00-.075-.12.363.363 0 00-.21-.098h-2.412c-.21 0-.305.072-.395.312L40.52 11.695a.198.198 0 00-.02.085c0 .122.097.219.217.219V12h1.298c.227-.005.345-.11.434-.387l1.028-2.943h3.23a.214.214 0 00.089-.023.217.217 0 00.107-.231c-.365-1.095-1.131-1.508-1.927-1.508h-.898l1.359-3.912 1.322 3.912h-.004l.751 2.203-.002.004.39 1.157A2.58 2.58 0 0050.325 12h.956v-.001zm30.683-.33c.02.032.034.069.034.11a.216.216 0 01-.211.218h-.97c-1.083.032-1.967-.244-2.78-1.708L76.03 6.285a.351.351 0 01-.033-.144c0-.064.02-.12.043-.162l2.907-4.86h.002l.46-.77S79.602 0 79.921 0h1.4a.216.216 0 01.211.218.21.21 0 01-.034.11l-2.922 4.898 3.387 6.443z" fill="#F39325"/></svg>