<svg width="58" height="52" viewBox="0 0 58 52" fill="none" xmlns="http://www.w3.org/2000/svg"><path d="M52.876 39.791c1.417.269 3.115.543 4.282-.338 1.177-.888 1.043-2.634.077-3.553-.835-.79-2.803-1.162-2.903-2.233-.155-1.66 2.347-.987 3.155-.328l-.013-1.284c-2.16-.465-5.203-.242-4.595 2.541.34 1.56 2.163 1.722 3.078 2.784.397.462.562 1.198.064 1.64-.819.73-2.158.046-3.124-.574l-.02 1.346zm-36.835-7.805c.216.416.654.436.763.927v6.97h4.884v-1.421c-.87.188-.119-.158-.917.76l-2.29-.006v-7.233h-2.44v.003zm6.134 0c.216.416.654.436.762.927v6.97h4.884v-1.421c-.87.188-.118-.158-.917.76l-2.29-.006v-7.233h-2.44v.003zM0 32.427c.34 0 1.023-.005 1.13.362l2.093 7.093H4.43l1.862-5.12 1.855 5.12 1.316-.002 1.657-7.897h-.948l-1.234 5.64-2.015-5.64h-.53l-2.061 5.759-1.649-5.759L0 31.986v.441zm34.272 6.169c-.868-1.459.992-2.388 2.416-2.386l-.002 2.397c-.673.58-2.007.674-2.414-.01zm.294-4.253c-.006-2.078 2.114-2.083 2.12-.005l.002 1.04c-7.12-.071-4.833 6.59.008 3.82v.684h1.785v-5.554c-.008-3.486-5.18-3.194-5.976.01l2.06.005z" fill="#000"/><path d="M52.876 39.791c1.417.269 3.115.543 4.282-.338 1.177-.888 1.043-2.634.077-3.553-.835-.79-2.803-1.162-2.903-2.233-.155-1.66 2.347-.987 3.155-.328l-.013-1.284c-2.16-.465-5.203-.242-4.595 2.541.34 1.56 2.163 1.722 3.078 2.784.397.462.562 1.198.064 1.64-.819.73-2.158.046-3.124-.574l-.02 1.346zm-38.234-7.805v7.896h-1.68v-6.951a.604.604 0 00-.074-.276c-.216-.223-.76-.184-1.054-.23v-.44h2.808zm16.129 0v7.896h-1.68v-6.951a.604.604 0 00-.074-.276c-.217-.223-.76-.184-1.054-.23v-.44h2.808zm18.97 7.899s-.005-3.525.02-5.258c.168-2.492-2.488-1.503-2.859.772l-.002 4.483h-1.788c-.005-1.707-.013-3.512.013-5.247.17-2.515-2.54-1.482-2.867.84v4.404H40.57l-.005-6.953a.636.636 0 00-.07-.277c-.216-.222-.767-.193-1.06-.24v-.428h2.82v1.613c1.108-2.29 4.148-2.445 4.593.083 1.157-2.564 4.684-2.59 4.691.638l.01 5.565h-1.808v.005zM16.513 43.83c.216.416.654.437.762.927v6.97h4.884v-1.42c-.87.188-.118-.158-.917.758l-2.29-.005v-7.232h-2.44v.002zm8.673-.015v7.896h-1.68V44.76a.602.602 0 00-.074-.276c-.216-.223-.76-.184-1.054-.23v-.44h2.808zm11.618 2.545c-.005-2.757 3.012-2.762 3.02-.007l-3.02.008zm4.601 3.856c-2.648.741-4.706.279-4.696-3.12l4.838-.01c-.013-4.942-6.61-4.322-6.605-.105.01 5.949 5.304 5.117 6.463 3.726v-.491zm-11.002 1.505h1.046l2.898-7.89h-.933l-2.172 5.672-2.473-5.673h-2.55l-.002.437c.293.046.84.007 1.058.23l3.128 7.224zm14.583-7.147c3.364-.214 3.601 2.967.002 2.753l-.002-2.753zm-2.914-.738v.43c.294.047.843.008 1.056.233.044.08.07.173.072.315l.003 6.913h1.783l.005-3.53c.404 0 .695-.003.814-.003.129.155 2.125 3.504 2.125 3.504l1.834-.005c-.45-.718-1.728-2.82-2.205-3.553.575-.124 1.693-.829 1.69-2.19-.003-1.015-1.195-2.264-3.88-2.107l-3.297-.008zm-30.067-.174c-2.09.006-3.777 1.875-3.772 4.178.005 2.304 1.703 4.166 3.79 4.16 2.089-.005 3.776-1.874 3.77-4.178-.004-2.303-1.702-4.165-3.788-4.16zm.018 7.68c-1.044.002-1.894-1.56-1.899-3.491-.005-1.93.837-3.496 1.883-3.5 1.043-.002 1.893 1.56 1.899 3.492.002 1.931-.84 3.496-1.883 3.499zm2.483-35.206c0-2.794 1.298-5.082 4.31-6.352-1.901-1.048-2.726-2.606-2.726-4.48C16.09 2.128 18.594 0 21.953 0c3.55 0 5.768 1.715 6.15 5.56h-3.581c-.127-1.524-1.046-2.288-2.473-2.288-1.49 0-2.44.857-2.44 2.287 0 1.493 1.141 2.763 3.898 2.763h.443v2.954h-.443c-3.612 0-5.451 1.841-5.451 4.511 0 2.32 1.458 3.78 3.802 3.78 2.378 0 4.055-1.208 4.374-3.43h-2.504v-3.05h8.176v3.05h-2.186c-.508 4.668-3.677 6.702-7.858 6.702-4.312-.002-7.354-2.543-7.354-6.703z" fill="#000"/><path d="M43.517 8.588c0 2.797-1.298 5.082-4.31 6.352 1.902 1.049 2.726 2.606 2.726 4.48 0 3.177-2.504 5.304-5.863 5.304-3.55 0-5.768-1.714-6.149-5.56h3.58c.127 1.527 1.047 2.289 2.474 2.289 1.489 0 2.44-.858 2.44-2.288 0-1.493-1.142-2.763-3.898-2.763h-.443v-2.954h.443c3.611 0 5.45-1.841 5.45-4.511 0-2.319-1.457-3.78-3.802-3.78-2.377 0-4.057 1.208-4.374 3.429h2.504v3.05h-8.174V8.587h2.187c.508-4.668 3.676-6.703 7.86-6.703 4.307 0 7.35 2.54 7.35 6.703z" fill="#000"/></svg>