<svg width="104" height="18" viewBox="0 0 104 18" fill="none" xmlns="http://www.w3.org/2000/svg"><path fill-rule="evenodd" clip-rule="evenodd" d="M8.756.895C4.395.895.87 4.517.87 9c0 4.483 3.525 8.105 7.886 8.105h86.488c4.361 0 7.886-3.622 7.886-8.105 0-4.483-3.525-8.105-7.886-8.105H8.756zM0 9c0-4.977 3.914-9 8.756-9h86.488C100.086 0 104 4.023 104 9s-3.914 9-8.756 9H8.756C3.914 18 0 13.977 0 9z" fill="#000"/><path d="M93.541 12.564c1.915 0 3.467-1.595 3.467-3.564 0-1.968-1.552-3.563-3.467-3.563S90.074 7.032 90.074 9c0 1.969 1.552 3.564 3.467 3.564z" fill="#E01414"/><path d="M12.273 4.88c2.08 0 3.114.984 3.114 2.941 0 2.009-1.147 3.02-3.442 3.02H9.928v2.76H8.919V4.879h3.354zm-.39 4.988c1.638 0 2.458-.673 2.458-2.034 0-1.322-.732-1.996-2.194-1.996H9.928v4.03h1.954zm4.614 3.72V6.901h.946v1.011a2.2 2.2 0 01.844-.83 2.5 2.5 0 011.261-.31c.315 0 .567.039.757.13v1.062a2.568 2.568 0 00-.946-.194c-.542 0-.996.22-1.362.674-.365.453-.542 1.062-.542 1.827v3.33h-.958v-.013zm10.501-.843c-.655.648-1.5.96-2.559.96-1.046 0-1.904-.325-2.56-.96-.655-.648-.983-1.477-.983-2.527 0-1.024.328-1.866.984-2.5.655-.636 1.513-.96 2.56-.96 1.046 0 1.903.324 2.558.96.656.634.984 1.476.984 2.5 0 1.05-.328 1.892-.983 2.527zm-2.546.039c.731 0 1.336-.233 1.815-.713.48-.48.706-1.088.706-1.853 0-.751-.24-1.36-.706-1.827-.479-.466-1.084-.7-1.815-.7-.744 0-1.35.234-1.828.7-.48.467-.706 1.076-.706 1.827 0 .765.24 1.374.706 1.853.466.48 1.084.713 1.828.713zm7.855.933c-.996 0-1.79-.31-2.37-.933-.593-.622-.883-1.477-.883-2.553 0-1.05.29-1.892.883-2.514.58-.622 1.361-.933 2.32-.933.983 0 1.752.298 2.307.882v-3.37h.945v9.318h-.945v-.79c-.53.582-1.286.893-2.257.893zm.076-.933c.428 0 .832-.09 1.235-.285a2.18 2.18 0 00.933-.868V8.819a2.46 2.46 0 00-.97-.83 2.83 2.83 0 00-1.224-.298c-.68 0-1.235.22-1.664.674-.428.454-.643 1.063-.643 1.84 0 .791.215 1.413.643 1.88.416.479.984.7 1.69.7zm7.35.934c-.795 0-1.425-.22-1.879-.648-.454-.428-.68-1.18-.68-2.242V6.902h.945v3.835c0 1.374.605 2.06 1.803 2.06.769 0 1.45-.35 2.055-1.062V6.902h.945v6.686h-.945v-.842c-.63.648-1.374.972-2.244.972zm7.98-.014c-1.072 0-1.904-.31-2.522-.933-.617-.622-.92-1.477-.92-2.54 0-1.05.315-1.879.958-2.514.643-.622 1.488-.933 2.547-.933a3.65 3.65 0 011.538.324c.48.22.857.518 1.147.881l-.668.674a2.396 2.396 0 00-.87-.7 2.537 2.537 0 00-1.147-.272c-.757 0-1.362.234-1.816.687-.453.454-.668 1.076-.668 1.84 0 .778.215 1.387.656 1.853.441.467 1.034.687 1.765.687a2.7 2.7 0 001.223-.272c.365-.181.655-.415.882-.7l.681.674a3.081 3.081 0 01-1.172.907 3.919 3.919 0 01-1.614.337zm6.544.026c-.706 0-1.198-.181-1.475-.544-.278-.363-.416-.933-.416-1.71V7.82h-1.072V6.9h1.072V4.27h.945V6.9h2.307v.92h-2.307v3.551c0 .531.076.894.227 1.114.151.22.441.324.883.324.428 0 .82-.064 1.185-.207v.933c-.366.13-.82.194-1.35.194zm6.733-.103V4.918h1.008v7.75h4.968v.959H60.99zm7.375 0V4.918h1.046v8.709h-1.046zm9.431-8.708h1.134l-3.794 8.812h-.58l-3.783-8.812h1.135l2.181 5.248.731 1.84.77-1.827 2.206-5.261zm2.458 8.708V4.918h5.762v.96h-4.754v2.94h4.01v.96h-4.01v2.877h5.006v.959h-6.014v.012z" fill="#000"/></svg>