<svg width="71" height="22" viewBox="0 0 71 22" fill="none" xmlns="http://www.w3.org/2000/svg"><mask id="mask0_7705_48038" style="mask-type:alpha" maskUnits="userSpaceOnUse" x="0" y="3" width="19" height="19"><path d="M9.467 22c5.228 0 9.466-4.221 9.466-9.429 0-5.207-4.238-9.428-9.466-9.428C4.238 3.143 0 7.364 0 12.57 0 17.78 4.238 22 9.467 22z" fill="#29B981"/></mask><g mask="url(#mask0_7705_48038)"><path d="M9.467 22c5.228 0 9.466-4.221 9.466-9.429 0-5.207-4.238-9.428-9.466-9.428C4.238 3.143 0 7.364 0 12.57 0 17.78 4.238 22 9.467 22z" fill="#29B981"/><path fill-rule="evenodd" clip-rule="evenodd" d="M8.64 5.441c-.047 0-.071-.016-.071-.049l-.362-2.955c0-.032.016-.049.048-.049.049-.016.073 0 .073.05l.361 2.93c0 .049-.016.073-.048.073zM5.703 8.958c-.032 0-.048-.008-.048-.025-.032-.016-.032-.04 0-.073l2.939-3.517c.016-.016.04-.024.072-.024.016.016.024.049.024.098L5.75 8.933l-.049.025zm0 0h-.024c-.032-.016-.048-.04-.048-.073l1.493-4.079c.033-.032.065-.04.097-.024.016 0 .024.024.024.073L5.75 8.909c0 .033-.017.049-.049.049zm1.494-4.054h-.024c-.032-.016-.049-.049-.049-.098l1.084-2.393c.032-.033.065-.04.097-.025.016 0 .024.025.024.074L7.244 4.855l-.048.049zm3.324-.61c-.017 0-.033-.009-.049-.025l-2.24-1.783c-.032-.016-.032-.04 0-.073.033-.033.057-.04.073-.025l2.24 1.783c.016.016.024.05.024.098l-.048.024zM8.64 5.44l-.047-.024c-.016-.05-.016-.082 0-.098l1.878-1.148c.032-.016.065-.008.097.025.048.048.04.073-.024.073L8.665 5.417l-.024.024zm0 0h-.023l-1.445-.537c-.032-.016-.049-.049-.049-.098.033-.032.065-.04.097-.024l1.445.537c.016 0 .024.024.024.073 0 .033-.016.05-.048.05zm1.88-1.148c-.017 0-.033-.008-.049-.024-.016 0-.024-.025-.024-.073l.964-1.783c.032-.033.064-.04.096-.025.032.033.04.057.024.074l-.963 1.807c-.016 0-.024.004-.024.012s-.008.012-.024.012zM8.28 2.511c-.049 0-.073-.025-.073-.074 0-.032.024-.049.073-.049h3.203c.032 0 .048.017.048.05 0 .048-.016.073-.048.073H8.28zm3.564 1.27c-.048 0-.072-.017-.072-.05l-.361-1.27c0-.048.016-.073.048-.073.048-.048.072-.04.072.025l.361 1.27c0 .049-.016.081-.048.097zm-1.324.512c-.017 0-.04-.016-.073-.049 0-.048.016-.073.048-.073l1.325-.513c.016-.016.04-.008.072.025 0 .049-.016.073-.048.073l-1.3.537h-.024zm-.41 2.345c-.016 0-.032-.008-.048-.025-.048 0-.048-.024 0-.073l1.71-2.857c.032-.033.064-.04.096-.025.016.017.024.041.024.074l-1.734 2.881-.048.025zm0 0c-.016 0-.032-.008-.048-.025l-1.47-1.196c-.031-.017-.031-.041 0-.074.033-.032.057-.04.073-.024l1.47 1.197c.015.016.023.049.023.097l-.048.025zm0 0h-.024c-.032 0-.048-.025-.048-.073l.41-2.345c0-.032.023-.049.072-.049.032 0 .048.025.048.073l-.41 2.345c0 .032-.016.049-.048.049zM9.797 8.64h-.024c-.032 0-.048-.024-.048-.073l.313-2.002c0-.033.024-.05.072-.05.032 0 .048.025.048.074l-.313 2.003c0 .032-.016.048-.048.048zm0 0h-.024l-2.144-.293c-.08 0-.096-.024-.048-.073 0-.033.016-.049.048-.049l2.168.293c.032.033.048.057.048.074 0 .032-.016.048-.048.048zm-2.168-.293h-.024c-.032-.032-.04-.057-.024-.073l.988-2.93c.032-.033.056-.041.072-.025.032 0 .048.024.048.073L7.677 8.298c0 .033-.016.05-.048.05zm2.168.293c-.016 0-.04-.016-.072-.048l-1.156-3.2c0-.049.016-.073.048-.073.048-.049.072-.04.072.024l1.156 3.2c0 .049-.008.081-.024.097h-.024zm-4.095.318c-.016 0-.04-.016-.072-.049 0-.049.016-.073.048-.073l1.927-.61c.048 0 .072.015.072.048.016.016.008.04-.024.073l-1.95.61zm4.818 1.49c-.017 0-.04-.017-.073-.05l-.722-1.782c-.048-.049-.04-.073.024-.073.048-.05.072-.041.072.024l.747 1.783c0 .049-.008.081-.024.098h-.024zm0 0l-.049-.025c-.016-.049-.016-.081 0-.098l2.24-1.49c.048 0 .08.009.097.025 0 .049-.008.082-.024.098l-2.24 1.465-.024.025zm2.24-1.49h-.025L9.773 8.64c-.064 0-.08-.016-.048-.048 0-.05.016-.074.048-.074l2.986.318c.033 0 .049.024.049.073 0 .033-.016.049-.049.049zm0 0c-.033 0-.057-.008-.073-.025l-.674-1.611c0-.033.016-.057.048-.074.016-.016.04-.008.072.025l.675 1.612c0 .048-.008.073-.024.073h-.025zm-.675-1.588h-.024l-1.975-.732c-.032-.016-.048-.05-.048-.098.032-.032.064-.04.096-.024l1.975.732c.016 0 .024.025.024.074 0 .032-.016.048-.048.048zm0 0h-.024c-.032-.032-.048-.057-.048-.073l.433-1.905c.016-.032.04-.049.073-.049.032 0 .048.025.048.074l-.434 1.905c0 .032-.016.048-.048.048zm.434-1.904c-.017 0-.04-.017-.073-.05l-.674-1.684c0-.05.016-.074.048-.074.016-.016.04-.008.072.025l.675 1.685c.016.032.008.065-.024.098h-.024zM10.11 6.638c-.016 0-.04-.016-.072-.05 0-.032.016-.056.048-.072l2.409-1.173c.016-.016.04-.008.072.025.016.032.008.065-.024.098l-2.409 1.172h-.024zm2.65 2.32h-.049l-2.65-2.345c-.031-.016-.031-.04 0-.073.017-.016.041-.024.073-.024l2.65 2.344c.016.016.024.04.024.073l-.049.025zm1.493.855h-.024l-1.518-.855c-.016-.016-.024-.04-.024-.073.032-.05.064-.057.097-.025l1.517.83c.016.017.016.05 0 .098-.016.016-.032.025-.048.025zm0 0c-.032 0-.048-.017-.048-.05l-.53-1.806c0-.017.016-.041.048-.074.048 0 .072.017.072.05l.53 1.806c0 .017-.016.041-.048.074h-.024zm-1.47-.855h-.072c-.032-.033-.032-.065 0-.098l.988-.952c.016-.017.04-.017.072 0 .016.032.016.057 0 .073l-.988.977zm.964-.953h-.024L12.06 7.37c-.032-.016-.048-.048-.048-.097.032-.033.064-.041.096-.025l1.662.635c.016.017.024.05.024.098 0 .016-.016.024-.048.024zm0 0c-.032 0-.056-.008-.072-.024l-1.229-2.564c0-.033.016-.057.049-.074.016-.016.04-.008.072.025l1.228 2.564c0 .033-.008.057-.024.073h-.024zm-3.926.635h-.096c-.032-.032-.032-.065 0-.097h.024c.016-.017.04-.017.072 0 .016.032.016.057 0 .073v.024zm-2.192 1.808c-.016-.017-.032-.025-.048-.025-.032-.016-.024-.049.024-.098L9.75 8.518c.016-.016.048-.008.096.025 0 .032-.008.057-.024.073l-2.144 1.807c-.016.016-.032.025-.048.025zm0 0c-.032 0-.048-.025-.048-.074V8.298c0-.048.016-.073.048-.073.048 0 .072.016.072.049v2.1c0 .05-.024.074-.072.074zm0 0c-.016 0-.024-.009-.024-.025l-1.95-1.49c-.049 0-.049-.024 0-.073 0-.016.023-.024.071-.024l1.951 1.49c.033.032.033.064 0 .097-.016.016-.032.025-.048.025zm1.253.757h-.024c-.033-.033-.04-.066-.024-.098l.867-2.54c.032-.033.056-.049.072-.049.032.016.048.05.048.098l-.867 2.54c-.032.032-.056.049-.072.049zm0 0c-.016 0-.024-.008-.024-.025l-1.253-.757c-.064 0-.072-.024-.024-.073.032-.033.064-.04.096-.024l1.253.756c.016.017.016.05 0 .098-.016.017-.032.025-.048.025zm-3.902-.196h-.024c-.032 0-.048-.024-.048-.073l.722-2.051c.016-.033.04-.05.072-.05.032.017.049.041.049.074l-.723 2.076c0 .016-.016.024-.048.024zm-.867 1.93h-.024c-.032-.033-.04-.057-.024-.074l.843-1.929c.032-.033.064-.04.096-.024.016 0 .024.024.024.073l-.867 1.93c0 .015-.016.024-.048.024zm0 0c-.016 0-.032-.009-.048-.025-.049-.049-.04-.073.024-.073l2.023-1.368c.048-.049.072-.049.072 0 .032.033.032.065 0 .098l-2.023 1.367h-.048zm2.023-1.368h-.024l-1.156-.562c-.032 0-.048-.024-.048-.073.032-.033.064-.04.096-.024l1.156.537c.032.016.048.049.048.098-.016.016-.04.024-.072.024zm-1.156-.562c-.048 0-.072-.016-.072-.049 0-.032.016-.049.048-.049l2.673-.585c.016-.017.04 0 .072.048 0 .016-.016.04-.048.074l-2.673.561zm1.156.562c-.016 0-.032-.008-.048-.024-.048-.05-.04-.074.024-.074l1.493-1.148c.016-.016.04-.008.072.025.016.032.016.057 0 .073l-1.493 1.148h-.048zm0 0c-.032 0-.048-.016-.048-.049 0-.049.016-.073.048-.073l2.746-.367c.048 0 .072.017.072.05 0 .048-.016.073-.048.073l-2.746.366h-.024zm1.999 1.245c-.016 0-.024-.008-.024-.024-.064 0-.072-.024-.024-.073l.747-1.612c.032-.033.056-.04.072-.024.032.016.048.04.048.073l-.77 1.612c0 .032-.017.048-.049.048zm0 0c-.016 0-.024-.008-.024-.024l-2-1.221c-.031-.033-.04-.065-.023-.098.016-.016.048-.016.096 0l1.975 1.221c.048.017.056.041.024.074 0 .032-.016.048-.048.048zm-1.782.318c-.032 0-.048-.016-.048-.049l-.217-1.563c0-.049.016-.073.048-.073.048 0 .072.016.072.049l.217 1.563c0 .049-.024.073-.072.073zm0 0l-2.24-.196c-.032 0-.048-.016-.048-.048 0-.05.016-.074.048-.074l2.24.196c.048 0 .072.024.072.073 0 .033-.024.049-.072.049zm0 0c-.032 0-.048-.016-.048-.049-.049-.049-.033-.073.048-.073l1.782-.342c.048-.016.072 0 .072.049 0 .016-.016.04-.048.073l-1.782.342h-.024zm1.252 1.001h-.024c-.016 0-.024-.024-.024-.073l.53-1.368c.032-.032.064-.04.096-.024.016 0 .024.024.024.073l-.53 1.368c-.016.016-.04.024-.072.024zm0 0c-.032 0-.048-.016-.048-.049 0-.049.016-.073.048-.073l1.879-.146c.032 0 .048.024.048.073.032.032.016.049-.048.049l-1.855.146h-.024zm4.384 0l-2.505-.146c-.048 0-.072-.017-.072-.05.016-.048.04-.072.072-.072l2.529.146c.032 0 .048.024.048.073 0 .033-.024.05-.072.05zm0 0c-.032 0-.048-.008-.048-.024l-.771-2.174c-.048-.049-.04-.073.024-.073.048 0 .072.008.072.024l.795 2.174c0 .049-.016.073-.048.073h-.024zm-.771-2.149c-.032 0-.048-.016-.048-.049l-.723-1.538c0-.033.016-.057.048-.073.016-.017.04-.009.073.024l.698 1.538c.016.033.008.066-.024.098h-.024zm-3.613 2.15h-.024L6.33 13.133c-.049-.033-.057-.065-.024-.098.032-.032.064-.032.096 0l1.252 1.002c.016.032.016.056 0 .073 0 .016-.016.024-.048.024zm-.94 1.025c-.031 0-.055-.016-.071-.049l-.29-2.027c-.048-.049-.032-.073.049-.073.016 0 .04.016.072.049l.289 2.051c.032.033.016.049-.048.049zm0 0h-.023l-1.614-.537c-.032 0-.048-.025-.048-.074 0-.065.024-.073.072-.024l1.638.537c.032 0 .04.025.024.073 0 .017-.016.025-.048.025zm-1.589-.537h-.072c-.016-.017-.024-.05-.024-.098l1.325-1.49c.032-.032.064-.032.096 0 .016.033.016.057 0 .074l-1.325 1.514zm-1.614-.22h-.024c-.032-.033-.04-.065-.024-.098l.65-1.44c0-.033.025-.05.073-.05.032.033.04.066.024.098l-.626 1.44c-.032.034-.057.05-.073.05zm1.566.22l-1.566-.22c-.032 0-.048-.025-.048-.073 0-.033.024-.05.073-.05l1.565.22c.032.033.048.058.048.074 0 .032-.024.049-.072.049zm-2.071 1.318l-.049-.024c-.016-.049-.008-.082.025-.098l2.07-1.294c.05-.049.073-.04.073.024.016.033.016.057 0 .073l-2.095 1.295-.024.024zm0 0h-.024c-.033-.032-.04-.057-.025-.073l.265-.88c0-.032.024-.04.073-.024.032 0 .04.025.024.074l-.265.854c0 .033-.016.05-.048.05zm.265-.879h-.025c-.064 0-.072-.024-.024-.073l.241-.684c0-.065.024-.073.073-.024.032 0 .048.024.048.073l-.265.684c0 .016-.016.024-.048.024zm1.758.904c-.016 0-.024-.004-.024-.013 0-.008-.008-.012-.024-.012 0-.049.008-.081.024-.097l1.686-.782c.048-.049.072-.04.072.025.048.049.04.073-.024.073l-1.686.806H4.98zm0 0c-.032 0-.048-.025-.048-.074l.048-1.318c0-.033.016-.05.048-.05.048 0 .072.017.072.05l-.048 1.343c0 .033-.024.049-.072.049zm0 0l-2.023-.025c-.049 0-.073-.024-.073-.073 0-.033.024-.049.073-.049l2.023.025c.048 0 .072.024.072.073 0 .033-.024.049-.072.049zm1.734-.806h-.096c-.032-.033-.032-.065 0-.098l.963-1.026c0-.048.024-.048.072 0 .032.033.032.066 0 .098l-.939 1.026zm-1.686-.513c-.032 0-.048-.016-.048-.049l-.915-1.685c-.049-.049-.04-.073.024-.073.048-.049.072-.04.072.024l.915 1.685c.048.05.04.073-.024.073 0 .017-.008.025-.024.025zm-3.01 3.639h-.025c-.032-.017-.048-.049-.048-.098l.963-2.344c0-.066.025-.074.073-.025.032.033.04.057.024.073l-.94 2.345c0 .032-.016.049-.048.049zm4.262-.757c-.016 0-.032-.008-.048-.025l-1.3-1.563c0-.049.008-.073.024-.073.016-.016.04-.016.072 0l1.3 1.563c.033.033.033.065 0 .098H6.28zm0 0c-.016 0-.04-.017-.072-.05 0-.048.024-.072.072-.072l1.59-.171c.048 0 .072.024.072.073 0 .033-.016.049-.048.049l-1.614.17zm4.384 0l-2.794-.171c-.032 0-.048-.017-.048-.049 0-.049.024-.073.072-.073l2.77.17c.048 0 .072.025.072.074 0 .032-.024.049-.072.049zm0 0c-.032 0-.048-.017-.048-.05 0-.048.016-.072.048-.072l2.698-.171c.048 0 .072.024.072.073 0 .033-.024.049-.072.049l-2.698.17zm3.3 1.44c-.032 0-.056-.008-.073-.024l-.578-1.612c-.048-.049-.04-.073.025-.073.032-.016.064-.008.096.024l.578 1.612c.048.05.04.074-.024.074h-.024zm.987 2.247c-.032 0-.048-.016-.048-.048l-1.012-2.223c0-.049.017-.081.049-.098.032 0 .056.017.072.05l1.011 2.222c0 .049-.016.073-.048.073 0 .016-.008.024-.024.024zm-9.249-2.32h-.024c-.032-.016-.048-.04-.048-.073l.602-1.368c0-.032.024-.048.073-.048.032.032.04.065.024.097l-.578 1.368c0 .016-.017.024-.049.024zM5.27 20.07h-.024c-.032 0-.048-.025-.048-.074l.433-1.172c.016-.033.048-.049.096-.049.033.033.04.065.025.098l-.434 1.172c0 .016-.016.025-.048.025zm-.458 1.172l-3.95-.025c-.048 0-.072-.024-.072-.073 0-.032.024-.049.072-.049l3.95.025c.032 0 .048.024.048.073 0 .032-.016.049-.048.049zm-3.95-.025c-.016 0-.04-.016-.072-.048 0-.05.016-.074.048-.074l4.408-1.147c.048 0 .072.016.072.048 0 .05-.016.074-.048.074L.86 21.217zm0 0H.837c-.032-.032-.048-.065-.048-.097l.458-1.368c0-.032.024-.04.072-.024.064 0 .072.024.024.073l-.434 1.368c0 .032-.016.048-.048.048zm.434-1.367l-.024-.025c-.065 0-.073-.024-.024-.073l.698-1.563c.032-.032.064-.04.096-.024.033.032.04.057.024.073l-.722 1.563c0 .033-.016.049-.048.049zm0 0c-.032 0-.056-.025-.073-.074 0-.032.025-.048.073-.048l2.023-.269c.016 0 .04.016.072.049 0 .049-.024.073-.072.073l-2.023.269zM.86 21.217l-.048-.024c-.016-.049-.016-.082 0-.098l2.48-1.636c.017-.016.041-.008.073.024.048.05.048.074 0 .074l-2.48 1.636-.025.024zm4.41-1.147h-.024l-1.927-.489c-.048-.032-.064-.057-.048-.073 0-.033.024-.049.072-.049l1.927.489c.032.016.048.04.048.073 0 .032-.016.049-.048.049zm0 0c-.048 0-.072-.017-.072-.05l-.265-4.102c0-.049.016-.073.048-.073.048 0 .072.016.072.048l.265 4.128c0 .032-.016.049-.048.049zm-1.59-2.272h-.024c-.048-.032-.056-.065-.024-.097l1.3-1.832c.017-.016.049-.024.097-.024.032.032.032.065 0 .097l-1.3 1.832c0 .016-.017.024-.049.024zm2.601-.268c-.064 0-.08-.025-.048-.074l.362-2.344c.032-.049.056-.065.072-.049.064 0 .08.016.048.049l-.385 2.369c0 .032-.016.049-.049.049zm0 0c-.016 0-.032-.008-.048-.025-.032-.016-.032-.04 0-.073l1.734-1.807c.016-.016.04-.016.073 0 .016.033.016.057 0 .073l-1.71 1.807c-.016.017-.032.025-.049.025zm1.735-1.808H7.99l-1.35-.561c-.064 0-.072-.024-.023-.073 0-.065.024-.074.072-.025l1.349.537c.016.017.024.05.024.098 0 .016-.016.024-.048.024zm0 0c-.016 0-.04-.016-.073-.048l-.385-1.588c0-.032.016-.057.048-.073.016 0 .04.016.072.049l.386 1.587c0 .05-.016.074-.048.074zm-.12 1.637H7.87c-.032 0-.048-.017-.048-.049l.12-1.66c0-.033.024-.05.073-.05.032 0 .048.025.048.074l-.12 1.636c0 .033-.017.049-.049.049zm.12-1.637h-.049c-.032-.032-.032-.064 0-.097l1.47-1.734c.032-.033.064-.033.096 0s.032.065 0 .098l-1.47 1.71-.047.024zm1.252.098c-.048 0-.072-.024-.072-.073l.217-1.807c.016-.05.04-.073.072-.073.048.032.064.057.048.073l-.217 1.831c0 .033-.016.05-.048.05zm0 0l-1.276-.098c-.033 0-.049-.024-.049-.073 0-.032.024-.049.073-.049l1.252.098c.048 0 .064.024.048.073 0 .033-.016.05-.048.05zm.53.83l-.048-.024-.53-.83c-.048-.049-.04-.073.024-.073.016-.017.04-.017.072 0l.53.83c.016.016.008.04-.024.073l-.024.024zm-1.975.709c-.032 0-.056-.008-.072-.025 0-.049.016-.073.048-.073l1.975-.732c.048-.05.072-.041.072.024.016.032.008.065-.024.098l-2 .708zm1.445-1.539c-.032 0-.048-.008-.048-.024-.016-.033-.008-.065.024-.098l1.59-.635c.032-.016.064-.008.096.025 0 .049-.016.073-.048.073l-1.59.66h-.024zm1.638-.66h-.072l-1.398-1.17c-.032-.033-.032-.065 0-.098s.064-.033.096 0l1.373 1.172c.032.033.032.065 0 .098zm0 0h-.096c0-.048.008-.08.024-.097l1.132-1.026c.016-.016.04-.016.072 0 .032.033.032.066 0 .098l-1.132 1.026zm1.397 1.1h-.097l-1.372-1.1c-.033-.032-.04-.064-.024-.097.032-.033.064-.033.096 0l1.397 1.1c.016.015.016.048 0 .097zm-2.505.39c-.016 0-.04-.016-.072-.048 0-.05.024-.073.072-.073l2.457-.391c.032 0 .048.024.048.073.032.033.016.049-.048.049l-2.457.39zm.867.88c-.016 0-.024-.008-.024-.025l-.891-.879c-.032-.032-.032-.065 0-.098.032-.032.064-.032.096 0l.867.904c.016.033.016.057 0 .073 0 .017-.016.025-.048.025zm0 0c-.016 0-.032-.008-.048-.025-.016-.016-.008-.04.024-.073l1.565-1.27c.049-.016.08-.016.097 0 .016.049.016.082 0 .098l-1.59 1.27h-.048zm2.746-.171h-.072l-1.133-1.1c-.032-.032-.032-.064 0-.097.033-.032.065-.032.097 0l1.108 1.1c.032.032.032.064 0 .097zm-1.156-1.1c-.032 0-.056-.015-.073-.048l-.24-2.125c0-.049.016-.073.048-.073.048 0 .072.016.072.049l.24 2.149c.033.033.017.049-.047.049zm.048 0h-.097c-.032-.032-.032-.064 0-.097l1.253-1.099c.032-.033.064-.033.096 0s.032.065 0 .098l-1.252 1.099zm1.204-1.098h-.024l-1.517-1.026c-.016-.016-.024-.049-.024-.098.032-.032.064-.032.096 0l1.493 1.026c.048.016.056.04.024.073 0 .017-.016.025-.048.025zm-1.517-1.026h-.024c-.016-.016-.024-.049-.024-.098l.77-1.196c0-.049.024-.049.072 0 .017 0 .025.024.025.073l-.747 1.197c-.016.016-.04.024-.072.024zm.77-1.197h-.048l-1.517-.976c-.064 0-.072-.025-.024-.074.032-.032.056-.04.072-.024l1.541.977c.017 0 .025.024.025.073l-.049.024zm.458-1.733c-.016 0-.024-.008-.024-.025-.032-.032-.04-.057-.024-.073l1.036-1.392c.016-.016.048-.025.096-.025.032.033.032.066 0 .098l-1.036 1.392c-.016.017-.032.025-.048.025zm0 0c-.032 0-.048-.017-.048-.05l-.482-2.246c0-.016.016-.04.048-.073.049 0 .073.016.073.049l.481 2.246c0 .017-.016.041-.048.074h-.024zm-1.999.781h-.024c-.048-.033-.056-.065-.024-.098l1.517-3.003c.032-.05.064-.057.097-.025.064 0 .072.025.024.073l-1.542 3.004c0 .033-.016.05-.048.05zm0 0c-.032 0-.048-.016-.048-.049-.016-.016-.008-.04.024-.073l1.999-.782c.032-.016.064-.008.096.025 0 .033-.016.065-.048.098l-1.999.781h-.024zm1.541.952h-.024c-.032 0-.048-.024-.048-.073l.482-1.734c0-.032.024-.049.072-.049.032 0 .048.025.048.074l-.481 1.734c0 .032-.016.048-.049.048zm0 0c-.048 0-.072-.016-.072-.048 0-.05.016-.074.048-.074l1.71-.268c.017 0 .04.024.073.073 0 .033-.016.049-.049.049l-1.71.268zm1.735-.268h-.097l-1.228-1.49c-.032-.016-.024-.049.024-.098.032 0 .056.009.072.025l1.229 1.465c.032.033.032.065 0 .098zm-.049 0c-.032 0-.048-.016-.048-.049l-.192-2.857c0-.05.016-.074.048-.074.048 0 .072.017.072.05l.193 2.881c0 .033-.024.049-.073.049zm1.301.83h-.024l-1.3-.83c-.033-.033-.04-.057-.025-.073.016-.05.04-.057.072-.025l1.301.83c.064 0 .072.025.024.074 0 .016-.016.024-.048.024zm0 0c-.032 0-.048-.008-.048-.024l-1.493-3.712c-.017-.017-.008-.04.024-.074.048 0 .08.017.096.05l1.47 3.687c.015.016.007.04-.025.073h-.024zm-2.24 1.66c-.032 0-.048-.007-.048-.024l-.77-2.222c0-.032.015-.065.047-.098.049 0 .073.017.073.05l.746 2.222c.048.049.04.073-.024.073h-.024zm1.903 0c-.016 0-.024-.007-.024-.024L12.71 12.94c-.032-.033-.032-.066 0-.098.016-.016.04-.016.072 0l2.674 2.222c.048 0 .048.025 0 .073 0 .017-.016.025-.048.025zm0 0c-.032 0-.048-.015-.048-.048l-.964-2.467c-.048-.048-.04-.073.024-.073.049-.016.073-.008.073.025l.963 2.49c.016.017.008.041-.024.074h-.024zm-1.903 0c-.048 0-.072-.015-.072-.048 0-.049.024-.073.072-.073h1.903c.048 0 .072.024.072.073 0 .033-.024.049-.072.049h-1.903zm1.903 2.37c-.016 0-.032-.008-.048-.025l-1.903-2.368c-.032-.017-.032-.041 0-.074.032-.033.064-.033.096 0l1.903 2.369c.032.033.032.065 0 .098h-.048zm0 0l-2.047-.171c-.033 0-.049-.017-.049-.049 0-.049.016-.073.049-.073l2.047.17c.048 0 .064.025.048.074 0 .032-.016.049-.048.049zm-2.047-.171c-.033 0-.049-.017-.049-.049l.12-2.198c.017-.049.041-.073.073-.073.048.032.064.057.048.073l-.12 2.198c0 .033-.024.049-.072.049zm2.047.17c-.032 0-.048-.024-.048-.073v-2.368c0-.033.016-.05.048-.05.048 0 .072.017.072.05v2.368c0 .05-.024.074-.072.074zm0-2.368c-.08 0-.097-.024-.048-.073l.313-1.661c.032-.033.056-.049.072-.049.08 0 .096.024.048.073l-.313 1.661c-.032.033-.056.049-.072.049zm1.373.732c-.032 0-.048-.008-.048-.024l-1.036-2.393c-.016-.033-.008-.065.024-.098.048 0 .072.016.072.049l1.06 2.393c0 .05-.016.073-.048.073h-.024zM15.41 17.53h-.048c-.032-.033-.032-.065 0-.098l1.373-1.636c.032-.033.064-.033.096 0 .016.032.016.057 0 .073l-1.373 1.636c-.016.017-.032.025-.048.025zm1.373-1.637h-.024l-1.373-.732c-.032-.033-.04-.065-.024-.098.016-.016.04-.024.072-.024l1.373.757c.032 0 .048.024.048.073-.016.016-.04.024-.072.024zm2.047 5.324h-3.878c-.032 0-.048-.024-.048-.073 0-.032.016-.049.048-.049h3.878c.048 0 .072.017.072.05 0 .048-.024.072-.072.072zm0 0l-.048-.048-.723-1.783c0-.049.016-.082.048-.098.033 0 .057.016.073.049l.722 1.783c0 .049-.016.073-.048.073 0 .016-.008.024-.024.024zm-3.878 0l-.048-.048c-.016-.017-.008-.041.024-.074l3.155-1.807c.049 0 .08.008.097.024 0 .05-.008.082-.024.098L15 21.193c-.016.016-.032.024-.048.024zm0 0c-.032-.016-.048-.048-.048-.097l.578-1.905c0-.033.024-.049.072-.049.032.032.049.057.049.073l-.579 1.93c-.032.032-.056.048-.072.048zm3.155-1.807l-2.577-.122c-.032 0-.048-.016-.048-.049 0-.049.016-.073.048-.073l2.602.122c.032 0 .048.024.048.073 0 .033-.024.05-.073.05zm-1.661.953c-.017 0-.033-.008-.049-.025l-.915-1.074c0-.033.008-.057.024-.074.016-.016.04-.016.072 0l.916 1.075c.048.049.048.073 0 .073-.016.017-.032.025-.048.025zm-.916-1.075c-.032 0-.048-.016-.048-.049l-.144-1.758c0-.049.024-.073.072-.073.032 0 .048.016.048.048l.145 1.759c0 .049-.017.073-.049.073h-.024zm-1.565-.317c-.032 0-.048-.009-.048-.025-.033-.016-.033-.04 0-.073l1.445-1.441c.032-.032.064-.032.096 0 .016.033.016.057 0 .073l-1.47 1.441-.023.025zm1.565.317l-1.59-.317c-.031 0-.048-.025-.048-.074.033-.032.057-.048.073-.048l1.59.317c.031 0 .048.024.048.073 0 .033-.024.05-.073.05zm0 0c-.016 0-.032-.008-.048-.024-.048-.05-.04-.074.024-.074l1.951-1.465c.016-.016.04-.008.072.024.016.033.016.058 0 .074l-1.95 1.465h-.049zm1.951-1.44l-2.071-.318c-.064 0-.08-.025-.048-.074 0-.032.016-.048.048-.048l2.095.317c.032 0 .048.024.048.073 0 .033-.024.05-.072.05zm0 0c-.032 0-.048-.017-.048-.05l-.698-1.929c-.016-.033-.009-.065.024-.098.032 0 .064.017.096.05l.698 1.929c0 .032-.016.065-.048.097h-.024zm.626 1.562c-.016 0-.032-.008-.048-.024l-.626-1.588c-.048-.048-.04-.073.024-.073.032-.016.064-.008.096.024l.627 1.588c0 .032-.016.057-.048.073h-.025zm-13.32 1.783c-.032 0-.048-.024-.048-.073l.458-1.124c.032-.032.064-.048.096-.048.016.016.024.048.024.097l-.458 1.123c-.016.017-.04.025-.072.025zm14.042.024l-2.409-.854c-.032-.033-.04-.057-.024-.074 0-.032.024-.049.073-.049l2.384.855c.032 0 .048.025.048.074-.032.032-.056.048-.072.048zM3.318 19.581c-.048-.032-.064-.057-.048-.073l.337-1.783c0-.032.024-.049.072-.049.032 0 .048.025.048.074l-.337 1.782c-.032.033-.056.05-.072.05zm1.95.489c-.031 0-.047-.009-.047-.025l-1.59-2.271c-.032-.033-.032-.065 0-.098.016-.016.048-.008.096.025l1.59 2.27c0 .05-.008.082-.024.099h-.024zM3.68 17.798c-.016 0-.04-.016-.072-.048l-.699-1.857c-.048-.048-.04-.073.025-.073.048-.049.072-.04.072.025l.722 1.856c0 .049-.008.081-.024.097H3.68zM1.295 19.85l-.048-.025c-.033-.032-.033-.065 0-.097l2.384-2.052c.048 0 .08.009.096.025 0 .032-.008.057-.024.073l-2.36 2.051-.048.025z" fill="#fff"/><path d="M8.64 5.441c-.047 0-.071-.016-.071-.049m.072.05c.032 0 .048-.025.048-.074l-.361-2.93c0-.05-.024-.066-.073-.05-.032 0-.048.017-.048.05m.434 3.003l-.048-.024m.048.024l.024-.024 1.879-1.148c.064 0 .072-.025.024-.073-.032-.033-.065-.041-.097-.025L8.593 5.32c-.016.016-.016.049 0 .098m.048.024h-.024l-1.445-.537m1.469.537c.032 0 .048-.016.048-.049m-.12 0l-.362-2.955m.362 2.955l1.156 3.2m-1.156-3.2c0-.049.016-.073.048-.073.048-.049.072-.04.072.024l1.156 3.2m-4.143.415c-.032 0-.048-.008-.048-.025m.048.025l.049-.025 2.938-3.516c0-.05-.008-.082-.024-.098M5.702 8.958h-.024c-.032-.016-.048-.04-.048-.073m.072.073c.032 0 .049-.016.049-.049m-.097.024c-.032-.016-.032-.04 0-.073m0 .073l1.951 1.49m-1.95-1.49c-.049 0-.049-.024 0-.073m0 0l2.938-3.517M5.654 8.86c0-.016.024-.024.072-.024l1.951 1.49m.916-4.983c.016-.016.04-.024.072-.024m-.072.024c-.032.033-.032.057 0 .074m0-.074c.032-.032.056-.04.072-.024m0 0L7.22 4.782m1.445.537c.016 0 .024.024.024.073m-.024-.073l1.47 1.197M5.63 8.885l1.493-4.079M5.63 8.885l-.722 2.051m.722-2.051c.016-.033.04-.05.072-.05.032.017.049.041.049.074m1.372-4.103c.033-.032.065-.04.097-.024m-.097.024c0 .049.016.082.049.098m-.049-.098l1.084-2.393c.032-.033.065-.04.097-.025M7.22 4.782c.016 0 .024.024.024.073m0 0L5.75 8.909m1.493-4.054l1.084-2.393c0-.05-.008-.074-.024-.074m-1.06 2.467l-.048.049h-.024M5.75 8.909l-.723 2.076m3.276-8.597c-.016-.016-.04-.008-.073.025-.032.032-.032.057 0 .073l2.24 1.783m-2.167-1.88l2.24 1.782c.016.016.024.05.024.098m-.048.024c-.017 0-.033-.008-.049-.024m.049.024l.048-.024m-.048.024c.016 0 .024-.004.024-.012s.008-.012.024-.012m-.048.024c-.017 0-.04-.016-.073-.049 0-.048.016-.073.048-.073l1.325-.513m-1.3.635h.024l1.3-.537c.032 0 .048-.024.048-.073m-1.42.586c-.017 0-.025-.025-.025-.073l.964-1.783c.032-.033.064-.04.096-.025.032.033.04.057.024.074l-.963 1.807M8.593 5.417l1.469 1.196m-1.373-1.22c0-.05-.016-.074-.048-.074-.016-.016-.04-.008-.072.024L7.58 8.274m1.11-2.882L7.677 8.298c0 .033-.016.05-.048.05m4.143-4.616c0 .032.024.048.072.048.032-.016.048-.048.048-.097m-.12.049l-.361-1.27c0-.05.016-.074.048-.074.048-.048.072-.04.072.025l.361 1.27m-.12.049l.674 1.685m-.674-1.685c0-.05.016-.074.048-.074m.072.025c-.032-.033-.056-.04-.072-.025m.072.025l.675 1.685m-2.457 1.27c-.016 0-.032-.008-.048-.025m.048.025l.048-.025m-.048.025h-.024m.024 0c.032 0 .048-.016.048-.05m-.048.05c-.016 0-.04-.016-.072-.05 0-.032.016-.056.048-.072l2.409-1.173M10.11 6.638h.024l2.409-1.172m-2.481 1.147c-.048 0-.048-.024 0-.073m0 .073l2.65 2.345m-2.65-2.345c-.032-.016-.032-.04 0-.073m0 0l1.71-2.857c.032-.033.064-.04.096-.025.016.017.024.041.024.074l-1.734 2.881m-.096-.073c.016-.016.04-.024.072-.024m.024.097c0-.048-.008-.081-.024-.097m0 0c-.032-.017-.064-.008-.096.024 0 .049.016.082.048.098m.048-.122l1.975.732m-1.975-.732l2.65 2.344m-2.698-2.222c-.032 0-.048-.025-.048-.073m.048.073l1.975.732m-2.023-.805l.41-2.345c0-.032.023-.049.072-.049.032 0 .048.025.048.073l-.41 2.345m-.12-.024l-.313 2.002c0 .049.016.073.048.073m.265-2.075c0-.033.024-.05.072-.05.032 0 .048.025.048.074m0 0l-.313 2.003m-.048.048h-.024m.024 0c.032 0 .048-.016.048-.048m-.048.048c-.016 0-.04-.016-.072-.048m.072.048h.024m-.048 0l-2.144-.293m2.144.293l2.962.318h.024M9.773 8.64c-.064 0-.08-.016-.048-.048m.12 0c0-.017-.016-.041-.048-.074l-2.168-.293m0 .122c-.08 0-.096-.024-.048-.073m.048.073h-.024c-.032-.032-.04-.057-.024-.073m0 0c0-.033.016-.049.048-.049m0 0c-.032 0-.048.025-.048.073v2.076c0 .05.016.074.048.074m0-2.223c.048 0 .072.016.072.049v2.1m2.024-1.782c0-.05.016-.074.048-.074m.072.025c0 .049-.008.081-.024.097m.024-.097c-.048-.033-.08-.041-.096-.025l-2.144 1.807m2.24-1.782c0 .032-.008.057-.024.073m0 .024h-.096c-.032-.032-.032-.065 0-.097h.024m.072.097v-.024m.699 1.832c-.017 0-.04-.017-.073-.05m.073.05h.024c.016-.017.024-.05.024-.098m-.048.098l-.049-.025c-.016-.049-.016-.081 0-.098l2.24-1.49c.048 0 .08.009.097.025 0 .049-.008.082-.024.098m-2.264 1.49l.024-.025 2.24-1.465m-2.337 1.44l-.722-1.782c-.048-.049-.04-.073.024-.073m.698 1.856l.723 1.538m-.723-1.538c0-.033.016-.057.048-.073.016-.017.04-.009.073.024m-.82-1.807c.049-.05.073-.041.073.024l.747 1.783m-.82-1.807c.017-.017.04-.017.073 0 .016.032.016.057 0 .073m.747 1.734l.698 1.538m1.518-2.93c.016 0 .024-.025.024-.073m-.024.073h-.025m.024 0h-.072m.072 0l.988-.977c.016-.016.016-.04 0-.073-.032-.017-.056-.017-.072 0l-.988.952c-.032.033-.032.065 0 .098m.048 0c.033 0 .049-.016.049-.049 0-.049-.016-.073-.049-.073l-2.986-.318m2.986.44c-.032 0-.056-.008-.072-.025l-.674-1.611c0-.033.016-.057.048-.074.016-.016.04-.008.072.025l.675 1.612m-.049.073h-.048m.048 0l.049-.025m-3.035-.415c-.016 0-.04.016-.072.05l-.867 2.539m.939-2.589c.032.016.048.05.048.098m2.987.269c0-.033-.024-.05-.073-.05-.032.033-.048.058-.048.074l.482 2.247c0 .032.016.049.048.049m-.41-2.32l.482 2.246c0 .017-.016.041-.048.074m-1.18-3.835h.024c.032 0 .048-.016.048-.048m-.072.048c-.032-.032-.048-.057-.048-.073l.433-1.905c.016-.032.04-.049.073-.049.032 0 .048.025.048.074l-.434 1.905m-.072.048l1.662.635h.024m-1.686-.635c-.032-.016-.048-.048-.048-.097.032-.033.064-.041.096-.025m0 0c.016 0 .024.025.024.074m-.024-.074l1.662.635c.016.017.024.05.024.098 0 .016-.016.024-.048.024m-1.3-2.588c.032.032.056.049.072.049h.024m-.097-.05l1.229 2.565c.016.016.04.024.072.024m-1.3-2.588c0-.033.015-.057.048-.074m.072.025c.016.032.008.065-.024.098m.024-.098c-.032-.033-.056-.04-.072-.025m.072.025l1.228 2.564m-1.084 1.026l1.518.855h.024m-1.542-.855c-.016-.016-.024-.04-.024-.073m.097-.025c.016.016.024.04.024.073m-.024-.073c-.033-.032-.065-.024-.097.025m.097-.025l1.517.83m-1.518-.83c.065 0 .073.025.025.073m0 0l-1.542 3.004c0 .033-.016.05-.048.05m3.035-2.174c.016 0 .032-.009.048-.025m-.048.025c-.032 0-.048-.017-.048-.05m.048.05h.024c.032-.033.048-.057.048-.074m-1.638-.854l-1.517 3.003M14.3 9.69c.016.017.016.05 0 .098m0-.098c-.048 0-.08.009-.096.025l-1.036 1.392c-.016.016-.008.04.024.073 0 .017.008.025.024.025M14.3 9.69c.032.033.032.066 0 .098m0 0l-1.036 1.392c-.016.017-.032.025-.048.025m.988-1.441l-.53-1.807c0-.017.016-.041.048-.074.048 0 .072.017.072.05m.41 1.83l.192 2.858c0 .033.016.049.048.049.049 0 .073-.016.073-.049m-.313-2.857c0-.05.016-.074.048-.074.048 0 .072.017.072.05m-.12.024l1.493 3.712m-1.493-3.712c-.017-.017-.008-.04.024-.074.048 0 .08.017.096.05m-.53-1.808l.53 1.807m-.53-1.807c0 .033-.008.057-.024.073h-.024m.578 1.734l.193 2.882m-.193-2.882l1.47 3.688M9.82 8.616l-2.144 1.807M9.82 8.616l-.867 2.54m-1.325-.708c-.016-.017-.032-.025-.048-.025-.032-.016-.024-.049.024-.098m.024.123c.016 0 .032-.009.048-.025m-.048.025c.048 0 .072-.025.072-.074m-.072.074c-.016 0-.024-.009-.024-.025m0-.098l-1.493 1.148m1.493-1.148c.016-.016.04-.008.072.025.016.032.016.057 0 .073m0 0c.033-.033.033-.065 0-.098m0 .098l-1.493 1.148M7.7 10.374c-.032-.049-.056-.065-.072-.049l-2.673.587c-.032 0-.048.016-.048.048 0 .033.024.05.072.05m2.721-.636c0 .016-.016.04-.048.074l-2.673.561m2.625-.586l1.253.757c0 .017.008.025.024.025m-1.277-.782c-.064 0-.072-.024-.024-.073.032-.033.064-.04.096-.024m0 0l1.253.756c.016.017.016.05 0 .098-.016.017-.032.025-.048.025m0 0h-.024c-.033-.033-.04-.066-.024-.098m.048.098c.016 0 .04-.017.072-.05m-.12-.048l-.747 1.612c-.048.049-.04.073.024.073m.723-1.685c.032-.033.056-.04.072-.024.032.016.048.04.048.073m0 0l-.77 1.612M4.98 11.009h-.024m.024 0c.032 0 .048-.008.048-.024m-.072.024c-.032 0-.048-.024-.048-.073m.048.073l1.156.562m-1.204-.635l-.843 1.93m.843-1.93c.032-.033.064-.04.096-.024m.024.073c0-.049-.008-.073-.024-.073m.024.073l-.867 1.93m-.048.024h-.024c-.032-.033-.04-.057-.024-.074m.048.073c.032 0 .048-.008.048-.024m-.048.024c-.016 0-.032-.008-.048-.024m.048.024h.048l2.023-1.367m-2.071 1.367l2.24.196m-2.24-.196c-.032 0-.048-.016-.048-.048 0-.05.016-.074.048-.074l2.24.196m-2.288-.147l-.65 1.441m.65-1.44c0-.033.024-.05.072-.05.032.033.04.066.024.098m.843-2.002l1.156.537c.032.016.048.049.048.098-.016.016-.04.024-.072.024M4.16 12.914l-.626 1.44m.53-1.44c-.049-.049-.04-.073.024-.073m-.024.073L4.98 14.6c0 .033.016.05.048.05.016 0 .024-.01.024-.025.064 0 .072-.025.024-.074m-.987-1.71l2.023-1.367m-2.023 1.368c.048-.049.072-.04.072.024l.915 1.685m1.036-3.077c.048-.049.072-.049.072 0m-.072 0c-.064 0-.072.025-.024.073.016.017.032.025.048.025m.048-.098c.032.033.032.065 0 .098m0-.098c-.048-.016-.08-.016-.096 0-.016.033-.008.065.024.098m.072-.098l1.975 1.221c.048.017.056.041.024.074M6.184 11.57h-.048m0 0h-.024m.024 0c-.032 0-.048-.016-.048-.049m.048.049h.024l2.746-.366c.032 0 .048-.025.048-.074 0-.032-.024-.049-.072-.049l-2.746.367m-.024.122l1.999 1.221m-2.023-1.27c0-.049.016-.073.048-.073m-.048.073l.217 1.563m-.17-1.636c.05 0 .073.016.073.049l.217 1.563m1.686-.269c0 .016.008.024.024.024.032 0 .048-.016.048-.048m-1.83.366c-.032 0-.048-.016-.048-.049m.048.049c.048 0 .072-.024.072-.073m-.072.073c.048 0 .072-.016.072-.049 0-.049-.024-.073-.072-.073m0 .122h.024l1.782-.342c.032-.033.048-.057.048-.073 0-.05-.024-.065-.072-.05l-1.782.343m-.048.073c-.049-.049-.033-.073.048-.073m-.048.073l.289 2.027m-.169-2.051c-.032-.033-.056-.05-.072-.05m.072.05l.289 2.051m.891-.977h-.024m.024 0c.032 0 .056-.008.072-.024l.53-1.368c0-.049-.008-.073-.024-.073-.032-.016-.064-.008-.096.024l-.53 1.368c0 .049.008.073.024.073m.024 0c-.032 0-.048-.016-.048-.049m.048.05h.024l1.855-.147m-1.879.146c.032 0 .048-.008.048-.024.016-.017.016-.041 0-.074m-.072.098l-1.251-1c-.049-.033-.057-.065-.024-.098m1.252 1.05c0-.049.016-.073.048-.073m-.048.073l.385 1.588c.032.032.057.049.073.049m-.458-1.637c0-.032.016-.057.048-.073m0 0l1.879-.146m-1.879.146c.016 0 .04.016.072.049l.386 1.587c0 .05-.016.074-.048.074m1.469-1.857c.032 0 .048.025.048.074m-.048-.073c-.032 0-.056.024-.072.073m.072-.073l2.529.146c.032 0 .048.024.048.073 0 .033-.024.05-.072.05m-2.505-.27c.048.033.064.058.048.074m0 0c.032.032.016.049-.048.049m.048-.05l-.217 1.832m.169-1.782l2.505.146m-2.505-.146c-.048 0-.072-.017-.072-.05m2.577.196c-.032 0-.048-.008-.048-.024l-.771-2.174m.819 2.198h.024c.032 0 .048-.024.048-.073m-.072.073h-.024m.024 0c.032 0 .056-.008.072-.024l.747-1.197M9.412 13.94l-.217 1.807c0 .049.024.073.072.073m1.903-3.883c-.048-.049-.04-.073.024-.073m-.024.073c0 .033.016.05.048.05m-.048-.05c-.016-.016-.008-.04.024-.073m0 0c.048 0 .072.008.072.024m-.072-.024l1.999-.782m-1.927.806l.795 2.174m-.795-2.174c.016.033.008.066-.024.098m.819 2.076c0-.033-.024-.049-.072-.049-.032 0-.048.024-.048.073l.24 2.125c.017.033.04.049.073.049m-.193-2.198l.24 2.149m-1.083-4.225h.024m-.024 0h-.024c-.048-.033-.056-.065-.024-.098m.072.098l2-.781m-6.937 1.831c.032-.032.064-.032.096 0m-.096 0l-1.325 1.49c0 .049.008.081.024.098h.072m1.325-1.588l1.252 1.002m-1.252-1.002c.016.033.016.057 0 .074l-1.325 1.514m1.59.537c-.032 0-.056-.016-.072-.049m.072.049c.064 0 .08-.016.048-.049m-.048.049h-.024m.024 0c.032 0 .048-.008.048-.024.016-.05.008-.074-.024-.074m-.096.049l-.362 2.344m.362-2.344c.032-.049.056-.065.072-.049.064 0 .08.016.048.049m0 0l-.385 2.369c0 .032-.016.049-.049.049m.362-2.37l-1.614-.537m1.614.538l1.349.562m-1.35-.562c-.064 0-.072-.024-.023-.073 0-.065.024-.074.072-.025m-1.662-.44c-.032 0-.048-.024-.048-.073 0-.065.024-.073.072-.024l1.638.537m-1.662-.44l-1.566-.22m1.566.22c.048 0 .072-.016.072-.048m1.59.488l1.349.537c.016.017.024.05.024.098m-2.987-1.075c.016-.016.016-.04 0-.073m0 .073l-2.095 1.295-.024.024m.505-1.538h-.024c-.032-.033-.04-.065-.024-.098m.048.098c.016 0 .04-.017.073-.05m-.073.05c-.032 0-.048-.025-.048-.073 0-.033.024-.05.073-.05m-.073.025l-.24.684m.24-.684c0-.065.024-.073.073-.024m.048.073c0-.049-.016-.073-.048-.073m.048.073l-.265.684m.217-.757l1.565.22c.032.032.048.056.048.073m0 0c0-.033-.024-.05-.072-.05-.032 0-.048.017-.048.05l-.048 1.319c0 .048.016.073.048.073m.12-1.392l-.048 1.343m-2.095.024l-.049-.024c-.016-.049-.008-.082.025-.098m.024.122h-.024c-.033-.032-.04-.057-.025-.073l.265-.88m-.216.953c.032 0 .048-.016.048-.049m-.048.05l2.023.024m-2.023-.025c-.049 0-.073-.024-.073-.073 0-.033.024-.049.073-.049l2.023.025m-2.047-.025l2.07-1.294c.05-.049.073-.04.073.024m-2.143 1.27c-.065 0-.073.025-.025.073l.699 1.857c.032.032.056.048.072.048m-.746-1.978c.048-.049.072-.04.072.025l.722 1.856m-.554-2.711c0-.033.024-.04.073-.024.032 0 .04.024.024.073m-.097-.05c-.048.05-.04.074.024.074h.025c.032 0 .048-.008.048-.024m0 0l-.265.854m0 0c.016-.016.008-.04-.024-.073-.048-.049-.073-.04-.073.025l-.963 2.344m1.06-2.296l-.94 2.345m2.915-2.271c-.016 0-.024-.004-.024-.013 0-.008-.008-.012-.024-.012m.048.025h.024l1.686-.806c.064 0 .072-.024.024-.073 0-.065-.024-.074-.072-.025l-1.686.782c-.016.016-.024.048-.024.097m.048.025c.048 0 .072-.017.072-.05m-.12.025l1.3 1.563m-1.3-1.563c0-.049.008-.073.024-.073.016-.016.04-.016.072 0l1.3 1.563c.033.033.033.065 0 .098H6.28m-1.228-1.612c0-.049-.024-.073-.072-.073m0 0c-.032 0-.048.024-.048.073l.265 4.103c0 .032.024.049.072.049m-.29-4.225c.049 0 .073.016.073.048l.265 4.128m-3.372-1.832c0 .049.016.081.048.098h.024c.032 0 .048-.017.048-.049m-.12-.049l-.698 1.563m.698-1.563c.032-.032.064-.04.096-.024.033.032.04.057.024.073m0 0l-.722 1.563M6.28 17.53c-.016 0-.032-.008-.048-.025m.048.025c-.016 0-.04-.017-.072-.05 0-.048.024-.072.072-.072l1.59-.171c.048 0 .072.024.072.073m-1.662.22l1.614-.171m-1.614.17c-.064 0-.08-.024-.048-.073m.048.074c.016 0 .033-.008.049-.025m-.097 0c-.032-.016-.032-.04 0-.073l1.734-1.807m-.024 1.685c0 .033-.016.049-.048.049m.048-.049l.12-1.636c0-.05-.015-.074-.047-.074m-.12 1.759H7.87m2.794.17l-2.794-.17m2.794.17c.048 0 .072-.016.072-.048 0-.049-.024-.073-.072-.073m0 .122c-.032 0-.048-.017-.048-.05 0-.048.016-.072.048-.072m0 .122l2.698-.171m-2.698.17c-.016 0-.024-.007-.024-.024l-.891-.879m.915.904c.032 0 .048-.008.048-.025.016-.016.016-.04 0-.073l-.867-.903c-.032-.033-.064-.033-.096 0-.032.032-.032.065 0 .097m.915.904c-.016 0-.032-.008-.048-.025-.016-.016-.008-.04.024-.073l1.565-1.27m-1.541 1.368h.048l1.59-1.27M7.87 17.359c-.032 0-.048-.017-.048-.049m0 0c0-.049.024-.073.072-.073l2.77.17m-2.842-.097l.12-1.66m2.722 1.758l2.698-.171m0 0c.048 0 .072.024.072.073m-.072-.073c-.033 0-.049.024-.049.073m.049-.073l2.047.17m-1.975-.097c0 .033-.024.049-.072.049m.072-.049l.12-2.198c.016-.016 0-.04-.048-.073m-.144 2.32l2.047.17m-2.047-.17c-.033 0-.049-.017-.049-.049m.65 1.66a.101.101 0 01-.072-.024m.073.025h.024c.064 0 .072-.025.024-.074m-.048.074c-.032 0-.048-.009-.048-.025-.033-.016-.033-.04 0-.073l1.445-1.441m-1.397 1.539l.024-.025 1.469-1.44m-1.566 1.44l-.578-1.612c-.048-.049-.04-.073.025-.073.032-.016.064-.008.096.024l.578 1.612m-.12.05l1.011 2.222m-1.012-2.223c0-.049.017-.081.049-.098.032 0 .056.017.072.05m0 0l1.011 2.222c0 .049-.016.073-.048.073 0 .016-.008.024-.024.024m0 0c-.032 0-.048-.016-.048-.048m.048.048h3.878m-3.878 0c-.032 0-.048-.024-.048-.073 0-.032.016-.049.048-.049h3.878c.048 0 .072.017.072.05 0 .048-.024.072-.072.072m-3.878 0l-.048-.048m.048.048c.016 0 .032-.008.048-.024l3.156-1.783c.016-.016.024-.049.024-.098-.016-.016-.048-.024-.097-.024l-3.155 1.807c-.032.033-.04.057-.024.074m.048.048c-.032-.016-.048-.048-.048-.097l.578-1.905c0-.033.024-.049.072-.049m-.602 2.051c.016 0 .04-.016.072-.048l.579-1.93m-9.972-.415c0 .033.016.057.048.073h.024c.032 0 .049-.008.049-.024m-.12-.049l.601-1.368m-.602 1.368l-.433 1.172m.433-1.172c.016-.033.048-.049.096-.049.033.033.04.065.025.098m.481-1.417c0-.032.024-.048.073-.048.032.032.04.065.024.097m0 0l-.578 1.368m.578-1.368l1.71-1.807c.016-.016.016-.04 0-.073-.032-.016-.056-.016-.073 0m-2.215 3.248l-.434 1.172m-.048.025h-.024m.024 0c.032 0 .048-.009.048-.025m-.048.025c.032 0 .048-.025.048-.074 0-.032-.024-.048-.072-.048L.837 21.095c-.032 0-.048.025-.048.074.032.032.056.048.072.048M5.27 20.07L.86 21.217m4.41-1.147c.032 0 .048-.017.048-.05m-.048.05c-.032 0-.048-.009-.048-.025l-1.59-2.271c-.032-.033-.032-.065 0-.098M5.27 20.07h.024c.016-.017.024-.05.024-.098L3.727 17.7m1.518 2.369c-.032 0-.048-.025-.048-.074m.048.074l-1.927-.489m1.879.415l-.458 1.124c0 .049.016.073.048.073s.056-.008.072-.024l.458-1.124m-.12-.049c.032-.032.064-.048.096-.048.016.016.024.048.024.097M.861 21.217H.837c-.032-.032-.048-.065-.048-.097l.458-1.368M.86 21.217c.032 0 .048-.016.048-.048l.434-1.368m-.096-.049c0-.032.024-.04.072-.024.064 0 .072.024.024.073m-.096-.049c-.049.049-.04.073.024.073l.024.025m.048-.05c0 .034-.016.05-.048.05m0 0c-.032 0-.056-.025-.073-.074 0-.032.025-.048.073-.048l2.023-.269c.016 0 .04.016.072.049 0 .049-.024.073-.072.073m-2.023.269l2.023-.269m-2.023.269l-.048-.025c-.033-.032-.033-.065 0-.097l2.384-2.052M1.295 19.85l.048-.025 2.36-2.051c.016-.016.024-.04.024-.073m-.41 1.88c-.047-.032-.063-.057-.047-.073m.048.073c.016 0 .04-.016.072-.049l.337-1.782c0-.05-.016-.074-.048-.074-.048 0-.072.017-.072.05l-.337 1.782m0 0c0-.033.024-.049.072-.049l1.927.489c.032.016.048.04.048.073m-1.638-2.223h.024c.016-.016.024-.048.024-.097m4.24-2.076c-.033.033-.033.065 0 .098h.048m-.049-.098l1.47-1.734m-1.421 1.832H7.99m.024 0c.032 0 .048-.009.048-.025m-.048.024l.048-.024m-.072.024l1.276.098m-1.276-.098c-.033 0-.049-.024-.049-.073m.12.05l1.47-1.71c.032-.033.032-.065 0-.098m-1.59 1.758c0-.032.024-.049.073-.049m0 0l1.252.098c.048 0 .064.024.048.073m.12-1.88c.033-.033.065-.033.097 0m-.096 0c-.032.033-.032.065 0 .098l1.397 1.172m-1.301-1.27l1.373 1.172m-1.638.757c.032 0 .048-.016.048-.049m-.048.05c-.032 0-.048-.009-.048-.025m.048.024h.024l1.59-.66c.032 0 .048-.024.048-.072-.032-.033-.064-.041-.096-.025m-1.036 1.588l-.048-.025m.048.024l.024-.024c.032-.032.04-.057.024-.073m-.048.098c-.016 0-.04-.017-.072-.05 0-.048.024-.072.072-.072l2.457-.391c.032 0 .048.024.048.073m-2.505.44l2.457-.391m-2.505.366l-.53-.83m0 0c-.048-.049-.04-.073.024-.073.016-.017.04-.017.072 0l.53.83m-.626-.757c-.016-.033-.008-.065.024-.098l1.59-.635m0 0c-.016.016-.024.049-.024.098h.096m-.072-.098l1.132-1.026c.016-.016.04-.016.072 0m-1.132 1.124h-.072m.072 0c.032-.033.032-.065 0-.098m0 .098l1.132-1.026c.032-.032.032-.065 0-.098m-1.204 1.124l1.372 1.099m-1.372-1.1c-.033-.032-.04-.064-.024-.097.032-.033.064-.033.096 0m0 0l1.397 1.1m-.265-2.126c-.032-.032-.064-.032-.096 0m.096 0l1.493 1.026c.048.016.056.04.024.073 0 .017-.016.025-.048.025m-1.204 1.099h-.097m.097 0c.016-.049.016-.082 0-.098m0 .098c.016-.017.016-.049 0-.098m0 .098l1.252-1.1c.032-.032.032-.064 0-.097m-1.349 1.197l1.133 1.099h.072c.032-.033.032-.065 0-.098l-1.108-1.099m-.097.098c-.032-.033-.032-.065 0-.098m.097 0c-.016-.016-.048-.016-.097 0m.097 0c-.032-.032-.064-.032-.097 0m.097.049c.032.033.016.049-.048.049m-.049-.098l1.253-1.099m0 0c.032-.033.064-.033.096 0m-.096 0c-.032.033-.032.057 0 .073m.096-.073l1.903 2.369m-1.95-2.271h-.025l-1.517-1.026m1.541 1.026c-.032 0-.048-.008-.048-.024m.048.024h.024c.064 0 .072-.024.024-.073l-.746-2.223c0-.032-.024-.049-.073-.049m.771 2.345c-.048 0-.072-.016-.072-.049m.072.049h1.903m-3.444-1.026c-.016-.016-.024-.049-.024-.098m0 0l.77-1.196m0 0c0-.049.024-.049.072 0m-.072 0c-.032.032-.032.065 0 .098m0-.098c.016-.016.04-.016.072 0m0 0c.017 0 .025.024.025.073m-.024-.073l-1.542-.977c-.016-.016-.04-.008-.072.024m1.614.953l2.673 2.222c.048 0 .048.025 0 .073 0 .017-.016.025-.048.025m-2.601-2.247l-.049.024m0 0h-.048m.048 0c-.048 0-.072-.016-.072-.048 0-.05.016-.074.048-.074m.024.122l1.71-.268c.033 0 .049-.016.049-.049m-1.807.317l-1.517-.976c-.064 0-.072-.025-.024-.074m1.541 1.05l2.674 2.198c0 .017.008.025.024.025m-2.192-3.956h.024m0 0c.032-.033.048-.066.048-.098-.032-.033-.064-.04-.096-.024m-.458 1.733l1.71-.268c.017 0 .04.024.073.073m-1.783.195c-.032.033-.048.066-.048.098l.77 2.223m2.289-1.637c-.032 0-.048-.008-.048-.024m.048.024h.024c.032-.032.04-.057.024-.073m-.096.049l1.036 2.393m-1.036-2.393c-.016-.033-.008-.065.024-.098.048 0 .072.016.072.049m0 0l1.06 2.393m-3.396-.684l1.903 2.37c.016.016.032.024.048.024m0-2.37c.048 0 .072-.015.072-.048m-.072.049c-.08 0-.097-.024-.048-.073m.048.073c.016 0 .04-.016.072-.049m-2.047 0c0-.049.024-.073.072-.073m-.072.073l-.12 2.198m.12-2.198c.016-.049.04-.073.072-.073m0 0h1.903m0 0c.048 0 .072.024.072.073m-.072-.073c-.032 0-.048.016-.048.049m.048-.05c.048 0 .072.017.072.05v2.368c0 .05-.024.074-.072.074m.072-2.418l.313-1.66c.048-.05.032-.074-.048-.074-.016 0-.04.016-.072.049l-.313 1.66m.048 2.443h.048c.032-.033.032-.065 0-.098m-.048.098c.032 0 .048-.017.048-.05.016-.048 0-.072-.048-.072m0 .122c-.032 0-.048-.025-.048-.074m.048.074h-.048c-.032-.033-.032-.065 0-.098m.048.098c.016 0 .032-.008.048-.025m-.048.025l2.071.317m-2.071-.317c-.064 0-.08-.025-.048-.074m.096-.024c-.032-.032-.064-.032-.096 0m.096 0c.016.033.016.057 0 .073m-.048-.097c-.048 0-.072.024-.072.073l.144 1.758m-.072-1.831c.032 0 .048.016.048.048l.145 1.759c0 .049-.017.073-.049.073h-.024m-.12-1.88c-.032 0-.048.016-.048.048m.048-.048l2.095.317c.032 0 .048.024.048.073 0 .033-.024.05-.072.05m-2.12-.392v-2.368m1.422.806c-.032 0-.048-.009-.048-.025m.048.024h.024c.032 0 .048-.024.048-.073m-.12.05l.698 1.928m-.698-1.929c-.016-.033-.009-.065.024-.098.032 0 .064.017.096.05m0 0l.698 1.929m-2.191-.318l1.373-1.636c.032-.033.064-.033.096 0 .016.032.016.057 0 .073l-1.373 1.636m3.372 3.712l-.048-.048-.723-1.783m.771 1.831c.016 0 .024-.008.024-.024.032 0 .048-.024.048-.073l-.722-1.783m-.12.049c0-.049.015-.082.047-.098.033 0 .057.016.073.049m-.12.049c.015.016.031.024.047.024m-.048-.024l-.626-1.588m.747 1.539l-.627-1.587m.627 1.587c0 .032-.016.057-.048.073h-.025m-2.553-.244c.032.032.049.057.049.073m-.049-.073l-1.59-.317c-.015 0-.04.016-.072.048 0 .05.017.074.049.074l1.59.317m.023-.122c.032 0 .049.024.049.073m0 0c0 .033-.024.05-.073.05m2.577.121l-2.577-.122m2.577.122c.049 0 .073-.016.073-.049 0-.049-.016-.073-.048-.073l-2.602-.122c-.032 0-.048.024-.048.073m.048.05c-.032 0-.048-.017-.048-.05m.048.05c-.016 0-.032-.01-.048-.025m.048.024h.049l1.95-1.465c.016-.016.016-.04 0-.073-.032-.033-.056-.041-.072-.025m-1.975 1.539l.915 1.074c.016.017.032.025.049.025.016 0 .032-.008.048-.025.048 0 .048-.024 0-.073l-.915-1.075c-.033-.016-.057-.016-.073 0m-.024.074c0-.033.008-.057.024-.074m-.024.074c-.048-.05-.04-.074.024-.074m0 0l1.951-1.465m0 0c-.064 0-.072.024-.024.073m.024-.073c.032-.016.064-.008.096.024m-.072.098c-.032 0-.048-.016-.048-.049m.048.05h.024c.032-.033.048-.066.048-.098M3.63 17.676c.016-.016.048-.008.096.025m-.096-.025c.048 0 .08.009.096.025m4.48-15.264c0 .05.024.074.073.074h3.203c.032 0 .048-.025.048-.074 0-.032-.016-.049-.048-.049H8.28c-.049 0-.073.017-.073.05zm-2.505 6.52c-.016 0-.04-.015-.072-.048 0-.049.016-.073.048-.073l1.927-.61c.048 0 .072.015.072.048.016.016.008.04-.024.073l-1.95.61zm1.951 5.08c-.048-.048-.072-.048-.072 0l-.963 1.026c-.032.033-.032.065 0 .098h.096l.94-1.026c.031-.032.031-.065 0-.098zM.86 21.217l3.95.025c.032 0 .048-.017.048-.05 0-.048-.016-.072-.048-.072l-3.95-.025c-.048 0-.072.017-.072.05 0 .048.024.072.072.072zm0 0l-.048-.024c-.016-.049-.016-.082 0-.098l2.48-1.636c.017-.016.041-.008.073.024.048.05.048.074 0 .074l-2.48 1.636-.025.024zm2.818-3.419h-.024c-.048-.032-.056-.065-.024-.097l1.3-1.832c.017-.016.049-.024.097-.024.032.032.032.065 0 .097l-1.3 1.832c0 .016-.017.024-.049.024zm6.166-1.245c0-.065-.024-.073-.072-.024l-1.975.732c-.032 0-.048.024-.048.073.016.017.04.025.072.025l1.999-.709c.032-.032.04-.064.024-.097zm2.914-3.615h-.024c-.032 0-.048-.024-.048-.073l.482-1.734c0-.032.024-.049.072-.049.032 0 .048.025.048.074l-.481 1.734c0 .032-.016.048-.049.048zm.434-1.856c-.048.05-.056.082-.024.098l1.228 1.49h.097c.032-.033.032-.065 0-.098l-1.229-1.465c-.016-.016-.04-.024-.072-.024zm2.553 2.418h-.024l-1.3-.83c-.033-.033-.04-.057-.025-.073.016-.05.04-.057.072-.025l1.301.83c.064 0 .072.025.024.074 0 .016-.016.024-.048.024zm-.337 1.66c-.032 0-.048-.015-.048-.048l-.964-2.467c-.048-.048-.04-.073.024-.073.049-.016.073-.008.073.025l.963 2.49c.016.017.008.041-.024.074h-.024zm1.373.733h-.024l-1.373-.732c-.032-.033-.04-.065-.024-.098.016-.016.04-.024.072-.024l1.373.757c.032 0 .048.024.048.073-.016.016-.04.024-.072.024zm2.047 5.324l-2.409-.854c-.032-.033-.04-.057-.024-.074 0-.032.024-.049.073-.049l2.384.855c.032 0 .048.025.048.074-.032.032-.056.048-.072.048z" stroke="#fff" stroke-width=".2"/></g><path d="M33.665 9.073c-1.02-1.322-2.399-1.525-3.19-1.525-2.832 0-5.23 2.135-5.23 5.616 0 2.948 1.888 5.693 5.205 5.693.765 0 2.118-.178 3.215-1.448v1.118h2.5v-10.7h-2.5v1.246zm-2.883.711c1.582 0 3.036 1.119 3.036 3.457 0 2.236-1.454 3.38-3.036 3.38-1.812 0-2.986-1.55-2.986-3.406 0-1.906 1.174-3.43 2.986-3.43zM39.337 0v18.527h2.5V0h-2.5zm10.147 10.115V7.827H47.57V3.914h-2.5v3.913h-1.047v2.288h1.047v8.412h2.5v-8.412h1.914zm9.216 4.803a3.87 3.87 0 01-.995 1.17c-.51.38-1.02.533-1.71.533-.612 0-1.326-.102-1.913-.686-.536-.534-.868-1.398-.919-2.16h7.706v-.306c0-1.118-.127-3.1-1.505-4.523-.638-.661-1.735-1.398-3.445-1.398-1.53 0-2.705.56-3.598 1.449-1.123 1.143-1.71 2.744-1.71 4.396 0 1.601.562 3.075 1.583 4.092 1.02 1.016 2.194 1.372 3.623 1.372 1.148 0 2.296-.254 3.164-.813.689-.432 1.352-1.144 1.812-1.957L58.7 14.918zm-5.358-3.177c.127-.533.408-1.042.765-1.372.332-.33.893-.686 1.761-.686.816 0 1.352.305 1.684.61.383.356.663.864.766 1.448h-4.976zm10.141 6.786h2.5v-5.54c0-.712 0-1.729.69-2.466.484-.508 1.02-.584 1.556-.584.255 0 .714.025 1.276.381l1.02-2.262c-.689-.406-1.352-.508-1.965-.508-.56 0-1.046.076-1.53.356a4.297 4.297 0 00-1.047.89v-.966h-2.5v10.699z" fill="#29B981"/></svg>