<svg width="118" height="10" viewBox="0 0 118 10" fill="none" xmlns="http://www.w3.org/2000/svg"><path d="M0 9.824V.176h1.85v3.986L5.472.176h2.16L4.976 3.203l3.077 6.621H6.02L3.773 4.973H3.45l-1.6 1.743v3.108H0zm15.177 0l-.72-2.608h-3.375l-.72 2.608H8.538L11.355.176h2.867l2.83 9.648h-1.875zm-2.693-7.716l-.93 3.351h2.407l-.93-3.35h-.547zM18.301.176h4.17c.984 0 1.75.265 2.296.797.546.522.819 1.257.819 2.203 0 1.216-.439 2.076-1.316 2.58l1.328 4.068h-1.862L22.545 6.19H20.15v3.635H18.3V.176zm1.849 1.77v2.527h2.06c.53 0 .91-.104 1.142-.31.231-.217.347-.537.347-.96 0-.45-.128-.77-.385-.96-.248-.198-.678-.297-1.29-.297H20.15zm7.155-1.77h4.046c1.018 0 1.804.27 2.358.81.563.541.844 1.293.844 2.257 0 .982-.281 1.748-.844 2.298-.554.55-1.34.824-2.358.824h-2.196v3.46h-1.85V.174zm1.85 4.419h1.936c.554 0 .951-.109 1.191-.325.248-.225.372-.558.372-1 0-.441-.124-.77-.372-.986-.24-.225-.637-.338-1.191-.338h-1.936v2.649zm7.73-3.19C37.644.468 38.708 0 40.073 0s2.424.468 3.177 1.405c.761.928 1.142 2.127 1.142 3.595 0 1.468-.38 2.671-1.142 3.608-.753.928-1.812 1.392-3.177 1.392s-2.428-.464-3.19-1.392c-.752-.937-1.129-2.14-1.129-3.608s.377-2.667 1.13-3.595zm3.189 6.798c.794 0 1.394-.298 1.8-.892.413-.595.62-1.365.62-2.311s-.207-1.716-.62-2.31c-.406-.595-1.006-.893-1.8-.893-.786 0-1.386.302-1.8.906-.413.594-.62 1.36-.62 2.297s.207 1.707.62 2.31c.414.595 1.014.893 1.8.893zm7.647 1.621L45.102.176h1.924l1.96 7.702h.572l1.96-7.702h1.9l-2.62 9.648h-3.077zm7.537 0h-1.912V7.77h1.912v2.054zm7.204-3.08h1.924c-.132.981-.53 1.77-1.191 2.364-.654.595-1.49.892-2.507.892-1.333 0-2.375-.455-3.128-1.365-.744-.919-1.117-2.13-1.117-3.635s.377-2.712 1.13-3.622C58.325.46 59.364 0 60.688 0c.968 0 1.774.275 2.42.824.645.54 1.042 1.262 1.191 2.162h-1.936c-.207-.792-.765-1.189-1.675-1.189-.762 0-1.345.302-1.75.906-.397.594-.596 1.36-.596 2.297s.199 1.707.596 2.31c.405.595.988.893 1.75.893.471 0 .86-.126 1.166-.379.315-.261.517-.621.608-1.08zm4.261-5.339C67.483.468 68.547 0 69.913 0c1.365 0 2.423.468 3.177 1.405.76.928 1.141 2.127 1.141 3.595 0 1.468-.38 2.671-1.141 3.608-.754.928-1.812 1.392-3.178 1.392-1.365 0-2.428-.464-3.189-1.392-.753-.937-1.13-2.14-1.13-3.608s.377-2.667 1.13-3.595zm3.19 6.798c.794 0 1.393-.298 1.799-.892.413-.595.62-1.365.62-2.311s-.207-1.716-.62-2.31c-.406-.595-1.005-.893-1.8-.893-.786 0-1.386.302-1.799.906-.414.594-.62 1.36-.62 2.297s.206 1.707.62 2.31c.413.595 1.013.893 1.8.893zM81.415.176h1.85V6.27c0 1.198-.323 2.122-.969 2.77-.637.64-1.555.96-2.755.96-1.183 0-2.097-.32-2.743-.96-.637-.648-.955-1.572-.955-2.77V.176h1.85V6.23c0 .603.16 1.085.483 1.446.33.351.79.527 1.378.527.595 0 1.055-.176 1.377-.527.323-.36.484-.843.484-1.446V.176zm3.882 0h4.17c.984 0 1.75.265 2.296.797.546.522.819 1.257.819 2.203 0 1.216-.439 2.076-1.316 2.58l1.328 4.068h-1.861L89.542 6.19h-2.395v3.635h-1.849V.176zm1.85 1.77v2.527h2.06c.529 0 .91-.104 1.141-.31.232-.217.348-.537.348-.96 0-.45-.129-.77-.385-.96-.248-.198-.679-.297-1.29-.297h-1.875zm13.807.878h-1.887c-.149-.73-.686-1.094-1.613-1.094-.422 0-.77.094-1.043.284-.273.18-.41.45-.41.81 0 .514.37.843 1.105.987l1.65.324c1.606.324 2.409 1.266 2.409 2.824 0 .865-.306 1.59-.919 2.176-.612.577-1.493.865-2.643.865-1.109 0-1.994-.28-2.656-.838-.662-.558-1.038-1.32-1.13-2.284h1.887c.14.928.799 1.392 1.973 1.392.497 0 .89-.108 1.18-.324.297-.216.446-.514.446-.892 0-.36-.103-.63-.31-.81-.199-.181-.497-.312-.894-.393l-1.688-.324c-1.514-.288-2.27-1.167-2.27-2.635 0-.829.297-1.518.893-2.068C95.63.274 96.445 0 97.48 0c.968 0 1.762.252 2.382.757.63.504.993 1.193 1.093 2.067zm3.765 5.203h4.84v1.797h-6.689V.176h6.553v1.797h-4.704V4h3.662v1.757h-3.662v2.27zm13.069-5.203h-1.886c-.149-.73-.687-1.094-1.614-1.094-.422 0-.769.094-1.042.284-.273.18-.41.45-.41.81 0 .514.368.843 1.105.987l1.65.324C117.197 4.46 118 5.401 118 6.96c0 .865-.306 1.59-.918 2.176-.613.577-1.494.865-2.644.865-1.109 0-1.994-.28-2.656-.838-.662-.558-1.038-1.32-1.129-2.284h1.886c.141.928.799 1.392 1.974 1.392.496 0 .889-.108 1.179-.324.298-.216.446-.514.446-.892 0-.36-.103-.63-.31-.81-.198-.181-.496-.312-.893-.393l-1.688-.324c-1.514-.288-2.271-1.167-2.271-2.635 0-.829.298-1.518.893-2.068.596-.55 1.411-.824 2.445-.824.968 0 1.762.252 2.383.757.629.504.993 1.193 1.092 2.067z" fill="#F53"/></svg>