<svg width="96" height="20" viewBox="0 0 96 20" fill="none" xmlns="http://www.w3.org/2000/svg"><g clip-path="url(#clip0_35_116)" fill="#EF3124"><path d="M92.706 3.874l-3.268 3.74v-3.74h-2.371v9.437h2.371V9.33l3.505 3.981H96l-4.309-4.946 3.993-4.491h-2.978zM82.877 7.4h-3.268V3.873h-2.371v9.437h2.371V9.584h3.268v3.727h2.372V3.874h-2.372v3.525zM14.072 8.981c-.053 1.756-.277 2.105-1.252 2.105v2.212h.356c2.424 0 3.004-1.274 3.096-4.102l.093-3.137h2.266v7.239h2.372V3.874h-6.786l-.145 5.107zm12.846-2.238h-1.712V3.874h-2.372v9.424h4.11c2.583 0 3.506-1.703 3.506-3.311 0-2.078-1.278-3.244-3.532-3.244zm-.184 4.49h-1.528v-2.4h1.528c.817 0 1.318.363 1.318 1.154 0 .857-.475 1.246-1.318 1.246zM38.17 3.66V.16H35.8v3.5c-2.715.227-4.547 2.198-4.547 4.92 0 2.747 1.832 4.704 4.546 4.945v3.553h2.372v-3.553c2.714-.214 4.546-2.198 4.546-4.946 0-2.748-1.832-4.705-4.546-4.92zm-2.37 7.587c-1.319-.188-2.135-1.193-2.135-2.668 0-1.474.816-2.48 2.134-2.667v5.335zm2.37 0V5.925c1.318.174 2.148 1.18 2.148 2.654 0 1.475-.83 2.48-2.147 2.668zm13.44-.845V7.24c0-2.306-1.45-3.767-3.887-3.767-2.516 0-3.847 1.541-3.966 3.15h2.398c.08-.349.448-.952 1.568-.952.923 0 1.516.43 1.516 1.569H46.88c-2.108 0-3.36 1.126-3.36 3.002 0 1.957 1.37 3.298 3.347 3.298 1.45 0 2.253-.697 2.596-1.22.316.63 1 .992 1.91.992h.817v-2.185c-.422 0-.58-.201-.58-.724zm-2.371-.616c0 1.085-.752 1.702-1.74 1.702-.856 0-1.528-.322-1.528-1.26 0-.925.738-1.073 1.383-1.073h1.898v.63h-.014zm12.517-4.571h-2.649V2.547h6.14V.16h-8.63v13.15h5.139c2.846 0 4.48-1.434 4.48-4.088 0-2.494-1.621-4.008-4.48-4.008zm-.106 5.71h-2.53V7.507h2.53c1.318 0 2.056.616 2.056 1.702 0 1.126-.738 1.716-2.056 1.716zm13.664-.523V7.24c0-2.306-1.45-3.767-3.887-3.767-2.517 0-3.848 1.541-3.966 3.15h2.398c.079-.349.448-.952 1.568-.952.922 0 1.515.43 1.515 1.569h-2.358c-2.109 0-3.36 1.126-3.36 3.002 0 1.957 1.37 3.298 3.346 3.298 1.45 0 2.254-.697 2.596-1.22.316.63 1.002.992 1.91.992h.818v-2.185c-.422 0-.58-.201-.58-.724zm-2.372-.616c0 1.085-.75 1.702-1.74 1.702-.855 0-1.528-.322-1.528-1.26 0-.925.738-1.073 1.384-1.073h1.897v.63h-.013zM12.675 17.32H0V20h12.675v-2.68zM8.643 1.957C8.274.871 7.866 0 6.43 0 5.007 0 4.572.858 4.19 1.957L.264 13.311h2.595l.91-2.694h5.006l.843 2.694h2.767L8.643 1.957zm-4.11 6.367L6.31 2.95h.066L8.05 8.325H4.533z"/></g><defs><clipPath id="clip0_35_116"><path fill="#fff" d="M0 0h96v20H0z"/></clipPath></defs></svg>