<svg width="72" height="24" viewBox="0 0 72 24" fill="none" xmlns="http://www.w3.org/2000/svg"><path d="M12 17.995h6v5.99h-6v-5.99z" fill="#CB2451"/><path d="M12 12h6v5.995h-6V12z" fill="#E42652"/><path d="M12 6.005h6V12h-6V6.005z" fill="#EC6468"/><path d="M6 6.005h6V12H6V6.005z" fill="#A82837"/><path d="M0 6.005h6V12H0V6.005z" fill="#EF809C"/><path d="M6 17.995h6v5.995H6v-5.995z" fill="#97273E"/><path d="M0 12h6v5.995H0V12z" fill="#E73A47"/><path d="M0 17.995h6v5.995H0v-5.995z" fill="#EC6468"/><path d="M24 6.005h6V12h-6V6.005z" fill="#EF839D"/><path d="M24 12h6v5.995h-6V12z" fill="#E73A47"/><path d="M30 6.005h6V12h-6V6.005z" fill="#E42652"/><path d="M24 17.995h6v5.995h-6v-5.995z" fill="#A82837"/><path d="M72 17.995h-6v5.99h6v-5.99z" fill="#CB2451"/><path d="M66 .01h6v5.995h-6V.01z" fill="#EF839D"/><path d="M66 6.005h6V12h-6V6.005z" fill="#E73A47"/><path d="M54 17.995h6v5.99h-6v-5.99z" fill="#EC6468"/><path d="M54 12h6v5.995h-6V12z" fill="#97273E"/><path d="M54 6.005h6V12h-6V6.005z" fill="#CB2451"/><path d="M48 6.005h6V12h-6V6.005z" fill="#E73A47"/><path d="M42 6.005h6V12h-6V6.005z" fill="#EC6468"/><path d="M48 17.995h6v5.995h-6v-5.995z" fill="#A82837"/><path d="M42 12h6v5.995h-6V12z" fill="#E42652"/><path d="M42 17.995h6v5.995h-6v-5.995z" fill="#EF839D"/></svg>