<svg width="86" height="20" viewBox="0 0 86 20" fill="none" xmlns="http://www.w3.org/2000/svg"><path d="M43.638 9.087c.362-.179.439-.658.121-.915-.669-.542-1.484-1.009-2.257-1.238a6.314 6.314 0 00-3.167-.106 6.19 6.19 0 00-2.799 1.441c-.59.533-1.062 1.286-1.394 2.05-.16.37.126.767.531.776l.087.002a.648.648 0 00.6-.406c.246-.569.598-1.018 1.096-1.467a4.827 4.827 0 012.182-1.125 4.925 4.925 0 012.47.084c.653.193 1.217.438 1.712.843.206.168.489.224.724.108l.094-.047zm35.556 3.077v2.528h1.072V12.55h1.594v-.911h-2.112c-.355 0-.554.18-.554.525zm4.2 2.589c.685 0 1.096-.332 1.258-.779v.718h1.066V11.64h-1.066v1.098c0 .863-.343 1.104-.866 1.104-.474 0-.63-.199-.63-.748V11.64h-1.071v1.617c0 .96.493 1.497 1.309 1.497z" fill="#1CA1FB"/><path d="M15.995 10.565c-.21-.025-.265-.13-.259-.439V4.18c0-1.259.887-2.027 2.201-2.027h6.214c.318-.013.405.057.41.293V3.82c.003.27-.06.325-.226.345h-4.96c-.924.024-1.231.2-1.208.95v5.011c.012.356-.065.441-.313.44h-1.859zm10.364-8.397c-.355-.006-.479.07-.5.416v1.088c.009.38.113.495.5.496h6.193c1.156 0 1.135 1.613 0 1.614H26.36c-.4.029-.49.136-.5.43v3.915c.014.325.083.426.347.443h1.76c.257-.001.32-.09.325-.363V8.152c0-.23.083-.41.423-.41h5.072c1.337-.015 1.677-.375 1.691-1.53V3.564c.027-1.21-.45-1.411-1.691-1.396H26.36zM50.093.263c-.436-.007-.587.086-.612.51v1.334c.01.466.138.609.612.61h7.598c1.417 0 1.391 1.978 0 1.98h-7.598c-.49.034-.6.166-.612.526v4.803c.016.399.1.524.425.544h2.057c.317-.001.394-.11.4-.445V7.603c0-.281.102-.502.519-.502h6.322c1.64-.018 2.058-.46 2.075-1.878V1.976C61.312.49 60.726.244 59.204.263h-9.111z" fill="#FA741C"/><path fill-rule="evenodd" clip-rule="evenodd" d="M36.795 4.252v4.262c0 1.372.545 2.061 1.596 2.061h8.024c1.233 0 1.597-.966 1.597-2.061V4.64c0-1.545-.448-2.507-1.597-2.507h-8.024c-1.164.034-1.596.908-1.596 2.118zm2.47 3.388V5.266c0-.656.226-1.148.866-1.148h4.565c.77 0 .865.522.865 1.36V7.64c0 .594-.197.951-.865.951H40.13c-.57 0-.866-.207-.866-.95z" fill="#FA741C"/><path d="M.003 6.867V.639C-.019.192.062.036.443.002h1.942c.418-.014.595.058.596.637v5.924c.105.68.252.85.878.304L9.249.9c1.535-1.663 4.953-.743 4.953 1.973v7.266c.01.305-.13.4-.386.425h-1.93c-.437-.017-.65-.174-.63-.607V3.603c0-.623-.4-.752-.91-.213L4.65 9.671C2.765 11.405.003 9.901.003 6.867zm74.899.805V2.626c-.018-.353.046-.476.346-.503h1.62c.33-.01.47.046.47.503v4.806c.084.536.2.67.694.24L82 2.832c1.21-1.311 4-.586 4 1.558v5.955c.007.24-.103.316-.305.336H84.08c-.345-.014-.514-.138-.498-.48V4.966c0-.492-.315-.593-.717-.168l-4.21 5.087c-1.487 1.368-3.754.182-3.754-2.212zM77.978.746c0-.252.211-.456.472-.456h3.767c.26 0 .471.204.471.456v.456c0 .252-.21.456-.47.456h-3.769a.464.464 0 01-.47-.456V.746z" fill="#FA741C"/><path fill-rule="evenodd" clip-rule="evenodd" d="M63.063 2.098h7.419c2.296.018 2.919.624 2.94 2.706v5.463c.004.228-.061.289-.26.313h-1.83c-.255.011-.322-.033-.339-.172v-.181c0-.344-.097-.204-.188-.125l-.076.074c-.28.251-.65.404-1.054.404H64.26a1.587 1.587 0 01-1.58-1.59V6.91c0-.879.708-1.591 1.582-1.591h5.414c.485 0 .92.22 1.21.565l.037.046c.051.07.132.035.123-.132l-.009-.116a3.664 3.664 0 00-.026-.264c-.028-.215-.066-.425-.103-.51-.037-.086-.261-.896-1.445-.896h-6.4c-.298.007-.39-.064-.383-.355v-1.28c.011-.203.081-.275.384-.279zm1.888 4.991a.614.614 0 00-.613.616v.501c0 .34.274.616.613.616h4.187a.614.614 0 00.612-.616v-.5a.614.614 0 00-.612-.617H64.95z" fill="#FA741C"/><path fill-rule="evenodd" clip-rule="evenodd" d="M32.255 15.398c-.95-1.734.433-3.804 2.46-3.86 3.785-.102 6.799-.761 10.245-2.273 1.853-.812 4.047.462 3.979 2.43l-.124 3.576c-.046 1.306-1.119 2.349-2.461 2.476-3.391.322-5.871.969-9.083 2.097-1.234.434-2.616-.062-3.23-1.184l-1.786-3.262zm4.748-2.738l1.3 1.713 2.185.2-1.77 1.259-.205 2.116-1.3-1.713-2.185-.2 1.769-1.259.206-2.116zm7.347-.874a.829.829 0 00-1.12.25.773.773 0 00.259 1.086.829.829 0 001.12-.25.774.774 0 00-.259-1.086zm-1.149 1.782a.83.83 0 00-1.12.25.774.774 0 00.258 1.086.829.829 0 001.121-.25.774.774 0 00-.259-1.086zm1.868-.418a.829.829 0 011.12-.25c.382.23.498.716.26 1.085a.829.829 0 01-1.121.25.773.773 0 01-.259-1.085zm-.028 1.53a.829.829 0 00-1.121.252.773.773 0 00.259 1.085.83.83 0 001.12-.25.774.774 0 00-.258-1.086zm-5.619-6.69a4.922 4.922 0 011.687.193c.652.193 1.216.438 1.711.843.206.168.489.224.724.108l.094-.047c.362-.179.439-.658.121-.915-.669-.542-1.484-1.009-2.257-1.238a6.309 6.309 0 00-2.08-.252V7.99z" fill="#1CA1FB"/></svg>