<svg width="117" height="24" viewBox="0 0 117 24" fill="none" xmlns="http://www.w3.org/2000/svg"><path d="M4.352 14.1c-.329 1.068-1.302 1.57-2.235 1.57C1.026 15.67 0 14.997 0 13.703l4.339-2.469c-.066-.7-.618-.95-1.38-.95-.71 0-1.605.211-2.446.502l.526-1.505c.473-.185 1.275-.357 2.09-.357 1.407 0 2.893.502 2.893 2.31v3.855l-1.683.502v-1.492h.013zm0-1.374l-2.669.489c0 .845.592 1.267 1.223 1.267.71 0 1.446-.515 1.446-1.558v-.198zm9.282-3.577v6.336h-1.683v-4.963H9.94c0 3.128-.658 5.108-2.235 5.108-.237 0-.487-.052-.776-.145l-.158-1.32c.145.053.263.08.381.08 1.079 0 1.355-1.888 1.355-3.723V9.149h5.127zm1.631 0h1.683v1.967h1.222c1.802 0 2.63 1.016 2.63 2.152 0 1.161-.92 2.217-2.617 2.217h-2.918V9.15zm1.683 3.326v1.65h1.235c.566 0 .855-.409.855-.818 0-.41-.29-.818-.855-.818h-1.235v-.014zm9.322-1.953h-2.723v4.963h-1.683V9.15h6.088v6.336H26.27v-4.963zm8.059.924l-3.235 4.04h-1.499V9.161h1.683v4.04l3.235-4.04h1.499v6.323h-1.683v-4.04zm7.797 1.439h-2.8v2.6h-1.683V9.15h1.683v2.363h2.8V9.149h1.683v6.336h-1.683v-2.6zm7.1 1.215c-.329 1.068-1.302 1.57-2.235 1.57-1.092 0-2.117-.673-2.117-1.967l4.339-2.469c-.066-.7-.618-.95-1.38-.95-.71 0-1.605.211-2.446.502l.526-1.505c.473-.185 1.275-.357 2.09-.357 1.407 0 2.893.502 2.893 2.31v3.855l-1.683.502v-1.492h.013zm0-1.374l-2.67.489c0 .845.592 1.267 1.224 1.267.71 0 1.446-.515 1.446-1.558v-.198zm34.159-.515v3.274h-1.683V9.15h1.683v2.983l2.67-2.983h1.88l-2.63 2.917 2.919 3.42H86.12l-2.735-3.275zm10.085.674h-2.8v2.6h-1.683V9.15h1.683v2.363h2.8V9.149h1.683v6.336H93.47v-2.6zm8.047-1.439l-3.234 4.04h-1.5V9.161h1.683v4.04l3.235-4.04h1.499v6.323h-1.683v-4.04zm4.997-.924v4.963h-1.683V9.15h4.483v1.373h-2.8zm8.414.924l-3.235 4.04h-1.498V9.161h1.682v4.04l3.235-4.04h1.499v6.323h-1.683v-4.04z" fill="#000"/><path d="M66.24 24c6.601 0 11.952-5.373 11.952-12S72.842 0 66.24 0c-6.6 0-11.95 5.373-11.95 12s5.35 12 11.951 12z" fill="#FF4438"/><path d="M68.251 15.287c-.604 1.98-2.419 2.918-4.154 2.918-2.012 0-3.945-1.255-3.945-3.644l8.086-4.594c-.118-1.294-1.144-1.769-2.55-1.769-1.315 0-2.985.396-4.55.937l.986-2.798c.868-.357 2.367-.66 3.892-.66 2.63 0 5.365.937 5.365 4.29v7.155l-3.117.937v-2.772h-.013zm0-2.561l-4.97.924c0 1.584 1.105 2.35 2.275 2.35 1.315 0 2.695-.964 2.695-2.891v-.383z" fill="#fff"/></svg>