<svg width="79" height="34" viewBox="0 0 79 34" fill="none" xmlns="http://www.w3.org/2000/svg"><path d="M23.056 8.013l.68 11.553-4.9 12.47H5.237a5.199 5.199 0 01-3.805-1.63A5.124 5.124 0 01.016 26.54l1.09-18.527h21.95z" fill="url(#paint0_linear_7705_47947)"/><path d="M18.149 12.653h-2.074V6.026c0-2.187-1.792-3.966-3.994-3.966S8.087 3.839 8.087 6.026v6.627H6.013V6.026C6.013 2.703 8.735 0 12.08 0c3.346 0 6.068 2.703 6.068 6.026v6.627z" fill="#222"/><path d="M19.642 17.805c4.415-1.124 8.94 1.535 10.072 5.92 1.133 4.385-1.545 8.878-5.96 10.003-4.417 1.124-8.942-1.535-10.074-5.92-1.133-4.385 1.546-8.878 5.962-10.003z" fill="url(#paint1_linear_7705_47947)"/><path d="M18.232 26.027c.014.037.03.073.045.108l.014-.026-.034-.047-.025-.035zm-.99 4.354a40.626 40.626 0 00-.278 1.752c-.03.212.15.307.258.13 2.724-4.44 6.484-6.261 11.42-7.74l.812-.23c.241-.067.179-.314-.04-.313l-.921.003c-.792.003-1.545.01-2.266.017h-.037c-3.655 1.32-6.662 3.175-8.948 6.381z" fill="#fff"/><path fill-rule="evenodd" clip-rule="evenodd" d="M17.144 21.49c1.095.245 2.21.395 3.417.434 2.014.065 4.21.009 6.842 0l.92-.003c.22-.001.282.245.04.313l-.81.23c-4.937 1.478-8.845 3.593-11.569 8.033-.108.177-.294.143-.258-.067.353-2.032.737-4.11 1.68-5.97-.547-.762-1.198-1.645-1.756-2.885-.064-.14-.112-.239-.145-.326-.08-.217.073-.322.258-.225s.868.352 1.381.466z" fill="#fff"/><path fill-rule="evenodd" clip-rule="evenodd" d="M43.236 10.104h-1.238c-2.479.001-4.603 6.225-1.672 6.224h1.883c1.086 0 1.893.393 1.536 1.453l-.492 1.46-1.998.001-1.624-.016c-2.078-.02-3.42-1.037-3.903-2.58-.522-1.668.216-5.15 2.357-7.38 1.242-1.293 2.963-2.075 5.17-2.075h4.077l-.637 1.823c-.412 1.179-1.253 1.091-1.733 1.09h-1.727zm22.51 1.656h-6.562c-1.086 0-1.578.299-1.772.924l-.618 1.99h6.561c1.086 0 1.579-.299 1.773-.924l.618-1.99zm-1.598 4.569l-6.561-.001c-1.086 0-1.579.299-1.773.924l-.618 1.99h6.562c1.086 0 1.578-.299 1.772-.924l.618-1.99zm3.12-9.137h-6.56c-1.087 0-1.58.299-1.773.924l-.618 1.99h6.561c1.086 0 1.579-.299 1.773-.924l.618-1.99zM50.77 10.093h1.634c1.392.001 1.074 1.737.37 3.428-.621 1.492-1.72 2.807-3.033 2.807h-2.724c-1.086 0-1.587.299-1.798.924l-.672 1.99h1.997l1.952-.016c1.73-.014 3.148-.14 4.805-1.626 1.752-1.572 3.794-5.653 3.444-8.014-.274-1.85-1.27-2.395-3.68-2.395h-4.393l-2.558 7.474 1.626.002c.967.001 1.452.013 1.967-1.37l1.064-3.204zm13.878 9.149h3.097l1.331-3.794 1.383-1.163 1.09 3.432c.337 1.06.684 1.526 1.44 1.526h2.372l-2.446-6.733 5.883-5.33h-3.8l-3.57 3.795c-.416.441-.837.876-1.26 1.396h-.035l1.783-5.19h-3.097l-4.171 12.061z" fill="#222"/><path d="M36.163 27.174c0 1.153.764 1.906 2.067 1.906 1.378 0 2.188-.92 2.188-1.84 0-1.702-2.57-1.544-2.57-2.427 0-.335.336-.66.857-.66.587 0 .875.279.875.837h1.08c0-1.107-.651-1.86-1.89-1.86-.94 0-2.104.595-2.104 1.813 0 1.636 2.588 1.497 2.588 2.399 0 .38-.353.716-.95.716-.632 0-.977-.289-.977-.884h-1.164zm4.754 1.86h1.07l.429-2.418c.102-.595.484-.883.959-.883.642 0 .894.484.791 1.004l-.41 2.297h1.071l.42-2.371a1.74 1.74 0 00.037-.39c0-.819-.503-1.562-1.388-1.562-.344 0-.642.102-.866.204-.13.065-.251.13-.354.195l.345-1.933h-1.07l-1.034 5.857zm6.977.046c1.183 0 2.347-1.05 2.347-2.38 0-1.087-.838-1.99-1.956-1.99-1.182 0-2.346 1.051-2.346 2.38 0 1.088.838 1.99 1.955 1.99zm.093-1.013c-.596 0-.977-.428-.977-1.023 0-.79.577-1.32 1.182-1.32.596 0 .978.418.978 1.013 0 .79-.577 1.33-1.183 1.33zm2.398 2.454h1.071l.344-1.961c.084.102.187.186.299.26.195.14.493.26.893.26 1.108 0 2.235-1.022 2.235-2.436 0-1.05-.717-1.933-1.778-1.933-.326 0-.596.12-.81.232a2.059 2.059 0 00-.326.232l-.121-.418H51.4l-1.015 5.764zm2.598-2.482c-.596 0-.987-.4-.987-1.004 0-.809.559-1.32 1.182-1.32.596 0 .988.4.988 1.004 0 .809-.56 1.32-1.183 1.32zm2.385 2.482h1.07l.345-1.961c.084.102.187.186.298.26.196.14.494.26.894.26 1.108 0 2.235-1.022 2.235-2.436 0-1.05-.717-1.933-1.779-1.933-.325 0-.596.12-.81.232a2.068 2.068 0 00-.326.232l-.12-.418h-.792l-1.015 5.764zm2.598-2.482c-.596 0-.987-.4-.987-1.004 0-.809.559-1.32 1.182-1.32.596 0 .987.4.987 1.004 0 .809-.558 1.32-1.182 1.32zm2.646.995h1.07l.755-4.277h-1.071l-.754 4.277zm1.452-4.788c.335 0 .661-.288.661-.65a.546.546 0 00-.55-.559c-.334 0-.66.289-.66.651 0 .297.223.558.55.558zm.639 4.788h1.07l.429-2.418c.102-.595.484-.883.959-.883.559 0 .81.354.81.79 0 .075-.01.14-.019.214l-.41 2.297h1.072l.418-2.371c.028-.14.038-.26.038-.4 0-.837-.503-1.552-1.425-1.552-.344 0-.66.12-.894.232-.14.065-.26.149-.382.232l-.12-.418h-.792l-.754 4.277zm4.808.186c0 .009.27 1.394 1.918 1.394 1.164 0 1.909-.632 2.095-1.673l.736-4.184h-.792l-.326.52a1.435 1.435 0 00-.297-.278 1.666 1.666 0 00-.95-.288c-1.071 0-2.123.967-2.123 2.333 0 1.041.735 1.85 1.694 1.85.307 0 .568-.083.755-.186.111-.055.214-.12.297-.195l-.055.335c-.084.474-.447.79-.997.79-.372 0-.586-.102-.707-.205a.53.53 0 01-.14-.213h-1.108zm2.262-1.33c-.549 0-.93-.409-.93-.957 0-.68.54-1.181 1.135-1.181.55 0 .931.409.931.957 0 .68-.54 1.181-1.136 1.181z" fill="#222"/><defs><linearGradient id="paint0_linear_7705_47947" x1="3.945" y1="13.74" x2="17.48" y2="27.123" gradientUnits="userSpaceOnUse"><stop stop-color="#FBE524"/><stop offset="1" stop-color="#FFD436"/></linearGradient><linearGradient id="paint1_linear_7705_47947" x1="16.265" y1="36.281" x2="23.665" y2="15.62" gradientUnits="userSpaceOnUse"><stop stop-color="#1AB248"/><stop offset="1" stop-color="#00FF7F"/></linearGradient></defs></svg>