<svg width="45" height="28" viewBox="0 0 45 28" fill="none" xmlns="http://www.w3.org/2000/svg"><path d="M26.042 2.777C27.647.471 30.578-.57 34.755.311c3.154.664 4.547 2.532 6.938.807-1.187 2.037-2.47 2.832-6.042 2.267-3.977-.63-6.467-2.262-9.61-.608h.001z" fill="#F27E00"/><path d="M3.006 23.309V12.52h.148c.478 0 .84.019.932.17.13.238.173.541.173.974v8.186c0 .216 0 .758-.086.974-.154.415-.478.454-.718.454l-.445.03h-.004zM0 5.443v19.953h4.974c.85 0 1.503-.518 1.83-.97.413-.562.457-1.169.457-1.688V12.93c0-.584.022-1.036-.37-1.644-.806-1.211-2.026-1.168-2.636-1.168l-1.25.031V7.795h4.02l-.737-2.352H0zm9.188 19.953V5.443h2.881v9.615l-.18 1.588h.095l2.208-11.204h2.744v19.953H14.05v-7.846l.16-1.717h-.069l-2.208 9.563H9.188zm30.951 0l1.682-9.591h.093l-.139 1.996v7.595H45V5.443h-3.972l-1.753 11.391h-.095l-1.75-11.39h-3.972v19.952h3.224V17.8l-.14-1.996h.093l1.682 9.59h1.823zm-11.082 0h2.905L29.784 5.443h-4.03l-2.227 19.953h2.944l.481-5.4h1.63l.475 5.4zm-1.91-7.64l.575-6.434h.087l.57 6.435h-1.232zM25.019 2.797s-.978.022-1.282.09a2.07 2.07 0 00-.79.355l.005-.004a1.83 1.83 0 00-.52.627l-.005.01a2.125 2.125 0 00-.2.992v-.005 21.201L19.044 28V4.82c0-.877.128-1.618.386-2.222a3.893 3.893 0 011.053-1.468l.004-.003a4.032 4.032 0 011.53-.806l.028-.007c.584-.165 4.55-.236 4.55-.236l-1.577 2.717v.001z" fill="#004C8A"/></svg>