<svg width="118" height="22" viewBox="0 0 118 22" fill="none" xmlns="http://www.w3.org/2000/svg"><g clip-path="url(#clip0_3064_2127)" fill="#051C2C"><path d="M7.006 11.908L.658 8.23l1.36-2.398 2.225 1.266V2.39h2.763v9.517zm1.329-4.081L8.38.485h2.763v2.532L15.281.708l1.36 2.398-8.306 4.721zM3.376 18.655l-1.404-2.353 2.181-1.266-4.137-2.323 1.359-2.398 8.32 4.617-6.319 3.723zm14.862.953H15.46v-9.517l6.363 3.664-1.359 2.398-2.226-1.266v4.721zm-4.182 1.847h-2.778v-2.532L7.14 21.232l-1.359-2.398 8.32-4.662-.045 7.283zm6.991-9.74l-8.305-4.662 6.363-3.709 1.404 2.354-2.181 1.266 4.137 2.353-1.418 2.398zm4.466-4.558a4.744 4.744 0 012.45-.64 7.3 7.3 0 011.403.134 6.57 6.57 0 011.315.357v1.728a5.899 5.899 0 00-1.225-.402 5.619 5.619 0 00-1.494-.179 2.86 2.86 0 00-.866.09.665.665 0 00-.314.178c-.09.09-.164.209-.224.313a3.28 3.28 0 00-.09.402c0 .998 1.539.998 2.913 1.4.329.09.628.223.911.402.27.194.508.447.687.73.18.372.27.774.27 1.177 0 2.04-1.494 2.77-3.406 2.77a7.155 7.155 0 01-3.092-.64v-1.803c.448.224.926.417 1.404.551a5.67 5.67 0 001.493.224c1.136 0 1.629-.268 1.629-1.043 0-.953-1.494-.953-2.779-1.31-1.045-.269-2.001-.82-2.001-2.31a2.478 2.478 0 01.269-1.22c.194-.358.433-.656.747-.909zm7.214 8.281V6.695h6.587v1.639h-4.72v2.13h3.675v1.578h-3.675v3.351l-1.867.045zm11.77 0V6.695h6.587v1.639h-4.72v1.847h4.138v1.638h-4.138v1.98h4.81v1.639h-6.677z"/><path fill-rule="evenodd" clip-rule="evenodd" d="M52.399 15.453V6.695h3.36c2.779-.044 4.855 1.862 4.81 4.35.045 2.531-2.046 4.393-4.81 4.348l-3.36.06zm1.867-1.594h1.27a3.581 3.581 0 002.315-.73c.283-.253.492-.566.642-.908.15-.343.209-.715.18-1.087a2.687 2.687 0 00-.18-1.088 2.071 2.071 0 00-.642-.908 3.288 3.288 0 00-2.316-.774h-1.27v5.495z"/><path d="M61.943 6.695h1.867v5.034c0 1.4.732 2.13 1.912 2.13s1.912-.73 1.912-2.13V6.696h1.867v5.08a3.83 3.83 0 01-1.045 2.859 4.086 4.086 0 01-2.734 1.042c-1 0-1.986-.372-2.733-1.042a3.747 3.747 0 01-.822-1.31 3.436 3.436 0 01-.224-1.55v-5.08zm10.546 1.132a4.95 4.95 0 013.495-1.266c.896 0 1.777.18 2.584.537v1.817a4.517 4.517 0 00-2.45-.537 2.903 2.903 0 00-2.136.775 2.718 2.718 0 00-.627.953 2.904 2.904 0 00-.18 1.132c-.014.372.06.745.225 1.087.134.358.343.67.642.909.538.476 1.24.744 1.957.73a4.47 4.47 0 002.629-.82v1.907a6.542 6.542 0 01-2.913.685 4.839 4.839 0 01-2.405-.596 4.006 4.006 0 01-1.643-1.623 4.479 4.479 0 01-.597-2.309 4.21 4.21 0 01.313-1.817 5.046 5.046 0 011.106-1.564z"/><path fill-rule="evenodd" clip-rule="evenodd" d="M79.344 15.438l4.317-8.743h.493l4.451 8.743H86.56l-.717-1.534h-3.854l-.732 1.534h-1.912zm3.316-2.979h2.495l-1.27-2.725-1.225 2.725z"/><path d="M87.35 8.334V6.695h7.35v1.639h-2.78v7.104H90.1V8.334h-2.75zm8.395 7.104V6.695h1.867v8.743h-1.867z"/><path fill-rule="evenodd" clip-rule="evenodd" d="M100.525 7.842a4.946 4.946 0 011.956-1.221 5.07 5.07 0 012.316-.134 4.556 4.556 0 012.091.998 4.938 4.938 0 011.359 1.862c.224.565.329 1.161.314 1.772a4.208 4.208 0 01-.314 1.817 4.316 4.316 0 01-1.733 2.085 4.309 4.309 0 01-2.628.685 4.694 4.694 0 01-3.361-1.266 5.241 5.241 0 01-1.001-1.534 5.017 5.017 0 01-.329-1.817 4.77 4.77 0 01.314-1.772 4.909 4.909 0 011.016-1.475zm.672 3.262c-.015.372.045.745.179 1.087.12.358.329.685.598.953.254.268.567.462.911.596a3.147 3.147 0 002.091 0 2.83 2.83 0 00.911-.596c.269-.268.478-.595.597-.953.12-.342.195-.715.18-1.087 0-.387-.06-.774-.18-1.132a2.448 2.448 0 00-.597-.953 2.756 2.756 0 00-1.912-.775 2.69 2.69 0 00-1.912.775 2.636 2.636 0 00-.597.953c-.179.343-.284.73-.269 1.132z"/><path d="M110.159 15.438V6.695h.597l5.363 5.213V6.695h1.777v8.743h-.642l-5.318-5.213v5.213h-1.777z"/></g><defs><clipPath id="clip0_3064_2127"><path fill="#fff" transform="translate(0 .5)" d="M0 0h118v21H0z"/></clipPath></defs></svg>