<svg width="50" height="40" viewBox="0 0 50 40" fill="none" xmlns="http://www.w3.org/2000/svg"><path fill-rule="evenodd" clip-rule="evenodd" d="M39.566 19.336l.988.982.989-.982-.988-.982-.988.982h-.001zm-30.964 0l.988.982.99-.982-.989-.982-.987.982h-.002zm27.732-6.037c-.37 0-.92.223-.92.691 0 .467.9.966 1.725.966 2.595 0 3.946-2.06 3.946-4.003 0-1.992-1.58-4.437-5.037-4.345-4 .11-6.893 3.134-7.047 8.544 0 .138-.01.52-.032 1.072l-1.834.083c.122-3.353.317-8.994.325-9.426.264.012.91.015 1.377.026 2.639.05 4.767-2.114 4.767-4.405C33.604.784 32.866 0 32.267 0c-.86 0-.53 2.476-3.76 2.476C25.05 2.476 21.91.87 17.954.87c-6.558 0-9.371 4.695-9.371 8.978 0 4.288 3.13 6.979 6.482 6.865 3.353-.114 5.814-2.251 5.814-4.979 0-2.66-1.914-3.224-2.417-3.207-.392.012-.639.26-.658 1.325-.04 2.005-1.59 3.085-2.988 3.085-1.395 0-2.912-.796-2.912-3.012 0-2.218 1.67-4.434 5.67-4.434 1.705 0 4.093.476 5.332.848-.014.685-.291 6.617-.46 10.2-.208.012-.357.023-.43.03-1.06.103-2.224 1.08-2.28 2.12-.04.694.56.924 1.604.963.103.002.442-.007.944-.027-.485 5.822-2.263 6.047-3.073 6.047-.83 0-2-.748-2-1.997 0-2.48 1.854-2.791 1.854-3.456 0-.664-1.12-.857-1.666-.857-2.23 0-4.603 1.813-4.603 4.415 0 2.6 2.22 5.067 6.366 5.067 3.998 0 7.334-3.498 7.837-9.438l1.835-.092c-.194 4.206-.485 10.047-.485 10.047-.27 6.188-2.098 6.468-2.927 6.491-.828.024-2.018-.692-2.053-1.94-.067-2.482 1.779-2.842 1.76-3.506-.017-.663-1.146-.827-1.69-.812-2.232.06-4.549 1.937-4.478 4.54.073 2.598 2.354 5.002 6.502 4.89 4.145-.113 7.483-3.972 7.6-10.34.01-.502.2-5.508.35-9.615.598-.033.98-.057 1.032-.06 1.177-.15 2.073-1.06 2.124-2.013.046-.83-.569-1.057-1.636-1.032-.07 0-.601.023-1.41.057.049-1.314.077-2.23.077-2.374-.073-2.682 1.52-3.887 2.495-3.915 1.005-.024 1.773.674 1.773 1.64 0 .965-.483 1.927-1.535 1.927h.001zm11.5 5.593h-1.29V17.54h1.29c.357 0 .662.296.662.659 0 .364-.305.693-.662.693v.001zm.724 1.023c.758-.304 1.29-.944 1.29-1.74 0-1.032-.854-1.873-1.9-1.873h-2.606a.168.168 0 00-.166.165v5.735c0 .086.07.165.166.165h1.036a.171.171 0 00.166-.165v-2.21h.602l1.159 2.296c.017.037.07.08.139.08h1.158c.15 0 .211-.14.15-.253l-1.194-2.2zM3.19 17.525c.427 0 .854.155 1.177.441.061.06.155.06.217 0l.68-.703a.16.16 0 00-.008-.242c-.594-.537-1.238-.804-2.11-.804A3.129 3.129 0 000 19.344c0 1.734 1.402 3.108 3.146 3.108a3 3 0 002.119-.839c.06-.06.07-.174.008-.235l-.68-.717c-.052-.061-.165-.061-.226-.009a1.862 1.862 0 01-1.168.415c-.986 0-1.717-.797-1.717-1.758 0-.97.723-1.784 1.708-1.784z" fill="#353060"/></svg>