<svg width="112" height="12" viewBox="0 0 112 12" fill="none" xmlns="http://www.w3.org/2000/svg"><g clip-path="url(#clip0_2864_18)" fill="#231F20"><path d="M51.002 3.988c0-.92-.285-1.699-.82-2.287C49.488.954 48.386.523 46.949.523h-4.886v10.942h1.827V2.254h.066v-.002h2.81c.721 0 1.294.165 1.684.479.396.306.613.76.613 1.351 0 .97-.638 1.628-1.675 1.806-.183.03-1.232.052-1.232.052l-.007 1.423 2.945 4.087h2.254l-2.966-4.145c1.538-.438 2.62-1.518 2.62-3.317zM.744 2.252h5.532L.5 10.494v.97h8.462v-1.82H3.315l5.647-8.172V.5H.744v1.752zm86.239 5.986L80.487.5h-1.282v10.965h1.826V3.986l6.078 7.479h1.733V.5h-1.859v7.738zm-23.179 3.25h1.827V.5h-1.827v10.988zM24.551.5l-.586 1.173 4.992 9.792h2.016L25.541.5h-.99zm-2.693 5.384v.004l-2.787 5.577h2.037l1.915-3.76h2.207l-.948-1.82h-2.424zM106.03.5h-.99l-.587 1.173 4.993 9.792h2.016L106.03.5zm-3.683 5.384v.004l-2.787 5.577h2.037l1.915-3.76h2.207l-.948-1.82h-2.424z"/></g><defs><clipPath id="clip0_2864_18"><path fill="#fff" transform="translate(.5 .5)" d="M0 0h111v11H0z"/></clipPath></defs></svg>