<svg width="108" height="24" viewBox="0 0 108 24" fill="none" xmlns="http://www.w3.org/2000/svg"><path d="M23.734 5.296a1.498 1.498 0 00-.548-2.042 1.506 1.506 0 00-.747-.204H7.385L2.481.22A1.654 1.654 0 00.005 1.644v15.321C.005 20.85 3.16 24 7.05 24h6.892c3.891 0 7.046-3.15 7.046-7.035v-6.922l2.745-4.747z" fill="#3EB549"/><path d="M7.23 4.688L1.86 1.59a.215.215 0 00-.12-.035.239.239 0 00-.238.232v15.178c0 1.47.585 2.878 1.625 3.917a5.554 5.554 0 003.924 1.623h2.846V20.95c-1.032-.202-1.79-.905-1.79-1.74 0-.994 1.074-1.786 2.387-1.786s2.387.804 2.387 1.787c0 .834-.764 1.537-1.79 1.74v1.554h2.846a5.566 5.566 0 003.92-1.626 5.547 5.547 0 001.629-3.914v-.173C12.93 16.415 7.679 11.23 7.23 4.688zM5.261 14.696a2.34 2.34 0 01-2.172-2.473 2.327 2.327 0 012.172-2.466 2.334 2.334 0 012.178 2.466 2.333 2.333 0 01-2.178 2.472zm-.835-3.575a.675.675 0 00-.477 1.15.675.675 0 10.477-1.156v.006zm9.97.673a.821.821 0 001.144.752.822.822 0 10-1.144-.752z" fill="#fff"/><path d="M5.1 17.114a1.654 1.654 0 00-1.659 1.644 1.649 1.649 0 001.647 1.656 1.654 1.654 0 001.659-1.644A1.649 1.649 0 005.1 17.114zm10.794 0a1.655 1.655 0 00-1.659 1.644 1.648 1.648 0 001.647 1.656 1.654 1.654 0 001.659-1.644 1.648 1.648 0 00-1.647-1.656z" fill="#F8AA97"/><path d="M46.807 2.86c-3.33 0-4.177 2.382-4.386 3.442h-.972V3.98a.929.929 0 00-.93-.93h-.67a.926.926 0 00-.924.93v6.97a.92.92 0 00.57.858c.112.047.233.07.355.07h.668a.932.932 0 00.93-.928V8.566h.968c.17.93.656 1.771 1.378 2.383a4.36 4.36 0 002.983 1.072 4.38 4.38 0 003.342-1.27 4.367 4.367 0 001.276-3.335 4.689 4.689 0 00-1.151-3.234 4.6 4.6 0 00-3.437-1.323zm1.527 6.248a1.987 1.987 0 01-1.533.596 1.948 1.948 0 01-1.516-.596 2.434 2.434 0 01-.53-1.65 2.487 2.487 0 01.524-1.674 1.927 1.927 0 011.516-.596 1.972 1.972 0 011.533.596c.38.473.57 1.07.537 1.674a2.38 2.38 0 01-.53 1.65zm11.164-2.281c-.597-.495-1.354-.596-2.53-.596h-1.891V5.188h3.77a.926.926 0 00.92-.929v-.292a.922.922 0 00-.931-.917h-5.37a.932.932 0 00-.931.93v6.963a.942.942 0 00.93.935h3.497a3.805 3.805 0 002.53-.733 2.745 2.745 0 00.841-2.156 2.69 2.69 0 00-.829-2.162h-.006zm-2.56 2.978h-1.861V8.298h1.867c.567 0 .842.25.842.768 0 .519-.28.757-.842.757l-.006-.018zM36.652 3.032h-4.94a.932.932 0 00-.931.93v.452a32.954 32.954 0 01-.347 3.443c-.226 1.191-.495 1.674-1.026 1.787a1.116 1.116 0 00-.955 1.191c0 .912.764 1.102 1.409 1.102 1.193 0 1.987-.667 2.524-2.09.433-1.51.68-3.066.733-4.635h1.952v5.76c0 .514.416.93.93.93h.669a.93.93 0 00.924-.953v-6.97a.928.928 0 00-.924-.93l-.018-.017zm51.26 0h-.67a.931.931 0 00-.93.93v2.727c-.41.182-.852.276-1.3.275-.95 0-1.32-.358-1.32-1.27V3.98a.928.928 0 00-.93-.93h-.638a.931.931 0 00-.931.93v2.192a3.033 3.033 0 00.859 2.282 3.284 3.284 0 002.387.822 7.638 7.638 0 001.867-.268h.03v1.954a.93.93 0 00.93.929h.67a.931.931 0 00.93-.93V3.98a.927.927 0 00-.937-.93l-.018-.018zm9.271 0h-.71a1.416 1.416 0 00-1.193.768l-2.81 4.17v-.107c.083-.63.123-1.265.119-1.9V3.979a.922.922 0 00-.925-.93h-.596a.932.932 0 00-.925.93v6.964c0 .512.411.929.925.935h.387a1.447 1.447 0 001.33-.68l3.032-4.42v.108c-.118.68-.17 1.37-.155 2.061v2.002a.93.93 0 00.93.929h.597a.931.931 0 00.931-.93V3.986a.934.934 0 00-.919-.935l-.018-.018zm-28.956 0h-.71a1.428 1.428 0 00-1.193.768L63.52 7.97v-.107c.083-.63.123-1.265.119-1.9V3.979a.928.928 0 00-.93-.93h-.598a.932.932 0 00-.93.93v6.964a.934.934 0 00.93.935h.388a1.435 1.435 0 001.349-.68l3.03-4.42v.108a11.116 11.116 0 00-.148 2.061v2.002a.928.928 0 00.924.929h.597a.931.931 0 00.93-.93V3.986a.934.934 0 00-.936-.935l-.018-.018zm38.61 7.428l-2.01-3.151 1.79-2.746c.12-.176.188-.383.197-.596a.724.724 0 00-.478-.655l-.567-.28a.845.845 0 00-.435-.113.97.97 0 00-.8.56l-1.676 2.782h-.883V3.979a.94.94 0 00-.269-.657.922.922 0 00-.656-.272h-.669a.932.932 0 00-.93.93v6.969a.93.93 0 00.93.929h.669a.926.926 0 00.925-.93V8.567h.847l1.73 2.704c.316.483.597.71.919.71a.598.598 0 00.221-.043l.752-.238a.817.817 0 00.519-.476.855.855 0 00-.108-.745l-.018-.018zM79.361 3.05h-.71a1.195 1.195 0 00-1.134.685L75.37 7.148l-2.118-3.383a1.192 1.192 0 00-1.133-.685h-.71a.938.938 0 00-.931.935v6.934a.93.93 0 00.93.929h.597a.932.932 0 00.93-.93V9.443c.016-.71-.037-1.42-.154-2.121v-.113l1.706 2.615c.293.452.466.655.901.661.436.006.597-.209.901-.661l1.707-2.615v.113c-.118.7-.17 1.41-.156 2.12v1.508a.928.928 0 00.925.929h.597a.932.932 0 00.93-.93V3.986a.934.934 0 00-.93-.935z" fill="#F05125"/><path d="M32.427 18.865a1.646 1.646 0 00.955-1.59c0-1.126-.955-1.906-2.691-1.918a4.779 4.779 0 00-1.45.214c-.346.113-.555.274-.549.643v.417a.506.506 0 00.633.453 4.03 4.03 0 011.11-.179c.668 0 1.103.167 1.103.668 0 .5-.364.685-.942.685h-.364a.346.346 0 00-.34.34v.72a.45.45 0 00.453.459h.471c.537 0 .842.16.842.595 0 .513-.394.733-1.265.733a3.503 3.503 0 01-1.033-.16.489.489 0 00-.632.44v.429a.672.672 0 00.56.697c.466.109.943.16 1.42.155 1.129 0 2.8-.519 2.8-2.097a1.636 1.636 0 00-1.08-1.704zm5.31-3.538a3.4 3.4 0 00-3.425 2.204c-.17.457-.238.944-.202 1.43a3.432 3.432 0 002.19 3.448c.456.176.944.254 1.432.227 1.933 0 3.58-1.191 3.58-3.693.018-2.365-1.504-3.616-3.574-3.616zm0 5.838c-1.014 0-1.79-.71-1.79-2.198 0-1.49.776-2.163 1.79-2.163 1.015 0 1.79.703 1.79 2.115-.011 1.543-.787 2.246-1.813 2.246h.024zm7.936-5.838a3.4 3.4 0 00-2.647.988 3.39 3.39 0 00-.98 2.645 3.434 3.434 0 002.174 3.441c.453.178.938.258 1.423.235 1.94 0 3.58-1.191 3.58-3.693.018-2.365-1.485-3.616-3.574-3.616h.024zm0 5.838c-1.014 0-1.79-.71-1.79-2.198 0-1.49.776-2.163 1.79-2.163 1.015 0 1.79.703 1.79 2.115-.035 1.543-.805 2.246-1.837 2.246h.047zm11.934-5.695h-.508a.866.866 0 00-1.008.554l-1.951 3.294-1.695-3.276c-.244-.483-.352-.596-.93-.596h-.675a.651.651 0 00-.644.643v5.784a.648.648 0 00.644.644h.478a.652.652 0 00.644-.644V18.18l1.146 2.21a.846.846 0 00.93.596h.09a.885.885 0 00.96-.554l1.313-2.246v3.735c0 .355.29.643.645.643h.471a.65.65 0 00.644-.643v-5.808a.649.649 0 00-.614-.625l.06-.018zm6.098.595a.804.804 0 00-.866-.595h-.817a.807.807 0 00-.758.595l-2.22 5.69a.554.554 0 00.555.786h.478a.764.764 0 00.758-.596l.262-.774H63.7l.232.774a.799.799 0 00.776.596h.477a.556.556 0 00.555-.787l-2.035-5.689zm-2.113 3.658l.871-2.538.782 2.538h-1.653zm9.983-3.312v-.298a.644.644 0 00-.705-.625h-3.723a.646.646 0 00-.638.643v5.784a.643.643 0 00.638.643h.478a.651.651 0 00.644-.643v-4.86h2.601a.645.645 0 00.645-.644h.06zm3.967-.328a.81.81 0 00-.865-.595h-.817a.807.807 0 00-.758.595l-2.22 5.69a.553.553 0 00.555.785h.478a.765.765 0 00.757-.595l.263-.775h2.601l.233.775a.798.798 0 00.776.595h.477a.556.556 0 00.555-.786l-2.035-5.689zm-2.112 3.658l.871-2.538.782 2.538H73.43zm8.49-.858a1.646 1.646 0 00.955-1.62c0-1.126-.954-1.906-2.685-1.918a4.843 4.843 0 00-1.456.214c-.34.113-.554.274-.542.644v.416a.506.506 0 00.632.453 4.03 4.03 0 011.11-.149c.674 0 1.104.167 1.104.668 0 .5-.364.684-.943.684h-.358a.352.352 0 00-.346.34v.72a.452.452 0 00.46.46h.465c.537 0 .847.16.847.595 0 .512-.4.733-1.271.733a3.497 3.497 0 01-1.026-.161.496.496 0 00-.639.44v.43a.679.679 0 00.567.697c.463.108.938.16 1.414.154 1.128 0 2.805-.518 2.805-2.096a1.642 1.642 0 00-1.092-1.722v.018zm8.11-3.395h-.597a.7.7 0 00-.74.369l-2.918 4.027v-3.8a.643.643 0 00-.644-.638h-.49a.645.645 0 00-.662.637v5.779a.649.649 0 00.645.643h.596a.735.735 0 00.746-.4l2.942-3.96v3.74a.643.643 0 00.638.644h.495a.651.651 0 00.657-.644v-5.772a.648.648 0 00-.669-.625zm7.9-.036h-.472a.65.65 0 00-.645.631v2.085H93.73v-2.085a.64.64 0 00-.397-.6.646.646 0 00-.248-.049h-.477a.65.65 0 00-.638.65v5.82a.65.65 0 00.644.643h.477a.644.644 0 00.639-.644V19.7h3.084v2.198a.649.649 0 00.645.644h.471a.651.651 0 00.645-.644v-5.814a.649.649 0 00-.645-.649v.018z" fill="#3EB549"/></svg>