<svg width="108" height="32" viewBox="0 0 108 32" fill="none" xmlns="http://www.w3.org/2000/svg"><path d="M47.764 27.53v-8.882h7.774v2.259h-4.803v1.027h2.14c2.19 0 3.393.952 3.393 2.69 0 1.815-1.409 2.906-3.778 2.906h-4.726zm2.971-2.093h1.55c.602 0 .948-.267.948-.736 0-.457-.32-.686-.948-.686h-1.55v1.422zm13.376 2.093l-.602-1.548h-3.407L59.5 27.53h-3.074l3.92-8.882h2.971l3.92 8.882H64.11zm-3.176-3.705h1.742l-.871-2.233-.871 2.233zm8.433-5.177h7.57v8.882h-2.972v-6.56h-2.05l-.025 1.028c-.103 3.426-.564 5.697-3.036 5.697a5.49 5.49 0 01-1.28-.165l.153-2.398c.115.025.23.038.333.038.999 0 1.127-1.332 1.191-3.058l.116-3.464zm10.331 0h7.57v8.882h-2.972v-6.56h-2.05l-.025 1.028c-.102 3.426-.563 5.697-3.035 5.697-.372 0-.807-.05-1.281-.165l.154-2.398c.115.025.23.038.333.038.999 0 1.127-1.332 1.19-3.058l.116-3.464zm13.713 9.085c-2.92 0-5.06-1.954-5.06-4.644 0-2.69 2.14-4.644 5.06-4.644 2.92 0 5.06 1.954 5.06 4.644 0 2.69-2.14 4.644-5.06 4.644zm0-2.423c1.114 0 2.01-.838 2.01-2.22 0-1.384-.896-2.222-2.01-2.222-1.114 0-2.01.838-2.01 2.221s.896 2.22 2.01 2.22zm13.038-2.437c.986.356 1.55 1.054 1.55 2.081 0 1.574-1.307 2.576-3.651 2.576h-4.79v-8.882h4.547c2.216 0 3.496.85 3.496 2.322 0 .85-.422 1.51-1.152 1.903zm-3.92-2.132v1.32h1.281c.513 0 .743-.215.743-.647 0-.431-.23-.673-.743-.673h-1.281zm1.678 4.696c.5 0 .743-.254.743-.711 0-.457-.243-.685-.743-.685h-1.678v1.396h1.678zM49.385 8.058c-.934 0-1.621-.649-1.621-1.518 0-.87.686-1.519 1.621-1.519.926 0 1.613.645 1.613 1.519 0 .873-.687 1.518-1.613 1.518zm0-.378c.674 0 1.178-.483 1.178-1.14 0-.658-.504-1.141-1.178-1.141-.682 0-1.187.483-1.187 1.14 0 .658.505 1.141 1.187 1.141zm4.455-2.625h.434v2.969h-.435V6.7h-1.747v1.323h-.435V5.055h.435v1.277h1.747V5.055zm1.645 0h2.143v2.969h-.426v-2.6h-1.348l-.03.87c-.04 1.179-.226 1.764-.826 1.764a1.1 1.1 0 01-.274-.034l.03-.378a.543.543 0 00.14.017c.378 0 .508-.436.543-1.357l.048-1.25zm5.36 2.969l-.335-.742h-1.617l-.335.742h-.447l1.378-2.969h.43L61.3 8.024h-.456zm-1.8-1.082h1.313l-.656-1.454-.657 1.454zm4.046-2.094c-.478 0-.743-.212-.747-.581h.308c.005.22.17.347.44.347.26 0 .43-.127.438-.347h.305c-.005.369-.274.58-.744.58zm-1.308 3.176V5.055h.43v2.29l1.8-2.29h.4v2.969h-.426V5.738l-1.804 2.286h-.4zM67.5 5.055h.435v2.969H67.5V6.7h-1.747v1.323h-.435V5.055h.435v1.277H67.5V5.055zm1.114 1.981v-.352h1.17v.352h-1.17zm5.233-1.981h.427v2.969H70.46V5.055h.43v2.6h1.265v-2.6h.426v2.6h1.265v-2.6zm3.377 2.969l-.987-1.306h-.634v1.306h-.427V5.055h.427v1.29h.643l.956-1.29h.465l-1.086 1.438 1.138 1.53h-.495zm2.258.034c-.934 0-1.621-.649-1.621-1.518 0-.87.687-1.519 1.621-1.519.926 0 1.613.645 1.613 1.519 0 .873-.687 1.518-1.613 1.518zm0-.378c.674 0 1.178-.483 1.178-1.14 0-.658-.504-1.141-1.178-1.141-.682 0-1.186.483-1.186 1.14 0 .658.504 1.141 1.186 1.141zm2.531-2.625h2.143v2.969h-.426v-2.6h-1.348l-.03.87c-.04 1.179-.226 1.764-.826 1.764a1.1 1.1 0 01-.274-.034l.03-.378a.543.543 0 00.14.017c.378 0 .508-.436.543-1.357l.048-1.25zm5.36 2.969l-.335-.742h-1.617l-.335.742h-.447l1.378-2.969h.43l1.382 2.969h-.456zm-1.8-1.082h1.313l-.656-1.454-.657 1.454zm-37.557 3.485h2.621v2.968h-.426v-2.6h-1.765v2.6h-.43v-2.968zm4.896 3.003c-.935 0-1.622-.65-1.622-1.519 0-.87.687-1.518 1.622-1.518.926 0 1.613.644 1.613 1.518s-.687 1.518-1.613 1.518zm0-.378c.674 0 1.178-.484 1.178-1.14 0-.658-.504-1.142-1.178-1.142-.683 0-1.187.484-1.187 1.141s.504 1.14 1.187 1.14zm4.638-.026h.448v1.018h-.404v-.649H55.09l-.004.65h-.404l.004-1.019h.148c.417-.025.517-.742.547-1.645l.03-.954h2.14v2.6zm-1.786-1.607c-.026.725-.1 1.378-.36 1.607h1.716v-2.23h-1.334l-.022.623zm4.78-.992l-.004.369h-1.565l.005 2.6h-.43v-2.97h1.994zm1.462 3.003c-.935 0-1.621-.65-1.621-1.519 0-.87.686-1.518 1.621-1.518.926 0 1.613.644 1.613 1.518s-.687 1.518-1.613 1.518zm0-.378c.674 0 1.178-.484 1.178-1.14 0-.658-.504-1.142-1.178-1.142-.682 0-1.187.484-1.187 1.141s.505 1.14 1.187 1.14zm4.32-2.625v.369h-1.043v2.6h-.426v-2.6h-1.039v-.37h2.508zm1.812 3.003c-.934 0-1.621-.65-1.621-1.519 0-.87.687-1.518 1.621-1.518.926 0 1.613.644 1.613 1.518s-.687 1.518-1.613 1.518zm0-.378c.674 0 1.178-.484 1.178-1.14 0-.658-.504-1.142-1.178-1.142-.682 0-1.187.484-1.187 1.141s.505 1.14 1.187 1.14zm4.167-1.196c.41.098.626.343.626.73 0 .508-.382.81-1.13.81h-1.39v-2.97h1.308c.66 0 1.06.268 1.06.764 0 .327-.178.556-.474.666zm-1.465-1.094v.971h.848c.418 0 .652-.165.652-.484 0-.318-.234-.487-.652-.487h-.847zm.953 2.298c.456 0 .7-.16.7-.509 0-.343-.244-.496-.7-.496h-.953v1.005h.953zm3.869.335l-.987-1.306h-.635v1.306h-.426v-2.968h.426v1.289h.644l.956-1.29h.465l-1.087 1.438 1.14 1.531h-.496zm.898 0v-2.968h.43v2.29l1.8-2.29h.4v2.968h-.427V11.11l-1.804 2.285h-.4zm6.706 0l-.987-1.306h-.635v1.306h-.425v-2.968h.425v1.289h.644l.956-1.29h.465l-1.087 1.438 1.14 1.531h-.496zm2.558-.369h1.774v.37h-2.209v-2.97h2.148v.37h-1.713v.912h1.526v.36h-1.526v.958zm4.408-2.599l-.004.369h-1.565l.004 2.6h-.43v-2.97h1.995zm1.314-.034c.878 0 1.53.64 1.53 1.518s-.652 1.518-1.53 1.518c-.492 0-.913-.157-1.187-.466l.274-.267c.239.245.543.351.89.351a1.08 1.08 0 001.105-.988h-1.474v-.347h1.47a1.084 1.084 0 00-1.1-.937c-.348 0-.652.11-.891.352l-.274-.268c.274-.305.695-.466 1.187-.466zm3.314 3.002v-2.968h.43v2.29l1.8-2.29h.4v2.968h-.426V11.11l-1.804 2.285h-.4zm6.029.035c-.935 0-1.622-.65-1.622-1.519 0-.87.687-1.518 1.622-1.518.926 0 1.613.644 1.613 1.518s-.687 1.518-1.613 1.518zm0-.378c.674 0 1.178-.484 1.178-1.14 0-.658-.504-1.142-1.178-1.142-.683 0-1.187.484-1.187 1.141s.504 1.14 1.187 1.14zm4.267-2.625l-.004.369h-1.565l.004 2.6h-.43v-2.97h1.995zm1.313-.034c.878 0 1.531.64 1.531 1.518s-.653 1.518-1.531 1.518c-.491 0-.913-.157-1.186-.466l.273-.267c.24.245.544.351.892.351a1.08 1.08 0 001.104-.988h-1.474v-.347h1.469a1.083 1.083 0 00-1.099-.937c-.348 0-.652.11-.892.352l-.273-.268c.273-.305.695-.466 1.186-.466z" fill="#202335"/><path fill-rule="evenodd" clip-rule="evenodd" d="M8.543.207a10.486 10.486 0 016.133.612 10.645 10.645 0 014.764 3.96 10.854 10.854 0 011.788 5.974v10.494c0 1.412-.274 2.81-.807 4.114a10.764 10.764 0 01-2.301 3.49 10.607 10.607 0 01-3.444 2.33 10.496 10.496 0 01-8.124 0 10.608 10.608 0 01-3.443-2.33 10.763 10.763 0 01-2.301-3.49C.237 23.965 0 22.305 0 20.8h7.352c-.928-.304-1.815-.55-2.635-1.106a10.724 10.724 0 01-3.91-4.826 10.884 10.884 0 01-.603-6.212A10.798 10.798 0 013.109 3.15 10.572 10.572 0 018.543.207z" fill="#fff"/><path d="M1.299 14.547A10.181 10.181 0 01.725 8.69a10.15 10.15 0 012.76-5.19A10.07 10.07 0 018.65.729a10.039 10.039 0 015.827.577 10.096 10.096 0 014.526 3.733 10.17 10.17 0 011.696 5.37h-10.34V20.8a10.052 10.052 0 01-5.345-1.705A10.124 10.124 0 011.3 14.547z" fill="#FBAB14"/><path d="M20.697 21.333a10.448 10.448 0 01-.785 3.715 10.407 10.407 0 01-2.244 3.375 10.35 10.35 0 01-3.358 2.255c-1.175.489-2.162.756-3.431.789V21.333h9.818z" fill="#7C4894"/><path d="M10.35 31.467c-1.27-.033-2.257-.3-3.431-.789a10.35 10.35 0 01-3.359-2.255 10.407 10.407 0 01-2.244-3.375 10.448 10.448 0 01-.785-3.715h9.819v10.134z" fill="#E92452"/><path fill-rule="evenodd" clip-rule="evenodd" d="M10.879 20.8h9.818v-9.867H10.88V20.8z" fill="#1CA3B3"/><path fill-rule="evenodd" clip-rule="evenodd" d="M29.772.207a10.486 10.486 0 016.133.612 10.645 10.645 0 014.763 3.96 10.854 10.854 0 011.789 5.974v10.494c0 1.412-.275 2.81-.808 4.114a10.76 10.76 0 01-2.3 3.49 10.607 10.607 0 01-3.444 2.33 10.496 10.496 0 01-8.124 0 10.607 10.607 0 01-3.444-2.33 10.764 10.764 0 01-2.3-3.49c-.572-1.396-.808-3.056-.808-4.561h7.352c-.928-.304-1.816-.55-2.635-1.106a10.725 10.725 0 01-3.91-4.826 10.884 10.884 0 01-.604-6.212 10.798 10.798 0 012.905-5.506A10.572 10.572 0 0129.772.207z" fill="#fff"/><path d="M22.527 14.547a10.18 10.18 0 01-.573-5.856 10.15 10.15 0 012.76-5.19A10.07 10.07 0 0129.878.729a10.04 10.04 0 015.826.577 10.096 10.096 0 014.526 3.733 10.17 10.17 0 011.697 5.37h-10.34V20.8a10.052 10.052 0 01-5.345-1.705 10.124 10.124 0 01-3.715-4.548z" fill="#E92452"/><path d="M41.926 21.333a10.45 10.45 0 01-.785 3.715 10.409 10.409 0 01-2.244 3.375 10.348 10.348 0 01-3.359 2.255c-1.174.489-2.162.756-3.43.789V21.333h9.818z" fill="#1CA3B3"/><path d="M31.578 31.467c-1.269-.033-2.256-.3-3.43-.789a10.35 10.35 0 01-3.36-2.255 10.406 10.406 0 01-2.243-3.375 10.448 10.448 0 01-.785-3.715h9.818v10.134z" fill="#FBAB14"/><path fill-rule="evenodd" clip-rule="evenodd" d="M32.107 20.8h9.819v-9.867h-9.819V20.8z" fill="#7C4894"/></svg>