<svg width="100" height="45" viewBox="0 0 100 45" fill="none" xmlns="http://www.w3.org/2000/svg"><g clip-path="url(#clip0)" fill="#201600"><path d="M41.52 11.112c0-1.578.008-3.156-.004-4.733-.007-.93.326-1.672 1.046-2.266 1.382-1.14 2.758-2.29 4.112-3.465.763-.662 1.598-.789 2.53-.507 2.49.752 4.98 1.499 7.468 2.257 1.344.41 1.96 1.17 1.785 2.554-.158 1.242-.435 2.5-.882 3.663-.74 1.925-2.307 2.838-4.308 3.033a14.51 14.51 0 01-1.583.088c-.468-.005-.603.181-.597.638.018 1.31.02 2.622-.024 3.932-.042 1.235-.61 1.868-1.833 1.91-1.961.068-3.927.068-5.89.03-1.1-.022-1.797-.881-1.814-2.134-.023-1.666-.006-3.333-.006-5zm1.8-4.537c-.03.168-.056.252-.057.337-.002 2.933.002 5.866-.007 8.8-.002.615.333.824.873.825 1.435.004 2.87.01 4.305-.001.713-.006.89-.196.891-.915.004-1.622.025-3.244-.01-4.866-.013-.571.182-.72.72-.698.836.034 1.678.027 2.514-.025 1.34-.083 2.693-.33 3.26-1.732.45-1.11.64-2.332.907-3.513.102-.453-.204-.673-.617-.79-1.653-.472-3.301-.957-4.952-1.436-.706-.206-1.414-.408-2.161-.623-.095.548-.167.984-.245 1.419-.083.458-.157.919-.262 1.372-.382 1.637-1.084 2.14-2.73 2.001-.789-.066-1.58-.102-2.43-.155zM47.1 2.61l-2.614 2.208c2.025.534 2.57.07 2.614-2.209zM12.943 26.532H14.8v8.45h-1.856v-8.45zm-11.966 0a.974.974 0 00-.69.289.987.987 0 00-.287.695v7.466h1.855v-2.413h1.43c2.04 0 3.695-1.665 3.695-3.719v-1.334a.99.99 0 00-.604-.909.973.973 0 00-.374-.075H.977zm.878 4.077v-1.905c0-.168.124-.304.276-.304h2.717c.153 0 .276.136.276.304v.042c0 1.197-.882 2.167-1.971 2.167H2.131c-.152 0-.276-.136-.276-.304zm92.143-4.077a.973.973 0 00-.903.608.99.99 0 00-.075.376v7.466h1.856v-2.413h1.43c2.04 0 3.694-1.665 3.694-3.719v-1.334a.987.987 0 00-.286-.695.974.974 0 00-.691-.289h-5.025zm.878 4.077v-1.905c0-.168.123-.304.276-.304h2.717c.152 0 .276.136.276.304v.042c0 1.197-.883 2.167-1.972 2.167h-1.021c-.153 0-.276-.136-.276-.304zM40.22 26.532v3.291h-3.755v-3.29H34.61v8.449h1.855V31.69h3.755v3.29h1.856v-8.448H40.22zm30.746 0v3.291h-3.755v-3.29h-1.855v8.449h1.855V31.69h3.755v3.29h1.855v-8.448h-1.855zM82.82 26.4c-2.434 0-4.407 1.986-4.407 4.436s1.973 4.436 4.407 4.436c2.433 0 4.406-1.986 4.406-4.436S85.253 26.4 82.82 26.4zm0 7.024a2.58 2.58 0 01-2.571-2.588 2.58 2.58 0 012.57-2.588 2.58 2.58 0 012.572 2.588 2.58 2.58 0 01-2.571 2.588zm-57.718 0a2.58 2.58 0 01-2.57-2.588 2.58 2.58 0 012.57-2.588c.815 0 1.54.381 2.01.976l1.303-1.311a4.383 4.383 0 00-3.313-1.513c-2.433 0-4.406 1.986-4.406 4.436s1.973 4.436 4.406 4.436c1.335 0 2.53-.599 3.339-1.542l-1.305-1.314a2.558 2.558 0 01-2.033 1.008zm33.804-2.087a2.495 2.495 0 00-1.243-.923l-1.701-.868a.734.734 0 01-.2-1.155.753.753 0 01.158-.123c.376-.229.857-.183 1.207.083l.6.457 1.21-1.285-.26-.192a4.863 4.863 0 00-2.268-.917 1.416 1.416 0 00-.156-.014c-.694 0-1.321.289-1.77.753a2.49 2.49 0 00-.664 1.3 2.51 2.51 0 00-.04.439c0 .652.252 1.243.656 1.69a2.481 2.481 0 001.022.667l.007.003 1.385.706a.84.84 0 01.228 1.323c-.064.067-.203.116-.377.151-.758.153-1.543-.09-2.115-.614l-.34-.31-1.08 1.148A4.643 4.643 0 0056.5 35.26c.185.007.327.01.392.01.613 0 1.172-.224 1.604-.596a2.49 2.49 0 00.83-1.454 2.49 2.49 0 00-.419-1.884zM13.834 41.684a1.588 1.588 0 00-.322-.16 2.196 2.196 0 00-.516-.117 1.924 1.924 0 00-1.092.227 1.713 1.713 0 00-.689.68c-.041.08-.078.163-.11.247a1.405 1.405 0 00-.071.26c-.022.1-.033.202-.034.304 0 .315.087.615.257.893a1.79 1.79 0 001.041.782 2.075 2.075 0 00.517.072c.35 0 .688-.094 1.003-.278a1.635 1.635 0 00.789-1.109 1.64 1.64 0 00.033-.329c0-.285-.071-.565-.212-.83a1.692 1.692 0 00-.594-.642zm-1.008 2.579c-.267 0-.508-.088-.718-.262a1.118 1.118 0 01-.412-.741l-.001-.014a.445.445 0 01-.01-.09c0-.275.099-.531.293-.76.193-.229.44-.36.725-.388h.112c.318 0 .581.11.806.337.222.224.334.492.334.796a1.1 1.1 0 01-.327.785 1.062 1.062 0 01-.802.337zm5.39-1.58a1.097 1.097 0 01-.555.296.998.998 0 01-.393-.004.61.61 0 01-.14-.049l-.019-.009a.417.417 0 01-.135-.115.306.306 0 01-.054-.147v-1.188h-.67v1.2a.772.772 0 00.155.47.818.818 0 00.05.065l.051.06.012.01a1.39 1.39 0 00.538.244 1.5 1.5 0 00.661-.019c.119-.03.223-.065.308-.103a1.89 1.89 0 00.192-.088v1.493h.664v-3.332h-.664v1.217zm2.37 2.116h1.967v-.603H21.25V43.3h1.302v-.593H21.25v-.658h1.302v-.582h-1.966v3.332zm5.804-2.154h-1.488v-1.178h-.67v3.332h.67v-1.556h1.488V44.8h.664v-3.332h-.664v1.178zm4.363.62a.956.956 0 00-.403-.362 1.235 1.235 0 00-.354-.08 4.693 4.693 0 00-.426-.018h-.205v-1.338h-.653v3.332h.97a4.915 4.915 0 00.332-.01c.09-.011.18-.028.269-.051a.9.9 0 00.253-.11.812.812 0 00.303-.34.986.986 0 00.094-.419v-.044c0-.02-.002-.04-.006-.054a1.119 1.119 0 00-.174-.506zm-.495.511c0 .184-.055.3-.169.354a1.14 1.14 0 01-.428.102h-.117l-.059-.002c-.046-.004-.083-.002-.119-.006v-.882h.308c.153.006.295.039.421.097.11.05.164.161.164.337zm7.24-.387a2.02 2.02 0 00-.052.11 2.281 2.281 0 01-.051.107l-.027.064-.005-.012-.02-.052a4.606 4.606 0 00-.098-.215L36.19 41.2l-.838 3.598h.625l.374-1.628c.007-.033.013-.066.017-.097l.01-.083.067.164.92 1.845.909-1.813c.025-.048.047-.098.068-.15l.002.013a.92.92 0 00.024.116l.374 1.633h.636l-.867-3.601-1.014 2.19zm5.594-.744h-1.488v-1.178h-.67v3.332h.67v-1.556h1.488V44.8h.664v-3.332h-.664v1.178zm5.007-.961a1.588 1.588 0 00-.322-.16 2.196 2.196 0 00-.516-.117 1.925 1.925 0 00-1.092.227 1.713 1.713 0 00-.689.68 2.39 2.39 0 00-.11.247 1.412 1.412 0 00-.071.26c-.022.1-.033.202-.034.304 0 .315.087.615.257.893a1.79 1.79 0 001.042.782 2.074 2.074 0 00.516.072c.35 0 .688-.094 1.003-.278a1.634 1.634 0 00.789-1.109c.022-.108.033-.218.033-.329 0-.285-.071-.565-.212-.83a1.693 1.693 0 00-.594-.642zm-1.008 2.579c-.267 0-.508-.088-.718-.262a1.118 1.118 0 01-.412-.741l-.001-.014a.431.431 0 01-.01-.09c0-.275.099-.531.293-.76.193-.229.44-.36.725-.388h.112c.318 0 .581.11.806.337.222.224.334.492.334.796a1.1 1.1 0 01-.327.785 1.062 1.062 0 01-.802.337zm3.483.536h.67v-2.75h1.068v-.582h-1.738v3.332zm5.56-3.115a1.588 1.588 0 00-.322-.16 2.196 2.196 0 00-.516-.117 1.924 1.924 0 00-1.092.227 1.713 1.713 0 00-.689.68c-.041.08-.078.163-.11.247a1.405 1.405 0 00-.071.26c-.022.1-.033.202-.034.304 0 .315.087.615.257.893a1.79 1.79 0 001.041.782 2.072 2.072 0 00.517.072c.35 0 .688-.094 1.003-.278a1.635 1.635 0 00.789-1.109c.022-.108.033-.218.033-.329 0-.285-.071-.565-.212-.83a1.692 1.692 0 00-.594-.642zm-1.009 2.579c-.266 0-.507-.088-.717-.262a1.118 1.118 0 01-.412-.741l-.001-.014a.438.438 0 01-.01-.09c0-.275.099-.531.293-.76a1.06 1.06 0 01.725-.388h.112c.317 0 .581.11.806.337.221.224.334.492.334.796a1.1 1.1 0 01-.327.785c-.22.227-.482.337-.803.337zm7.853-2.235a2.15 2.15 0 01.137-.015c.224-.017.432.012.628.086.16.062.314.152.46.267l.1.08.036-.69-.033-.021a2.484 2.484 0 00-.519-.247c-.18-.06-.368-.09-.558-.089h-.082a.807.807 0 00-.13.009 1.715 1.715 0 00-1.17.572 1.695 1.695 0 00-.448 1.16v.042c0 .016.002.032.005.046v.08c.048.488.255.876.616 1.152a1.927 1.927 0 001.364.404l.175-.019a2.17 2.17 0 00.37-.099c.123-.044.241-.103.351-.174l.03-.02v-.76l-.106.081c-.148.114-.308.21-.478.287a1.26 1.26 0 01-.6.108l-.08-.009a3.022 3.022 0 00-.092-.018.993.993 0 01-.645-.414 1.24 1.24 0 01-.22-.624v-.116a1.23 1.23 0 01.245-.675.968.968 0 01.644-.384zm4.973.656a1.09 1.09 0 01-.556.295.997.997 0 01-.393-.004.607.607 0 01-.139-.049l-.02-.009a.417.417 0 01-.135-.115.306.306 0 01-.054-.147v-1.188h-.67v1.2a.777.777 0 00.155.47.818.818 0 00.05.065l.051.06.012.01c.04.03.08.056.12.08a.843.843 0 00.129.066c.096.047.194.08.29.098.238.046.463.032.66-.019.119-.03.224-.065.309-.103a1.9 1.9 0 00.191-.088v1.493h.664v-3.332h-.664v1.217zm2.055 2.115h.705l.383-.827h1.212l.372.827h.716l-1.7-3.544-1.688 3.544zm1.756-2.023l.296.634h-.706l.292-.635c.022-.05.041-.1.058-.15l.002-.008c.016.053.036.107.058.16zm4.544-.748c.048-.006.093-.012.136-.015.225-.017.433.012.628.086.16.062.315.152.461.267l.1.08.036-.69-.034-.021a2.484 2.484 0 00-.518-.247c-.18-.06-.369-.09-.558-.089h-.082a.806.806 0 00-.131.009 1.714 1.714 0 00-1.17.572 1.695 1.695 0 00-.448 1.16v.042a.17.17 0 00.006.046v.08c.048.488.255.876.616 1.152a1.927 1.927 0 001.364.404l.175-.019c.126-.022.25-.055.37-.099a1.74 1.74 0 00.35-.174l.031-.02v-.76l-.106.081c-.148.114-.309.21-.479.287a1.26 1.26 0 01-.6.108l-.079-.009a3.211 3.211 0 00-.092-.018.993.993 0 01-.645-.414 1.242 1.242 0 01-.22-.624v-.116c.01-.238.092-.464.245-.675a.968.968 0 01.644-.384zm3.044.021h.866v2.75h.67v-2.75h.865v-.582H79.35v.582zm5.574 1.216a.955.955 0 00-.403-.362 1.233 1.233 0 00-.354-.08 4.693 4.693 0 00-.425-.018h-.205v-1.338h-.654v3.332h.97a4.91 4.91 0 00.332-.01 1.98 1.98 0 00.27-.051.9.9 0 00.252-.11.811.811 0 00.303-.34.985.985 0 00.094-.419v-.044a1.119 1.119 0 00-.18-.56zm-.494.511c0 .184-.055.3-.17.354-.129.06-.274.095-.428.102h-.117l-.059-.002c-.046-.004-.083-.002-.119-.006v-.882h.308c.154.006.296.039.422.097.11.05.163.161.163.337zm3.664-2.31c-.034 0-.07.002-.103.005-.127.004-.253.02-.377.049a.732.732 0 00-.348.192.929.929 0 00-.273.59.24.24 0 00-.007.06v.05c0 .278.07.494.206.642a.95.95 0 00.491.265L86.54 44.8h.769l1.06-1.386V44.8H89v-3.332h-.906zm-.428 1.008v-.029l-.005-.005c.004-.266.128-.308.17-.322.136-.045.289-.069.454-.069h.045v.787c-.024.002-.042 0-.064.003a.28.28 0 01-.034.002h-.076a.992.992 0 01-.35-.08c-.088-.038-.132-.126-.135-.268l.002-.005-.007-.014z"/></g><defs><clipPath id="clip0"><path fill="#fff" d="M0 0h100v45H0z"/></clipPath></defs></svg>