<svg width="117" height="28" viewBox="0 0 117 28" fill="none" xmlns="http://www.w3.org/2000/svg"><path d="M43.51 12.336h-2.05v5.207h-1.473v-5.207h-2.05V11.13h5.556l.017 1.207zm1.224 4.943a2.313 2.313 0 01-.96-.91 2.487 2.487 0 01-.347-1.305c0-.496.116-.926.348-1.306a2.67 2.67 0 01.959-.91 2.99 2.99 0 011.405-.33c.513 0 .976.116 1.39.33.413.216.727.513.959.91.231.38.347.826.347 1.306 0 .496-.116.925-.347 1.306a2.54 2.54 0 01-.96.909c-.413.215-.876.33-1.389.33-.529 0-.992-.099-1.405-.33zm2.299-1.207c.231-.248.347-.578.347-.992 0-.413-.116-.744-.347-.992-.232-.247-.53-.363-.91-.363-.364 0-.661.116-.91.364-.231.247-.364.578-.364.991 0 .414.116.744.364.992.232.248.546.364.91.364.38 0 .678-.116.91-.364zm7.69-3.455v4.926h-1.422v-3.769H51.25v3.752h-1.422v-4.91h4.895zm1.157 1.769h2.596v1.14H55.88v-1.14zm5.159 2.843a3.142 3.142 0 01-1.24-1.174c-.298-.496-.447-1.074-.447-1.703 0-.628.149-1.206.446-1.702a3.142 3.142 0 011.24-1.174 3.753 3.753 0 011.787-.43c.562 0 1.058.1 1.505.298.446.198.827.48 1.124.843l-.959.876a2.063 2.063 0 00-1.62-.744c-.398 0-.745.083-1.059.265a1.813 1.813 0 00-.728.727 2.053 2.053 0 00-.264 1.058c0 .397.082.744.264 1.058.182.314.414.562.728.727.314.182.661.265 1.058.265.645 0 1.175-.248 1.621-.76l.96.876c-.298.38-.679.66-1.142.86a3.71 3.71 0 01-1.505.297c-.645-.05-1.24-.182-1.77-.463zm8.914-4.149c.413.364.611.91.611 1.637v2.81h-1.339v-.612c-.265.463-.777.694-1.505.694-.38 0-.711-.066-.992-.198s-.496-.297-.645-.529a1.374 1.374 0 01-.215-.777c0-.463.165-.826.513-1.074.347-.265.876-.397 1.604-.397h1.14c0-.314-.098-.546-.28-.727-.182-.166-.48-.248-.86-.248-.265 0-.513.033-.778.115a2.37 2.37 0 00-.645.331l-.512-.992c.264-.182.595-.33.959-.446.38-.1.76-.149 1.158-.149.793.017 1.389.198 1.786.562zm-1.208 3.405a.91.91 0 00.397-.495v-.496h-.975c-.58 0-.877.198-.877.578 0 .182.066.33.215.43.149.1.347.165.595.165a1.44 1.44 0 00.645-.182zm3.077-3.868h1.422v1.917h2.15v-1.917h1.421v4.926h-1.422v-1.851h-2.15v1.834h-1.421v-4.91zm10.499 1.157h-1.67v3.752h-1.423v-3.752h-1.67V12.6h4.763v1.174zm5.326 1.703h-3.738c.067.298.232.546.48.727.248.182.562.265.942.265.265 0 .48-.033.679-.116a1.92 1.92 0 00.562-.364l.76.827c-.463.529-1.14.793-2.033.793a3.218 3.218 0 01-1.473-.33 2.305 2.305 0 01-.992-.91 2.487 2.487 0 01-.347-1.305 2.482 2.482 0 011.29-2.216c.397-.214.843-.33 1.34-.33.479 0 .925.1 1.306.314.397.215.695.513.926.893.215.38.33.843.33 1.355 0 .033-.016.166-.032.397zm-3.341-1.587c-.215.182-.347.43-.397.744h2.415a1.176 1.176 0 00-.397-.744 1.24 1.24 0 00-.81-.28c-.332 0-.596.098-.811.28zm7.425 3.653l-1.075-1.504-1.124 1.504h-1.554l1.901-2.48-1.835-2.446h1.604l1.042 1.438 1.075-1.438h1.521l-1.835 2.397 1.902 2.512H91.73v.017zm2.332-4.926h1.422v1.917h2.15v-1.917h1.422v4.926h-1.422v-1.851h-2.15v1.834h-1.422v-4.91zm6.35 0h1.423v2.926l2.398-2.926h1.306v4.926h-1.422V14.6l-2.398 2.925h-1.323l.016-4.91zm8.681 3.058h-.744v1.868h-1.422v-4.926h1.422v1.917h.777l1.34-1.917h1.522l-1.72 2.364 1.836 2.562h-1.688l-1.323-1.868zm7.294-2.595c.413.364.612.91.612 1.637v2.81h-1.34v-.612c-.264.463-.777.694-1.504.694-.381 0-.712-.066-.993-.198s-.496-.297-.645-.529a1.372 1.372 0 01-.214-.777c0-.463.165-.826.512-1.074.347-.265.876-.397 1.604-.397h1.141c0-.314-.099-.546-.281-.727-.182-.166-.48-.248-.86-.248-.264 0-.512.033-.778.115a2.38 2.38 0 00-.644.331l-.513-.992a3.68 3.68 0 01.959-.446c.38-.1.761-.149 1.158-.149.794.017 1.389.198 1.786.562zm-1.207 3.405a.915.915 0 00.397-.495v-.496h-.976c-.579 0-.876.198-.876.578 0 .182.066.33.215.43.148.1.347.165.595.165.231-.016.446-.066.645-.182z" fill="#2A2A2A"/><path d="M6.748 10.182c1.273 0 2.447.347 3.456.959a10.05 10.05 0 012.513-1.868 9.914 9.914 0 015.342-6.744A9.866 9.866 0 0011.46 0a9.917 9.917 0 00-9.922 9.918c0 .826.099 1.62.297 2.396a6.7 6.7 0 014.912-2.132z" fill="#ED2B32"/><path d="M32.332 11.455c0-5.488-4.448-9.917-9.922-9.917a9.986 9.986 0 00-4.332.991 9.845 9.845 0 013.274 6.48 9.927 9.927 0 015.904 9.074c0 .744-.083 1.471-.248 2.182 3.158-1.67 5.324-4.992 5.324-8.81z" fill="#2A7DC0"/><path d="M12.718 9.274a10 10 0 014.598-1.124c1.439 0 2.795.314 4.035.86-.232-2.563-1.455-4.844-3.274-6.48a9.902 9.902 0 00-5.359 6.744z" fill="#271526"/><path d="M15.793 18.86a9.718 9.718 0 01-2.927.892 6.8 6.8 0 01-3.985 3.57A9.921 9.921 0 0017.298 28a9.931 9.931 0 009.69-7.736 10 10 0 01-4.596 1.124 10.031 10.031 0 01-6.599-2.529z" fill="#9DCB3B"/><path d="M13.346 15.505c.1.462.149.925.149 1.405a6.492 6.492 0 01-.628 2.826 9.862 9.862 0 002.927-.892 9.664 9.664 0 01-2.448-3.34z" fill="#92220C"/><path d="M12.784 13.919a10.049 10.049 0 01-.315-2.463c0-.744.083-1.471.248-2.182a10.362 10.362 0 00-2.514 1.868 6.74 6.74 0 012.58 2.777z" fill="#9DCB3B"/><path d="M21.334 8.993c.033.298.05.612.05.926a9.907 9.907 0 01-5.59 8.926 9.877 9.877 0 006.615 2.53 10 10 0 004.597-1.125 9.49 9.49 0 00.248-2.182 9.96 9.96 0 00-5.92-9.075z" fill="#1A642C"/><path d="M12.718 9.274a9.495 9.495 0 00-.248 2.182c0 .843.1 1.67.314 2.463.248.496.447 1.042.563 1.604a10.04 10.04 0 002.447 3.339 9.926 9.926 0 005.59-8.926c0-.315-.016-.629-.05-.926a9.918 9.918 0 00-4.035-.86 9.78 9.78 0 00-4.58 1.124z" fill="#1A642C"/><path d="M1.82 12.315A6.745 6.745 0 000 16.927c0 3.72 3.026 6.744 6.748 6.744.744 0 1.471-.116 2.133-.347a9.913 9.913 0 01-1.455-4.33 9.95 9.95 0 01-5.607-6.68z" fill="#F26C21"/><path d="M7.426 18.993a8.458 8.458 0 01-.05-.925 9.853 9.853 0 012.828-6.927 6.662 6.662 0 00-3.456-.958 6.767 6.767 0 00-4.929 2.132 9.95 9.95 0 005.607 6.678z" fill="#E11206"/><path d="M12.867 19.753a9.976 9.976 0 01-5.458-.76c.15 1.57.662 3.041 1.456 4.33a6.738 6.738 0 004.002-3.57z" fill="#955608"/><path d="M13.347 15.506a10.206 10.206 0 01-.563-1.603 6.74 6.74 0 00-2.58-2.777c-1.736 1.801-2.828 4.247-2.828 6.942 0 .314.017.628.05.926a9.915 9.915 0 004.035.86c.48 0 .96-.034 1.423-.1.397-.86.628-1.818.628-2.826a7.958 7.958 0 00-.165-1.422z" fill="#8B0E02"/><path d="M12.784 13.918c.15.562.331 1.09.563 1.603a6.347 6.347 0 00-.563-1.604z" fill="#F26C21"/><path d="M23.501 7.984l-12.336-.462c-.678-3.174-1.62-4.232-3.787-4.232H1.49a.759.759 0 00-.761.76v.248c0 .43.347.76.76.76l5.871.017h.017c.744 0 1.273-.033 1.786 1.686h-.017l2.398 9.67a2.316 2.316 0 002.299 2.182h9.575a2.293 2.293 0 002.298-2.298v-6.033A2.31 2.31 0 0023.5 7.984zm-8.517 14.298a1.405 1.405 0 100-2.811 1.405 1.405 0 000 2.81zm4.73 0a1.405 1.405 0 10.001-2.81 1.405 1.405 0 000 2.81z" fill="#fff"/><path fill-rule="evenodd" clip-rule="evenodd" d="M15.2 13.323c.199-.297.43-.495.662-.843.116-.165.215-.165.314-.066l.844.777c.149.149.231.199.347.017.744-1.075 2.018-2.05 2.58-2.447.248-.165.281 0 .33.066.15.232.43.711.497 1.042.033.182.082.33-.116.43-1.009.512-2.315 2-3.192 3.14-.116.15-.314.083-.38 0a7.987 7.987 0 00-1.786-1.653c-.199-.132-.248-.231-.1-.463z" fill="#ED2B32"/></svg>