<svg width="86" height="29" viewBox="0 0 86 29" fill="none" xmlns="http://www.w3.org/2000/svg"><path d="M7.526 27.622a224.38 224.38 0 01-2.869-.088l-1.006-8.166c1.113.071 2.235.128 3.365.172l.51 8.082z" fill="#FF9D00"/><path d="M10.418 27.678c-.966-.012-1.93-.03-2.892-.056l-.671-10.726c1.183.05 2.37.084 3.56.099l.003 10.683z" fill="#4C8ED6"/><path d="M13.312 27.695c-.962 0-1.927-.006-2.894-.02V14.35c1.246.016 2.489.011 3.73-.015l-.836 13.361z" fill="#E90081"/><path d="M16.187 27.68c-.953.01-1.91.015-2.875.015l1.006-16a99.748 99.748 0 003.858-.172c-.662 5.404-1.326 10.79-1.99 16.157z" fill="#52C94D"/><path opacity=".15" d="M7.526 27.622L6.33 19.51l.692.027.505 8.085zm2.892.056l-.78-10.703h.78v10.703zm2.892.017l.065-13.349.772-.012-.837 13.361z" fill="#000"/><path d="M18.43 7.707a.503.503 0 111 .115l-2.226 19.494a.504.504 0 01-.384.434 27.558 27.558 0 01-12.731 0 .504.504 0 01-.384-.434L1.482 7.822a.504.504 0 111-.114l2.182 19.14c3.814.851 7.768.851 11.581 0l2.185-19.14zm-2.842-5.759a.629.629 0 11-1.237-.222l.118-.663a.63.63 0 01.602-.52L16.668.5a.63.63 0 01.644.662l-.037.757a.63.63 0 11-1.256-.063l.004-.077-.406.011-.029.158z" fill="#1F1F40"/><path d="M3.003 4.662a.503.503 0 11-1.001-.1l.168-1.695a.504.504 0 01.455-.453c.55-.05.956-.087 1.998-.185 2.535-.238 3.713-.342 5.15-.445 3.247-.233 5.932-.29 8.497-.14a.504.504 0 01.473.47c.055.84.111 1.66.168 2.46a.504.504 0 11-1.003.071c-.047-.659-.093-1.332-.14-2.018-2.383-.116-4.904-.053-7.923.163-1.427.103-2.6.206-5.128.443-.772.073-1.196.112-1.587.148l-.127 1.28z" fill="#1F1F40"/><path d="M19.375 5.36a207.556 207.556 0 00-17.838 0c-.1.482-.2.958-.3 1.429 6.149.272 12.295.272 18.437 0-.1-.47-.2-.947-.3-1.428zm.94 2.41c-6.57.31-13.142.31-19.717 0a.504.504 0 01-.469-.61c.168-.781.335-1.577.503-2.388a.503.503 0 01.47-.402c6.232-.28 12.468-.28 18.708 0 .23.01.423.176.47.402.167.81.335 1.607.502 2.387a.504.504 0 01-.468.61zm9.985 7.125a2.567 2.567 0 00-.384-.289 4.692 4.692 0 00-.679-.354 5.852 5.852 0 00-.867-.297 3.775 3.775 0 00-.952-.119c-.45-.032-.9.08-1.282.32a1.05 1.05 0 00-.422.893.918.918 0 00.157.55c.123.161.28.293.46.386.245.128.502.23.768.304.307.09.662.186 1.063.288.512.142.987.293 1.424.455.393.141.76.345 1.087.604.29.235.525.532.687.87a2.9 2.9 0 01.241 1.248 3.12 3.12 0 01-.326 1.474 2.73 2.73 0 01-.875.99c-.385.26-.814.449-1.266.554a6.337 6.337 0 01-1.501.174 8.034 8.034 0 01-2.384-.362 7.356 7.356 0 01-2.114-1.032l.92-1.802c.152.135.316.254.492.354.27.164.549.31.837.44.345.158.703.287 1.07.384.396.101.802.151 1.21.15 1.146 0 1.719-.368 1.719-1.105a.91.91 0 00-.196-.589 1.67 1.67 0 00-.56-.423 5.33 5.33 0 00-.875-.331l-1.152-.335c-.455-.13-.9-.294-1.332-.49a3.507 3.507 0 01-.944-.588 2.21 2.21 0 01-.564-.77 2.73 2.73 0 01-.188-1.067 3.35 3.35 0 01.303-1.452c.193-.413.48-.775.837-1.058a3.78 3.78 0 011.244-.643 5.128 5.128 0 011.535-.22 5.9 5.9 0 012.08.354 7.78 7.78 0 011.65.824l-.92 1.71zm8.283 7.915l-2.303-3.433-1.086 1.074v2.36h-2.011V11.76h2.022v6.703l3.167-3.573h2.157l-2.944 3.361 3.155 4.559h-2.157zm3.227 0v-7.93h2.023v7.93h-2.022zm4.042-11.142h2.023v8.505c-.016.246.06.489.211.682a.767.767 0 00.603.242c.13-.003.259-.024.383-.061.142-.039.281-.089.415-.15l.273 1.54a3.886 3.886 0 01-.952.304c-.322.067-.65.103-.98.108a2.019 2.019 0 01-1.47-.509 1.929 1.929 0 01-.506-1.443v-9.218zm4.994.016h2.022v8.505c-.021.25.051.498.204.697a.767.767 0 00.602.242c.13-.004.26-.024.384-.061.142-.039.28-.09.415-.15l.272 1.54a3.888 3.888 0 01-.952.304 5.193 5.193 0 01-.982.108 2.019 2.019 0 01-1.47-.509 1.929 1.929 0 01-.495-1.474v-9.202zm14.281 8.501c-.381.396-.87.672-1.404.793-.252.06-.51.091-.768.092-.443.005-.88-.1-1.274-.304a3.21 3.21 0 01-.994-.8 3.644 3.644 0 01-.641-1.155 4.185 4.185 0 01-.227-1.371c.002-.434.067-.864.196-1.278.123-.417.32-.808.58-1.155.26-.341.59-.622.967-.824.42-.221.89-.331 1.366-.32.25.001.498.03.74.085.253.056.497.145.726.265a2.627 2.627 0 011.163 1.263l1.6-1.105a4.156 4.156 0 00-1.608-1.694 4.863 4.863 0 00-2.556-.65 5.114 5.114 0 00-2.234.47 5.21 5.21 0 00-2.686 2.945 5.502 5.502 0 00.03 3.965c.25.65.612 1.25 1.071 1.771.463.517 1.02.94 1.64 1.248.65.327 1.368.493 2.095.485a5.573 5.573 0 001.328-.166 5.4 5.4 0 001.274-.485 4.715 4.715 0 001.07-.77c.314-.302.564-.665.734-1.066l-1.704-.982a2.338 2.338 0 01-.484.743zm10.59.315v-5.605h-2.023v4.92a2.555 2.555 0 01-.898 1.082c-.34.23-.741.353-1.152.355-.875 0-1.312-.611-1.312-1.833v-4.524h-2.023v4.963c0 1.026.211 1.803.633 2.33a2.242 2.242 0 001.858.77 4.078 4.078 0 001.827-.409 3.377 3.377 0 001.359-1.224l.046.635a.983.983 0 00.383.69c.26.176.57.264.883.25h.384c.17-.016.34-.042.507-.078v-1.724a.494.494 0 01-.384-.15.714.714 0 01-.088-.447zm9.76-3.237a4.097 4.097 0 00-.768-1.302 3.666 3.666 0 00-1.151-.877 3.376 3.376 0 00-1.478-.328 3.139 3.139 0 00-1.6.385 3.246 3.246 0 00-1.133 1.098v-1.363h-1.765V26.04h2.023v-4.62c.254.467.63.857 1.086 1.128a3.11 3.11 0 001.63.416c.483.004.959-.105 1.39-.32a3.346 3.346 0 001.094-.878c.317-.391.56-.837.718-1.316.174-.523.26-1.07.257-1.621a4.498 4.498 0 00-.303-1.567zm-3.838 3.661a2.057 2.057 0 01-2.054-2.06c0-1.137.92-2.06 2.054-2.06s2.053.923 2.053 2.06c0 .547-.217 1.072-.603 1.458a2.05 2.05 0 01-1.454.602h.004zm-38.815-6.961c.65 0 1.178-.53 1.178-1.182a1.18 1.18 0 00-1.178-1.182c-.65 0-1.178.53-1.178 1.182a1.18 1.18 0 001.178 1.182z" fill="#1F1F40"/></svg>