<svg width="280" height="40" viewBox="0 0 280 40" fill="none" xmlns="http://www.w3.org/2000/svg"><path d="M33.124 39.93c10.75 0 19.465-8.714 19.465-19.465C52.59 9.715 43.874 1 33.124 1S13.659 9.715 13.659 20.465s8.715 19.466 19.465 19.466z" fill="url(#paint0_linear_911_4661)"/><path d="M19.465 33.94c7.443 0 13.476-6.033 13.476-13.475 0-7.443-6.033-13.476-13.476-13.476-7.442 0-13.476 6.033-13.476 13.476 0 7.442 6.034 13.476 13.476 13.476z" fill="url(#paint1_linear_911_4661)"/><path d="M5.99 26.454a5.99 5.99 0 100-11.978 5.99 5.99 0 000 11.978z" fill="url(#paint2_linear_911_4661)"/><path d="M106.448 30.322h3.825V13.103l-3.825.947v16.272zM98.233 19.4c-.802-2.944-2.905-4.968-6.835-4.968-4.535 0-7.821 3.246-7.821 8.15 0 4.85 3.391 8.096 7.82 8.096 3.904 0 6.034-2.51 6.836-5.337v.986c0 1.854.276 3.996.276 3.996h3.549V8.542h-3.825V19.4zm-5.613 8.123c-3.089 0-5.14-1.958-5.14-4.955s1.867-4.995 5.14-4.995c3.43 0 5.613 1.801 5.613 4.995 0 2.97-2.143 4.955-5.613 4.955zm13.828-15.799h3.825V8.582h-3.825v3.141zm-37.5 18.6h3.824v-17.22l-3.825.947v16.272zm3.824-21.741h-3.825v3.141h3.825V8.582zm1.92 14.721h6.979v-4.377l-6.98 1.735v2.642zM148.22 10.54l-3.825.92v3.326h-3.759v3.075h3.759V30.31h3.825V17.861h3.759v-3.075h-3.759V10.54zm19.493 8.846c-.788-2.944-2.865-4.955-6.638-4.955-4.574 0-8.018 3.246-8.018 8.15 0 4.836 3.444 8.096 7.821 8.096 3.891 0 6.033-2.51 6.835-5.337v.986c0 1.854.276 3.996.276 3.996h3.549V14.8h-3.825v4.587zm-5.599 8.15c-3.089 0-5.14-1.959-5.14-4.956 0-2.997 1.867-4.981 5.14-4.981 3.43 0 5.612 1.787 5.612 4.981-.013 2.958-2.155 4.956-5.612 4.956zM121.735 14.43c-4.916 0-8.005 2.681-8.005 6.848 0 3.286 1.879 5.455 4.929 6.283-2.55.026-4.456 1.104-4.456 2.892 0 1.787 1.196 2.957 4.745 2.957h6.152c1.038 0 3.22 0 3.22 1.564 0 1.998-3.247 1.867-4.035 1.88-2.13.04-2.879-.092-3.102-.184v3.26h2.642c3.64 0 6.44-1.565 6.44-4.943 0-4.14-3.312-4.679-7.124-4.679h-3.431c-.972 0-1.656-.342-1.656-1.078 0-.828.802-1.301 3.667-1.301 4.877 0 7.94-2.366 7.94-6.467 0-2.484-1.906-4.127-3.931-5.192 1.578.71 3.142 1.498 5.271 1.446V14.43l-7.282.21a9.769 9.769 0 00-1.984-.21zm4.219 6.874c0 2.353-1.696 3.707-4.219 3.707-2.59 0-4.285-1.354-4.285-3.707 0-2.353 1.735-3.733 4.285-3.733s4.219 1.407 4.219 3.733zm49.343-11.83v20.847h3.825V8.542l-3.825.933zm-41.22 2.248h3.825v-3.14h-3.825v3.141zm0 18.6h3.825v-17.22l-3.825.947v16.272z" fill="#272E86"/><path fill-rule="evenodd" clip-rule="evenodd" d="M195.501 14.43c3.931 0 6.034 2.023 6.836 4.968V8.54h3.824v21.78h-3.548s-.276-2.143-.276-3.996v-.986c-.802 2.826-2.932 5.337-6.836 5.337-4.429 0-7.82-3.247-7.82-8.097 0-4.903 3.286-8.15 7.82-8.15zm-3.916 8.136c0 2.997 2.05 4.955 5.139 4.955 3.47 0 5.613-1.985 5.613-4.955 0-3.194-2.182-4.995-5.613-4.995-3.273 0-5.139 1.998-5.139 4.995zm22.687-10.831h-3.824V8.593h3.824v3.142zm0 18.6h-3.824V14.061l3.824-.947v17.22zm3.748-15.544h3.82v4.719a9.19 9.19 0 01.617-1.594 7.209 7.209 0 011.087-1.656 5.23 5.23 0 011.645-1.312c.646-.334 1.4-.5 2.262-.5v3.687c-1.097 0-2.047.229-2.85.687-.803.438-1.449.98-1.939 1.625a7.16 7.16 0 00-.822 1.348v8.527h-3.82v-15.53zm25.043 10.375h3.702a5.707 5.707 0 01-1.264 2.843c-.666.834-1.576 1.49-2.732 1.969-1.156.48-2.566.719-4.231.719-1.86 0-3.506-.313-4.936-.938-1.429-.646-2.546-1.573-3.349-2.78-.803-1.21-1.204-2.667-1.204-4.376 0-1.708.391-3.166 1.175-4.374.783-1.23 1.87-2.167 3.261-2.813 1.41-.646 3.055-.968 4.936-.968 1.919 0 3.516.322 4.789.968 1.273.646 2.213 1.625 2.82 2.938.627 1.291.891 2.947.793 4.968h-13.926a4.72 4.72 0 00.823 2.156c.47.646 1.097 1.156 1.88 1.531.803.375 1.753.563 2.85.563 1.214 0 2.223-.219 3.026-.656.823-.459 1.352-1.042 1.587-1.75zm-4.819-7.625c-1.41 0-2.556.334-3.437 1-.881.646-1.449 1.448-1.704 2.406h9.93c-.098-1.041-.568-1.864-1.41-2.468-.822-.625-1.949-.938-3.379-.938zm27.463 10.156c.725-.98 1.136-2.146 1.234-3.5h-3.496c-.314 1.083-.911 1.917-1.793 2.5-.861.583-1.978.875-3.349.875-1.018 0-1.949-.177-2.791-.531-.842-.375-1.508-.927-1.998-1.657-.489-.75-.734-1.677-.734-2.78 0-1.126.245-2.053.734-2.782a4.753 4.753 0 011.998-1.687c.842-.375 1.773-.563 2.791-.563 1.273 0 2.36.292 3.261.875.901.584 1.518 1.396 1.851 2.438h3.496c-.117-1.354-.538-2.51-1.263-3.469-.705-.958-1.674-1.687-2.908-2.187-1.234-.521-2.713-.781-4.437-.781-1.802 0-3.418.312-4.848.937-1.41.625-2.526 1.542-3.349 2.75-.803 1.208-1.204 2.698-1.204 4.468 0 1.771.401 3.26 1.204 4.469.823 1.187 1.939 2.094 3.349 2.719 1.43.604 3.046.906 4.848.906 1.724 0 3.212-.25 4.466-.75 1.253-.521 2.233-1.271 2.938-2.25zm10.534-17.145l-3.825.92v3.325h-3.759v3.076h3.759v12.448h3.825V17.873H280v-3.076h-3.759v-4.245z" fill="#009CE6"/><defs><linearGradient id="paint0_linear_911_4661" x1="13.659" y1="20.465" x2="52.589" y2="20.465" gradientUnits="userSpaceOnUse"><stop stop-color="#262D81"/><stop offset="1" stop-color="#28308D"/></linearGradient><linearGradient id="paint1_linear_911_4661" x1="5.989" y1="20.465" x2="32.941" y2="20.465" gradientUnits="userSpaceOnUse"><stop stop-color="#0070B9"/><stop offset="1" stop-color="#1881D7"/></linearGradient><linearGradient id="paint2_linear_911_4661" x1="0" y1="20.465" x2="11.979" y2="20.465" gradientUnits="userSpaceOnUse"><stop stop-color="#009CE6"/><stop offset="1" stop-color="#00C7F8"/></linearGradient></defs></svg>