<svg width="52" height="22" viewBox="0 0 52 22" fill="none" xmlns="http://www.w3.org/2000/svg"><path d="M4.207 19.319H2.703v-4.623h1.504c1.03 0 1.507.767 1.507 2.14 0 1.885-.572 2.483-1.507 2.483zM2.703 7.988H4.17c.757 0 1.37.556 1.37 2.089 0 1.549-.708 2.085-1.37 2.085H2.703V7.988zm4.012 5.266v-.013c.596-.418 1.55-1.136 1.55-3.446 0-2.984-1.56-4.335-3.666-4.335H0v16.385h4.575c2.593 0 3.856-1.92 3.856-4.78 0-2.668-1.048-3.405-1.716-3.811zm6.688-5.266h1.466c.757 0 1.368.556 1.368 2.089 0 1.549-.706 2.085-1.368 2.085h-1.466V7.988zm5.51 8.374c0-2.042-.635-2.616-1.498-3.108v-.013c.596-.418 1.54-1.136 1.54-3.446 0-2.984-1.55-4.335-3.656-4.335h-4.6v16.385h2.702l.002-7.15h1.466c.769 0 1.318.639 1.318 2.087v5.063h2.724l.002-5.483zm5.27-12.383c0-1.232 1.133-1.391 1.759-1.391.625 0 1.754.156 1.754 1.39l-.001 8.184H24.18l.002-8.183zM25.942 0c-1.143 0-4.458.259-4.458 3.572v18.275h2.703v-7.15h3.51l-.002 7.148H30.4V3.572C30.4.252 27.08 0 25.942 0zm12.554 5.457v12.898c0 .657-.543 1.095-1.35 1.095-.812 0-1.345-.44-1.345-1.095l-.002-12.898-2.702.003v13.326c0 2.537 2.611 3.214 4.051 3.214 1.428 0 4.05-.68 4.05-3.217V5.457h-2.702zm10.802 16.386V8.95c0-.656-.544-1.095-1.351-1.095-.811 0-1.345.44-1.345 1.095L46.6 21.843l-2.703.002V8.52c0-2.537 2.612-3.214 4.052-3.214 1.428 0 4.05.68 4.05 3.217v13.321h-2.702z" fill="#000"/></svg>