<svg width="84" height="20" viewBox="0 0 84 20" fill="none" xmlns="http://www.w3.org/2000/svg"><g clip-path="url(#clip0_3047_2090)"><path d="M83.86 14.422a.473.473 0 00-.172-.051.642.642 0 00-.312.102c-.03.019-.062.042-.091.062a1.666 1.666 0 00-.264.26l-.291.329a8.474 8.474 0 01-.396.43 2.853 2.853 0 01-1.347.822c-.08.018-.162.028-.245.028a.615.615 0 01-.423-.131.527.527 0 01-.199-.37c-.042-.332 0-1.116.123-1.274.147-.114.308-.213.48-.293l.16-.084a16 16 0 001.638-1.05c.347-.246.644-.546.877-.887a.694.694 0 00.02-.724.737.737 0 00-.303-.228.806.806 0 00-.385-.056 1.896 1.896 0 00-1.019.362c-.793.547-1.415 1.307-1.955 2.38-.06.104-.135.2-.223.287.018-.03.032-.063.045-.092.322-.73.4-1.35.242-1.947a1.218 1.218 0 00-.458-.716 1.403 1.403 0 00-1.098-.263 1.648 1.648 0 00-.818.427c-.485.428-.944.882-1.37 1.36-.372.41-.734.843-1.094 1.268a30.526 30.526 0 01-2.338 2.55c-.72.68-1.447 1.314-2.39 1.642a3.848 3.848 0 01-1.167.205 1.047 1.047 0 01-.39-.045.996.996 0 01-.341-.184.986.986 0 01-.195-.36.934.934 0 01-.027-.402c.025-.531.269-.99.53-1.477l.113-.205a1.68 1.68 0 01.222-.355 18.765 18.765 0 004.534-1.25c.518-.248 1.091-.583 1.42-1.178a1.33 1.33 0 00.189-.646 1.322 1.322 0 00-.156-.653 1.341 1.341 0 00-.457-.478 1.482 1.482 0 00-.647-.22 2.692 2.692 0 00-.363-.022c-.304.004-.607.04-.902.109-1.334.293-2.5.93-3.365 1.453-.682.41-1.538.997-2.12 1.865a21.238 21.238 0 01-2.094 2.606c-.431.466-.92.993-1.555 1.31a1.489 1.489 0 01-.6.142c-.096 0-.199-.018-.21-.221a.634.634 0 01.044-.322c.292-.53.568-.995.834-1.414.52-.695.992-1.42 1.413-2.17l.043-.073a2.418 2.418 0 00.287-1.937c-.223-.82-.903-1.354-1.714-1.354a2 2 0 00-.938.24 5.186 5.186 0 00-1.258.91l.316-.448c.24-.339.489-.69.73-1.053l1.648-2.483c.834-1.256 1.642-2.478 2.316-3.488a.167.167 0 00.027-.114.175.175 0 00-.054-.106.2.2 0 00-.138-.053.208.208 0 00-.097.025c-.052.028-.26.119-.876.145h-.35a3.15 3.15 0 01-.697-.076h-.04a.198.198 0 00-.098.025.734.734 0 00-.246.29l-.038.059c-.565.893-1.131 1.782-1.7 2.667a398.833 398.833 0 00-2.772 4.371c-.344.554-.682 1.112-1.02 1.668a144.45 144.45 0 01-3.29 3.154c.163-.466.173-.965.032-1.436a11.214 11.214 0 00-.483-1.301 19.932 19.932 0 01-.264-.649 4.473 4.473 0 01-.329-1.305v-.065a1.228 1.228 0 01.051-.616.908.908 0 01.247-.24l.104-.084a9.765 9.765 0 001.198-1.244c.158-.202.266-.434.316-.679a.38.38 0 00-.078-.355.546.546 0 00-.196-.127.582.582 0 00-.236-.037 1.22 1.22 0 00-.446.097c-.14.06-.266.146-.369.252a4.194 4.194 0 00-1.136 1.877.895.895 0 01-.142.302c-.776.893-1.558 1.782-2.345 2.668l-.044.063h-.062a1.964 1.964 0 00-.838.142 3.405 3.405 0 00-1.16.968c-.35.425-.596.915-.718 1.437a1.27 1.27 0 00-.025.244.512.512 0 01-.035.226c-.13.18-.286.345-.463.488-.07.064-.14.13-.209.205-.096.1-.2.193-.313.277a4.717 4.717 0 00-.307.23 3.62 3.62 0 01-.53.365.813.813 0 01-.359.078.45.45 0 01-.264-.066c-.073-.06-.147-.162-.04-.43a3.68 3.68 0 01.324-.661c.238-.365.483-.727.727-1.088.222-.316.431-.632.642-.95.445-.667.816-1.278.96-1.992a1.85 1.85 0 00-.023-.99 1.97 1.97 0 00-.534-.857 1.695 1.695 0 00-.56-.365 1.808 1.808 0 00-.672-.13 1.968 1.968 0 00-1.1.345c-.51.358-.988.753-1.431 1.18a8.076 8.076 0 00-.522.544 1.913 1.913 0 00-.18-1.231 1.321 1.321 0 00-.374-.497 1.456 1.456 0 00-.576-.29 1.312 1.312 0 00-.222-.02 1.546 1.546 0 00-.909.33c-.291.226-.56.476-.8.748-.431.46-.853.923-1.276 1.389-.395.433-.79.868-1.193 1.297a4.749 4.749 0 01-1.611 1.23 2.42 2.42 0 01-.643.206.896.896 0 01-.13 0c-.086 0-.17-.01-.252-.029v-.012a8.636 8.636 0 001.398-2.436c.213-.535.276-1.11.184-1.674-.122-.585-.486-.94-1.029-1a4.621 4.621 0 00-.477-.024 4.14 4.14 0 00-.856.086c-.954.205-1.778.688-2.492 1.13a9.422 9.422 0 00-2.498 2.133 22.792 22.792 0 01-2.616 2.872 5.23 5.23 0 01-2.258 1.262c-.51.125-1.03.204-1.556.238-.266.019-.544.027-.809.027a8.24 8.24 0 01-.758-.029 10.913 10.913 0 004.094-2.872c1.334-1.508 2.359-3.177 3.474-5.218l.667-1.217c.667-1.231 1.35-2.487 2.067-3.708 1.049-1.779 2.343-3.047 3.952-3.874.158-.079.31-.168.455-.267a.371.371 0 00.126-.183.345.345 0 00-.006-.217.294.294 0 00-.095-.105.557.557 0 00.23-.11.5.5 0 00.148-.197c.06-.177-.018-.372-.223-.583a.213.213 0 00-.142-.058l-.355.01-.074.027a.607.607 0 01-.104.031 9.765 9.765 0 00-2.405.77 17.084 17.084 0 00-4.974 3.572 53.976 53.976 0 00-3.683 4.278l-.26.327a475.574 475.574 0 01-3.967 4.875 17.115 17.115 0 01-2.612 2.583 9.525 9.525 0 001.425-2.033 25.942 25.942 0 001.871-4.383c.298-.893.58-1.79.865-2.688.293-.932.587-1.865.889-2.793.205-.632.46-1.249.762-1.846a7.533 7.533 0 011.074-1.568.33.33 0 00.056-.458.451.451 0 00-.168-.12.488.488 0 00-.208-.038.842.842 0 00-.416.117c-.084.054-.171.105-.258.156-.252.14-.49.3-.711.478-1.467 1.231-2.765 2.746-4.087 4.746l-.623.944a264.772 264.772 0 01-2.918 4.36c-1.602 2.334-3.334 4.127-5.287 5.485-1.663 1.158-3.334 1.72-5.112 1.72-.198 0-.4 0-.607-.023a4.937 4.937 0 01-2.545-.804 1.913 1.913 0 01-.56-.554 1.756 1.756 0 01-.273-.716.81.81 0 00.315.25.883.883 0 00.407.076 1.95 1.95 0 00.411-.051c.174-.043.335-.12.475-.223.14-.104.254-.233.337-.38.174-.291.233-.63.164-.957a.921.921 0 00-.299-.57 1.065 1.065 0 00-.621-.269 2.686 2.686 0 00-.307-.02 1.735 1.735 0 00-.788.18c-.243.12-.448.295-.596.509A2.23 2.23 0 000 16.76c.005.468.161.924.448 1.31.467.639 1.167 1.09 2.14 1.381a8.13 8.13 0 002.354.341 9.873 9.873 0 002.58-.359c2.399-.648 4.546-1.974 6.564-4.048 1.147-1.18 2.03-2.539 2.814-3.83.409-.674.814-1.351 1.216-2.033.6-1.011 1.2-2.025 1.824-3.022a22.054 22.054 0 011.612-2.274 25.739 25.739 0 00-2.123 4.582 446.824 446.824 0 01-2.445 6.4 7.61 7.61 0 01-1.862 2.873c-.223.217-.48.41-.731.615l-.223.206a.398.398 0 00-.201.165.351.351 0 00-.045.245.31.31 0 00.134.185c.067.044.15.065.232.057a.978.978 0 00.28-.047 10.003 10.003 0 002.667-1.287 19.87 19.87 0 003.945-3.564c1.463-1.674 2.907-3.406 4.308-5.08l.984-1.18a30.178 30.178 0 014.652-4.574 12.57 12.57 0 013.698-2.052c-.76.428-1.48.915-2.151 1.455a15.956 15.956 0 00-2.783 2.758c-1.364 1.742-2.502 3.646-3.6 5.49l-.836 1.398a120.178 120.178 0 01-1.874 3.068c-.775 1.212-1.689 2.052-2.79 2.575-.074.033-.15.074-.223.11-.217.14-.472.222-.736.237a2.31 2.31 0 01-.338-.052 3.437 3.437 0 00-.382-.06l-.238-.016a7.329 7.329 0 00-.618-.032 2.91 2.91 0 00-.784.098c-.463.127-.556.343-.554.5 0 .331.33.432.485.48.196.038.396.054.596.048.434.008.868-.04 1.289-.142.131-.015.261-.04.389-.075a1.56 1.56 0 01.437-.064 17.51 17.51 0 002.485.205c.236 0 .47 0 .703-.02a6.283 6.283 0 003.373-1.1c.71-.53 1.357-1.128 1.93-1.783-.018.494.1.984.34 1.426.189.367.486.678.858.895a2.48 2.48 0 001.244.336c.136 0 .272-.01.407-.029a3.453 3.453 0 001.393-.587 8.16 8.16 0 001.876-1.793l.05-.064.115.025a3.707 3.707 0 00.875.082 3.172 3.172 0 001.86-.884c.787-.616 1.697-1.654 2.577-2.656.424-.484.829-.946 1.19-1.321a1.2 1.2 0 01.468-.27c.033 0 .042.04.042.075.018.437-.498 1.397-.85 1.935a275.007 275.007 0 01-2.362 3.535l-.944 1.404c-.025.039-.05.08-.105.178a.166.166 0 000 .175.187.187 0 00.07.063.207.207 0 00.095.023h.995c.252 0 .5 0 .79.01a.56.56 0 00.306-.07.5.5 0 00.207-.221 42.024 42.024 0 012.965-4.368c.695-.875 1.333-1.642 2.202-2.258a3.223 3.223 0 011.03-.478.663.663 0 01.181-.026.309.309 0 01.139.021.286.286 0 01.11.08.406.406 0 010 .397c-.115.282-.26.553-.433.809-.333.484-.667.962-1.018 1.436-.24.332-.475.665-.711.997-.533.76-.745 1.437-.667 2.142.109.916.89 1.642 1.778 1.642.365-.005.72-.114 1.016-.312a8.182 8.182 0 001.46-1.151c.032.12.082.235.149.343.173.297.422.552.725.741.303.19.652.308 1.015.346.207.019.414.029.616.029.196 0 .392-.012.587-.033h.01a6.001 6.001 0 003.215-1.046c.328-.234 1.697-1.712 3.013-3.169-.238.4-.48.799-.718 1.199l-1.11 1.846-.547.918a.17.17 0 00.013.187.208.208 0 00.16.076h.03c.343-.056.688-.09 1.035-.103.13 0 .26.017.386.051.094.022.19.036.287.043a.437.437 0 00.223-.083.384.384 0 00.137-.184l.046-.082.27-.41a144.91 144.91 0 012.29-3.517 11.307 11.307 0 012.295-2.56c.31-.287.691-.499 1.111-.617a.76.76 0 01.17-.02.28.28 0 01.222.086.288.288 0 01.02.349l-.043.074c-.233.41-.467.82-.725 1.213-.195.297-.395.584-.595.872-.336.478-.68.972-.996 1.516a2.679 2.679 0 00-.416 1.974c.072.392.288.749.612 1.01.324.262.736.413 1.166.426a1.8 1.8 0 00.374-.04 2.783 2.783 0 001.36-.762c.5-.445.97-.916 1.409-1.412.151-.168.304-.334.466-.505 0 .046 0 .31.014.399.042.5.245.976.584 1.367.338.392.796.681 1.314.83.254.071.517.107.782.107a3.672 3.672 0 001.25-.234 7.693 7.693 0 002.362-1.47 22.39 22.39 0 002.565-2.724l.71-.84c.221-.276.457-.55.704-.82.177-.193.364-.38.548-.569.154-.151.307-.305.445-.463a1.78 1.78 0 01.542-.376.159.159 0 01.074-.02h.022a.167.167 0 01.03.115c-.049.25-.135.493-.255.722-.17.35-.357.693-.564 1.026-.767 1.202-1.556 2.394-2.343 3.584l-.949 1.437-.151.24a.169.169 0 000 .183.187.187 0 00.07.062.21.21 0 00.092.024l.176-.01c.096 0 .178-.013.26-.015.223 0 .445-.01.667-.01.284 0 .562 0 .844.03.222 0 .338-.204.422-.383.023-.047.045-.092.07-.133l.097-.156c.627-1.014 1.274-2.063 2.123-2.955.115-.123.256-.252.398-.38v.121c-.005.197.011.395.046.59.029.23.136.447.306.618.17.171.394.289.641.335.129.027.26.04.391.04a2.301 2.301 0 001.123-.309c.827-.453 1.465-1.134 2.031-1.801a.454.454 0 00.102-.347.299.299 0 00-.115-.205l.02.01zm-14.07.253c.697-.788 1.555-1.683 2.645-2.338.307-.22.679-.35 1.067-.377v-.179l.013.179a.31.31 0 01.204.051.25.25 0 01.027.189c-.07.332-.256.633-.531.856a5.786 5.786 0 01-1.674 1.07 9.033 9.033 0 01-1.91.737c.052-.065.105-.127.159-.188zm-35.805.336c-.307.868-.16 1.129.126 1.512l.08.111-.042.052c-.571.68-1.205 1.387-2.09 1.846a2.21 2.21 0 01-1.035.265c-.444 0-.653-.193-.667-.6-.014-.55.11-1.097.363-1.596a11.557 11.557 0 013.247-4.069c.482-.377.889-.545 1.333-.545h.111a.667.667 0 01.414.12.58.58 0 01.231.34 1.84 1.84 0 01-.044.974.928.928 0 00-.27-.041 1.116 1.116 0 00-.666.24 2.993 2.993 0 00-1.096 1.397l.005-.006zm15.135 2.013c.247-.353.62-.568 1.245-.72.24-.06.47-.147.689-.257.183-.086.34-.215.453-.373.114-.159.181-.342.196-.531a1.067 1.067 0 00-.187-.643l1.745-1.955v.41c.013.75.029 1.52 0 2.278-.074 1.416-1.083 2.45-1.916 3.067-.343.264-.774.41-1.22.41h-.138a1.16 1.16 0 01-.586-.158 1.044 1.044 0 01-.403-.422.968.968 0 01.122-1.098" fill="#342F2A"/></g><defs><clipPath id="clip0_3047_2090"><path fill="#fff" d="M0 0h84v20H0z"/></clipPath></defs></svg>