<svg width="86" height="24" viewBox="0 0 86 24" fill="none" xmlns="http://www.w3.org/2000/svg"><path d="M27.415.095h2.414l2.754 8.667L35.32.095h2.43l-3.8 11.275h-2.753L27.415.095zm18.852 7.25c0 2.401-1.77 4.254-3.927 4.254-1.177 0-2.03-.434-2.608-1.177v4.171h-2.075V3.318h2.075v.951c.58-.74 1.434-1.177 2.608-1.177 2.158 0 3.927 1.853 3.927 4.253zm-2.078 0c0-1.351-.95-2.272-2.237-2.272-1.272 0-2.222.918-2.222 2.272 0 1.352.95 2.272 2.222 2.272 1.29-.002 2.237-.92 2.237-2.272zm7.632-4.189v2.318c-1.079-.128-2.448.355-2.448 2.046v3.85h-2.075V3.316h2.075V4.7c.419-1.095 1.434-1.545 2.448-1.545zm.049 4.189c0-2.4 1.884-4.253 4.252-4.253 2.366 0 4.267 1.853 4.267 4.253 0 2.401-1.901 4.254-4.267 4.254-2.368-.003-4.252-1.856-4.252-4.254zm6.44 0c0-1.305-.95-2.223-2.188-2.223-1.223 0-2.173.918-2.173 2.223 0 1.306.95 2.224 2.173 2.224 1.238-.003 2.189-.92 2.189-2.224zm8.113 4.025l-2.931-3.657v3.657h-2.076V.095h2.076V6.86l2.769-3.544h2.479l-3.237 3.978 3.332 4.076h-2.412zm2.849-1.159c0-.758.611-1.37 1.369-1.37s1.37.612 1.37 1.37c0 .758-.612 1.37-1.37 1.37-.758 0-1.37-.611-1.37-1.37zm8.564-7.055v2.318c-1.08-.128-2.448.355-2.448 2.046v3.85H73.31V3.316h2.078V4.7c.421-1.095 1.433-1.545 2.448-1.545zM86 3.318v8.055h-2.076v-.902c-.482.725-1.32 1.128-2.399 1.128-1.705 0-3.044-1.192-3.044-3.333V3.32h2.076v4.688c0 1.095.66 1.66 1.595 1.66 1.014 0 1.77-.596 1.77-1.997V3.323H86v-.005zM33.963 22.142h-1.28v-5.274h-2.29v5.274H29.11v-6.5h4.853v6.5zm3.377-.956c.466 0 .836-.196 1.041-.465l.966.557c-.437.633-1.133.995-2.024.995-1.56 0-2.543-1.07-2.543-2.452 0-1.383.994-2.452 2.45-2.452 1.375 0 2.348 1.087 2.348 2.452 0 .177-.018.334-.046.49h-3.499c.167.615.676.875 1.308.875zm1.041-1.802c-.149-.668-.65-.938-1.15-.938-.64 0-1.077.344-1.216.938h2.366zm6.905.437c0 1.383-1.02 2.452-2.263 2.452-.678 0-1.169-.252-1.503-.679V24h-1.197v-6.5h1.197v.548c.334-.427.825-.679 1.503-.679 1.241.003 2.263 1.07 2.263 2.452zm-1.197 0c0-.779-.547-1.308-1.29-1.308-.731 0-1.281.53-1.281 1.308 0 .779.547 1.308 1.282 1.308.742.003 1.29-.527 1.29-1.308zm4.27 1.365c.465 0 .834-.196 1.04-.465l.966.557c-.437.633-1.133.995-2.024.995-1.56 0-2.544-1.07-2.544-2.452 0-1.383.995-2.452 2.451-2.452 1.374 0 2.348 1.087 2.348 2.452 0 .177-.018.334-.046.49h-3.5c.164.615.676.875 1.308.875zm1.037-1.802c-.149-.668-.65-.938-1.15-.938-.64 0-1.077.344-1.216.938h2.366zm4.827 2.758l-1.688-2.107v2.107h-1.197V17.5h1.197v2.044l1.596-2.044h1.428l-1.865 2.293 1.921 2.349h-1.392zm6.859-2.321c0 1.383-1.02 2.452-2.263 2.452-.678 0-1.169-.252-1.503-.679V24H56.12v-6.5h1.197v.548c.334-.427.825-.679 1.503-.679 1.24.003 2.263 1.07 2.263 2.452zm-1.197 0c0-.779-.547-1.308-1.29-1.308-.732 0-1.279.53-1.279 1.308 0 .779.547 1.308 1.28 1.308.742.003 1.289-.527 1.289-1.308zm4.27 1.365c.465 0 .835-.195 1.04-.465l.966.557c-.437.633-1.133.995-2.024.995-1.56 0-2.544-1.07-2.544-2.452 0-1.383.995-2.452 2.451-2.452 1.374 0 2.348 1.087 2.348 2.452 0 .177-.018.334-.046.491h-3.499c.167.614.676.874 1.308.874zm-1.68-4.799c0-.344.287-.632.631-.632a.63.63 0 01.622.632.62.62 0 01-.622.622.631.631 0 01-.631-.622zm2.72 2.997c-.149-.668-.65-.938-1.15-.938-.64 0-1.077.345-1.216.938h2.366zm-.958-2.997c0-.344.288-.632.632-.632a.63.63 0 01.621.632.62.62 0 01-.621.622.631.631 0 01-.632-.622zm2.618 3.434c0-1.383 1.04-2.452 2.45-2.452.91 0 1.698.483 2.078 1.198l-1.03.604c-.185-.38-.585-.622-1.058-.622-.714 0-1.243.53-1.243 1.272 0 .732.529 1.262 1.243 1.262.483 0 .881-.231 1.066-.612l1.04.594c-.398.725-1.186 1.208-2.096 1.208-1.41 0-2.45-1.07-2.45-2.452zm8.965-1.169h-1.45v3.49h-1.196v-3.49h-1.467V17.5h4.11v1.152h.003zm.12 1.169a2.427 2.427 0 012.45-2.452 2.432 2.432 0 012.46 2.452 2.433 2.433 0 01-2.46 2.452 2.427 2.427 0 01-2.45-2.452zm3.713 0c0-.753-.548-1.28-1.262-1.28-.704 0-1.253.53-1.253 1.28s.547 1.282 1.253 1.282c.714 0 1.262-.529 1.262-1.282zm4.834 2.321l-1.69-2.107v2.107H81.6V17.5h1.196v2.044l1.596-2.044h1.428l-1.865 2.293 1.921 2.349h-1.39zM17.48 0H4.452A4.465 4.465 0 000 4.454V17.49a4.465 4.465 0 004.452 4.454H17.48a4.465 4.465 0 004.452-4.454V4.454A4.467 4.467 0 0017.48 0z" fill="#043E44"/><path d="M11.073 7.644l-3.324 3.329 3.324 3.328a4.696 4.696 0 006.646 0 4.708 4.708 0 000-6.654 4.694 4.694 0 00-6.646-.003zm-6.015 3.329l-3.325-3.33a4.519 4.519 0 00-.79-.627v7.914c.28-.177.546-.386.79-.631l3.325-3.326zm4.668 4.676L6.404 12.32 3.08 15.65a4.721 4.721 0 00-1.307 4.1A3.504 3.504 0 004.454 21h6.195a4.714 4.714 0 00-.923-5.35zM3.08 6.296l3.32 3.33 3.325-3.33a4.716 4.716 0 00.918-5.352H4.452A3.498 3.498 0 001.77 2.196a4.737 4.737 0 001.31 4.1z" fill="#fff"/></svg>