<svg width="72" height="11" viewBox="0 0 72 11" fill="none" xmlns="http://www.w3.org/2000/svg"><g clip-path="url(#clip0)"><path d="M17.92.204h-8.9v2.151h3.041v8.442h2.824V2.355h3.038L17.92.204zm50.008 0l-2.05 4.247L63.8.204h-3.248l3.916 6.6v3.992h2.823V6.804l3.887-6.6h-3.25zm-37.837 0v10.593h2.717v-5.71l4.61 5.71h2.31V9.202L32.413.204H30.09zm9.635 5.364V.204h-4.324l4.324 5.364zm14.706.942h4.453V4.398h-4.453V2.285h4.893V.203h-7.788v10.593h7.956V8.683h-5.06l-.001-2.173zM45.198.203h-2.896v10.593h7.528V8.615h-4.632V.203zM25.566 10.796h2.972L24.596.203h-3.278l-3.885 10.593h2.756l.719-2.116h3.965l.693 2.116zm-4.012-4.12l1.375-4.252 1.32 4.253h-2.695zM.324 8.084a6.63 6.63 0 003.116.773c.897 0 1.928-.177 1.928-.99 0-1.89-5.343-.81-5.343-4.664C.025.698 2.295.023 4.388 0h.243c1.055.006 2.103.17 3.11.487l-.265 2.274a7.181 7.181 0 00-2.75-.62c-.713.001-1.816.049-1.816.974 0 1.67 5.372.807 5.372 4.51 0 2.747-2.488 3.373-4.84 3.373a11.955 11.955 0 01-3.44-.513l.322-2.402z" fill="#000"/></g><defs><clipPath id="clip0"><path fill="#fff" d="M0 0h72v11H0z"/></clipPath></defs></svg>