<svg width="68" height="32" viewBox="0 0 68 32" fill="none" xmlns="http://www.w3.org/2000/svg"><path d="M36.44 11.05a1.5 1.5 0 002.121 2.122L49.17 2.562A1.5 1.5 0 0047.048.439L36.44 11.05zm0-9.195a1.5 1.5 0 002.121 2.123l1.415-1.415A1.5 1.5 0 0037.854.44L36.44 1.855zm12.377 15.207a1.5 1.5 0 102.122 2.121l16.622-16.62A1.5 1.5 0 1065.439.441l-16.622 16.62zm-5.304-3.89a1.5 1.5 0 102.122 2.122l12.73-12.731a1.5 1.5 0 10-2.12-2.122l-12.731 12.73zm9.195 11.316a1.5 1.5 0 010-2.122l12.73-12.73a1.5 1.5 0 012.123 2.121L54.829 24.488a1.5 1.5 0 01-2.121 0zm11.316 7.072a1.5 1.5 0 010-2.121l1.415-1.415a1.5 1.5 0 012.122 2.122l-1.415 1.415a1.5 1.5 0 01-2.122 0zm-9.194 0a1.5 1.5 0 010-2.121l10.609-10.61a1.5 1.5 0 112.122 2.123L56.95 31.56a1.5 1.5 0 01-2.122 0zm-6.506.44c1.324.002 2.364-1.102 2.147-2.409-1.023-6.164-5.898-11.039-12.062-12.062-1.307-.217-2.411.823-2.409 2.147v9.908A2.434 2.434 0 0038.416 32h9.908z" fill="#FFCD00"/><path fill-rule="evenodd" clip-rule="evenodd" d="M15.444 14.819c.358-.279.573-.516.573-.898 0-.454-.379-.732-.84-.732-.46 0-.788.258-.788.742 0 .413.276.713.522.95l.195.185.338-.247zm1.177 3.311l-1.771-1.846-.297.196c-.44.299-.656.67-.656 1.135 0 .742.543 1.134 1.321 1.134.553 0 1.025-.206 1.403-.619zm1.547-2.042c.34 0 .601.306.511.635-.139.509-.35.987-.634 1.397l.56.574c.194.2.194.52-.001.719a.507.507 0 01-.726 0l-.532-.545-.13.119a3.126 3.126 0 01-2.039.763c-1.423 0-2.427-.733-2.427-2.104 0-1.012.645-1.589 1.26-1.992l.135-.086-.135-.16c-.44-.527-.687-.878-.687-1.497 0-.96.717-1.661 1.823-1.661 1.097 0 1.936.619 1.936 1.64 0 .795-.543 1.259-1.362 1.837l1.557 1.62c.14-.236.245-.51.322-.795a.602.602 0 01.57-.464zM.25 1.75C.25.784 1.034 0 2 0h5a1.5 1.5 0 010 3H4a.75.75 0 00-.75.75V5.5c0 .414.336.75.75.75h2.655a1.25 1.25 0 010 2.5H4a.75.75 0 00-.75.75V13a1.5 1.5 0 01-3 0V1.75zM11.75 0a1.5 1.5 0 011.5 1.5v4c0 1.105.75 2.25 2 2.25s2-1.145 2-2.25v-4a1.5 1.5 0 113 0v4c0 2.761-2.239 4.75-5 4.75s-5-1.989-5-4.75v-4a1.5 1.5 0 011.5-1.5zM22 1.5A1.5 1.5 0 0123.5 0h.035a1.5 1.5 0 011.306.762L29 8.125V1.5a1.5 1.5 0 113 0V13a1.5 1.5 0 01-1.5 1.5h-.035a1.5 1.5 0 01-1.306-.762L25 6.375V13a1.5 1.5 0 11-3 0V1.5zM22 19a1.5 1.5 0 011.5-1.5h.035a1.5 1.5 0 011.306.762L29 25.625V19a1.5 1.5 0 113 0v11.5a1.5 1.5 0 01-1.5 1.5h-.035a1.5 1.5 0 01-1.306-.762L25 23.875V30.5a1.5 1.5 0 11-3 0V19zm-10.25 2.75a1.5 1.5 0 011.5 1.5v4c0 1.105.75 2.25 2 2.25s2-1.145 2-2.25v-4a1.5 1.5 0 013 0v4c0 2.761-2.238 4.75-5 4.75-2.76 0-5-1.989-5-4.75v-4a1.5 1.5 0 011.5-1.5z" fill="#E73C3E"/><path d="M9 27.89c0 1.274-.45 2.277-1.35 3.01-.894.733-2.141 1.1-3.74 1.1-1.169 0-2.23-.178-3.185-.534C.27 31.296 0 30.845 0 30.36c0-.93.96-1.54 1.844-1.247.181.06.354.113.517.157.648.173 1.133.21 1.669.21.642 0 1.133-.125 1.473-.376.346-.25.52-.623.52-1.119 0-.276-.076-.52-.227-.733a2.497 2.497 0 00-.671-.627c-.29-.2-.778-.468-1.678-.905-.844-.406-1.476-.795-1.898-1.168a4.369 4.369 0 01-1.01-1.302C.285 22.755.16 22.176.16 21.513c0-1.247.412-2.228 1.237-2.942.83-.714 1.977-1.071 3.437-1.071.718 0 1.401.087 2.05.26.296.08.6.172.908.28.646.226.936.957.679 1.592-.266.653-1.01.954-1.68.73a8.746 8.746 0 00-.635-.19A4.698 4.698 0 004.875 20c-.554 0-.979.132-1.275.395-.296.264-.444.608-.444 1.033 0 .264.06.495.18.694.12.193.308.383.566.57.265.18.75.497 1.727.973 1.29.63 2.175 1.264 2.653 1.9.479.63.718 1.405.718 2.325z" fill="#E73C3E"/></svg>