<svg width="62" height="32" viewBox="0 0 62 32" fill="none" xmlns="http://www.w3.org/2000/svg"><g clip-path="url(#clip0)" fill="#E75220"><path d="M56.3 1.904a3.816 3.816 0 012.681 1.121A3.832 3.832 0 0160.1 5.712v20.576a3.832 3.832 0 01-1.119 2.687 3.816 3.816 0 01-2.68 1.12H5.699a3.816 3.816 0 01-2.68-1.12A3.833 3.833 0 011.9 26.288V5.712a3.833 3.833 0 011.119-2.687 3.816 3.816 0 012.68-1.12h50.602zM56.3 0H5.7a5.7 5.7 0 00-4.028 1.675A5.725 5.725 0 000 5.712v20.576a5.725 5.725 0 001.672 4.037A5.701 5.701 0 005.699 32h50.602a5.701 5.701 0 004.027-1.675A5.725 5.725 0 0062 26.288V5.712a5.725 5.725 0 00-1.672-4.037A5.7 5.7 0 0056.301 0z"/><path d="M10.617 8.685c0-.586-.475-.914-1.28-.914H7.476V9.6h1.863c.842 0 1.28-.366 1.28-.913l-.001-.003zm1.9-.327a1.99 1.99 0 01-1.132 1.867 2.12 2.12 0 011.607 2.124c0 1.574-1.279 2.38-3.252 2.38H5.646V6.085h4.02c1.937 0 2.85 1.062 2.85 2.27l.001.003zm-1.425 3.768c0-.549-.402-.952-1.389-.952H7.475v1.904h2.228c.877 0 1.389-.293 1.389-.952zm3.91-6.04h1.9v6.918h4.311v1.757h-6.212V6.085zm10.594-.036h1.864l3.69 8.712h-2.082l-.804-1.94H24.61l-.767 1.94h-2.01l3.763-8.712zm2.046 5.197l-1.205-2.929-1.207 2.93h2.412zM40.83 6.085h1.9v3.771l3.251-3.77h2.56l-3.837 4.21 4.055 4.466h-2.557l-3.472-3.917v3.917h-1.9V6.085zm-9.133 10.874h1.9v3.771l3.252-3.77h2.558l-3.837 4.21 4.054 4.466h-2.557l-3.471-3.918v3.919h-1.9l.001-8.678zm19.51-5.676H48.98V9.56h2.228V7.33h1.754v2.233h2.228v1.722h-2.23v2.234h-1.753v-2.236zm-37.74 9.998c0 2.453-1.862 4.32-4.602 4.32H5.611V16.96h3.252c2.74 0 4.603 1.904 4.603 4.32l.002.002zm-1.974-.002a2.483 2.483 0 00-1.58-2.437 2.47 2.47 0 00-1.014-.163H7.548v5.238h1.351a2.5 2.5 0 002.435-1.615c.124-.325.178-.673.16-1.021v-.002zm29.338-4.318h6.21v1.684h-4.31v1.722h3.8v1.722h-3.8v1.831h4.384v1.684h-6.247V16.96l-.037.002zm-25.83 0h6.212v1.684h-4.35v1.722h3.8v1.722h-3.799v1.831h4.384v1.684h-6.247v-8.643zm40.883 2.781c0 2.087-1.535 2.671-2.156 2.783L56.25 25.6h-2.411l-2.265-2.965h-.694V25.6h-1.9v-8.64h3.654c2.082 0 3.252 1.17 3.252 2.782h-.001zm-1.936.11c0-.769-.584-1.172-1.534-1.172h-1.571v2.306h1.607c.95 0 1.498-.439 1.498-1.134zM22.416 21.28c0-2.233 1.754-4.467 4.677-4.467a6.191 6.191 0 012.813.66v1.83a4.626 4.626 0 00-2.52-.732c-1.9 0-2.997 1.245-2.997 2.71 0 1.61 1.206 2.708 2.887 2.708a3.62 3.62 0 002.155-.695l.912 1.391c-.366.293-1.352 1.062-3.361 1.062a4.422 4.422 0 01-3.23-1.262 4.444 4.444 0 01-1.334-3.205h-.002zm9.172-10.837c0-2.234 1.754-4.467 4.676-4.467.977-.005 1.94.22 2.814.659v1.83a4.626 4.626 0 00-2.521-.732c-1.9 0-2.996 1.245-2.996 2.71 0 1.61 1.205 2.708 2.886 2.708a3.624 3.624 0 002.156-.695l.911 1.391c-.365.293-1.351 1.062-3.36 1.062a4.443 4.443 0 01-3.225-1.268 4.462 4.462 0 01-1.343-3.199"/></g><defs><clipPath id="clip0"><path fill="#fff" d="M0 0h62v32H0z"/></clipPath></defs></svg>