<svg width="80" height="30" viewBox="0 0 80 30" fill="none" xmlns="http://www.w3.org/2000/svg"><path d="M79.989 13.266c0-.175.025-.325 0-.5-.025-.15-.025-.3 0-.426v-.15c0-.2-.05-.375-.025-.575.025-.175.025-.35.025-.55v-.175c-.025-.226-.076-.45-.05-.7a1.354 1.354 0 00-.026-.551v-.976c0-.075 0-.175-.025-.25 0-.05-.025-.1-.025-.175v-.35c0-.2-.025-.375-.025-.576 0-.125 0-.25-.026-.375v-.5c0-.1 0-.2-.025-.325-.025-.05-.025-.1-.025-.175V5.06a2.03 2.03 0 00-.025-.675V3.96c0-.075-.025-.15 0-.225.05-.2-.101-.376-.302-.4l-.605-.076c-.227-.025-.454-.05-.706-.075-.126 0-.227 0-.352.025a.408.408 0 00-.278.125c-.15.175-.302.35-.428.526-.202.3-.328.625-.454.975a9.37 9.37 0 01-.503 1.15c-.152.276-.278.601-.404.876v.025c-.1.275-.201.55-.327.826-.076.175-.151.325-.227.5-.025.075-.05.15-.076.25h-.025c0-.2-.025-.375-.025-.575 0-.125.025-.25.025-.35a1.665 1.665 0 010-.5V5.185c0-.15-.025-.275-.025-.425 0-.475.025-.95 0-1.4 0-.2-.227-.35-.428-.3 0 .05.025.074.025.124-.177.025-.328.05-.504.05s-.328-.025-.504-.025h-.504c-.05 0-.1.025-.126.05-.075.075-.126.15-.201.2-.05.075-.127.125-.177.2-.1.126-.201.25-.227.426-.025.15-.025.3-.025.45v1.526c0 .15-.025.3-.025.45 0 .175.025.325.025.5v1.277c-.025.225-.025.45 0 .7v.25c0 .176-.025.35-.025.526 0 .175.025.35.025.525v.1c0 .2-.05.375 0 .575.025.075 0 .15 0 .226-.025.225-.05.425-.025.65 0 .15.025.3.025.45 0 .075.025.15.025.225 0 .2-.025.426-.025.626 0 .15.025.3.025.45 0 .275-.025.525-.025.8 0 .25.101.4.328.5.15.076.327.1.504.126.277.05.529.075.806.075.176-.025.302-.075.403-.2.076-.075.126-.15.202-.2.226-.175.403-.4.604-.626.026-.025.05-.05.05-.1.127-.3.253-.6.379-.875.1-.225.176-.426.277-.65l.454-.976c.1-.2.15-.425.251-.65.152-.4.328-.801.504-1.201.026-.05.05-.075.076-.125h.025c0 .05.025.075.025.125 0 .175-.025.35 0 .55 0 .35.025.675.05 1.026v.275c0 .225 0 .45.026.675 0 .125 0 .25.025.35.025.15.025.275 0 .426-.025.2-.05.4.05.575.026.05.026.1.026.15-.025.25-.025.525 0 .775.025.226.227.376.453.376.05 0 .126 0 .177.025.176.075.352.025.529.05.176.025.352-.025.529-.1.1-.05.201-.1.277-.175a1.43 1.43 0 00.202-.176c.327-.25.453-.6.403-1v-.15zm-59.465 5.903c0-.25-.025-.525 0-.8 0-.125-.025-.2-.126-.226a.339.339 0 01-.176-.15c-.05-.1-.126-.15-.227-.15-.05 0-.1-.025-.126-.025a5.635 5.635 0 00-.907-.125h-.453c-.404.05-.832.05-1.235.05-.605 0-1.235 0-1.84.05-.1 0-.226.05-.327.1a.764.764 0 01-.403.125c-.126 0-.252.075-.353.175-.075.075-.151.15-.227.25-.025.05-.075.126-.075.2 0 .15-.025.326-.025.476v.225c0 .1.025.2.025.3v1.751c0 .075-.025.15 0 .2.025.175.025.326.025.5 0 .326 0 .676.025 1.001 0 .4.025.826.025 1.226 0 .225 0 .425.026.65 0 .225.025.45.025.676v.825c0 .3.025.6.025.9 0 .1-.025.2 0 .3 0 .25.025.526.025.776 0 .225.025.45 0 .675a.48.48 0 00.403.476c.126.025.252.025.378.05.202.025.403 0 .58-.075.302-.1.58-.225.831-.425a.987.987 0 00.378-.726c0-.225.025-.475.025-.7v-.676c0-.2.026-.4.026-.6v-.425c.025-.15.025-.3 0-.476v-.45c0-.325.025-.625.025-.95v-.3c0-.126-.025-.25.025-.376.025-.05 0-.125 0-.175-.025-.225 0-.425 0-.65a6.63 6.63 0 000-1c0-.126 0-.226.025-.35 0-.05.025-.126 0-.176-.025-.15 0-.325 0-.475v-.575c.025-.125.025-.15.151-.15h.202c.05.15.076.275.076.45v.275c0 .35 0 .7.025 1.05 0 .2.025.376.025.576v.7c0 .275.025.525.05.8 0 .2 0 .376.026.576v.475c0 .15.025.325.025.475v.7c0 .126.025.25.025.376v.625c0 .275.025.576.05.85v.25c0 .276 0 .551.026.826v.2c0 .176.176.35.352.376.177.025.303.075.454.175a.19.19 0 00.1.05c.278.05.58.1.883.1.1 0 .201-.025.302-.1.05-.05.126-.1.201-.125.328-.2.454-.476.429-.85v-.1c0-.2.025-.401 0-.576-.05-.35.05-.675 0-1.026v-.05c.025-.175.075-.375 0-.55v-.05c0-.575 0-1.126.025-1.7 0-.101 0-.201.025-.301.025-.15.025-.325 0-.475-.025-.075 0-.15 0-.226 0-.2 0-.4.025-.6 0-.25.026-.525.026-.775s.05-.526.025-.776c-.025-.225 0-.425 0-.625 0-.175 0-.35.025-.525a.639.639 0 00-.025-.375c-.025-.05 0-.126 0-.176.075-.25.075-.475.075-.675zM60.99 21.02c0-.025 0-.075-.025-.1 0-.05-.025-.075-.025-.125-.05-.2-.126-.425-.176-.625a1.175 1.175 0 00-.152-.376c-.075-.125-.176-.275-.226-.425a1.693 1.693 0 00-.353-.575c-.1-.125-.227-.225-.328-.35-.277-.3-.63-.476-1.008-.6-.252-.076-.529-.1-.806-.15-.353-.05-.73-.1-1.083-.126-.177-.025-.378-.075-.555-.075-.377 0-.73 0-1.108.025-.403.025-.806.125-1.235.1-.05 0-.1 0-.126.025-.151.1-.277.225-.302.4-.05.226-.05.476-.05.726 0 .375.025.75.025 1.125v1.351c0 .2.025.425.025.625v.55c0 .651 0 1.301.025 1.952v1.025c0 .45.025.926.025 1.376v2.076c0 .15.1.25.252.276.076 0 .177.024.252.024.303.025.504-.1.68-.325a.568.568 0 00.101-.35c-.025-.125-.025-.275-.025-.4v-1.001c.025 0 .05-.025.05-.025a10.3 10.3 0 001.537-.2c.504-.075 1.008-.125 1.512-.25.353-.1.73-.175 1.059-.375.352-.2.68-.425.982-.726.176-.175.353-.35.479-.575.126-.25.252-.525.378-.775.05-.125.1-.25.126-.375.05-.175.05-.376.1-.55.051-.226.076-.451.051-.676 0-.2-.025-.425-.025-.625.05-.326.05-.626-.05-.901zm-4.535 2.627a.442.442 0 01-.126.1c-.176.1-.378.2-.58.2-.302.025-.604.025-.932.025V21.27l.025-.025h.68c.026 0 .076 0 .102.025.201.125.428.175.604.325.025.025.076.05.126.075.252.1.328.326.378.576.025.075.025.175.05.25.05.4.026.8-.327 1.15zm-15.143 4.102v-.15c-.026-.326-.05-.626-.026-.95v-.076c-.075-.375-.15-.75-.176-1.125-.025-.3-.05-.626-.05-.926 0-.2.025-.4.025-.6 0-.1.025-.226 0-.326-.025-.05 0-.1 0-.175 0-.25-.025-.5-.025-.75 0-.025 0-.075-.026-.1-.1-.25-.025-.525-.05-.8 0-.276.025-.576.025-.851v-.05a2.71 2.71 0 01-.025-.45c.025-.275.025-.576.025-.85 0-.176.026-.351.05-.501 0-.1-.024-.225 0-.325a2.13 2.13 0 000-.575c-.024-.25-.176-.4-.428-.476-.126-.05-.277-.075-.428-.1a.722.722 0 00-.328 0c-.226.025-.428.1-.604.25-.076.075-.177.125-.227.2a1 1 0 00-.252.7c0 .176.025.376-.025.551-.025.05 0 .1 0 .175v.55c0 .25-.05.476-.025.726.05.475-.076.95-.202 1.4a6.57 6.57 0 01-.328.926c-.126.3-.226.625-.352.926-.076.15-.151.325-.227.475l-.302.525a5.149 5.149 0 01-.58.926c-.126.15-.227.3-.328.45-.05.075-.1.15-.176.225a.192.192 0 01-.1.05c-.026 0-.051-.05-.051-.075-.025-.25-.025-.475-.05-.725v-.225c-.05-.35.05-.676.025-1.026 0-.15.025-.3.025-.45v-.325c0-.15.05-.276.05-.426v-1.975c-.075-.276-.05-.551-.025-.801 0-.25.025-.475.025-.726 0-.175.026-.35 0-.525 0-.175 0-.35-.025-.525-.025-.175-.075-.35-.1-.525-.026-.125-.152-.276-.278-.276-.151-.025-.327-.075-.479-.075-.201-.025-.378-.025-.529.125-.025.025-.05.05-.1.05-.101.05-.152.125-.202.226-.176.25-.176.55-.202.825v.35c0 .15.026.3 0 .45-.05.276-.075.526-.075.8v.451c0 .075-.025.15-.025.225 0 .125.025.25.025.376 0 .05.025.125 0 .175-.05.15-.025.3-.025.45 0 .25.025.475.025.725 0 .1-.025.225-.025.325.025.125.05.25 0 .376v.05c0 .275 0 .525-.026.8-.025.25-.075.5-.025.75 0 .026-.025.076-.025.126 0 .1-.025.225 0 .325 0 .15.025.3.025.45 0 .3-.025.575.025.875v.8c0 .101.026.201 0 .276a.992.992 0 00.05.475c.026.1.051.175.076.275.026.126.101.2.227.226.126.025.252.025.378.05.202.025.428 0 .63.025.277.05.53-.05.73-.226l.605-.525c.378-.325.706-.675.983-1.075.151-.226.328-.45.479-.676.151-.2.302-.425.453-.625.026-.05.076-.1.101-.15.101.05.076.125.076.175 0 .1 0 .2.05.275.05.15.126.3.101.475 0 .05 0 .125.025.2.025.1.025.2.025.3 0 .226-.025.476.026.701.025.075 0 .125 0 .2 0 .1 0 .2.025.3.025.1.025.2.025.3 0 .026-.025.076-.025.1-.025.176.05.3.252.35.126.026.227.026.352.05.076 0 .177.026.252.026.202.025.429.05.63.05.126 0 .202-.05.278-.125.1-.1.201-.225.302-.326a.595.595 0 00.126-.35v-.2c.025-.15 0-.275-.025-.425v-.45zm-2.898-13.408c.277.476.554.95.857 1.426.05.1.15.15.277.175.176.025.328.025.453-.125l.05-.05 1.69-1.45a.742.742 0 00.251-.5c.025-.676.025-1.377.05-2.052 0-.575.026-1.176.026-1.751 0-.5.025-1 .05-1.476.025-.6.025-1.175.025-1.776 0-.125 0-.25.025-.375h1.084v.35c-.05.475-.076.976-.126 1.451-.025.2-.025.375-.05.575L43 9.64l-.076 1.1-.075.826c-.05.525-.076 1.05-.126 1.55-.026.376-.076.776-.101 1.151-.025.3-.05.626-.076.926 0 .125.026.2.151.25.076.025.177.05.252.05.303 0 .605-.025.933-.05l1.486-.075c.05 0 .101 0 .126-.025.101-.05.227-.2.202-.275-.05-.125-.025-.275-.05-.4V3.21c0-.075-.05-.125-.126-.175-.101-.05-.202-.05-.303-.05-1.21 0-2.393.025-3.603.025-.428 0-.831 0-1.26.025-.227 0-.378.175-.403.4 0 .55-.025 1.1-.025 1.676v1.076c0 .525-.025 1.075-.025 1.6v.726c0 .275-.026.525-.026.8 0 .576 0 1.126-.025 1.701 0 .4 0 .776-.025 1.176v.676c0 .1-.05.15-.1.225l-.933.925c-.05.05-.1.075-.151.1-.227-.025-.302.1-.227.225zm2.872-.25c-.277.25-.554.476-.831.726-.025.025-.05.025-.076.05-.252.1-.478.2-.73.3a.524.524 0 00-.101-.15c.126-.075.227-.15.328-.2a.192.192 0 01.1-.05c.479-.175.882-.45 1.31-.726.026 0 .026-.025.076 0-.025 0-.05.025-.076.05zm.05-.3c0 .025-.05.05-.075.05-.252.125-.478.25-.73.375-.177.075-.328.175-.504.25-.202.1-.404.2-.63.3-.025-.05-.05-.1-.076-.175.378-.15.68-.4 1.008-.6.302-.2.63-.375.957-.55h.05a.82.82 0 010 .35zm2.47 1.1c-.1.1-.201.176-.353.15h-.126s0-.024-.025-.024c.076-.075.126-.15.202-.225.277-.3.58-.576.857-.876.176-.2.327-.425.504-.65.025-.025.025-.05.075-.075 0 .15.05.3-.1.425-.177.175-.303.375-.454.575-.177.25-.378.475-.58.7zm1.16.05c-.051 0-.102 0-.177.026.05-.075.1-.125.126-.175h.025c.025.05.025.1.025.15zm-.051-.575l-.378.526c-.076.1-.176.125-.277.125h-.177c.353-.325.605-.7.907-1.076-.025.15 0 .3-.075.425zm.05-1.65c0 .025-.025.05-.025.05-.126.175-.277.35-.378.525-.201.3-.428.525-.68.775-.202.2-.378.425-.58.626-.025.025-.05.075-.075.1-.025 0-.025-.025-.05-.025v-.1c.025-.176.025-.35.05-.526 0-.05.05-.1.075-.15.252-.225.504-.45.731-.675.302-.3.58-.6.882-.9l.05-.05v.35zm-.075-.65c-.404.5-.832.925-1.31 1.35-.101.1-.202.2-.303.275 0 0-.025 0-.025-.025 0-.075 0-.15.025-.225.025-.05.05-.1.076-.125.302-.3.604-.575.907-.876.201-.2.403-.4.58-.6l.075-.075c.075.15.025.225-.025.3zm-1.285.124c.226-.225.453-.45.705-.675.176-.175.378-.35.53-.55a.343.343 0 00.075-.1h.025v.425a.19.19 0 01-.05.1c-.353.45-.756.85-1.185 1.25-.126.125-.252.226-.378.376 0-.075.026-.15 0-.226-.025-.225.101-.425.278-.6zm-.202-.1c0-.2 0-.375.151-.525.328-.35.68-.675 1.058-1 .101-.1.202-.2.353-.326.025.175.05.325-.126.45a.866.866 0 00-.201.226c-.151.15-.303.3-.429.45l-.705.7c-.05 0-.076 0-.101.025zm1.336-1.976c-.328.275-.656.6-.983.9l-.277.276h-.026c0-.1.026-.2.026-.275 0-.026.025-.05.05-.075.428-.526.857-1.026 1.36-1.476 0 0 .026 0 .051-.025 0 .075 0 .125.025.2.025.175-.05.325-.227.475zm.15-1.05c-.176.175-.377.35-.554.525-.252.25-.478.5-.705.75a.364.364 0 00-.076.1.432.432 0 01.126-.45c.378-.4.73-.825 1.084-1.226l.176-.175v.35c0 .05-.025.1-.05.125zm-1.284.575c0-.15.025-.275.025-.425 0-.1.05-.15.126-.2a5.91 5.91 0 00.831-.751c.101-.125.202-.25.303-.35.025-.025.025-.05.05-.075.025 0 .025.025.05.025v.4c0 .025-.025.05-.05.05-.353.25-.605.575-.907.9-.176.176-.277.3-.428.426zm1.285-2.151c-.227.25-.454.525-.68.775a4.73 4.73 0 01-.505.5s-.025 0-.025-.025c.025-.175.025-.35.05-.525.429-.125.68-.45.958-.75.076-.1.151-.2.252-.276.025.125.025.226-.05.3zm-1.16.55c0-.125.026-.225.026-.35 0-.025.05-.075.075-.1.303-.225.53-.5.756-.776.076-.1.177-.2.252-.3l.101-.1v.35a.19.19 0 01-.05.1c-.202.225-.378.45-.58.676l-.529.525c-.025-.025-.05-.025-.05-.025zm1.21-1.976l-.075.075c-.227.225-.429.475-.656.7a5.038 5.038 0 00-.352.4l-.05.05c0-.2.024-.4.05-.575 0-.025.025-.05.05-.075.176-.2.353-.4.554-.6.151-.15.303-.275.454-.4.025.1.05.4.025.425zm-1.083.025a.19.19 0 01.05-.1c.076-.075.151-.175.252-.225.252-.175.428-.4.63-.626.05-.05.1-.1.126-.15h.025v.35c0 .05-.05.075-.075.1l-.53.45c-.126.1-.226.226-.352.35l-.101.1c0-.1-.025-.174-.025-.25zm.982-1.451l-.554.625a2.17 2.17 0 01-.353.326c-.075.075-.176.125-.252.225-.1.125-.201.125-.353.1.101-.125.177-.25.278-.35.075-.1.176-.176.277-.276.252-.225.453-.475.68-.725.1-.125.227-.25.328-.375.075.2.05.35-.05.45zm.05-1.25h.026v.4c0 .05-.05.1-.1.15-.102.1-.177.2-.278.3-.126.15-.252.3-.403.45-.177.2-.353.4-.555.575a3.024 3.024 0 00-.529.6c-.05.076-.1.1-.176.1-.126 0-.227 0-.378-.024.075-.1.151-.175.201-.225.278-.226.53-.45.731-.726.202-.275.479-.525.706-.775.227-.25.453-.526.68-.776.05-.025.076-.025.076-.05zm-.478-.05c.075 0 .151 0 .252.024l-.176.175c-.101.1-.202.226-.328.326-.151.15-.302.325-.454.475-.126.125-.252.25-.352.4-.227.275-.48.525-.731.775-.126.1-.227.226-.353.35-.025.026-.05.076-.151.076l.1-.1c.177-.2.328-.426.48-.65.176-.276.403-.501.63-.751.125-.15.251-.3.377-.425.076-.1.177-.175.252-.275.101-.1.202-.2.277-.3.076-.076.127-.1.177-.1zm-3.906.024h.202c-.076.075-.126.15-.176.2h-.026v-.2zm.076.526c.126-.125.227-.276.353-.426.1-.125.1-.125.302-.1-.227.3-.453.576-.68.85 0 0-.025 0-.025-.024-.05-.1-.026-.2.05-.3zm-.076.7c0-.025.05-.05.076-.075.227-.15.378-.35.554-.55.126-.175.278-.326.378-.5.05-.076.126-.1.227-.1h.126c-.453.55-.907 1.1-1.36 1.675a.902.902 0 010-.45zm.101.725c.05-.05.101-.125.151-.175.353-.45.706-.875 1.059-1.325.1-.126.226-.25.327-.376.05-.075.101-.075.177-.075h.15s0 .025.026.025c-.076.1-.176.2-.252.3l-.076.076c-.327.45-.73.85-1.083 1.275a7.635 7.635 0 00-.554.726c-.026.025-.026.05-.076.075.025-.225-.025-.4.151-.526zm-.126.9c0-.024.05-.074.076-.1.126-.074.201-.174.302-.3.378-.5.756-1 1.184-1.475.252-.275.454-.55.68-.85a.452.452 0 01.102-.126c.025-.025.05-.05.075-.05h.428c-.125.125-.226.25-.327.35-.454.45-.857.951-1.26 1.451-.126.175-.302.325-.454.5-.176.176-.352.35-.529.55-.075.076-.126.15-.201.226a.427.427 0 01-.101.125s-.025 0-.025-.025c.05-.075.025-.175.05-.275zm-.025.701c0-.05.05-.075.076-.1.15-.1.252-.25.378-.4.075-.1.201-.2.302-.3.1-.1.227-.225.328-.35.15-.175.327-.35.478-.55.202-.25.403-.526.605-.776.176-.225.378-.425.554-.625l.378-.45c.025-.026.05-.05.076-.05h.403c-.025.05-.05.074-.076.1-.075.074-.176.15-.252.25-.201.2-.378.425-.58.65-.2.225-.377.45-.579.675-.05.05-.1.125-.15.2-.177.225-.354.476-.53.7-.025.05-.076.076-.126.1-.1.05-.176.15-.227.25a.346.346 0 01-.075.1 3.021 3.021 0 00-.53.601c-.125.175-.277.325-.453.5v-.525zm0 .8c0-.024.025-.05.05-.074.328-.2.555-.476.756-.776.05-.075.126-.175.202-.25h.025v.4a.19.19 0 01-.05.1c-.126.15-.252.326-.378.476-.177.2-.378.35-.63.5v-.225c.025 0 0-.075.025-.15zm-.025.726c0-.025.05-.075.075-.1l.303-.225a2.76 2.76 0 00.554-.525c.025-.025.05-.075.1-.125v.475c0 .025-.024.05-.05.075-.302.3-.63.575-.932.875 0 0-.025 0-.05.025v-.475zm0 .826a.19.19 0 01.05-.1c.303-.276.605-.55.933-.8 0 0 .025 0 .025-.026 0 .025.025.025.025.05v.375a.19.19 0 01-.05.1c-.328.225-.58.526-.882.776l-.101.1v-.475zm.1.7c.253-.25.505-.475.782-.725.025-.025.075-.05.126-.1v.375c0 .025-.026.05-.026.075-.201.2-.428.4-.655.6-.1.075-.201.15-.327.225-.05-.2-.025-.325.1-.45zm-.125.825c0-.125.05-.175.15-.25.303-.175.58-.375.807-.625.025-.025.05-.025.076-.075v.275a.19.19 0 01-.05.1c-.278.275-.58.55-.857.825l-.101.1c-.05-.1-.025-.224-.025-.35zm0 .726c0-.025.025-.05.05-.075.252-.15.428-.375.63-.576.075-.1.176-.175.252-.275.025-.025.05-.025.075-.05v.4c0 .025-.025.05-.05.075l-.907.826s-.025 0-.05.025v-.35zm.1.6c.278-.25.555-.5.807-.75.025-.025.025-.025.075-.05v.325c0 .025-.025.05-.025.05-.277.225-.554.475-.806.7-.05.05-.101.075-.151.1-.026-.175-.026-.275.1-.375zm-.403 1.1c.101-.1.202-.224.252-.35.025-.05.05-.1.101-.124.328-.2.605-.45.882-.726 0 0 .025-.025.05-.025v.475c0 .025-.025.075-.075.1-.429.2-.781.5-1.184.75-.101.05-.177.126-.303.15.1-.074.176-.174.277-.25zm1.235-.45c.05.176.025.3 0 .426 0 .025-.05.05-.076.075l-.604.3a7.36 7.36 0 00-.933.6c-.075.05-.15.1-.252.15a.895.895 0 01-.226.1c-.026-.05-.05-.075-.101-.15l2.192-1.5zm-15.32 2.202v.05c-.05.1 0 .225 0 .325 0 .075.05.125.126.15.101.025.177.05.277.075.152.025.303.05.48.05.125.025.276.025.428 0 .125-.025.201-.05.277-.15.075-.125.176-.25.252-.35a.42.42 0 00.075-.25v-.626c0-.175.025-.35.025-.55 0-.15.026-.3.026-.45.025-.2.1-.4.075-.6 0-.076.025-.1.126-.1.101-.026.202-.026.302-.05.076-.026.152-.05.202-.076l.832-.225c.05-.025.1 0 .15-.025 0 .25.127.5.102.75v.05c.075.1.075.226.075.35.025.176.076.326.05.501 0 .025 0 .075.026.125.075.175.1.35.1.525.026.226.076.45.202.626.025.025.025.05.05.075.026.075.076.1.152.125.126.05.277.05.403.1.05.025.126.025.176.05.126 0 .227 0 .353.025a.287.287 0 00.202-.075c.05-.05.1-.125.176-.175a.51.51 0 00.151-.375c.025-.176.025-.376.025-.55-.025-.2 0-.4-.025-.601-.025-.325-.076-.65-.1-1 0-.026 0-.05-.026-.076-.025-.2-.05-.4-.1-.625-.026-.15-.026-.3-.076-.45a1.125 1.125 0 01-.076-.4c0-.075 0-.176-.025-.25-.05-.25-.1-.5-.176-.751v-.075c-.05-.275-.126-.55-.177-.825v-.025a.769.769 0 01-.05-.2c-.025-.176-.05-.376-.101-.55-.05-.151-.05-.326-.076-.476-.025-.275-.075-.525-.126-.8-.025-.126-.075-.25-.1-.35-.076-.276-.126-.551-.177-.801-.025-.125-.075-.225-.1-.35-.05-.176-.101-.376-.152-.55-.1-.25-.176-.526-.327-.751 0-.025-.025-.05-.025-.075-.026-.075-.05-.15-.076-.2-.1-.275-.302-.45-.58-.55a2.604 2.604 0 00-.604-.126c-.303-.05-.58.05-.832.175-.201.1-.353.276-.479.426-.226.25-.327.575-.428.9a9.001 9.001 0 00-.176.876c-.076.425-.151.85-.202 1.25-.05.376-.075.776-.126 1.151-.025.15 0 .275-.05.425v.025c.025.175-.025.35-.025.526-.026.225-.076.45-.101.675-.025.3.025.6-.025.9v.075c0 .175.025.35 0 .526 0 .3-.026.6-.05.875 0 .125-.026.275-.026.4 0 .1-.025.175-.025.276 0 .175-.05.325-.025.5v.025l-.076.575v.025a.94.94 0 010 .375v.15c0 .1-.025.25.025.4zm2.268-5.478c0-.175.025-.35.05-.5.026-.5.151-1.001.202-1.501v-.05l.076-.075.075.075c.076.15.126.3.1.475 0 .05.026.1.051.15.101.15.076.325.101.475 0 .075 0 .175.025.25.026.175.05.35.101.526 0 .05.025.1.025.125.025.075.025.15.05.225 0 .05.026.075.026.125.025.05.075.1.075.175 0 .2.076.375.101.575 0 .075-.025.1-.075.125-.303.125-.605.226-.907.325h-.101v-.475c0-.225.025-.45.05-.675-.025-.125-.05-.25-.025-.35zm24.945.875a7.737 7.737 0 00-.353-.8c-.1-.175-.252-.35-.428-.476-.328-.2-.68-.35-1.059-.45a4.256 4.256 0 00-1.688-.1c-.428.05-.831.175-1.184.375-.1.05-.176.1-.277.175 0-.075-.025-.125-.025-.175 0-.1-.026-.2-.026-.325 0-.175-.025-.35-.025-.5-.025-.25 0-.525-.025-.8 0-.5-.025-1.026-.025-1.526 0-.225 0-.426-.025-.626 0-.225 0-.425-.026-.65-.025-.25-.05-.525-.226-.725-.076-.076-.151-.15-.252-.15s-.202-.026-.303-.026c-.1 0-.201 0-.302.05a1 1 0 00-.428.426c-.076.175-.151.35-.126.55.025.15.05.3 0 .475v.1c0 .25.075.5.025.75v.1c.025.526.05 1.076.05 1.602v.875c0 .2.025.4.025.6v.951c0 .225.026.45.026.675-.026.3.025.6.05.9.025.276.076.576.076.851 0 .35.1.7.126 1.05 0 .026.025.026.025.05 0 .101.025.201.025.301v.1c0 .3.025.6.025.9 0 .1.025.15.101.2a.47.47 0 00.176.05c.227.026.454.026.68.026.152 0 .303-.05.404-.175.075-.1.075-.1.176-.05.177.075.353.15.554.2.48.125.933.1 1.412.075.302-.025.604-.05.881-.15a.856.856 0 00.303-.15 3.06 3.06 0 00.353-.25c.1-.075.176-.15.252-.226.201-.25.378-.5.554-.75.151-.225.252-.45.302-.7 0-.05.025-.125.05-.175.127-.376.227-.776.278-1.176v-.275c.025-.35 0-.676-.126-1zm-2.243 1.926c0 .075-.05.175-.05.25-.05.2-.202.326-.378.4-.176.1-.378.1-.58.1-.277.05-.504-.1-.68-.3a.922.922 0 01-.126-.275 2.624 2.624 0 01.1-1.25c.051-.15.152-.226.303-.275.328-.126.58-.05.857.125.151.1.277.2.353.35a.44.44 0 00.126.175c.126.225.075.475.075.7zm16.832-2.026c-.05-.2-.151-.375-.277-.55-.101-.125-.252-.225-.378-.325a2.135 2.135 0 00-.68-.326 5.357 5.357 0 00-1.79-.1c-.075 0-.176.025-.277.025 0-.025-.025-.05-.025-.075-.025-.525-.1-1.025-.076-1.55v-.176c0-.2-.025-.4-.025-.6v-.925c0-.326.025-.65.05-.976 0-.25.026-.525.026-.775 0-.1-.025-.125-.126-.125-.05 0-.101-.025-.151-.025-.026-.226-.026-.226-.177-.326-.025-.15-.025-.175-.176-.175-.126 0-.202.075-.252.15-.025.05-.05.1-.076.175h-.025V3.26c0-.1-.025-.125-.126-.125-.1-.025-.176.025-.252.1l-.075.075h-.076c-.176-.025-.302.025-.353.175 0 .025-.025.05-.05.05-.101 0-.202.075-.328.05-.201-.05-.352.05-.378.276-.025.175-.025.35-.025.5 0 .2.025.425.025.625v1.05c0 .626.026 1.251.026 1.877 0 .5.05 1 .1 1.5.026.25.05.526.05.776.026.25.026.5.026.726.025.45.05.925.025 1.375v.45c0 .25.05.476.05.726v1.4c.101.026.202.026.303.05.05 0 .1.026.1.076 0 .1.076.125.177.125.151 0 .277.025.378-.15.025-.075.1-.05.126 0 .025.025.025.075.05.075.05.025.126.05.177.075.05.025.1-.025.126-.075.025-.025.075-.025.1-.025.101 0 .152-.025.202-.1.025-.025.025-.05.05-.05.05.025.101.075.126.075.076 0 .152.025.227 0 .05 0 .101-.025.126-.05.05-.075.126-.1.227-.075h.1c.102 0 .177-.025.202-.1.05-.1.126-.126.227-.15.378-.05.73-.2 1.033-.426.277-.225.58-.425.832-.675.226-.2.428-.425.529-.7.1-.226.176-.45.252-.65.126-.276.1-.551.176-.851v-.1c.05-.275.025-.6-.05-.9zm-2.243 2.001c-.151.25-.327.5-.554.676-.025.025-.05.05-.076.05 0 0-.025 0-.075.025-.025-.15-.05-.275-.05-.4-.026-.25-.051-.526-.076-.776-.026-.4-.101-.8-.177-1.2 0-.026-.025-.076 0-.1a.19.19 0 01.05-.1c.127-.076.253-.15.404-.176.201-.05.378.025.529.15.176.15.252.35.277.575.076.5-.025.901-.252 1.276zM7.044 20.07c0-.176-.05-.35-.151-.5-.151-.3-.378-.526-.605-.751-.252-.25-.58-.35-.932-.45a12.64 12.64 0 00-1.033-.175c-.278-.05-.555-.076-.907-.05-.656-.026-1.336.15-1.991.5-.227.125-.403.275-.605.425-.252.175-.453.4-.63.625a.716.716 0 00-.176.45c0 .1.025.176.126.226.176.05.353.15.554.125H.77c.1 0 .126.025.126.1.025.175.025.325.05.5.025.1.025.2.05.3.026.075.026.15.051.225 0 .05 0 .125.025.175 0 .05.025.1.025.15.026.2-.025.426.05.626v.1c.026.225.026.45.076.7 0 .1 0 .15-.075.226-.101.15-.151.275-.202.45-.025.075 0 .15.076.225.05.025.075.1.075.15 0 .075.05.15.126.2.101.075.126.175.126.3v.35c0 .075.026.126.026.2l.075 1.301c0 .2.025.4.025.6.026.176.05.376.026.55v.126l.075.725v.876c0 .15.076.25.252.275.277.025.554.05.857.075a.46.46 0 00.353-.15c.075-.075.126-.175.201-.25.1-.125.126-.25.1-.4a8.01 8.01 0 01-.05-.776v-.5c0-.275-.025-.525-.05-.8-.025-.35-.025-.676-.05-1.026 0-.05 0-.1-.025-.15 0-.075-.026-.15-.026-.225 0-.2 0-.4-.025-.6 0-.126-.025-.25-.025-.376 0-.075.025-.1.1-.125.253-.1.48-.225.731-.3.353-.125.656-.325.958-.55.126-.1.252-.175.378-.25.201-.126.428-.276.58-.45.226-.226.428-.476.579-.751.1-.175.227-.325.302-.5.076-.126.126-.276.177-.426.075-.25.1-.5.126-.75.025-.15.025-.3 0-.45.025-.05.025-.075.025-.125zm-2.772 1c-.025.125-.025.225-.05.35-.025.2-.126.35-.227.526a5.66 5.66 0 01-.58.775c-.1.125-.251.175-.403.25 0-.05-.025-.075-.025-.125l-.075-1.55-.076-1.126v-.45c.176 0 .328.024.479.1.075.024.176.074.252.1.226.05.403.174.453.4.076.225.126.45.202.675.05 0 .05.05.05.075zm30.085-8.18l.026.026c-.026.275-.076.575-.101.85a.94.94 0 000 .375c0 .1.025.2.05.3.025.05.05.1.126.1.025 0 .076-.05.101-.075.025-.025.025-.05.025-.05.05-.125.076-.25.101-.375.126-.6.252-1.226.353-1.826.1-.575.176-1.15.252-1.75.05-.451.1-.901.176-1.352a26 26 0 00.076-.475c.025.05.05.05.05.075.076.225.126.476.202.7.075.25.126.5.201.726.05.2.151.4.177.625v.05c.075.226.15.476.226.7.076.301.151.576.227.876.1.35.176.7.252 1.026.126.475.252.95.403 1.426.025.125.101.25.151.375.05.1.101.15.227.15.076 0 .151 0 .202.025.176 0 .302-.125.302-.275 0-.45-.05-.9-.126-1.351-.05-.275-.1-.525-.151-.8v-.125c.076 0 .126.025.151.025.1 0 .202 0 .303-.025.126-.025.201-.176.201-.276-.05-.225-.1-.45-.151-.7-.1-.4-.227-.8-.328-1.226-.126-.475-.252-.975-.403-1.45-.05-.15-.1-.276-.126-.426-.05-.15-.1-.3-.151-.425l-.302-.9c-.101-.25-.202-.5-.278-.75-.201-.651-.327-1.302-.478-1.952-.076-.375-.177-.725-.252-1.1a.19.19 0 00-.05-.126c-.152-.1-.404 0-.454.15-.025.1-.05.15-.126.2-.025.026-.076.076-.076.126-.025.1-.1.125-.201.125-.177 0-.252.075-.303.225 0 .025-.025.05-.025.075a.463.463 0 01-.176.3c-.05.05-.101.1-.101.175-.076.35-.176.676-.252 1.026l-.302 1.65a96.793 96.793 0 01-.504 2.577c-.151.75-.328 1.526-.479 2.276-.076.326-.1.626-.151.95 0 .076-.025.15.05.2.076.076.101.151.076.251-.05.25-.076.5-.126.75-.05.426-.126.826-.177 1.251v.15c.076 0 .126.025.177.025.126.025.151.05.126.175 0 .075-.025.125-.025.225.126.026.226.026.327.05.126.026.227-.024.277-.15.026-.05.05-.1.05-.15.102-.4.202-.775.278-1.175.126-.576.227-1.176.327-1.751a.8.8 0 00.126-.325zm36.611.776V11.89c0-.425-.025-.85-.05-1.3V9.238c0-.176-.025-.35-.025-.526 0-.5.025-1 .05-1.5v-.876c-.025-.35-.025-.725-.05-1.076 0-.2-.025-.425-.025-.625-.026-.25-.05-.475-.05-.725v-.3c0-.05 0-.1-.076-.126a.374.374 0 00-.429.175c0 .025-.025.025-.05.05 0-.025-.025-.05-.025-.05-.026-.15-.05-.175-.202-.15-.076 0-.151.05-.227.075V3.46c0-.125-.025-.15-.15-.125-.077 0-.127.05-.203.075-.1.025-.126.1-.15.2 0 .05 0 .1-.076.15 0-.05-.025-.1-.025-.15 0-.075 0-.15.025-.225 0-.075-.025-.1-.076-.125-.075 0-.151 0-.201.05a.353.353 0 01-.227.075c-.025 0-.076 0-.101.025a.217.217 0 01-.176 0c-.151-.025-.252.025-.278.175-.025.1-.025.226-.05.326-.025.275-.025.575-.025.85 0 .2-.025.4-.025.575 0 .476.025.976.025 1.451 0 .425.025.85.05 1.25.025.351.05.701.05 1.026.026.276 0 .576.026.85 0 .201.025.401.025.601.025.576.025 1.15.025 1.726 0 .275.025.55.05.826 0 .15.051.3.051.475 0 .45.05.9 0 1.35v.2c0 .2 0 .2.202.226h.025c.151 0 .227-.05.227-.2v-.1c.1.025.176.025.277.05.1 0 .126-.025.151-.1a.225.225 0 00.025-.125c0-.05.025-.125.025-.176h.025c.026.1.05.226.076.326.025.1.076.125.176.125.076 0 .101-.05.127-.125.025-.05 0-.1.075-.15.025.05.05.1.05.15.026.125.126.175.252.175.152 0 .227-.1.177-.225-.025-.05-.025-.075.025-.125 0 .075.025.125.025.175 0 .1.025.175.025.275 0 .075.05.125.126.125h.353c.151-.025.202-.075.202-.225v-.125c0-.45-.026-.926-.05-1.376zm-37.87 4.002c-.303 0-.605-.025-.933-.025-.453 0-.907 0-1.36.025h-1.411c-.277 0-.58.025-.857.025-.252.025-.454.1-.605.325-.075.125-.176.25-.252.376-.05.1-.05.225.025.325.076.1.152.15.252.2.202.075.429.1.655.1h.832c.025.225.076.45.025.675-.025.075-.025.125-.025.2v.776c0 .075.025.15.025.225 0 .125.025.275 0 .4 0 .175-.025.325-.025.5 0 .2.05.376 0 .576-.025.075 0 .175 0 .25 0 .15.025.325.025.475 0 .325-.025.676 0 1 .025.376-.025.751 0 1.126v2.126c0 .126.025.226.025.35 0 .326-.025.626 0 .951.026.175 0 .35-.025.525-.05.3.101.5.403.576.151.025.328.075.48.075h.226c.353 0 .58-.225.831-.45.126-.125.177-.3.252-.45.025-.076.05-.176.025-.25-.025-.1-.025-.2-.025-.3v-2.202c0-.225.025-.45.025-.65 0-.075-.025-.15-.025-.226 0-.05-.025-.1-.025-.175v-1.35c.025-.2.025-.4-.025-.6v-.176c.025-.25.025-.525.05-.775v-.125c-.05-.175-.025-.376-.025-.576v-.3c-.025-.175-.05-.325 0-.5.025-.125.025-.25.025-.375-.025-.15 0-.3 0-.45 0-.15.025-.3 0-.45a.605.605 0 010-.301c.025-.15.025-.15.177-.15.176 0 .327 0 .504-.025.403 0 .705-.15.932-.475.126-.175.201-.376.227-.6a.189.189 0 00-.05-.1.52.52 0 00-.353-.126zM8.354 15.967a.909.909 0 01.277-.05c.202-.025.378-.1.53-.2.352-.25.58-.625.882-.925.1-.1.176-.25.252-.4.327-.626.503-1.326.655-2.027.075-.3.1-.6.176-.925.025-.15.05-.3.075-.476.026-.2.05-.4.05-.6l.077-1.125c.025-.3.025-.626 0-.926 0-.3-.026-.575-.05-.875a5.045 5.045 0 00-.102-.65l-.15-.751c-.051-.25-.127-.475-.177-.7-.05-.226-.177-.4-.252-.626 0-.025-.025-.025-.025-.05-.126-.125-.202-.3-.353-.425a1.118 1.118 0 00-.605-.275c-.302-.025-.58.05-.831.2-.454.275-.882.625-1.285.975-.202.15-.353.35-.504.55-.227.3-.403.65-.53 1.001a6.958 6.958 0 00-.327 1.026c-.151.6-.277 1.2-.302 1.8 0 .326-.026.651-.05.976v.05c0 .175.024.35.024.526 0 .125-.025.25 0 .375.05.275.026.55.126.8v.075c0 .125 0 .25.05.35.026.076.026.15.026.25.025.2.076.4.126.6.05.251.1.526.202.776.126.275.176.55.327.826.05.075.05.175.1.25.102.175.228.325.354.475.05.05.126.1.176.15.151.075.328.1.504.1.202-.025.378-.05.554-.125zm.781-11.456c.202-.15.454-.05.555.1.176.25.302.5.353.8a.122.122 0 01-.177 0c-.176-.15-.378-.3-.529-.5-.076-.1-.151-.15-.227-.225-.05-.075-.05-.125.025-.175zm-.403.55a.468.468 0 01-.302.175c.025-.175.151-.25.302-.175zm-1.41 9.105a2.373 2.373 0 01-.228-.825 8.025 8.025 0 01-.05-.8c0-.3.025-.626.025-.926 0-.375.025-.75.05-1.126.026-.325.051-.675.076-1l.076-.95c.05-.426.126-.851.227-1.277.126-.425.352-.775.63-1.1.176-.2.352-.375.58-.5.024-.025.05-.025.075-.05.15-.075.277-.05.352.1.076.175.152.35.227.5.126.25.202.5.277.75.05.175.076.35.126.5 0 .026.026.076.026.1.075.176.126.376.15.576.026.15.051.325.076.475v.1c0 .175 0 .35.026.526.025.5 0 1-.05 1.5-.051.376-.102.75-.177 1.126a8.371 8.371 0 01-.479 1.726c-.202.5-.454 1-.806 1.4-.05.05-.101.126-.177.176-.075.05-.1.075-.176 0-.126-.1-.227-.225-.353-.325-.05-.05-.1-.125-.151-.176-.126-.1-.252-.3-.353-.5zm7.911 1.676a3.28 3.28 0 00.983-1.05c.327-.526.554-1.126.705-1.701.151-.526.277-1.05.378-1.601.05-.25.076-.5.101-.75.025-.326.05-.626.05-.951V8.638h.026c-.026-.35-.05-.7-.101-1.05-.05-.4-.101-.8-.227-1.176l-.227-.75a1.729 1.729 0 00-.126-.326c-.05-.1-.075-.2-.126-.3a3.933 3.933 0 00-.479-.65c-.15-.15-.302-.3-.503-.35-.378-.125-.731-.15-1.084.05-.201.1-.378.225-.58.35-.15.1-.302.2-.428.325-.176.225-.403.375-.604.575-.303.3-.555.626-.68 1.026-.102.275-.152.525-.228.8-.1.326-.1.676-.15 1.026 0 .075-.026.15 0 .225.024.1.024.225 0 .325 0 .025-.026.075-.026.1-.025.15.025.275 0 .426-.025.25.025.525 0 .775-.025.225.025.45 0 .65v.2c0 .15 0 .3.025.426.025.2 0 .425.076.625v.05c.025.225 0 .45.1.65.051.1.026.226.051.326.025.15.05.275.1.425 0 .05.051.1.051.15.025.125 0 .25.101.35 0 .125.076.2.126.3.126.25.302.526.479.75.05.05.075.1.126.15l.378.451.05.05c.1.075.176.15.277.225.05.05.101.075.177.1.176.075.352.1.554.1.227.05.454-.025.655-.175zm-.378-11.181c.202-.125.252-.125.403.05.101.125.227.225.328.35.05.075.075.15.075.3-.277-.275-.58-.475-.957-.575.05-.075.1-.1.151-.125zm-.428 10.506c-.227-.3-.429-.6-.63-.9-.126-.2-.227-.426-.353-.626-.076-.125-.126-.3-.176-.45a5.773 5.773 0 01-.227-.95c0-.076-.025-.126-.025-.2-.05-.201-.05-.376-.05-.576v-.85c0-.226.025-.45.05-.651.025-.325.075-.675.126-1 .025-.2.075-.4.1-.576.101-.475.202-.975.303-1.45.126-.476.277-.951.479-1.376a.885.885 0 01.1-.226c.026-.075.101-.1.177-.1.15.025.277.075.403.15l.302.226c.05.05.076.1.126.15.076.125.177.225.252.35.126.175.252.375.353.575.176.35.252.726.353 1.126.075.25.1.525.15.775.026.175.026.375.026.55v.1c0 .226.025.476 0 .7-.025.276 0 .551-.05.826-.026.075-.026.176-.026.25a1.42 1.42 0 01-.1.35 2.96 2.96 0 00-.101.501c-.05.15-.025.325-.1.45 0 .025-.026.025-.026.05 0 .125-.05.25-.076.376-.025.1-.05.2-.075.275-.025.1-.076.2-.101.275-.05.275-.176.525-.252.775-.1.325-.227.65-.428.926-.05.075-.126.175-.177.25-.075.075-.1.1-.201.025-.026.025-.076-.025-.126-.1zm37.795 6.728c-.05-.2-.1-.375-.126-.575a65.93 65.93 0 01-.076-.725c-.05-.35-.1-.676-.15-1.026-.051-.35-.177-.7-.278-1.05a.402.402 0 00-.1-.175c-.026-.05-.076-.126-.102-.175-.176-.376-.504-.6-.907-.726-.302-.075-.58-.075-.881-.075-.328 0-.605.125-.832.325-.403.35-.68.8-.857 1.3-.1.301-.201.601-.252.926-.075.476-.176.926-.227 1.401-.075.6-.1 1.226-.1 1.851 0 .6 0 1.2.025 1.801 0 .275.025.525.025.8h-.025c0 .15.025.276.025.426.025.2.05.425.076.625.025.175.05.375.075.55.026.126.026.276.076.4.05.2.126.401.202.626.025.1.075.225.125.325s.101.175.152.25c.05.05.1.125.15.175.152.126.328.2.53.226.504.125.957.05 1.411-.2.655-.376 1.083-.951 1.411-1.626.176-.376.302-.75.403-1.151.05-.15.076-.275.1-.425.077-.35.152-.7.203-1.026.05-.3.05-.575.075-.875a8.09 8.09 0 00-.1-1.901c0-.075-.026-.175-.051-.276zm-3.88-1.475c.075-.35.15-.726.277-1.05.126-.351.277-.676.58-.951a1.47 1.47 0 01.881-.376c.076 0 .151 0 .227.025.076 0 .126.05.151.125l.227.45c.075.15.126.3.176.426.026.05.05.1-.025.15-.1-.025-.176-.1-.252-.15-.277-.175-.58-.3-.932-.225-.252.05-.428.2-.58.375-.201.25-.352.55-.453.875l-.303 1.201c-.05.25-.075.5-.1.75h-.026c0-.074-.025-.15 0-.225.026-.5.026-.95.152-1.4zm-.177 2.626h.025v.1h-.025v-.1zm0 .325c.025 0 .025 0 0 0 .025.075.025.125.025.2h-.025v-.2zm2.016 5.203c-.151.1-.277.225-.428.3a.77.77 0 01-.832-.025.93.93 0 01-.327-.425V28.3c.529.325 1.058.275 1.612.2 0 .05 0 .075-.025.075zm1.058-4.777c-.05.55-.075 1.1-.201 1.625-.101.426-.202.876-.328 1.301-.075.3-.202.6-.277.876-.1.325-.252.4-.605.475h-.1a.815.815 0 01-.68-.325c-.152-.2-.253-.4-.328-.65-.101-.276-.152-.576-.227-.851-.05-.25-.126-.5-.151-.75-.076-.4-.126-.8-.126-1.201v-.625h.025c0 .024.025.075.025.1 0 .25.076.525.126.775.025.1.076.175.1.275.076-.05.127-.125.127-.2l.075-.875.152-1.576c.025-.2.025-.426.075-.626.05-.35.126-.675.202-1.025a4.05 4.05 0 01.327-.926c.05-.1.101-.175.177-.275.126-.15.226-.175.378-.075.15.1.302.2.403.325.176.225.327.45.478.676.127.175.227.35.278.575.1.325.15.65.15.976 0 .375.026.775.026 1.15-.076.3-.076.575-.1.85zM12.89 26.848c-.252-.1-.479-.125-.731.025-.151.1-.252.25-.353.4-.126.2-.252.4-.403.576-.277.375-.63.65-1.008.925-.126.075-.252.15-.378.2-.403.15-.73-.05-.907-.425-.126-.25-.201-.5-.277-.775-.05-.2-.126-.4-.126-.626v-.75c0-.125 0-.15.126-.175.151-.05.302-.125.428-.225.303-.25.605-.526.857-.826l.454-.6c.403-.525.806-1.026 1.083-1.626.1-.2.202-.4.277-.6.101-.25.202-.526.277-.776.05-.175.126-.35.152-.525.025-.3.025-.625.025-.926 0-.3-.05-.6-.076-.875a1.247 1.247 0 00-.227-.6.758.758 0 01-.126-.175c-.1-.175-.277-.276-.453-.376-.378-.175-.781-.15-1.16-.125-.024 0-.075.025-.1.025-.176.05-.353.15-.504.25-.302.2-.529.45-.756.726-.378.45-.63.95-.831 1.476-.076.175-.151.35-.202.55-.075.225-.176.475-.227.725-.05.226-.05.45-.075.65-.025.15-.05.301-.05.451-.026.425-.026.85.025 1.276.025.125.025.275.025.4v3.102c0 .025 0 .05.025.075.076.2.151.4.176.625.026.15.101.3.152.425.05.15.1.3.201.425.252.3.554.5.958.55.126.026.277 0 .428 0h.227c.403 0 .756-.1 1.108-.324.504-.3.933-.676 1.31-1.126.278-.325.505-.675.731-1.025.026-.05.05-.1.076-.126 0-.1-.025-.2-.151-.25zm-4.158-2.876v-.15c-.025-.2-.05-.376-.05-.576v-.425c.025-.45.075-.875.151-1.326 0-.05.025-.075.025-.125.151-.425.328-.875.504-1.3a4.04 4.04 0 01.63-.976c.126-.15.277-.3.454-.4.126-.075.226-.075.327 0 .202.175.378.35.454.6.025.125.05.25.05.375.025.25.05.476.05.726 0 .3.026.6-.05.9-.025.15-.075.275-.126.4-.05.125-.1.25-.126.376-.151.425-.327.85-.58 1.25-.2.35-.428.676-.68.976-.277.325-.529.675-.806 1l-.151.15s-.025 0-.025-.024c0-.025-.026-.05-.026-.1v-.376c-.025-.325-.025-.65-.025-.975zm19.074 3.502c-.05-.025-.1-.025-.126-.025-.176-.025-.327 0-.504.025-.352.075-.705.125-1.033.175v-.05c.177-.05.378-.125.555-.175.252-.075.529-.15.78-.226.076-.025.152-.075.177-.15.05-.075.05-.15-.05-.175-.076-.025-.152-.025-.227-.025-.403 0-.781.05-1.16.15-.68.175-1.335.375-1.99.626-.05.025-.1.025-.176.05 0-.025-.025-.05-.025-.075-.026-.276-.05-.55-.076-.85-.025-.326-.076-.651-.1-1.001l-.076-1.101c0-.075.025-.1.075-.125l.227-.075c.58-.175 1.16-.35 1.713-.525.152-.05.328-.1.48-.15.075-.025.15-.075.176-.175.025-.076.025-.126-.05-.15-.051-.026-.102-.026-.152-.05.076-.076.126-.126.176-.2.05-.076.026-.126-.05-.176a.428.428 0 00-.126-.05.442.442 0 01.126-.1c.1-.125.1-.2-.076-.225-.05-.025-.1-.025-.15-.025-.152 0-.328 0-.48.025-.529.05-1.083.125-1.587.25-.1.025-.227.05-.327.075 0-.025-.026-.025-.026-.05-.025-.425-.075-.825-.075-1.25-.025-.45-.025-.901-.025-1.351 0-.25-.026-.5-.026-.75 0-.076.026-.126.101-.126.126-.025.227-.05.353-.075a2.65 2.65 0 00.428-.1c.403-.15.807-.325 1.21-.475.252-.1.504-.15.756-.225.1-.025.15-.075.176-.15a.423.423 0 000-.25c0-.026-.025-.026-.05-.05-.026-.026-.05-.026-.076-.05.025-.026.025-.05.025-.076.025-.075.025-.125-.075-.15-.076-.025-.152-.025-.202-.025l-.453.075c-.177.05-.328.1-.48.15-.428.126-.83.25-1.26.376-.175.05-.327.1-.503.175 0-.05-.025-.1-.025-.15-.025-.125-.025-.226-.05-.35-.026-.15-.152-.2-.278-.126-.025.025-.05.05-.1.05l-.051-.05c-.025-.05-.025-.1-.05-.125-.026-.075-.076-.1-.126-.1-.025 0-.076.05-.101.075-.025.075-.05.15-.076.2-.075 0-.126-.025-.201-.025-.101 0-.177.075-.177.15-.025.15-.025.3-.025.45 0 .1-.025.176-.025.276 0 .2-.1.325-.302.375a.452.452 0 00-.177.125c-.075.1-.05.15.076.175.075 0 .176 0 .252.025 0 .05 0 .1.025.125.075.075.075.175.075.276.05.525.076 1.05.101 1.55.05.6.076 1.201.126 1.801a.19.19 0 01-.05.1c-.1.125-.126.3-.277.426v.025c-.025.075 0 .125.075.15.05.025.126.025.202.025.025 0 .076 0 .1.025 0 .1.026.2-.024.3-.026.05-.026.1.025.15.05.05.05.125.075.175.025.425.05.85.076 1.25.05.576.076 1.151.126 1.752.025.25.05.475.05.725-.1.075-.227.15-.201.3.075.025.15.025.227.05l-.076.15c-.025.05-.025.1.025.125.076.026.1.076.1.15 0 .05.026.1.026.15 0 .076.05.15.126.176.1.05.151.1.176.225 0 .05.05.1.101.1.101.025.227.025.328.05.1 0 .15-.025.176-.1.025-.075.025-.175.025-.25 0-.175 0-.376.025-.55.101-.026.177-.076.278-.1.604-.2 1.21-.426 1.789-.6a19.104 19.104 0 011.713-.451.367.367 0 00.227-.15c.025-.15 0-.2-.076-.225zM.19 15.842c.177.025.353 0 .53 0h.176c.1.025.126.075.075.175-.025.025-.05.05-.05.075-.126.25-.076.3.151.326.151.024.303.024.454 0a6.47 6.47 0 00.957-.15 42.946 42.946 0 001.915-.426c.378-.075.731-.2 1.134-.225.202 0 .328-.1.428-.25.101-.125.05-.25-.1-.3a1.952 1.952 0 00-.378-.05h-.277c-.202 0-.378-.025-.58-.05-.025 0-.05 0-.076-.025.05-.05.101-.075.152-.075.176-.025.277-.15.352-.276.076-.125.05-.225-.1-.275a1.055 1.055 0 00-.48-.05l-.377.075c-.126.025-.151.025-.176-.1l-.076-.525v-.8c0-.526.025-1.051.025-1.576 0-.15 0-.325.025-.476v-.95c0-.475.026-.926.05-1.4 0-.351.026-.701.051-1.051l.076-1.101c0-.175.025-.375.05-.55 0-.175.025-.35.025-.5 0-.35.025-.676.025-1.026 0-.125-.025-.25-.025-.35 0-.075-.05-.1-.126-.1-.1 0-.176 0-.252.075-.1-.025-.176-.025-.277-.05-.201-.025-.353.05-.428.25-.126.275-.151.575-.202.875-.025.2-.025.375-.075.576-.026.1-.05.2-.101.3-.252.475-.504.975-.832 1.425l-.604.75c-.177.201-.378.376-.555.576-.075.075-.15.125-.201.225-.101.125-.05.2.1.25.177.05.353.025.48-.1.05-.05.1-.075.176-.125.025-.025.05-.025.075-.05l.025.025c-.1.1-.15.15-.201.225-.076.1-.126.2-.202.3-.05.076-.025.126.076.15.075.026.151 0 .227-.05.327-.25.63-.525.856-.85.152-.25.303-.5.454-.725.025-.025.025-.1.075-.1v.7c-.025.475-.025.926-.05 1.4-.025.401-.025.801-.05 1.202l-.076 1.325c-.025.426-.05.85-.05 1.276-.026.325-.026.65 0 .975 0 .1-.026.176-.126.2-.101.05-.202.1-.328.126-.529.125-1.033.225-1.562.35a.52.52 0 00-.353.25c-.075.175-.05.225.151.25zm2.948-1.35c.05.024.101.05.126.074-.05.05-.075.075-.126.05-.025-.024 0-.075 0-.125zm50.696-9.806v.075c0 .1.026.2.026.3l.075.8c.026.25.05.476.05.726.026.425.076.85.102 1.276.025.3.025.6.05.9 0 .25.025.5.05.75.026.326.026.676.05 1.001.026.275.051.576.051.85.025.476 0 .951.05 1.401.026.35.026.676 0 1.026 0 .3 0 .6-.025.9 0 .1 0 .226.026.326 0 .125.025.15.15.175a.703.703 0 00.227.025c.126.025.227-.025.278-.125.025-.05.05-.1.05-.15 0-.075-.025-.125-.025-.2 0-.4-.025-.8-.025-1.201 0-.325 0-.65.025-.95 0-.176.025-.35 0-.55 0-.601-.025-1.227-.05-1.827 0-.025 0-.075.025-.1.78-.05 1.562-.075 2.343-.125.781-.05 1.537-.125 2.318-.175 0 .025 0 .05.025.075v1c0 .25 0 .5.025.726 0 .275.026.525.026.8v.676c0 .15.025.325.025.475v.65c0 .075.025.125 0 .2-.025.275.025.55.075.826 0 .075.05.15.076.2.025.025.05.075.076.075.126.025.252.05.403.075.075 0 .126-.025.176-.1.1-.125.1-.25.076-.375-.05-.225-.101-.426-.076-.65v-1.201c0-.1-.025-.175-.025-.275V11.44c0-.476-.025-.95-.025-1.426 0-.15-.026-.325.126-.425.05-.1.05-.125-.05-.175-.076-.025-.076-.075-.076-.15V7.888c0-.475-.026-.926-.026-1.401 0-.35-.025-.675-.025-1.026v-.7c0-.225.026-.45.026-.675 0-.25 0-.526-.026-.776 0-.125-.025-.25-.05-.375 0-.05-.025-.125-.1-.125-.303-.075-.53.025-.58.35-.026.175-.026.35-.05.525-.026.3-.026.576-.051.876-.05.45-.05.925-.025 1.376.025.4.025.775.05 1.15v2.227c-1.562.1-3.124.2-4.712.275v-.25l-.075-1.151c-.026-.525-.026-1.05-.05-1.576-.026-.3-.051-.6-.051-.9-.025-.3-.05-.626-.076-.926-.025-.175-.05-.325-.05-.5-.025-.3-.076-.576-.126-.876 0-.05-.025-.1-.076-.1a.512.512 0 00-.428 0c-.151.075-.252.2-.252.375 0 .076-.025.15 0 .226.025.275.025.525.075.775zM19.139 8.938c.025.326.075.65.126.95.025.176.05.326.075.501 0 .1.025.2.025.3.026.2.026.4.05.6.026.25.026.501.102.751.025.125.05.25.05.375-.025.275.025.55.05.85.025.176.076.326.101.501.05.325.076.625.126.95.025.126 0 .126-.1.2-.127.076-.253.126-.379.226-.05.05-.1.1-.15.175-.051.075-.026.15.075.175.025 0 .05 0 .075.025.252.05.504-.025.731-.15.605-.275 1.21-.6 1.789-.976a9.855 9.855 0 001.033-.75c.252-.2.504-.425.73-.675.278-.3.53-.626.807-.926.302-.375.504-.8.655-1.25.076-.2.126-.4.202-.6.1-.226.15-.476.15-.726 0-.45-.15-.826-.427-1.176a1.006 1.006 0 00-.252-.2 1.633 1.633 0 00-1.109-.35c-.353.025-.68.1-1.008.225-.176.075-.328.15-.479.225a4.72 4.72 0 00-1.486 1.05 2.03 2.03 0 00-.403.626c-.05.125-.026.175.1.2.076 0 .177.025.277.025.05 0 .127-.025.152-.05.126-.1.277-.225.378-.35.302-.325.63-.6 1.008-.826.176-.1.377-.2.554-.3.227-.125.479-.2.73-.25.076 0 .152-.025.227 0 .177.05.328.175.454.325.126.15.176.3.252.475.05.076.076.176.1.25.026.2.026.426-.024.626-.101.35-.227.675-.328 1.025-.076.25-.177.5-.353.7-.252.326-.504.626-.781.951a4.253 4.253 0 01-.781.726c-.353.25-.706.5-1.084.75-.125.075-.252.15-.403.25-.025-.05-.025-.075-.05-.1l-.076-.6a.997.997 0 00-.075-.375c-.025-.1-.05-.225-.05-.35-.026-.25 0-.476-.026-.726-.025-.275-.075-.55-.1-.8-.026-.2-.051-.375-.076-.576-.025-.425-.05-.85-.126-1.275-.05-.275-.076-.576-.101-.85-.025-.376-.05-.751-.05-1.126 0-.2-.05-.426-.05-.626 0-.375 0-.725-.026-1.1v-.075c.025 0 .025-.025.05-.025.328-.125.655-.25.983-.35.428-.15.857-.3 1.285-.426.428-.125.882-.225 1.31-.325.68-.15 1.31-.425 1.915-.725a.304.304 0 00.126-.125c.101-.126.076-.226-.1-.25a.557.557 0 00-.353.024c-.252.075-.504.176-.756.25-.353.1-.706.226-1.058.3-.429.126-.882.2-1.31.326-.757.2-1.487.475-2.218.75-.202.075-.378.175-.504.35-.05.05-.1.126-.126.2-.025.15-.05.276-.05.426-.026.325-.05.65-.026.975 0 .45.05.926.05 1.376-.05.075-.075.225-.05.375zm28.295 8.63c0-.025 0-.075-.025-.1-.075-.05-.126-.125-.201-.15-.303-.1-.58-.125-.882-.025-.328.1-.655.2-.983.25-.428.075-.831.2-1.285.25-.605.075-1.184.2-1.764.35a.847.847 0 00-.554.5c-.1.25-.05.326.227.401h.025c.252.05.53.05.781 0 .353-.05.706-.15 1.058-.225.05 0 .076-.025.152-.025v5.928c0 .1-.026.175 0 .275 0 .225.025.476.025.7v.701c0 .3-.025.6-.025.875 0 .5 0 .976.025 1.476v.45c0 .126.05.2.176.226.328.075.655.1.932-.175.126-.125.202-.25.202-.426V28.3c0-.2-.025-.425 0-.625v-.025c0-.2-.025-.376-.025-.576v-.45c0-.1 0-.225-.025-.325v-2.126c0-.125.025-.25 0-.35 0-.2-.026-.426-.026-.626 0-.325 0-.625.026-.95v-3.402c0-.225 0-.25.226-.3.48-.075.933-.2 1.411-.326.303-.075.429-.3.555-.55-.026-.05-.026-.075-.026-.1zM73.64 1.46c.2.174.428.224.68.224h.73c.403 0 .781-.025 1.184-.025v.025c.429 0 .857-.025 1.31-.025.278 0 .555-.025.832-.05.252-.025.429-.15.58-.35.05-.05.075-.125.126-.15.075-.05.1-.125.15-.175.051-.1.076-.2.152-.275.1-.125.1-.25-.025-.325a1.04 1.04 0 00-.328-.175c-.478-.15-.982-.176-1.486-.15-.177 0-.353.024-.53.024-.705 0-1.41 0-2.116.05-.201 0-.403.026-.605.05a.674.674 0 00-.352.176c-.152.175-.303.35-.404.55-.176.225-.126.4.101.6z" fill="#000"/></svg>