<svg width="82" height="28" viewBox="0 0 82 28" fill="none" xmlns="http://www.w3.org/2000/svg"><path fill-rule="evenodd" clip-rule="evenodd" d="M37.264 4.738l2.617 6.455 2.147-6.455h1.022l-2.71 7.721c-.112.31-.229.575-.352.799a2.285 2.285 0 01-.404.544c-.146.14-.306.243-.48.31a1.616 1.616 0 01-.578.099c-.188 0-.358-.025-.511-.075a1.57 1.57 0 01-.407-.196v-.995c.119.13.253.222.404.28.152.056.337.085.556.085.072 0 .155-.02.247-.058a.96.96 0 00.263-.168c.084-.074.157-.164.22-.269a.862.862 0 00.114-.356l-3.195-7.721h1.047zm8.927.958v2.307h1.233c.202 0 .386-.025.55-.077a1.14 1.14 0 00.421-.229c.116-.101.206-.225.27-.37a1.366 1.366 0 00.033-.9.946.946 0 00-.213-.366 1.091 1.091 0 00-.396-.264 1.633 1.633 0 00-.617-.1h-1.28zM45.1 4.738h2.372c.413 0 .772.055 1.076.167.304.112.554.265.752.459.197.193.343.42.44.682.095.26.143.539.143.833 0 .292-.05.564-.152.818a1.73 1.73 0 01-.467.661c-.21.186-.475.334-.795.442-.32.109-.702.163-1.143.163h-1.135v3.218H45.1V4.738zm7.964 3.385c0 .43.075.83.224 1.199.15.368.356.687.62.957.264.27.577.481.94.632.362.151.757.227 1.183.227.426 0 .821-.076 1.185-.227.364-.15.678-.362.943-.632.264-.27.47-.589.62-.957a3.17 3.17 0 00.223-1.199 3.2 3.2 0 00-.223-1.21 2.902 2.902 0 00-.62-.954 2.831 2.831 0 00-.943-.63 3.063 3.063 0 00-1.185-.226c-.426 0-.82.076-1.183.227a2.813 2.813 0 00-1.56 1.583c-.15.369-.224.772-.224 1.21zm-1.13 0c0-.547.097-1.067.292-1.558.194-.49.47-.922.827-1.295a3.908 3.908 0 011.292-.884 4.22 4.22 0 011.685-.325c.63 0 1.199.108 1.705.325.506.218.937.511 1.292.882.355.37.628.8.82 1.292a4.27 4.27 0 01.286 1.563c0 .533-.094 1.044-.281 1.533a3.9 3.9 0 01-.811 1.295 3.903 3.903 0 01-1.298.895c-.512.223-1.09.335-1.734.335-.416 0-.805-.05-1.17-.15a3.795 3.795 0 01-1.803-1.07 3.974 3.974 0 01-.6-.829c-.164-.3-.289-.62-.374-.96a4.281 4.281 0 01-.129-1.049zm10.933-3.385h1.203v3.026c.229 0 .432-.017.61-.05a1.33 1.33 0 00.488-.195 1.56 1.56 0 00.406-.402c.125-.173.249-.397.374-.674a4.71 4.71 0 01.46-.824c.158-.218.333-.393.523-.524a1.83 1.83 0 01.635-.278c.233-.053.498-.08.794-.08h.187v.96a2.75 2.75 0 00-.668.066 1.084 1.084 0 00-.433.213 1.254 1.254 0 00-.298.379 6.07 6.07 0 00-.256.556c-.052.132-.12.265-.204.4a2.92 2.92 0 01-.28.378 2.6 2.6 0 01-.325.315 1.36 1.36 0 01-.346.207c.209.086.388.173.538.261.15.09.291.197.422.323.13.126.26.278.39.455.131.178.28.398.45.661l1.48 2.27h-1.373l-1.305-2.009a8.397 8.397 0 00-.554-.772 2.462 2.462 0 00-.496-.47 1.536 1.536 0 00-.539-.234 3.18 3.18 0 00-.68-.064v3.549h-1.203V4.738zm13.31 1.952l-4.611 5.49h-.5V4.739h1.04v5.591l4.601-5.591h.51v7.348h-1.04V6.69zm-35.883 8.873l3.44 7.443h-1.129l-2.712-6.002-2.548 6.002h-1.128l3.302-7.443h.775zm9.477 0v.959H46.28v2.249h3.374v.964H46.28v2.312h3.603v.96H45.1v-7.444h4.671zm6.946 0v.959H53.14v6.484h-1.208v-7.443h4.784zm7.404 0v.959H60.63v2.249h3.373v.964H60.63v2.312h3.604v.96H59.45v-7.444h4.671zm8.313 0v7.443h-1.04v-3.24h-4.07v3.24h-1.04v-7.443h1.04v3.245h4.07v-3.245h1.04zm5.729 1.552l1.997 4.938h-3.848l1.85-4.938zM82 23.006v-.953h-.694l-2.731-6.49h-.796l-2.602 6.49h-.694v.953H82zM6.833 2.368c0 1.308-1.07 2.369-2.391 2.369S2.05 3.677 2.05 2.368C2.05 1.06 3.12 0 4.442 0c1.32 0 2.391 1.06 2.391 2.368zm21.184 23.007c0 1.308-1.071 2.369-2.392 2.369-1.32 0-2.392-1.06-2.392-2.369 0-1.308 1.071-2.368 2.392-2.368s2.392 1.06 2.392 2.368zM15.533 5.64L6.824 23.82C5.35 26.631 2.786 27.742.727 27.742H0L13.617 0l1.958 4.13a1.843 1.843 0 01-.042 1.51zm9.567 0l-8.71 18.18c-1.475 2.812-4.038 3.923-6.097 3.923h-.727L23.184 0l1.957 4.13a1.841 1.841 0 01-.041 1.51z" fill="#000"/></svg>