<svg width="59" height="40" viewBox="0 0 59 40" fill="none" xmlns="http://www.w3.org/2000/svg"><path d="M12.835 31.266c1.677 1.668 7.925 6.045 17.067 6.045 9.562 0 15.63-4.16 17.646-6.143-8.044.608-19.482.55-17.646.55 1.837.019-7.665.039-17.067-.452zM30.501 2.669c-3.992 0-8.943.57-14.113 3.513.54.158 2.236.903 2.555 3.357.06 0 6.248-.098 7.626-.118.2-1.374.16-2.08.718-2.866.839-1.216 3.194-.922 3.194-.922 1.018.02 2.056.412 2.675.942.619.53 1.258 1.315 1.457 2.807 3.474.078 12.197.333 13.953.451-2.335-2.63-8.723-7.164-18.065-7.164zm-.3-1.747c8.724 0 16.39 3.612 20.7 9.029l1.199.059C47.728 4.043 39.544 0 30.202 0 20.92 0 12.795 3.965 8.384 9.872c.439-.02.838-.02 1.198-.039 4.331-5.338 11.956-8.91 20.62-8.91zm0 38.136c-8.124 0-15.33-3.12-19.761-7.93-.44-.02-.878-.058-1.298-.078C13.674 36.428 21.44 40 30.222 40c8.843 0 16.628-3.592 21.14-9.048-.42.02-.84.059-1.299.078-4.43 4.848-11.677 8.028-19.861 8.028z" fill="#009639"/><path d="M16.328 10.442c-1.117 6.673-1.936 12.62-2.515 18.194-.479-.02-.938-.059-1.397-.079-.42-.02-.798-.235-1.078-.588-.28-.373-.4-.825-.36-1.335.6-5.555 1.478-11.423 2.656-17.92.479-.02 1.497-.078 1.497-.078.38 0 .698.157.918.47.28.335.36.806.28 1.336zm42.658 4.357c-.12.863-.24 1.727-.379 2.57-.679-.019-1.377-.019-2.056-.019-.4 0-.739-.353-.759-.785 0-.157.1-.47.1-.47a.332.332 0 00-.04-.236.247.247 0 00-.2-.098s-1.756-.04-2.295-.06c-.14 0-.24.099-.26.236-.04.255-.399 2.375-.438 2.67-.02.078.02.157.06.215.04.06.12.079.179.079h3.853c.419 0 .778.177 1.038.47.24.295.359.57.279 1.198-.32 2.65-.599 4.024-.998 5.476-.24.942-1.158 1.806-1.956 1.904-2.615.294-5.65.451-5.65.451-.419.02-.778-.117-.997-.431-.24-.315-.34-.766-.24-1.257.18-1.02.36-2.021.519-3.022.719-.02 1.437-.04 2.156-.079.38 0 .679.334.679.746 0 .157-.08.53-.08.53 0 .078.02.157.06.216.04.059.12.078.2.078l2.295-.117c.12 0 .22-.099.24-.216.08-.452.359-1.904.478-2.591a.22.22 0 00-.06-.216c-.06-.059-.12-.098-.2-.098-.678.02-3.772.04-3.772.04-.858 0-1.477-.61-1.397-1.512.16-1.531.878-5.927.918-6.241.12-.923.839-1.61 1.697-1.61 2.495.04 4.491.196 5.51.334.419.059.937.353 1.157.667.28.373.42.726.36 1.178zm-12.715 12.05c-.18.962-.998 1.767-1.837 1.826a261.94 261.94 0 01-5.609.236h-.04c-.399 0-.738-.177-.978-.51-.26-.354-.36-.825-.28-1.335.879-5.712 1.558-10.442 2.097-14.878.479.02.938.02 1.417.04.419.02.798.215 1.058.55.28.352.4.843.34 1.354A447.5 447.5 0 0140.84 25.24c-.02.079 0 .157.06.197.04.058.12.078.18.078l2.235-.059c.12 0 .22-.098.24-.216a302.917 302.917 0 001.637-11.187c.12-.962.838-1.668 1.677-1.668l1.577.058c-.56 4.593-1.278 9.284-2.176 14.407zM4.63 15.762c-.12 0-.22.078-.24.196-.14.589-1.237 7.968-1.277 8.89 0 .138.1.256.24.276.319.02 2.095.117 2.555.137.14 0 .24-.079.26-.196.119-.727.438-2.454.498-2.807.02-.078 0-.157-.06-.196a.24.24 0 00-.18-.098l-.459-.02a.62.62 0 01-.479-.255.859.859 0 01-.2-.687c.1-.687.2-1.315.3-2.002h3.494c.319 0 .558.079.658.216.12.137.16.373.1.687-.04.392-.619 5.201-.918 6.948-.18 1.099-.659 1.55-1.637 1.57h-.08c-1.198 0-4.012-.236-5.59-.49-.478-.08-.957-.197-1.237-.53C.1 27.065 0 26.456 0 26.005c0-1.256.679-6.81 1.497-11.286.18-.922 1.318-1.747 2.176-1.825a62.98 62.98 0 015.709-.294c.32 0 .739.078 1.038.451.26.334.36.805.26 1.315-.16 1.001-.34 2.002-.48 3.003l-2.096-.02c-.399 0-.738-.353-.738-.785 0-.059.12-.805.12-.805H4.63zm18.385-.334c-.799.02-1.577.02-2.376.02-.12 0-.22.078-.24.196-.12.647-1.237 8.734-1.317 9.715 0 .059.02.137.06.177.04.059.12.078.18.078.778.02 1.577.04 2.355.04.12 0 .24-.099.24-.216.06-.648 1.158-8.754 1.317-9.755.02-.079 0-.138-.06-.196a.3.3 0 00-.16-.06zm3.453-1.394a913.95 913.95 0 00-1.797 13.21c-.12.98-.858 1.766-1.676 1.766h-.04c-1.817-.04-3.693-.118-5.59-.197-.419-.02-.798-.235-1.078-.588a1.835 1.835 0 01-.339-1.335c.46-4.023 1.038-8.224 1.737-12.856.16-1 .958-1.805 1.836-1.845 1.877-.039 3.773-.059 5.65-.098.399 0 .758.197 1.018.51.239.393.359.903.279 1.433zm10.84.04c-.5 3.886-1.099 8.066-1.857 13.13-.16 1.001-.938 1.806-1.777 1.825-1.816.02-3.713.04-5.59.02-.418 0-.798-.196-1.057-.55-.26-.373-.38-.863-.32-1.393.56-4.26 2.296-16.84 2.576-18.842H30.7c.399 0 .778.196 1.018.55.28.372.38.863.32 1.413 0 0-.16 1.138-.22 1.59 0 .058.02.137.06.196.04.059.12.078.18.078 1.297.02 2.594.02 3.892.04.419 0 .778.196 1.038.549.28.373.379.864.32 1.393zm-3.394 1.334h-2.376c-.12 0-.22.098-.24.216l-1.357 9.853c0 .078.02.137.06.196.04.059.12.079.18.079.778 0 1.577 0 2.355-.02.12 0 .22-.098.24-.216.08-.57 1.257-8.871 1.377-9.833 0-.079 0-.157-.06-.196a.255.255 0 00-.18-.079z" fill="#F9792D"/></svg>