<svg width="98" height="32" viewBox="0 0 98 32" fill="none" xmlns="http://www.w3.org/2000/svg"><path d="M19.093 28.833c7.493 0 13.567-6.31 13.567-14.093C32.66 6.956 26.587.646 19.093.646S5.526 6.956 5.526 14.74 11.6 28.833 19.093 28.833z" fill="#FEFEFE"/><path d="M23.823 31.489c6.856 0 12.414-5.687 12.414-12.701 0-7.015-5.558-12.7-12.414-12.7-6.855 0-12.413 5.685-12.413 12.7 0 7.014 5.558 12.7 12.413 12.7z" fill="#FEFEFE"/><path d="M31.989 28.35c2.307-2.53 3.076-5.486 3.015-8.724a18.081 18.081 0 01-.57 3.2c-.697 2.412-1.896 4.502-3.924 6.048a9.268 9.268 0 01-6.687 1.886c-3.104-.289-5.694-1.7-7.917-3.8-3.243-3.066-5.127-6.856-5.809-11.244-.451-2.939-.226-5.814.956-8.56 1.164-2.717 3.043-4.744 5.864-5.781a9.569 9.569 0 014.358-.506h.359a3.247 3.247 0 00-1.09-.238c-2.602-.306-5.027.182-7.217 1.643-2.19 1.462-3.589 3.578-4.417 6.06a15.64 15.64 0 00-.62 6.879 19.545 19.545 0 005.22 11.195c2.148 2.3 4.714 3.951 7.819 4.684 1.054.247 2.138.345 3.22.292.148-.017.297-.002.438.043a8.808 8.808 0 01-1.771.225c-2.96.18-5.93-.066-8.82-.73-2.897-.673-5.601-1.774-7.99-3.579-2.82-2.136-4.654-4.937-5.667-8.3a16.56 16.56 0 01-.72-5.686c.156-2.88 1.064-5.525 2.905-7.791A13.7 13.7 0 019.54 1.15 24.363 24.363 0 0115.263.069a19.41 19.41 0 015.776.378c.826.177 1.64.4 2.44.67a14.401 14.401 0 015.538 3.434.392.392 0 00.35.148c.077-.005.155-.005.232 0H98l-.88 1.462c-2.589 4.314-5.18 8.627-7.773 12.939-1.794 2.98-3.59 5.956-5.383 8.944a.44.44 0 01-.46.22H47.743c-4.687 0-9.374-.006-14.062-.016-.566-.005-1.131.03-1.692.102zM14.39 6.133c.054.013.075 0 .072-.064a.468.468 0 00.282-.255c.105-.023.16-.115.233-.18a6.899 6.899 0 014.64-1.773 9.01 9.01 0 015.023 1.59c2.525 1.648 4.277 3.943 5.453 6.682 1.338 3.113 1.795 6.333.982 9.668-.42 1.694-1.169 3.23-2.456 4.436-2.14 2.009-4.65 2.428-7.417 1.582-.148-.044-.292-.148-.484-.08l.102.052c.174.074.346.156.513.222 2.14.82 4.281.925 6.389-.08 2.017-.957 3.312-2.593 4.145-4.599 1.026-2.474 1.185-5.047.736-7.666-.69-3.99-2.492-7.378-5.655-9.967-2.164-1.768-4.615-2.81-7.494-2.494a7.077 7.077 0 00-4.761 2.556.623.623 0 00-.236.301l-.072.061-.02.023v.018l.025-.033zm7.935 6.517l-.064-.054c.151-2.208.42-4.41.533-6.621l-.095-.016-1.538 6.588h-.056c-.609-2.516-1.219-5.029-1.83-7.538l-.103.02c.275 2.344.548 4.688.82 7.03l-.108.02-3.37-6.115a.294.294 0 00-.098-.079h-.034a.11.11 0 00-.018.02l2.9 7.197-.072.02-5.476-4.837-.049.05 4.723 5.523-.057.064-5.686-2.139-.033.085 5.996 3.541-6.153 1.056v.046l6.1.276-4.667 3.636.036.075 5.479-2.61c-.951 2.155-1.869 4.217-2.784 6.276l.09.054 3.36-4.996.07.03c-.209 2.355-.416 4.712-.62 7.07l.092.017c.538-2.33 1.079-4.66 1.64-7.081l1.862 7.646a5.644 5.644 0 00-.082-1.572c-.2-1.742-.405-3.488-.605-5.23 0-.08-.128-.185-.018-.236.11-.05.156.092.2.169.39.7.769 1.4 1.161 2.1l2.184 3.961.088-.035-2.892-7.194.08-.054 5.127 4.506.076-.08-4.412-5.162.072-.084 5.4 2.019.048-.097-5.773-3.42 5.778-1.022v-.084l-5.73-.281 4.584-3.578-.038-.061-5.384 2.555c.946-2.138 1.85-4.185 2.758-6.232l-.076-.041-.729 1.068-2.607 3.83zm17.318 3.066c1.749-.069 3.469.09 5.181-.1 1.452-.16 2.428-1.022 2.692-2.374a1.292 1.292 0 00-.748-1.533 3.998 3.998 0 00-.257-.107c.02-.097.085-.097.134-.118a2.378 2.378 0 001.374-1.459c.374-1.122-.17-2.006-1.351-2.044-1.582-.059-3.166-.023-4.75-.039-.188 0-.221.108-.257.238l-2.018 7.536zm22.487 1.26h-2.308c-.166 0-.256.03-.297.215a969.376 969.376 0 01-1.972 7.321c-.056.212 0 .256.216.256a39.388 39.388 0 011.907 0c.21 0 .287-.07.336-.256.223-.871.464-1.735.69-2.604.049-.194.115-.296.348-.291.234.005.277.094.32.283.209.874.437 1.743.642 2.62.044.186.105.255.302.255.826 0 1.651-.012 2.477 0 .272 0 .256-.084.182-.286-.344-.984-.67-1.973-1.026-2.954-.077-.215-.028-.273.172-.343a2.88 2.88 0 001.943-2.11c.295-1.178-.256-1.922-1.46-2.045-.873-.09-1.742-.035-2.472-.061zm17.433-1.278c-.036-.112-.061-.207-.092-.296-.495-1.436-.985-2.875-1.487-4.309a.287.287 0 01.11-.386c.433-.33.854-.68 1.282-1.022l2.115-1.712a.712.712 0 00-.13-.04h-2.91a.493.493 0 00-.344.173l-2.702 2.392c-.085.074-.147.197-.316.192.016-.062.024-.113.039-.164.205-.767.408-1.533.626-2.3.058-.212.033-.291-.213-.284-.603.016-1.205.02-1.808 0-.274-.012-.376.072-.449.338-.45 1.74-.925 3.47-1.391 5.205-.198.736-.388 1.472-.59 2.234h2.18c.22 0 .28-.09.327-.256.118-.473.257-.943.374-1.416a.474.474 0 01.15-.286c.486-.386.963-.782 1.473-1.196.239.976.467 1.922.7 2.862.033.136.013.307.256.302.913-.036 1.842-.028 2.79-.028l.01-.003zm-10.537 7.283c.113-.421.234-.815.318-1.214.046-.22.139-.28.357-.278h3.212c.192 0 .277-.051.318-.24.087-.378.187-.767.302-1.125.072-.224.023-.28-.21-.278H70.78c-.29 0-.729.092-.833-.049-.149-.204.115-.55.154-.84.033-.256.15-.317.397-.315h3.445c.131 0 .272.036.319-.156.125-.51.256-1.002.402-1.533h-6.29c-.17 0-.206.09-.237.207a832.901 832.901 0 01-1.972 7.372c-.049.177-.04.233.161.233h6.154c.117 0 .213 0 .256-.15.133-.537.282-1.071.433-1.636l-4.143.002zm6.41-.958c-.31 0-.626.015-.936 0-.21 0-.282.082-.285.256a7.54 7.54 0 000 .902 1.594 1.594 0 001.305 1.533 6.139 6.139 0 002.52.123c1.518-.228 2.67-.971 3.202-2.469.383-1.07 0-1.878-1.046-2.32a6.96 6.96 0 00-.784-.276c-.482-.138-.972-.243-1.446-.399-.38-.123-.451-.399-.2-.69.34-.401.797-.411 1.259-.307.392.09.512.407.512.767 0 .15.046.192.19.19h1.908c.125 0 .203-.019.218-.172.122-1.176-.21-1.935-1.398-2.193a6.222 6.222 0 00-2.228-.05c-1.207.176-2.204.694-2.756 1.85-.484 1.022-.184 1.852.818 2.36.26.128.528.234.805.318.466.104.923.242 1.37.411a.597.597 0 01.255.963 1.446 1.446 0 01-1.538.473c-.443-.133-.62-.424-.615-1.08 0-.154-.033-.195-.177-.19-.32.005-.633.003-.946 0h-.008zm-20.903-6.322h1.303c.41 0 .843.115 1.153-.044.31-.158.421-.651.626-.991a.995.995 0 00.067-.115.197.197 0 01.207-.128h2.377c.143 0 .192.051.192.194 0 .289.028.578.02.867 0 .178.055.225.229.222.703 0 1.405-.013 2.107 0 .195 0 .223-.072.203-.233-.046-.363-.09-.728-.129-1.09-.223-2.066-.45-4.13-.658-6.198-.026-.235-.116-.255-.308-.255-.702 0-1.405.012-2.108 0a.438.438 0 00-.425.242c-.8 1.255-1.61 2.505-2.418 3.754-.807 1.25-1.6 2.48-2.438 3.775zm15.934-5.009h.903c.15 0 .205-.04.23-.2a2.237 2.237 0 00-1.82-2.603 4.825 4.825 0 00-.662-.085c-1.63-.09-3.076.335-4.176 1.6a5.837 5.837 0 00-1.425 3.92 2.349 2.349 0 00.553 1.61c.38.45.914.741 1.498.818a6.714 6.714 0 001.6.071c1.991-.127 3.291-1.392 3.899-3.104.056-.164.018-.213-.156-.21-.513 0-1.05 0-1.572-.015a.475.475 0 00-.513.304c-.274.51-.623.948-1.213 1.13-1.025.316-1.72-.151-1.632-1.14.051-.733.26-1.446.612-2.09a2.024 2.024 0 011.39-1.059c.592-.125 1.207.082 1.282.547.094.55.4.544.8.511.133-.015.269-.005.402-.005zm-11.43 6.284c-.707 0-1.34.04-1.968 0a1.285 1.285 0 00-1.233.567c-.544.7-1.157 1.347-1.759 2.045-.256-.805-.513-1.57-.77-2.341a.3.3 0 00-.343-.256 41.34 41.34 0 01-2.11 0c-.302 0-.323.067-.215.328.538 1.303 1.059 2.611 1.59 3.917a.82.82 0 01.038.575c-.256.897-.482 1.789-.733 2.698-.064.236 0 .287.225.282a44.265 44.265 0 011.908 0c.202 0 .256-.08.31-.256.241-.922.495-1.842.738-2.765a.85.85 0 01.216-.404c.765-.807 1.53-1.618 2.292-2.433l1.815-1.957zm-8.593 1.955c-.269-.639-.513-1.242-.769-1.843-.051-.122-.149-.112-.256-.112h-6.294c-.146 0-.22.04-.257.187-.128.51-.256 1.009-.402 1.51-.056.202-.02.27.208.255.612-.015 1.228 0 1.84 0 .285 0 .331.057.257.335-.475 1.717-.936 3.447-1.398 5.167-.069.256-.064.355.257.343.602-.02 1.205-.018 1.794 0 .236 0 .323-.07.382-.291.46-1.748.941-3.491 1.395-5.242.067-.255.177-.32.428-.317.923.016 1.846.008 2.815.008zm.47-5.167a.408.408 0 01.025-.256c.472-1.745.933-3.493 1.418-5.233.084-.31.023-.374-.285-.36-.58.022-1.161.022-1.74 0-.27-.014-.362.091-.424.329-.461 1.748-.935 3.493-1.402 5.241-.195.726-.384 1.452-.584 2.206h.369c1.474 0 2.95-.052 4.42.023.756.035 1.233-.164 1.538-.859.164-.378.466-.688.651-1.101l-3.987.01zm-22.39 9.619a.09.09 0 00-.08-.09c-.038 0-.066.015-.045.049a.447.447 0 00.095.09l.03-.05zM14.297 6.325v-.016h-.016l.015.016z" fill="#242021"/><path d="M22.326 12.65l2.607-3.834.729-1.068.076.041a3051.73 3051.73 0 00-2.758 6.233l5.384-2.556.038.062-4.584 3.577 5.73.282v.084l-5.778 1.022 5.773 3.42-.049.096-5.399-2.016-.072.085 4.407 5.162-.076.079-5.128-4.505-.08.053 2.892 7.184-.087.035-2.184-3.96c-.387-.7-.77-1.401-1.161-2.101-.044-.077-.072-.23-.2-.169s0 .156.018.235c.2 1.743.405 3.488.605 5.231.1.518.128 1.047.082 1.572l-1.856-7.646c-.562 2.42-1.103 4.75-1.641 7.081l-.093-.018c.209-2.352.416-4.705.62-7.058l-.068-.03-3.361 4.995-.09-.053c.915-2.06 1.833-4.122 2.784-6.277l-5.479 2.61-.035-.075 4.673-3.636-6.099-.276v-.046l6.153-1.055-6.004-3.542.033-.085 5.686 2.14.057-.065-4.722-5.522.048-.051 5.476 4.837.072-.02-2.9-7.194a.113.113 0 01.019-.02h.033c.038.019.07.046.097.08l3.377 6.112.107-.02a4676.26 4676.26 0 01-.825-7.03l.102-.021c.61 2.51 1.222 5.019 1.833 7.528h.057l1.538-6.588.095.016c-.113 2.21-.382 4.413-.533 6.62a.13.13 0 000 .151l.061-.086zm.316 4.173c-.693.552-1.249.531-1.795-.036-.87-.897-.741-2.131.29-2.778a1.142 1.142 0 00-1.257.682c-.484.99.024 2.451 1.026 2.932a1.202 1.202 0 001.5-.306 1.21 1.21 0 00.236-.494zm1.392 1.193l-.023-.043s-.023.015-.02.023a.12.12 0 00.02.043l.023-.023zm15.61-2.3l2.026-7.539c.033-.13.066-.24.256-.237 1.584.015 3.169-.02 4.75.038 1.182.046 1.726.93 1.352 2.044a2.367 2.367 0 01-1.372 1.454c-.049.021-.113.021-.133.118.08.033.166.067.256.107a1.298 1.298 0 01.749 1.534c-.257 1.339-1.241 2.213-2.692 2.374-1.723.197-3.443.038-5.192.107zm4.225-3.238h-.718c-.11 0-.19.02-.223.149-.102.406-.217.812-.328 1.218-.028.108 0 .17.128.166.523.03 1.047.013 1.567-.05a.976.976 0 00.797-.767.482.482 0 00-.377-.66 3.27 3.27 0 00-.846-.056zm-.49-1.52c.452 0 .875.023 1.295 0a.933.933 0 00.908-.7c.118-.404-.041-.667-.459-.698-.418-.03-.8 0-1.2-.018a.173.173 0 00-.182.087.172.172 0 00-.02.069c-.103.411-.22.823-.341 1.26z" fill="#FEFEFE"/><path d="M14.701 5.78a7.085 7.085 0 014.764-2.555c2.874-.32 5.33.726 7.494 2.494 3.163 2.584 4.966 5.972 5.655 9.966.449 2.612.285 5.185-.735 7.667-.834 2.019-2.128 3.654-4.146 4.6-2.107 1.004-4.248.9-6.389.079-.177-.067-.349-.148-.513-.222l-.102-.052c.192-.069.336.036.484.08 2.767.846 5.277.427 7.417-1.582 1.282-1.206 2.036-2.742 2.456-4.436.823-3.323.357-6.555-.981-9.668-1.188-2.744-2.933-5.04-5.464-6.688a9.012 9.012 0 00-5.022-1.589 6.899 6.899 0 00-4.64 1.773c-.075.064-.129.156-.234.18l-.043-.047z" fill="#F18F1E"/><path d="M62.13 16.976c.731.026 1.6-.028 2.47.059 1.21.122 1.756.866 1.461 2.044a2.872 2.872 0 01-1.944 2.111c-.2.07-.256.128-.171.342.351.982.677 1.97 1.025 2.955.072.202.09.291-.182.286-.825-.015-1.65 0-2.476 0-.198 0-.256-.064-.303-.256-.205-.876-.433-1.745-.64-2.62-.044-.188-.098-.278-.321-.283-.223-.005-.3.097-.349.292-.226.869-.467 1.732-.69 2.604-.048.191-.125.255-.335.255a39.646 39.646 0 00-1.908 0c-.215 0-.271-.05-.215-.255a2004.57 2004.57 0 001.971-7.322c.05-.184.13-.217.298-.214.72.007 1.448.002 2.31.002zm.244 1.597h-.605c-.115 0-.187.026-.218.148-.102.41-.215.816-.325 1.222-.026.097-.033.176.107.174.544 0 1.095.046 1.623-.136a.967.967 0 00.62-.833.448.448 0 00-.376-.51 2.977 2.977 0 00-.826-.065zm17.18-2.873h-2.8c-.256 0-.225-.165-.256-.3-.233-.941-.461-1.887-.7-2.863-.513.414-.987.81-1.474 1.196a.473.473 0 00-.149.286c-.125.473-.256.943-.374 1.416-.047.179-.108.273-.328.256-.713-.018-1.426 0-2.18 0 .203-.767.393-1.498.59-2.234.467-1.735.941-3.465 1.392-5.205.072-.256.175-.35.45-.338.601.023 1.204.018 1.806 0 .257 0 .272.072.213.284-.218.766-.42 1.533-.625 2.3-.016.05-.023.102-.039.163.17 0 .23-.117.316-.191l2.701-2.392a.498.498 0 01.35-.156h2.91c.044.01.088.023.13.04l-2.115 1.713c-.426.342-.846.692-1.282 1.022a.287.287 0 00-.11.386c.512 1.434.992 2.872 1.487 4.309a4.9 4.9 0 00.087.309zm-10.527 7.282h4.14c-.15.564-.299 1.098-.432 1.635-.039.153-.134.15-.257.15h-6.153c-.203 0-.21-.055-.162-.232a1936.2 1936.2 0 001.972-7.357c.03-.118.067-.21.239-.207h6.288c-.14.529-.277 1.022-.402 1.533-.046.192-.187.156-.318.156h-3.446c-.256 0-.364.061-.397.314-.039.292-.303.637-.154.841.105.14.543.046.834.049h2.542c.234 0 .283.053.21.278a15.78 15.78 0 00-.302 1.125c-.04.189-.126.255-.318.24H69.7c-.218 0-.31.059-.356.278-.082.381-.203.775-.316 1.197zm6.417-.959h.939c.143 0 .18.036.177.19 0 .656.171.947.615 1.08a1.45 1.45 0 001.538-.473.598.598 0 00-.256-.963 9.901 9.901 0 00-1.37-.411 5.201 5.201 0 01-.804-.317c-1.003-.511-1.303-1.347-.818-2.362.551-1.155 1.538-1.673 2.756-1.85a6.22 6.22 0 012.227.051c1.188.256 1.521 1.023 1.398 2.193-.015.153-.093.171-.218.171H79.72c-.144 0-.19-.038-.19-.189 0-.358-.113-.675-.513-.767-.461-.104-.918-.094-1.259.307-.256.291-.179.567.2.69.475.156.964.256 1.446.399.267.076.53.168.785.276 1.048.442 1.428 1.25 1.046 2.32-.534 1.498-1.685 2.241-3.202 2.469a6.126 6.126 0 01-2.52-.123 1.603 1.603 0 01-1.305-1.533 7.542 7.542 0 010-.902c0-.182.074-.276.284-.256.326.015.641 0 .951 0zM54.534 15.7c.839-1.295 1.639-2.537 2.438-3.776.8-1.24 1.618-2.5 2.418-3.754a.434.434 0 01.425-.243c.703.013 1.406 0 2.108 0 .192 0 .282.023.308.256.207 2.067.435 4.132.658 6.197.039.362.083.728.129 1.09.02.162 0 .239-.203.233-.702-.012-1.404 0-2.107 0-.174 0-.233-.043-.228-.222 0-.289-.024-.578-.02-.866 0-.143-.05-.194-.193-.194H57.89a.199.199 0 00-.207.127.933.933 0 01-.067.115c-.205.34-.302.826-.626.992-.322.166-.769.04-1.153.043-.385.003-.82.003-1.303.003zm5.764-5.57h-.065l-1.394 2.433c-.09.156 0 .163.118.163h.833c.582 0 .587 0 .572-.577-.018-.683-.044-1.35-.064-2.02zm10.17.562h-.403c-.4.038-.705.044-.8-.51-.079-.466-.694-.673-1.281-.548a2.034 2.034 0 00-1.39 1.058 5.119 5.119 0 00-.612 2.09c-.088.99.602 1.457 1.632 1.14.59-.181.939-.626 1.213-1.13a.473.473 0 01.513-.303c.513.025 1.048.02 1.572.015.174 0 .212.046.156.21-.608 1.712-1.908 2.977-3.9 3.104a6.714 6.714 0 01-1.6-.071 2.351 2.351 0 01-2.051-2.428 5.837 5.837 0 011.426-3.92c1.097-1.278 2.546-1.69 4.176-1.6.223.013.444.041.662.085a2.25 2.25 0 011.453.925 2.24 2.24 0 01.367 1.679c-.025.158-.08.204-.23.199-.3 0-.603.005-.903.005zm-11.429 6.284L57.22 18.91c-.764.813-1.528 1.624-2.292 2.433a.85.85 0 00-.215.404c-.257.923-.497 1.843-.739 2.765-.043.174-.107.256-.31.256a39.384 39.384 0 00-1.907 0c-.233 0-.29-.046-.226-.281.257-.897.477-1.79.733-2.699a.82.82 0 00-.038-.575c-.53-1.306-1.051-2.614-1.59-3.918-.107-.255-.087-.334.216-.327.702.02 1.405.016 2.11 0a.302.302 0 01.343.256c.257.767.513 1.533.77 2.34.602-.687 1.215-1.333 1.758-2.044a1.28 1.28 0 011.233-.567c.63.064 1.264.023 1.972.023zm-8.594 1.955h-2.82c-.256 0-.361.056-.428.317-.454 1.75-.936 3.493-1.395 5.241-.059.223-.146.3-.382.292a27.893 27.893 0 00-1.794 0c-.308 0-.313-.085-.257-.343.472-1.72.923-3.45 1.398-5.17.076-.278.03-.345-.257-.334-.613.017-1.228 0-1.84 0-.229 0-.257-.064-.208-.256a61.62 61.62 0 00.402-1.51c.039-.146.113-.187.257-.187h6.293c.1 0 .198 0 .257.113l.774 1.837zm.469-5.167h3.982c-.185.414-.487.723-.651 1.101-.3.695-.77.895-1.538.859-1.47-.074-2.946-.023-4.42-.023h-.37c.2-.754.39-1.48.585-2.206.462-1.74.946-3.493 1.407-5.24.062-.238.154-.343.424-.33.579.023 1.16.023 1.74 0 .308-.013.37.05.285.36-.485 1.74-.946 3.488-1.418 5.233a.408.408 0 00-.026.246z" fill="#FEFEFE"/><path d="M14.744 5.826a.465.465 0 01-.28.256.652.652 0 01.232-.304l.048.048z" fill="#F18F1E"/><path d="M28.525 23.383l-.03.048a.45.45 0 01-.095-.09c-.02-.032 0-.056.046-.048a.09.09 0 01.079.09z" fill="#FEFEFE"/><path d="M14.463 6.08c0 .053-.018.076-.072.064l.072-.062v-.003z" fill="#F18F1E"/><path d="M14.391 6.133l-.015.044v-.018l.02-.023-.005-.003zm-.094.195l-.006-.021.019.003-.013.018z" fill="#F18F1E"/><path d="M22.641 16.823a1.191 1.191 0 01-.67.847 1.2 1.2 0 01-1.08-.037c-.993-.48-1.5-1.942-1.026-2.931a1.136 1.136 0 011.256-.683c-1.025.647-1.159 1.881-.29 2.778.562.557 1.118.58 1.81.026zm-.315-4.173l-.067.097a.13.13 0 010-.151l.067.054zm1.708 5.366l-.023.024a.166.166 0 01-.02-.044s0-.016.02-.023l.023.043zm19.836-5.538a3.24 3.24 0 01.845.06.486.486 0 01.412.445.482.482 0 01-.035.213.97.97 0 01-.797.767c-.52.063-1.044.08-1.567.051-.125 0-.156-.058-.128-.166.11-.406.226-.813.328-1.219.034-.128.113-.148.223-.148l.718-.003zm-.49-1.52c.12-.437.238-.849.34-1.278a.169.169 0 01.067-.123.172.172 0 01.136-.033c.4 0 .802 0 1.2.018.397.018.577.294.459.698a.928.928 0 01-.908.7c-.42.048-.838.018-1.294.018zm18.994 7.615c.277-.016.555.006.826.067a.45.45 0 01.377.51.962.962 0 01-.621.834c-.528.181-1.08.13-1.623.135-.14 0-.133-.076-.107-.174.11-.406.223-.812.325-1.221.031-.123.103-.153.218-.148.177.002.357-.003.605-.003zm-2.076-8.443c.02.67.046 1.336.064 2.006.015.578 0 .578-.572.578h-.828c-.118 0-.208 0-.118-.164.467-.81.931-1.622 1.394-2.433l.06.013z" fill="#242021"/></svg>