<svg width="49" height="22" viewBox="0 0 49 22" fill="none" xmlns="http://www.w3.org/2000/svg"><path d="M47.628 13.584c-.797.131-1.242.179-1.68.179-1.046 0-2.543-.308-4.113-.844l-2.352-.805c-1.245-.425-3.097-.775-4.115-.775-1.009 0-2.867.35-4.108.775l-2.353.805c-1.568.536-3.067.844-4.113.844-1.047 0-2.546-.308-4.115-.844l-2.352-.805c-1.243-.424-3.1-.775-4.11-.775-1.014 0-2.87.35-4.113.775l-2.353.805c-1.57.536-3.067.844-4.113.844-.437 0-.882-.048-1.679-.179l.098.165c.226.38.345.545.65.9.413.057.578.07.909.07 1.05 0 2.764-.332 4.135-.798l2.353-.802c1.596-.543 3.06-.844 4.113-.844.89 0 2.445.288 3.525.653l2.937.993c1.387.468 3.087.798 4.116.798 1.029 0 2.728-.331 4.112-.798l2.938-.993c1.08-.365 2.636-.653 3.526-.653 1.055 0 2.515.3 4.112.844l2.352.802c1.371.466 3.087.798 4.135.798.33 0 .496-.013.913-.07a5.48 5.48 0 00.647-.9l.098-.165zm-3.508 3.34l-3.425-1.061c-1.54-.478-2.135-.645-2.956-.828-.869-.194-1.74-.306-2.37-.306-.993 0-2.888.357-4.109.774l-2.353.805c-1.591.544-3.057.844-4.126.844-1.074 0-2.526-.298-4.125-.844l-2.353-.805c-1.218-.417-3.12-.774-4.114-.774-.626 0-1.505.113-2.367.306-.812.181-1.456.361-2.957.828l-3.42 1.06c.365.336.462.414.872.694l1.901-.584 2.202-.657c1.671-.497 2.805-.71 3.771-.71.878 0 2.465.293 3.524.651l2.94.996c1.378.466 3.083.795 4.127.795 1.04 0 2.76-.332 4.125-.795l2.938-.995c1.054-.358 2.651-.654 3.526-.653.969 0 2.093.212 3.769.711l2.202.657 1.905.584a6.47 6.47 0 00.872-.693zm-3.833 2.248l-.216-.079-.588-.198c-1.706-.52-3.072-.778-4.114-.778-.874 0-2.352.254-3.524.604l-.585.174-.591.198-.588.205-1.174.402c-1.785.583-3.057.844-4.113.844-.91 0-2.26-.251-3.527-.656l-.588-.188-1.173-.402-.588-.205-.591-.198c-1.704-.52-3.073-.778-4.11-.778-.879 0-2.355.253-3.53.604l-.583.174a17.35 17.35 0 00-.805.277l1.183.62.265-.082c1.38-.43 2.567-.654 3.473-.654.762 0 1.953.196 2.933.482l.589.172.585.192.59.197.589.205.585.2.588.198c1.765.547 3.065.799 4.116.798.901 0 2.279-.243 3.525-.62l.587-.178.589-.198.585-.2.588-.205.591-.197.585-.192c1.5-.45 2.606-.654 3.526-.653.906 0 2.091.224 3.469.654l.264.08 1.183-.619zM6.7 5.151V7.75a4.49 4.49 0 01-1.76.373c-1.51 0-2.57-1.176-2.57-2.849 0-1.802 1.268-3.058 3.087-3.058 1.017 0 2.024.286 3.245.92V1.41C7.142.766 6.372.583 5.219.583 2.034.583 0 2.4 0 5.247c0 2.708 1.974 4.508 4.941 4.508 1.323 0 2.892-.428 4.035-1.103v-3.5H6.7zM10.865.836v8.667h2.241V2.471h.967c1.266 0 1.834.408 1.834 1.317 0 .93-.635 1.46-1.75 1.46l-.492-.014h-.252l3.113 4.269h2.865l-2.855-3.485c1.06-.482 1.626-1.34 1.626-2.466 0-1.836-1.18-2.716-3.638-2.716h-3.66zm20.856 0v8.667h2.24V5.798h3.96v3.705h2.242V.836h-2.241V4.04h-3.96V.836h-2.24zm10.834 0v8.667H49V7.805h-4.208v-2.06h3.094V4.113h-3.094V2.534h3.718V.836h-5.955z" fill="#152849"/><path fill-rule="evenodd" clip-rule="evenodd" d="M21.92 5.172c0-1.79 1.2-3.038 2.92-3.038 1.722 0 2.921 1.25 2.921 3.038 0 1.785-1.203 3.036-2.92 3.036-1.718 0-2.922-1.252-2.92-3.036zm-2.362 0c0 2.692 2.236 4.668 5.282 4.668 3.048 0 5.284-1.976 5.284-4.668 0-2.7-2.232-4.672-5.284-4.672-3.051 0-5.282 1.973-5.282 4.672z" fill="#152849"/></svg>