<svg width="100" height="13" viewBox="0 0 100 13" fill="none" xmlns="http://www.w3.org/2000/svg"><path d="M14.713 1.625c-1.082-.39-2.993-1.04-5.86-1.04C3.695.585 0 3.25 0 6.63c0 3.575 3.185 5.98 8.854 5.98 2.866 0 4.713-.715 5.796-1.17 0 0 .063 0 .063-.065v-2.86c0-.065 0-.065-.063-.065h-.191s-.064 0-.064.065c-.7 2.6-2.866 3.575-5.541 3.575-3.695 0-6.179-2.08-6.179-5.525 0-3.445 2.23-5.46 6.242-5.46 2.866 0 4.65 1.235 5.35 3.25 0 0 0 .065.064.065h.191s.064 0 .064-.065l.255-2.665c-.064-.065-.064-.065-.128-.065zm15.096 7.02h-.319c-.254.455-.51.91-.828 1.3-.318.39-.7.78-1.146 1.04-.446.26-.955.52-1.529.65a9.91 9.91 0 01-2.165.26h-.446a8.77 8.77 0 01-1.465-.13c-.382-.13-.637-.26-.828-.455-.191-.195-.319-.455-.382-.78-.064-.325-.064-.715-.064-1.17V3.185c0-.195 0-.325.064-.52 0-.13.063-.325.063-.455.128-.13.191-.26.255-.39s.128-.195.191-.26c.064-.065.191-.13.319-.195.127-.065.254-.13.382-.13.127-.065.255-.065.446-.065 0 0 .063 0 .063-.065v-.26c0-.065-.063-.065-.063-.065H17.07s-.064 0-.064.065v.26s0 .065.064.065c.128 0 .319.065.446.065.127.065.255.065.382.13.128.065.191.13.319.195.063.065.127.195.19.26-.063.13 0 .26.064.39s.064.26.064.455c0 .13.064.325.064.52v6.76c0 .195 0 .325-.064.52 0 .13-.064.325-.064.455l-.19.39c-.064.13-.128.195-.192.26-.063.065-.19.13-.318.195s-.255.13-.383.13c-.127.065-.445.065-.445.065s-.064 0-.064.065v.325c0 .065 0 .065.064.065h11.655c.064 0 .064-.065.064-.065l.892-2.73.255-.845c.064-.065.064-.13 0-.13zm15.541 3.38c-1.21-.13-1.974-1.235-2.802-2.73l-3.44-5.98A102.696 102.696 0 0037.388.39h-.254c-.382.585-.765 1.3-1.847 3.185l-3.058 5.07c-1.401 2.34-2.293 3.25-2.866 3.445-.064 0-.064.065-.064.065v.195c0 .065 0 .065.064.065.382 0 .892-.065 1.784-.065.891 0 2.229.065 2.229.065s.064 0 .064-.065v-.26s0-.065-.064-.065c-.956-.26-1.338-.715-1.338-1.365s.382-1.365.892-2.275l.382-.715s0-.065.064-.065h5.669s.063 0 .063.065l.765 1.3c.51.845.891 1.495.891 2.08 0 .52-.382.845-1.4.975-.065 0-.065.065-.065.065v.26c0 .065.064.065.064.065 1.02 0 1.975-.065 2.93-.065.892 0 2.93.065 2.93.065s.064 0 .064-.065v-.195c.127-.065.127-.13.063-.13zM38.79 7.15h-4.968c-.064 0-.064-.065-.064-.13l.573-.975c1.147-1.885 1.593-2.6 1.911-3.185 0-.065.064-.065.127 0 .319.52.892 1.43 1.911 3.185l.573.975c0 .065 0 .13-.063.13zm59.363-.585c-1.02-.52-2.42-.78-3.886-1.04l-1.146-.195c-2.42-.39-3.503-.975-3.503-2.275 0-1.235 1.337-2.015 3.949-2.015 2.802 0 4.14 1.3 4.586 2.99 0 0 0 .065.063.065h.255c.064 0 .064 0 .064-.065l.255-2.6C97.325.975 95.796.585 93.63.585c-3.439 0-6.05 1.105-6.05 3.315s2.102 2.925 4.904 3.445l1.083.195c2.548.455 4.459.78 4.459 2.47 0 1.495-2.039 2.21-4.65 2.21-2.484 0-4.777-.975-5.542-3.575 0 0 0-.065-.063-.065h-.255s-.064 0-.064.065l-.255 2.925v.065c.765.325 2.994 1.105 6.115 1.105 4.076 0 6.624-1.105 6.624-3.51.064-1.3-.7-2.145-1.783-2.665zM85.987.78c-.764 0-1.528.065-2.229.065-.764 0-1.465 0-2.357-.065-.063 0-.063 0-.063.065v.26s0 .065.063.065c1.02.13 1.465.455 1.784.91.382.65.382 1.625.382 3.055V9.23c0 .065-.064.065-.064.065-.19-.195-.828-.78-2.23-2.015l-4.14-3.705c-1.655-1.43-2.802-2.47-3.057-2.73H72.23c-.7 0-.891 0-1.974-.065 0 0-.064 0-.064.065v.26c0 .065.064.065.064.065.637.13 1.274.26 1.91.91v5.98c0 1.365 0 2.34-.382 3.055-.318.455-.764.78-1.592.975-.064 0-.064.065-.064.065v.195c0 .065 0 .065.064.065.764 0 1.338-.065 2.038-.065.765 0 1.656 0 2.548.065 0 0 .064 0 .064-.065v-.26c0-.065 0-.065-.064-.065-.828-.195-1.338-.52-1.656-.975-.382-.65-.382-1.625-.382-3.055v-1.43c0-2.015 0-3.575-.064-4.03 0-.065.064-.065.064-.065s1.592 1.495 3.503 3.12l3.885 3.445c1.083.91 3.95 3.51 3.95 3.51l.063.065c.064 0 .127 0 .127-.065V5.07c0-1.365 0-2.34.383-3.055.318-.455.7-.78 1.465-.91.063 0 .063-.065.063-.065V.845c-.127-.065-.127-.065-.19-.065zM60.955 12.025c-1.21-.325-1.592-1.17-2.038-2.21l-.127-.26c-.764-1.885-1.401-2.795-3.567-2.925-.064 0-.064-.13 0-.13 2.166-.065 4.013-1.04 4.013-2.99 0-2.405-2.74-2.73-5.796-2.73h-4.396c-.765 0-2.039 0-2.994-.065-.064 0-.064 0-.064.065v.26c0 .065 0 .065.064.065.7.13 1.083.325 1.337.715.255.455.319 1.105.319 1.95v5.59c0 .845-.064 1.495-.319 1.95-.254.39-.636.65-1.337.715 0 0-.064 0-.064.065v.26c0 .065.064.065.064.065 1.083-.065 1.91-.065 2.739-.065.828 0 2.611.065 2.611.065s.064 0 .064-.065v-.26s0-.065-.064-.065c-.7-.13-1.083-.325-1.337-.715-.255-.455-.319-1.105-.319-1.95V6.825c0-.065 0-.065.064-.065h2.23c2.802 0 3.757 1.235 4.394 2.925.51 1.235 1.083 2.73 1.529 2.73h2.931c.063 0 .063 0 .063-.065v-.325zM49.873 6.24c-.064 0-.064 0-.064-.065v-4.81c0-.065 0-.065.064-.065.637 0 2.739-.065 3.184-.065 1.911 0 3.822.195 3.822 2.21 0 2.665-2.357 2.73-4.395 2.73h-2.611v.065zm18.025 6.11v-.195c0-.065 0-.065-.064-.065-.7-.13-1.082-.325-1.337-.715-.255-.455-.319-1.105-.319-1.95V3.77c0-.845.064-1.495.319-1.95.255-.39.637-.65 1.337-.715 0 0 .064 0 .064-.065V.845c0-.065 0-.065-.064-.065-1.019.065-1.783.065-2.611.065-.764 0-1.656 0-2.739-.065-.064 0-.064 0-.064.065v.26c0 .065 0 .065.064.065.7.13 1.083.325 1.338.715.254.455.318 1.105.318 1.95v5.59c0 .845-.064 1.495-.318 1.95-.255.39-.637.65-1.338.715v.325c1.147-.065 2.038-.065 2.803-.065.828 0 1.656 0 2.611.065-.064 0 0-.065 0-.065z" fill="#BE0F34"/></svg>