<svg width="112" height="18" viewBox="0 0 112 18" fill="none" xmlns="http://www.w3.org/2000/svg"><path d="M107.638 8.614a4.28 4.28 0 004.284-4.277A4.28 4.28 0 00107.638.06a4.28 4.28 0 00-4.283 4.277 4.28 4.28 0 004.283 4.277z" fill="#00C7C9"/><path fill-rule="evenodd" clip-rule="evenodd" d="M16.11 3.312a5.552 5.552 0 00-1.607-2.197C12.662-.387 9.83-.08 7.968 1.217a5.503 5.503 0 00-1.592 1.7v.043h-.044c-.132-.124-.271-.249-.396-.388v-.037a.264.264 0 00-.08-.102.33.33 0 00-.47.051 9.398 9.398 0 00-2.002 3.867v.059h-.052a8.81 8.81 0 00-1.269-.476l-.359-.088c-.183 0-.47-.088-.58.117a.46.46 0 000 .38c.214.908.33 1.836.345 2.769v.058h-.058c-.28-.08-.529-.234-.807-.3a.735.735 0 00-.352 0l-.096.037a.359.359 0 00-.154.337 4.988 4.988 0 00.22 1.618c.05.196.112.39.184.579a6.475 6.475 0 002.097 2.93h.066c1.108 1.881 3.184 2.79 5.23 3.258.861.199 1.742.3 2.626.3a18.56 18.56 0 002.134-.05h.132c2.2-.162 5.516-.887 7.042-2.645.228-.264.431-.548.608-.85l.059-.043a6.59 6.59 0 002.288-3.493c.14-.493.23-.999.272-1.51v-.27a.293.293 0 00-.25-.271c-.256-.066-.887.234-1.159.322h-.058v-.058c.016-.971.144-1.937.381-2.878.088-.293-.205-.455-.47-.41a6.806 6.806 0 00-1.466.453l-.3.14h-.052v-.03a9.288 9.288 0 00-2.002-3.874.331.331 0 00-.47-.051.294.294 0 00-.088.117l-.066.066a9.54 9.54 0 01-.814.732l-.044.037.007-.051z" fill="#1A1715"/><path fill-rule="evenodd" clip-rule="evenodd" d="M13.095 8.965c.264-.622.8-.659 1.114-1.354-.242-1.582-1.833-2.197-2.156-3.962a7.115 7.115 0 01-1.878 2.028 2.86 2.86 0 01-.132 2.6 2.299 2.299 0 013.052.688zm-6.748.821a6.08 6.08 0 012.677-4.263 7.331 7.331 0 002.45-2.197c.22-.335.351-.72.381-1.12-.364.289-.76.535-1.18.732-1.578.733-3.536 1.274-4.32 3.025a5.222 5.222 0 00-.008 3.823z" fill="#fff"/><path fill-rule="evenodd" clip-rule="evenodd" d="M8.012 11.829a2.925 2.925 0 011.283-3.222 3.14 3.14 0 00.462-2.717c-1.408.812-2.933 2.438-2.713 4.123.093.667.408 1.283.894 1.75l.074.066z" fill="#fff"/><path fill-rule="evenodd" clip-rule="evenodd" d="M6.193 4.945a7.092 7.092 0 012.5-1.824c1.248-.556 2.935-.864 3.77-2.065a4.769 4.769 0 00.478 3.39 5.4 5.4 0 00.63.872c.734.857 1.328 1.604 1.02 2.835a3.149 3.149 0 001.034-2.732 4.71 4.71 0 00-2.2-3.406 4.073 4.073 0 012.369 2.073v-.044c-.03-.967-.968-2.029-1.636-2.57C12.538.17 10 .411 8.29 1.656a5.316 5.316 0 00-2.097 3.288z" fill="#fff"/><path fill-rule="evenodd" clip-rule="evenodd" d="M9.919 17.505A23.27 23.27 0 017.3 16.04a10.52 10.52 0 01-3.41-3.94 34.802 34.802 0 01-1.577-3.493l-.33-.813c.051.512.073 1.018.095 1.508a10.576 10.576 0 001.027 4.731 6.687 6.687 0 003.11 2.578c1.167.527 2.424.83 3.704.894zm10.694-8.898c-1.409 3.508-3.294 6.59-7.298 8.736 2.405-.307 4.987-1.42 5.94-2.511 1.152-1.326 1.468-3.216 1.592-5.522 0-.491 0-.989.088-1.465l-.322.762z" fill="#00C7C9"/><path fill-rule="evenodd" clip-rule="evenodd" d="M2.137 6.63c.314.548.58 1.124.792 1.72.447 1.106.887 2.197 1.467 3.274 1.423 2.746 3.74 4.299 6.506 5.53-.411-2.396-2.384-3.985-3.983-5.618a5.776 5.776 0 01-1.504-2.768 7.871 7.871 0 00-3.242-2.124l-.036-.015zm10.136 10.501l.33-.168c3.895-1.97 5.802-4.643 7.394-8.613.203-.595.458-1.17.762-1.72a8.52 8.52 0 00-1.987 1.025 14.217 14.217 0 00-4.474 4.723 18.225 18.225 0 00-2.054 4.753h.03z" fill="#00C7C9"/><path fill-rule="evenodd" clip-rule="evenodd" d="M13.887 8.84c-.162.228-.338.411-.492.623.24.915.312 1.865.213 2.805a13.447 13.447 0 014.856-5.126c.183-.117.359-.242.55-.352a8.219 8.219 0 00-1.673-3.537c-.322.308-.66.593-1.012.872h-.036v.102c0 .476-.125.938-.103 1.414v.036a3.021 3.021 0 01-2.303 3.164zM21.082 13a6.083 6.083 0 001.034-2.094c.095-.35.161-.708.198-1.07-.256.089-.52.155-.777.228-.042.99-.195 1.973-.455 2.93V13zm-19.18 0a13.296 13.296 0 01-.447-2.929 10.37 10.37 0 01-.778-.227c.043.361.112.718.205 1.07A5.856 5.856 0 001.902 13zm3.755-7.162a4.805 4.805 0 01.39-2.24l-.456-.41a9.304 9.304 0 00-1.43 2.57 6.74 6.74 0 00-.154.549 3.694 3.694 0 00-.088.41c.205.125.41.256.609.403.27.191.526.4.77.622a4.586 4.586 0 01.36-1.904z" fill="#00C7C9"/><path fill-rule="evenodd" clip-rule="evenodd" d="M11.57 17.263l-.045-.212v-.052a10.589 10.589 0 00-2.831-4.548 2.67 2.67 0 01.213-2.731c.682-.967 2.288-1.78 3.344-.901s.829 3.186.866 4.43c-.433 1.268-1.27 2.476-1.467 3.794l-.08.22z" fill="#fff"/><path d="M13.513 7.142a1.983 1.983 0 00-.822 0 1.08 1.08 0 01.609-.154 3.549 3.549 0 01-.169-1.655c.074.11 0 .11.103.22-.073.545.025 1.1.279 1.589zm-2.509-1.575a1.916 1.916 0 011.335-.57l.066.138c-.497.018-.98.167-1.4.432zm2.303 1.926a.63.63 0 01-.982.176.837.837 0 01-.257-.249h.037c.124.112.265.203.418.271a.624.624 0 00.784-.198z" fill="#1A1715"/><path fill-rule="evenodd" clip-rule="evenodd" d="M12.156 7.442a.557.557 0 00-.154.227.439.439 0 01.095-.278l.059.051z" fill="#171819"/><path d="M12.765 5.897a1.358 1.358 0 00-.433-.095.374.374 0 00-.734.08 1.13 1.13 0 00-.315.19c.47-.188.98-.248 1.482-.175z" fill="#1A1715"/><path fill-rule="evenodd" clip-rule="evenodd" d="M12.002 5.765a.139.139 0 00.132-.154.154.154 0 00-.162-.139.147.147 0 00-.103.25.147.147 0 00.104.043h.029z" fill="#fff"/><path d="M104.22 5.238h.543v.615h-.543v-.615zm1.497-2.41h.447v.791a1.298 1.298 0 011.24-.871v.483a1.23 1.23 0 00-.914.422 1.216 1.216 0 00-.289.963v1.208h-.448l-.036-2.996zm2.325 1.875V2.828h.454v1.765a.81.81 0 00.491.855.806.806 0 00.346.06.9.9 0 00.664-.276.895.895 0 00.245-.675V2.828h.447v3.025h-.447v-.527a1.154 1.154 0 01-1.034.593 1.117 1.117 0 01-1.109-.746 1.104 1.104 0 01-.057-.47z" fill="#fff"/><path d="M25.974 3.78h1.467v2.88l2.677-2.879h1.753l-2.684 2.79 2.809 3.794h-1.768L28.19 7.56l-.77.791v2.014h-1.467l.022-6.584zm6.88 0h3.015a2.637 2.637 0 011.921.667 2.088 2.088 0 01.572 1.523 2.041 2.041 0 01-1.415 2.043l1.613 2.351h-1.664l-1.467-2.109h-1.123v2.11H32.84l.014-6.585zm2.934 3.2c.734 0 1.115-.38 1.115-.951 0-.572-.433-.945-1.144-.945h-1.467v1.897h1.496zm6.139-3.25h1.342l2.824 6.634h-1.51l-.61-1.464h-2.787l-.601 1.464h-1.489l2.831-6.635zm1.57 3.88l-.88-2.138-.873 2.139h1.753zm3.073 1.795l.858-1.025a3.03 3.03 0 001.937.798c.594 0 .953-.235.953-.637 0-.403-.227-.557-1.328-.835-1.327-.344-2.2-.733-2.2-2.036 0-1.194.96-1.985 2.31-1.985a3.825 3.825 0 012.465.835l-.734 1.091a3.113 3.113 0 00-1.709-.666c-.557 0-.85.249-.85.593s.286.571 1.422.864c1.343.344 2.098.828 2.098 1.992 0 1.311-.997 2.043-2.42 2.043a4.214 4.214 0 01-2.802-1.032zm6.19-2.336a3.496 3.496 0 012.104-3.297 3.51 3.51 0 013.851.705 3.5 3.5 0 01.796 3.827 3.501 3.501 0 01-3.252 2.177 3.423 3.423 0 01-3.23-2.087 3.409 3.409 0 01-.269-1.325zm5.494 0a1.997 1.997 0 00-3.427-1.456 1.978 1.978 0 00-.548 1.456 1.996 1.996 0 001.218 1.913 2.005 2.005 0 001.564 0 1.974 1.974 0 001.193-1.913zm4.071-1.956h-2.01V3.78h5.464v1.333h-2.01v5.251h-1.466l.022-5.25zm4.569-1.333h1.467v2.88l2.677-2.879h1.753l-2.684 2.79 2.802 3.794H71.17L69.124 7.56l-.733.791v2.014h-1.467l-.03-6.584zm9.33-.05h1.342l2.824 6.634h-1.518L78.27 8.9h-2.787l-.609 1.464h-1.467l2.817-6.635zm1.525 3.88l-.872-2.138-.88 2.139h1.752zm3.565-3.83h2.7c1.569 0 2.522.93 2.522 2.293 0 1.523-1.188 2.314-2.662 2.314h-1.108v1.977H81.3l.015-6.584zm2.604 3.318a1.029 1.029 0 001.151-1.018c0-.644-.454-.996-1.18-.996h-1.123v2.014h1.152zM87.71 3.78h3.015a2.637 2.637 0 011.921.667 2.087 2.087 0 01.565 1.523 2.041 2.041 0 01-1.416 2.043l1.614 2.351h-1.694l-1.467-2.109h-1.122v2.11h-1.467l.051-6.585zm2.934 3.2c.733 0 1.115-.38 1.115-.951 0-.572-.433-.945-1.144-.945h-1.467v1.897h1.496zm3.462.089a3.496 3.496 0 012.104-3.297 3.51 3.51 0 013.851.705 3.492 3.492 0 01.795 3.827 3.499 3.499 0 01-3.252 2.177 3.423 3.423 0 01-3.23-2.087 3.409 3.409 0 01-.268-1.325zm5.493 0a1.995 1.995 0 00-1.215-1.905 1.983 1.983 0 00-2.635 1.121c-.094.25-.137.517-.125.784a1.996 1.996 0 001.219 1.913c.248.105.514.16.783.16a1.976 1.976 0 001.88-1.281c.095-.253.137-.523.123-.792h-.03z" fill="#1A1715"/><path d="M26.011 15.264v-2.402h1.049a.889.889 0 01.645.212.541.541 0 01.154.388.563.563 0 01-.388.557c.352.102.528.3.528.585a.563.563 0 01-.242.484 1.094 1.094 0 01-.653.176H26.01zm.279-1.333h.733a.735.735 0 00.41-.11.38.38 0 00.155-.322.343.343 0 00-.14-.293.735.735 0 00-.403-.103h-.733l-.022.828zm0 1.084h.821a.793.793 0 00.448-.11.388.388 0 00.16-.322.35.35 0 00-.168-.308.954.954 0 00-.484-.103h-.777v.843zm3.388.285a1.182 1.182 0 01-.85-.359 1.192 1.192 0 01-.353-.878 1.222 1.222 0 01.36-.88 1.196 1.196 0 01.887-.365c.182-.004.362.03.528.102.156.073.3.17.426.286l-.184.19a1.108 1.108 0 00-.733-.33.91.91 0 00-.682.286 1.053 1.053 0 000 1.414.909.909 0 00.682.285.948.948 0 00.418-.088 1.25 1.25 0 00.374-.256l.184.19a1.518 1.518 0 01-.44.3 1.219 1.219 0 01-.617.103zm1.467-.036v-2.402h1.775v.248h-1.467v.82h1.342v.242h-1.371v.843h1.518v.249h-1.797zm3.095.534v-.783h.257c.28-.534.408-1.135.367-1.736v-.418h1.614v2.154h.322l-.044.783h-.234v-.534h-1.995l-.052.534h-.235zm.565-.783H36.2V13.11h-1.064v.308c.001.307-.028.614-.088.916-.039.24-.12.47-.242.68zm2.355.271a.962.962 0 01-.323-.052l.059-.22a.586.586 0 00.22 0 .344.344 0 00.124 0 .329.329 0 00.132-.124.73.73 0 00.125-.278 2.66 2.66 0 00.088-.513c.017-.27.017-.542 0-.813v-.432h1.592v2.402h-.28V13.11h-1.004v.257a6.87 6.87 0 01-.044.842c-.018.19-.052.38-.103.564a.944.944 0 01-.168.322.55.55 0 01-.198.161.667.667 0 01-.22.03zm2.552-.022l.733-.967a.939.939 0 01-.49-.234.673.673 0 01-.126-.476.636.636 0 01.191-.484.978.978 0 01.734-.242h1.056v2.403h-.279v-.923h-.733l-.734.923h-.352zm1.02-1.15h.733v-1.01h-.733a.734.734 0 00-.477.138.447.447 0 00-.169.366.432.432 0 00.184.367.734.734 0 00.462.139zm2.765 1.15v-2.402h.279v1.464l1.415-1.465h.36l-1.057 1.048 1.1 1.355h-.337l-.939-1.165-.528.52v.645h-.293zm2.545 0v-2.402h.917a1.02 1.02 0 01.674.205.732.732 0 010 1.142c-.2.144-.443.216-.689.205h-.594v.85h-.308zm.279-1.099h.608a.736.736 0 00.492-.146.484.484 0 00.183-.389.44.44 0 00-.183-.38.734.734 0 00-.477-.14h-.623v1.055zm1.855 1.099l1.122-2.417h.264l1.115 2.417h-.293l-.293-.637h-1.335l-.294.637h-.286zm.69-.88h1.122l-.565-1.222-.557 1.223zm3.432.916a1.175 1.175 0 01-.88-.359 1.192 1.192 0 01-.352-.878 1.214 1.214 0 01.352-.88 1.194 1.194 0 01.888-.365c.181-.004.361.03.528.102.155.073.299.17.425.286l-.183.19a1.109 1.109 0 00-.734-.33.91.91 0 00-.682.286 1.054 1.054 0 000 1.414.91.91 0 00.682.285.925.925 0 00.418-.088c.14-.062.266-.149.375-.256l.183.19a1.59 1.59 0 01-.433.3 1.27 1.27 0 01-.587.103zm3.506-.359a1.314 1.314 0 01-1.804 0 1.266 1.266 0 010-1.757 1.292 1.292 0 011.804 0 1.216 1.216 0 01.352.879c.004.327-.123.643-.352.878zm-1.591-.175a.93.93 0 00.733.285.91.91 0 00.69-.285 1.046 1.046 0 000-1.406.939.939 0 00-.734-.293.917.917 0 00-.69.293 1.047 1.047 0 000 1.406zm3.22.498V13.11h-.859v-.25h1.93v.25h-.822v2.153h-.25zm1.591 0v-2.402h.279v.93h.623c.242-.01.482.05.69.175a.594.594 0 01.264.528.732.732 0 01-.25.564 1.015 1.015 0 01-.66.205h-.946zm.279-.25h.66a.734.734 0 00.47-.131.439.439 0 00.168-.381.41.41 0 00-.169-.352.917.917 0 00-.491-.117h-.638v.982zm1.892.25v-2.402h.279v2.402h-.279zm2.032 0v-2.402h1.936v2.402h-.278V13.11h-1.38v2.153h-.278zm4.679-.323a1.314 1.314 0 01-1.804 0 1.216 1.216 0 01-.352-.878 1.236 1.236 0 011.262-1.245 1.182 1.182 0 01.894.366 1.215 1.215 0 01.352.879c.004.327-.122.644-.352.878zm-1.591-.175a.93.93 0 00.733.285.91.91 0 00.69-.285 1.046 1.046 0 000-1.406.946.946 0 00-.734-.293.91.91 0 00-.69.293 1.046 1.046 0 000 1.406zm3.543.52a.962.962 0 01-.323-.052l.058-.22a.586.586 0 00.22 0 .343.343 0 00.125 0 .33.33 0 00.132-.124.733.733 0 00.125-.278c.046-.168.075-.34.088-.513v-1.245h1.591v2.402h-.278V13.11h-1.042v.257a6.91 6.91 0 01-.044.842 3.27 3.27 0 01-.102.564.944.944 0 01-.17.322.55.55 0 01-.197.161.666.666 0 01-.183.03zm3.117.014a.918.918 0 01-.418-.095l.11-.22a.565.565 0 00.807-.286l-1.086-1.838h.315l.91 1.604.785-1.567h.3l-.975 1.897a.834.834 0 01-.748.505zm3.667-.036v-1.026a2.06 2.06 0 01-.381.162 1.23 1.23 0 01-.39.073.859.859 0 01-.579-.183.645.645 0 01-.212-.52v-.909h.279v.872a.473.473 0 00.139.366c.11.093.252.14.396.132.26-.012.512-.09.733-.227v-1.143h.28v2.403h-.265zm.976 0v-2.402h.27v2.153h1.182V12.86h.271v2.154h1.174V12.86h.278v2.403h-3.175zm3.872 0v-2.402h.279v1.992l1.467-1.992h.264v2.402h-.272v-1.992l-1.466 1.992h-.272zm2.707 0v-2.402h.278l.903 1.31.894-1.31h.28v2.402h-.28v-1.948l-.894 1.288-.895-1.281v1.94h-.286zm6.109.534v-.534h-2.002v-2.402h.279v2.153h1.4V12.86h.28v2.154h.322l-.044.783h-.234zm.683-.534v-2.402h1.782v.248h-1.504v.82h1.372v.242h-1.342v.843h1.518v.249h-1.826zm2.383 0v-2.402h.279v1.069h1.423v-1.07h.279v2.403h-.279V14.18h-1.423v1.084h-.279zm2.435 0l1.123-2.417h.256l1.122 2.417h-.3l-.286-.637h-1.335l-.293.637h-.287zm.683-.88h1.122l-.572-1.222-.55 1.223zm2.303.88v-2.402h.286l.895 1.31.894-1.31h.279v2.402h-.279v-1.948l-.894 1.288-.895-1.281v1.94h-.286z" fill="#000"/></svg>