<svg width="86" height="20" viewBox="0 0 86 20" fill="none" xmlns="http://www.w3.org/2000/svg"><g clip-path="url(#clip0)"><path d="M21.46 14.901V1.661h7.826v1.66H23.08v4.07h5.573v1.66H23.08v4.15h6.64v1.66h-8.26v.04zm16.481 0l-2.687-3.518-2.688 3.518H30.67l3.676-4.703-3.873-4.862h2.134l2.648 3.636 2.687-3.636h2.095l-3.676 4.862 3.478 4.703h-1.897zm4.506-1.423V20h-1.62v-9.763c0-2.49 1.896-5.138 4.86-5.138 3.004 0 5.257 1.897 5.257 5.02 0 3.043-2.292 5.138-4.9 5.138-1.265 0-2.965-.553-3.597-1.779zm6.797-3.36c0-2.134-1.383-3.399-3.833-3.28-1.186.04-3.004.91-2.846 3.953.04.988 1.067 2.845 3.32 2.845 1.937 0 3.36-1.106 3.36-3.517zm3.083-4.782h1.62v1.028c.791-.91 2.016-1.226 3.32-1.226v1.74c-.197-.04-2.134-.277-3.32 2.253v5.81h-1.62V5.336zm5.375 4.783c0-2.767 1.976-5.02 4.703-5.02 3.4 0 4.664 2.253 4.664 5.138v.79H59.48c.118 1.819 1.739 2.768 3.24 2.728 1.107-.04 1.858-.356 2.648-1.146l1.067 1.107c-.988.948-2.252 1.58-3.794 1.58-2.885-.039-4.94-2.173-4.94-5.177zm4.585-3.4c-1.542 0-2.727 1.344-2.806 2.807h5.888c0-1.423-1.027-2.807-3.082-2.807zm5.612 6.838l1.186-1.067c-.04 0 .592.633.671.672.277.237.554.395.91.474 1.027.277 2.885.198 3.043-1.225.079-.79-.514-1.225-1.186-1.502-.87-.316-1.818-.435-2.688-.83-.988-.435-1.62-1.186-1.62-2.292 0-2.886 4.11-3.36 5.968-2.016.079.079.988.909.948.909l-1.185.949c-.593-.712-1.146-1.068-2.411-1.068-.632 0-1.502.277-1.66.949-.237.949.83 1.304 1.541 1.502.949.237 1.976.395 2.806.909 1.147.712 1.423 2.253.988 3.439-.474 1.304-1.897 1.818-3.161 1.857-1.502.08-2.806-.395-3.874-1.462-.078 0-.276-.198-.276-.198zm8.339 0l1.186-1.067c-.04 0 .592.633.671.672.277.237.554.395.91.474 1.027.277 2.885.198 3.043-1.225.079-.79-.514-1.225-1.186-1.502-.87-.316-1.818-.435-2.687-.83-.989-.435-1.62-1.186-1.62-2.292 0-2.886 4.11-3.36 5.967-2.016.08.079.988.909.948.909l-1.185.949c-.593-.712-1.146-1.068-2.411-1.068-.632 0-1.502.277-1.66.949-.237.949.83 1.304 1.541 1.502.949.237 1.977.395 2.806.909 1.147.712 1.423 2.253.989 3.439-.475 1.304-1.897 1.818-3.162 1.857-1.502.08-2.806-.395-3.873-1.462-.08 0-.277-.198-.277-.198zm7.707-8.221V4.308h-.356v-.197h.949v.197h-.356v1.028h-.237zm1.778 0v-.949l-.355.95h-.08l-.355-.95v.95h-.198V4.11h.316l.317.83.316-.83H86v1.225h-.277z" fill="#E43225"/><path d="M10.473 14.901L9.288 11.74H2.885L1.7 14.901H0l5.138-13.24h1.857l5.099 13.24h-1.62zM6.007 3.557l-2.41 6.562h5.019L6.007 3.557zm7.153 11.344V1.661h1.66V14.9h-1.66zm4.15 0V5.534h1.66V14.9h-1.66zM20.552 2.49v-.158A2.417 2.417 0 0118.22 0h-.237a2.417 2.417 0 01-2.332 2.332v.158a2.417 2.417 0 012.332 2.332h.237a2.417 2.417 0 012.332-2.332z" fill="#F7971D"/></g><defs><clipPath id="clip0"><path fill="#fff" d="M0 0h86v20H0z"/></clipPath></defs></svg>