<svg width="56" height="56" viewBox="0 0 56 56" fill="none" xmlns="http://www.w3.org/2000/svg"><path d="M24.872 17.02c-.811.681-1.572 1.322-2.332 1.963-1.521 1.282-3.042 2.575-4.583 3.837-.314.254-.213.55-.233.834-.01.112.091.092.162.092h.517c.071 0 .193-.04.193.091.01.143-.112.102-.183.112H15.27c-.091 0-.253.02-.253-.091 0-.133.152-.102.243-.102.558-.02.558-.01.558-.57 0-2.442 0-4.895.01-7.337 0-.285-.051-.377-.365-.377-.142 0-.426.02-.426-.101 0-.133.284-.102.426-.102.963-.01 1.926-.01 2.89 0 .09 0 .243-.04.243.112 0 .132-.163.101-.254.101-.618.02-.618.02-.618.621v6.015c.527-.438 1.003-.845 1.48-1.242 1.825-1.537 3.65-3.083 5.475-4.61.254-.214.163-.458.173-.702 0-.092-.112-.071-.183-.082h-.476c-.071 0-.122-.02-.122-.101 0-.082.05-.112.122-.102h3.112c.102 0 .294-.03.284.092.01.162-.172.111-.273.111-.548.01-.548.01-.548.57 0 2.463.01 4.916-.01 7.378 0 .285.06.346.345.346h.284c.09 0 .192-.02.192.092 0 .102-.111.102-.182.102h-3.113c-.081 0-.233.01-.233-.112 0-.102.132-.082.233-.082.568 0 .568-.02.568-.59v-5.73c.02-.142.02-.254.02-.437zM6.327 19.91c-1.105 0-2.2.01-3.305-.01-.244 0-.305.07-.305.304.01 1.09.01 2.168 0 3.257 0 .224.051.285.284.285h.477c.08 0 .121.03.111.112 0 .071-.05.091-.101.091H.243c-.08 0-.233.03-.243-.101 0-.112.162-.092.253-.092.619-.02.619-.01.619-.651V15.89c0-.479.06-.418-.436-.418H.152c-.081 0-.152 0-.152-.112s.091-.101.162-.101h3.214c.082 0 .223-.02.223.101 0 .123-.121.102-.212.102-.65.03-.65.03-.65.692 0 .906.01 1.801-.01 2.707 0 .224.061.285.284.285 2.21-.01 4.431-.01 6.642 0 .223 0 .284-.061.284-.285a162.66 162.66 0 010-3.124c0-.214-.04-.265-.274-.265h-.446c-.071 0-.162.01-.162-.101 0-.112.07-.112.152-.112h3.275c.07 0 .162-.01.162.101 0 .112-.081.112-.183.112-.223.01-.568-.05-.638.061-.082.123-.041.458-.041.692 0 2.392 0 4.794-.01 7.185 0 .265 0 .346.335.346h.253c.132.01.274-.02.274.102.01.112-.162.091-.254.091-1.024.01-2.058.01-3.082 0-.091 0-.243.03-.243-.101 0-.112.162-.092.243-.092.618-.02.628-.01.628-.641 0-.967-.01-1.934.01-2.9 0-.245-.07-.306-.304-.306-1.095.01-2.2 0-3.305 0zm26.343.05c1.865-1.455 3.68-2.86 5.495-4.274.07-.05.132-.102.263-.214h-.861c-.071 0-.153 0-.163-.101 0-.112.081-.102.152-.102h3.052c.082 0 .163 0 .163.102 0 .111-.051.101-.163.101-.537-.02-.8.194-1.135.458a563.217 563.217 0 01-3.894 3.002c-.162.123-.203.184-.01.346a524.227 524.227 0 015.12 4.336c.193.162.386.142.599.152.07 0 .182-.04.182.102 0 .122-.121.102-.192.102-1.024 0-2.059.01-3.083 0-.101 0-.304.05-.314-.102.01-.173.213-.03.314-.153-.649-.57-1.308-1.15-1.967-1.72-.67-.59-1.338-1.17-2.008-1.76-.131-.112-.212-.132-.344-.01-.355.295-.72.57-1.095.845-.112.08-.152.183-.152.325.01.713.01 1.415 0 2.127 0 .193.03.254.243.254h.385c.092 0 .233-.01.244.112 0 .112-.152.092-.234.092h-3.153c-.081 0-.213.02-.213-.112 0-.112.122-.092.203-.092.608-.03.608-.03.608-.64 0-2.423-.01-4.855.01-7.277 0-.305-.09-.377-.375-.366-.142.01-.446.03-.426-.102.02-.122.284-.092.426-.102.953-.01 1.907-.01 2.86 0 .101 0 .283-.03.273.112 0 .112-.142.092-.253.102-.598.02-.598.01-.598.63.04 1.232.04 2.494.04 3.827z" fill="#09273A"/><path d="M27.954 1.398c-.385-.02-.628-.295-.618-.702.01-.356.365-.672.73-.651.355.02.639.335.618.722-.01.377-.324.651-.73.631z" fill="#0A283A"/><path d="M28.035 9.01a.704.704 0 01-.7-.712c0-.336.335-.651.7-.641a.67.67 0 01.65.661.698.698 0 01-.65.692z" fill="#0A273A"/><path d="M51.843 47.121c-.619-1.027-1.612-1.567-2.707-1.933-1.44-.489-2.92-.59-4.421-.6-1.835-.01-3.61.315-5.364.834-2.383.702-4.644 1.7-6.844 2.84a.622.622 0 01-.568.03c-1.298-.54-2.606-1.059-3.914-1.578-.76-.305-1.52-.59-2.322-.895.984-.448 1.947-.865 2.89-1.303 1.988-.926 4.005-1.75 6.185-2.116 1.116-.184 2.22-.255 3.346-.02a10.65 10.65 0 011.592.477c.081.031.172.082.213-.02.04-.102-.071-.142-.142-.173-.193-.071-.385-.132-.578-.203a8.378 8.378 0 00-3.204-.52c-2.058.072-3.995.621-5.901 1.364-1.653.641-3.235 1.425-4.847 2.168-.132.06-.253.122-.415.06-1.48-.59-3.022-.966-4.563-1.373a34.419 34.419 0 00-5.658-1.048 23.931 23.931 0 00-5.658.132c-1.825.265-3.417.957-4.704 2.32-.507.54-.72 1.181-.781 1.883-.142 1.557 1.146 2.758 2.403 3.246 1.034.407 2.119.489 3.204.51.152 0 .223.03.233.213.03 1.14.68 1.893 1.602 2.422.832.468 1.764.631 2.697.733 1.724.183 3.417-.02 5.09-.356 2.687-.53 5.293-1.334 7.777-2.514.122-.061.233-.112.385-.05.893.365 1.795.732 2.708 1.078 2.484.956 4.958 1.984 7.564 2.575 2.129.488 4.268.875 6.469.61.841-.102 1.673-.234 2.413-.682.922-.55 1.46-1.394 1.723-2.412.082-.315.183-.519.538-.61.395-.092.77-.255 1.136-.418.79-.335 1.52-.773 2.098-1.434.76-.875.913-2.27.325-3.236zM9.003 50.99c-1.064-.03-2.118-.102-3.102-.53-1.196-.519-2.078-1.323-2.21-2.717-.071-.763.152-1.435.669-2.015.994-1.099 2.271-1.658 3.7-1.882 1.704-.265 3.408-.173 5.111.02a35.66 35.66 0 016.023 1.2c1.369.408 2.727.856 4.147 1.314-1.014.498-1.977.956-2.93 1.424-.092.051-.183.03-.284.01-2.363-.519-4.735-.681-7.118-.172-1.045.223-2.008.64-2.789 1.414a3.032 3.032 0 00-.861 1.649c-.051.244-.142.295-.355.285zm9.562-2.351c-.851.346-1.632.651-2.403.967-1.936.803-3.964 1.16-6.043 1.302-.69.051-.72.194-.436-.6.325-.916 1.055-1.394 1.917-1.71 1.389-.499 2.818-.57 4.258-.407a25.4 25.4 0 012.707.448zm4.35 4.09c-1.845.58-3.69 1.12-5.617 1.385-1.775.244-3.539.305-5.273-.173-.861-.244-1.662-.631-2.16-1.445a2.59 2.59 0 01-.364-1.048c-.03-.204.03-.275.243-.285.983-.062 1.957-.153 2.92-.346a30.254 30.254 0 006.094-1.903.803.803 0 01.558-.061c1.875.417 3.63 1.16 5.404 1.862.497.193.983.397 1.541.62a18.743 18.743 0 01-3.346 1.395zm4.664-2.289c-2.16-.926-4.34-1.822-6.62-2.432-.021 0-.031-.03-.072-.071.629-.265 1.268-.499 1.856-.804.81-.428 1.551-.53 2.453-.153 1.805.743 3.65 1.404 5.537 2.147-.994.458-1.917.886-2.84 1.313a.376.376 0 01-.314 0zm17.764 4.305c-1.906.397-3.792.193-5.688-.163-2.94-.56-5.718-1.639-8.497-2.677-.861-.325-1.713-.64-2.555-1.017-.111-.051-.233-.112-.385-.183 1.034-.458 2.038-.896 3.042-1.344.142-.06.253.01.365.061 2.373.926 4.765 1.791 7.24 2.443 2.098.55 4.207.936 6.387.875a9.95 9.95 0 002.058-.265c.102-.02.203-.07.305-.03-.233 1.2-1.075 2.045-2.272 2.3zm5.435-4.02c-.831.61-1.805.845-2.819 1.028-.03-.255-.04-.499-.08-.733-.203-1.16-.832-2.025-1.805-2.646-1.542-.967-3.194-1.078-4.888-.56-.446.133-.841.408-1.075.855-.1.204-.111.377.041.56.162.193.355.305.608.285.122-.01.153-.102.183-.193.04-.102-.01-.153-.081-.224-.335-.316-.304-.662.101-.936.406-.285.882-.377 1.37-.408 1.743-.132 3.345.204 4.572 1.568.578.64.78 1.434.852 2.269.02.193-.102.173-.223.183-1.278.061-2.535.01-3.803-.152-3.69-.469-7.189-1.65-10.646-2.952-.05-.02-.091-.05-.162-.091 3.153-1.466 6.306-2.88 9.744-3.4 2.27-.345 4.542-.304 6.752.428a4.25 4.25 0 011.866 1.201c1.156 1.282.66 3.053-.507 3.918zM32.933 1.887V.279c0-.082.01-.204-.05-.234-.123-.061-.853-.102-1.157.173-1.216 1.13-2.342 2.35-3.508 3.541-.162.163-.243.183-.416.01-1.044-1.068-2.129-2.116-3.163-3.205-.375-.397-.72-.56-1.308-.53-.223.01-.284.072-.284.296.01 1.394.01 2.788.01 4.182V8.38c0 .631 0 .621.629.641.405.01.628-.091.892-.366 1.054-1.099 2.14-2.168 3.204-3.256.183-.184.274-.163.436.01.994 1.017 2.028 2.004 2.991 3.053.406.437.811.63 1.39.57.253-.031.334-.062.334-.336V1.887zm-5.658 2.829c-1.115 1.078-2.22 2.167-3.316 3.226V1.164c.082 0 .142.081.193.132 1.024 1.028 2.048 2.066 3.072 3.094.092.102.223.163.051.326zm4.826 3.358c-.365-.377-.7-.712-1.024-1.038-.76-.763-1.52-1.537-2.291-2.3-.081-.081-.213-.142-.05-.295 1.114-1.089 2.21-2.198 3.365-3.338v6.971zm23.656 15.682c-.335-.01-.447-.071-.619-.346l-.101-.163c-1.623-2.585-3.336-5.108-4.877-7.744-.071-.122-.112-.255-.294-.244-.73.01-1.46 0-2.251 0 .131.193.223.346.324.488.183.265.183.407.01.662a572.462 572.462 0 00-4.309 6.655c-.284.448-.517.662-1.156.682-.06 0-.162-.03-.172.081-.01.143.101.112.172.112h2.687c.071 0 .193.041.183-.102 0-.142-.122-.091-.193-.091-.193-.01-.375 0-.629 0 .558-.906 1.085-1.74 1.613-2.595.07-.112.141-.153.283-.153 1.49.01 2.971.01 4.462 0 .203 0 .304.072.405.234.467.753.953 1.496 1.43 2.25.05.07.101.152.111.254h-.577c-.082 0-.234-.02-.224.091 0 .122.132.112.213.112h3.529c.081 0 .223.02.223-.091 0-.112-.162-.092-.243-.092zm-9.065-3.531c.68-1.079 1.328-2.117 2.008-3.206.669 1.069 1.328 2.117 2.007 3.206h-4.015z" fill="#09273A"/></svg>