<svg width="121" height="13" viewBox="0 0 121 13" fill="none" xmlns="http://www.w3.org/2000/svg"><g clip-path="url(#clip0)"><path fill-rule="evenodd" clip-rule="evenodd" d="M23.302 10.549l-.507-4.084-.834 4.084h-1.157l-.924-4.084-.555 4.084h-2.034l1.178-8.122h2.103l.765 3.585.809-3.586h2.036l1.155 8.123h-2.035zm7.007-8.122v2.04h-2.057v1.047h1.455v2.042h-1.455v.974h2.057v2.019h-4.095V2.427h4.095zm1.11 0h4.487v2.206H34.68v5.914h-2.06V4.635h-1.2v-2.21.002zm5.248 8.122l2.012-8.122h2.382l2.013 8.122H41.06l-.324-1.163h-1.733l-.301 1.163h-2.036zm3.7-2.78l-.484-2.064-.531 2.068h1.017l-.002-.004zm7.677-5.342l1.62 8.122h-2.058l-.88-6.056h-.163l-.9 6.056h-2.035L45.2 2.427h2.844zm6.59 0l1.643 8.122h-2.058l-.88-6.056h-.162l-.901 6.056H50.24l1.596-8.122h2.797zm8.51 0v8.122h-2.058V6.82l-1.896 3.728h-2.034V2.427h2.034v3.918l2.034-3.92h1.92v.002zm3.515 0v3.087h1.55V2.426h2.034v8.123h-2.034v-2.99h-1.55v2.992h-2.034V2.429h2.034v-.002zm8.116 0a1.66 1.66 0 011.318.593c.322.403.486.926.486 1.544 0 .498-.07.878-.209 1.163-.14.261-.322.452-.555.523.357.095.67.314.88.618.254.356.368.808.368 1.33 0 .737-.162 1.33-.508 1.735-.37.427-.855.618-1.503.618h-3.399V2.424h3.122v.003zM73.71 4.182v1.165h.348c.299 0 .462-.189.462-.569 0-.405-.163-.596-.462-.596h-.348zm0 3.09v1.187h.531c.326 0 .51-.19.51-.594 0-.189-.046-.332-.138-.427a.538.538 0 00-.372-.167h-.531zm8.51-4.846V4.47h-2.058v1.046h2.034v2.042h-2.032v.974h2.057v2.019H78.13V2.429h4.093l-.002-.003zm4.671 2.614a1.03 1.03 0 00-.855.402c-.188.261-.278.617-.278 1.046 0 .403.09.76.3 1.045a.96.96 0 00.833.403c.23 0 .394 0 .508-.047.138-.024.254-.073.346-.118v2.78a1.518 1.518 0 01-.277.07c-.115.024-.323.024-.577.024-1.064 0-1.921-.403-2.567-1.283-.578-.784-.856-1.735-.856-2.874 0-1.117.278-2.067.856-2.852.624-.854 1.48-1.281 2.567-1.281.185 0 .345 0 .484.023.14.048.254.073.37.095v2.756a2.674 2.674 0 00-.277-.12 2.255 2.255 0 00-.577-.069zm1.942-2.614h4.508v2.209h-1.225v5.914h-2.058V4.635h-1.225v-2.21zm7.815 3.016h1.249c.578 0 1.064.214 1.432.643.417.45.604 1.044.604 1.828s-.187 1.426-.58 1.925a1.822 1.822 0 01-1.456.71H94.59v-8.12h4.741v1.707h-2.683v1.308-.001zm0 1.973v1.163h.51c.345 0 .507-.19.507-.593 0-.19-.045-.334-.138-.429a.48.48 0 00-.37-.141h-.509zm3.932 3.134l2.012-8.122h2.357l2.012 8.122h-2.012l-.299-1.163h-1.759l-.301 1.163h-2.012.002zm3.677-2.825l-.486-1.972-.533 1.972h1.019zm5.802-5.298v3.088h1.527V2.426h2.036v8.123h-2.036v-2.99h-1.527v2.992h-2.057V2.429h2.057v-.003zm7.052 0V5.37l1.413-2.944h2.103l-1.804 3.776 1.872 4.346h-2.102l-1.48-3.492v3.492h-2.036V2.427h2.036l-.002-.001zM6.775 0c3.444.127 6.196 2.969 6.218 6.452a6.526 6.526 0 01-1.875 4.608A6.498 6.498 0 016.544 13a6.497 6.497 0 01-4.604-1.874A6.526 6.526 0 010 6.54a6.527 6.527 0 011.782-4.513A6.498 6.498 0 016.182 0l.007 1.848a4.668 4.668 0 00-3.11 1.48A4.688 4.688 0 001.827 6.54a4.669 4.669 0 001.754 3.612l1.763-4.651-1.224.009s-.241-.05-.379.065l-.29.28s-.024-.767.01-.847c.035-.098.133-.866.474-1.259.344-.378.894-.43.894-.43l3.915-.028-.565.59 1.36 6.156a4.658 4.658 0 00.329-6.745 4.666 4.666 0 00-3.11-1.445L6.775 0zM5.279 3.835c.118 0 .218.091.218.204a.21.21 0 01-.214.203c-.12.002-.218-.089-.218-.2a.21.21 0 01.214-.207z" fill="#003082"/></g><defs><clipPath id="clip0"><path fill="#fff" d="M0 0h121v13H0z"/></clipPath></defs></svg>