<svg width="98" height="20" viewBox="0 0 98 20" fill="none" xmlns="http://www.w3.org/2000/svg"><path d="M20.493 7.643v8.31h1.993v-8.31a1.67 1.67 0 011.666-1.662h4.343V3.99h-4.329c-2.021 0-3.673 1.636-3.673 3.652zm8.999 0v8.31h2.007v-8.31a1.67 1.67 0 011.667-1.662H35.5v9.973h1.994V3.992h-4.33c-2.02 0-3.673 1.635-3.673 3.65zM97.5 5.98V3.993h-8.003v11.975h4.33a3.655 3.655 0 003.659-3.651V8.978H91.49V5.981h6.01zm-2.008 5v1.336a1.67 1.67 0 01-1.666 1.662h-2.335v-2.997h4.001zM59.495 7.643v4.66a3.656 3.656 0 003.66 3.65h4.328v-1.989h-4.329a1.67 1.67 0 01-1.666-1.662v-4.66a1.67 1.67 0 011.666-1.661h4.33V3.99h-4.33c-2.007 0-3.66 1.636-3.66 3.652zm-19.993 0v8.31h1.994v-2.997h4.001v2.998h1.994V3.992h-4.33a3.656 3.656 0 00-3.66 3.65zm5.995 3.338h-4.001V7.643a1.67 1.67 0 011.666-1.662h2.335v5zM79.5 7.643v8.31h1.995v-2.997h4v2.998h1.995V3.992h-4.33a3.656 3.656 0 00-3.66 3.65zm5.996 3.338h-4.001V7.643A1.67 1.67 0 0183.16 5.98h2.335v5zM75.5 10.98h-4.002V3.993h-2.007v11.975h2.007V12.97H75.5v2.997h1.994V3.992H75.5v6.989zm-26.002 4.974h8.003v-3.311c0-1.05-.45-1.99-1.161-2.657A3.637 3.637 0 0057.5 7.33V3.992h-8.002v11.962zm1.994-9.973h4.001v1.335a1.67 1.67 0 01-1.666 1.662h-2.335V5.981zm0 5h2.335c.915 0 1.666.75 1.666 1.662v1.335h-4v-2.997z" fill="#333"/><path d="M14.525 1.485a29.144 29.144 0 00-1.502-.286V0h-2.008v.94C10.51.9 10.018.858 9.513.845V0H7.52v.845C7.014.858 6.51.899 6.017.94V0H4.01v1.185c-.506.082-1.01.177-1.503.286V0H.5v3.965l1.748-.382h.027a25.684 25.684 0 0112.455 0l1.802.395V0H14.54v1.485h-.014zm1.243 4.537a26.387 26.387 0 00-14.544 0L.5 6.226v2.602c0 4.878 3.073 9.306 7.647 11.036l.355.136.356-.136c4.574-1.717 7.647-6.158 7.647-11.036V6.226l-.737-.204zM2.494 8.828v-1.09a24.52 24.52 0 0112.004 0v1.24h-3.333a3.656 3.656 0 00-3.66 3.651v4.728c-3.045-1.717-5.01-4.973-5.01-8.529zm7.005 8.529v-4.714a1.67 1.67 0 011.666-1.662h3.087a9.806 9.806 0 01-4.753 6.376z" fill="#DF2040"/></svg>