<svg width="70" height="50" viewBox="0 0 70 50" fill="none" xmlns="http://www.w3.org/2000/svg"><path d="M67.52 2.472H2.48v45.056h65.04V2.472zm-.313.31v44.432H2.8V2.79l64.407-.007z" fill="#010101"/><path d="M0 0v50h70V0H0zm68.464 48.56H1.536V1.526h66.928V48.56z" fill="#010101"/><path d="M23.433 16.99h3.095v2.041h-3.095v4.175h3.893v2.041h-6.147V10.963h6.147v2.04h-3.893v3.987zm11.618 5.629l1.721-11.656h2.072l-2.215 14.29h-3.357l-2.213-14.29h2.274l1.718 11.656zM45.07 16.99h3.094v2.041H45.07v4.175h3.892v2.041h-6.147V10.963h6.146v2.04H45.07v3.987zM15.174 31.568l-.305.568v1.91h-.984v-6.221h.984v2.71l1.285-2.71h.981l-1.368 2.772 1.365 3.45h-1.007l-.95-2.48zm5.726-3.743h.98v6.222h-.98v-6.222zm4.734 0h3.033v.89H27.64v5.332h-.982v-5.332h-1.024v-.89zm9.624 3.905v.83c0 .995-.5 1.563-1.463 1.563-.962 0-1.458-.57-1.458-1.566v-3.239c0-.995.499-1.565 1.463-1.565.964 0 1.463.57 1.463 1.566v.604h-.928v-.668c0-.443-.196-.61-.508-.61s-.51.169-.51.61v3.361c0 .444.197.605.51.605s.508-.16.508-.605v-.886h.923zm4.9 2.317h-.98v-6.222h.98v2.666h1.113v-2.666h1.004v6.222h-.996V31.38h-1.121v2.666zm7.132-3.6h1.351v.89H47.29v1.82h1.696v.89h-2.677v-6.222h2.676v.89H47.29v1.732zm6.495-.907v4.507h-.883v-6.222h1.231l1.009 3.724v-3.724h.874v6.222H55.01l-1.224-4.507zM16.333 10.959h-2.257v14.296h2.257V10.96zm39.779 0h-2.256v14.296h2.256V10.96zM22.158 36.637a.812.812 0 01.564.182.713.713 0 01.202.555.859.859 0 01-.118.472.54.54 0 01-.362.234v.008c.12.01.232.06.319.141.077.1.12.222.124.348 0 .054.01.112.012.175l.008.207c.005.153.014.269.024.35a.225.225 0 00.104.163v.025h-.624a.32.32 0 01-.056-.139 1.557 1.557 0 01-.017-.162l-.015-.55a.45.45 0 00-.085-.264.315.315 0 00-.257-.096h-.312v1.211h-.58v-2.86h1.07zm-.25 1.251a.477.477 0 00.323-.103.42.42 0 00.112-.33c0-.266-.134-.399-.402-.399h-.273v.83l.24.002zm4.859.746c0 .066.004.133.013.198a.434.434 0 00.053.157c.025.043.06.078.104.103a.39.39 0 00.337 0 .28.28 0 00.104-.103.432.432 0 00.053-.157c.01-.066.014-.132.014-.198v-1.997h.579v1.997a1.15 1.15 0 01-.076.45.698.698 0 01-.502.423 1.754 1.754 0 01-.684.004.666.666 0 01-.502-.41 1.216 1.216 0 01-.077-.467v-1.997h.58l.004 1.997zm4.905.056a.9.9 0 00.017.182.29.29 0 00.179.227c.06.023.123.034.187.032.087 0 .172-.03.239-.087a.323.323 0 00.104-.266.473.473 0 00-.027-.167.326.326 0 00-.086-.126.575.575 0 00-.16-.104 2.176 2.176 0 00-.243-.094 2.039 2.039 0 01-.334-.14.887.887 0 01-.234-.179.632.632 0 01-.14-.236 1.01 1.01 0 01-.044-.311c0-.284.079-.495.238-.634a.954.954 0 01.652-.207c.12-.002.239.013.355.042a.75.75 0 01.282.136c.08.064.144.147.185.24.047.111.07.231.066.352v.08h-.555a.567.567 0 00-.072-.312.265.265 0 00-.242-.11.41.41 0 00-.16.028.264.264 0 00-.158.178.553.553 0 00-.013.124.414.414 0 00.056.223.503.503 0 00.241.167l.447.192c.096.04.186.09.27.15a.726.726 0 01.167.168.55.55 0 01.086.2c.017.078.024.159.024.24 0 .302-.088.522-.263.66-.215.15-.474.222-.735.207-.327 0-.562-.07-.702-.213a.827.827 0 01-.208-.609v-.116h.58l.001.083zm4.906 0a.9.9 0 00.016.182.29.29 0 00.179.227.48.48 0 00.188.032c.087 0 .172-.03.239-.087a.322.322 0 00.104-.266.497.497 0 00-.026-.167.338.338 0 00-.088-.126.585.585 0 00-.158-.104 2.265 2.265 0 00-.244-.094 2.078 2.078 0 01-.334-.14.887.887 0 01-.235-.179.648.648 0 01-.14-.236 1.01 1.01 0 01-.043-.311c0-.284.08-.495.237-.634a.954.954 0 01.652-.207c.12-.002.24.013.357.042a.762.762 0 01.282.136.65.65 0 01.185.24.864.864 0 01.066.352v.08h-.556a.575.575 0 00-.072-.312.267.267 0 00-.242-.11.4.4 0 00-.16.028.26.26 0 00-.156.178.548.548 0 00-.015.124.414.414 0 00.056.223.508.508 0 00.242.167l.447.192c.095.04.185.09.269.15a.725.725 0 01.167.168.55.55 0 01.087.2c.017.078.025.159.024.24 0 .302-.088.522-.263.66-.215.15-.473.222-.735.207-.327 0-.561-.071-.702-.213a.827.827 0 01-.208-.609v-.116h.579v.083zm4.468-2.053h.579V39.5h-.58v-2.863zm5.102 0l.76 2.863h-.603l-.132-.606h-.766l-.131.606h-.605l.767-2.863h.71zm-.076 1.784l-.278-1.287h-.008l-.278 1.287h.564z" fill="#010101"/></svg>