<svg width="84" height="18" viewBox="0 0 84 18" fill="none" xmlns="http://www.w3.org/2000/svg"><path fill-rule="evenodd" clip-rule="evenodd" d="M0 0h11.886v14H8.42V3.5H3.467V14H0V0zm29.3 14h-3.05V4h3.464v4.5h.497L33.6 4h3.05v10h-3.466V9.5h-.495L29.3 14zm34.669 0h-3.051V4h3.465v4.5h.497L68.268 4h3.05v10h-3.466V9.5h-.496L63.97 14zm-15.433 0H45.07v-3.5h-2.971V14H38.63V4h3.467v3.5h2.971V4h3.467v10zM20.306 3.75c2.288 0 4.457 2.019 4.457 5.25s-2.169 5.25-4.457 5.25c-.997 0-1.816-.25-2.475-.752h-.497V18h-3.466V4h3.466v.5h.497c.66-.5 1.478-.75 2.475-.75zm57.956 0C81.541 3.75 83.7 5.769 83.7 9s-2.16 5.25-5.438 5.25c-3.259 0-5.458-2.019-5.458-5.25s2.2-5.25 5.458-5.25zM59.432 4v3H56.46v7h-3.467V7h-2.971V4h9.41zM19.315 6.5c-1.397 0-1.98 1.126-1.98 2.5 0 1.393.583 2.5 1.98 2.5 1.379 0 1.981-1.107 1.981-2.5 0-1.374-.602-2.5-1.98-2.5zm58.937 0c-1.397 0-1.981 1.126-1.981 2.5 0 1.393.584 2.5 1.981 2.5 1.378 0 1.981-1.107 1.981-2.5 0-1.374-.603-2.5-1.98-2.5z" fill="#2A3133"/></svg>