<svg width="100" height="22" viewBox="0 0 100 22" fill="none" xmlns="http://www.w3.org/2000/svg"><path fill-rule="evenodd" clip-rule="evenodd" d="M7.375 18.711v-.001h-.033a6.727 6.727 0 01-.18-.012v-.006h-.08l-.114-.011v-.007h-.066l-.13-.015v-.003h-.018a7.55 7.55 0 01-.124-.017h-.006a3.368 3.368 0 01-.082-.013v-.005h-.036l-.07-.013v-.005h-.032l-.057-.01v-.008h-.042a1.52 1.52 0 01-.064-.013v-.005h-.025l-.063-.012v-.006h-.024l-.065-.014v-.003h-.015l-.144-.035v-.001h-.007l-.064-.016v-.002h-.007l-.046-.012v-.006H5.76l-.049-.013v-.005h-.017l-.036-.01v-.007h-.029l-.042-.013v-.005H5.57l-.036-.011v-.007H5.51l-.046-.014v-.004H5.45l-.04-.013v-.005h-.014a8.44 8.44 0 01-.251-.084v-.004h-.012l-.042-.015v-.002h-.007l-.028-.01v-.008h-.02l-.033-.012v-.005H4.99l-.04-.015v-.002h-.007l-.028-.012v-.006h-.016l-.037-.015v-.003h-.007l-.028-.011v-.006H4.81l-.037-.016v-.002H4.77a8.512 8.512 0 01-.242-.106l-.035-.017v-.001h-.004l-.032-.015v-.003H4.45l-.029-.014v-.004h-.01l-.027-.013v-.005h-.009l-.026-.013v-.005h-.01l-.026-.012v-.005h-.011l-.024-.013v-.005h-.011l-.025-.012v-.006h-.01l-.025-.013v-.005h-.01l-.026-.013v-.005h-.008l-.027-.014v-.003h-.007l-.029-.016v-.002h-.004l-.031-.017v-.001h-.002a5.26 5.26 0 01-.157-.088v-.001h-.002l-.052-.03v-.006h-.01l-.024-.014v-.003h-.005l-.048-.03v-.006h-.01l-.025-.015v-.003h-.005l-.049-.03v-.006h-.009l-.026-.016v-.002H3.64l-.015-.01v-.007H3.61l-.023-.015v-.003h-.005l-.048-.03v-.006h-.008a7.36 7.36 0 01-.204-.138v-.003h-.005l-.048-.035v-.001h-.002a2.301 2.301 0 01-.068-.05v-.004h-.006l-.047-.034V17.2h-.001l-.017-.013v-.005h-.007l-.046-.035-.018-.014v-.005h-.006c-.021-.016-.043-.032-.064-.05v-.003h-.004c-.023-.017-.044-.035-.066-.053a7.555 7.555 0 01-.212-.175v-.003h-.003l-.015-.012v-.006h-.006l-.012-.01v-.007h-.008l-.08-.07-.018-.016v-.003H2.56l-.015-.014v-.004h-.004l-.014-.012v-.005h-.005l-.013-.011v-.006h-.007l-.01-.01v-.008h-.009a8.09 8.09 0 01-.398-.398v-.01h-.011l-.007-.008v-.01h-.01l-.008-.01v-.008h-.008l-.01-.011v-.007h-.006l-.011-.013v-.005H2.01l-.013-.015v-.003h-.003l-.015-.016v-.001a7.114 7.114 0 01-.124-.14v-.002h-.001c-.03-.034-.058-.07-.087-.105v-.002h-.002l-.05-.062v-.009h-.008l-.01-.013v-.004h-.004l-.05-.064v-.008h-.006l-.012-.014v-.003h-.002l-.033-.044v-.01h-.008l-.01-.013v-.005H1.57l-.032-.042v-.011H1.53l-.01-.013v-.005h-.004l-.05-.068v-.003h-.002c-.017-.024-.034-.047-.05-.072l-.036-.05v-.003h-.002l-.034-.05v-.004H1.34l-.033-.048v-.005h-.004l-.032-.049v-.004h-.003l-.015-.023v-.013h-.008l-.01-.014v-.003h-.002l-.015-.024v-.012H1.21l-.01-.016v-.002h-.001l-.017-.026v-.008h-.005l-.03-.048v-.006h-.003l-.033-.053-.017-.029v-.006H1.09a7.55 7.55 0 01-.103-.178l-.018-.031v-.005H.966l-.015-.027v-.008H.946l-.013-.024v-.011H.927l-.012-.022v-.014H.908l-.028-.053-.018-.034v-.002H.861l-.016-.033v-.003H.843l-.016-.032v-.003H.825l-.016-.032v-.004H.808l-.017-.032v-.004H.79l-.016-.031v-.004H.773l-.016-.034v-.001H.756a5.966 5.966 0 01-.087-.19v-.005H.666l-.015-.034v-.002l-.018-.038v-.015H.626l-.01-.026v-.01H.611l-.014-.033v-.002l-.017-.04v-.014H.574l-.012-.029v-.006H.56l-.016-.039v-.014H.54l-.012-.031v-.005H.526l-.016-.04v-.014H.505l-.012-.033v-.002H.492a.79.79 0 00-.017-.046v-.007H.473a7.761 7.761 0 01-.05-.14v-.002H.421l-.017-.052v-.002l-.017-.05v-.003l-.017-.05v-.02H.364l-.012-.037v-.017H.347l-.013-.04v-.011H.33l-.013-.045v-.027H.309l-.01-.035v-.018H.293l-.012-.044v-.009H.278l-.015-.055v-.015H.26l-.013-.052v-.002H.245a4.17 4.17 0 01-.035-.14v-.002a1.995 1.995 0 01-.018-.073v-.016H.188l-.013-.064v-.025H.169l-.012-.058v-.032H.15l-.011-.055v-.033H.133l-.012-.061v-.028H.116a2.435 2.435 0 01-.013-.074v-.015H.101a17.89 17.89 0 01-.033-.216v-.033H.063l-.013-.102v-.057H.043a4.454 4.454 0 01-.01-.101v-.077H.024a9.65 9.65 0 01-.02-.264l.007.157H.01a10.823 10.823 0 01-.01-.157v-.646c.002-.112.007-.222.012-.332h.003v-.04c.004-.088.01-.176.017-.262v-.004l.014-.174H.05v-.032l.018-.163c.01-.09.021-.178.033-.267h.003v-.016l.015-.108H.12v-.016l.017-.108h.001v-.003c.016-.1.033-.2.053-.299v-.004l.016-.084h.002v-.01a3.73 3.73 0 01.017-.079h.001v-.005l.018-.084.052-.231h.001v-.004l.016-.067h.002v-.008l.016-.064h.002v-.006l.017-.065v-.004l.018-.067c.022-.084.046-.167.07-.249H.44v-.005l.052-.173v-.003c.04-.124.08-.247.123-.37h.002V7.32l.016-.046V7.27l.071-.192v-.001L.773 6.9h.001v-.004l.034-.085H.81v-.005l.036-.083C.862 6.682.88 6.64.898 6.6v-.002c.024-.053.048-.105.071-.159l.015-.035h.003V6.4c.04-.088.08-.175.123-.262l.053-.106c.05-.102.103-.202.157-.302h.003v-.003l.017-.033c.046-.083.092-.166.14-.248h.002v-.003l.05-.086h.003v-.004a8.71 8.71 0 01.23-.368v-.002l.034-.052h.002V4.93l.034-.051v-.002l.035-.052v-.001c.013-.017.024-.035.036-.052V4.77l.124-.177.05-.07h.002v-.005c.07-.094.14-.188.211-.28h.002v-.002l.068-.086h.003v-.004l.069-.086h.002v-.003l.07-.086h.001l.089-.106.121-.142h.002v-.002l.142-.157c.213-.236.437-.46.67-.675h.002v-.001l.176-.16h.001l.12-.105h.004V2.62a9.98 9.98 0 01.299-.246h.002v-.002l.086-.07h.002l.068-.053h.003v-.002c.07-.054.14-.106.211-.157h.002v-.002l.12-.087h.003v-.003c.06-.04.118-.082.177-.121h.001v-.001l.106-.07c.063-.043.127-.084.191-.125h.003V1.68c.105-.066.211-.13.318-.194h.001l.122-.07h.002c.258-.147.522-.283.791-.408h.005v-.003L6.38.99h.002V.988l.157-.07h.003V.917A8.82 8.82 0 016.791.81l.087-.035h.002L6.968.74c.11-.043.222-.084.335-.124h.002l.048-.018h.005V.597L7.403.58h.007V.578l.047-.015h.007l.048-.016h.005V.546l.159-.051.118-.036h.007V.457L7.853.44l.123-.035h.001c.064-.018.13-.036.194-.052l.071-.018.218-.054h.013V.28L8.54.264h.003l.16-.035c.09-.019.181-.037.273-.054h.01V.174C9.09.155 9.195.138 9.3.122h.003l.118-.018h.006c.043-.007.086-.012.13-.018h.011V.085c.103-.013.206-.024.31-.034h.01V.05l.194-.017h.018V.03l.258-.016h.025A10.765 10.765 0 0111.029 0c.041 0 .082 0 .124.002.05 0 .1.002.15.004l.125.004.053.002v.002h.027l.067.004.126.008.046.003v.003h.035l.065.005.12.01.151.016.017.001v.003h.021l.08.009.057.007v.002h.012l.077.01.053.007h.004l.064.009.056.008V.12h.003l.085.013.018.003V.14h.01l.091.015h.005v.003h.011c.032.005.063.01.094.017h.005l.028.006.119.023.143.029.058.012v.003h.01l.047.01.032.007h.002l.07.016v.002h.008l.039.01.105.024.155.04.047.012v.003h.01l.044.012.017.005V.39h.005l.118.034v.002h.007l.109.03.148.047.09.028v.001h.003l.006.002.045.015h.003l.05.018h.003l.05.018h.003l.05.017h.002l.043.016.15.054v.002h.004l.09.033.048.019v.001h.003l.102.04.092.036.145.061.011.005.036.015v.003h.007l.04.018.041.017.036.016V.94h.005l.068.03.087.04.154.074.077.037c.051.025.102.05.153.077.028.014.055.027.08.041l.102.054v.001h.003l.032.018.01.006c.027.014.054.028.081.044l.069.038h.001l.078.045.075.044.145.086v.003h.006l.069.042.013.008v.002h.003l.132.084.006.004v.002h.003l.062.04c.049.03.098.064.146.097l.067.045.04.028v.003h.004l.05.034v.001h.001l.055.039.06.043c.049.035.098.07.146.107l.056.042.006.005c.049.036.096.073.144.11l.06.047.127.103v.002h.003l.012.01.058.048.016.013.127.108.052.044.069.06v.002l.018.015v.002h.002l.05.045.054.048.07.066.018.016v.002h.002l.048.045.048.046c.047.045.094.09.14.137l.043.042.135.138.047.048.086.093v.002h.002l.015.016v.001h.001l.033.035.036.04.09.1v.002h.002l.015.017.026.03.038.043c.044.05.087.102.13.154l.018.021v.001l.018.021.053.064v.003h.003l.072.09.034.043.12.156.036.047h.001l.001.002.05.07.067.091c.012.016.024.031.034.048l.077.108V4.7l.035.05v.002h.003l.034.05c.036.052.07.105.105.159l.038.058.033.05v.003h.001l.068.109.02.03v.004l.016.024.036.06v.005h.003l.064.108.029.048.082.144v.001l.017.03v.006h.003l.026.045.042.079.018.033V5.8h.002l.034.065.027.052.09.18.027.053.083.175.02.042v.001l.009.019.062.138v.004h.001l.013.029.03.069.009.02v.006h.002l.05.122v.002h.001l.012.03.025.062c.023.057.046.115.067.173v.002h.001l.006.015.021.054.026.07v.002l.04.113.024.064.06.178a8.55 8.55 0 01.072.227v.004l.007.022.01.032.013.042.022.078v.004h.001l.032.115.016.058.004.016v.006h.002l.016.062v.009h.002l.03.12.012.045.027.117v.002l.017.075.001.002v.01h.003c.003.02.008.038.012.056l.002.012v.004h.001l.017.082v.007h.002l.021.109.01.05c.013.064.023.13.035.194l.004.02.01.053.008.055v.017h.003l.014.1v.007h.001l.014.09c.008.054.015.11.02.164v.012h.002l.003.029.009.064.005.041v.026h.003l.018.178.002.027.012.157v.029h.002l.003.028.004.062.01.155v.017l-.007-.092-.006-.084-.01-.113a3.27 3.27 0 00-.008-.078l-.013-.114-.014-.108-.01-.084-.016-.1-.014-.091-.017-.092-.017-.097-.02-.093-.019-.093-.022-.097-.021-.089a3.719 3.719 0 00-.048-.182l-.029-.102-.023-.08-.032-.105-.023-.073-.037-.107-.024-.071-.038-.103c-.009-.025-.017-.05-.027-.074a3.45 3.45 0 00-.037-.096l-.031-.078-.04-.095-.033-.077-.043-.096-.032-.07c-.016-.033-.031-.067-.048-.1l-.034-.07c-.015-.032-.032-.063-.048-.095l-.035-.068-.05-.095-.039-.069-.053-.093-.037-.065-.024-.04-.033-.054a2.66 2.66 0 00-.039-.063l-.059-.094-.039-.061-.06-.09-.043-.063-.062-.09-.042-.058-.067-.092-.043-.056-.067-.088-.045-.058a3.554 3.554 0 00-.069-.084l-.047-.058-.07-.083-.048-.055-.074-.083-.046-.051-.078-.084-.046-.049-.08-.083-.048-.047a4.155 4.155 0 00-.084-.082l-.045-.043a9.8 9.8 0 00-.087-.082l-.048-.044-.086-.077-.05-.045a6.861 6.861 0 00-.088-.075l-.052-.042-.089-.072-.053-.042-.091-.07-.054-.041-.092-.068-.056-.04-.093-.065-.057-.04-.095-.062-.055-.036a7.166 7.166 0 00-.1-.063l-.055-.034-.1-.06a32.19 32.19 0 01-.06-.035l-.098-.056-.064-.034a6.459 6.459 0 00-.098-.053l-.062-.033-.1-.05-.066-.033-.1-.048-.063-.029c-.036-.016-.07-.033-.106-.048a2.116 2.116 0 00-.063-.027l-.104-.044-.068-.027c-.035-.014-.07-.03-.106-.043l-.058-.022a6.944 6.944 0 00-.115-.042l-.06-.021a21.72 21.72 0 00-.116-.04l-.063-.02a4.862 4.862 0 00-.114-.036l-.073-.02a17.989 17.989 0 00-.186-.052l-.1-.027-.067-.016c-.04-.01-.078-.02-.118-.028l-.057-.012a7.138 7.138 0 00-.191-.039l-.12-.022-.026-.004a7.768 7.768 0 00-.676-.085l-.052-.004-.15-.01-.041-.002-.125-.005-.071-.002c-.04 0-.079 0-.118-.002h-.091a5.47 5.47 0 00-.382.01l-.062.004-.123.008-.074.006-.112.01-.075.008-.11.013-.076.009-.11.015-.072.011-.112.019a6.138 6.138 0 00-.25.047c-.052.01-.103.022-.154.033l-.024.006-.176.043a5.682 5.682 0 00-.174.046l-.065.02c-.036.01-.072.02-.109.032l-.068.021-.104.035-.07.023-.1.035-.07.025-.104.04-.061.024c-.038.014-.075.03-.112.045l-.054.023a4.64 4.64 0 00-.143.063l-.019.008-.162.075-.044.022-.114.057-.06.031-.097.051-.062.034-.093.052-.064.036-.087.051-.067.04-.086.054-.062.04-.086.056-.063.042-.102.07c-.013.01-.026.018-.04.027a6.63 6.63 0 00-.18.134l-.1.076c-.02.014-.037.03-.055.043l-.081.065-.063.052-.07.059-.065.056-.07.06-.06.055-.073.067-.054.05-.074.074-.052.05-.08.081a5.986 5.986 0 00-.16.169l-.035.038-.081.09-.051.06-.063.073-.053.065-.057.07a375.343 375.343 0 01-.16.205l-.055.076-.048.068c-.019.025-.037.052-.055.078a3.375 3.375 0 00-.107.157L7.6 6.65a5.8 5.8 0 00-.093.145c-.01.017-.02.035-.032.052-.019.033-.039.064-.057.097-.014.022-.027.046-.04.069l-.048.085c-.014.023-.026.047-.038.07l-.047.085a3.1 3.1 0 00-.036.07l-.045.089-.034.07-.043.09-.033.072-.042.093-.03.07-.042.1-.027.064-.058.15-.017.045-.05.137a1.218 1.218 0 00-.02.056l-.038.112-.022.07-.032.102-.02.072-.03.101-.02.075-.025.1-.018.076-.025.107a2.807 2.807 0 00-.04.19l-.012.056-.032.18a7.835 7.835 0 00-.109 1.361h-.002a4.622 4.622 0 004.51 4.622h.005l.1.001h.105l.04-.002.063-.003.044-.002.057-.003.05-.004.052-.005.044-.004c.02-.003.041-.004.061-.006l.038-.005a.657.657 0 00.064-.009l.04-.005.056-.008.048-.008.056-.01.04-.008.062-.012.039-.008.06-.013.038-.009.083-.02.014-.004c.033-.008.065-.018.098-.027l.01-.003.09-.026.015-.005.077-.025.034-.011.061-.021.032-.012.062-.023.035-.014.058-.024.034-.014.058-.024.035-.016.057-.025.032-.015.062-.03.028-.013.067-.034.02-.01.08-.043.008-.004c.09-.049.177-.1.262-.155l.016-.01.067-.044.021-.015.063-.043.02-.014.062-.044.02-.014.06-.046.021-.016.058-.046.02-.017.059-.048.018-.016.061-.052.016-.013.058-.053.018-.016c.023-.02.044-.041.066-.062l.006-.006c.073-.071.144-.144.213-.22l.01-.01.056-.063.018-.022.046-.055.02-.023.044-.055.02-.025.04-.054.022-.028.038-.053.022-.03.038-.054.02-.029.04-.058.015-.025.042-.065.013-.02.042-.07.012-.02.047-.082.004-.006.049-.09.015-.029.031-.06.018-.037.028-.056.015-.033.028-.06.016-.038.024-.055.019-.044.02-.053.017-.041.021-.057.015-.04.02-.059.015-.042a1.29 1.29 0 00.017-.052l.015-.047.019-.063.01-.034.021-.08.007-.023.025-.103-.01.066v.001l-.013.088h-.005v.028l-.01.061h-.007v.04l-.012.067h-.006v.031l-.012.058h-.006v.03l-.012.059h-.006v.028a9.255 9.255 0 01-.051.22h-.002v.01l-.016.06h-.002v.01l-.01.044h-.007v.024l-.013.048h-.005v.017l-.014.053h-.003v.012l-.013.042h-.005v.018l-.015.053h-.003v.007l-.014.045h-.004v.014a4.48 4.48 0 01-.103.306h-.003v.011l-.016.042h-.002v.006l-.01.03h-.008v.018l-.013.035h-.004v.013l-.016.04h-.002v.006l-.012.03h-.006v.014l-.015.039h-.003v.006l-.011.03h-.006v.014l-.017.04h-.001v.003c-.04.094-.08.187-.123.28v.002l-.016.033h-.002v.004l-.015.031h-.003v.006l-.015.03h-.003v.007l-.014.028h-.004v.009l-.013.027h-.005v.01l-.013.026h-.003v.008l-.014.027h-.004v.008l-.014.028h-.004v.007l-.015.029h-.003v.006l-.015.03h-.003v.003l-.017.032v.001a8.106 8.106 0 01-.087.158h-.001v.004l-.049.086h-.004v.006l-.017.03-.031.053h-.005v.007l-.016.028h-.002v.002l-.01.016h-.008v.013l-.014.023h-.003v.006l-.03.047h-.005v.01l-.016.026H14.3v.002l-.033.051h-.002v.004a7.458 7.458 0 01-.105.157h-.002v.003l-.035.05-.012.017h-.006v.01l-.032.043h-.004v.006l-.034.048h-.001l-.013.018h-.005v.008l-.033.045h-.003v.002l-.011.016h-.006v.009l-.034.045h-.002v.001l-.012.016h-.006v.008l-.05.064h-.003v.004l-.052.067h-.001l-.087.107h-.001v.002l-.013.016h-.005v.005a4.88 4.88 0 01-.087.1h-.002v.003l-.013.016h-.005v.005l-.01.012h-.007v.008l-.009.01h-.01v.01a2.663 2.663 0 01-.086.096h-.002v.002l-.014.016h-.004v-.002l-.014.014h-.003v.004l-.014.014h-.004v.006c-.083.089-.17.176-.256.26h-.01v.01l-.009.009h-.008v.007l-.01.01h-.008v.008l-.011.01h-.007v.007l-.012.011h-.006v.005l-.013.013h-.005v.005l-.014.013h-.003v.003l-.016.015h-.001v.001l-.017.016h-.001v.001a7.359 7.359 0 01-.262.23h-.004v.003l-.017.015c-.021.019-.043.036-.065.053h-.007v.006l-.014.012h-.002v.003l-.064.05h-.007v.007l-.016.012h-.002v.002l-.043.033h-.01v.008l-.014.01h-.004v.004l-.065.05h-.006v.004a5.667 5.667 0 01-.14.102h-.002v.002l-.047.034h-.006v.004l-.045.032h-.008v.005l-.044.03h-.01v.007l-.017.011-.026.017h-.01v.007l-.016.011h-.002l-.026.018h-.009v.006l-.046.03h-.007v.004l-.047.03h-.006v.004l-.05.032h-.002c-.058.036-.116.072-.175.106h-.002v.002l-.029.016h-.007v.004a6.211 6.211 0 01-.086.049h-.002v.001l-.03.016h-.006v.003l-.026.015h-.01v.006l-.022.012h-.012v.007l-.021.01h-.015v.009l-.052.027h-.001l-.033.018h-.003v.001l-.032.016h-.003v.002l-.033.016h-.003v.002l-.032.016H11.2v.002a6.445 6.445 0 01-.219.105h-.011v.005l-.029.013h-.007v.003l-.032.014H10.9v.002l-.037.016h-.016v.007l-.024.011h-.012v.005l-.03.013h-.006v.002l-.037.015h-.016v.006l-.027.012h-.008v.004l-.035.014-.046.017h-.008v.003a6.17 6.17 0 01-.226.086h-.004v.001l-.045.017h-.008v.003l-.044.014h-.01v.004l-.041.014h-.011v.004l-.043.014h-.01v.003l-.045.015h-.008v.002l-.048.016h-.005v.001l-.052.017a9.242 9.242 0 01-.25.07H9.73v.005l-.05.013h-.02v.005l-.052.013H9.59v.004c-.018.005-.035.01-.053.013H9.52v.004l-.06.014h-.028v.006l-.053.011h-.018v.004l-.067.014H9.29l-.087.018h-.002l-.096.018h-.01v.001l-.093.017h-.036v.004l-.085.013h-.039v.007l-.09.011h-.05v.006a3.837 3.837 0 01-.096.011H8.58v.003c-.05.006-.102.01-.152.015H8.4v.002a7.673 7.673 0 01-.23.016h-.16v.007a6.996 6.996 0 01-.58-.003l-.056-.002zm14.475-8.275h.001l.005.1-.006-.1zm-15.508.521v-.141l-.003.141h.003z" fill="url(#paint0_linear_7705_48037)"/><path fill-rule="evenodd" clip-rule="evenodd" d="M10.666 21.997v-.003h-.094a10.007 10.007 0 01-.348-.017h-.014a7.849 7.849 0 01-.216-.017v-.001h-.016a12.47 12.47 0 01-.338-.034v-.001h-.01l-.131-.017H9.49a13.1 13.1 0 01-.346-.052v-.002h-.01l-.097-.015v-.003h-.011a7.374 7.374 0 01-.36-.07h-.002a4.966 4.966 0 01-.157-.035v-.001H8.5a11.55 11.55 0 01-.417-.105v-.002h-.007l-.063-.017h-.004l-.12-.035v-.001h-.002c-.04-.012-.081-.023-.121-.036a11.035 11.035 0 01-.673-.228v-.003h-.005l-.136-.051v-.001H6.95l-.086-.034v-.001h-.003a10.411 10.411 0 01-.334-.14v-.002h-.004l-.155-.07h-.001a10.85 10.85 0 01-.76-.388v-.003H5.6l-.03-.017h-.002l-.123-.071-.176-.105v-.001h-.002l-.087-.053-.053-.033v-.003h-.004c-.047-.029-.092-.06-.138-.089l-.159-.106v-.001h-.001l-.051-.035h-.001l-.052-.036H4.72c-.042-.028-.083-.058-.124-.087v-.001h-.002l-.122-.088v-.001h-.001a3.542 3.542 0 01-.07-.053H4.4l-.07-.053a8.066 8.066 0 01-.158-.123v-.002H4.17a10.305 10.305 0 01-.175-.142h-.001l-.106-.088v-.002h-.001l-.122-.105h-.001a9.14 9.14 0 01-.158-.142v-.001h-.002a9.972 9.972 0 01-.476-.458v-.004h-.004l-.014-.015v-.003h-.003l-.015-.015v-.003H3.09l-.016-.016v-.002h-.001l-.016-.017h-.001l-.017-.018a15.042 15.042 0 01-.213-.228v-.003h-.002l-.015-.016v-.002h-.001a13.622 13.622 0 01-.317-.37v-.002h-.003a12.356 12.356 0 01-.368-.475v-.004h-.003l-.05-.07v-.002h-.001a11.244 11.244 0 01-.46-.69v-.002l-.052-.085v-.003h-.002a8.331 8.331 0 01-.051-.088v-.001H1.5a9.846 9.846 0 01-.14-.248v-.001h-.001l-.017-.031v-.005h-.003a10.503 10.503 0 01-.227-.44v-.003h-.001l-.017-.032v-.003h-.003l-.016-.033v-.003h-.001l-.017-.035a11.027 11.027 0 01-.159-.352v-.004H.897l-.052-.12v-.004H.844a10.886 10.886 0 01-.14-.354v-.004H.703a10.502 10.502 0 01-.053-.142l-.017-.05v-.003H.63a12.033 12.033 0 01-.123-.365v-.008H.506l-.015-.047v-.006H.489c-.05-.162-.097-.326-.14-.492v-.005H.348l-.016-.067v-.004H.33l-.017-.068v-.003l-.018-.068v-.002c-.013-.051-.024-.103-.035-.154v-.007H.259l-.034-.155v-.005l-.018-.087v-.002a8.49 8.49 0 01-.07-.393v-.015H.133a3.99 3.99 0 01-.015-.102v-.005c-.02-.133-.038-.268-.053-.403v-.023H.063a9.165 9.165 0 01-.015-.153v-.008a12.06 12.06 0 01-.035-.477v-.038H.01a6.49 6.49 0 01-.008-.175c.228 3.997 3.44 7.169 7.427 7.335 3.987.165 7.45-2.73 8.006-6.694a4.664 4.664 0 000-2.12 4.613 4.613 0 00-5.025-3.517 4.621 4.621 0 00-4.073 4.59 8.23 8.23 0 01.043-.893h.001v-.01l.018-.15v-.001a6.67 6.67 0 01.035-.247V9.67l.017-.104v-.002c.021-.119.044-.236.07-.353h.001v-.006c.032-.141.068-.28.106-.42.017-.06.034-.118.053-.177v-.003c.063-.204.134-.404.213-.6v-.001a6.81 6.81 0 01.104-.248H7V7.75c.028-.064.058-.129.088-.192l.017-.036h.001V7.52l.016-.033h.002v-.004l.015-.032h.003v-.005c.028-.058.058-.115.088-.172v-.001l.086-.16h.003V7.11c.056-.1.114-.2.174-.298h.002v-.004c.051-.083.105-.164.159-.245h.001v-.001l.034-.051h.001v-.002a9.011 9.011 0 01.176-.246l.053-.07V6.19a6.187 6.187 0 01.21-.264h.003v-.003l.088-.104.142-.16.016-.017h.002V5.64c.152-.166.311-.325.477-.477h.001v-.001c.092-.085.186-.168.283-.247v-.001a7.795 7.795 0 011.221-.834h.001c.223-.123.453-.236.689-.336h.002v-.001c.116-.05.234-.097.353-.141l.048-.018h.005v-.002c.122-.044.244-.084.367-.122h.005v-.002l.177-.051c.021-.007.044-.012.065-.018h.006v-.002a8.29 8.29 0 01.44-.105h.002l.088-.018a7.55 7.55 0 01.567-.088c.054-.006.108-.013.163-.018h.014v-.002a8.62 8.62 0 01.2-.016h.013a5.7 5.7 0 01.321-.016l.072-.001h.303c.129.002.257.009.383.017h.006l.189.016v.003h.025c.098.01.196.021.294.035h.001l.122.017h.002c.1.016.2.033.3.052v.001h.005c.028.005.056.01.083.017h.004c.214.045.425.098.633.16l.053.016v.002h.008c.14.044.28.09.416.142h.001c.12.044.237.091.353.141h.003l.12.054c.281.127.553.268.815.426h.001l.087.054c.066.04.13.082.195.124.12.08.238.162.354.248l.07.054c.127.097.252.197.372.301l.16.141v.001c.186.169.363.346.53.532v.001h.001l.124.14v.002h.001l.104.124v.001h.001l.142.176v.002h.001c.085.109.168.22.246.334v.003h.003c.06.087.119.175.176.265v.002h.001c.03.046.059.093.087.14v.002h.001c.042.069.084.138.123.209v.004h.002c.1.179.195.362.282.55l.07.157v.003h.001c.043.098.084.198.123.298v.003h.002a7.6 7.6 0 01.228.687v.005h.002c.07.252.13.51.175.772v.01h.002l.016.098v.008h.001c.013.079.024.158.034.238v.01h.002l.016.142v.001c.007.061.012.122.018.184v.012c.008.082.013.165.018.248l.002.046v.197c0 .063.008.136.008.208v.421l-.009.211h-.002v.039c-.004.088-.01.176-.017.263v.003l-.017.192h-.001v.007a9.83 9.83 0 01-.015.153h-.003v.019c-.014.13-.031.26-.05.39h-.003v.015l-.016.109h-.002v.007c-.005.033-.01.067-.017.1v.005l-.052.278h-.002v.01l-.015.08h-.003v.012l-.017.077v.004c-.032.147-.066.294-.104.44h-.003v.01l-.016.06h-.002v.006a11.73 11.73 0 01-.105.368h-.001v.005c-.054.178-.113.354-.175.528h-.002v.005l-.018.048c-.01.03-.022.06-.033.089h-.002v.005a9.87 9.87 0 01-.088.226h-.001v-.002a8.748 8.748 0 01-.088.212v.001a9.735 9.735 0 01-.16.354v.001l-.017.034h-.002v.004l-.014.032h-.003v.005c-.057.118-.116.234-.176.35h-.001v.001l-.104.194h-.003v.004l-.017.031c-.074.132-.15.262-.228.39h-.002v.005l-.053.084v.002a9.983 9.983 0 01-.16.248l-.035.053h-.001a17.181 17.181 0 01-.3.425h-.001v.002l-.054.07a11.04 11.04 0 01-.193.248h-.001v.003l-.07.086h-.001v.002l-.087.105h-.001v.001c-.075.09-.152.178-.229.265h-.001v.002l-.015.016h-.002v.003c-.064.071-.13.141-.195.21l-.017.017-.017.018h-.001v.001a9.799 9.799 0 01-.584.566v.001a12.52 12.52 0 01-.264.23h-.003v.004l-.104.086h-.002v.001a10.64 10.64 0 01-.264.212h-.002l-.068.052h-.003v.003a5.118 5.118 0 01-.069.05h-.002v.002c-.104.079-.21.155-.316.23h-.002v.001l-.05.034h-.002v.002c-.088.06-.177.118-.265.176-.047.03-.093.06-.14.088h-.002v.001c-.087.055-.175.107-.264.16h-.001l-.121.07h-.003v.001l-.159.088c-.208.114-.42.22-.636.32h-.002c-.05.024-.101.048-.153.071h-.006v.002c-.139.062-.278.12-.42.175h-.004v.002l-.088.034h-.001l-.141.054c-.231.084-.466.162-.705.23h-.004v.002a7.5 7.5 0 01-.118.034h-.005v.002l-.264.07h-.002a7.158 7.158 0 01-.22.052h-.01v.002l-.155.034h-.004c-.088.019-.176.036-.264.053h-.002l-.093.018h-.013v.002l-.094.016h-.012v.001c-.114.019-.23.036-.344.051h-.01v.002l-.13.016h-.01v.002a9.634 9.634 0 01-.337.034h-.017v.001c-.072.007-.144.012-.216.017h-.014c-.116.008-.231.014-.347.018h-.096v.003a10.123 10.123 0 01-.529 0z" fill="url(#paint1_linear_7705_48037)"/><path d="M33.985 6.978H30.53v9.029H28.5V5h5.485v1.978zm9.139 4.924c0 1.21-.415 2.24-1.246 3.093-.83.853-1.868 1.28-3.113 1.28-1.235 0-2.273-.422-3.113-1.265-.83-.853-1.246-1.889-1.246-3.108 0-1.22.41-2.256 1.23-3.11.831-.862 1.874-1.293 3.129-1.293 1.245 0 2.283.426 3.113 1.279.83.853 1.246 1.894 1.246 3.123zm-1.972 0c0-.705-.218-1.3-.652-1.785-.435-.496-1.014-.744-1.735-.744-.712 0-1.29.248-1.734.744-.435.485-.653 1.08-.653 1.784s.218 1.3.653 1.785c.434.476 1.013.714 1.734.714.702 0 1.275-.243 1.72-.729.444-.485.667-1.075.667-1.77zm12.27 6.187h-1.927v-2.082h-5.9v2.082h-1.928v-3.837h.978l3.01-6.485h1.78l3.009 6.484h.978v3.838zm-3.202-3.837l-1.675-3.808-1.676 3.807h3.35zm12.463-2.35c0 1.21-.415 2.24-1.245 3.093-.83.853-1.868 1.28-3.113 1.28-1.236 0-2.274-.422-3.114-1.265-.83-.853-1.245-1.889-1.245-3.108 0-1.22.41-2.256 1.23-3.11.83-.862 1.873-1.293 3.129-1.293 1.245 0 2.283.426 3.113 1.279.83.853 1.245 1.894 1.245 3.123zm-1.971 0c0-.705-.218-1.3-.653-1.785-.435-.496-1.013-.744-1.734-.744-.712 0-1.29.248-1.735.744-.435.485-.652 1.08-.652 1.784s.217 1.3.652 1.785c.435.476 1.013.714 1.735.714.701 0 1.275-.243 1.72-.729.444-.485.667-1.075.667-1.77zm7.808-2.38h-2.684v6.485h-1.972v-8.24h4.655v1.755zm9.575 2.365c0 1.19-.361 2.2-1.082 3.034-.781.902-1.794 1.353-3.04 1.353-.435 0-.835-.069-1.2-.208a2.858 2.858 0 01-1.275-.952l-.03 3.644h-1.972V7.767h1.809v1.07c.326-.505.78-.872 1.364-1.1.415-.159.85-.238 1.304-.238 1.157 0 2.13.406 2.92 1.22.802.803 1.202 1.859 1.202 3.168zm-1.972-.015c0-.635-.183-1.185-.549-1.651-.444-.565-1.047-.848-1.808-.848-.712 0-1.295.238-1.75.714-.444.466-.667 1.066-.667 1.8 0 .773.218 1.388.652 1.844.445.446 1.009.67 1.69.67.712 0 1.295-.239 1.75-.715.455-.476.682-1.08.682-1.814zm11.344 4.135h-1.809V14.89a3.28 3.28 0 01-1.216 1.026 3.422 3.422 0 01-1.556.357c-1.087 0-2.017-.386-2.787-1.16-.82-.823-1.231-1.874-1.231-3.153 0-1.28.39-2.34 1.171-3.183.79-.853 1.76-1.28 2.906-1.28 1.186 0 2.08.477 2.683 1.429l.03-1.16h1.809v8.24zm-1.853-4.135c0-.724-.218-1.32-.653-1.785-.425-.476-.993-.714-1.705-.714-.701 0-1.28.243-1.734.729-.455.486-.682 1.105-.682 1.859 0 .704.222 1.289.667 1.755.455.456 1.038.684 1.75.684.701 0 1.27-.233 1.704-.699.435-.466.653-1.076.653-1.83zm14.382.015c0 1.06-.375 2.018-1.126 2.87-.89 1.012-2.066 1.517-3.529 1.517v2.484H93.37v-2.484c-1.463 0-2.635-.5-3.514-1.502-.761-.863-1.142-1.824-1.142-2.885 0-1.17.42-2.182 1.26-3.035.89-.902 2.022-1.353 3.395-1.353V5h1.972v2.499c1.374 0 2.506.451 3.395 1.353.84.853 1.26 1.864 1.26 3.035zm-1.971 0c0-.704-.208-1.3-.623-1.785-.484-.565-1.171-.848-2.06-.848v5.265c.74 0 1.373-.248 1.897-.743.524-.496.786-1.126.786-1.89zm-4.656 2.632V9.254c-.88 0-1.561.283-2.045.848-.425.495-.638 1.09-.638 1.785 0 .753.262 1.383.786 1.889a2.694 2.694 0 001.898.743z" fill="#252626"/><defs><linearGradient id="paint0_linear_7705_48037" x1="5.323" y1="13.145" x2="15.969" y2="3.912" gradientUnits="userSpaceOnUse"><stop stop-color="#252626"/><stop offset="1" stop-color="#787878"/></linearGradient><linearGradient id="paint1_linear_7705_48037" x1="13.276" y1="14.401" x2="8.409" y2="8.501" gradientUnits="userSpaceOnUse"><stop stop-color="#FFDC20"/><stop offset="1" stop-color="#E94F09"/></linearGradient></defs></svg>