<svg width="56" height="18" viewBox="0 0 56 18" fill="none" xmlns="http://www.w3.org/2000/svg"><path fill-rule="evenodd" clip-rule="evenodd" d="M56 4.5v2.6h-3.9c-.5 0-1 .2-1.3.6-.4.3-.5.8-.5 1.3v5.3h-2.6V9c0-1.2.5-2.3 1.3-3.1.8-.8 1.9-1.3 3.1-1.3H56v-.1zm-9.3 6.2h-6.5v-2h3.9c0-.2 0-.3-.1-.5 0-.1-.1-.2-.2-.3-.4-.3-.8-.6-1.3-.7-.5-.2-.9-.2-1.4-.2-.7 0-1.3.1-1.9.4-.4.2-.8.6-1 1-.2.3-.2.7-.2 1 0 .5.1.9.4 1.3.3.4.7.7 1.1.8.4.1.8.2 1.3.2h5.9v2.6h-5.9c-1.1 0-2.1-.2-3-.8-.9-.5-1.6-1.3-2-2.2-.3-.6-.4-1.3-.4-2 0-1.4.6-2.8 1.7-3.7 1.1-.9 2.5-1.3 4-1.3.8 0 1.5.1 2.2.3.7.2 1.3.5 1.9 1 .4.4.8.8 1 1.2.3.6.5 1.2.5 1.9v2zm-13.6 3.6l-4.8-3.8H28v3.7h-2.7V0H28v8h.2l4.5-3.5h4l-6 4.8 6.5 5h-4.1zm-8.9-3.6h-6.5v-2h3.9c0-.2 0-.3-.1-.5s-.2-.3-.3-.4c-.4-.3-.8-.6-1.3-.7-.4-.1-.8-.1-1.3-.1-.7 0-1.3.1-1.9.4-.4.2-.8.6-1 1-.1.3-.2.6-.2 1 0 .5.1.9.4 1.3.3.4.7.7 1.1.8.4.1.8.2 1.3.2h5.9v2.6h-5.9c-1.1 0-2.1-.2-3-.8-.9-.5-1.6-1.3-2-2.2-.3-.6-.4-1.3-.4-2 0-1.4.6-2.8 1.7-3.7 1.1-.9 2.5-1.3 4-1.3.8 0 1.5.1 2.2.3.7.2 1.3.5 1.9 1 .4.3.7.7.9 1.1.3.6.5 1.2.5 1.9l.1 2.1zM12 14.3H9.3V4.5H12v9.8zM8.3 4.5v2.6H4.4c-.5 0-1 .2-1.3.6-.3.3-.5.8-.5 1.3v5.3H0V9c0-1.2.5-2.3 1.3-3.1.8-.9 1.9-1.4 3.1-1.4h3.9z" fill="#ED1941"/></svg>