<svg width="109" height="14" viewBox="0 0 109 14" fill="none" xmlns="http://www.w3.org/2000/svg"><path d="M18.867 0h1.581v10.434h-1.581V0zm50.05 5.056v5.378h-1.581v-.72l-2.156.728a2.611 2.611 0 01-1.096.243c-.475 0-.949-.132-1.37-.391a2.558 2.558 0 01-1.222-2.187 2.588 2.588 0 012.592-2.577h3.25v-.474a.44.44 0 00-.441-.439h-4.384V3.045h4.384a2.018 2.018 0 012.024 2.01zm-1.581 2.996v-.954h-3.25a1.01 1.01 0 00-1.012 1.007c0 .355.174.665.478.854a1 1 0 00.981.048l.045-.022 2.758-.933zm-8.272-4.948a2.007 2.007 0 00-2.037.03l-1.502.901a1.985 1.985 0 00-.854-.931 2.007 2.007 0 00-2.036.03l-1.33.798v-.87h-1.58v7.372h1.58V5.77l2.146-1.289a.43.43 0 01.443-.006.43.43 0 01.222.382v5.579h1.582V5.772l2.145-1.289a.43.43 0 01.443-.006.43.43 0 01.224.382v5.579h1.582v-5.58c0-.74-.383-1.393-1.028-1.754zm26.326.06a2.575 2.575 0 00-2.378-.265l-2.263.885V0h-1.582v10.434h1.582v-4.96l2.843-1.112a.966.966 0 01.908.101.958.958 0 01.427.803v5.168h1.581V5.267c0-.842-.418-1.63-1.118-2.102zm13.411 0a2.574 2.574 0 00-2.377-.265l-2.264.885v-.725h-1.582v7.373h1.582v-4.96l2.843-1.112a.967.967 0 01.909.101.958.958 0 01.426.803v5.167h1.582V5.264c0-.84-.419-1.627-1.119-2.1zm-10.082 7.27H90.3V3.06h-1.582v7.373zm0-8.88H90.3V0h-1.582v1.554zM70.663 5.056v3.367a2.02 2.02 0 002.022 2.01h4.329V8.862h-4.329a.44.44 0 01-.44-.438V5.056a.44.44 0 01.44-.439h4.329V3.045h-4.329a2.016 2.016 0 00-2.023 2.01zm33.214 3.805h4.572v1.573h-4.572a2.213 2.213 0 01-2.218-2.206v-2.33a2.18 2.18 0 011.398-2.04l2.543-.993a2.5 2.5 0 012.312.257A2.465 2.465 0 01109 5.167a2.584 2.584 0 01-2.59 2.575h-3.168v.486a.632.632 0 00.635.633zm-.639-2.694h3.168c.557 0 1.01-.45 1.01-1.004a.89.89 0 00-.396-.745.898.898 0 00-.843-.093l-2.543.994a.615.615 0 00-.396.576v.272zM39.323 5.023v6.88A2.107 2.107 0 0137.213 14h-5.366v-1.572h5.366a.527.527 0 00.529-.526V9.391l-1.57.884a3.85 3.85 0 01-1.694.394 3.857 3.857 0 01-2.025-.578 3.783 3.783 0 01-1.808-3.236c0-2.102 1.72-3.812 3.835-3.812h2.853c1.096 0 1.99.889 1.99 1.98zm-1.581 0a.409.409 0 00-.41-.408h-2.854a2.248 2.248 0 00-2.253 2.24c0 .779.398 1.489 1.063 1.9.66.409 1.468.451 2.166.119l2.288-1.29v-2.56zm10.498.118v3.183a2.105 2.105 0 01-2.108 2.095H42.93a2.105 2.105 0 01-2.109-2.095V5.14c0-1.157.947-2.096 2.109-2.096h3.202A2.102 2.102 0 0148.24 5.14zm-1.582 0a.527.527 0 00-.528-.526h-3.202a.527.527 0 00-.529.526v3.183c0 .29.237.525.529.525h3.202a.527.527 0 00.528-.525V5.14zm-17.317 0v3.183a2.105 2.105 0 01-2.108 2.095H24.03a2.105 2.105 0 01-2.108-2.095V5.14c0-1.157.947-2.096 2.108-2.096h3.203a2.103 2.103 0 012.108 2.096zm-1.582 0a.527.527 0 00-.528-.526h-3.203a.527.527 0 00-.528.526v3.183c0 .29.236.525.528.525h3.203a.527.527 0 00.528-.525V5.14zM10.48 0H2.547A2.54 2.54 0 000 2.532v5.356a2.54 2.54 0 002.547 2.531h7.933a2.54 2.54 0 002.547-2.531V2.532A2.54 2.54 0 0010.48 0zm.966 7.815c0 .57-.466 1.034-1.041 1.034H2.62a1.036 1.036 0 01-1.04-1.032v-5.21c0-.57.466-1.035 1.042-1.035h7.784c.573 0 1.04.463 1.04 1.035v5.208h-.001z" fill="#000"/><path d="M11.446 7.815c0 .57-.466 1.034-1.041 1.034H2.62a1.036 1.036 0 01-1.04-1.032v-5.21c0-.57.466-1.035 1.042-1.035h7.784c.573 0 1.04.463 1.04 1.035v5.208h-.001z" fill="#ECFF00"/></svg>