<svg width="96" height="16" viewBox="0 0 96 16" fill="none" xmlns="http://www.w3.org/2000/svg"><path fill-rule="evenodd" clip-rule="evenodd" d="M89.399 15.335h5.733a.82.82 0 00.82-.82v-2.047a.82.82 0 00-.82-.82h-5.733a.82.82 0 00-.82.82v2.048c0 .452.367.82.82.82z" fill="#812990"/><path fill-rule="evenodd" clip-rule="evenodd" d="M70.968 15.335h13.105a.82.82 0 00.82-.82v-2.047a.82.82 0 00-.82-.82H70.968a.82.82 0 00-.82.82v2.048c0 .452.367.82.82.82z" fill="#0066B3"/><path fill-rule="evenodd" clip-rule="evenodd" d="M59.91 15.335h5.732a.82.82 0 00.82-.82v-2.047a.82.82 0 00-.82-.82H59.91a.82.82 0 00-.82.82v2.048c0 .452.368.82.82.82z" fill="#33A3DC"/><path fill-rule="evenodd" clip-rule="evenodd" d="M41.478 15.335h13.105a.82.82 0 00.826-.82v-2.047a.82.82 0 00-.82-.82H41.48a.82.82 0 00-.82.82v2.048c0 .452.367.82.82.82z" fill="#45B97C"/><path fill-rule="evenodd" clip-rule="evenodd" d="M30.42 15.335h5.733a.82.82 0 00.82-.82v-2.047a.82.82 0 00-.82-.82H30.42a.82.82 0 00-.82.82v2.048c0 .452.367.82.82.82z" fill="#FFCC31"/><path fill-rule="evenodd" clip-rule="evenodd" d="M.93 15.335h5.733a.82.82 0 00.82-.82v-2.047a.82.82 0 00-.82-.82H.93a.82.82 0 00-.82.82v2.048c0 .452.368.82.82.82z" fill="#ED1846"/><path fill-rule="evenodd" clip-rule="evenodd" d="M11.984 15.335H25.09a.82.82 0 00.82-.82v-2.047a.82.82 0 00-.82-.82H11.984a.82.82 0 00-.82.82v2.048c0 .452.367.82.82.82z" fill="#FBB306"/><path d="M54.46.586h-3.01a.223.223 0 00-.226.222v6.326a.831.831 0 00.838.824h.99a.223.223 0 00.226-.221V5.916h1.182c1.804 0 2.673-1.251 2.673-2.677 0-1.399-1.03-2.655-2.673-2.655v.002zm-.413 3.621h-.773V2.274h.803c.608 0 .952.369.952.955s-.344.976-.986.976m19.752 2.051h-.138V.806a.223.223 0 00-.225-.222H69.05a.836.836 0 00-.842.828v1.079c0 1.242-.017 2.628-.683 3.769h-.114a.785.785 0 00-.792.773v1.914a.223.223 0 00.225.221h1.386a.224.224 0 00.225-.221v-1h4.296v1a.223.223 0 00.226.221h1.384a.223.223 0 00.225-.221V7.038a.785.785 0 00-.791-.773v-.009zm-2.18.02H69.59c.48-1.044.569-2.484.569-3.622v-.372h1.203c.173 0 .258.079.258.249l-.005 3.746zM82.069.586h-1.214c-.563 0-.792.159-.965.655l-.961 2.51-1.11-2.51c-.218-.485-.413-.655-.964-.655h-1.299a.222.222 0 00-.198.328l2.602 4.812a.723.723 0 01-.685.497 1.058 1.058 0 01-.573-.19.224.224 0 00-.312.074l-.669 1.105a.213.213 0 00.047.282c.437.33 1.143.556 1.83.556.608 0 1.09-.157 1.434-.485a3.6 3.6 0 00.849-1.23L82.276.892a.222.222 0 00-.207-.308m5.934.002h-3.876a.836.836 0 00-.843.829v6.322a.224.224 0 00.226.221h1.604a.224.224 0 00.225-.221v-5.46h2.664a.223.223 0 00.225-.222V.805a.223.223 0 00-.225-.221m7.722.002h-1.36a.844.844 0 00-.724.406l-2.305 3.589V1.408A.831.831 0 0090.5.584h-.991a.224.224 0 00-.225.221v6.929a.224.224 0 00.225.222h1.371a.847.847 0 00.725-.408l2.293-3.608v3.192a.831.831 0 00.837.824h.991a.223.223 0 00.226-.222V.805a.223.223 0 00-.226-.221M13.418.586H8.932a.836.836 0 00-.842.829v1.823c0 2.13-.14 2.744-1.145 2.995a.227.227 0 00-.184.214v1.38a.228.228 0 00.237.225c2.22-.108 3.031-1.085 3.031-4.79v-.983h1.31a.25.25 0 01.258.25v5.208a.223.223 0 00.226.221h1.603a.223.223 0 00.225-.221V.805a.223.223 0 00-.225-.221M23.96.586h-1.603a.223.223 0 00-.226.222v6.927a.223.223 0 00.226.222h1.603a.223.223 0 00.226-.222V.805a.223.223 0 00-.226-.221m4.98 2.719h-.929V2.272h3.032a.223.223 0 00.226-.222V.8a.223.223 0 00-.226-.222h-4.86a.224.224 0 00-.227.222v6.326a.831.831 0 00.839.823h2.122c2.202 0 3.121-1.058 3.121-2.389 0-1.49-1.127-2.263-3.092-2.263l-.006.006zm.177 3.011h-.848c-.173 0-.258-.08-.258-.249V4.942h1.111c.515 0 .804.278.804.676s-.299.696-.816.696M18.264 2.99h-.828V.8a.223.223 0 00-.226-.222h-1.603a.223.223 0 00-.225.222v6.326a.83.83 0 00.837.823h2.022c2.202 0 3.121-1.13 3.121-2.55 0-1.59-1.127-2.413-3.092-2.413l-.006.005zm.177 3.324h-.747c-.172 0-.258-.097-.258-.304V4.64h1.011c.516 0 .805.34.805.828 0 .487-.3.85-.816.85M6.74.586H5.523c-.562 0-.791.159-.964.655L3.6 3.75 2.49 1.24C2.272.756 2.077.586 1.526.586h-1.3a.222.222 0 00-.198.328L2.63 5.729a.723.723 0 01-.684.496 1.061 1.061 0 01-.569-.185.223.223 0 00-.314.065L.387 7.212a.224.224 0 00.052.287c.438.328 1.14.55 1.825.55.608 0 1.09-.156 1.434-.484.366-.346.656-.765.85-1.23L6.942.892a.222.222 0 00-.204-.306zm40.551 0h-1.595a.23.23 0 00-.23.23v.445c-.52-.481-1.238-.773-2.18-.773-1.84 0-3.331 1.693-3.331 3.782 0 2.09 1.49 3.782 3.331 3.782.961 0 1.695-.308 2.223-.82.146.423.539.711.986.724h.797a.228.228 0 00.228-.228V.813a.23.23 0 00-.228-.227zm-3.521 5.67c-1.09 0-1.756-.892-1.756-1.992s.717-1.994 1.755-1.994c1.105 0 1.757.893 1.757 1.994 0 1.1-.6 1.992-1.755 1.992M38.25 4.89a1.328 1.328 0 00-.827-.696c.362-.105.662-.358.828-.697L39.56.904a.222.222 0 00-.203-.32h-1.73a.23.23 0 00-.206.128l-1.16 2.39c-.129.248-.344.248-.632.248h-.27V1.408a.831.831 0 00-.838-.824h-.99a.224.224 0 00-.226.221v6.929a.224.224 0 00.225.222h1.603a.223.223 0 00.226-.222V5.037h.276c.287 0 .505 0 .631.249l1.232 2.54c.038.08.118.13.206.13h1.73a.222.222 0 00.202-.32L38.25 4.89zM65.286.586H63.69a.23.23 0 00-.228.23v.445c-.523-.481-1.24-.773-2.183-.773-1.839 0-3.331 1.693-3.331 3.782 0 2.09 1.492 3.782 3.33 3.782.963 0 1.697-.308 2.225-.82.146.424.539.712.986.724h.797a.23.23 0 00.23-.228V.813a.23.23 0 00-.23-.23v.003zm-3.52 5.667c-1.089 0-1.756-.891-1.756-1.992 0-1.1.717-1.993 1.756-1.993 1.104 0 1.756.893 1.756 1.993s-.603 1.995-1.756 1.995" fill="#ED1846"/></svg>