<svg width="52" height="52" viewBox="0 0 52 52" fill="none" xmlns="http://www.w3.org/2000/svg"><path d="M25.974 52C11.658 51.983 0 40.307 0 25.965.035 11.623 11.71-.017 26.044 0 40.377.026 52.034 11.693 52 26.035 51.992 40.368 40.316 52.008 25.974 52z" fill="#DD2F44"/><path d="M44.068 28.736c.018-4.378-3.553-7.948-7.922-7.957a7.915 7.915 0 00-3.614.869l-.138.078-.018-4.838a2.1 2.1 0 00-2.085-2.103c-1.138 0-2.102.938-2.085 2.093l-.017 11.85c.008 4.378 3.57 7.94 7.94 7.948 4.37-.008 7.93-3.561 7.939-7.94zm-7.957 3.719c-2.041 0-3.735-1.678-3.717-3.736A3.715 3.715 0 0136.12 25a3.697 3.697 0 013.727 3.718c0 2.067-1.668 3.753-3.736 3.736zM26.052 28.57a7.849 7.849 0 00-7.887-7.67 8.072 8.072 0 00-3.58.86l-.139.086v-4.994a2.111 2.111 0 00-2.085-2.102 2.115 2.115 0 00-2.102 2.102l-.008 17.426a2.064 2.064 0 002.058 2.085c.4.016.79-.113 1.147-.33a2.15 2.15 0 00.973-1.747v-5.464a3.75 3.75 0 013.744-3.744 3.748 3.748 0 013.718 3.64l-.008 5.568a2.094 2.094 0 002.11 2.094c1.112.008 2.076-.93 2.085-2.085l-.009-5.603c0-.017-.008-.044-.008-.07-.009-.016.008-.026-.009-.052z" fill="#fff"/></svg>