<svg width="86" height="18" viewBox="0 0 86 18" fill="none" xmlns="http://www.w3.org/2000/svg"><path d="M11.772 3.927l-3.597 1.31-1.962 3.272-2.289-3.273L.327 3.927l4.25 6.546L0 17.673h2.616l3.27-5.237 3.597 5.237h2.616l-4.578-7.2 4.25-6.546zm3.597 6.873c.327-1.31 1.635-2.618 3.27-2.618s2.943 1.309 3.27 2.618h-6.54zm3.27-4.582a5.864 5.864 0 00-5.886 5.891c0 3.6 2.616 5.891 5.886 5.891 2.289 0 4.578-1.31 5.559-3.6h-2.616c-.327.982-1.635 1.636-2.943 1.636-1.962 0-3.27-1.309-3.597-3.272h9.156c.327-3.6-1.962-6.546-5.56-6.546zm17.985.327H33.68l-4.905 4.91v-4.91h-2.29v11.128h2.29v-5.237l5.559 5.237h2.943l-5.886-5.891 5.232-5.237zM43.49 8.51c1.308 0 2.616.655 2.944 1.964h2.288c-.327-2.618-2.616-4.255-5.232-4.255-3.596 0-5.885 2.618-5.885 5.891S39.894 18 43.164 18c2.615 0 5.231-1.636 5.558-4.255h-2.288c-.328 1.31-1.636 1.964-3.27 1.964-1.962 0-3.27-1.309-3.27-3.6 0-1.963 1.308-3.6 3.596-3.6zm8.83 4.582c-.328 2.29-.655 2.618-1.963 2.618h-.654V18h1.308c1.635 0 2.943-1.31 3.597-4.582l.654-4.582h3.924v8.837h2.29V6.545H53.3l-.98 6.546zM66.052 10.8c.654-1.31 1.635-2.618 3.597-2.618 1.635 0 2.616 1.309 2.943 2.618h-6.54zm3.597-4.582c-3.597 0-5.886 2.618-5.886 5.891 0 3.6 2.29 5.891 5.886 5.891 2.29 0 4.578-1.31 5.232-3.6h-2.289c-.654.982-1.635 1.636-2.943 1.636-1.962 0-3.27-1.309-3.597-3.272h9.156c.327-3.6-1.962-6.546-5.559-6.546zm6.867.327v2.291h3.597v8.837h2.289V8.836H86v-2.29h-9.483z" fill="#212529"/><path d="M11.772 2.29L6.212 0 .328 2.29l5.886 1.965 5.559-1.964z" fill="#136EF6"/></svg>