<svg width="112" height="10" viewBox="0 0 112 10" fill="none" xmlns="http://www.w3.org/2000/svg"><path d="M2.955 9.827H4.85v-8.11h2.97V.174H0v1.545h2.955v8.109zM15.473.173v3.942h-4.307V.173H9.271v9.654h1.895V5.659h4.307v4.168h1.895V.173h-1.895zm4.15 9.654h6.997V8.282h-5.102V5.66h4.824V4.115h-4.824V1.718h5.102V.173h-6.997v9.654zm12.229 0h3.896c1.974 0 3.684-.772 3.684-2.85 0-1.331-.69-1.89-1.431-2.25.49-.32 1.086-1.132 1.086-2.037 0-1.984-1.815-2.517-3.498-2.517h-3.737v9.654zm1.895-4.234h2.014c1.18 0 1.736.479 1.736 1.384 0 .893-.543 1.359-1.657 1.359h-2.093V5.593zm0-3.929h1.961c.888 0 1.431.453 1.431 1.212 0 .852-.53 1.278-1.431 1.278h-1.961v-2.49zm9.012 3.329c0-2.263 1.245-3.475 2.743-3.475 1.497 0 2.743 1.212 2.743 3.475 0 2.277-1.246 3.489-2.743 3.489-1.498 0-2.743-1.212-2.743-3.489zm7.447 0C50.206 1.997 48.364 0 45.502 0c-2.863 0-4.705 1.997-4.705 4.993C40.797 7.99 42.64 10 45.502 10s4.704-2.01 4.704-5.007zm8.1 0c0 2.916-1.71 3.343-3.459 3.343h-.874V1.664h.874c1.75 0 3.46.44 3.46 3.33zM52.078.173v9.654h2.849c3.048 0 5.34-.999 5.34-4.834 0-3.835-2.292-4.82-5.34-4.82h-2.85zm8.322 0l3.46 5.899v3.755h1.894V6.099L69.293.173h-2.16l-2.28 4.035-2.24-4.035h-2.212zm17.453 5.646c1.02.173 1.776.506 1.776 1.318 0 1.025-1.074 1.345-1.922 1.345-1.14 0-2.12-.413-2.332-1.838h-1.829C73.718 8.722 75.282 10 77.641 10c1.935 0 3.896-.972 3.896-2.956 0-2.01-1.723-2.61-3.287-2.903l-1.258-.226c-.782-.147-1.339-.52-1.339-1.199 0-.865.968-1.198 1.855-1.198.901 0 1.882.373 2.028 1.505h1.829C81.259 1.172 79.575 0 77.588 0c-1.763 0-3.83.852-3.83 2.796 0 1.678 1.325 2.477 2.876 2.797l1.219.226zM89.44.173v3.942h-4.307V.173h-1.895v9.654h1.895V5.659h4.307v4.168h1.895V.173H89.44zm5.727 4.82c0-2.263 1.246-3.475 2.743-3.475 1.498 0 2.744 1.212 2.744 3.475 0 2.277-1.246 3.489-2.744 3.489-1.497 0-2.743-1.212-2.743-3.489zm7.448 0c0-2.996-1.842-4.993-4.705-4.993-2.862 0-4.704 1.997-4.704 4.993C93.206 7.99 95.048 10 97.91 10c2.863 0 4.705-2.01 4.705-5.007zm1.871-4.82v9.654h1.895V6.43h1.445c2.226 0 4.174-.599 4.174-3.062 0-2.916-2.266-3.196-4.227-3.196h-3.287zm3.326 1.491c1.021 0 2.24.134 2.24 1.718 0 1.278-.941 1.571-2.107 1.571h-1.564V1.664h1.431z" fill="#000"/></svg>