<svg width="106" height="20" viewBox="0 0 106 20" fill="none" xmlns="http://www.w3.org/2000/svg"><path d="M10.102 0C4.535 0 0 4.444 0 9.956c0 5.51 4.535 9.955 10.102 9.955s10.101-4.444 10.101-9.955C20.158 4.444 15.67 0 10.102 0zm0 18.444c-4.76 0-8.576-3.777-8.576-8.488 0-4.667 3.862-8.49 8.576-8.49 4.759 0 8.575 3.778 8.575 8.49 0 4.666-3.861 8.488-8.575 8.488zm0-15.644a7.306 7.306 0 00-6.645 4.267c1.975.266 3.726 1.333 4.804 2.889.449-3.156 3.098-5.067 6.06-5.823-.044 0-.044-.044-.089-.044a7.329 7.329 0 00-4.13-1.289zm-.45 8.667C11.853 10.4 13.29 8.444 13.11 6c-2.335.889-3.637 3.067-3.637 5.378v5.689c.18 0 .404.044.584.044 2.11 0 3.995-.889 5.342-2.311-2.469-.133-4.49-1.289-5.746-3.333zm4.67-7.29c.494 2.934-.18 6-2.694 7.645.943 1.022 2.829 1.778 4.76 1.6a7 7 0 00.897-3.466 7.131 7.131 0 00-2.963-5.778zM3.052 8.4c-.134.489-.179 1.022-.179 1.556 0 3.244 2.2 6 5.253 6.844v-2.933c-.045-2.934-2.245-5.2-5.073-5.467zm101.332 2.178a2.169 2.169 0 001.436-2.045c0-1.2-.987-2.177-2.2-2.177h-3.995V13.6h1.481v-2.889h1.751l1.437 2.889H106l-1.616-3.022zm-1.078-1.022h-2.245V7.6h2.245c.539 0 .988.444.988.978a.992.992 0 01-.988.978zm-20.787 1.6h-1.66c-.45.755-1.213 1.244-2.111 1.244-1.347 0-2.424-1.111-2.424-2.444 0-1.334 1.077-2.445 2.424-2.445.853 0 1.616.489 2.11 1.245h1.661l-.045-.178c-.538-1.422-1.975-2.445-3.681-2.445-2.2 0-3.906 1.69-3.906 3.823s1.706 3.777 3.906 3.777c1.706 0 3.098-.977 3.681-2.444l.045-.133zm-54.638-1.69l-1.796-3.155h-1.751l2.783 4.445v2.8H28.6v-2.8l2.739-4.49H29.63l-1.75 3.2zm7.318 2.223L33.358 6.31h-1.616l2.604 7.245h1.616L38.61 6.31h-1.616l-1.796 5.378zm17.734-.267c0-.666-.315-1.2-.853-1.6-.404-.266-.853-.4-1.796-.622-1.617-.356-1.706-.489-1.706-.933 0-.534.404-.845 1.257-.845.808 0 1.212.267 1.392.934h1.481c-.134-1.378-1.167-2.134-2.783-2.134-1.662 0-2.74.845-2.74 2.178 0 .622.27 1.156.764 1.467.315.222 1.033.444 2.02.71l.135.045.27.045c.224.044.448.133.628.222.404.178.539.4.539.711 0 .578-.494.978-1.392.978-1.032 0-1.571-.4-1.706-1.2h-1.481c.134 1.51 1.256 2.4 3.097 2.4 1.706-.045 2.874-.89 2.874-2.356zm35.602-2.044h-3.008V6.31h-1.481v7.245h1.481v-2.89h3.008v2.89h1.482V6.31h-1.482v3.067zm3.817 4.222h5.342v-1.289h-3.86v-1.6h2.738V9.467h-2.739V7.644h3.861V6.356h-5.343V13.6zM69.633 6.178c-2.2 0-3.95 1.689-3.95 3.822s1.705 3.778 3.95 3.778c2.2 0 3.906-1.645 3.906-3.822 0-2.134-1.706-3.778-3.906-3.778zm0 6.222c-1.347 0-2.424-1.111-2.424-2.444 0-1.334 1.077-2.445 2.424-2.445s2.38 1.111 2.38 2.445c0 1.333-1.078 2.444-2.38 2.444zm-5.208-3.867c0-1.2-.988-2.177-2.2-2.177H58.23V13.6h1.482v-2.889h1.75L62.9 13.6h1.706l-1.572-3.022a2.193 2.193 0 001.392-2.045zm-2.47 1.023h-2.244V7.6h2.245a.99.99 0 01.987.978.991.991 0 01-.987.978zm-16.476 2.71h-3.861v-1.6h2.739V9.423h-2.74V7.6h3.862V6.311h-5.388v7.245h5.388v-1.29zm14.008 3.823L58.05 19.91h.853l.314-.844h1.437l.314.844h.853l-1.437-3.822h-.898zm-.045 2.355l.494-1.333.493 1.333h-.987zm8.844.045l-1.571-2.356h-.808v3.823h.808V17.6l1.571 2.356h.808v-3.823h-.808v2.356zM43.774 19.91h.808V18.4h1.526v-.667h-1.526v-.977h1.93v-.667H43.82l-.045 3.822zm10.012-2.667c0-.622-.54-1.155-1.168-1.155h-1.975v3.822h.808V18.4h.808l.763 1.511h.854l-.854-1.6c.45-.133.764-.578.764-1.067zm-1.302.534H51.45v-1.022h1.078c.269 0 .493.222.493.488-.044.312-.269.534-.538.534zM75.65 16.71c.45 0 .853.267 1.078.667h.853l-.045-.09c-.27-.755-1.033-1.288-1.93-1.288-1.168 0-2.066.889-2.066 2s.898 2 2.065 2a2.06 2.06 0 001.93-1.289l.046-.089h-.853c-.225.4-.629.667-1.078.667-.718 0-1.257-.578-1.257-1.289-.045-.711.539-1.289 1.257-1.289zm6.106 3.2h2.694v-.667h-1.93V18.4h1.436v-.667h-1.437v-.977h1.93v-.667h-2.693v3.822z" fill="#A5B324"/></svg>