<svg width="57" height="46" viewBox="0 0 57 46" fill="none" xmlns="http://www.w3.org/2000/svg"><path d="M3.983 39.622l-1.06-1.527v1.527h-.757v-3.3h.757v1.433l1.013-1.433h.861L3.68 37.93l1.164 1.692h-.86zm4.06-1.65c0-.589-.426-.98-.965-.98-.54 0-.966.391-.966.98 0 .59.426.98.966.98.539 0 .965-.39.965-.98zm-2.687 0c0-.97.77-1.716 1.722-1.716.95 0 1.722.745 1.722 1.716s-.772 1.716-1.722 1.716a1.704 1.704 0 01-1.722-1.716zm7.722 1.65h-.756v-1.918l-.857 1.4h-.085l-.857-1.4v1.918h-.756v-3.3h.757l.898 1.467.9-1.467h.756v3.3zm3.65 0h-.757V37.05h-.994v2.573h-.757v-3.3h2.508v3.3zm2.795-1.132c0-.24-.17-.424-.402-.424h-.497v.85h.497c.232 0 .402-.185.402-.425zm.757 0c0 .627-.506 1.132-1.16 1.132h-1.253v-3.3h.757v1.037h.497c.653 0 1.159.505 1.159 1.132zm4.741-.518c0-.589-.426-.98-.965-.98-.54 0-.965.373-.965.98 0 .59.426.98.965.98.54 0 .965-.39.965-.98zm.757 0a1.71 1.71 0 01-1.722 1.716 1.68 1.68 0 01-1.675-1.4h-.435v1.334h-.757v-3.3h.757v1.24h.454a1.676 1.676 0 011.656-1.306c.951 0 1.722.745 1.722 1.716zm3.176-.924h-.852v2.574h-.757v-2.574h-.851v-.725h2.46v.725zm2.964 1.848v.726h-2.082v-3.3h2.058v.727h-1.3v.546h1.182v.717h-1.183v.584h1.325zm2.692-1.442c0-.24-.17-.425-.401-.425h-.497v.85h.496c.232 0 .403-.185.403-.425zm.758 0c0 .627-.507 1.131-1.16 1.131h-.496v1.037h-.758v-3.3h1.255c.652 0 1.159.505 1.159 1.132zm3.464-1.131v3.3h-.757v-1.311h-1.041v1.31h-.757v-3.3h.757v1.264h1.04v-1.263h.758zm2.858 2.074l-.389-1.212-.387 1.212h.775zm.226.706h-1.23l-.165.52h-.828l1.126-3.3h.965l1.126 3.3h-.828l-.166-.52zm3.569-1.225v-.848h-.567c-.209 0-.379.184-.379.424s.17.424.379.424h.567zm.758 1.744h-.758v-1.084h-.24l-.706 1.084h-.852l.777-1.178c-.403-.17-.682-.561-.682-.99a1.13 1.13 0 011.136-1.131h1.325v3.3zM3.88 44.053l-.389-1.211-.388 1.211h.776zm.226.707h-1.23l-.166.519h-.827l1.125-3.3h.966l1.126 3.3h-.828l-.166-.519zm3.672.519l-1.06-1.528v1.528H5.96v-3.3h.757v1.433L7.73 41.98h.862l-1.117 1.608 1.164 1.692h-.861zm3.575-1.226l-.388-1.211-.388 1.211h.776zm.227.707h-1.23l-.166.519h-.828l1.126-3.3h.965l1.126 3.3h-.828l-.165-.519zm3.805-.207v-1.867h-.705v.783c0 .542-.095.872-.213 1.084h.918zm1.112 0v1.358h-.757v-.632h-1.656v.631h-.757v-1.357h.336c.151-.217.26-.533.26-1.093v-1.48h2.219v2.573h.355zm3.052 0v.726h-2.082v-3.3h2.058v.726h-1.301v.547h1.183v.717h-1.183v.584h1.325zm4.348.726h-.757V43.36l-.856 1.4h-.085l-.857-1.4v1.919h-.757v-3.3h.757l.899 1.466.9-1.466h.756v3.3zm2.987-1.791l-1.277 1.79h-.568V41.98h.757v1.79l1.278-1.79h.567v3.299h-.757v-1.791zm3.486.047v-.849h-.567c-.208 0-.378.184-.378.424 0 .241.17.425.378.425h.568zm.758 1.744h-.757v-1.084h-.242l-.704 1.084h-.852l.776-1.179c-.402-.17-.681-.56-.681-.99a1.13 1.13 0 011.135-1.13h1.325v3.3zM12.397 21.558a7.862 7.862 0 01-2.062 1.054c-.733.247-1.566.37-2.501.37-1.668 0-2.969-.525-3.903-1.575-.935-1.05-1.402-2.46-1.402-4.232v-4.19H0V9.726h2.529V6.14h4.178v3.587h3.656v3.26H6.707v4.19c0 .675.151 1.205.454 1.588.302.383.773.575 1.415.575a3.27 3.27 0 001.155-.205 7.545 7.545 0 001.264-.644l1.402 3.068zm10.462-2.78c.595-.648.893-1.51.893-2.588s-.298-1.94-.893-2.589a2.886 2.886 0 00-2.213-.972c-.88 0-1.618.325-2.213.973-.595.648-.893 1.51-.893 2.588 0 1.077.298 1.94.893 2.588a2.884 2.884 0 002.213.972c.88 0 1.617-.324 2.213-.972zm-5.883 3.382a6.982 6.982 0 01-2.762-2.41c-.697-1.04-1.045-2.227-1.045-3.56 0-1.333.348-2.52 1.044-3.56a6.985 6.985 0 012.763-2.41 8.176 8.176 0 013.67-.85 8.06 8.06 0 013.615.85 7.197 7.197 0 012.79 2.41c.714 1.04 1.072 2.227 1.072 3.56 0 1.333-.34 2.52-1.018 3.56a6.784 6.784 0 01-2.734 2.41 8.298 8.298 0 01-3.725.85 8.174 8.174 0 01-3.67-.85zm24.91-3.56c.65-.62.976-1.442.976-2.465 0-.95-.275-1.735-.825-2.355-.55-.62-1.292-.931-2.227-.931-.568 0-1.168.2-1.8.602-.632.402-1.242.977-1.828 1.726v3.176c1.063.785 2.07 1.178 3.024 1.178 1.136 0 2.03-.31 2.68-.931zm2.323-8.34c.916.594 1.649 1.41 2.198 2.451.55 1.041.825 2.2.825 3.479 0 1.278-.298 2.437-.893 3.478a6.432 6.432 0 01-2.474 2.45c-1.054.594-2.24.891-3.56.891-1.539 0-2.913-.52-4.123-1.561v3.889h2.502v3.26H29.53v-3.26h2.556V12.985H29.53V9.726h6.652v2.493c.733-.913 1.54-1.616 2.419-2.11.88-.492 1.76-.739 2.639-.739 1.063 0 2.052.297 2.969.89z" fill="#1E1F1D"/><path d="M57 24.25h-3.766V3.841H30.786V.089H57v24.16z" fill="#D91842"/></svg>