<svg width="79" height="16" viewBox="0 0 79 16" fill="none" xmlns="http://www.w3.org/2000/svg"><path d="M68.164.382l-4.688 7.433 4.885 7.776H79V.382m-79 0v15.21h6.307L3.028.381" fill="#F67A22"/><path d="M45.306 6.708h-.5V3.835h.553c1.185 0 1.975.224 1.975 1.345-.013 1.133-.856 1.528-2.028 1.528zM31.562 12.02c-.935 0-1.62-.527-1.62-4.046 0-3.427.658-4.033 1.62-4.033.974 0 1.619.606 1.619 4.033 0 3.519-.698 4.046-1.62 4.046zm31.916-4.205l4.7-7.433H62.16l-2.107 4.323L58.078.382h-6.36l4.609 7.433-3.239 5.114c-.171-1.239-.237-2.32-.434-3.097-.29-1.16-1.093-1.819-2.568-1.937v-.04c2.278-.554 3.002-1.871 3.002-3.611 0-2.86-1.91-3.849-5.175-3.849h-9.005v4.297C37.907 1.806 35.47 0 31.56 0c-3.186 0-5.411 1.213-6.662 3.216l.606-2.82h-5.385l-1.29 9.555h-.04L17.38.395h-6.228L9.743 9.951h-.04L8.428.395h-5.4l3.279 15.21h6.53l1.41-9.859h.052l1.409 9.859h6.53l1.488-6.893C23.976 13.06 26.584 16 31.574 16c3.91 0 6.36-1.806 7.347-4.692v4.297h5.898v-5.417h.698c.974 0 1.356.29 1.488 1.054.21 1.305.395 3.23.764 4.363h9.664l2.33-4.6 2.252 4.6h6.36l-4.898-7.79z" fill="#000"/></svg>