<svg width="96" height="16" viewBox="0 0 96 16" fill="none" xmlns="http://www.w3.org/2000/svg"><path d="M2.641 14.434C1.104 15.322 0 14.583 0 13.267V2.057C0 .741 1.104.001 2.641.889l9.576 5.531c.955.552.955 1.93 0 2.482L2.64 14.435z" fill="#00C1FF"/><path d="M10.546 14.434c-1.538.887-2.642.148-2.642-1.169V2.056C7.904.74 9.008 0 10.546.888l9.365 5.41a1.574 1.574 0 010 2.725l-9.365 5.41z" fill="#BCEC30"/><mask id="mask0_7705_48025" style="mask-type:alpha" maskUnits="userSpaceOnUse" x="7" y="0" width="14" height="15"><path d="M10.546 14.434c-1.538.887-2.642.148-2.642-1.169V2.056C7.904.74 9.008 0 10.546.888a349891 349891 0 019.365 5.41 1.574 1.574 0 010 2.725l-9.365 5.41z" fill="#6FE4FF"/></mask><g filter="url(#filter0_f_7705_48025)" mask="url(#mask0_7705_48025)"><path d="M2.641 14.434C1.104 15.322 0 14.583 0 13.267V2.057C0 .741 1.104.001 2.641.889l9.576 5.531c.955.552.955 1.93 0 2.482L2.64 14.435z" fill="#99D100"/></g><path d="M25.835 10.163l.267-.61c.183-.415.512-.524.925-.22.791.586 2.094 1.013 3.834 1.013 1.485 0 2.118-.378 2.118-.83 0-.512-.523-.646-1.387-.756l-1.972-.256c-2.373-.317-3.566-1.17-3.566-2.658 0-1.598 1.302-2.866 4.32-2.866 1.68 0 2.764.256 3.47.524.779.305.888.561.888 1.195v.83c0 .512-.183.683-.682.683h-.56c-.51 0-.681-.183-.681-.683V5.26c-.329-.11-1.144-.268-2.094-.268-1.667 0-2.47.305-2.47.817 0 .378.486.598 1.375.72l1.935.256c2.337.292 3.579 1 3.579 2.707 0 1.732-1.644 2.841-4.577 2.841-2.154 0-3.883-.683-4.576-1.317-.244-.243-.28-.548-.146-.853zm21.372 2.024h-.998c-.487 0-.645-.073-.889-.44L43.446 8.98c-.268-.377-.475-.475-1.035-.475h-1.874v3c0 .512-.183.683-.682.683h-.718c-.511 0-.681-.183-.681-.683v-9h-.67c-.511 0-.681-.183-.681-.683v-.61c0-.512.182-.682.681-.682h2.081c.512 0 .682.182.682.682V6.48h1.68c.56 0 .754-.086 1.034-.476l1.57-2.427c.256-.378.414-.451.901-.451h.998c.548 0 .645.44.34.89L45.32 6.675a7.327 7.327 0 01-.608.744c.219.183.523.487.645.67l2.19 3.232c.305.427.195.866-.34.866zm3.561 1.658v-.597c0-.513.183-.683.682-.683h.864c.523 0 .779-.11.974-.525l.11-.231-4.14-7.842c-.255-.475-.048-.829.488-.829h.937c.487 0 .706.086.888.44l1.729 3.56c.401.817.852 1.756 1.205 2.573.365-.792.779-1.707 1.168-2.5l1.765-3.634c.158-.341.402-.439.889-.439h.937c.547 0 .742.366.487.83l-4.71 8.963c-.548 1.036-1.17 1.61-2.581 1.61h-1.035c-.486 0-.657-.184-.657-.696zm21.711-6.182c0 2.878-2.13 4.67-5.003 4.67-1.241 0-2.19-.305-2.86-.683v2.464c0 .512-.183.683-.682.683h-.718c-.511 0-.681-.183-.681-.683v-9h-.67c-.511 0-.681-.183-.681-.683v-.61c0-.512.182-.682.681-.682h1.753c.511 0 .681.182.681.682v.05c.682-.452 1.717-.891 3.177-.891 2.873.012 5.003 1.805 5.003 4.683zm-2.167 0c0-1.683-1.35-2.622-3.03-2.622-1.206 0-2.191.512-2.654.927V9.37c.475.415 1.448.927 2.653.927 1.68-.012 3.031-.951 3.031-2.634zm13.507-.707c0 .512-.183.683-.681.683h-.719c-.511 0-.682-.147-.682-.683 0-1.342-.51-1.94-1.728-1.94-1.156 0-2.118.72-2.653 1.598v4.89c0 .513-.182.683-.682.683h-.718c-.511 0-.681-.183-.681-.683v-6.39h-.67c-.511 0-.682-.183-.682-.683v-.61c0-.512.183-.682.682-.682h1.752c.512 0 .682.183.682.683v.585c.645-.72 1.632-1.415 3.31-1.415 2.46 0 3.47 1.464 3.47 3.964zm1.291.707c0-2.683 2.264-4.67 5.27-4.67 2.982 0 5.235 1.987 5.235 4.67 0 2.695-2.265 4.683-5.235 4.683-3.006 0-5.27-1.988-5.27-4.683zm8.435 0c0-1.56-1.375-2.695-3.165-2.695-1.825 0-3.2 1.146-3.2 2.695 0 1.573 1.375 2.72 3.2 2.72 1.802 0 3.165-1.147 3.165-2.72z" fill="#000"/><defs><filter id="filter0_f_7705_48025" x="-1.461" y="-.96" width="15.855" height="17.244" filterUnits="userSpaceOnUse" color-interpolation-filters="sRGB"><feFlood flood-opacity="0" result="BackgroundImageFix"/><feBlend in="SourceGraphic" in2="BackgroundImageFix" result="shape"/><feGaussianBlur stdDeviation=".731" result="effect1_foregroundBlur_7705_48025"/></filter></defs></svg>