<svg width="65" height="16" viewBox="0 0 65 16" fill="none" xmlns="http://www.w3.org/2000/svg"><path d="M8.653 15.777H0V.222h8.898c3.047 0 4.605 1.311 4.605 4.088 0 2.333-1.89 3.512-2.958 3.667 1.469.178 3.47 1 3.47 3.733-.001 2.868-2.315 4.067-5.362 4.067zM1.691 6.732h6.495c1.914 0 3.516-.355 3.516-1.866 0-1.622-1.357-1.889-3.137-1.889H1.691v3.755zm6.918 6.29c1.89 0 3.605-.267 3.605-1.845 0-1.667-1.602-2-3.404-2H1.692v3.845h6.917zm17.595-1.778h-6.986l-1.78 4.533h-1.757L21.867.222h2.87l6.185 15.555h-2.959l-1.759-4.533zm-6.072-2.266h5.182l-2.58-6.623-2.602 6.623zM40.152 16c-4.783 0-8.097-3.378-8.097-8.022S35.393 0 40.152 0c4.783 0 8.098 3.378 8.098 8.022S44.913 16 40.152 16zm0-13.112c-4.805 0-6.673 2.49-6.673 5.112 0 2.621 1.825 5.11 6.673 5.11 4.805 0 6.674-2.489 6.674-5.11 0-2.623-1.824-5.112-6.674-5.112zM65 .222v15.555h-3.314L52.92 2.49v13.288h-1.668V.222h3.47l8.587 13.066V.222H65z" fill="#000"/></svg>