<svg width="100" height="27" viewBox="0 0 100 27" fill="none" xmlns="http://www.w3.org/2000/svg"><g clip-path="url(#clip0)"><path d="M72.544 14.42l-1.597.06-.118-.416-1.539-.06v-.296h-1.598l.237.534.71.118-.059-.237.65.475 1.066.237h.71l1.834-.237-.296-.178zm-4.024-1.365l-.768-.118s0-.238-.296-.416c-.296-.119-.237 0-.237 0l-.296-.178-.532-.06-.06-.355-.65-.06v-.178l-.533-.059-.237-.178.06-.237-.119-.178-.65-.297-.533-.178-.355-.415-.414-.357-.533-.534-1.361-.474-1.243-.89-1.065-.475-1.124-.594-1.716-.949-3.728-1.78-1.065-.475c-.591-.237-.71-.415-.71-.475-.532-.118-.71-.237-1.006-.474-.296 0-.946-.356-1.124-.534 0 0-1.124-.297-1.184-.416 0-.06-2.84-1.068-3.195-1.127-.236 0-.946-.119-1.065-.178-.118 0-.532-.119-.71-.178C41.48.178 40.888.06 40.296.06c-.414 0-.71 0-1.065-.12-.119.06-1.006-.058-1.361.179-.355 0-1.183.178-1.42.297-.474 0-1.302.534-1.598.652-.118.06-.296.12-.414.178.888.297 1.893.653 1.893.712.06.06 1.184.357 1.184.416.296.237.947.593 1.242.593.296.297.474.356 1.006.475 0 .06.119.237.71.475l1.066.474 3.727 1.78 1.716.95 1.125.594 1.065.474.414.297.828.297 1.835.593 2.248.83.829.298.828.237.414-.06.414.12.474.415.473-.178.355.059.237.356.177.178.414.119.415.059.473-.119.592.06.177.356.829.118 1.183.12.474.177.414.415.591.12 1.539.237 1.36-.178.888.059.474-.119z" fill="#52B9E9"/><path d="M56.154 15.25h1.657v.297l1.479.119.177.356 1.539-.06.355.238-1.834.238-.71-.06-1.066-.237-.65-.416.059.178-.71-.059-.296-.593zm-30.533-2.61h5.503v4.984l3.018-4.984h6.095l-4.675 6.527 4.793 7.24h-6.331l-2.9-5.222v5.222h-5.503V12.64zM24.26 25.991c-.887.475-2.07.831-3.668.831-4.497 0-7.693-2.908-7.693-7.299 0-4.984 4.083-7.299 7.574-7.299 1.125 0 2.663.297 3.787 1.068V18.1c-.828-1.068-2.07-1.483-3.017-1.483-2.071 0-3.018 1.364-3.018 3.026 0 1.78 1.302 2.789 3.018 2.789 1.242 0 2.307-.534 3.077-1.246-.06 0-.06 4.806-.06 4.806zM5.503 17.802v-1.958h.532c.947 0 1.243.475 1.243.95 0 .474-.237.949-1.242.949l-.533.06zM0 12.58v13.827h8.166c3.787 0 4.615-2.433 4.615-3.857 0-1.9-1.302-3.205-3.077-3.502v-.059c1.124-.356 2.426-1.305 2.426-2.908 0-1.068-.414-3.5-4.379-3.5H0zm5.503 10.444v-2.077h.65c.533 0 1.362.12 1.362 1.01 0 .949-.888 1.067-1.361 1.067h-.651z" fill="#006FBA"/><path d="M56.331 14.598s0-.238-.296-.416c-.295-.118-.236 0-.236 0l-.296-.178-.473-.118v-.356l-.651-.06v-.178l-.533-.059-.236-.178.059-.237-.119-.178-.65-.297-.533-.178-.355-.415-.414-.357-.533-.534-1.36-.474-1.243-.89-1.066-.475-1.124-.594-1.716-.949-3.728-1.78-1.065-.475c-.591-.237-.71-.415-.71-.475-.532-.118-.71-.237-1.006-.474-.295 0-.946-.356-1.124-.534 0 0-1.124-.297-1.183-.416 0-.06-2.84-1.068-3.196-1.127-.236 0-.946-.119-1.065-.178-.118 0-.532-.119-.71-.178-.591-.06-1.183-.178-1.775-.178-.414 0-.71 0-1.065-.119-.118.06-1.006-.06-1.361.178-.355 0-1.183.178-1.42.297-.473 0-1.302.534-1.598.652-.236.12-.532.238-.769.356-.118.06-1.657.831-1.775.95 0 .06-1.538.95-1.657 1.068-.06.06-.473.237-.592.356-.118.119-.532.475-.65.534-.06.119-.474.297-.533.416-.118.118-.592.356-.65.415 0 0-.297.237-.474.415-.06.119-.178.238-.237.356-.118.06-.533.297-.65.356 0 .238 0 .653-.356.534 0 0-.473.297-.473.238.059 0-.237.415-.474.712-.118.178-.828.415-.946.593l-.888 1.069h.06c0 .059.236.059.295.118.06.119-.118.237-.118.415h.059c.177 0 .414-.237.592-.296.118-.06.296-.119.414-.178.236-.119.473-.297.769-.416 1.834-1.008 3.728-1.958 5.562-2.967.888-.474 1.598-.89 2.604-1.424.236-.118 1.124-.712 1.775-.771.828-.06 1.893.178 2.13.296.237.12.888.416 1.243.475.118.06.296.178.355.178.059.06.65.119.946.238l.356.178c.532.178 1.834.474 2.307.593.414.119.651.356.828.415.296.178.356.12.651.238.533.06.829.237.829.237.177.06.236.119.414.178.118 0 .414.238.473.238.119 0 .947.296 1.066.296.118 0 .71.238.828.297l.533.178 1.715.653 1.835.593 2.248.83.829.298.828.237.414-.06.415.12.473.415.473-.178.355.059.237.356.178.178.414.119.414.06.473-.12.592.06.178.356.828.119 1.183.118.474.178.414.416.592.118 1.538.238 1.361-.178.888.059.295-.237-.71.237zM44.97 25.873a2.357 2.357 0 01-1.065.237c-.769 0-1.242-.237-1.597-.593-.533-.475-.71-1.01-.71-1.662 0-.771.355-1.365.71-1.662.414-.415 1.006-.593 1.597-.593.296 0 .71.06 1.065.237v1.01c-.414-.476-.887-.476-1.065-.476-.887 0-1.479.713-1.479 1.484 0 .95.77 1.484 1.48 1.484a1.26 1.26 0 001.005-.475c.06.06.06 1.009.06 1.009zm2.486.177h-.888v-3.56h-1.006v-.712h2.84v.712h-1.005l.059 3.56zm2.722-3.62h.295c.178 0 .415 0 .592.12.118.118.237.237.237.474a.54.54 0 01-.237.475c-.177.237-.355.237-.532.237h-.355v-1.305zm-.888-.711v4.332h.888v-1.602h.532c.533 0 .888-.12 1.124-.357.355-.356.355-.771.355-.949 0-.297-.118-.712-.473-1.068-.296-.297-.65-.356-1.184-.356H49.29zm4.734 2.729l.65-1.542.592 1.543h-1.242zm1.893 1.603h.888L54.97 21.66h-.65l-1.894 4.39h.947l.414-.89h1.775l.355.89zm2.84-2.255l-1.301-2.018h1.006l.769 1.306.828-1.306h1.006l-1.36 2.018 1.478 2.255h-1.005l-.947-1.602-1.006 1.602h-1.006l1.538-2.255zm5.622 1.602c-.888 0-1.48-.593-1.48-1.484 0-.89.592-1.483 1.48-1.483.887 0 1.479.593 1.479 1.483 0 .831-.65 1.484-1.48 1.484zm0-3.738c-1.361 0-2.367.949-2.367 2.254 0 1.306.947 2.255 2.367 2.255 1.36 0 2.367-.95 2.367-2.255s-1.006-2.255-2.367-2.255zm4.319.77h.237c.355 0 .65.12.65.535 0 .534-.532.534-.65.534h-.237v-1.068zm-.828-.711v4.332h1.48c.354 0 .768-.06 1.123-.356.296-.238.355-.594.355-.89a1.3 1.3 0 00-.295-.831 1.104 1.104 0 00-.592-.297.905.905 0 00.473-.83c0-.357-.177-.713-.414-.89-.355-.297-.828-.297-1.065-.297l-1.065.059zm1.124 2.433c.178 0 .414 0 .592.06.296.118.296.355.296.474a.49.49 0 01-.296.475c-.178.118-.414.118-.592.118h-.355v-1.127h.355zm5.089 1.246c-.888 0-1.48-.593-1.48-1.484 0-.89.592-1.483 1.48-1.483.828 0 1.48.593 1.48 1.483 0 .831-.593 1.484-1.48 1.484zm0-3.738c-1.361 0-2.367.949-2.367 2.254 0 1.306.947 2.255 2.367 2.255 1.36 0 2.367-.95 2.367-2.255s-1.006-2.255-2.367-2.255zm4.319.059v2.907l2.426-2.966h.592v4.39h-.887v-2.907l-2.427 2.967h-.591v-4.391h.887zm.533-1.365c.118.356.532.356.592.356.059 0 .473 0 .591-.356l.592.237c-.177.416-.592.712-1.183.712-.592 0-1.006-.296-1.184-.712l.592-.237zm6.982 2.076h1.302v2.85h-1.775a2.07 2.07 0 00.355-.535c.059-.178.177-.534.177-1.187v-1.127h-.059zm-.828-.711v1.899c0 .593-.06.89-.178 1.127-.118.297-.355.594-.71.594v1.72h.77v-.949h2.721v.95h.77v-1.721h-.474v-3.56h-2.9v-.06zm6.449 3.679c-.887 0-1.479-.593-1.479-1.484 0-.89.592-1.483 1.48-1.483.887 0 1.479.593 1.479 1.483 0 .831-.592 1.484-1.48 1.484zm0-3.738c-1.36 0-2.366.949-2.366 2.254 0 1.306.946 2.255 2.367 2.255 1.36 0 2.366-.95 2.366-2.255s-.946-2.255-2.367-2.255zm3.255 4.39l.828-4.39h.592l1.184 2.788 1.242-2.788h.592l.769 4.39h-.888l-.414-2.67-1.183 2.73h-.237l-1.183-2.73-.474 2.67h-.828z" fill="#006FBA"/></g><defs><clipPath id="clip0"><path fill="#fff" d="M0 0h100v27H0z"/></clipPath></defs></svg>