<svg width="97" height="12" viewBox="0 0 97 12" fill="none" xmlns="http://www.w3.org/2000/svg"><path d="M93.041 9.423a.203.203 0 01-.061.157.21.21 0 01-.16.06h-3.068a.239.239 0 01-.23-.218V2.46c0-.058.023-.113.064-.154a.22.22 0 01.155-.064h3.08a.218.218 0 01.22.218v6.964zm3.453-7.541l-.946-.925a1.78 1.78 0 00-1.1-.457H85.54l.066 10.881h8.897a1.92 1.92 0 001.1-.468l.935-.946c.273-.302.435-.685.462-1.088V3.014a1.755 1.755 0 00-.473-1.089M82.703.598h-2.2a.878.878 0 00-.621.248.865.865 0 00-.258.612v4.504L75.477.87a.88.88 0 00-.681-.272h-2.2a.875.875 0 00-.813.528.847.847 0 00-.067.332v9.14c0 .23.093.452.258.615a.885.885 0 00.622.255h2.2a.885.885 0 00.622-.255.867.867 0 00.257-.615V3.862l3.96 4.81v1.882c0 .231.092.453.257.616a.884.884 0 00.622.255h2.2a.884.884 0 00.622-.255.865.865 0 00.258-.616v-9.14a.855.855 0 00-.278-.588.874.874 0 00-.613-.228zM65.8 9.466a.217.217 0 01-.22.218H62.5a.22.22 0 01-.22-.218V2.502a.22.22 0 01.22-.218h3.08a.22.22 0 01.22.218v6.964zm3.959 1.088v-9.13A.866.866 0 0069.5.81a.885.885 0 00-.622-.255H59.2a.885.885 0 00-.622.255.866.866 0 00-.258.616v9.13c0 .23.093.452.258.615a.885.885 0 00.622.255h9.678a.885.885 0 00.622-.255.866.866 0 00.258-.616zM55.484.598h-2.2a.898.898 0 00-.66.283l-3.74 4.548-3.66-4.494a.898.898 0 00-.737-.337h-2.2a.878.878 0 00-.621.248.858.858 0 00-.258.612v9.14c0 .23.092.452.257.615a.884.884 0 00.622.255h2.2a.884.884 0 00.622-.255.866.866 0 00.258-.615V3.862l2.64 3.265v3.47c0 .232.092.453.257.616a.885.885 0 001.244 0 .867.867 0 00.258-.615V7.127l2.64-3.265v6.692c0 .231.092.453.257.616a.884.884 0 00.622.255h2.2a.884.884 0 00.621-.255.865.865 0 00.258-.616v-9.14a.847.847 0 00-.258-.612.872.872 0 00-.621-.248M35.49 9.466a.217.217 0 01-.065.154.221.221 0 01-.155.064h-3.08a.221.221 0 01-.155-.064.216.216 0 01-.065-.154V2.502a.221.221 0 01.22-.218h3.08a.22.22 0 01.22.218v6.964zm3.486-7.519l-.935-.936a1.902 1.902 0 00-1.1-.457h-8.93V11.48h8.897a1.902 1.902 0 001.1-.457l.935-.936c.28-.298.447-.682.473-1.088v-5.94a1.751 1.751 0 00-.473-1.089m-20.819.532a.203.203 0 01.057-.153.21.21 0 01.152-.064h3.52a.216.216 0 01.22.218v3.764a.216.216 0 01-.065.154.221.221 0 01-.156.064h-3.519a.21.21 0 01-.196-.136.203.203 0 01-.013-.082V2.502zm7.028 7.182h-6.819a.21.21 0 01-.196-.135.203.203 0 01-.013-.083V8.443a.203.203 0 01.057-.153.21.21 0 01.152-.064h6.819a.885.885 0 00.622-.255.866.866 0 00.258-.616v-5.93a.866.866 0 00-.258-.616.885.885 0 00-.622-.255H15.045a.885.885 0 00-.622.255.866.866 0 00-.258.616v9.13c0 .23.093.452.258.615a.885.885 0 00.622.255h10.107a.885.885 0 00.622-.255.866.866 0 000-1.231.885.885 0 00-.622-.255zM8.358 6.267a.216.216 0 01-.064.154.221.221 0 01-.156.064H4.18a.221.221 0 01-.155-.064.216.216 0 01-.065-.154V2.502a.221.221 0 01.22-.218h3.96a.22.22 0 01.219.218v3.765zm3.86 4.124l-1.803-2.176h1.023a.885.885 0 00.622-.255.866.866 0 00.258-.616v-5.93a.856.856 0 00-.274-.584.874.874 0 00-.606-.232H.88a.877.877 0 00-.622.248.86.86 0 00-.258.612v9.14c0 .23.093.452.258.615a.884.884 0 00.622.255h2.2a.884.884 0 00.621-.255.866.866 0 00.258-.615V8.215H5.5l2.606 3.264h3.893c.517-.087.616-.511.22-1" fill="#000"/></svg>