<svg width="100" height="18" viewBox="0 0 100 18" fill="none" xmlns="http://www.w3.org/2000/svg"><path fill-rule="evenodd" clip-rule="evenodd" d="M7.122 11.947a.736.736 0 01.539-.62.745.745 0 01.289-.021l.165.02c1.404.175 2.823.175 4.227 0l.165-.02a.745.745 0 01.83.642.738.738 0 01-.646.825l-.165.021c-1.526.19-3.07.19-4.595 0l-.165-.02a.743.743 0 01-.643-.826l-.001-.001zm10.96-.943a1.322 1.322 0 01-.812 1.269 1.34 1.34 0 01-1.767-.747 1.324 1.324 0 01-.088-.522 1.324 1.324 0 01.813-1.27 1.339 1.339 0 011.766.747c.064.167.094.344.088.523zM4.346 6.97v-.003.003zm11.782.049v-.003.003zM5.042 11.003a1.326 1.326 0 01-.402.918 1.337 1.337 0 01-1.892-1.887 1.334 1.334 0 011.481-.3 1.334 1.334 0 01.812 1.269h.001zm1.976-8.17c.945-.137 2.107-.263 3.211-.263 1.103 0 2.264.125 3.21.264.796.116 1.472.696 1.761 1.524l.88 2.523c-.776.314-2.486.763-5.837.716-3.306-.047-5.035-.464-5.851-.76l.865-2.479c.29-.829.966-1.408 1.76-1.524zM10.228.5C8.985.5 7.712.64 6.715.786c-1.632.24-2.899 1.406-3.417 2.891l-.907 2.6-.008.026-1.695-.454a.447.447 0 00-.545.314l-.077.285a1.918 1.918 0 001.271 2.329v2.902c-.002.435.1.865.297 1.255v2.951c0 .49.399.888.889.888H4.3a.89.89 0 00.89-.888V14.49c1.197.105 3.26.185 5.037.207 1.78.023 3.841-.037 5.039-.136v1.324c0 .49.398.888.89.888h1.777a.888.888 0 00.889-.888v-2.83a2.68 2.68 0 00.296-1.244V8.757c.471-.153.865-.48 1.1-.912.237-.433.297-.94.169-1.416l-.077-.286a.44.44 0 00-.544-.313l-1.699.453-.909-2.606c-.517-1.484-1.785-2.652-3.417-2.891C12.744.639 11.472.5 10.229.5z" fill="#FBB216"/><path fill-rule="evenodd" clip-rule="evenodd" d="M80.087 13.806c-1.58 0-2.45-1.633-2.45-3.508 0-1.853.87-3.485 2.45-3.485 1.563 0 2.521 1.533 2.521 3.485s-.958 3.508-2.52 3.508h-.001zm3.707-8.956c-.69 0-1.186.529-1.186 1.147v.132c-.65-.825-1.553-1.411-2.806-1.411-2.96 0-4.472 2.536-4.472 5.58v.022c0 3.044 1.511 5.581 4.472 5.581 1.255 0 2.158-.53 2.807-1.29.006.634.5 1.158 1.142 1.158a1.167 1.167 0 001.165-1.17V5.997c0-.618-.518-1.147-1.122-1.147zm14.826 0c-.69 0-1.187.529-1.187 1.147v8.602c0 .64.497 1.17 1.144 1.17a1.171 1.171 0 001.165-1.17V5.997c0-.618-.518-1.148-1.123-1.148zm-.044-1.17c.777 0 1.424-.639 1.424-1.456C100 1.43 99.353.79 98.576.79c-.776 0-1.422.64-1.422 1.434 0 .817.646 1.457 1.422 1.457zm-6.01 6.486l2.523-3.618c.126-.182.194-.397.195-.618 0-.551-.475-1.059-1.08-1.059-.366 0-.69.177-.905.486l-2.157 3.198-2.22-3.22a1.056 1.056 0 00-.885-.464c-.647 0-1.078.552-1.078 1.081 0 .2.065.397.194.596l2.523 3.618-2.739 3.927a1.03 1.03 0 00-.193.595 1.09 1.09 0 001.078 1.081.989.989 0 00.84-.441l2.48-3.574 2.438 3.574c.193.308.517.441.862.441.647 0 1.057-.551 1.057-1.08 0-.2-.043-.42-.172-.596l-2.761-3.927zM73.28 13.74c-.13 0-.324.066-.475.066-.54 0-.992-.442-.992-1.258V7.055h1.272c.54 0 .971-.463.971-1.015 0-.595-.43-1.059-.97-1.059h-1.273V1.96c0-.64-.496-1.17-1.122-1.17-.667 0-1.185.53-1.185 1.17v3.02h-.863c-.539 0-.992.464-.992 1.016 0 .595.453 1.058.992 1.058h.863v6.088c0 1.788.927 2.758 2.695 2.758 1.467 0 2.092-.44 2.092-1.147 0-.573-.388-1.014-1.013-1.014zm-8.522-8.891c-.691 0-1.187.53-1.187 1.148v8.602c0 .64.496 1.17 1.144 1.17a1.173 1.173 0 001.164-1.17V5.997c0-.618-.518-1.148-1.122-1.148zm-.043-4.06c-.777 0-1.424.64-1.424 1.435 0 .816.647 1.457 1.423 1.457a1.44 1.44 0 001.424-1.457c0-.794-.648-1.434-1.423-1.434zm-4.208 4.06c-.496 0-.97.332-1.1.817l-1.983 6.993-2.2-6.883c-.194-.552-.69-.927-1.25-.927-.626 0-1.122.375-1.294.927l-2.2 6.883-1.984-6.994c-.13-.486-.604-.817-1.1-.817-.69 0-1.143.575-1.143 1.125 0 .111.022.221.044.332l2.544 8.338c.194.662.798 1.125 1.466 1.125h.043c.691 0 1.316-.463 1.51-1.125l2.092-6.772 2.092 6.772a1.557 1.557 0 001.488 1.125h.043c.668 0 1.293-.463 1.488-1.125l2.523-8.338a.928.928 0 00.065-.332 1.122 1.122 0 00-.707-1.043 1.134 1.134 0 00-.437-.082zm-17.273 0c-.69 0-1.187.53-1.187 1.148v8.602c0 .64.496 1.17 1.144 1.17a1.171 1.171 0 001.165-1.17V5.997c0-.618-.519-1.148-1.123-1.148h.001zM43.19.789c-.776 0-1.422.64-1.422 1.435 0 .816.646 1.457 1.422 1.457.777 0 1.424-.64 1.424-1.457 0-.794-.647-1.434-1.424-1.434zm-7.117 9.024l2.846-3.155c.152-.198.259-.463.259-.706 0-.596-.518-1.125-1.1-1.125-.28 0-.56.133-.754.354l-4.335 4.897V1.937c0-.618-.517-1.148-1.121-1.148-.69 0-1.187.53-1.187 1.148v12.662c0 .64.496 1.17 1.143 1.17a1.171 1.171 0 001.166-1.17V12.79l1.422-1.522 2.89 4.015c.216.33.583.485.95.485.69 0 1.142-.618 1.142-1.191 0-.221-.086-.463-.216-.662l-3.106-4.103h.001z" fill="#373F47"/></svg>