<svg width="108" height="11" viewBox="0 0 108 11" fill="none" xmlns="http://www.w3.org/2000/svg"><path d="M86.819 10.939V1.095h2.614v3.73h.189l2.39-3.73h2.992l-2.788 4.343 3.206 5.104v.397h-2.85l-2.155-3.772h-1.02v3.756l-2.579.016zM5.01 5.01l1.15 2.572H5.005l-.9 2.125h2.877l.586 1.23h2.479v-.365l-4.482-9.53H4.47L0 10.574v.365h2.484l2.527-5.928zm16.61-3.916h.91v9.844h-2.616V6.565L17.782 8.75h-.288l-2.092-2.186v4.374h-2.615V1.095h.941l3.907 4.26 3.985-4.26zm10.941 2.274H28.87v1.39h3.388v2.228H28.87V8.71h3.817v2.229h-6.354V1.12h6.229v2.248zm7.42 7.57h-3.76V1.12h3.76c6.502.03 6.503 9.786 0 9.818zM38.77 8.654h1.214c3.18 0 3.18-5.244 0-5.244H38.77v5.244zm14.132.056v2.203h-5.057V8.71h1.266V3.313h-1.166V1.12h4.88v2.191H51.63V8.71h1.27zm9.64.993h-3.934l-.58 1.236h-2.495v-.366L60.02.993h1.098l4.498 9.574v.366h-2.495l-.58-1.23zM60.557 4.98l-1.124 2.573h2.28L60.559 4.98zm6.058-1.61V1.12h7.41v2.25H71.59v7.569h-2.521v-7.57h-2.453zm16.846 0h-3.688v1.388h3.384v2.229h-3.389V8.71h3.818v2.229h-6.355V1.12h6.224l.006 2.248zm22.038 7.569h2.5v-.366l-4.493-9.58h-1.098l-4.503 9.58v.366h2.511l.591-1.236h2.887l-.905-2.14h-1.161l1.155-2.573 2.516 5.949z" fill="#000"/></svg>