<svg width="66" height="59" viewBox="0 0 66 59" fill="none" xmlns="http://www.w3.org/2000/svg"><path fill-rule="evenodd" clip-rule="evenodd" d="M31.53.013C24.59.14 17.107 1.252 9.706 3.254c-.62.169-.718.204-.804.29l-.097.1-.008 9.556-.008 9.558H6.173v1.857l-3.084.008-3.084.008 1.774 3.234c.976 1.779 1.804 3.292 1.841 3.362l.067.128-1.843 3.362L0 38.08l4.456.008 4.457.008.017.136c.36 2.89 1 5.113 2.16 7.5a22.777 22.777 0 006.168 7.781c5.08 4.132 11.707 6.043 18.545 5.346a25.063 25.063 0 006.796-1.68c4.121-1.67 7.632-4.39 10.21-7.91a22.869 22.869 0 004.223-10.704l.055-.47h4.457c2.45 0 4.456-.005 4.456-.011 0-.01-3.332-6.096-3.597-6.57l-.09-.16 1.842-3.362 1.843-3.36-3.082-.017-3.082-.016-.008-.92-.008-.921H57.2v-9.534c0-9.271-.002-9.537-.06-9.633a.378.378 0 00-.15-.135c-.242-.1-2.928-.79-4.316-1.111C45.352.654 38.405-.112 31.53.013zm4.667.842c5.675.262 11.027 1.02 16.73 2.37.992.235 3.064.765 3.463.885.053.016.056.425.047 9.325l-.009 9.307h-1.356l-.016-8.455c-.014-7.833-.02-8.46-.068-8.536-.07-.109-.097-.118-1.067-.38C42.564 2.3 34.361 1.539 25.127 2.699c-3.75.471-7.902 1.307-12.316 2.48l-.041.01c-1.487.395-1.617.43-1.703.512l-.025.025-.002.003-.09.094-.007 8.468-.008 8.467H9.579V4.127l.102-.033a78.344 78.344 0 012.342-.613c4.55-1.126 9.088-1.909 13.435-2.318 2.004-.189 3.349-.27 5.803-.352.617-.02 4.238.012 4.936.044zm-2.508 12.009v9.878h-1.356l-.008-9.846c-.004-5.416 0-9.865.007-9.887.012-.032.167-.039.687-.032l.67.008v9.879zm-2.144.016v9.862l-9.91.008-9.912.008V6.304l.166-.048a113.61 113.61 0 012.436-.641c4.791-1.217 9.139-2 13.167-2.372 1.41-.13 3.155-.237 3.753-.23l.3.004v9.863zm5.03-9.797c4.19.255 8.437.924 13.42 2.112 1.493.356 4.13 1.043 4.248 1.108.054.03.056.366.049 8.235l-.008 8.204H34.478l-.008-9.875-.008-9.875.67.022c.369.012 1.018.043 1.443.069zm-7.753 4.211c-.04.017-.154.103-.252.193-.435.396-1.36.923-2.126 1.211-.697.262-1.496.46-2.369.585-.454.066-.62.07-3.38.082-.236 0-.454.002-.655.003-1.755.009-2.253.011-2.732-.089a7.822 7.822 0 01-.637-.174l-.246-.074c-1.283-.38-1.296-.382-1.5-.339-.358.077-.609.261-.766.563-.077.15-.086.199-.086.503 0 .407.057.585.259.804a.98.98 0 00.673.309h.002c.042.003.076.006.11.005.144-.001.288-.055 1.043-.34l.01-.003c.234-.088.472-.17.528-.182l.103-.022.002 4.477c.001 3.382.01 4.505.04 4.589a.418.418 0 00.357.257c.064 0 .768-.269 1.789-.684l1.683-.683 1.683.683c.926.376 1.723.684 1.772.684a.422.422 0 00.339-.202c.06-.1.061-.196.062-4.613v-4.51l.118.021c.93.17 2.068.56 2.815.968a7.4 7.4 0 011.099.74c.27.23.388.268.574.182.096-.043.161-.115.286-.311.843-1.336.836-2.986-.018-4.335-.19-.299-.361-.387-.58-.298zm.184 1.28c.34.836.33 1.664-.032 2.482l-.093.21-.166-.125c-.61-.456-1.478-.887-2.429-1.207l-.496-.166.417-.137c.889-.291 1.685-.668 2.294-1.085.2-.137.373-.24.385-.23.013.01.067.125.12.257zm9.856-.181a.558.558 0 00-.158.115c-.059.067-.064.13-.079 1.005l-.016.933-.553.016c-.466.014-.567.026-.641.075a.53.53 0 01-.025.015l-.03.02c-.123.093-.123.351-.123 3.901v1.244c0 3.511 0 3.737.111 3.845a.621.621 0 00.047.042c.07.063.127.064 4.758.08l4.688.016.015.596c.012.45.027.609.061.65a.42.42 0 00.374.138c.124-.014.169-.044.382-.26l.242-.244.157.164c.25.262.383.35.532.348.157-.002.255-.053.336-.177.054-.084.06-.155.061-.663v-.568h1.248c1.083 0 1.285 0 1.383-.103a.466.466 0 00.06-.088l.002-.002c.046-.081.05-.467.05-4.407 0-3.39-.009-4.335-.04-4.397a.51.51 0 00-.145-.152c-.101-.069-.138-.073-.637-.073h-.53l-.01-.904c-.01-1.013-.019-1.057-.228-1.158-.102-.05-.308-.053-2.359-.044-2.226.01-2.25.01-2.455.08a2.08 2.08 0 00-.717.452l-.125.126-.173-.166a1.956 1.956 0 00-.717-.423c-.16-.054-.346-.06-2.413-.067-1.823-.007-2.256 0-2.333.035zm4.596.832c.194.075.442.304.529.485.037.078.086.26.109.406.036.228.055.276.14.353.08.073.128.09.259.09.14 0 .174-.015.265-.107.103-.104.116-.143.157-.474.037-.297.334-.651.641-.767.092-.034.52-.046 2.063-.054l1.948-.01v8.324l-2.01.01c-1.98.01-2.014.012-2.218.082a2.014 2.014 0 00-.716.452l-.123.129-.181-.172a1.928 1.928 0 00-.713-.421c-.158-.053-.344-.06-2.184-.069l-2.01-.01V9.146l1.947.01c1.797.008 1.96.014 2.097.068zm-28.24.368c.098.05.234.11.3.131.066.022.113.048.104.057a5.59 5.59 0 01-.607.255c-.154.037-.23-.288-.104-.45.036-.046.079-.084.096-.084.016 0 .11.04.21.091zm8.206.635c.032.035-.512.513-.775.68-1.268.81-2.98.75-4.179-.146-.235-.176-.525-.447-.572-.536-.032-.06.01-.061 2.739-.038 1.524.013 2.778.031 2.787.04zm-5.362 1.242a4.462 4.462 0 001.735.74c.41.08 1.312.081 1.735.002a4.45 4.45 0 002.022-.954.959.959 0 01.167-.123c.01 0 .016.24.011.534l-.008.533-2.93 1.242c-1.612.683-2.985 1.264-3.052 1.291l-.121.05v-3.659l.102.085c.057.047.21.163.34.259zm22.814-.21c-.139.086-.2.189-.2.332 0 .16.072.298.187.359.138.072 2.325.072 2.462 0 .185-.097.251-.407.123-.573-.138-.178-.152-.18-1.36-.18-1.04 0-1.12.005-1.212.062zm-2.25 3.424l.015 3.404.103.094.103.093H41c2.354 0 2.395.003 2.654.186.123.086.332.334.332.393 0 .018-1.16.027-2.972.022l-2.972-.009-.008-3.762c-.005-2.07-.002-3.78.007-3.804.011-.03.089-.038.292-.032l.276.01.016 3.405zm12.33.39v3.81H49l.009-.297.009-.296.573-.016c.553-.015.576-.019.655-.094a.496.496 0 00.112-.192c.02-.072.031-1.33.032-3.42v-3.306h.567v3.81zm-10.078-2.417c-.262.132-.271.568-.015.703.138.072 2.325.072 2.462 0 .26-.137.247-.575-.02-.704-.149-.072-2.283-.07-2.426.001zm-17.145.737l-.01.274-2.87 1.215c-1.578.668-2.951 1.25-3.05 1.294l-.182.079v-.566l3.02-1.282c1.66-.706 3.038-1.284 3.06-1.286.031-.002.038.064.032.272zm17.124.672c-.172.095-.236.376-.128.561.107.184.146.19 1.381.19.986 0 1.137-.007 1.213-.053.252-.15.253-.567.002-.699-.136-.071-2.338-.07-2.468.002zM23.739 16.61c0 1.327-.01 2.017-.031 2.017-.018 0-.688-.266-1.49-.592-.802-.326-1.497-.592-1.545-.592-.048 0-.73.26-1.514.58-.785.32-1.453.588-1.483.596-.053.015-.056-.03-.048-.727l.009-.744 3.012-1.277c1.656-.702 3.03-1.277 3.05-1.277.032-.001.04.423.04 2.016zm23.102 1.97v.288l-.923.008c-.55.005-.922-.004-.922-.021 0-.075.257-.349.403-.43.227-.124.36-.144.937-.139l.505.005v.288zm1.364.408c.005.383.003.696-.004.696a.635.635 0 01-.103-.048.374.374 0 00-.36 0l-.093.05v-1.413l.276.009.276.01.008.696zm10.84 10.51v5.924H6.978L6.97 29.49l-.008-5.932 26.043.008 26.042.009v5.923zM6.174 30.811v5.395h1.31c1.02 0 1.312.01 1.321.04.007.023.02.267.03.545l.018.504H5.1c-2.064 0-3.753-.006-3.753-.013 0-.008.726-1.337 1.613-2.954.888-1.617 1.614-2.956 1.614-2.975 0-.019-.71-1.33-1.577-2.914a1322.25 1322.25 0 01-1.615-2.951l-.037-.072h4.828v5.395zm58.462-5.355c-.008.023-.714 1.316-1.568 2.874a444.747 444.747 0 00-1.6 2.934l-.048.1 1.595 2.91c.877 1.6 1.604 2.934 1.616 2.965.02.054-.166.056-3.726.048l-3.747-.008.01-.32c.005-.176.018-.414.03-.529l.02-.208 1.3-.008 1.302-.008v-5.374c0-2.956.009-5.383.02-5.395.012-.012 1.1-.021 2.417-.021 1.93 0 2.392.008 2.38.04zM10.948 36.278c.008.04.022.291.032.559.06 1.666.423 3.656.985 5.4 2.032 6.305 6.973 11.204 13.486 13.37 5.279 1.755 11.29 1.6 16.36-.42 7.755-3.094 12.757-10.012 13.214-18.276.02-.343.04-.643.048-.665.01-.032.16-.039.669-.032l.655.008-.008.433c-.023 1.204-.275 3.014-.607 4.357a22.003 22.003 0 01-4.712 9.155 30.26 30.26 0 01-1.88 1.935c-3.608 3.297-8.224 5.366-13.246 5.94-1.073.123-1.537.146-2.901.146-1.354-.001-1.748-.021-2.854-.146-6.449-.726-12.188-3.898-16.027-8.858A21.99 21.99 0 019.69 37.855c-.056-.575-.112-1.588-.09-1.625.008-.013.31-.024.674-.024.659 0 .66 0 .674.072zm20.605 9.8c.007 8.712.002 9.857-.04 9.873-.07.028-1.075-.073-1.829-.182a22.042 22.042 0 01-6.875-2.158 18.155 18.155 0 01-2.255-1.313c-4.943-3.323-8.052-8.448-8.702-14.347-.072-.656-.138-1.671-.111-1.715.01-.018 3.926-.026 9.91-.022l9.894.008.008 9.856zm2.136.039v9.894l-.583.01a7.42 7.42 0 01-.686-.01l-.102-.019v-9.871c0-5.43.01-9.882.021-9.894.012-.012.32-.018.686-.013l.664.008v9.895zm20.557-9.462c-.003.237-.022.612-.04.832-.52 5.913-3.428 11.041-8.216 14.49-2.491 1.793-5.492 3.057-8.666 3.648-.88.164-2.275.338-2.71.338h-.152v-9.857c0-5.421.01-9.866.021-9.878.012-.012 4.465-.018 9.895-.014l9.874.008-.006.433zM43.92 38.97c-.383.146-.564.41-.564.824 0 .23.115.472.296.622l.133.11-.189 1.435-.19 1.435-.215.054a1.756 1.756 0 00-.71.341c-.153.123-.397.403-.424.487-.011.034-.222-.02-.956-.245l-.252-.077-.004-.185a.855.855 0 00-1.465-.585.908.908 0 00-.162 1.013c.078.156.286.353.443.42.173.074.495.065.683-.02l.158-.07.662.196.662.197v.3c0 .273-.005.301-.063.315-.555.14-3.318.7-3.43.697-.263-.009-.402.105-.402.33 0 .155.073.257.226.32.127.051.137.05 2.023-.351 1.72-.366 1.897-.398 1.924-.35.016.03.078.108.137.174l.106.12-.683 1.245c-.375.684-.705 1.263-.731 1.285a.271.271 0 01-.146.04c-.133 0-.392.129-.52.258-.257.262-.336.733-.179 1.07.16.343.454.527.84.527.279 0 .457-.069.642-.248.188-.183.272-.391.271-.679a.92.92 0 00-.204-.621l-.082-.11.605-1.099c.332-.605.63-1.144.663-1.199l.06-.1.165.058c.091.031.246.066.344.078l.049.005c.04.003.069.006.09.02.055.034.067.138.108.5l.02.174c.043.376.047.496.017.578-.063.178-.046.273.07.39.08.081.136.11.214.11.132 0 .297-.1.328-.198a.263.263 0 01.063-.107c.03-.025.02-.191-.055-.8-.051-.422-.081-.771-.066-.777.124-.041.461-.282.613-.437l.184-.188.37.229.004.002c1.307.808 1.448.895 1.504 1.02a.818.818 0 01.019.05c.075.212.135.295.286.397.116.078.16.088.388.088s.272-.01.39-.09c.442-.296.404-.982-.067-1.22a.672.672 0 00-.638-.005l-.152.078-.922-.575-.922-.576.03-.135c.03-.13.017-.611-.02-.743-.015-.055.095-.14.737-.572.616-.414.765-.529.808-.62a.382.382 0 00-.29-.543c-.17-.023-.309.053-.39.215-.053.105-.16.193-.612.499l-.548.37-.137-.152a1.862 1.862 0 00-.658-.449c-.086-.032-.157-.076-.157-.099 0-.057.344-2.664.366-2.773.012-.06.054-.107.134-.148.58-.301.577-1.18-.006-1.481-.162-.084-.468-.108-.624-.049zm-26.573.115a.452.452 0 00-.134.127c-.018.035-.445 1.18-.948 2.547-.572 1.553-.915 2.526-.915 2.597 0 .15.074.291.182.348.108.057 1.171.45 1.49.552.268.085.347.092.49.04.087-.033.116-.027.233.044l.134.081.006.3c.006.34.06.483.261.687.13.132.395.268.521.269.071 0 .097.027.161.168.162.353.446.538.863.562.228.013.262.023.296.088.11.21.532.399.89.4.227 0 .23 0 .355.132.07.073.203.169.298.213.212.1.557.129.743.064l.126-.045.2.185c.244.224.459.314.747.314.346 0 .71-.194.847-.452l.057-.108.267.011c.247.011.282.004.467-.088.186-.093.31-.203.427-.38.043-.066.057-.069.173-.036.07.02.219.03.331.021a.964.964 0 00.761-.468l.088-.14.216-.007a.982.982 0 00.886-.591c.145-.32.105-.75-.096-1.036-.048-.068-.055-.102-.03-.129.026-.026.059-.013.123.05.153.148.254.165.524.088.219-.062 1.182-.41 1.44-.52.158-.068.283-.228.283-.363 0-.112-1.756-4.92-1.853-5.074-.078-.123-.139-.157-.279-.158-.11-.001-.24.066-.922.479l-.793.48h-.981l-.527-.252c-.72-.346-.936-.42-1.208-.42-.252 0-.483.07-.848.255-.563.288-1.851.395-2.95.246-.267-.036-.302-.05-.614-.249-.182-.116-.578-.36-.88-.54-.609-.366-.73-.405-.908-.292zm.86 1.254c.234.16.434.31.443.333.043.114-.41 1.591-.698 2.273-.248.589-.684 1.42-.775 1.477-.032.02-.835-.257-.89-.306-.023-.02 1.45-4.067 1.48-4.067.008 0 .205.13.44.29zm9.601.246a589.541 589.541 0 011.362 3.718c.006.03-.127.093-.423.199l-.431.155-.114-.183c-.33-.53-.788-1.576-1.036-2.36-.137-.436-.314-1.124-.3-1.168.01-.03.806-.536.853-.542.011-.002.052.08.09.181zm-3.832.036c.19.086.51.234.71.328l.362.172.512.01.512.011.03.118.097.39c.193.787.558 1.779.926 2.513l.135.27.098.195c.004.009-.051.05-.123.091l-.13.076-1.557-1.58-1.557-1.581-.462.005a10.12 10.12 0 00-.697.027c-.205.02-.25.035-.344.123-.095.089-.112.128-.135.317-.05.403-.229.64-.627.833-.195.094-.503.137-.56.079-.013-.013.075-.167.195-.343.353-.517.366-.545.384-.87l.016-.288.177-.133c.63-.474 1.401-.919 1.591-.919.055 0 .256.07.447.156zm-3.58.39c.356.02.652.042.658.048.007.006-.005.059-.025.117-.02.058-.045.228-.056.378l-.018.272-.23.352c-.452.692-.497.846-.342 1.163.098.2.252.335.486.43.242.096.723.095.99-.003.595-.22 1.048-.648 1.199-1.136l.055-.177.266-.01.266-.01 1.747 1.776c.961.978 1.756 1.809 1.767 1.847.029.097-.1.243-.216.243-.074 0-.25-.165-1.072-.997l-.983-.997h-.162a.38.38 0 00-.388.274c-.074.228-.05.26.855 1.185.603.616.848.888.848.939 0 .092-.134.228-.226.228-.05 0-.34-.273-1.034-.973-.53-.535-.994-.989-1.032-1.008-.158-.082-.42.001-.5.159a.64.64 0 00-.046.238v.148l.628.662c.345.364.693.726.773.805.162.16.187.278.081.385-.131.134-.2.095-.67-.376-.351-.352-.456-.478-.526-.632a1.572 1.572 0 00-.172-.294c-.1-.12-.359-.256-.544-.285-.119-.019-.136-.034-.204-.18a1.053 1.053 0 00-.523-.487 1.152 1.152 0 00-.315-.051c-.159 0-.168-.005-.168-.081 0-.242-.223-.456-.57-.546a.96.96 0 00-.706.093l-.135.076-.078-.1a1.015 1.015 0 00-.249-.195c-.153-.086-.197-.095-.454-.095-.348 0-.468.056-.78.362l-.213.208-.105-.057-.02-.012c-.108-.058-.161-.087-.173-.128-.011-.041.018-.095.077-.201l.011-.02c.463-.839.921-2.024 1.176-3.046l.09-.363.158.018c.087.01.449.035.804.054zm23.647 3.212c.22.115.404.306.507.528.07.153.083.224.082.453-.002.234-.014.298-.093.458a1.06 1.06 0 01-1.683.327 1.313 1.313 0 01-.233-.331c-.09-.187-.103-.244-.103-.47 0-.215.015-.286.088-.437.14-.291.384-.507.685-.607.043-.015.192-.022.33-.017.2.008.288.028.42.096zm-24.528.84c.092.069.136.08.287.071.162-.009.185-.002.245.076.08.103.257.168.384.142a.693.693 0 00.206-.097c.118-.08.159-.078.291.018.07.05.07.057.023.15a.369.369 0 00-.003.356c.118.233.378.296.596.145.146-.1.225-.1.289-.002.038.06.043.103.02.185-.09.337.21.634.512.507.25-.104.397-.067.397.103 0 .086-.053.154-.357.463-.304.309-.37.361-.456.361-.13 0-.176-.086-.169-.326.01-.327-.148-.497-.43-.465-.116.013-.169.044-.303.177-.089.09-.183.164-.21.168-.11.014-.16-.006-.192-.077-.027-.06-.02-.1.032-.2.08-.149.083-.24.016-.382a.38.38 0 00-.504-.192 1.26 1.26 0 00-.285.21c-.181.174-.215.185-.302.106-.069-.063-.072-.164-.009-.25a.447.447 0 00.046-.213c0-.128-.016-.17-.106-.266-.094-.102-.124-.115-.264-.115a.428.428 0 00-.273.08.448.448 0 01-.173.08c-.087 0-.172-.112-.15-.199.021-.088.622-.697.688-.697.025 0 .094.037.154.082zm4.035 2.677c0 .111-.1.218-.205.218-.046 0-.131-.048-.206-.117l-.128-.118.15-.155.15-.154.12.118c.081.082.119.147.119.208zM10.818 27.636v.272h.116a.841.841 0 00.232-.04 1.06 1.06 0 01.132-.04c.01 0 .015.85.012 1.891l-.005 1.892-.107.037c-.06.02-.17.066-.244.1l-.136.065v.377h3.102v-1.294l-.223.006-.223.006-.036.096a3.229 3.229 0 00-.11.55l-.015.121h-1.412v-3.749l.145-.05c.08-.027.19-.072.244-.1l.098-.05v-.363h-1.57v.273zm7.723-.005l.005.267.113.006a.62.62 0 00.233-.035c.066-.023.125-.041.131-.041.006 0 .01.852.01 1.893v1.894l-.166.058a1.897 1.897 0 00-.244.101l-.077.044-.005.186-.006.186h1.652v-.544l-.05-.013c-.07-.018-.239.004-.385.05l-.122.039.005-.852.005-.85.329-.006c.18-.003.337.002.349.01.011.008.271.428.577.932.576.951.694 1.115.854 1.194.195.096.557.094.729-.004l.077-.044v-.436l-.25-.005-.25-.006-.608-.966-.608-.965.594-.9.595-.9.145-.049c.08-.026.19-.071.244-.099l.098-.05v-.363h-1.573l.006.268.005.267.113.006a.928.928 0 00.236-.026.566.566 0 01.13-.026c.004.004-.228.375-.516.825l-.523.817-.381.005-.382.006.005-.791.005-.792.13-.044c.07-.024.176-.069.233-.098l.105-.054v-.363h-1.573l.006.268zm5.029-.09v.178l.08.047c.046.025.155.071.245.102l.162.056.005 1.845.004 1.846-.144.046a1.785 1.785 0 00-.243.101l-.1.055-.005.187-.006.186h3.304v-1.232h-.413l-.044.105c-.042.099-.077.255-.114.501l-.016.111h-1.611l-.006-.853-.005-.853h1.433v-.485h-1.432v-1.616h1.506l.022.172c.012.094.047.247.078.338l.056.167.223.005.223.006v-1.193H23.57v.178zm-8.257.114v.273l.05.012c.067.017.216-.007.338-.054a1.74 1.74 0 01.105-.038c.003 0 .005.853.005 1.896v1.896l-.154.055a2.67 2.67 0 00-.249.104l-.095.049v.362h1.632v-.545h-.125c-.11 0-.22.021-.367.07l-.045.014v-3.797l.104-.034c.058-.019.165-.062.239-.095l.134-.062v-.378h-1.572v.273zm15.205.283v-.568h1.673v.395l-.12.057a2.75 2.75 0 01-.254.1l-.132.044v1.264c0 1.14.002 1.282.029 1.444.076.475.247.765.528.895.227.106.282.111 1.156.111h.78l.005-1.899.004-1.9-.109.037c-.104.035-.26.049-.316.028-.022-.008-.026-.05-.026-.293v-.283h1.577v.395l-.133.063a2.41 2.41 0 01-.241.097l-.108.035.004 1.86.004 1.86.43.005.43.004v1.234l-.236-.005-.236-.004-.044-.119a1.844 1.844 0 01-.109-.462l-.01-.115-1.336-.01c-1.282-.008-1.341-.01-1.472-.041-.497-.12-.808-.357-1.005-.764a2.234 2.234 0 01-.18-.617c-.023-.142-.028-.358-.034-1.543l-.006-1.378-.106.038a.776.776 0 01-.35.046l-.057-.01zm6.099-.188v-.38h3.395v1.235l-.237-.005-.237-.004-.038-.093a1.672 1.672 0 01-.11-.464l-.01-.13h-1.59v1.518h1.69v.506h-1.69l.004.873.004.874.849.005.847.004.009-.052.025-.18a1.81 1.81 0 01.116-.436l.033-.076h.463v1.265h-3.524v-.381l.133-.061c.072-.034.192-.082.265-.106l.133-.045-.004-1.824-.004-1.824-.137-.044a1.344 1.344 0 01-.324-.137l-.062-.038zm4.473.188v-.568h1.691l-.005.194-.004.194-.111.057a1.929 1.929 0 01-.253.103l-.142.045v.724l-.001.724 1.235-.004 1.235-.004v-.767c0-.503-.005-.766-.016-.764-.009.002-.06.018-.113.037a.753.753 0 01-.336.04l-.058-.01v-.569h1.673v.394l-.116.056a2.558 2.558 0 01-.253.102l-.137.046-.005 1.876a66.126 66.126 0 00.01 1.876.872.872 0 00.107-.032.97.97 0 01.387-.056l.088.011v.567h-1.754v-.38l.108-.05a5.86 5.86 0 01.262-.107l.153-.058.004-.833.005-.834h-2.48v.886c0 .487.003.886.005.886l.102-.03c.153-.048.296-.069.388-.057l.085.01v.567H41.09v-.374l.08-.043a2.87 2.87 0 01.262-.11l.181-.068.004-1.87c.004-1.49 0-1.869-.016-1.869a.61.61 0 00-.107.033.8.8 0 01-.346.04l-.058-.01zm5.697.666V27.37h3.894v1.234h-.453l-.04-.086a1.97 1.97 0 01-.127-.495l-.011-.115h-.994v1.906c0 1.048.005 1.906.012 1.905.006 0 .055-.014.107-.031a1.01 1.01 0 01.383-.054l.077.01v.566h-1.739l.004-.194.005-.193.114-.056c.063-.031.177-.078.254-.103l.139-.047v-3.709h-.992l-.02.141a2.06 2.06 0 01-.129.48l-.033.075h-.451zm4.98-.848l-.005-.194-.004-.194 1.067.007c1.095.006 1.163.01 1.422.075.53.133.827.441.917.951.04.226.024.607-.032.793-.187.614-.694.992-1.417 1.055a7.265 7.265 0 01-.488.016h-.31v.727c0 .4.006.728.013.728.007 0 .081-.017.165-.038.198-.05.317-.063.426-.05l.089.011v.567h-1.851v-.379l.125-.061c.068-.034.184-.082.257-.107l.133-.046-.004-1.825-.004-1.824-.175-.06a1.716 1.716 0 01-.25-.106l-.074-.046zm2.75 1.014c.001-.523-.23-.765-.803-.846a5.092 5.092 0 00-.454-.016h-.342v1.839l.382-.008c.322-.007.402-.013.51-.041.48-.126.706-.423.707-.928z" fill="#000"/></svg>