<svg width="98" height="26" viewBox="0 0 98 26" fill="none" xmlns="http://www.w3.org/2000/svg"><path fill-rule="evenodd" clip-rule="evenodd" d="M7.48.503a36.473 36.473 0 00-.711.036 9.358 9.358 0 00-.615.046 14.762 14.762 0 00-2.975.658 7.97 7.97 0 00-.31.106A14.745 14.745 0 00.574 2.4l-.11.063-.015.008-.025.014a29.955 29.955 0 01-.206.123l-.036.02-.044.025a.24.24 0 00-.127.157.69.69 0 00-.007.217l.01.169c.002.057.004 1.622.005 5.928.002 4.215.003 5.866.006 5.905a26.042 26.042 0 00.025.347 11.295 11.295 0 00.93 3.571 7.892 7.892 0 00.215.448c.09.177.11.218.22.418a9.956 9.956 0 00.74 1.148 8.161 8.161 0 00.328.422 11.217 11.217 0 001.768 1.742 8.189 8.189 0 00.605.443l.1.07a9.812 9.812 0 00.676.42l.056.031.036.02.04.021a12.198 12.198 0 001.044.51 10.033 10.033 0 00.583.226c.017.006.054.02.083.029a12.348 12.348 0 00.984.295 11.212 11.212 0 001.692.289l.122.01c.074.006.107.007.594.009a424.8 424.8 0 004.455-.005l.072-.002.034-.04.001-.25-.001-.477-.002-.225-.088-.044a7.245 7.245 0 01-.487-.262s-.02-.01-.04-.023a6.967 6.967 0 00-.094-.058 7.768 7.768 0 01-.444-.3 5.435 5.435 0 01-.298-.227 6.523 6.523 0 01-.224-.185 8.349 8.349 0 01-.76-.755 8.135 8.135 0 01-1.069-1.553 24.048 24.048 0 01-.172-.352 10.828 10.828 0 01-.143-.328 7.515 7.515 0 01-.406-1.344 6.918 6.918 0 01-.1-.653 6.547 6.547 0 01-.052-.89 6.241 6.241 0 01.037-.768 8.125 8.125 0 01.113-.746.82.82 0 01.016-.077l.018-.082a8.295 8.295 0 01.252-.862 7.24 7.24 0 01.377-.873l.042-.086a8.044 8.044 0 01.23-.418c.075-.129.154-.255.245-.39.064-.095.062-.092.138-.198a7.084 7.084 0 01.7-.835c.009-.017.275-.275.394-.382a6.616 6.616 0 01.31-.264 7.217 7.217 0 01.666-.49 32.908 32.908 0 00.168-.109l.052-.032a.511.511 0 01.07-.04c.036-.02.07-.039.175-.094l.125-.067.027-.015.025-.014.061-.035c.048-.028.118-.074.126-.083l.007-.007.002-2.744a729.44 729.44 0 00-.006-5.07 2.682 2.682 0 01-.1-.065 10.423 10.423 0 00-.423-.255l-.02-.01-.028-.016a3.602 3.602 0 00-.112-.065 14.878 14.878 0 00-1-.503l-.092-.042a4.688 4.688 0 00-.098-.043l-.037-.016a7.223 7.223 0 00-.199-.086 13.664 13.664 0 00-1.208-.442c-.15-.048-.284-.09-.342-.107a10.479 10.479 0 00-.609-.166A13.88 13.88 0 008.923.554a5.45 5.45 0 00-.321-.018 16.16 16.16 0 00-.166-.008A2.756 2.756 0 018.31.521a6.07 6.07 0 00-.256-.018c-.076-.004-.48-.004-.574 0zM1.965 3.907a5.42 5.42 0 01.333.026c.087.005.331.042.48.072a5.527 5.527 0 011.792.707 5.27 5.27 0 01.79.612A5.355 5.355 0 015.975 6a5.6 5.6 0 01.48.72 8.588 8.588 0 01.614 1.32l.037.106a10.142 10.142 0 01.434 1.702 11.355 11.355 0 01.09.622c.012.11.015.139.017.227a.594.594 0 00.043.268.257.257 0 00.038.065.22.22 0 00.04-.06.502.502 0 00.021-.053c.018-.052.022-.098.025-.257a1.665 1.665 0 01.02-.27 5.27 5.27 0 01.027-.2 14.243 14.243 0 01.167-.927 12.893 12.893 0 01.202-.771 11.822 11.822 0 01.174-.524l.027-.074a8.628 8.628 0 01.472-1.024 56.16 56.16 0 00.088-.154 5.437 5.437 0 01.532-.778 5.76 5.76 0 01.27-.318 5.414 5.414 0 01.926-.805l.041-.028a5.211 5.211 0 01.184-.118l.024-.014.02-.011a4.155 4.155 0 01.498-.256 8.057 8.057 0 01.399-.162 5.33 5.33 0 011.255-.294l.107-.008a4.151 4.151 0 01.679 0l.007.001v3.189c-.001 3.06-.002 3.189-.007 3.215a.221.221 0 01-.07.12l-.1.103a11.029 11.029 0 01-.491.47 8.63 8.63 0 01-.833.648s-.04.024-.084.054a8.297 8.297 0 01-.379.239l-.042.024a5.35 5.35 0 01-.11.063l-.221.12a8.295 8.295 0 01-.396.194l-.051.021a8.05 8.05 0 01-1.006.375c-.233.07-.473.132-.633.165l-.084.017a9.302 9.302 0 01-.644.107c-.042.005-.088.01-.102.01l-.142.013a8.21 8.21 0 01-1.644 0 7.467 7.467 0 00-.145-.013 2.506 2.506 0 01-.102-.01l-.09-.012a8.376 8.376 0 01-1.65-.404l-.078-.029a6.342 6.342 0 01-.19-.073l-.055-.022a7.1 7.1 0 01-.336-.143 7.315 7.315 0 01-.842-.446 5.434 5.434 0 01-.318-.202 1.632 1.632 0 00-.076-.049 7.352 7.352 0 01-.466-.342 8.546 8.546 0 01-.784-.698 1.489 1.489 0 01-.214-.236c-.02-.029-.021-.032-.025-.058a.958.958 0 01-.005-.064L1.514 7.07V3.904l.045-.001c.073-.002.34 0 .406.004zm1.71 2.265a.875.875 0 00-.221.064c-.08.035-.262.127-.29.147l-.01.006a1.953 1.953 0 00-.261.193 3.015 3.015 0 00-.206.218 2.096 2.096 0 00-.382.745.758.758 0 00-.026.155 3.146 3.146 0 00.009.69c.001.007.01.011.064.037l.063.03.053-.026a2.151 2.151 0 01.333-.13c.035-.011.13-.03.18-.037l.09-.006.053-.002.022.018c.06.05.11.151.127.259.01.055.009.056-.02.092a.9.9 0 01-.161.15 8.416 8.416 0 01-.207.135 1.212 1.212 0 00-.184.142c-.04.039-.04.036-.032.079a.308.308 0 00.049.112 1.349 1.349 0 00.208.204c.113.103.231.181.381.255.244.12.501.182.78.19a2.004 2.004 0 00.946-.199c.111-.054.217-.119.295-.18a1.84 1.84 0 00.283-.272.167.167 0 00.046-.128.096.096 0 00-.012-.05.105.105 0 00-.02-.03 1.232 1.232 0 00-.085-.06l-.067-.043-.067-.043-.036-.024a130.683 130.683 0 00-.171-.116 8.934 8.934 0 01-.127-.095.487.487 0 01-.06-.05l.006-.02.02-.044c.041-.098.08-.18.11-.234l.02-.034.022-.002a.962.962 0 01.274.026 2.897 2.897 0 01.16.05 2.16 2.16 0 01.142.056c.015.005.048.02.075.032a.963.963 0 00.09.037l.052-.049c.058-.055.069-.071.074-.11.013-.097.02-.34.013-.452a1.938 1.938 0 00-.044-.304 1.875 1.875 0 00-.516-.899 1.901 1.901 0 00-.295-.239 2.094 2.094 0 00-.345-.183 1.209 1.209 0 00-.147-.05.266.266 0 00-.173.003.147.147 0 00-.055.054c-.009.016-.022.09-.06.342a5.28 5.28 0 01-.074.41L4.359 7h-.098c-.095 0-.25-.005-.296-.009l-.023-.002-.016-.093a4.356 4.356 0 01-.065-.51c-.007-.102-.021-.147-.059-.185-.025-.026-.037-.03-.08-.03a.911.911 0 00-.046.001zm7.474.826a.918.918 0 00-.592.266 1.05 1.05 0 00-.321.621c-.007.05-.008.19-.002.235.019.123.061.26.11.356.138.27.403.46.73.526.1.02.277.022.372.003.26-.05.473-.184.634-.394.086-.113.153-.256.185-.396A.703.703 0 0012.288 8a.643.643 0 00-.026-.215 1.035 1.035 0 00-.466-.65.998.998 0 00-.347-.128 1.317 1.317 0 00-.3-.01zm7.555 3.456a7.782 7.782 0 00-1.2.132 7.116 7.116 0 00-1.324.387 6.765 6.765 0 00-.693.323l-.081.045a8.258 8.258 0 00-.667.417 9.315 9.315 0 00-.414.315 5.825 5.825 0 00-.292.255 6.892 6.892 0 00-1.146 1.339 3.923 3.923 0 01-.058.088 1.462 1.462 0 00-.052.083c0 .003-.053.09-.056.092a.521.521 0 00-.033.057l-.056.102a6.743 6.743 0 00-.48 1.05 6.137 6.137 0 00-.217.725 6.958 6.958 0 00-.085 2.925l.02.108a6.137 6.137 0 00.118.53c0 .02.086.305.125.415l.037.105a6.936 6.936 0 00.517 1.11l.022.04a7.068 7.068 0 00.948 1.27 8.893 8.893 0 00.445.434 6.468 6.468 0 00.563.455l.036.026.029.021.064.044a9.387 9.387 0 00.702.431 7.31 7.31 0 00.695.327l.03.011a7.33 7.33 0 001.46.411 6.465 6.465 0 00.742.087 7.077 7.077 0 002.093-.17 7.114 7.114 0 001.065-.336.873.873 0 00.123-.051 7.484 7.484 0 00.753-.377 3.956 3.956 0 01.137-.08l.11-.068.102-.066.086-.055a2.92 2.92 0 00.185-.129.598.598 0 01.064-.045l.015-.01a7.397 7.397 0 00.762-.653 6.967 6.967 0 00.937-1.134l.068-.103a6.282 6.282 0 00.48-.89 7.158 7.158 0 00.566-2.022 3.46 3.46 0 01.013-.124c.006-.046.012-.105.014-.13l.02-.285c.003-.054.004-.782.004-3.748 0-3.267 0-3.68-.005-3.683-.004-.002-7.152-.003-7.29 0zm.344 3.658c.164.014.276.03.44.063a3.722 3.722 0 01.924.3l.03.017.048.025a3.903 3.903 0 01.17.099 3.767 3.767 0 01.753.623 3.032 3.032 0 01.449.61 3.73 3.73 0 01.298.676c.072.236.106.393.136.619.027.203.028.528.003.76a3.475 3.475 0 01-.303 1.07 4.208 4.208 0 01-.166.315 3.464 3.464 0 01-1.188 1.19l-.06.035a2.243 2.243 0 01-.167.09 1.751 1.751 0 01-.123.058 1.458 1.458 0 01-.192.075 4.054 4.054 0 01-.52.15 4.148 4.148 0 01-.615.08 3.663 3.663 0 01-1.363-.245.464.464 0 00-.034-.012.37.37 0 01-.039-.015 3.341 3.341 0 01-.466-.24L17 20.411a3.68 3.68 0 01-.706-.599 3.156 3.156 0 01-.177-.217l-.026-.036a4.65 4.65 0 01-.163-.24 3.498 3.498 0 01-.431-1.056 3.587 3.587 0 01-.067-.424 3.294 3.294 0 01.05-.909 3.333 3.333 0 01.657-1.474c.027-.035.11-.136.161-.192a3.796 3.796 0 01.757-.632l.042-.027a1.056 1.056 0 01.073-.042 3.325 3.325 0 01.614-.273c.206-.07.408-.117.607-.144a4.24 4.24 0 00.114-.016 2.63 2.63 0 01.245-.025c.041-.003.245.001.298.006zm-.313.57a2.81 2.81 0 00-1.026.235l-.032.013c-.004 0-.171.084-.208.105a2.807 2.807 0 00-.198.115.437.437 0 00-.107.093.232.232 0 00-.057.139c0 .009.002.035.005.058a.156.156 0 00.018.068.194.194 0 00.07.078c.054.036.125.05.188.037a.728.728 0 00.14-.065l.019-.01.03-.017.028-.016.026-.014.026-.015.026-.014.026-.015.017-.009c.064-.038.226-.116.288-.139.233-.083.34-.109.543-.13.143-.014.365-.015.605-.001a1.687 1.687 0 01.29.046 2.417 2.417 0 011.51 1.132 1.67 1.67 0 00.138.202c.022.023.03.03.054.041l.028.014.054.001c.062.002.078-.001.115-.018a.231.231 0 00.113-.116.299.299 0 00.02-.054.278.278 0 000-.102 2.425 2.425 0 00-.44-.681 2.826 2.826 0 00-.576-.493 2.195 2.195 0 01-.048-.028 2.97 2.97 0 00-1.187-.423 3.245 3.245 0 00-.498-.016zm-.05.978c-.035.003-.157.02-.189.026a2.026 2.026 0 00-.686.283 1.907 1.907 0 00-.63.7c-.078.153-.13.308-.168.495-.027.134-.04.305-.035.446.004.08.003.078.013.164a1.918 1.918 0 00.264.768l.04.057c.078.117.159.21.259.3l.053.05a1.897 1.897 0 00.312.233.886.886 0 00.13.064c.022.01.093.036.13.045a.62.62 0 00.185.026l.077.002.018-.027a.554.554 0 00.055-.09c.037-.08.042-.154.014-.21-.023-.047-.083-.09-.251-.178a3.435 3.435 0 01-.064-.035l-.038-.02s-.02-.01-.04-.023l-.042-.022a.466.466 0 01-.05-.032 1.321 1.321 0 01-.373-.39 1.54 1.54 0 01-.138-.287 1.815 1.815 0 01-.072-.332 1.815 1.815 0 01-.002-.267c.015-.138.053-.291.098-.396.06-.136.142-.27.232-.374a1.505 1.505 0 01.31-.268l.04-.026a1.628 1.628 0 01.397-.172c.032-.01.12-.029.165-.036.044-.007.133-.014.18-.015.076 0 .168.016.304.053.1.028.14.037.216.051a.56.56 0 00.118.008c.103 0 .11-.002.138-.03a.26.26 0 00.055-.077.247.247 0 00.01-.213.26.26 0 00-.059-.068.962.962 0 00-.15-.085 1.4 1.4 0 00-.498-.098 4.487 4.487 0 00-.328 0zm-2.467 1.13a.258.258 0 00-.18.17 2.502 2.502 0 00-.053.346 4.315 4.315 0 00-.002.423c.022.267.072.528.135.713.022.065.032.09.059.156l.027.07a3.401 3.401 0 00.221.412 3.763 3.763 0 00.14.195c.09.116.168.203.286.32a2.464 2.464 0 00.454.361c.095.062.18.11.318.179.073.036.226.097.322.127.175.056.207.066.296.085.157.034.292.048.52.053.146.004.482-.007.549-.018a2.845 2.845 0 00.336-.073c.214-.058.463-.162.674-.282.006-.004.01-.009.01-.009l.003-.002c.004 0 .058-.033.104-.062.018-.012.037-.022.037-.022l.034-.022a2.871 2.871 0 00.714-.69c.087-.115.205-.322.286-.5a2.69 2.69 0 00.256-1.096c.003-.104-.002-.14-.029-.196a.29.29 0 00-.09-.091c-.078-.046-.167-.05-.232-.01a.265.265 0 00-.106.11c-.025.056-.033.103-.038.242a2.135 2.135 0 01-.159.758 2.116 2.116 0 01-.13.264 2.426 2.426 0 01-.637.728l-.033.025a2.535 2.535 0 01-.987.44l-.077.012a2.374 2.374 0 01-1.019-.061 2.572 2.572 0 01-.57-.244 2.044 2.044 0 01-.23-.154 1.121 1.121 0 00-.072-.054 2.233 2.233 0 00-.05-.043 2.348 2.348 0 01-.688-.963 2.688 2.688 0 01-.138-.512l-.006-.053a4.394 4.394 0 01-.01-.08 4.033 4.033 0 010-.372c.01-.11.022-.202.033-.267.018-.11.015-.146-.016-.198a.26.26 0 00-.262-.115zm4.251.545c-.105.026-.156.101-.176.26a4.487 4.487 0 00-.01.093 1.467 1.467 0 01-.65 1.04c-.09.059-.144.083-.362.16a.849.849 0 00-.173.072.25.25 0 00-.07.116.204.204 0 00-.007.069c0 .037.002.047.01.072.023.077.07.13.134.152a.144.144 0 00.052.007 1.578 1.578 0 00.604-.196c.114-.064.204-.129.311-.224a1.947 1.947 0 00.549-.835c.06-.18.086-.333.09-.51.002-.095 0-.107-.02-.15a.255.255 0 00-.166-.128.306.306 0 00-.116.002z" fill="#FFB348"/><path fill-rule="evenodd" clip-rule="evenodd" d="M7.48.503a36.473 36.473 0 00-.711.036 9.358 9.358 0 00-.615.046 14.762 14.762 0 00-2.975.658 7.97 7.97 0 00-.31.106A14.745 14.745 0 00.574 2.4l-.11.063-.015.008-.025.014a29.955 29.955 0 01-.206.123l-.036.02-.044.025a.24.24 0 00-.127.157.69.69 0 00-.007.217l.01.169c.002.057.004 1.622.005 5.928.002 4.215.003 5.866.006 5.905a26.042 26.042 0 00.025.347 11.295 11.295 0 00.93 3.571 7.892 7.892 0 00.215.448c.09.177.11.218.22.418a9.956 9.956 0 00.74 1.148 8.161 8.161 0 00.328.422 11.217 11.217 0 001.768 1.742 8.189 8.189 0 00.605.443l.1.07a9.812 9.812 0 00.676.42l.056.031.036.02.04.021a12.198 12.198 0 001.044.51 10.033 10.033 0 00.583.226c.017.006.054.02.083.029a12.348 12.348 0 00.984.295 11.212 11.212 0 001.692.289l.122.01c.074.006.107.007.594.009a424.8 424.8 0 004.455-.005l.072-.002.034-.04.001-.25-.001-.477-.002-.225-.088-.044a7.245 7.245 0 01-.487-.262s-.02-.01-.04-.023a6.967 6.967 0 00-.094-.058 7.768 7.768 0 01-.444-.3 5.435 5.435 0 01-.298-.227 6.523 6.523 0 01-.224-.185 8.349 8.349 0 01-.76-.755 8.135 8.135 0 01-1.069-1.553 24.048 24.048 0 01-.172-.352 10.828 10.828 0 01-.143-.328 7.515 7.515 0 01-.406-1.344 6.918 6.918 0 01-.1-.653 6.547 6.547 0 01-.052-.89 6.241 6.241 0 01.037-.768 8.125 8.125 0 01.113-.746.82.82 0 01.016-.077l.018-.082a8.295 8.295 0 01.252-.862 7.24 7.24 0 01.377-.873l.042-.086a8.044 8.044 0 01.23-.418c.075-.129.154-.255.245-.39.064-.095.062-.092.138-.198a7.084 7.084 0 01.7-.835c.009-.017.275-.275.394-.382a6.616 6.616 0 01.31-.264 7.217 7.217 0 01.666-.49 32.908 32.908 0 00.168-.109l.052-.032a.511.511 0 01.07-.04c.036-.02.07-.039.175-.094l.125-.067.027-.015.025-.014.061-.035c.048-.028.118-.074.126-.083l.007-.007.002-2.744a729.44 729.44 0 00-.006-5.07 2.682 2.682 0 01-.1-.065 10.423 10.423 0 00-.423-.255l-.02-.01-.028-.016a3.602 3.602 0 00-.112-.065 14.878 14.878 0 00-1-.503l-.092-.042a4.688 4.688 0 00-.098-.043l-.037-.016a7.223 7.223 0 00-.199-.086 13.664 13.664 0 00-1.208-.442c-.15-.048-.284-.09-.342-.107a10.479 10.479 0 00-.609-.166A13.88 13.88 0 008.923.554a5.45 5.45 0 00-.321-.018 16.16 16.16 0 00-.166-.008A2.756 2.756 0 018.31.521a6.07 6.07 0 00-.256-.018c-.076-.004-.48-.004-.574 0zM1.965 3.907a5.42 5.42 0 01.333.026c.087.005.331.042.48.072a5.527 5.527 0 011.792.707 5.27 5.27 0 01.79.612A5.355 5.355 0 015.975 6a5.6 5.6 0 01.48.72 8.588 8.588 0 01.614 1.32l.037.106a10.142 10.142 0 01.434 1.702 11.355 11.355 0 01.09.622c.012.11.015.139.017.227a.594.594 0 00.043.268.257.257 0 00.038.065.22.22 0 00.04-.06.502.502 0 00.021-.053c.018-.052.022-.098.025-.257a1.665 1.665 0 01.02-.27 5.27 5.27 0 01.027-.2 14.243 14.243 0 01.167-.927 12.893 12.893 0 01.202-.771 11.822 11.822 0 01.174-.524l.027-.074a8.628 8.628 0 01.472-1.024 56.16 56.16 0 00.088-.154 5.437 5.437 0 01.532-.778 5.76 5.76 0 01.27-.318 5.414 5.414 0 01.926-.805l.041-.028a5.211 5.211 0 01.184-.118l.024-.014.02-.011a4.155 4.155 0 01.498-.256 8.057 8.057 0 01.399-.162 5.33 5.33 0 011.255-.294l.107-.008a4.151 4.151 0 01.679 0l.007.001v3.189c-.001 3.06-.002 3.189-.007 3.215a.221.221 0 01-.07.12l-.1.103a11.029 11.029 0 01-.491.47 8.63 8.63 0 01-.833.648s-.04.024-.084.054a8.297 8.297 0 01-.379.239l-.042.024a5.35 5.35 0 01-.11.063l-.221.12a8.295 8.295 0 01-.396.194l-.051.021a8.05 8.05 0 01-1.006.375c-.233.07-.473.132-.633.165l-.084.017a9.302 9.302 0 01-.644.107c-.042.005-.088.01-.102.01l-.142.013a8.21 8.21 0 01-1.644 0 7.467 7.467 0 00-.145-.013 2.506 2.506 0 01-.102-.01l-.09-.012a8.376 8.376 0 01-1.65-.404l-.078-.029a6.342 6.342 0 01-.19-.073l-.055-.022a7.1 7.1 0 01-.336-.143 7.315 7.315 0 01-.842-.446 5.434 5.434 0 01-.318-.202 1.632 1.632 0 00-.076-.049 7.352 7.352 0 01-.466-.342 8.546 8.546 0 01-.784-.698 1.489 1.489 0 01-.214-.236c-.02-.029-.021-.032-.025-.058a.958.958 0 01-.005-.064L1.514 7.07V3.904l.045-.001c.073-.002.34 0 .406.004zm1.71 2.265a.875.875 0 00-.221.064c-.08.035-.262.127-.29.147l-.01.006a1.953 1.953 0 00-.261.193 3.015 3.015 0 00-.206.218 2.096 2.096 0 00-.382.745.758.758 0 00-.026.155 3.146 3.146 0 00.009.69c.001.007.01.011.064.037l.063.03.053-.026a2.151 2.151 0 01.333-.13c.035-.011.13-.03.18-.037l.09-.006.053-.002.022.018c.06.05.11.151.127.259.01.055.009.056-.02.092a.9.9 0 01-.161.15 8.416 8.416 0 01-.207.135 1.212 1.212 0 00-.184.142c-.04.039-.04.036-.032.079a.308.308 0 00.049.112 1.349 1.349 0 00.208.204c.113.103.231.181.381.255.244.12.501.182.78.19a2.004 2.004 0 00.946-.199c.111-.054.217-.119.295-.18a1.84 1.84 0 00.283-.272.167.167 0 00.046-.128.096.096 0 00-.012-.05.105.105 0 00-.02-.03 1.232 1.232 0 00-.085-.06l-.067-.043-.067-.043-.036-.024a130.683 130.683 0 00-.171-.116 8.934 8.934 0 01-.127-.095.487.487 0 01-.06-.05l.006-.02.02-.044c.041-.098.08-.18.11-.234l.02-.034.022-.002a.962.962 0 01.274.026 2.897 2.897 0 01.16.05 2.16 2.16 0 01.142.056c.015.005.048.02.075.032a.963.963 0 00.09.037l.052-.049c.058-.055.069-.071.074-.11.013-.097.02-.34.013-.452a1.938 1.938 0 00-.044-.304 1.875 1.875 0 00-.516-.899 1.901 1.901 0 00-.295-.239 2.094 2.094 0 00-.345-.183 1.209 1.209 0 00-.147-.05.266.266 0 00-.173.003.147.147 0 00-.055.054c-.009.016-.022.09-.06.342a5.28 5.28 0 01-.074.41L4.359 7h-.098c-.095 0-.25-.005-.296-.009l-.023-.002-.016-.093a4.356 4.356 0 01-.065-.51c-.007-.102-.021-.147-.059-.185-.025-.026-.037-.03-.08-.03a.911.911 0 00-.046.001zm.992.297a1.726 1.726 0 01.8.574c.09.12.158.24.208.366.094.238.118.385.115.705 0 .075-.003.137-.003.137l-.026-.006a3.12 3.12 0 00-.545-.116l-.018-.002v-.09a1.093 1.093 0 00-.287-.731.984.984 0 00-.364-.247l-.037-.014.001-.022a3.46 3.46 0 01.017-.171c.01-.066.057-.352.067-.396l.002-.009.016.005.054.017zm-.958.043a2 2 0 01.088.438l.009.071.002.014-.044.02a1.16 1.16 0 00-.332.232.944.944 0 00-.24.379c-.031.095-.035.121-.047.31l-.008.135-.002.029-.06.003a2.565 2.565 0 00-.289.038 6.24 6.24 0 01-.235.037c-.003 0-.003-.054-.002-.211.001-.227.003-.25.02-.344.028-.15.116-.355.221-.515a1.778 1.778 0 01.896-.695.25.25 0 01.023.059zm7.44.486a.918.918 0 00-.592.266 1.05 1.05 0 00-.321.621c-.007.05-.008.19-.002.235.019.123.061.26.11.356.138.27.403.46.73.526.1.02.277.022.372.003.26-.05.473-.184.634-.394.086-.113.153-.256.185-.396A.703.703 0 0012.288 8a.643.643 0 00-.026-.215 1.035 1.035 0 00-.466-.65.998.998 0 00-.347-.128 1.317 1.317 0 00-.3-.01zM3.462 8.76c.19.153.385.24.58.258.057.006.247.003.29-.004.17-.027.338-.105.528-.244.017-.012.024-.015.03-.014.004.001.038.014.075.03.168.068.282.136.37.22.04.038.038.035.02.072-.032.068-.086.122-.198.2l-.09.065a1.52 1.52 0 01-.9.268c-.112 0-.135 0-.187-.007-.406-.05-.748-.222-.99-.5a.082.082 0 01-.017-.026c0-.01.025-.057.04-.078.037-.048.085-.083.213-.153a.884.884 0 00.164-.105l.025-.019.047.037zm15.242 1.694a7.782 7.782 0 00-1.2.132 7.116 7.116 0 00-1.324.387 6.765 6.765 0 00-.693.323l-.081.045a8.258 8.258 0 00-.667.417 9.315 9.315 0 00-.414.315 5.825 5.825 0 00-.292.255 6.892 6.892 0 00-1.146 1.339 3.923 3.923 0 01-.058.088 1.462 1.462 0 00-.052.083c0 .003-.053.09-.056.092a.521.521 0 00-.033.057l-.056.102a6.743 6.743 0 00-.48 1.05 6.137 6.137 0 00-.217.725 6.958 6.958 0 00-.085 2.925l.02.108a6.137 6.137 0 00.118.53c0 .02.086.305.125.415l.037.105a6.936 6.936 0 00.517 1.11l.022.04a7.068 7.068 0 00.948 1.27 8.893 8.893 0 00.445.434 6.468 6.468 0 00.563.455l.036.026.029.021.064.044a9.387 9.387 0 00.702.431 7.31 7.31 0 00.695.327l.03.011a7.33 7.33 0 001.46.411 6.465 6.465 0 00.742.087 7.077 7.077 0 002.093-.17 7.114 7.114 0 001.065-.336.873.873 0 00.123-.051 7.484 7.484 0 00.753-.377 3.956 3.956 0 01.137-.08l.11-.068.102-.066.086-.055a2.92 2.92 0 00.185-.129.598.598 0 01.064-.045l.015-.01a7.397 7.397 0 00.762-.653 6.967 6.967 0 00.937-1.134l.068-.103a6.282 6.282 0 00.48-.89 7.158 7.158 0 00.566-2.022 3.46 3.46 0 01.013-.124c.006-.046.012-.105.014-.13l.02-.285c.003-.054.004-.782.004-3.748 0-3.267 0-3.68-.005-3.683-.004-.002-7.152-.003-7.29 0zm.344 3.658c.164.014.276.03.44.063a3.722 3.722 0 01.924.3l.03.017.048.025a3.903 3.903 0 01.17.099 3.767 3.767 0 01.753.623 3.032 3.032 0 01.449.61 3.73 3.73 0 01.298.676c.072.236.106.393.136.619.027.203.028.528.003.76a3.475 3.475 0 01-.303 1.07 4.208 4.208 0 01-.166.315 3.464 3.464 0 01-1.188 1.19l-.06.035a2.243 2.243 0 01-.167.09 1.751 1.751 0 01-.123.058 1.458 1.458 0 01-.192.075 4.054 4.054 0 01-.52.15 4.148 4.148 0 01-.615.08 3.663 3.663 0 01-1.363-.245.464.464 0 00-.034-.012.37.37 0 01-.039-.015 3.341 3.341 0 01-.466-.24L17 20.411a3.68 3.68 0 01-.706-.599 3.156 3.156 0 01-.177-.217l-.026-.036a4.65 4.65 0 01-.163-.24 3.498 3.498 0 01-.431-1.056 3.587 3.587 0 01-.067-.424 3.294 3.294 0 01.05-.909 3.333 3.333 0 01.657-1.474c.027-.035.11-.136.161-.192a3.796 3.796 0 01.757-.632l.042-.027a1.056 1.056 0 01.073-.042 3.325 3.325 0 01.614-.273c.206-.07.408-.117.607-.144a4.24 4.24 0 00.114-.016 2.63 2.63 0 01.245-.025c.041-.003.245.001.298.006zm-.313.57a2.81 2.81 0 00-1.026.235l-.032.013c-.004 0-.171.084-.208.105a2.807 2.807 0 00-.198.115.437.437 0 00-.107.093.232.232 0 00-.057.139c0 .009.002.035.005.058a.156.156 0 00.018.068.194.194 0 00.07.078c.054.036.125.05.188.037a.728.728 0 00.14-.065l.019-.01.03-.017.028-.016.026-.014.026-.015.026-.014.026-.015.017-.009c.064-.038.226-.116.288-.139.233-.083.34-.109.543-.13.143-.014.365-.015.605-.001a1.687 1.687 0 01.29.046 2.417 2.417 0 011.51 1.132 1.67 1.67 0 00.138.202c.022.023.03.03.054.041l.028.014.054.001c.062.002.078-.001.115-.018a.231.231 0 00.113-.116.299.299 0 00.02-.054.278.278 0 000-.102 2.425 2.425 0 00-.44-.681 2.826 2.826 0 00-.576-.493 2.195 2.195 0 01-.048-.028 2.97 2.97 0 00-1.187-.423 3.245 3.245 0 00-.498-.016zm-.05.978c-.035.003-.157.02-.189.026a2.026 2.026 0 00-.686.283 1.907 1.907 0 00-.63.7c-.078.153-.13.308-.168.495-.027.134-.04.305-.035.446.004.08.003.078.013.164a1.918 1.918 0 00.264.768l.04.057c.078.117.159.21.259.3l.053.05a1.897 1.897 0 00.312.233.886.886 0 00.13.064c.022.01.093.036.13.045a.62.62 0 00.185.026l.077.002.018-.027a.554.554 0 00.055-.09c.037-.08.042-.154.014-.21-.023-.047-.083-.09-.251-.178a3.435 3.435 0 01-.064-.035l-.038-.02s-.02-.01-.04-.023l-.042-.022a.466.466 0 01-.05-.032 1.321 1.321 0 01-.373-.39 1.54 1.54 0 01-.138-.287 1.815 1.815 0 01-.072-.332 1.815 1.815 0 01-.002-.267c.015-.138.053-.291.098-.396.06-.136.142-.27.232-.374a1.505 1.505 0 01.31-.268l.04-.026a1.628 1.628 0 01.397-.172c.032-.01.12-.029.165-.036.044-.007.133-.014.18-.015.076 0 .168.016.304.053.1.028.14.037.216.051a.56.56 0 00.118.008c.103 0 .11-.002.138-.03a.26.26 0 00.055-.077.247.247 0 00.01-.213.26.26 0 00-.059-.068.962.962 0 00-.15-.085 1.4 1.4 0 00-.498-.098 4.487 4.487 0 00-.328 0zm-2.467 1.13a.258.258 0 00-.18.17 2.502 2.502 0 00-.053.346 4.315 4.315 0 00-.002.423c.022.267.072.528.135.713.022.065.032.09.059.156l.027.07a3.401 3.401 0 00.221.412 3.763 3.763 0 00.14.195c.09.116.168.203.286.32a2.464 2.464 0 00.454.361c.095.062.18.11.318.179.073.036.226.097.322.127.175.056.207.066.296.085.157.034.292.048.52.053.146.004.482-.007.549-.018a2.845 2.845 0 00.336-.073c.214-.058.463-.162.674-.282.006-.004.01-.009.01-.009l.003-.002c.004 0 .058-.033.104-.062.018-.012.037-.022.037-.022l.034-.022a2.871 2.871 0 00.714-.69c.087-.115.205-.322.286-.5a2.69 2.69 0 00.256-1.096c.003-.104-.002-.14-.029-.196a.29.29 0 00-.09-.091c-.078-.046-.167-.05-.232-.01a.265.265 0 00-.106.11c-.025.056-.033.103-.038.242a2.135 2.135 0 01-.159.758 2.116 2.116 0 01-.13.264 2.426 2.426 0 01-.637.728l-.033.025a2.535 2.535 0 01-.987.44l-.077.012a2.374 2.374 0 01-1.019-.061 2.572 2.572 0 01-.57-.244 2.044 2.044 0 01-.23-.154 1.121 1.121 0 00-.072-.054 2.233 2.233 0 00-.05-.043 2.348 2.348 0 01-.688-.963 2.688 2.688 0 01-.138-.512l-.006-.053a4.394 4.394 0 01-.01-.08 4.033 4.033 0 010-.372c.01-.11.022-.202.033-.267.018-.11.015-.146-.016-.198a.26.26 0 00-.262-.115zm4.251.545c-.105.026-.156.101-.176.26a4.487 4.487 0 00-.01.093 1.467 1.467 0 01-.65 1.04c-.09.059-.144.083-.362.16a.849.849 0 00-.173.072.25.25 0 00-.07.116.204.204 0 00-.007.069c0 .037.002.047.01.072.023.077.07.13.134.152a.144.144 0 00.052.007 1.578 1.578 0 00.604-.196c.114-.064.204-.129.311-.224a1.947 1.947 0 00.549-.835c.06-.18.086-.333.09-.51.002-.095 0-.107-.02-.15a.255.255 0 00-.166-.128.306.306 0 00-.116.002z" fill="#000"/><path d="M36.107 11.747h-.752v2.078h-2.773V5.559h3.96c.76 0 1.422.126 1.986.378.564.252.999.614 1.304 1.086.306.473.459 1.024.459 1.654 0 .59-.133 1.106-.4 1.546-.266.441-.65.792-1.151 1.051l1.727 2.551h-2.961l-1.399-2.078zm1.387-3.07c0-.307-.094-.544-.282-.709-.188-.173-.47-.26-.846-.26h-1.01v1.937h1.01c.376 0 .658-.083.846-.248.188-.173.282-.413.282-.72zm10.566 3.046v2.102h-6.84V5.559h6.687v2.102h-3.96v.968h3.478v2.008h-3.478v1.086h4.113zm7.53-2.22c.486.181.862.445 1.129.791.266.347.4.764.4 1.252 0 .724-.298 1.287-.894 1.689-.595.393-1.457.59-2.585.59h-4.63V5.559h4.395c1.097 0 1.923.197 2.48.59.564.394.846.918.846 1.571 0 .386-.098.732-.294 1.04-.188.306-.47.554-.846.743zm-3.854-1.995v1.228h1.293c.603 0 .905-.205.905-.614 0-.41-.302-.614-.905-.614h-1.293zm1.669 4.369c.611 0 .916-.217.916-.65 0-.433-.305-.65-.916-.65h-1.669v1.3h1.669zm8.889 2.137c-.885 0-1.68-.185-2.386-.555a4.17 4.17 0 01-1.656-1.535c-.4-.661-.6-1.405-.6-2.232 0-.826.2-1.566.6-2.22.4-.661.951-1.177 1.656-1.547.706-.37 1.5-.555 2.386-.555.885 0 1.68.185 2.386.555a4.14 4.14 0 011.656 1.547c.4.654.6 1.394.6 2.22 0 .827-.2 1.57-.6 2.232a4.17 4.17 0 01-1.656 1.535c-.706.37-1.5.555-2.386.555zm0-2.255c.345 0 .654-.083.928-.248.282-.174.506-.414.67-.72a2.34 2.34 0 00.247-1.099c0-.417-.082-.78-.247-1.086a1.75 1.75 0 00-.67-.72 1.702 1.702 0 00-.928-.26 1.761 1.761 0 00-1.598.98c-.165.307-.247.669-.247 1.086 0 .417.082.783.247 1.098.164.307.384.547.658.72.282.166.595.248.94.248zm7.202-4.039h-2.409V5.56h7.592v2.16h-2.41v6.105h-2.773V7.72zm5.786-2.16h2.773v8.265h-2.773V5.559zm8.244 8.454c-.87 0-1.653-.181-2.35-.543a4.191 4.191 0 01-1.645-1.535c-.392-.662-.588-1.41-.588-2.244 0-.834.196-1.578.588-2.232a4.08 4.08 0 011.645-1.535c.697-.37 1.48-.555 2.35-.555.8 0 1.513.142 2.14.425a3.973 3.973 0 011.55 1.228l-1.75 1.57c-.51-.645-1.11-.967-1.799-.967-.58 0-1.046.189-1.398.566-.353.37-.529.87-.529 1.5s.177 1.134.529 1.512c.352.37.819.554 1.398.554.69 0 1.29-.322 1.798-.968l1.751 1.57a3.974 3.974 0 01-1.55 1.229c-.627.283-1.34.425-2.14.425zm9.864-1.63h-3.126l-.552 1.441h-2.82l3.596-8.266h2.726l3.596 8.266h-2.868l-.552-1.44zm-.764-2.007l-.799-2.078-.799 2.078h1.598z" fill="#000"/><path d="M33.578 21.993c-.284 0-.56-.043-.825-.13a1.715 1.715 0 01-.62-.346l.2-.423c.143.13.326.237.55.32.226.08.457.119.695.119.312 0 .546-.052.7-.157a.5.5 0 00.232-.428.407.407 0 00-.13-.314.8.8 0 00-.312-.19 5.45 5.45 0 00-.523-.146 5.555 5.555 0 01-.69-.206 1.176 1.176 0 01-.447-.314c-.122-.144-.183-.338-.183-.58 0-.202.052-.384.156-.547.108-.162.27-.292.485-.39.216-.097.483-.146.803-.146.223 0 .442.029.658.087.216.057.4.14.555.249l-.178.433a1.884 1.884 0 00-.506-.227 1.824 1.824 0 00-.529-.082c-.305 0-.535.056-.69.168a.517.517 0 00-.226.434c0 .13.043.236.13.32a.944.944 0 00.317.189c.13.043.304.09.523.14.284.07.512.138.685.206.172.07.32.174.442.315.126.14.188.33.188.568a.985.985 0 01-.161.547 1.108 1.108 0 01-.49.39c-.22.094-.49.141-.81.141zm3.563-.21a.802.802 0 01-.28.15 1.225 1.225 0 01-.345.05c-.288 0-.51-.078-.668-.233-.158-.156-.238-.378-.238-.667v-1.576h-.485v-.428h.485v-.628h.518v.628h.82v.428h-.82v1.555c0 .155.038.274.113.357a.44.44 0 00.334.125.622.622 0 00.405-.136l.161.374zm1.45-2.73c.396 0 .698.097.906.292.212.195.318.485.318.872v1.733h-.49v-.38a.834.834 0 01-.372.31 1.416 1.416 0 01-.566.103c-.32 0-.577-.078-.771-.233a.751.751 0 01-.286-.613c0-.252.092-.454.275-.606.184-.155.475-.233.873-.233h.82v-.103c0-.224-.065-.395-.194-.515-.13-.119-.32-.178-.572-.178-.168 0-.334.029-.495.086a1.239 1.239 0 00-.41.222l-.216-.39c.148-.119.324-.209.529-.27.204-.065.422-.098.652-.098zm-.118 2.529a.974.974 0 00.512-.13.773.773 0 00.313-.38v-.4H38.5c-.438 0-.658.148-.658.444 0 .144.056.258.168.341.11.083.265.125.463.125zm2.58-2.02a.884.884 0 01.4-.38c.175-.087.39-.13.64-.13v.504a1.03 1.03 0 00-.118-.006c-.28 0-.501.085-.663.255-.158.166-.237.404-.237.715v1.43h-.518v-2.87h.496v.481zm3.185 2.22a.803.803 0 01-.28.152 1.225 1.225 0 01-.345.049c-.288 0-.51-.078-.669-.233-.158-.156-.237-.378-.237-.667v-1.576h-.485v-.428h.485v-.628h.518v.628h.819v.428h-.82v1.555c0 .155.038.274.114.357a.44.44 0 00.334.125.622.622 0 00.404-.136l.162.374zm4.17-2.703l-1.385 3.158c-.122.293-.266.498-.431.618a.963.963 0 01-.588.178c-.14 0-.277-.023-.41-.07a.81.81 0 01-.323-.195l.221-.39c.147.14.318.211.512.211.126 0 .23-.034.313-.103.086-.065.163-.178.232-.341l.091-.2-1.261-2.866h.539l.997 2.297.987-2.297h.506zm1.412 2.904c-.284 0-.539-.064-.765-.19a1.397 1.397 0 01-.534-.52 1.521 1.521 0 01-.188-.758c0-.282.062-.533.188-.753.13-.224.307-.398.534-.52.226-.127.481-.19.765-.19.284 0 .538.063.76.19.227.122.403.296.529.52.129.22.194.47.194.753 0 .281-.065.534-.194.758-.126.22-.302.393-.529.52-.222.126-.476.19-.76.19zm0-.456a.915.915 0 00.836-.482c.083-.155.124-.332.124-.53a1.08 1.08 0 00-.124-.526.87.87 0 00-.345-.357.962.962 0 00-.49-.125.992.992 0 00-.497.125.917.917 0 00-.345.357 1.08 1.08 0 00-.124.526c0 .198.042.375.124.53a.98.98 0 00.345.358.992.992 0 00.496.125zm4.646-2.448v2.871h-.49v-.433a1.057 1.057 0 01-.416.346 1.28 1.28 0 01-.555.12c-.381 0-.681-.105-.9-.315-.22-.213-.33-.525-.33-.937V19.08h.518v1.593c0 .278.067.489.2.633.133.141.323.212.571.212.273 0 .489-.083.647-.25.158-.166.237-.4.237-.704V19.08h.518zm1.265.482a.884.884 0 01.4-.379 1.43 1.43 0 01.64-.13v.504a1.03 1.03 0 00-.118-.006c-.28 0-.501.085-.663.255-.158.166-.237.404-.237.715v1.43h-.518v-2.87h.496v.481zm3.842 1.051l-.593.553v.785h-.517v-4.02h.517v2.58l1.558-1.43h.625l-1.202 1.185 1.32 1.685h-.635l-1.073-1.338zm1.959-1.533h.517v2.871h-.517v-2.87zm.259-.552a.354.354 0 01-.254-.098.325.325 0 01-.097-.238.344.344 0 01.35-.341c.101 0 .184.032.248.097a.3.3 0 01.103.233.34.34 0 01-.35.347zm3.726-.596v4.019h-.496v-.455a1.12 1.12 0 01-.436.363c-.177.083-.37.125-.583.125-.276 0-.524-.062-.744-.185a1.34 1.34 0 01-.517-.514 1.58 1.58 0 01-.183-.77c0-.288.06-.543.183-.763.126-.22.298-.392.517-.515.22-.123.468-.184.744-.184.205 0 .394.04.566.12.173.075.317.189.431.34v-1.581h.518zm-1.472 3.596c.18 0 .344-.041.491-.124a.914.914 0 00.345-.358c.083-.155.124-.332.124-.53a1.08 1.08 0 00-.124-.526.869.869 0 00-.345-.357.981.981 0 00-.49-.125.992.992 0 00-.497.125.916.916 0 00-.344.357 1.081 1.081 0 00-.124.526c0 .198.04.375.123.53a.975.975 0 00.346.358.992.992 0 00.495.125zm2.365-3.629c.1 0 .183.036.248.109a.353.353 0 01.102.26.83.83 0 01-.016.162c-.01.05-.034.125-.07.222l-.259.759h-.34l.2-.808a.36.36 0 01-.167-.124.382.382 0 01-.06-.211.35.35 0 01.361-.368zm1.606 4.085c-.233 0-.458-.031-.674-.093a1.51 1.51 0 01-.506-.243l.215-.412c.126.09.279.163.458.217.18.054.362.08.545.08.453 0 .679-.13.679-.39a.253.253 0 00-.092-.205.551.551 0 00-.231-.108 4.04 4.04 0 00-.388-.082 3.92 3.92 0 01-.567-.124.87.87 0 01-.371-.238c-.105-.112-.157-.27-.157-.472a.73.73 0 01.324-.623c.215-.159.505-.238.867-.238.191 0 .382.024.572.07.19.047.347.11.469.19l-.221.412a1.48 1.48 0 00-.825-.228c-.22 0-.386.036-.501.109-.115.072-.173.168-.173.287 0 .094.033.168.097.222a.613.613 0 00.237.119c.098.025.232.054.405.087.23.04.415.083.555.13a.81.81 0 01.367.227c.1.108.15.26.15.455a.72.72 0 01-.334.623c-.219.152-.519.228-.9.228zm4.143 0c-.291 0-.552-.064-.782-.19a1.397 1.397 0 01-.533-.52 1.489 1.489 0 01-.194-.758c0-.282.064-.533.194-.753a1.34 1.34 0 01.533-.52c.23-.127.49-.19.782-.19.259 0 .489.052.69.157.205.105.363.257.474.455l-.393.255a.88.88 0 00-.777-.412c-.186 0-.355.042-.506.125a.905.905 0 00-.35.357 1.08 1.08 0 00-.124.526c0 .202.04.38.123.536a.915.915 0 00.35.352c.152.083.32.125.507.125a.88.88 0 00.776-.412l.394.249c-.111.199-.27.352-.474.46a1.472 1.472 0 01-.69.158zm2.659-2.93c.395 0 .697.097.906.292.212.195.318.485.318.872v1.733h-.49v-.38a.834.834 0 01-.373.31 1.415 1.415 0 01-.566.103c-.32 0-.577-.078-.77-.233a.752.752 0 01-.286-.613c0-.252.091-.454.275-.606.183-.155.474-.233.873-.233h.82v-.103c0-.224-.066-.395-.195-.515-.13-.119-.32-.178-.571-.178-.17 0-.335.029-.496.086a1.239 1.239 0 00-.41.222l-.215-.39c.147-.119.323-.209.528-.27.205-.065.422-.098.652-.098zm-.119 2.529a.973.973 0 00.513-.13.772.772 0 00.312-.38v-.4h-.798c-.438 0-.657.148-.657.444 0 .144.055.258.167.341.111.083.266.125.463.125zm2.58-2.02a.885.885 0 01.4-.38c.176-.087.39-.13.641-.13v.504a1.03 1.03 0 00-.119-.006c-.28 0-.5.085-.663.255-.158.166-.237.404-.237.715v1.43h-.517v-2.87h.496v.481zm4.019.969c0 .04-.004.092-.01.157h-2.319a.917.917 0 00.33.612c.19.152.425.227.705.227.342 0 .617-.115.825-.346l.286.336a1.25 1.25 0 01-.486.346c-.19.08-.404.12-.641.12a1.7 1.7 0 01-.803-.185 1.365 1.365 0 01-.545-.525 1.521 1.521 0 01-.188-.758c0-.279.06-.53.183-.753a1.34 1.34 0 01.512-.52c.22-.127.465-.19.739-.19.273 0 .515.063.727.19.216.122.383.296.502.52.122.224.183.48.183.769zm-1.412-1.04a.902.902 0 00-.626.227.925.925 0 00-.29.596h1.832a.909.909 0 00-.297-.59.87.87 0 00-.62-.233zm4.497 1.04c0 .04-.004.092-.01.157h-2.319a.917.917 0 00.33.612c.19.152.425.227.705.227.342 0 .617-.115.825-.346l.286.336a1.25 1.25 0 01-.486.346c-.19.08-.404.12-.64.12a1.7 1.7 0 01-.804-.185 1.366 1.366 0 01-.545-.525 1.522 1.522 0 01-.188-.758c0-.279.06-.53.183-.753a1.34 1.34 0 01.512-.52c.22-.127.466-.19.739-.19.273 0 .515.063.727.19.216.122.383.296.502.52.122.224.183.48.183.769zm-1.412-1.04a.902.902 0 00-.626.227.925.925 0 00-.29.596h1.832a.908.908 0 00-.296-.59.87.87 0 00-.62-.233zm2.41.07a.884.884 0 01.4-.379c.176-.087.39-.13.641-.13v.504a1.033 1.033 0 00-.118-.006c-.28 0-.502.085-.663.255-.159.166-.238.404-.238.715v1.43h-.517v-2.87h.496v.481z" fill="#787A7D"/></svg>