<svg width="121" height="22" viewBox="0 0 121 22" fill="none" xmlns="http://www.w3.org/2000/svg"><path fill-rule="evenodd" clip-rule="evenodd" d="M120.404 7.778c-.361-.35-.984-.587-1.668-.587h-4.569v1.295h3.96c.265 0 .622.046.859.325.201.238.233.5.233.725v.53h-3.493c-.421 0-.966.027-1.479.442-.421.354-.593.797-.638 1.253-.033.205-.033.398-.033.606 0 .177 0 .396.033.633.045.502.217 1.078.654 1.43.467.386 1.026.386 1.464.386h5.272V9.58c-.002-.84-.272-1.46-.595-1.8zm-1.185 5.735h-2.993a.88.88 0 01-.576-.235c-.218-.206-.248-.617-.248-.84 0-.548.14-.75.201-.826.202-.237.527-.25.653-.25h2.963v2.15zm-9.232-2.681l3.293-3.641h-2.105l-3.246 3.7 3.446 3.924h2.263l-.03-.043-3.621-3.94zm-26.424-3.73c-.96 0-2.367.028-3.259.806-.915.813-1.023 2.256-1.023 3.113 0 .78.074 2.227 1.023 3.054.892.769 2.299.827 3.26.827.923 0 2.387-.058 3.244-.827.593-.531 1.028-1.49 1.028-3.095 0-.814-.091-2.257-1.028-3.072-.87-.777-2.29-.805-3.245-.805zm2.448 3.906c0 .664 0 1.399-.545 1.962-.528.559-1.23.633-1.904.633-.638 0-1.416-.074-1.932-.633-.498-.544-.514-1.327-.514-1.962 0-.488 0-1.46.498-2.006.498-.546 1.373-.606 1.947-.606.64 0 1.404.06 1.918.606.567.592.532 1.445.532 2.006zm16.869 2.505h-2.2c-.653 0-1.028-.143-1.275-.455-.3-.355-.33-.855-.33-1.357v-4.51H97.3v5.012c0 1.046.356 1.622.779 1.989.638.549 1.418.622 2.244.622h4.337V7.189h-1.78v6.324zm4.707 1.302V7.19h-1.776v7.625h1.776zM94.398 10.24h-3.831V7.19h-1.78v7.624h1.78v-3.273h3.831v3.273h1.78V7.191h-1.78v3.05zM75.225 7.19h-4.256v10.055h1.762v-2.431h2.246c.825 0 2.058-.06 2.819-1.093.578-.782.638-1.873.638-2.873 0-.84-.03-2.023-.84-2.82-.777-.768-1.853-.838-2.37-.838zm1.046 5.616c-.204.298-.64.706-1.53.706H72.73V8.486h2.103c.797 0 1.326.37 1.561.855.076.206.204.607.204 1.651 0 1.123-.171 1.58-.327 1.815zM41.629 7.102c-.952 0-2.37.028-3.243.811-.934.81-1.046 2.253-1.046 3.108 0 .78.078 2.227 1.046 3.054.872.769 2.29.827 3.242.827.935 0 2.386-.058 3.26-.827.59-.531 1.029-1.49 1.029-3.095 0-.814-.109-2.257-1.03-3.067-.89-.782-2.288-.81-3.258-.81zm2.448 3.906c0 .664 0 1.399-.53 1.962-.532.559-1.246.633-1.918.633-.642 0-1.404-.074-1.934-.633-.497-.544-.516-1.327-.516-1.962 0-.488 0-1.46.516-2.006.498-.546 1.356-.606 1.934-.606.638 0 1.419.06 1.932.606.566.592.516 1.445.516 2.006zm16.198 2.505h-2.2c-.653 0-1.01-.143-1.279-.455-.278-.355-.326-.855-.326-1.357v-4.51h-1.775v5.012c0 1.046.356 1.622.779 1.989.637.549 1.416.622 2.256.622h4.32V7.189h-1.776v6.324zm2.555-5.027h2.79v6.328h1.777V8.486h2.789V7.19H62.83v1.295zm-10.538 2.42v-.045c.42-.043.732-.251.903-.441.186-.225.373-.59.373-1.284 0-.458-.088-1.063-.528-1.477-.468-.425-1.09-.468-1.671-.468h-4.595v1.295H50.7c.126 0 .512.013.748.207.14.103.28.309.28.662 0 .368-.14.576-.263.679-.219.206-.455.206-.716.206h-3.901v1.301h3.836c.17 0 .512.011.747.172.313.208.345.5.345.768 0 .444-.141.695-.28.812-.218.206-.534.219-.829.219h-4.036v1.3h4.753c.517 0 1.125-.03 1.605-.46.3-.25.628-.784.628-1.683 0-.689-.205-1.1-.424-1.324-.17-.207-.463-.395-.902-.438zM33.364 7.192h-4.316v7.624h1.778V8.487h2.199c.655 0 1.015.147 1.277.456.284.356.327.856.327 1.357v4.515h1.778V9.798c0-1.045-.36-1.623-.78-1.99-.639-.547-1.42-.618-2.263-.618z" fill="#313131"/><path d="M23.715 9.444c-.368-.451-1.225-.369-1.756-.328-.613.041-1.266.164-1.879.287h-.04l-.246-.738c.204-.082.409-.164.572-.246.654-.328 1.92-.903 2.246-1.559.245-.45-.081-.82-.53-1.107-1.144-.697-2.941-1.149-4.207-1.395h-.041c-.123-.164-.204-.369-.327-.533-.49-.738-1.184-1.763-1.96-2.502-.368-.328-1.021-.943-1.552-.779-.572.164-.735.984-.858 1.477-.163.615-.245 1.23-.327 1.845h-.816c-.041-.205-.041-.41-.082-.615-.123-.697-.286-2.01-.858-2.543-.367-.37-.857-.205-1.266.164-1.062.82-2.042 2.338-2.695 3.445l-.019.024c-.201.032-.4.079-.594.14-.898.205-2.124.534-3.104.985-.45.205-1.266.615-1.266 1.19 0 .573.776.983 1.225 1.23.531.328 1.103.574 1.634.82h.04s.042 0 .042.04c-.082.247-.164.493-.245.698v.041l-.613-.123c-.735-.123-2.124-.369-2.818 0-.45.246-.45.697-.245 1.23.49 1.19 1.674 2.543 2.573 3.487-.041.205-.041.41-.082.615-.081.861-.122 2.092.041 3.117.082.451.245 1.313.776 1.477.572.164 1.225-.37 1.634-.698.49-.41.939-.861 1.388-1.312.204.164.45.328.654.492-.123.164-.204.37-.286.533-.327.615-.98 1.805-.858 2.543.082.492.572.615 1.144.615 1.347-.082 3.104-.738 4.288-1.23 0 0 .368.164.613.246.857.328 2.042.78 3.144.943.49.082 1.389.205 1.716-.246a.695.695 0 00.122-.41V20.6a2.95 2.95 0 00-.367-1.107 15.26 15.26 0 00-.887-1.649c.24-.16.441-.282.683-.443l.449.451c.53.492 1.51 1.477 2.246 1.559.53.082.817-.329.94-.862.367-1.23.204-3.035.081-4.265l-.04.04a4.9 4.9 0 00.448-.491c.613-.657 1.389-1.6 1.92-2.543.163-.287.408-.78.408-1.19v-.246a1.232 1.232 0 00-.163-.41zM20.08 7.188a3.957 3.957 0 01-.694.287v-.04c-.245-.616-.49-1.19-.776-1.764.613.164 1.225.328 1.838.533.735.37.286.656-.368.984zm-6.126-4.88c.082-.41.204-.78.45-.82.448-.124.939.615 1.143.902.408.533.776 1.107 1.143 1.681a23.15 23.15 0 00-2.9-.287c.042-.246.042-.943.164-1.476zm3.471 3.117c.245.492.45.943.654 1.435.122.328.245.656.367.944-.49.164-1.02.328-1.51.45-1.757.41-2.655.575-2.982-1.353-.123-.615-.163-1.353-.163-2.05a35.31 35.31 0 013.634.574zM9.83 2.472c.531-.575.694-.082.817.615.04.164.081.41.081.697-.694.041-1.347.082-2.042.164.409-.533.736-1.025 1.144-1.476zm-1.756 2.46c.53-.081 1.103-.123 1.634-.123.367 0 .735-.04 1.061-.04 0 .492 0 1.025-.04 1.517-.123 1.723-.286 2.584-2.288 2.297-.653-.082-1.429-.246-2.082-.492a33.005 33.005 0 011.715-3.158zM3.866 7.107c-.408-.205-.694-.45-.694-.656.04-.41.898-.656 1.266-.78A16.659 16.659 0 016.48 5.18c-.45.82-.817 1.681-1.184 2.543-.041 0-.082-.041-.082-.041-.286-.124-.858-.329-1.348-.575zm.041 5.25c-.408-.492-.817-.943-1.143-1.476-.409-.657.163-.657.857-.575.204.041.45.082.735.123-.163.698-.326 1.313-.449 1.928zm1.675 5.373c-.327.287-.654.492-.858.41-.409-.164-.368-1.025-.368-1.394 0-.657.041-1.354.123-2.01.694.656 1.43 1.271 2.164 1.846-.204.205-.653.779-1.061 1.148zm1.715-1.969a25.36 25.36 0 01-2.614-2.502c.123-.533.204-1.025.368-1.517.081-.328.204-.656.286-.984.49.123 1.02.328 1.51.492 1.675.656 2.492 1.025 1.593 2.789-.285.533-.694 1.19-1.143 1.722zm2.94-2.296c.286-.493.49-1.067.327-1.6-.204-.574-.98-1.025-1.756-1.354-.94-.369-2.001-.738-3.063-.984.082-.205.163-.369.245-.533 1.184.451 2.45.861 3.553 1.025.572.082 1.225.123 1.675-.205.53-.369.735-1.19.816-2.01.082-.943.123-2.01.041-3.076.205 0 .409.041.654.041-.082 1.23-.082 2.502.081 3.569.082.533.245 1.148.695 1.476.53.37 1.43.287 2.246.082.98-.205 2.042-.533 3.063-.902.04.205.123.41.163.574-1.266.287-2.49.656-3.512 1.19-.53.246-1.062.574-1.225 1.107-.204.574.163 1.353.572 2.05.53.821 1.143 1.682 1.878 2.503-.163.123-.367.205-.53.328-.695-1.067-1.47-2.051-2.247-2.83-.408-.37-.898-.78-1.47-.78-.654 0-1.307.575-1.879 1.19-.653.738-1.348 1.558-1.92 2.46a4.21 4.21 0 01-.49-.41c.777-.902 1.553-1.927 2.084-2.912zm-1.225 6.48c-.776.164-.612-.37-.286-.985.082-.164.205-.369.368-.615.572.37 1.144.697 1.756 1.026-.653.205-1.225.41-1.838.574zm2.94-1.026c-.49-.246-.939-.533-1.388-.82a10.964 10.964 0 01-.898-.574c.286-.41.612-.82.98-1.19 1.184-1.312 1.797-1.927 3.267-.574.45.452.98 1.026 1.389 1.559-1.144.574-2.246 1.148-3.35 1.6zm4.86 1.518c-.285.328-1.143.041-1.51-.082a19.041 19.041 0 01-1.96-.738c.857-.41 1.715-.903 2.531-1.395l.041.041c.164.246.531.78.776 1.272.164.369.286.697.123.902zm.9-4.676a14.36 14.36 0 01-.9-1.271c-.939-1.477-1.388-2.256.45-3.117a12.732 12.732 0 012.001-.78c.286 1.149.49 2.338.572 3.487-.408.369-.817.697-1.225 1.025-.286.205-.613.41-.899.656zm2.205 1.313c-.082.78-.531.45-1.062-.041a6.658 6.658 0 01-.49-.533h.04l.082-.082c.49-.37.98-.78 1.43-1.19 0 .615.04 1.23 0 1.846zm2.369-5.62a15.986 15.986 0 01-1.348 1.56 32.198 32.198 0 00-.613-2.708h.041c.286-.082.94-.246 1.511-.328.45-.04.817-.04.98.164.205.329-.367 1.026-.571 1.313z" fill="#7DD737"/></svg>