<svg width="100" height="18" viewBox="0 0 100 18" fill="none" xmlns="http://www.w3.org/2000/svg"><g clip-path="url(#clip0)" fill="#00B956"><path d="M9.967.229v9.098c0 .425-.329.72-.724.72H8.158c-.066 0-.099.065-.099.098v7.626c.263 0 .527.065.823.065 4.9 0 8.881-3.96 8.881-8.836 0-4.484-3.388-8.248-7.796-8.771zM9.77 13.843a1.092 1.092 0 01-1.086-1.08c0-.621.527-1.08 1.086-1.08.625 0 1.085.524 1.085 1.08.066.59-.46 1.08-1.085 1.08zm2.598 0a1.092 1.092 0 01-1.085-1.08c0-.621.526-1.08 1.085-1.08.625 0 1.086.524 1.086 1.08a1.07 1.07 0 01-1.086 1.08zm2.632 0a1.092 1.092 0 01-1.085-1.08c0-.621.526-1.08 1.085-1.08.625 0 1.085.524 1.085 1.08 0 .557-.46 1.08-1.085 1.08z"/><path d="M8.882.196C3.98.196 0 4.156 0 9.033a8.737 8.737 0 007.007 8.607V9.687c0-.36.329-.654.657-.72H8.75c.066 0 .099-.065.099-.098L8.882.196zm-1.71 7.266a1.092 1.092 0 01-1.086-1.08c0-.622.526-1.08 1.085-1.08.625 0 1.086.523 1.086 1.08 0 .556-.494 1.08-1.086 1.08zm90.624-2.455v3.338h-4.474V5.007h-2.27v8.837h2.27v-3.568h4.474v3.568H100V5.007h-2.204zM60.822 6.022c-.361-.786-1.085-1.211-1.809-1.211s-1.48.425-1.809 1.21l-3.586 7.855h2.369l.79-1.865h4.605l.79 1.865h2.368l-3.718-7.854zm-3.42 4.221l1.348-3.24c.066-.098.099-.098.164-.098.066 0 .165 0 .165.099l1.349 3.24H57.4zM34.375 3.436c-1.053 0-1.71.557-2.204 1.67l-2.862 6.643-2.895-6.676c-.46-1.08-1.15-1.67-2.204-1.67-.986 0-1.973.655-1.973 2.193v8.215h2.204V5.89l2.927 6.578c.362.95 1.053 1.506 1.941 1.506.954 0 1.58-.557 1.941-1.506l2.928-6.578v8.018h2.204V5.694c-.033-1.538-1.02-2.258-2.007-2.258zm5.888 8.542c-.099 0-.23-.098-.23-.229v-1.57h5.526v-1.8h-5.526V7.035c0-.098.099-.229.23-.229h5.494V4.942h-6.58c-.789 0-1.315.622-1.315 1.309v6.185c0 .655.56 1.31 1.316 1.31h6.579V11.88h-5.494v.098zm9.211 1.866V7.102c0-.098.099-.23.23-.23h5.494V5.008h-6.58c-.789 0-1.315.622-1.315 1.31v7.494l2.17.033zm40.131-4.386c0-3.076-1.349-4.516-4.704-4.516h-.79c-3.355 0-4.703 1.472-4.703 4.516 0 3.011 1.349 4.517 4.704 4.517h.723c3.422-.066 4.77-1.506 4.77-4.517zm-4.77 2.651h-.723c-1.81 0-2.566-.818-2.566-2.65 0-1.768.625-2.652 2.566-2.652h.723c1.875 0 2.566.884 2.566 2.651 0 1.8-.69 2.651-2.566 2.651zM73.257 3.633h-4.408c-3.29 0-4.605 1.669-4.605 4.516 0 .458.065.884.098 1.244.362 2.029 1.58 3.272 4.638 3.272h.987v1.146h2.204v-1.146h.954c3.092 0 4.31-1.243 4.638-3.272.066-.36.099-.786.099-1.244-.033-2.847-1.382-4.516-4.605-4.516zm-4.342 7.2c-1.514 0-2.04-.557-2.369-1.473-.099-.327-.099-.786-.099-1.244 0-1.865.889-2.65 2.139-2.65h1.348v5.367h-1.02zm6.644-1.375c-.329.884-.888 1.473-2.368 1.473h-.987v-5.4h1.349c1.25 0 2.138.785 2.138 2.65-.033.492-.033.884-.132 1.277z"/></g><defs><clipPath id="clip0"><path fill="#fff" d="M0 0h100v18H0z"/></clipPath></defs></svg>