<svg width="76" height="14" viewBox="0 0 76 14" fill="none" xmlns="http://www.w3.org/2000/svg"><path d="M67.643 9.373v.994c0 .836.75 1.603 1.93 1.603a2.533 2.533 0 002.508-1.821l3.782-.002C75.3 11.908 72.975 14 68.702 14c-5.57 0-7.317-3.032-7.317-5.35 0-2.47 2.018-5.412 7.308-5.412C73.266 3.238 76 5.902 76 8.652c0 .46-.039.721-.039.721h-8.318zm0-1.671h2.119V6.338c0-.411-.327-1.063-1.067-1.063-.686 0-1.052.624-1.052 1.057v1.37zm-15.52 3.688h-1.505v2.134h10.174V11.39h-1.526V.544h-8.648v2.134h1.505v8.712zM41.642 9.373v.994c0 .836.753 1.603 1.931 1.603 1.69 0 2.37-1.284 2.508-1.821l3.783-.002C49.3 11.908 46.974 14 42.702 14c-5.571 0-7.316-3.032-7.316-5.35 0-2.47 2.016-5.412 7.308-5.412C47.265 3.238 50 5.902 50 8.652c0 .46-.04.721-.04.721h-8.32zm0-1.671h2.12V6.338c0-.411-.327-1.063-1.067-1.063-.685 0-1.053.624-1.053 1.057v1.37zm-9.596-5.82L31.062 0l-3.109 1.61.985 1.902 3.108-1.63zm1.236 1.883h-8.358v2.134h1.524v5.491h-1.524v2.134h9.883V11.39h-1.525V3.765zM15.947.544h7.606v2.135h-1.525v8.711h1.525v2.134h-9.885V11.39h1.525V5.744l-5.616 7.78-5.638-7.78v5.646h1.526v2.134H0V11.39h1.507V2.68H0V.543h8.63l3.667 5.064 3.65-5.064z" fill="#8C0014"/></svg>