<svg width="99" height="18" viewBox="0 0 99 18" fill="none" xmlns="http://www.w3.org/2000/svg"><path d="M45.757 5.893c-1.124 0-2.053.375-2.787 1.124-.72.734-1.11 1.693-1.11 2.817 0 1.17.405 2.113 1.2 2.848.794.734 1.828 1.094 3.102 1.094.989 0 1.963-.255 2.832-.645v-1.513c-.84.48-1.828.734-2.832.734-1.244 0-2.428-.54-2.683-1.978h5.83c.045-.135.075-.525.075-.884 0-.72-.18-1.619-.93-2.443-.659-.75-1.633-1.154-2.697-1.154zm-.045 1.484c.96 0 1.978.584 2.128 1.753h-4.346c.225-1.199 1.2-1.753 2.218-1.753zm25.575-1.412c-.779 0-1.708.33-2.278.914v-.764h-1.558v7.493h1.559V9.846c0-1.753 1.093-2.353 2.367-2.353.075 0 .18.015.285.03V5.995c-.135-.015-.3-.03-.375-.03zM54.114 9.757L56.901 6.1h-1.888l-2.742 3.687 2.907 3.806h1.843l-2.937-3.821.03-.015zm-1.901-6.699h-1.559v10.535h1.559V3.058zm-20.242 5.36v-.405h-4.885v1.484h3.252v2.188a6.257 6.257 0 01-2.308.434c-1.124 0-2.053-.374-2.788-1.094-.689-.704-1.049-1.573-1.049-2.682 0-1.094.345-1.963 1.05-2.683.704-.704 1.798-1.094 3.191-1.094 1.094 0 2.143.255 3.043.735V3.592a7.433 7.433 0 00-3.043-.644c-1.768.015-3.386.57-4.36 1.558-1.02 1.02-1.574 2.323-1.574 3.837 0 1.513.555 2.817 1.573 3.851 1.02 1.02 2.383 1.544 3.942 1.544a7.62 7.62 0 003.941-1.11v-4.21h.015zm7.819-1.431c-.674-.704-1.618-1.094-2.652-1.094-1.124 0-2.053.375-2.788 1.124-.719.734-1.109 1.693-1.109 2.817 0 1.17.405 2.113 1.2 2.848.239.21.494.404.778.554.66.36 1.44.54 2.338.54.99 0 1.963-.255 2.833-.645v-1.513a5.22 5.22 0 01-.585.284c-.69.3-1.468.435-2.248.435-1.244 0-2.427-.54-2.682-1.978h5.814c.045-.135.075-.525.075-.884 0-.72-.18-1.619-.929-2.443-.015 0-.03-.015-.045-.045zm-.584 2.143H34.86c.24-1.184 1.214-1.753 2.218-1.753.959 0 1.978.584 2.128 1.753zM83.29 6.1h-1.558v7.493h1.558V6.1zm-.779-3.267c-.285 0-.524.09-.704.285a.97.97 0 00-.285.719c0 .285.09.524.285.72a.94.94 0 00.704.284c.285 0 .525-.09.705-.285a.973.973 0 00.284-.72.973.973 0 00-.284-.718c-.18-.195-.42-.285-.705-.285zm16.171 8.677c0-.465-.12-.824-.344-1.124-.465-.66-1.364-.989-2.353-1.244-.405-.105-.854-.21-1.184-.39-.27-.164-.404-.33-.404-.629 0-.51.629-.75 1.393-.75.914 0 1.783.21 2.548.63V6.445a6.407 6.407 0 00-2.548-.525c-.794 0-1.619.18-2.158.6-.54.42-.764.974-.764 1.678 0 1.454 1.258 2.008 2.697 2.368.405.105.854.21 1.184.39.27.164.404.33.404.629 0 .524-.554.78-1.468.78a7.924 7.924 0 01-2.712-.465v1.453c.854.285 1.768.45 2.712.45.854 0 1.618-.21 2.203-.615.195-.135.345-.3.465-.464.224-.345.329-.75.329-1.214zM64.727 8.078c.69-.524 1.02-1.169 1.02-2.053 0-.824-.33-1.558-.915-2.113-.584-.554-1.469-.84-2.308-.84h-4.436v10.521h4.81c.885 0 1.754-.285 2.369-.854.6-.555.914-1.304.914-2.158 0-1.05-.525-2.008-1.454-2.503zm-5.035-3.566h2.997c.84 0 1.469.659 1.469 1.498 0 .854-.645 1.499-1.469 1.499h-2.997V4.512zm3.282 7.657h-3.282V8.932h3.282c.869 0 1.558.705 1.558 1.619 0 .899-.69 1.618-1.558 1.618zm25.425-4.825c.719 0 1.183.254 1.468.644.285.39.345.884.345 1.289v4.316h1.559V9.217c0-.914-.225-1.693-.75-2.293l-.03-.03c-.525-.584-1.229-.989-2.188-.989a3.49 3.49 0 00-2.203.764V6.1h-1.558v7.494H86.6V9.277c0-.405.105-.854.39-1.229.135-.165.27-.315.45-.42.255-.18.569-.284.959-.284zm-9.977-.524c-.659-.615-1.588-.915-2.517-.915-1.08 0-1.993.375-2.758 1.139-.21.21-.39.42-.54.66-.03.044-.06.104-.09.15-.344.584-.509 1.258-.509 1.992 0 1.094.375 2.038 1.14 2.803.764.764 1.678 1.139 2.757 1.139.944 0 1.873-.3 2.517-.93v.735h1.559V6.1h-1.559v.72zm-.704 4.81c-.464.464-1.05.69-1.739.69-.689 0-1.273-.226-1.738-.69-.464-.48-.689-1.064-.689-1.769 0-.704.225-1.288.69-1.753.464-.48 1.048-.704 1.737-.704.69 0 1.275.224 1.739.704.464.465.69 1.049.69 1.753 0 .705-.226 1.29-.69 1.769zM10.051 2.266c-.291.398-.489 1.038-.489 1.953v1.18c0 .382.13.754.37 1.053l1.149 1.436a1.125 1.125 0 11-.879.703L9.054 7.154a2.813 2.813 0 01-.617-1.757v-1.18c0-1.054.225-1.96.707-2.617C9.643.921 10.378.563 11.25.563c1.411 0 2.619.865 3.123 2.093a3.095 3.095 0 012.22 2.969c0 .284-.005.588-.088.89a2.811 2.811 0 010 4.97c.083.302.089.606.089.89a3.095 3.095 0 01-2.22 2.969 3.376 3.376 0 01-4.179 1.925l.351-1.069a2.251 2.251 0 002.86-1.494l.1-.332.341-.06a1.97 1.97 0 001.622-1.94c0-.488-.038-.667-.174-.832a.771.771 0 00-.709-.282c-.284.03-.581.189-.783.441l-.661.827a1.125 1.125 0 11-.879-.702l.661-.827a2.318 2.318 0 011.543-.857c.485-.052.993.066 1.409.4a1.688 1.688 0 000-3.084 1.906 1.906 0 01-1.409.4 2.318 2.318 0 01-1.543-.857l-.66-.826a1.125 1.125 0 11.879-.703l.66.827c.202.252.499.41.784.44a.77.77 0 00.708-.28c.136-.166.174-.345.174-.834 0-.968-.7-1.775-1.622-1.938l-.341-.061-.1-.332a2.251 2.251 0 00-2.156-1.607c-.534 0-.924.204-1.199.58z" fill="#000"/><path d="M4.858 12.528a1.125 1.125 0 10.879-.703L5.076 11a2.318 2.318 0 00-1.543-.857 1.906 1.906 0 00-1.408.4 1.688 1.688 0 010-3.084c.415.334.923.452 1.408.4a2.317 2.317 0 001.543-.857l.66-.826a1.125 1.125 0 10-.879-.703l-.66.827c-.202.252-.499.41-.784.44a.77.77 0 01-.708-.28c-.136-.166-.174-.345-.174-.834 0-.968.7-1.774 1.622-1.938l.341-.06.1-.333A2.251 2.251 0 017.453 1.8l.35-1.07a3.376 3.376 0 00-4.178 1.926 3.095 3.095 0 00-2.22 2.97c0 .283.006.587.09.888a2.811 2.811 0 000 4.972c-.084.301-.09.605-.09.889 0 1.406.937 2.592 2.22 2.969a3.376 3.376 0 003.124 2.094c.872 0 1.607-.36 2.106-1.039.482-.657.707-1.564.707-2.618v-1.18a2.81 2.81 0 00-.617-1.756L7.798 9.41a1.125 1.125 0 10-.879.703l1.149 1.435c.24.299.37.67.37 1.054v1.18c0 .914-.198 1.554-.49 1.952-.274.375-.664.579-1.198.579a2.251 2.251 0 01-2.157-1.606l-.099-.333-.341-.06a1.97 1.97 0 01-1.622-1.939c0-.49.038-.668.174-.833a.771.771 0 01.708-.281c.285.03.582.188.784.44l.661.827z" fill="#000"/></svg>