<svg width="118" height="18" viewBox="0 0 118 18" fill="none" xmlns="http://www.w3.org/2000/svg"><path fill-rule="evenodd" clip-rule="evenodd" d="M1.657 4.7v7.045h4.387v1.487H.048V4.7h1.61zm12.797 8.532H8.068V4.7h6.386v1.56h-4.79v1.963h4.62v1.499h-4.62v1.925h4.79v1.585zm6.923.036h-1.67L16.162 4.7h1.804l2.571 6.643L23.12 4.7h1.804l-3.547 8.568zm11.81-.036h-6.386V4.7h6.386v1.56h-4.79v1.963h4.62v1.499h-4.62v1.925h4.79v1.585zM36.954 4.7v7.045h4.387v1.487h-5.996V4.7h1.609zm32.282 1.463H66.53V4.7h7.02v1.463h-2.705v7.069h-1.61V6.163zm13.772 7.069h-1.913l-2.486-2.852H77.06v2.852h-1.609V4.688c1.353 0 2.706.012 4.058.012 2.011.013 3.072 1.353 3.072 2.828 0 1.17-.537 2.352-2.157 2.681l2.583 2.913v.11zM77.061 6.2v2.73h2.45c1.023 0 1.462-.683 1.462-1.365 0-.683-.451-1.365-1.463-1.365h-2.45zm13.577 5.423h-4.46l-.732 1.609h-1.743L87.53 4.7h1.755l3.827 8.532h-1.755l-.719-1.61zm-2.23-5.131l-1.585 3.632h3.169l-1.584-3.632zm9.58 6.776h-1.67L92.772 4.7h1.803l2.572 6.643L99.73 4.7h1.803l-3.546 8.568zm11.81-.036h-6.386V4.7h6.386v1.56h-4.79v1.963h4.619v1.499h-4.619v1.925h4.79v1.585zm3.766-8.532v7.045h4.388v1.487h-5.997V4.7h1.609z" fill="#000"/><path fill-rule="evenodd" clip-rule="evenodd" d="M62.58 8.975a8.413 8.413 0 11-16.825 0 8.413 8.413 0 0116.825 0z" fill="url(#paint0_linear_7705_48121)"/><path fill-rule="evenodd" clip-rule="evenodd" d="M54.168 3.927a4.506 4.506 0 00-4.506 4.506c0 .293.025.467.025.467.03.214.233.388.448.388h8.066a.468.468 0 00.448-.388s.025-.174.025-.467a4.506 4.506 0 00-4.506-4.506z" fill="#FCEE21"/><path fill-rule="evenodd" clip-rule="evenodd" d="M60.598 10.465c0 .237-.212.43-.47.43H48.169c-.259 0-.47-.193-.47-.43 0-.238.211-.432.47-.432h11.959c.258 0 .47.194.47.432zm-1.764 1.646c0 .238-.212.432-.47.432h-8.43c-.26 0-.471-.194-.471-.432 0-.237.212-.431.47-.431h8.43c.259 0 .47.194.47.431zm-2.118 1.647c0 .237-.211.431-.47.431h-4.195c-.259 0-.47-.194-.47-.431s.211-.431.47-.431h4.195c.259 0 .47.194.47.431z" fill="#fff"/><defs><linearGradient id="paint0_linear_7705_48121" x1="54.168" y1=".562" x2="54.168" y2="17.387" gradientUnits="userSpaceOnUse"><stop stop-color="#00D7FF"/><stop offset="1" stop-color="#3FA9F5"/></linearGradient></defs></svg>