<svg width="84" height="13" viewBox="0 0 84 13" fill="none" xmlns="http://www.w3.org/2000/svg"><path d="M69.531 9.92h-.065L66.705.387h-4.456v12.016h2.952l-.167-9.86h.065l2.966 9.86h4.274V.388h-2.97l.162 9.531zM12.851.387L10.63 12.53h3.243l1.643-11.02h.068l1.6 11.022h3.224L18.196.388h-5.344zm18.142.001L29.51 9.673h-.067L27.968.389h-4.896l-.266 12.141h3.002l.075-10.919h.068l2.005 10.92H31l2.006-10.916.067-.004.078 10.92h3.003L35.889.388h-4.896zM3.192 3.511a1.568 1.568 0 01-.013-.633c.087-.39.347-.818 1.098-.818.704 0 1.114.441 1.114 1.1v.75H8.39v-.848C8.389.413 6.04 0 4.339 0 2.207 0 .465.717.143 2.698a4.204 4.204 0 00.03 1.634c.521 2.482 4.785 3.2 5.404 4.77.117.293.08.672.022.902-.097.397-.367.81-1.169.81-.75 0-1.207-.434-1.207-1.097l-.001-1.178H0v.938C0 12.186 2.107 13 4.363 13c2.175 0 3.958-.744 4.246-2.77.147-1.052.039-1.74-.013-1.998-.508-2.544-5.061-3.296-5.404-4.72zm39.057.029a1.519 1.519 0 01-.014-.623c.084-.388.342-.81 1.086-.81.696 0 1.105.434 1.105 1.084v.745h2.965v-.84c0-2.617-2.327-3.029-4.005-3.029-2.116 0-3.843.701-4.157 2.67a4.104 4.104 0 00.027 1.62c.517 2.455 4.74 3.169 5.353 4.72.112.293.078.666.024.894-.098.4-.368.801-1.158.801-.746 0-1.195-.428-1.195-1.083l-.003-1.17h-3.19v.93c0 2.681 2.089 3.486 4.323 3.486 2.148 0 3.916-.737 4.199-2.743.145-1.037.038-1.72-.013-1.977-.503-2.516-5.013-3.264-5.347-4.675zm13.615 5.828a2.43 2.43 0 01-.028.462c-.06.303-.317.874-1.151.874-.832 0-1.092-.572-1.152-.874a2.533 2.533 0 01-.03-.462V.387h-3.034v8.702c-.005.225.017.681.028.802.206 2.264 1.98 2.995 4.187 2.995 2.205 0 3.978-.731 4.19-2.995.011-.12.034-.577.03-.802V.387h-3.04v8.98zM79.75 5.704v1.778h1.23v1.76c.003.154-.003.323-.029.462-.053.327-.36.878-1.225.878-.868 0-1.174-.552-1.23-.878a2.582 2.582 0 01-.026-.461V3.687c0-.197.012-.413.048-.57.064-.299.323-.88 1.196-.88.918 0 1.145.614 1.2.88.035.17.037.46.037.458v.684h3.026v-.405c-.001 0 .01-.415-.024-.794C83.73.776 81.866.057 79.74.057c-2.127 0-3.949.725-4.213 3.003a7.867 7.867 0 00-.052.794l-.001 5.108c0 .229.008.398.041.802.198 2.211 2.098 3.003 4.222 3.003 2.126 0 4.026-.792 4.225-3.003.033-.405.037-.574.038-.802V5.704h-4.249z" fill="#1428A0"/></svg>