<svg width="70" height="16" viewBox="0 0 70 16" fill="none" xmlns="http://www.w3.org/2000/svg"><path d="M8.367.231L2.987 6.89V.231H0v15.491h2.988v-7.19h.043l5.357 7.19h3.908L5.913 7.533 12.038.231H8.367zm11.95 7.444H17.9l.005-5.016h2.43c1.332 0 2.395 1.122 2.395 2.508s-1.08 2.508-2.412 2.508zM25.8 4.996c0-2.638-2.05-4.779-4.588-4.779h-6.296v15.491h2.988V8.517l5.4 7.191h3.907l-4.982-6.206c1.938-.56 3.571-2.312 3.571-4.506zm25.84 2.679h-2.41l-.002-5.016 2.402.018c1.356 0 2.448 1.143 2.448 2.553s-1.081 2.445-2.438 2.445zm.866-7.458h-6.267v15.491h2.989l.013-5.933h3.257c2.539 0 4.596-2.14 4.596-4.779 0-2.638-2.05-4.779-4.588-4.779zM38.783 10.55c0 1.713-1.338 3.102-2.985 3.102-1.648 0-2.983-1.389-2.983-3.101V.218h-2.983v9.898c0 4.15 2.218 5.859 5.966 5.859 3.747 0 5.966-1.709 5.966-5.859V.218h-2.982V10.55zm24.695-5.963c0-1.684 1.321-2.149 2.345-2.149 1.044 0 2.198.27 3.136.69V.52C67.873.143 66.845 0 65.566 0c-2.621 0-5.2 1.263-5.2 4.72 0 5.12 6.522 3.9 6.522 6.848 0 1.396-1.514 1.994-2.643 1.994-1.172 0-2.751-.324-3.938-.83v2.55c1.452.485 2.488.718 4.108.718C67.42 16 70 14.715 70 11.324c0-5.186-6.522-4.055-6.522-6.737z" fill="#000"/></svg>