<svg width="100" height="18" viewBox="0 0 100 18" fill="none" xmlns="http://www.w3.org/2000/svg"><path fill-rule="evenodd" clip-rule="evenodd" d="M36.969 9.612a3.543 3.543 0 00-.737-.542l-.982-.55a12.19 12.19 0 00-.634-.34 7 7 0 01-.631-.36 2.165 2.165 0 01-.485-.428.853.853 0 01-.196-.56c0-.442.132-.762.4-.958.265-.196.633-.294 1.099-.294.338 0 .666.094.985.276.317.184.588.389.807.616l.819-.97c-.26-.289-.613-.564-1.063-.824-.447-.26-.982-.389-1.606-.389-.907 0-1.62.228-2.133.682-.514.456-.77 1.075-.77 1.86 0 .38.06.7.176.968.117.265.278.502.486.712.207.207.459.4.75.579.29.177.612.365.96.568.272.165.528.31.77.437.24.125.442.25.612.368.17.122.3.26.4.41.096.152.145.334.145.549 0 .519-.143.863-.429 1.034-.286.17-.688.256-1.208.256-.338 0-.701-.082-1.09-.246-.39-.165-.76-.48-1.108-.948l-.897.947c.376.48.812.852 1.305 1.111.493.26 1.083.39 1.772.39.896 0 1.634-.219 2.219-.655.585-.436.878-1.122.878-2.057 0-.38-.052-.698-.155-.958a2 2 0 00-.46-.684zm8.034 1.243c0 .606-.171 1.058-.506 1.355-.338.297-.806.445-1.403.445s-1.084-.19-1.46-.57c-.376-.376-.565-.87-.565-1.476V7.61c0-.583.19-1.063.566-1.443.375-.379.857-.569 1.44-.569.61 0 1.084.148 1.422.446.335.298.506.744.506 1.338v3.472zM43.486 4.29c-.531 0-1.02.123-1.469.37-.443.244-.81.601-1.06 1.034l-.136-1.215h-1.228v13.475h1.5v-5.127c.245.417.58.711 1.002.882.421.173.872.258 1.352.258 1 0 1.756-.268 2.269-.807.512-.537.769-1.306.769-2.304V7.344c0-1.025-.245-1.79-.73-2.297-.488-.506-1.242-.758-2.269-.758zm9.756 6.545c0 .265-.048.51-.145.73a1.779 1.779 0 01-.41.578 1.973 1.973 0 01-.602.39 1.85 1.85 0 01-.728.14c-.441 0-.808-.088-1.091-.264-.284-.176-.427-.479-.427-.909V9.962l3.403-.702v1.574zM51.798 4.29c-.247 0-.515.034-.816.103-.297.07-.59.161-.885.267-.29.109-.57.228-.836.362a4.89 4.89 0 00-.671.39l.545 1.117a6.86 6.86 0 01.565-.322c.224-.117.455-.221.691-.312.227-.091.46-.167.698-.227.226-.059.427-.087.595-.087.594 0 1.004.113 1.235.342.225.226.34.639.34 1.233v.988l-4.903 1.005v2.39c0 .808.24 1.413.722 1.81.478.4 1.135.6 1.963.6.531 0 .995-.137 1.388-.41a3.25 3.25 0 00.962-1.014l.097 1.252h1.21V7.154c0-.987-.23-1.71-.69-2.173-.462-.461-1.197-.692-2.21-.692zm7.005 1.823c.317-.33.749-.493 1.294-.493.378 0 .73.098 1.062.293.332.198.62.46.846.768L63 5.732c-.727-.961-1.694-1.443-2.902-1.443-.48 0-.917.077-1.314.228a2.943 2.943 0 00-1.02.645c-.29.28-.515.616-.663.987a3.257 3.257 0 00-.236 1.251v3.491c0 .976.295 1.732.887 2.268.59.539 1.386.807 2.386.807.518 0 1.022-.095 1.507-.285a3.301 3.301 0 001.276-.893l-.915-.967c-.214.273-.5.486-.828.616-.317.13-.657.199-1 .2-.585 0-1.04-.15-1.364-.444-.326-.298-.487-.732-.487-1.301V7.4c0-.53.16-.959.477-1.288zM65.94 7.4c0-.543.184-.977.553-1.298.372-.323.83-.484 1.375-.484.532 0 .925.131 1.176.397.255.266.42.65.496 1.158l.042.815-3.642.646V7.401zm3.338 5.045a3.12 3.12 0 01-1.099.191c-.66 0-1.2-.175-1.617-.522-.414-.347-.622-.844-.622-1.49v-.93l5.102-.891V7.4a3.38 3.38 0 00-.235-1.281 2.84 2.84 0 00-.652-.986 2.87 2.87 0 00-1.002-.626 3.68 3.68 0 00-1.285-.218 4.16 4.16 0 00-1.365.218c-.413.146-.77.35-1.072.617-.297.265-.53.59-.7.977a3.206 3.206 0 00-.253 1.299v3.228c0 1.1.325 1.931.973 2.495.652.562 1.54.843 2.67.843.597 0 1.145-.092 1.644-.275.5-.185.97-.497 1.413-.94l-.817-1.005c-.376.34-.738.574-1.083.7zm10.603-.49l-1.599-7.478h-1.46l-1.557 7.514-1.421-7.514h-1.519l2.161 9.318h1.557l1.539-7.04 1.54 7.04h1.518l2.142-9.318h-1.5l-1.401 7.477zM85.453 7.4c0-.543.184-.977.553-1.298.372-.323.83-.484 1.375-.484.53 0 .923.131 1.176.397.253.266.42.65.496 1.158l.04.815-3.64.646V7.401zm3.339 5.045a3.13 3.13 0 01-1.1.191c-.662 0-1.201-.175-1.618-.522-.414-.347-.621-.844-.621-1.49v-.93l5.1-.891V7.4c0-.467-.078-.896-.233-1.281a2.827 2.827 0 00-.653-.986 2.873 2.873 0 00-1.002-.626 3.675 3.675 0 00-1.284-.218c-.494 0-.948.074-1.364.218a3.14 3.14 0 00-1.07.617 2.754 2.754 0 00-.702.977 3.19 3.19 0 00-.254 1.299v3.228c0 1.1.326 1.931.974 2.495.65.562 1.54.843 2.668.843.597 0 1.146-.092 1.646-.275.5-.185.971-.497 1.41-.94l-.817-1.005c-.377.34-.736.574-1.08.7zm9.526-1.536c0 .57-.174 1-.524 1.29-.35.29-.815.437-1.401.437-.634 0-1.133-.198-1.496-.588-.363-.392-.545-.898-.545-1.518V7.76c0-.277.05-.546.146-.804a2.07 2.07 0 01.416-.684c.181-.195.4-.353.645-.464.245-.116.51-.171.796-.171.623 0 1.105.142 1.448.427.344.283.515.73.515 1.336v3.51zm.714-5.834c-.513-.526-1.274-.787-2.286-.787a2.805 2.805 0 00-1.363.341c-.41.224-.763.536-1.031.912V.11H92.85v13.666h1.326l.078-1.104c.273.472.618.802 1.042 1 .42.195.896.294 1.43.294.997 0 1.76-.262 2.285-.789.523-.525.786-1.28.786-2.265V7.344c0-.988-.253-1.742-.767-2.268z" fill="#062436"/><path fill-rule="evenodd" clip-rule="evenodd" d="M13.156 13.668a.56.56 0 00-.566.552.538.538 0 00.159.402.568.568 0 00.407.168.578.578 0 00.407-.168.55.55 0 00.16-.402.545.545 0 00-.167-.39.574.574 0 00-.4-.162z" fill="#36BDF7"/><path fill-rule="evenodd" clip-rule="evenodd" d="M15.875 12.223c-.28 0-.559-.054-.818-.159a2.142 2.142 0 01-.693-.451 2.08 2.08 0 01-.462-.676 2.036 2.036 0 010-1.594c.107-.252.264-.481.463-.675a2.18 2.18 0 011.51-.608 2.176 2.176 0 011.51.608c.199.193.356.423.463.675a2.033 2.033 0 010 1.594 2.079 2.079 0 01-.462.675 2.141 2.141 0 01-.693.452c-.26.105-.538.159-.818.16zm-5.424 0c-.28 0-.558-.054-.818-.158a2.143 2.143 0 01-.693-.452 2.08 2.08 0 01-.464-.676 2.037 2.037 0 01.464-2.269 2.13 2.13 0 01.693-.45 2.18 2.18 0 011.635 0 2.088 2.088 0 011.155 1.125c.107.253.162.523.162.796 0 1.151-.954 2.084-2.134 2.084zm14.4-6.603c-.604-.932-1.277-1.58-1.894-2.108-.484-.41-.935-.749-1.378-1.071a.533.533 0 00-.68.024l-.742.7c-.472.448-.947.894-1.425 1.336-.513.473-1.027.946-1.542 1.417-.192.177-.467.226-.726.18a4.059 4.059 0 00-.73-.064c-.831 0-1.6.244-2.242.663a.627.627 0 01-.684 0 4.092 4.092 0 00-2.838-.618c-.264.04-.55-.003-.744-.184-.538-.493-1.063-.973-1.519-1.394-.569-.526-1.03-.962-1.425-1.336-.272-.255-.512-.482-.742-.7-.184-.176-.472-.176-.68-.024-.443.322-.894.66-1.377 1.071-.62.528-1.292 1.176-1.895 2.107C.985 6.55.45 7.763.203 8.965a8.172 8.172 0 00.025 3.424c.233 1.032.658 1.905 1.143 2.733.484.83 1.028 1.612 1.101 1.571.07-.041-.328-.91-.645-1.762-.316-.851-.55-1.689-.657-2.502a6.55 6.55 0 01.128-2.501c.219-.904.64-1.922 1.11-2.7.47-.778.99-1.313 1.47-1.75.328-.297.67-.58 1.023-.85.189-.147.462-.108.627.067l.05.053L7.507 6.79c.169.177.149.45-.013.634A4.11 4.11 0 007.078 8a.434.434 0 01-.581.164l-1.3-.742a.567.567 0 00-.685.086 5.1 5.1 0 00-.596.748 6.147 6.147 0 00-.834 1.943 7.583 7.583 0 00-.128 2.633c.115.87.399 1.66.73 2.39.332.73.716 1.402.785 1.402.07 0-.176-.671-.375-1.359-.198-.686-.35-1.387-.398-2.064a6.83 6.83 0 01.128-1.884 5.372 5.372 0 01.478-1.358 4.57 4.57 0 01.261-.45.418.418 0 01.284-.18.434.434 0 01.328.078l1.041.77c.228.17.367.427.434.697.011.046.024.09.036.134a.261.261 0 01-.3.325l-.363-.059a.486.486 0 00-.553.335c-.072.261-.133.53-.162.811-.044.431-.01.904.073 1.368a6.6 6.6 0 00.465 1.505c.251.585.623 1.295.695 1.317.071.023-.16-.64-.3-1.201a6.774 6.774 0 01-.212-1.397 4.532 4.532 0 01.083-1.157c.048-.224.294-.345.519-.28l.916.266c.276.08.528.218.767.375.664.44 1.45.676 2.254.675a4.08 4.08 0 002.24-.665.625.625 0 01.684 0 4.085 4.085 0 002.242.664c.804 0 1.55-.23 2.18-.626a2.94 2.94 0 01.76-.359l1.133-.33c.228-.065.472.056.52.28.016.085.032.172.047.263.036.245.054.524.036.894a7.1 7.1 0 01-.212 1.397c-.14.56-.37 1.224-.3 1.2.07-.021.444-.732.694-1.316a6.48 6.48 0 00.465-1.505c.081-.464.117-.937.074-1.368a5.085 5.085 0 00-.16-.81.491.491 0 00-.556-.336l-.508.086c-.2.031-.343-.166-.288-.358.073-.275.214-.537.446-.71l1.198-.885a.429.429 0 01.612.102c.087.131.173.278.261.45.22.43.38.887.479 1.358a6.89 6.89 0 01.128 1.884c-.046.677-.2 1.378-.398 2.064-.2.688-.445 1.36-.377 1.36.07 0 .453-.672.786-1.403.333-.73.616-1.52.731-2.39a7.589 7.589 0 00-.13-2.633 6.101 6.101 0 00-.832-1.943 5.103 5.103 0 00-.597-.748.566.566 0 00-.686-.086l-1.409.803c-.203.116-.46.027-.576-.175a3.844 3.844 0 00-.4-.571.47.47 0 01.014-.623l1.991-2.107.051-.053c.166-.175.437-.214.628-.066.352.27.694.553 1.022.85.48.436 1 .971 1.468 1.75.47.777.892 1.795 1.11 2.699.221.904.237 1.69.13 2.501-.108.813-.341 1.651-.657 2.502-.318.853-.716 1.72-.646 1.762.073.041.617-.741 1.102-1.57.484-.83.911-1.702 1.144-2.734a8.224 8.224 0 00.025-3.424 10.147 10.147 0 00-1.385-3.345z" fill="#36BDF7"/><path fill-rule="evenodd" clip-rule="evenodd" d="M11.39 9.68a.578.578 0 00-.315.093.54.54 0 00-.085.85.572.572 0 00.62.12.565.565 0 00.254-.204.543.543 0 00.095-.307.561.561 0 00-.569-.553zm5.427 0a.58.58 0 00-.401.161.552.552 0 00-.166.391.54.54 0 00.166.391.57.57 0 00.401.162c.15 0 .295-.058.402-.162a.546.546 0 000-.782.575.575 0 00-.402-.162z" fill="#36BDF7"/></svg>