<svg width="90" height="24" viewBox="0 0 90 24" fill="none" xmlns="http://www.w3.org/2000/svg"><path d="M20.703 17.465a.28.28 0 00.379 0 .264.264 0 00.084-.2.248.248 0 00-.084-.196.257.257 0 00-.187-.08.273.273 0 00-.253.17.256.256 0 00-.018.106c0 .08.026.147.079.2zm-.351.442v3.227h2.096v-.386h-1.642V19.63h1.357v-.377h-1.357v-.96h1.525v-.386h-1.98zm1.432-.368a.28.28 0 01-.192-.074.271.271 0 01-.08-.2.272.272 0 01.271-.275c.073 0 .135.026.188.079a.25.25 0 01.084.196.263.263 0 01-.084.2.265.265 0 01-.187.074zm-2.94 3.665a1.669 1.669 0 01-.622-.112 1.323 1.323 0 01-.482-.326 1.498 1.498 0 01-.313-.526 2.232 2.232 0 01-.108-.722c0-.27.04-.509.122-.717.084-.211.196-.388.337-.53.138-.142.306-.254.49-.326.191-.076.395-.114.6-.112a2.086 2.086 0 01.838.167c.05.025.084.044.103.056l-.131.373a.734.734 0 00-.122-.06 2.4 2.4 0 00-.183-.066 1.356 1.356 0 00-.22-.051 1.218 1.218 0 00-.238-.023c-.172 0-.326.029-.464.088a.959.959 0 00-.35.256c-.102.12-.178.26-.225.41-.05.158-.075.337-.075.535 0 .193.022.368.065.527.047.158.116.294.206.41.09.111.203.198.337.26.138.062.297.093.478.093.209 0 .382-.021.52-.065a2.3 2.3 0 00.308-.116l.117.372a.762.762 0 01-.117.06c-.069.026-.14.048-.21.066-.216.054-.438.08-.66.08z" fill="#000"/><path fill-rule="evenodd" clip-rule="evenodd" d="M15.102 21.158c.079.003.15.004.216.004.518 0 .895-.08 1.132-.242.24-.165.36-.408.36-.731 0-.22-.056-.391-.168-.512a.98.98 0 00-.453-.266.765.765 0 00.336-.251.72.72 0 00.126-.438.734.734 0 00-.102-.4.747.747 0 00-.286-.261 1.273 1.273 0 00-.426-.145 3.098 3.098 0 00-.524-.041 6.038 6.038 0 00-.665.041 1.75 1.75 0 00-.205.038v3.13c.062.015.13.027.205.036.151.02.303.031.454.038zm-.21-.392V19.63h.585c.13 0 .25.01.355.028.107.019.197.05.272.093a.439.439 0 01.178.177.53.53 0 01.06.266.487.487 0 01-.084.293.536.536 0 01-.215.182 1.13 1.13 0 01-.318.093 2.947 2.947 0 01-.38.023h-.191a7.912 7.912 0 01-.262-.019zm.477-1.499h-.477v-.997a2.82 2.82 0 01.178-.014c.065-.003.156-.004.271-.004.115 0 .225.01.328.028a.895.895 0 01.266.088.443.443 0 01.183.154c.044.062.065.14.065.233a.433.433 0 01-.238.405.768.768 0 01-.258.084 2.081 2.081 0 01-.318.023zm8.843 1.867v.862h-.43v-1.248h.34a1.97 1.97 0 00.366-.596c.088-.224.15-.457.187-.694.04-.245.064-.498.07-.76.01-.26.016-.524.019-.79h1.835v2.84h.406v1.248h-.43v-.862h-2.363zm.997-2.84c-.01.205-.02.414-.033.628-.01.213-.033.424-.07.634a3.882 3.882 0 01-.155.614 2.395 2.395 0 01-.29.578h1.483v-2.454h-.935z" fill="#000"/><path d="M28.705 18.294l-.019.507a10.2 10.2 0 01-.028.475c-.012.152-.03.301-.056.447-.025.145-.06.288-.103.429a2.33 2.33 0 01-.164.396 1.208 1.208 0 01-.238.32 1.11 1.11 0 01-.337.22 1.237 1.237 0 01-.454.093l-.052-.391c.219-.025.387-.093.506-.205.121-.112.221-.283.3-.512.087-.261.141-.575.163-.941.025-.37.037-.778.037-1.225h1.84v3.227h-.454v-2.84h-.941z" fill="#000"/><path fill-rule="evenodd" clip-rule="evenodd" d="M32.201 17.875a5.057 5.057 0 01.665.041c.075.01.143.022.206.038v3.18h-.454v-1.262h-.53a4.576 4.576 0 01-.19-.018 7.015 7.015 0 00-.38.578c-.067.114-.133.23-.197.348-.062.121-.12.24-.173.354h-.477c.05-.12.109-.247.178-.377a6.68 6.68 0 01.421-.698 4.35 4.35 0 01.178-.252 1.284 1.284 0 01-.225-.093.776.776 0 01-.215-.168.892.892 0 01-.164-.265 1.103 1.103 0 01-.061-.387.96.96 0 01.098-.442.856.856 0 01.281-.317c.137-.092.289-.158.45-.195.193-.046.39-.068.59-.065zm-.037.395c-.119 0-.233.01-.342.028a.91.91 0 00-.285.098.539.539 0 00-.202.191.568.568 0 00-.074.303c0 .23.073.39.22.48.15.086.372.13.669.13h.468v-1.216a1.9 1.9 0 01-.122-.004 1.899 1.899 0 00-.145-.005 3.337 3.337 0 00-.187-.005zm2.898 2.864v.862h-.431v-1.248h.342a1.99 1.99 0 00.365-.596c.088-.224.15-.457.187-.694.04-.245.064-.498.07-.76.01-.26.016-.524.019-.79h1.834v2.84h.407v1.248h-.43v-.862h-2.363zm.996-2.84c-.01.21-.02.419-.032.628a4.794 4.794 0 01-.225 1.248 2.382 2.382 0 01-.29.578h1.483v-2.454h-.936zm2.07 1.224c0-.276.04-.52.12-.73a1.53 1.53 0 01.338-.527c.14-.14.31-.25.496-.321a1.708 1.708 0 011.193 0c.188.072.351.178.492.321.14.14.251.315.332.526.084.212.126.455.126.731 0 .277-.042.52-.126.732a1.524 1.524 0 01-.332.53 1.39 1.39 0 01-.492.317 1.713 1.713 0 01-1.193 0 1.445 1.445 0 01-.496-.317 1.583 1.583 0 01-.337-.53 2.035 2.035 0 01-.122-.732zm.477 0c0 .196.025.374.075.536.05.158.12.293.21.405a.983.983 0 00.337.26c.134.06.284.09.45.09.165 0 .313-.03.444-.09a.937.937 0 00.332-.26c.094-.112.166-.247.215-.405.05-.161.075-.34.075-.536 0-.195-.025-.372-.075-.53a1.161 1.161 0 00-.215-.41.891.891 0 00-.332-.256 1.026 1.026 0 00-.445-.093 1.06 1.06 0 00-.449.093.935.935 0 00-.337.256 1.216 1.216 0 00-.21.41 1.767 1.767 0 00-.075.53z" fill="#000"/><path d="M43.357 20.687a9.476 9.476 0 00-.127-.284l-.164-.372a12.306 12.306 0 00-.191-.41 33.08 33.08 0 00-.188-.4 7.299 7.299 0 00-.168-.34c-.05-.1-.09-.176-.122-.229-.036.397-.065.794-.084 1.192-.022.43-.04.86-.056 1.29h-.445c.025-.56.056-1.12.094-1.68a30.018 30.018 0 01.145-1.546h.398c.084.136.174.297.271.483a22.61 22.61 0 01.571 1.197l.248.554.248-.554c.09-.205.184-.408.281-.61.096-.205.193-.4.29-.587a7.6 7.6 0 01.272-.484h.397a60.45 60.45 0 01.239 3.227h-.445c-.015-.43-.034-.86-.056-1.29-.02-.398-.048-.795-.084-1.192a6.131 6.131 0 00-.29.568l-.192.4c-.066.14-.128.277-.187.41a19.24 19.24 0 00-.29.657h-.365z" fill="#000"/><path fill-rule="evenodd" clip-rule="evenodd" d="M48.145 21.134a16.043 16.043 0 01-.15-.41 41.37 41.37 0 00-.145-.414h-1.47l-.295.824h-.472a83.342 83.342 0 01.669-1.774 29.122 29.122 0 01.636-1.453h.417c.227.477.438.962.632 1.453.106.26.213.537.323.829.109.289.226.604.35.945h-.495zm-.426-1.196a37.156 37.156 0 00-.3-.783 11.94 11.94 0 00-.304-.73c-.11.232-.214.476-.314.73a34.39 34.39 0 00-.29.783h1.208z" fill="#000"/><path d="M50.164 21.134v-3.227h.445v2.39c.1-.166.221-.353.365-.564.305-.438.625-.865.96-1.28.168-.209.325-.39.472-.546h.36v3.227h-.444v-2.519c-.088.1-.183.214-.286.345-.103.13-.209.27-.318.419-.11.145-.22.298-.332.456a29.947 29.947 0 00-.609.913l-.234.386h-.379z" fill="#000"/><path fill-rule="evenodd" clip-rule="evenodd" d="M55.513 17.875c.456 0 .805.087 1.049.26.246.171.37.427.37.769 0 .186-.035.346-.104.48a.821.821 0 01-.29.32 1.34 1.34 0 01-.458.178 3.06 3.06 0 01-.613.056h-.36v1.196h-.455v-3.18a2.41 2.41 0 01.426-.06c.16-.013.304-.02.435-.02zm.038.395c-.194 0-.342.005-.445.014v1.267h.342c.156 0 .296-.01.421-.028a.999.999 0 00.314-.102.521.521 0 00.2-.2.654.654 0 00.071-.322.577.577 0 00-.075-.307.504.504 0 00-.196-.191.801.801 0 00-.286-.103 2.06 2.06 0 00-.346-.028z" fill="#000"/><path d="M57.5 21.134v-3.227h1.98v.387h-1.526v.959h1.357v.377h-1.358v1.118h1.643v.386H57.5zm4.128-.447a7.996 7.996 0 00-.126-.284 41.66 41.66 0 00-.164-.372 11.054 11.054 0 00-.192-.41 29.146 29.146 0 00-.187-.4 6.649 6.649 0 00-.168-.34 3.865 3.865 0 00-.122-.229c-.036.397-.064.794-.084 1.192-.022.43-.04.86-.056 1.29h-.445a86.731 86.731 0 01.094-1.68l.065-.806c.025-.261.052-.508.08-.74h.398a7.3 7.3 0 01.27.483 20.897 20.897 0 01.571 1.197c.092.202.174.387.249.554l.248-.554a22.61 22.61 0 01.57-1.197 8.67 8.67 0 01.272-.484h.398a60.07 60.07 0 01.239 3.227h-.445c-.015-.43-.034-.86-.056-1.29-.02-.398-.047-.795-.084-1.192-.031.053-.073.13-.127.229a78.161 78.161 0 01-.356.74c-.065.14-.127.276-.186.41-.06.133-.116.258-.169.372l-.122.284h-.365z" fill="#000"/><path fill-rule="evenodd" clip-rule="evenodd" d="M64.119 19.518c0-.276.04-.52.122-.73.084-.212.196-.387.337-.527.14-.14.31-.25.496-.321a1.703 1.703 0 011.193 0c.187.072.351.178.491.321.14.14.251.315.333.526.084.212.126.455.126.731 0 .277-.042.52-.126.732a1.53 1.53 0 01-.333.53 1.39 1.39 0 01-.491.317 1.709 1.709 0 01-1.193 0 1.442 1.442 0 01-.496-.317 1.583 1.583 0 01-.337-.53 2.026 2.026 0 01-.122-.732zm.477 0c0 .196.025.374.075.536.05.158.12.293.21.405a.983.983 0 00.338.26c.142.061.295.092.449.09a.94.94 0 00.777-.35c.098-.12.17-.257.215-.405.052-.174.077-.354.075-.536 0-.195-.025-.372-.075-.53a1.166 1.166 0 00-.215-.41.895.895 0 00-.332-.256 1.026 1.026 0 00-.445-.093c-.166 0-.315.03-.45.093a.935.935 0 00-.336.256 1.204 1.204 0 00-.21.41 1.757 1.757 0 00-.076.53z" fill="#000"/><path d="M69.933 17.907h.454v3.227h-.454v-1.49h-1.587v1.49h-.454v-3.227h.454v1.346h1.587v-1.346zm3.426 0v.391h-1.02v2.836h-.454v-2.836h-1.02v-.39h2.494z" fill="#000"/><path fill-rule="evenodd" clip-rule="evenodd" d="M75.704 21.134a16.043 16.043 0 01-.15-.41 39.027 39.027 0 00-.145-.414h-1.47l-.294.824h-.473a83.342 83.342 0 01.669-1.774 29.122 29.122 0 01.637-1.453h.416c.227.477.438.962.632 1.453.106.26.213.537.323.829.109.289.226.604.35.945h-.495zm-.426-1.196a37.156 37.156 0 00-.3-.783 11.94 11.94 0 00-.304-.73c-.11.232-.214.476-.314.73a33.92 33.92 0 00-.29.783h1.208z" fill="#000"/><path d="M29.115 10.474c.025 0 .037-.012.037-.037V8.66c0-.024-.012-.036-.037-.036H27.93v1.851h1.186zm14.942-3.568l-.502 2.715h1.077l-.501-2.715-.037-.305-.037.305zm22.616.365V5.395c0-.024-.012-.036-.037-.036H65.45v1.948h1.187c.025 0 .037-.012.037-.036zm5.702-1.876v5.043c0 .024-.013.036-.037.036h-1.15c-.025 0-.037-.012-.037-.037V5.396c0-.024.012-.036.037-.036h1.15c.025 0 .037.012.037.036zm4.633 1.645h1.187c.025 0 .037-.013.037-.037V5.395c0-.024-.012-.036-.037-.036h-1.187v1.68zm0 3.434h1.187c.025 0 .037-.012.037-.037V8.66c0-.024-.012-.036-.037-.036h-1.187v1.851z" fill="#000"/><path fill-rule="evenodd" clip-rule="evenodd" d="M0 1.791C0 1.316.19.861.527.525A1.805 1.805 0 011.8 0h86.4c.477 0 .935.189 1.273.525.337.335.527.791.527 1.266v20.418c0 .475-.19.93-.527 1.266A1.805 1.805 0 0188.2 24H1.8c-.477 0-.935-.189-1.273-.525A1.786 1.786 0 010 22.21V1.791zm.72 13.97h88.56v6.448c0 .285-.114.558-.316.76a1.083 1.083 0 01-.764.315H1.8c-.286 0-.561-.114-.764-.315a1.072 1.072 0 01-.316-.76v-6.448zm51.784-4.848V9.438h-1.836v.998c0 .025-.012.037-.037.037h-1.15c-.025 0-.037-.012-.037-.037v-5.04c0-.024.012-.036.037-.036h1.15c.025 0 .037.012.037.036v.999h1.836V4.92c0-.767-.526-1.29-1.298-1.29h-2.3c-.772 0-1.298.523-1.298 1.29v5.992c0 .768.526 1.291 1.297 1.291h2.301c.771 0 1.298-.523 1.298-1.29zM9.477 12.178V3.654h1.836v3.325h.368l1.248-3.325h1.91l-1.665 4.068 1.8 4.428 1.83-8.496h2.154l1.836 8.525h-1.91l-.967-5.273-.037-.305-.036.305-.967 5.273h-3.899l-1.297-3.495h-.368v3.495H9.477zm14.218-8.525l-.722 3.556-.024.183-.025-.17-.942-3.57h-1.959l2.032 5.895-.796 2.631h1.836l2.436-8.525h-1.836zm5.996 3.386c.783 0 1.298.523 1.298 1.29v2.558c0 .767-.527 1.291-1.298 1.291h-3.598V3.654h4.773v1.705H27.93v1.68h1.762zm10.894 5.14V3.653h-2.118L37.414 7.88l-1.052-4.226h-2.118v8.525h1.775V7.977l.037.22 1.004 3.982h.697l1.016-3.982.037-.22v4.202h1.775zm6.422 0h-1.91l-.183-.975h-1.64l-.184.974h-1.91l1.837-8.525h2.154l1.836 8.525zm11.036-8.526v1.705h-1.53v6.82h-1.836V5.36h-1.53V3.654h4.896zm4.93 8.525v-1.705h-2.449v-1.85h1.836V7.04h-1.836V5.359h2.448V3.654h-4.284v8.525h4.284zm5.536-7.234v2.777c0 .767-.514 1.29-1.297 1.29h-1.763v3.167h-1.836V3.654h3.599c.77 0 1.297.523 1.297 1.29zm5.702 5.967V4.92c0-.767-.527-1.29-1.298-1.29h-2.3c-.772 0-1.298.523-1.298 1.29v5.992c0 .768.526 1.291 1.297 1.291h2.301c.771 0 1.298-.523 1.298-1.29zm5.857-2.082v2.058c0 .767-.526 1.291-1.297 1.291h-3.599V3.654h3.599c.77 0 1.297.523 1.297 1.29V6.82c0 .5-.233.89-.612.987v.024c.38.098.612.5.612.999z" fill="#000"/></svg>