<svg width="110" height="10" viewBox="0 0 110 10" fill="none" xmlns="http://www.w3.org/2000/svg"><path fill-rule="evenodd" clip-rule="evenodd" d="M.109 9.822h6.57v-1.48H1.65v-2.53h4.4v-1.48h-4.4V1.885h4.965V.404H.109v9.418z" fill="#2D2D2D"/><path d="M10.447 9.97c1.172 0 1.921-.592 2.453-1.332v1.184h1.649V0h-1.65v3.821c-.517-.659-1.267-1.251-2.452-1.251-1.717 0-3.34 1.332-3.34 3.687 0 2.381 1.65 3.713 3.34 3.713zm.395-1.413c-1.117 0-2.071-.901-2.071-2.274 0-1.439.94-2.3 2.071-2.3 1.104 0 2.085.901 2.085 2.274 0 1.386-.981 2.3-2.085 2.3z" fill="#2D2D2D"/><path fill-rule="evenodd" clip-rule="evenodd" d="M17.86 9.97c1.117 0 1.786-.578 2.249-1.251v1.103h1.649V2.718h-1.65v4.01c0 1.103-.667 1.762-1.621 1.762-.981 0-1.54-.632-1.54-1.735V2.718h-1.649v4.52c0 1.656.94 2.732 2.562 2.732zm7.345-.013c1.5 0 2.672-.74 2.672-2.234 0-1.305-1.186-1.776-2.235-2.099l-.137-.04c-.79-.256-1.485-.471-1.485-.955 0-.444.368-.74 1.008-.74.6 0 1.336.255 2.03.672l.655-1.157c-.763-.498-1.744-.807-2.644-.807-1.43 0-2.562.82-2.562 2.166 0 1.386 1.186 1.817 2.249 2.126l.123.04c.79.23 1.485.418 1.485.942 0 .498-.409.794-1.118.794-.736 0-1.58-.296-2.357-.874l-.736 1.103c.9.7 2.03 1.063 3.052 1.063z" fill="#2D2D2D"/><path d="M31.951 9.984c2.221 0 3.857-1.682 3.857-3.7 0-2.059-1.622-3.714-3.83-3.714-2.207 0-3.843 1.682-3.843 3.713 0 2.046 1.622 3.7 3.816 3.7zm.027-1.413c-1.28 0-2.194-1.05-2.194-2.288 0-1.264.845-2.287 2.167-2.287 1.295 0 2.208 1.036 2.208 2.287 0 1.252-.845 2.288-2.18 2.288z" fill="#2D2D2D"/><path fill-rule="evenodd" clip-rule="evenodd" d="M36.462 9.822h1.648v-4.01c0-1.103.668-1.762 1.622-1.762.982 0 1.54.633 1.54 1.736v4.036h1.65v-4.52c0-1.655-.941-2.732-2.563-2.732-1.117 0-1.785.579-2.248 1.251V2.718h-1.65v7.104z" fill="#2D2D2D"/><path d="M46.92 9.845l3.891-8.569h.597l3.892 8.57h-.68l-1.063-2.383h-4.93l-1.063 2.382h-.645zm1.97-2.953h4.404l-2.196-4.923-2.209 4.923zM60.851 9.99c-2.388 0-4.155-1.933-4.155-4.4 0-2.407 1.767-4.4 4.178-4.4 1.493 0 2.352.596 3.212 1.398l-.406.425c-.728-.717-1.564-1.252-2.817-1.252-2.006 0-3.522 1.666-3.522 3.829 0 2.151 1.54 3.829 3.534 3.829 1.205 0 2.03-.474 2.877-1.325l.418.413c-.884.887-1.839 1.483-3.32 1.483zm4.31-.146l3.891-8.569h.597l3.892 8.57h-.68l-1.063-2.383h-4.93l-1.063 2.382h-.644zm1.97-2.953h4.405L69.34 1.969l-2.209 4.923zm8.177 2.953V1.337h2.782c2.627 0 4.441 1.835 4.441 4.254 0 2.395-1.814 4.254-4.44 4.254h-2.783zm.621-.583h2.161c2.328 0 3.797-1.617 3.797-3.671 0-2.018-1.469-3.67-3.797-3.67h-2.16v7.34zm8.715.583V1.337h5.946v.583h-5.325v3.343h4.787v.583h-4.787v3.416h5.384v.583h-6.005zm8 0V1.337h.584l3.355 5.032 3.355-5.032h.585v8.508h-.621v-7.39l-3.307 4.898h-.048L93.24 2.455v7.39h-.597zm13.084 0V6.478l-3.582-5.141h.776l3.128 4.57 3.14-4.57h.74l-3.581 5.13v3.378h-.621z" fill="#2D2D2D"/></svg>