<svg width="118" height="22" viewBox="0 0 118 22" fill="none" xmlns="http://www.w3.org/2000/svg"><path d="M114.057 9.965h-1.395V6.393h1.395c1.132 0 1.85.65 1.85 1.804 0 1.14-.718 1.768-1.85 1.768zm-3.457 0h-1.401c-1.131 0-1.844-.629-1.844-1.768 0-1.154.713-1.804 1.844-1.804h1.401v3.572zm3.514-5.502h-1.452V3.52c0-.162-.093-.255-.253-.255h-1.561c-.16 0-.248.093-.248.255v.944h-1.452c-2.01 0-3.892 1.498-3.892 3.734 0 2.2 1.882 3.698 3.892 3.698h1.452v.948c0 .161.088.25.248.25h1.561c.16 0 .253-.089.253-.25v-.948h1.452c2.006 0 3.887-1.498 3.887-3.698 0-2.236-1.881-3.734-3.887-3.734zm-14.093 4.032h-2.605V5.25h2.605c1.091 0 1.721.666 1.721 1.607 0 .957-.63 1.638-1.721 1.638zm0-5.231h-4.429c-.165 0-.253.093-.253.255v9.33c0 .16.088.249.253.249h1.576c.16 0 .248-.089.248-.25v-2.366h2.605c2.165 0 3.799-1.534 3.799-3.625 0-2.023-1.634-3.593-3.799-3.593zm-7.979 7.166c-.806 0-1.4.614-1.4 1.404 0 .796.594 1.41 1.4 1.41.806 0 1.395-.614 1.395-1.41 0-.79-.589-1.404-1.395-1.404zm-79.45-.09c.532.52 1.276.821 2.145.821a3.14 3.14 0 001.597-.416 2.856 2.856 0 001.25-1.566s.016-.124.145-.124c.13 0 .145.124.145.124a2.85 2.85 0 001.256 1.56c.46.271 1.002.422 1.612.422.858 0 1.597-.302 2.13-.817-1.24-1.175-3.08-1.919-5.143-1.919-2.057 0-3.902.744-5.137 1.914zm5.137 6.422a6.19 6.19 0 01-1.747 1.66c0 .025.005.051.005.082 0 .635.776 1.176 1.696 1.176.914 0 1.69-.541 1.69-1.176 0-.052.005-.098.015-.15a6.055 6.055 0 01-1.659-1.592z" fill="#F7A600"/><path d="M92.703 3.232h-7.018a.242.242 0 00-.248.25v9.314c0 .161.088.255.248.255h1.576c.16 0 .248-.094.248-.255V5.214h5.194c.16 0 .248-.094.248-.255V3.482a.252.252 0 00-.248-.25zM10.477 14.614c0 .281.228.51.507.51a.509.509 0 000-1.02.509.509 0 00-.507.51zm2.445.687a.59.59 0 00.584.593.59.59 0 000-1.181.589.589 0 00-.584.588zM9.335 3.396a.908.908 0 001.277-.14c.237-.297.64-.718 1.22-1.046a.917.917 0 00.346-1.243.9.9 0 00-1.236-.347 6.13 6.13 0 00-1.741 1.493.92.92 0 00.134 1.284zM24.52.62a.898.898 0 00-1.236.348.915.915 0 00.342 1.243c.583.328.987.75 1.224 1.046a.911.911 0 001.277.14.92.92 0 00.134-1.284A6.13 6.13 0 0024.52.619zm-5.148 17.885c0 .635-.775 1.176-1.69 1.176-.92 0-1.695-.541-1.695-1.176 0-.03-.005-.057-.005-.083a6.19 6.19 0 001.746-1.659 6.058 6.058 0 001.66 1.592.747.747 0 00-.016.15zm5.556-1.56a4.343 4.343 0 01-2.181.588 4.303 4.303 0 01-4.093-2.902c-.181-.53-.466-.806-.926-.806-.454 0-.744.275-.925.806a4.297 4.297 0 01-4.088 2.902c-.77 0-1.524-.203-2.18-.588a.901.901 0 00-1.241.328.92.92 0 00.33 1.248c.936.546 2 .832 3.091.832.532 0 1.05-.067 1.545-.198.352 1.342 1.799 2.346 3.468 2.346 1.67 0 3.122-1.004 3.474-2.346a6.136 6.136 0 004.636-.634.913.913 0 00.325-1.248.895.895 0 00-1.235-.328zM14.736 4.962c.61 0 1.153.15 1.607.421.584.343 1.013.89 1.24 1.56 0 0 .037.125.145.125.114 0 .15-.125.15-.125a2.85 2.85 0 011.24-1.56 3.167 3.167 0 011.623-.421c1.779 0 3.034 1.284 3.034 3.11 0 1.789-1.255 3.089-3.034 3.089-.61 0-1.152-.15-1.612-.421a2.857 2.857 0 01-1.256-1.56s-.015-.125-.145-.125c-.129 0-.144.124-.144.124a2.856 2.856 0 01-1.251 1.566 3.134 3.134 0 01-1.597.416c-1.793 0-3.055-1.3-3.055-3.09 0-1.825 1.262-3.11 3.055-3.11zm-5.158 3.11c0 2.907 2.32 5.06 5.158 5.06 1.116 0 2.15-.338 2.997-.92a5.3 5.3 0 003.008.92c2.822 0 5.138-2.153 5.138-5.06 0-2.892-2.316-5.082-5.138-5.082a5.23 5.23 0 00-3.008.937 5.208 5.208 0 00-2.997-.937c-2.837 0-5.158 2.19-5.158 5.082zm5.758.25c.764 0 1.385-.505 1.385-1.13 0-.618-.62-1.123-1.386-1.123-.764 0-1.385.505-1.385 1.124 0 .624.62 1.128 1.386 1.128zm6.03 6.979a.59.59 0 00.59.593.59.59 0 000-1.181.59.59 0 00-.59.588zm0-6.98c.766 0 1.386-.504 1.386-1.128 0-.62-.62-1.124-1.385-1.124s-1.39.505-1.39 1.124c0 .624.625 1.128 1.39 1.128zm2.606 6.293c0 .281.227.51.506.51a.509.509 0 000-1.02.509.509 0 00-.506.51zM46.328 3.235h-7.984c-.166 0-.253.088-.253.25v9.313c0 .162.087.255.253.255h1.576c.16 0 .248-.093.248-.255V5.195h4.33v7.603c0 .162.094.255.254.255h1.576c.16 0 .248-.093.248-.255V3.485c0-.162-.088-.25-.248-.25zm-14.487 7.999c-1.789 0-3.045-1.3-3.045-3.085 0-1.815 1.256-3.094 3.045-3.094 1.773 0 3.029 1.28 3.029 3.094 0 1.784-1.256 3.085-3.03 3.085zm0-8.145c-2.828 0-5.138 2.179-5.138 5.06 0 2.903 2.31 5.046 5.138 5.046 2.811 0 5.122-2.143 5.122-5.046 0-2.881-2.31-5.06-5.122-5.06zM7.495 7.593v-.11c.718-.343 1.018-.936 1.018-1.674 0-1.748-1.804-2.72-3.81-2.72-1.524 0-2.956.395-4.17 1.404-.13.094-.11.218-.037.307l.837 1.066c.094.125.202.125.342.016.77-.578 1.628-.848 2.92-.848 1.287 0 1.86.38 1.86.957 0 .41-.268.702-.857.702H2.982c-.16 0-.248.088-.248.25v1.425c0 .161.088.25.248.25H5.51c.91 0 1.432.364 1.432 1.139 0 .915-.734 1.492-2.383 1.492-1.489 0-2.275-.27-3.241-1.15-.16-.145-.269-.093-.357.032l-.899 1.046c-.088.13-.088.234.036.364 1.292 1.222 2.652 1.654 4.425 1.654 2.486 0 4.476-1.296 4.476-3.387 0-.92-.378-1.835-1.504-2.215zm73.067.86h-2.594v-3.24h2.594c1.096 0 1.722.667 1.722 1.603 0 .956-.626 1.638-1.722 1.638zm0-5.22h-4.418c-.16 0-.253.088-.253.25v9.313c0 .161.093.255.253.255h1.576c.16 0 .248-.094.248-.255v-2.361h2.594c2.166 0 3.799-1.529 3.799-3.62 0-2.017-1.633-3.583-3.799-3.583zm-10.861 8.003c-1.794 0-3.044-1.3-3.044-3.084 0-1.82 1.25-3.095 3.044-3.095 1.773 0 3.024 1.274 3.024 3.095 0 1.784-1.25 3.084-3.024 3.084zm0-8.145c-2.832 0-5.143 2.18-5.143 5.061 0 2.902 2.31 5.045 5.143 5.045 2.806 0 5.117-2.143 5.117-5.045 0-2.882-2.31-5.06-5.117-5.06zm-5.576.144h-7.281c-.16 0-.248.088-.248.25V4.96c0 .162.088.255.248.255h2.093v7.582c0 .162.088.255.248.255h1.576c.16 0 .248-.093.248-.255V5.216h3.116c.16 0 .254-.093.254-.255V3.485c0-.162-.093-.25-.254-.25zm-8.7-.003h-7.524c-.16 0-.254.089-.254.25v1.477c0 .161.093.255.254.255h3.11v7.582c0 .161.094.255.254.255h1.576c.16 0 .248-.094.248-.255V5.214h2.336c.16 0 .248-.094.248-.255V3.482c0-.161-.087-.25-.248-.25z" fill="#74A220"/></svg>