<svg width="121" height="8" viewBox="0 0 121 8" fill="none" xmlns="http://www.w3.org/2000/svg"><path d="M4.41 3.116L1.92.186H.7v7.558h.869V3.465L1.545 1.14h.094l2.559 3.093h.305L7.156 1.14h.117L7.25 3.442v4.302h.868V.186H6.921c-.024 0-2.512 2.93-2.512 2.93zM14.808.256l-3.31 7.558h.892l1.502-3.581h2.77l1.526 3.581h.916L15.818.256h-1.01zm.399.884h.164l.986 2.348h-2.136l.986-2.348zm12.911 1.209c0-1.302-1.103-2.093-2.605-2.093h-2.982v7.558h.892V4.233h2.043l2.136 3.581h1.08l-2.3-3.721c1.126-.302 1.736-.907 1.736-1.744zm-2.77 1.14H23.4V1h1.948c1.197 0 1.902.349 1.902 1.256s-.799 1.232-1.902 1.232zM32.134.255h.892v7.558h-.892V.256zm8.545-.163c-2.3 0-4.085 1.581-4.085 3.93 0 2.35 1.76 3.93 4.085 3.93 2.324 0 4.084-1.58 4.084-3.93 0-2.349-1.76-3.93-4.084-3.93zm0 7.116c-1.714 0-3.193-1.186-3.193-3.186S38.965.837 40.679.837c1.713 0 3.192 1.21 3.192 3.186 0 1.977-1.479 3.186-3.192 3.186zM58.497 3.72v-.047c.516-.325.798-1.186.798-1.767C59.295.581 58.168 0 56.806 0h-2.652v7.79h3.028c1.62 0 2.606-.906 2.606-2.209a1.907 1.907 0 00-1.291-1.86zM55.022.698H56.9c.963 0 1.526.442 1.526 1.232 0 .744-.446 1.489-1.385 1.489h-2.019V.698zm2.043 6.349h-2.066V4.186h2.16c1.15 0 1.737.419 1.737 1.419s-.728 1.442-1.831 1.442zm7.277-2.814h3.521v-.745h-3.521V1h3.897V.256h-4.79v7.558h4.954v-.767h-4.061V4.233zm13.31-1.884c0-1.302-1.08-2.093-2.582-2.093h-3.005v7.558h.892V4.233H75l2.136 3.581h1.056l-2.324-3.721c1.174-.302 1.785-.907 1.785-1.744zm-2.77 1.14h-1.948V1h1.948c1.198 0 1.878.349 1.878 1.233 0 .883-.774 1.255-1.878 1.255zM82.535.255h-.892v7.558h4.578v-.767h-3.686V.256zM94.79 4.512c0 1.837-.892 2.697-2.301 2.697-1.409 0-2.3-.883-2.3-2.697V.256h-.893v4.186c0 2.418 1.221 3.511 3.17 3.511 1.948 0 3.169-1.093 3.169-3.511V.256h-.892v4.256h.047zm8.498 2.65c-1.831 0-3.193-1.115-3.193-3.139 0-1.837 1.315-3.163 3.216-3.163.798 0 1.597.256 2.254.721l.352-.697a4.252 4.252 0 00-2.629-.768c-2.23 0-4.108 1.582-4.108 3.93 0 2.698 1.948 3.954 3.967 3.954 1.174 0 1.995-.21 2.77-.698l-.258-.767a3.997 3.997 0 01-2.371.628zm9.766 0c-1.832 0-3.193-1.115-3.193-3.139 0-1.837 1.315-3.163 3.216-3.163.798 0 1.596.256 2.254.721l.352-.697a4.252 4.252 0 00-2.629-.768c-2.231 0-4.109 1.582-4.109 3.93 0 2.698 1.949 3.954 3.968 3.954 1.173 0 1.995-.21 2.77-.698l-.258-.767a3.997 3.997 0 01-2.371.628zM119.11.257h.892v7.558h-.892V.256z" fill="#5C5C5C"/></svg>