<svg width="109" height="20" viewBox="0 0 109 20" fill="none" xmlns="http://www.w3.org/2000/svg"><path d="M.482 3.986S-.264 7.33 1.718 8.337c1.983 1.008 5.166.372 5.703-.412.538-.784.662-1.324.662-1.324V3.987" fill="#73C167"/><path d="M7.92 3.986S7.176 7.33 9.158 8.337c1.982 1.008 5.166.372 5.703-.412.537-.784.66-1.324.66-1.324V3.987" fill="#6D2968"/><path d="M15.525 3.986s-.746 3.344 1.236 4.351c1.983 1.008 5.166.372 5.703-.412.537-.784.661-1.324.661-1.324V3.987" fill="#F58021"/><path d="M23.566 4.012a.41.41 0 00-.456-.37.414.414 0 00-.367.458l.002.016c.104.814.106 1.491.005 2.012-.102.533-.31.995-.617 1.371l-.021.028c-.465.554-1.127.89-1.919.972a19.79 19.79 0 01-.887.045h-.139c-.155 0-.666-.035-.812-.053-1.327-.162-2.235-1.024-2.492-2.363-.387-2.01.853-5.55.866-5.587a.412.412 0 00-.78-.274c-.054.154-1.327 3.787-.897 6.017.023.12.05.235.083.35-.38 1.059-1.254 1.744-2.42 1.865-.127.013-.757.045-.888.045h-.14c-.155 0-.665-.034-.812-.052-1.326-.163-2.234-1.025-2.492-2.364-.387-2.01.854-5.55.866-5.586a.412.412 0 00-.566-.5.413.413 0 00-.213.226c-.054.153-1.328 3.787-.898 6.016.023.12.052.236.083.35-.38 1.06-1.254 1.745-2.42 1.866a20.02 20.02 0 01-.887.045h-.14c-.155 0-.665-.035-.812-.053C2.07 8.33 1.161 7.468.904 6.13.513 4.12 1.753.579 1.765.543A.412.412 0 001.198.04a.413.413 0 00-.212.229C.932.42-.34 4.054.088 6.283c.325 1.69 1.523 2.821 3.203 3.026.112.015.375.034.6.047v3.334a.413.413 0 10.827.019V9.356c.237-.011.506-.027.6-.037 1.218-.126 2.185-.732 2.766-1.683.57.927 1.51 1.53 2.688 1.674.112.014.375.034.6.047v3.333a.411.411 0 00.413.412.414.414 0 00.413-.412V9.356c.237-.011.507-.027.6-.037 1.218-.126 2.187-.73 2.769-1.68.569.927 1.508 1.526 2.686 1.671.112.014.375.034.6.047v3.333a.412.412 0 10.826 0V9.356c.237-.011.507-.027.6-.037 1.015-.105 1.872-.546 2.477-1.275l.025-.033c.39-.482.652-1.063.78-1.727.118-.607.12-1.37.005-2.272zm81.083 3.637h-3.011v2.403h3.034c1.041 0 1.298-.6 1.298-1.204 0-.599-.326-1.2-1.321-1.2zm.302 5.038h-6.368V.787h9.489v2.61h-6.434V5.2h3.103s1.906.024 2.836.556c.93.532 1.423 1.518 1.423 3.535 0 2.332-2.014 3.397-4.049 3.397zM37.202 7.649h-3.011v2.403h3.032c1.041 0 1.298-.6 1.298-1.204 0-.599-.325-1.2-1.319-1.2zm-3.011-2.45h3.102c.626 0 .903-.485.903-.9 0-.414-.255-.901-.925-.901h-3.08v1.8zm3.311 7.489h-6.367V.786h6.346c1.896 0 3.586 1.175 3.586 3.212 0 1.086-.438 1.846-1.11 2.356.764.416 1.596 1.271 1.596 2.936 0 2.332-2.015 3.398-4.05 3.398zM43.676.787h3.007v7.58L51.29.786h3.193v11.9h-3.007v-7.58l-4.608 7.581h-3.192V.787zm16.231 11.901h-3.051V.786h3.051v4.137h4.701V.786h3.052v11.902h-3.052V7.624h-4.7v5.064zM81.647.787v11.9h-3.056V3.49h-3.47l-.511 5.037c-.302 2.912-1.738 4.205-4.677 4.205v-2.656c1.041-.07 1.598-.51 1.714-1.734l.787-7.555h9.213zm8.439 2.563c-1.692 0-3.054 1.479-3.054 3.42 0 1.897 1.362 3.351 3.054 3.351 1.692 0 3.053-1.502 3.053-3.351 0-1.893-1.364-3.42-3.053-3.42zm6.112 9.339h-2.92v-1.274c-.924.97-2.2 1.525-3.654 1.525-3.102 0-5.673-2.68-5.673-6.191 0-3.538 2.57-6.217 5.673-6.217 1.455 0 2.73.553 3.653 1.526V.785h2.92V12.69zm-61.896 7.157c-.116.04-.234.07-.354.093a3.72 3.72 0 01-.618.06c-.53 0-.987-.156-1.374-.469-.386-.313-.58-.78-.58-1.403 0-.587.188-1.054.561-1.4.374-.347.885-.52 1.533-.52a2.848 2.848 0 01.633.069c.032.01.065.02.1.029.033.008.066.018.099.029l-.033.637a1.768 1.768 0 00-.365-.106 2.203 2.203 0 00-.38-.032c-.383 0-.703.11-.959.332-.255.22-.383.538-.383.952 0 .424.112.731.337.92a1.393 1.393 0 00.951.343 1.815 1.815 0 00.703-.133.413.413 0 00.08-.032l.049.63zm1.498-3.597l.745 1.581.161.393h.016l.161-.398.714-1.576h.752l-1.503 3.162c-.11.234-.241.39-.392.47-.154.08-.325.121-.499.119-.09 0-.178-.007-.266-.024a2.096 2.096 0 01-.257-.069.34.34 0 01-.046-.018l.086-.563a1.16 1.16 0 00.16.064l.079.01a.703.703 0 00.32-.034c.074-.026.137-.096.187-.21l.107-.249-1.378-2.658h.852zm6.365 0v3.714h-.762v-3.104h-1.487v3.104h-.762v-3.714h3.01zm3.37 0v.658h-1.481v.838H45.4v.61h-1.347v.949h1.48v.658h-2.242v-3.713h2.243zm2.131 0c.408 0 .713.07.915.21.202.14.342.292.421.459.04.085.07.175.086.267.013.075.02.15.021.226v.058a1.175 1.175 0 01-.34.756c-.214.228-.535.342-.964.342h-.489v1.396h-.761v-3.714h1.11zm0 1.735c.21 0 .37-.06.477-.178a.6.6 0 00.161-.416.59.59 0 00-.142-.385c-.095-.115-.26-.172-.496-.172h-.35v1.15h.35zm4.261 1.979l-.912-2.653-.172-.53h-.017l.011.573v2.61h-.762v-3.714h1.288l.752 2.16.166.657h.016l.166-.658.752-2.159h1.288v3.714h-.763v-2.61l.011-.573h-.016l-.172.53-.912 2.653h-.724zm5.775-3.714l1.492 3.714h-.859l-.316-.833h-1.551l-.317.833h-.816l1.498-3.714h.869zm.091 2.265l-.553-1.517h-.01l-.521 1.517h1.084zm3.344-2.265c.408 0 .713.07.915.21.202.14.342.292.422.459.04.085.07.175.086.267.013.075.02.15.02.226v.058a1.176 1.176 0 01-.34.756c-.213.228-.534.342-.963.342h-.489v1.396h-.762v-3.714h1.11zm0 1.735c.21 0 .37-.06.477-.178a.6.6 0 00.02-.801c-.096-.115-.261-.172-.497-.172h-.35v1.15h.35zm3.172-1.735v1.586h.016l1.358-1.586h.907l-1.567 1.683 1.663 2.031h-.966l-1.395-1.846h-.016v1.846h-.762V16.25h.762zm5.41 0v.658h-1.482v.838h1.347v.61h-1.347v.949h1.482v.658h-2.244v-3.713h2.244zm3.654 0v.658H72.29v3.057h-.762v-3.057h-1.084v-.658h2.93zm3.854 0v1.497h1.524v-1.497h.762v3.714h-.762v-1.608h-1.524v1.608h-.762v-3.714h.762zm5.485 0l1.492 3.714h-.859l-.317-.833h-1.55l-.317.833h-.816l1.497-3.714h.87zm.09 2.265l-.552-1.517h-.01l-.521 1.517h1.084zm5.245-2.265v3.714h-.762v-3.104h-1.487v3.104h-.762v-3.714h3.01zm1.889 0v1.91l-.016.902h.016l.268-.541 1.315-2.271h.912v3.714h-.762v-1.916l.017-.896h-.016l-.258.562-1.326 2.25h-.913v-3.714h.763zm6.258 0v.658H95.11v3.057h-.763v-3.057h-1.085v-.658h2.932zm1.595 0v1.586h.016l1.356-1.586h.908l-1.568 1.683 1.664 2.031h-.966l-1.395-1.846h-.015v1.846h-.763V16.25h.763zm6.184.443c.352.323.528.795.528 1.414 0 .619-.176 1.09-.528 1.411-.353.322-.79.483-1.312.483-.523 0-.96-.161-1.312-.483-.352-.322-.528-.792-.528-1.411 0-.62.176-1.09.528-1.414.352-.323.789-.485 1.312-.485s.96.162 1.312.485zm-1.489.059a.865.865 0 00-.194.05c-.168.064-.321.192-.458.385-.138.192-.207.5-.207.92 0 .422.069.729.207.92.137.193.29.32.458.385a.876.876 0 00.194.05c.117.018.236.018.354 0a.868.868 0 00.193-.05c.168-.063.321-.192.459-.384.138-.193.207-.5.207-.92 0-.421-.069-.728-.207-.921-.138-.193-.291-.321-.459-.385a.857.857 0 00-.193-.05 1.18 1.18 0 00-.354 0zm4.245-.502c.063 0 .148.005.25.013.106.01.211.029.313.056.176.052.337.142.473.265.143.128.214.322.214.584 0 .205-.04.367-.12.485a.917.917 0 01-.266.267.749.749 0 01-.118.062l-.107.04v.01a.966.966 0 01.558.28c.154.153.231.355.231.606-.001.06-.005.12-.014.178a.927.927 0 01-.051.194c-.068.17-.206.324-.413.464-.208.14-.54.209-.998.21h-1.186v-3.714h1.234zm-.473 1.507h.371c.164 0 .287-.028.367-.083a.483.483 0 00.169-.177.318.318 0 00.04-.112.546.546 0 000-.177.375.375 0 00-.029-.099.433.433 0 00-.172-.19c-.086-.057-.222-.085-.408-.085h-.338v.923zm0 1.623h.424c.222 0 .389-.049.502-.146a.474.474 0 00.169-.374c0-.149-.037-.258-.11-.329a.625.625 0 00-.244-.148.732.732 0 00-.185-.037 2.343 2.343 0 00-.132-.005h-.424v1.039z" fill="#501A4A"/></svg>