<svg width="81" height="19" viewBox="0 0 81 19" fill="none" xmlns="http://www.w3.org/2000/svg"><path fill-rule="evenodd" clip-rule="evenodd" d="M24.758 2.013h7.674V.5h-7.674v1.513zm7.674 2.652h-7.674V3.152h7.674v1.513zM15.719 15.991a5.784 5.784 0 001.958.326 5.63 5.63 0 001.94-.326 4.5 4.5 0 001.578-.995 4.58 4.58 0 001.045-1.61c.254-.65.38-1.403.38-2.259v-.383c0-.804-.126-1.513-.38-2.125a4.419 4.419 0 00-1.045-1.57 4.284 4.284 0 00-1.578-.977 5.625 5.625 0 00-1.94-.326c-.697 0-1.35.109-1.958.326a4.312 4.312 0 00-1.56.976 4.418 4.418 0 00-1.045 1.57c-.254.613-.38 1.322-.38 2.126v.383c0 .855.127 1.609.38 2.26a4.579 4.579 0 001.046 1.608c.443.435.963.767 1.559.996zm3.004-1.704a3.024 3.024 0 01-2.11 0 2.551 2.551 0 01-.894-.594 3.16 3.16 0 01-.628-1.034c-.152-.421-.228-.932-.228-1.532v-.383c0-.549.076-1.021.228-1.417.165-.396.374-.721.628-.977.266-.255.564-.446.893-.574a3.023 3.023 0 011.065-.192c.368 0 .716.064 1.046.192.342.128.64.32.894.574.266.256.475.581.627.977.165.396.247.868.247 1.417v.383c0 .6-.082 1.11-.247 1.532a2.783 2.783 0 01-.627 1.034 2.342 2.342 0 01-.894.594zM2.358 5.957H0v10.15h2.091v-6.99L4.753 14h1.521l2.662-4.884v6.99h2.092V5.956H8.784l-3.213 5.937-3.213-5.936zm26.34 10.36a5.821 5.821 0 01-1.902-.307 4.644 4.644 0 01-1.578-.957c-.444-.434-.799-.977-1.065-1.628-.266-.65-.399-1.417-.399-2.298v-.383c0-.842.127-1.577.38-2.202.254-.626.596-1.143 1.027-1.551.444-.422.95-.734 1.521-.939a5.373 5.373 0 011.825-.306c1.534 0 2.707.415 3.518 1.245.824.83 1.236 2.017 1.236 3.562v1.072h-7.377c.012.524.095.97.247 1.34a2.7 2.7 0 00.627.882c.266.217.564.376.894.478.342.102.69.153 1.046.153.722 0 1.248-.114 1.578-.344.342-.23.576-.53.703-.9h2.092c-.203 1.008-.704 1.774-1.502 2.298-.786.523-1.743.785-2.871.785zm-.096-8.733c-.355 0-.697.045-1.026.134a2.38 2.38 0 00-.856.44c-.24.192-.437.448-.59.767-.151.306-.234.683-.246 1.13h5.285c-.012-.473-.088-.868-.228-1.188a1.884 1.884 0 00-.532-.766 1.97 1.97 0 00-.818-.402 4.042 4.042 0 00-.989-.115zm10.749 6.722h-1.14V18.5h1.939v-2.394h6.958V18.5h1.94v-4.194h-1.331v-8.35h-7.51V8.83c0 .575-.02 1.15-.057 1.724a19.088 19.088 0 01-.172 1.59c-.076.484-.17.918-.285 1.301-.101.383-.215.67-.342.862zm6.274-6.55v6.55H41.48c.267-.613.457-1.366.57-2.26.115-.906.172-1.85.172-2.834V7.757h3.403zm9.133 8.56a5.822 5.822 0 01-1.9-.306 4.645 4.645 0 01-1.58-.957c-.442-.434-.798-.977-1.064-1.628-.266-.65-.4-1.417-.4-2.298v-.383c0-.842.128-1.577.381-2.202.254-.626.596-1.143 1.027-1.551a4.28 4.28 0 011.521-.939 5.37 5.37 0 011.825-.306c1.534 0 2.706.415 3.518 1.245.824.83 1.236 2.017 1.236 3.562v1.072h-7.378c.013.524.096.97.248 1.34a2.7 2.7 0 00.627.882c.266.217.564.376.894.478.342.102.69.153 1.045.153.723 0 1.249-.114 1.578-.344.343-.23.577-.53.704-.9h2.092c-.203 1.008-.704 1.774-1.503 2.298-.785.523-1.742.785-2.87.785zm-.095-8.732a3.91 3.91 0 00-1.027.134c-.316.09-.601.237-.855.44-.24.192-.438.448-.59.767-.151.306-.234.683-.247 1.13h5.286c-.012-.473-.088-.868-.228-1.188a1.886 1.886 0 00-.533-.766 1.97 1.97 0 00-.817-.402 4.04 4.04 0 00-.989-.115zm5.654 8.714c.126.013.24.019.342.019.52 0 .976-.102 1.369-.307.392-.217.722-.587.988-1.11.267-.524.463-1.226.59-2.107.139-.893.209-2.023.209-3.39V7.758h3.498v8.35h2.092V5.956H61.8V9.02c0 1.034-.033 1.89-.096 2.566-.063.676-.158 1.219-.285 1.627-.114.396-.266.677-.456.843a1.06 1.06 0 01-.685.23 1.56 1.56 0 01-.285-.02v1.992a1.3 1.3 0 00.323.039zm15.74.019a5.79 5.79 0 01-1.959-.326 4.535 4.535 0 01-1.559-.995 4.574 4.574 0 01-1.046-1.61c-.253-.65-.38-1.403-.38-2.259v-.383c0-.804.127-1.513.38-2.125a4.413 4.413 0 011.046-1.57 4.31 4.31 0 011.56-.977 5.785 5.785 0 011.957-.326c.698 0 1.344.109 1.94.326a4.28 4.28 0 011.578.976c.444.421.792.945 1.045 1.57.254.613.381 1.322.381 2.126v.383c0 .855-.127 1.609-.38 2.26a4.574 4.574 0 01-1.046 1.608c-.444.435-.97.767-1.578.996a5.624 5.624 0 01-1.94.326zm0-1.839c.367 0 .716-.063 1.045-.191.342-.128.64-.326.894-.594.266-.268.475-.612.627-1.034.165-.421.248-.932.248-1.532v-.383c0-.549-.083-1.021-.248-1.417a2.652 2.652 0 00-.627-.977 2.455 2.455 0 00-.894-.574 2.872 2.872 0 00-1.046-.192c-.367 0-.722.064-1.065.192-.33.128-.627.32-.893.574a3.009 3.009 0 00-.628.977c-.152.396-.228.868-.228 1.417v.383c0 .6.076 1.11.228 1.532.165.421.374.766.628 1.034.266.268.564.466.893.594.343.128.698.191 1.065.191z" fill="#FF5029"/></svg>