<svg width="100" height="18" viewBox="0 0 100 18" fill="none" xmlns="http://www.w3.org/2000/svg"><path d="M95.584 17.573h-.959c-.148 0-.37.073-.37-.22 0-.221-.22-.074-.294 0-1.401.44-2.877.367-4.28.146-1.475-.22-2.212-1.25-2.212-2.867-.074-1.324.294-2.574.516-3.897.295-1.912.664-3.824 1.032-5.809.075-.367.222-.588.665-.514.59.073 1.18 0 1.77 0 .222 0 .295.073.222.294-.517 2.647-.96 5.294-1.402 8.014a1.517 1.517 0 000 .809c0 .662.37 1.03 1.033 1.103a9.703 9.703 0 002.066 0c.885-.074 1.476-.662 1.77-1.765.222-.882.296-1.765.517-2.573.295-1.838.664-3.677.959-5.515.074-.294.148-.367.442-.367h1.993c.221 0 .295.073.221.294-.664 3.603-1.254 7.132-1.918 10.735-.074.588-.221 1.103-.296 1.69-.073.368-.22.442-.516.368-.369.074-.664.074-.959.074zm-12.1-12.647c.148-.367 0-.44-.369-.44h-1.844c-.295 0-.443.146-.443.367-.074.514-.221 1.103-.294 1.617-.591 3.603-1.255 7.132-1.919 10.735-.074.294 0 .368.295.368h1.918c.369 0 .443-.147.443-.441l.885-5.074c.148-1.029.37-2.058.59-3.088.222-1.103.886-1.617 2.066-1.617H87.1c.222 0 .37 0 .443-.22.148-.81.295-1.619.37-2.354.073-.22 0-.294-.222-.294-1.475.074-2.951-.22-4.353.809.074-.147.074-.22.148-.368zm-6.566 12.72c.148 0 .222-.073.222-.22.147-1.176.442-2.28.59-3.456h-2.583c-.073.294-.147.515-.221.809-.148.956-.295 1.912-.516 2.867.811.074 1.623 0 2.508 0z" fill="#FF942D"/><path d="M44.602 14.706c-.147.882-.295 1.69-.443 2.573-.073.294-.073.368-.368.368h-5.534c-.295 0-.664-.074-.959-.147-1.476-.368-2.213-1.47-1.992-3.162.221-1.397.443-2.72.664-4.118.148-.808.221-1.544.443-2.279.516-1.985 1.697-3.235 3.762-3.382 1.402-.147 2.804-.147 4.132.147 1.18.22 1.77 1.03 1.844 2.28.074 1.25-.22 2.426-.442 3.676-.074.514-.222.955-.222 1.47-.073.368-.147.441-.516.441h-6.345c-.295 0-.443.074-.517.368 0 .294-.073.515-.147.809 0 .735.221 1.029.96 1.029h5.09c.221-.073.369-.073.59-.073zm-3.615-5.074h1.992c.148 0 .295.074.295-.147.074-.441.221-.809.148-1.25 0-.515-.295-.735-.812-.735h-2.582c-.59 0-1.033.367-1.18.882-.074.294-.148.662-.222.956-.074.22 0 .294.221.294h2.14zM19.96 17.647c-.885 0-2.066.073-3.172-.074-1.697-.22-2.435-.956-2.435-2.647 0-1.47.221-2.867 1.254-4.044.812-.956 1.992-1.25 3.172-1.25h3.1c.294 0 .442-.073.516-.367 0-.148.073-.368.073-.515.074-.736-.295-1.25-1.106-1.25H16.64c-.369 0-.517 0-.443-.441.148-.736.295-1.47.37-2.206 0-.22.147-.294.368-.294 1.697 0 3.394.073 5.165.073.368 0 .664.074.959.147 1.697.441 2.434 1.691 2.14 3.53-.37 2.426-.812 4.852-1.255 7.279-.074.588-.221 1.176-.295 1.764-.074.295-.148.368-.443.368-.959-.073-1.992-.073-3.246-.073zm-.59-2.868h1.77c.222 0 .37-.073.37-.294.073-.515.147-1.03.294-1.544.074-.294 0-.368-.295-.368-1.033 0-2.066.074-3.098 0-1.033-.073-1.476.662-1.476 1.47 0 .516.221.736.664.736h1.77zM52.2 7.426c.148-.882.295-1.764.443-2.573.074-.22.074-.294.369-.294 1.77 0 3.467 0 5.238.073 1.55.074 2.582.809 2.951 1.985.148.589.222 1.25.074 1.839-.516 2.94-1.033 5.882-1.476 8.823-.073.22-.147.368-.442.368h-6.05c-.295 0-.664-.074-.96-.074-1.106-.22-1.77-.882-1.917-1.985-.222-1.544.073-3.015.959-4.265.811-1.25 2.14-1.617 3.467-1.617h3.025c.37 0 .664-.074.59-.515 0-.074.074-.147.074-.294.148-.883-.295-1.397-1.18-1.397-1.77-.074-3.394-.074-5.165-.074zm3.247 7.353h1.697c.368 0 .442-.147.442-.441.074-.441.148-.956.221-1.397.074-.368-.073-.441-.368-.441h-3.025c-.96 0-1.402.514-1.402 1.47 0 .515.221.736.738.736.59.073 1.106.073 1.697.073zm19.403 0h-3.615c-.664 0-.885-.22-.811-.882.074-.81.516-1.324 1.328-1.324h3.098c.37 0 .517.074.37.441-.075.295-.075.662-.148.956h2.582c.074-.147.074-.294.147-.367.296-1.544.517-3.162.812-4.706.074-.588.148-1.177.074-1.765-.222-1.544-1.329-2.426-3.025-2.426-1.77-.074-3.468-.074-5.238-.074-.148 0-.296 0-.37.22l-.44 2.648h5.09c1.034 0 1.403.514 1.255 1.47 0 .074-.074.221-.074.295 0 .294-.147.367-.442.367h-3.1c-1.4 0-2.729.368-3.54 1.691-.812 1.25-1.107 2.72-.96 4.191.148 1.25.96 1.986 2.214 2.133 1.402.147 2.803.073 4.205.073.074 0 .074 0 .148-.073l.442-2.868zm-45.374-1.691c-.147-1.397-.22-2.794-.369-4.191-.073-1.324-.22-2.72-.295-4.044 0-.22 0-.368-.295-.368h-2.36c-.222 0-.222.147-.222.294.074.515.074 1.03.148 1.47.221 2.28.516 4.56.737 6.839.148 1.323.295 2.72.443 4.044 0 .368.148.441.517.441h2.213c.295 0 .443-.073.59-.368 1.476-3.161 2.878-6.323 4.353-9.485l1.55-3.308H33.83c-.295 0-.442.073-.516.367l-1.992 4.412a86.453 86.453 0 00-1.697 3.823c-.074.074-.074.074-.148.074zM6.09 7.426c.22 0 .368-.073.368-.294.148-.809.296-1.544.37-2.353.073-.22 0-.294-.296-.294h-1.77c-.443 0-.517-.147-.443-.515L4.983.441C5.057.074 4.909 0 4.614 0h-1.77c-.37 0-.443.074-.517.441A582.232 582.232 0 00.409 11.544c-.222 1.103-.517 2.28-.37 3.382.148 1.103.739 1.912 1.845 2.28.812.294 1.623.294 2.435.294.221 0 .295-.148.295-.368.074-.515.148-1.03.295-1.618.148-.955.148-.955-.811-1.029-1.107 0-1.476-.515-1.328-1.618.295-1.544.59-3.088.811-4.632.295-.809.295-.809 1.402-.809H6.09zM64.522.074c-.369 0-.442.147-.516.44-.59 3.162-1.107 6.324-1.697 9.56-.221 1.396-.59 2.72-.664 4.117-.074 1.691.664 2.794 2.14 3.235.737.22 1.401.22 2.14.22.22 0 .294-.073.294-.294.148-.808.222-1.544.37-2.352.073-.221 0-.368-.296-.368h-.885c-.886-.073-1.255-.588-1.107-1.397.295-1.838.664-3.75 1.033-5.588.074-.294.147-.294.369-.294h1.844c.222 0 .37-.074.443-.294.148-.736.221-1.544.369-2.28.074-.22 0-.367-.295-.294h-1.845c-.369 0-.369-.147-.295-.367.221-1.324.517-2.647.738-4.044-.738 0-1.476.073-2.14 0zM10.738 5c.147-.441 0-.515-.443-.515a6.554 6.554 0 01-1.697 0c-.369 0-.516.074-.516.441-.738 4.118-1.402 8.235-2.14 12.353-.074.22-.074.368.221.368H8.23c.295 0 .295-.147.37-.294.073-.589.22-1.177.294-1.765.37-2.132.738-4.265 1.18-6.397.222-1.177.886-1.691 2.14-1.691h2.361c.222 0 .37-.074.37-.294.073-.589.22-1.177.294-1.838.148-.81.148-.81-.664-.81-1.328 0-2.582-.146-3.836.81V5zm37.406 12.647c.295 0 .368-.074.368-.368.074-.809.222-1.544.37-2.353.885-4.853 1.696-9.706 2.582-14.558C51.537 0 51.39 0 51.094 0h-1.918c-.295 0-.369.074-.442.368l-.222 1.323c-.885 5-1.77 10.073-2.656 15.073-.147.736-.147.736.59.736h.59c.444.147.812.147 1.108.147z" fill="#007AFF"/></svg>