<svg width="120" height="19" viewBox="0 0 120 19" fill="none" xmlns="http://www.w3.org/2000/svg"><g clip-path="url(#clip0)" fill="#7AC143"><path d="M34.45 15.311h-2.399V9.68h-4.984v5.632H24.67V3.613h2.397v4.496h4.985V3.613h2.399V15.31zM45.17 5.185h-3.998v3.208h3.913v1.571h-3.913v3.777h4.73v1.57h-7.129V3.613h6.396v1.572zm4.323-1.572h4.135c2.279 0 3.81 1.07 3.81 3.058 0 1.74-.885 2.742-2.007 3.393l2.96 5.247h-2.758l-2.312-4.678h-1.429v4.68h-2.399v-11.7zm2.4 5.449h.969c1.65 0 2.178-1.254 2.178-2.107 0-1.32-.953-1.77-1.905-1.77h-1.242v3.877zm9.494 6.249V3.613h4.304c2.007 0 3.42.903 3.42 2.49 0 1.872-1.55 2.64-2.383 2.858v.034c1.48.067 3.13 1.07 3.13 2.857 0 2.023-1.718 3.46-4.525 3.46h-3.946zm2.398-6.82h.749c1.378 0 2.313-.868 2.313-1.954 0-1.036-.783-1.488-1.82-1.488h-1.242v3.443zm0 5.384h1.225c1.328 0 2.33-.686 2.33-1.989 0-1.37-1.036-1.956-2.347-1.956h-1.208v3.945zM78.628 3.613l4.474 11.698h-2.687l-1.107-3.191h-4.22l-1.224 3.191h-2.076l4.849-11.698h1.991zm.324 7.07c-.51-1.537-1.022-2.959-1.582-4.764h-.035c-.493 1.805-1.055 3.226-1.616 4.764h3.233zm7.078-7.07h2.4V13.74h4.728v1.57h-7.127V3.613zm10.33 11.698V3.613h2.398V15.31H96.36zm13.101-10.126h-3.981v3.844h3.913v1.57h-3.913v4.712h-2.398V3.613h6.379v1.572zm9.808 0h-3.998v3.208h3.913v1.571h-3.913v3.777H120v1.57h-7.127V3.613h6.396v1.572zM9.67 18.419c-5.018 0-9.075-3.995-9.075-8.917 0-4.929 4.057-8.92 9.075-8.92 5.01 0 9.069 3.99 9.069 8.92 0 4.922-4.058 8.917-9.069 8.917zM9.67 0C4.33 0 0 4.257 0 9.502 0 14.747 4.33 19 9.67 19c5.334 0 9.664-4.253 9.664-9.498C19.334 4.257 15.004 0 9.67 0z"/><path d="M9.657 17.667C6.14 12.333 6.9 5.017 9.661 1.076c2.632 3.94 3.457 11.256-.004 16.591zm8.298-8.226c-3.298 1.02-6.45 4.183-7.352 8.226 4.637-.593 7.342-4.338 7.352-8.226zm-16.617 0c3.3 1.02 6.411 4.183 7.353 8.226-4.638-.593-7.342-4.338-7.353-8.226z"/></g><defs><clipPath id="clip0"><path fill="#fff" d="M0 0h120v19H0z"/></clipPath></defs></svg>