<svg width="58" height="22" viewBox="0 0 58 22" fill="none" xmlns="http://www.w3.org/2000/svg"><path d="M23.314 18h5.238c2.664 0 4.878-1.062 4.878-3.87 0-1.728-.882-2.574-1.962-3.06.774-.486 1.458-1.566 1.458-2.79 0-2.682-2.322-3.33-4.698-3.33h-4.914V18zm2.286-5.85h2.916c1.746 0 2.556.63 2.556 1.98 0 1.296-.792 2.034-2.43 2.034H25.6V12.15zm0-5.364h2.844c1.296 0 2.16.594 2.16 1.746 0 1.296-.81 1.872-2.16 1.872H25.6V6.786zM35.32 18h5.238c2.664 0 4.878-1.062 4.878-3.87 0-1.728-.882-2.574-1.962-3.06.774-.486 1.458-1.566 1.458-2.79 0-2.682-2.322-3.33-4.698-3.33H35.32V18zm2.286-5.85h2.916c1.746 0 2.556.63 2.556 1.98 0 1.296-.792 2.034-2.43 2.034h-3.042V12.15zm0-5.364h2.844c1.296 0 2.16.594 2.16 1.746 0 1.296-.81 1.872-2.16 1.872h-2.844V6.786zM47.326 18h9.234v-1.926h-6.948V12.24h6.57v-1.89h-6.57V6.858h6.948V4.95h-9.234V18zM8 19A8 8 0 108 3a8 8 0 000 16z" fill="#000"/></svg>