<svg width="111" height="24" viewBox="0 0 111 24" fill="none" xmlns="http://www.w3.org/2000/svg"><path d="M33.305 7.423v.415h-4.657c-.046 1.244.738 2.074 1.983 2.074.415 0 .922-.046 1.06-.46h1.384c-.092 1.29-1.476 1.613-2.49 1.613-2.12 0-3.274-1.337-3.274-3.458 0-1.982.969-3.55 3.09-3.55 1.014 0 1.106.138 1.936.553.184.046.968-.553 1.107-.553 0 .184.276 1.43.276 1.43l-.6.506s.185.415.185 1.43zm-1.383-.738c0-.922-.692-1.475-1.568-1.475-.83 0-1.613.553-1.706 1.475h3.274zm8.622-1.89c.461-.554 1.06-.876 1.798-.876 1.199 0 2.029.83 2.029 2.028v.277h-1.383v-.185c0-.507-.277-1.06-.83-1.06-1.337 0-1.614 1.337-1.614 2.351v1.66c0 1.153.046 1.383.646 1.383l.599.046c.092.092.092.37-.046.415-.738-.046-1.43-.046-1.983-.046-.6 0-1.06 0-1.475.046-.139-.046-.139-.323-.046-.415l.322-.046c.6-.092.6-.23.6-1.383V6.178c0-.646 0-.692-.461-1.014l-.093-.093c-.046-.046-.046-.23 0-.276.37-.139 1.43-.461 1.845-.692.092 0 .138.046.138.092-.046-.046-.046.6-.046.6zm9.037-2.72c0-.784 0-.876-.415-1.107l-.138-.092c-.046-.046-.046-.23 0-.277.138-.046.322-.092.507-.184L50.965 0v4.795h.045c.462-.6 1.291-.876 1.983-.876 2.075 0 2.905 1.798 2.905 3.596S54.79 10.88 52.9 10.88a2.718 2.718 0 01-1.937-.784v.37s-.784-.093-.922-.093c-.092 0-.23.092-.276.184h-.047c-.046 0-.092-.046-.138-.092v-.138c.046-.138 0-8.252 0-8.252zm1.43 5.348c0 1.198.46 2.443 1.798 2.443 1.245 0 1.798-1.245 1.798-2.397 0-1.153-.415-2.536-1.706-2.536-1.384.046-1.89 1.245-1.89 2.49zm16.045-.047c0 1.983-1.199 3.504-3.274 3.504-2.074 0-3.273-1.521-3.273-3.504 0-2.028 1.244-3.457 3.273-3.457 1.107 0 1.153.23 2.029.6.184.045 1.015-.462 1.153-.554 0 .184.415 1.475.415 1.475l-.553.415c.184.6.23.6.23 1.521zm-5.164.047c0 1.244.415 2.49 1.89 2.49 1.43 0 1.89-1.2 1.89-2.49 0-1.245-.507-2.444-1.89-2.444s-1.89 1.153-1.89 2.444zM74.94 4.795c.46-.554 1.06-.876 1.752-.876 1.199 0 2.029.83 2.029 2.028v.277h-1.383v-.185c0-.507-.277-1.06-.83-1.06-1.337 0-1.568 1.337-1.568 2.351v1.66c0 1.153.046 1.383.645 1.383l.6.046c.092.092.092.37-.046.415-.738-.046-1.43-.046-1.983-.046-.6 0-1.06 0-1.475.046-.139-.046-.139-.323-.047-.415l.323-.046c.6-.092.6-.23.6-1.383V6.178c0-.646 0-.692-.462-1.014l-.138-.093c-.045-.046-.045-.23 0-.276.37-.139 1.43-.461 1.845-.692.092 0 .138.046.138.092v.6zm10.973 4.149c0 1.152.047 1.29.6 1.383l.322.046c.093.092.093.369-.045.415h-3.228c-.092-.046-.138-.323-.046-.415l.323-.046c.6-.092.6-.23.6-1.383V5.117h-1.015V3.965c.691-.092 1.014.046 1.429-.83.554-.092.968.092.968.138v5.671h.092zM86.144.83c0 .553-.415.83-.83.83-.507 0-.83-.37-.83-.784 0-.553.415-.876.876-.876.508 0 .784.369.784.83zM97.44 8.852c0 .691.093 1.337.692 1.337a.871.871 0 00.369-.092l.184-.093c.046 0 .093.093.093.185s-.554.691-1.292.691c-.368 0-1.521-.691-1.521-.691-.508.507-1.245.784-1.936.784-1.292 0-2.444-.692-2.444-2.075 0-1.752 1.66-2.26 3.135-2.26h1.245v-.23c0-.783-.092-1.337-1.245-1.337-.691 0-1.43.093-1.43.784h-1.383C92 4.38 93.43 4.057 94.674 4.057c1.936 0 2.72.692 2.72 2.674l.047 2.12zm-2.812-1.245c-.738 0-1.568.277-1.568 1.153 0 .691.507 1.106 1.153 1.106 1.245 0 1.798-.922 1.798-2.028v-.231h-1.383zm10.881 1.66c0 .968 0 1.106.507 1.152l.323.046c.092.092.046.277-.046.323-.277 0-.507-.046-.784-.046h-1.475c-.277 0-.508.046-.784.046-.093-.046-.138-.277-.046-.323l.322-.046c.508-.046.508-.184.508-1.152V6.086c0-.646 0-.738-.461-1.015l-.139-.092c-.046-.046-.046-.23.046-.277.369-.138 1.476-.553 1.799-.783.045 0 .138.046.184.138v.738c.415-.554 1.291-.876 2.029-.876 1.614 0 2.582 1.06 2.582 2.628v2.72c0 .968.046 1.106.553 1.152l.323.046c.092.092.046.277-.046.323-.231 0-.508-.046-.784-.046h-1.476c-.276 0-.507.046-.783.046-.092-.046-.139-.277-.047-.323l.323-.046c.507-.092.507-.184.507-1.152V6.408c0-.876-.414-1.383-1.336-1.383-1.338 0-1.937.922-1.937 2.167v2.075h.138z" fill="#081F2D"/><path d="M31.23 19.732h-.922l-.968-2.305-.876 1.152v1.153h-.83v-4.518h.83v2.397c.092-.184.184-.276.23-.322l1.522-2.075h.83l-1.06 1.521 1.244 2.997zm2.86.092c-.6 0-1.061-.23-1.43-.691-.323-.461-.507-1.015-.507-1.706 0-.645.184-1.199.553-1.66.369-.46.83-.691 1.43-.691.599 0 1.06.23 1.383.691a2.84 2.84 0 01.507 1.66c0 .691-.185 1.29-.554 1.706-.322.46-.783.691-1.383.691zm0-.645a.963.963 0 00.737-.369c.184-.23.323-.692.323-1.337 0-.507-.093-.922-.277-1.245-.184-.276-.415-.46-.784-.46-.691 0-1.06.552-1.06 1.705 0 .553.092.968.276 1.245a.856.856 0 00.784.46zm7.008.553h-.876l-.692-1.89h-1.153v1.89h-.83v-4.518h1.983c.553 0 .968.138 1.199.369.276.23.369.553.369.968 0 .6-.277.968-.83 1.199l.83 1.982zm-1.752-2.49c.276 0 .507-.046.645-.184s.23-.276.23-.507a.74.74 0 00-.23-.507c-.138-.139-.323-.185-.6-.185h-1.106v1.383h1.06zm6.27 2.49h-2.951v-4.518h2.95v.691h-2.12v1.245H45.2v.646h-1.706v1.29h2.12v.646zm4.98 0h-.877l-.368-1.106h-1.752l-.37 1.106h-.691l1.522-4.564h1.014l1.522 4.564zm-1.476-1.706l-.645-2.028-.646 2.028h1.291zm6.225 1.706h-.784l-1.752-2.904c-.047-.046-.092-.139-.139-.231-.046-.046-.046-.092-.138-.23v3.319h-.646v-4.472h.922l1.614 2.674s.093.184.277.507v-3.181h.646v4.518zm3.688-1.06l.784-.185c.092.461.46.692 1.106.692.277 0 .508-.046.692-.185.138-.138.23-.276.23-.415a.665.665 0 00-.092-.322.863.863 0 00-.46-.23l-.877-.231c-.277-.093-.507-.185-.645-.277-.138-.092-.277-.23-.323-.415a1.273 1.273 0 01-.138-.6c0-.414.138-.737.46-.967a1.92 1.92 0 011.153-.37c.37 0 .738.093 1.06.277.323.185.508.415.6.738l-.784.184c-.138-.322-.415-.507-.83-.507-.276 0-.46.046-.599.139-.138.092-.184.23-.184.415 0 .276.23.46.645.553l.784.184c.461.139.784.277.922.507.139.23.23.508.23.784 0 .461-.184.784-.507 1.06-.322.277-.783.37-1.29.37-.462 0-.83-.093-1.2-.277a1.792 1.792 0 01-.737-.922zm8.714 1.06h-.922l-.968-2.305-.876 1.152v1.153h-.83v-4.518h.83v2.397c.092-.184.184-.276.23-.322l1.522-2.075h.83l-1.06 1.521 1.244 2.997zm2.168 0h-.83v-4.518h.83v4.518zm5.164 0h-.784l-1.752-2.904c-.046-.046-.046-.139-.138-.231-.047-.046-.047-.092-.14-.23v3.319h-.644v-4.472h.922l1.613 2.674s.093.184.277.507v-3.181h.646v4.518zm4.887 0v-3.873h-1.199v-.645h3.32v.691h-1.2v3.827h-.921zm6.732 0h-.83V17.75h-1.752v1.982h-.83v-4.518h.83v1.844h1.752v-1.844h.83v4.518zm4.702 0h-2.95v-4.518h2.95v.691h-2.12v1.245h1.705v.646H89.28v1.29h2.12v.646zm4.98 0h-.876l-.692-1.89H93.66v1.89h-.83v-4.518h1.983c.553 0 .968.138 1.2.369.276.23.368.553.368.968 0 .6-.277.968-.83 1.199l.83 1.982zm-1.706-2.49c.277 0 .507-.046.645-.184s.231-.276.231-.507a.74.74 0 00-.23-.507c-.139-.139-.323-.185-.6-.185h-1.107v1.383h1.06zm6.87 2.49h-.876l-.368-1.106h-1.753l-.369 1.106h-.691l1.521-4.564h1.014l1.522 4.564zm-1.475-1.706l-.646-2.028-.645 2.028h1.291zm3.55 1.706h-.83v-4.518h1.89c.508 0 .923.138 1.199.415.277.277.369.6.369.968 0 .415-.138.738-.415 1.014-.277.277-.645.37-1.06.37h-1.153v1.751zm0-2.49h.968c.277 0 .461-.046.6-.184.138-.138.184-.276.184-.507 0-.184-.046-.369-.184-.461-.139-.138-.369-.184-.692-.184h-.876v1.336zm5.763 2.49h-.876v-1.936l-1.522-2.582h1.015l1.06 1.89 1.014-1.89h.784l-1.475 2.628v1.89z" fill="#CF3339"/><path d="M18.275 2.674H1.999v18.625h16.276V2.674z" fill="#fff"/><path d="M20.119 7.884c.046-.139.23-.23.23-.37 0-.091-.092-.138-.138-.23 0-.046.093-.046.093-.138 0-.184.046-.369-.139-.461 0-.092.139-.138.139-.23.046-.185-.047-.37-.047-.6 0-.046.046-.046.046-.092-.092-.323-.046-.692-.138-1.014 0-.185 0-.37-.046-.508-.092-.46-.092-.968-.23-1.429-.047 0-.093-.046-.139-.138.139-.138-.046-.323 0-.507-.046-.23-.369-.323-.323-.6-.046-.138-.23-.092-.322-.184h-.415c-.046-.092-.139-.184-.23-.277-.185.047-.185-.092-.37-.092h-.415c-.184 0-.276 0-.369-.092-.092 0-.092.092-.184.138-.138-.092-.461-.276-.645-.092-.185 0-.37 0-.508-.092-.046.046-.138.092-.23.046-.092.092-.323.092-.415 0-.046.092-.138.184-.277.138-.046-.092-.138-.184-.23-.276-.23.046-.37-.046-.6 0 .093.092 0 .092-.092.138-.092-.046-.323-.046-.369.046a.667.667 0 01-.322-.092c-.185 0-.323 0-.508-.046-.092 0-.138.092-.184.092-.185.046-.461-.046-.692 0l-.138.138c-.046-.046-.092-.138-.185-.138-.138 0-.322 0-.46-.046 0 0 0 .046-.047.046-.138-.046-.599-.046-.922-.046h-.23v.046c-.277 0-.692-.046-.83-.046-.046 0 0-.046-.046-.046-.046.092-.277.092-.415.092-.093.046-.139.138-.185.138L8.454.922c-.184-.046-.507.046-.692 0C7.67.922 7.67.83 7.578.83a1.898 1.898 0 01-.507.046c-.093.046-.139.092-.277.092-.046-.092-.277-.092-.369-.046-.092-.046-.184-.046-.23-.092-.23-.046-.415.046-.6 0-.092.092-.138.184-.23.276-.185 0-.23-.092-.277-.138-.092.092-.323.092-.415 0-.138 0-.184 0-.23-.046-.139.046-.323 0-.508.046-.184-.184-.507 0-.645.092-.046-.046-.092-.138-.185-.138-.046.046-.184.046-.368.092h-.415c-.139 0-.185.139-.37.092-.045.047-.091.185-.184.277H1.4c-.047.092-.277.046-.323.184.046.323-.277.37-.323.6.046.138-.138.323 0 .507 0 .092-.046.138-.092.184-.139.461-.139.922-.23 1.43-.047.138-.047.322-.047.507-.046.322-.046.691-.138 1.014 0 .046.046.046.046.092 0 .185-.092.369-.046.6 0 .092.138.138.092.23-.138.046-.138.277-.138.461 0 .092.092.046.092.138-.046.093-.138.139-.138.23 0 .14.184.231.23.37-.138.184-.46.276-.369.599 0 .046.139 0 .139.046 0 .092-.046.092-.046.185 0 .046.046.138.046.184 0 .092-.093.092-.093.184 0 .046.093.046.093.093-.046.092-.046.322-.046.414-.139.047-.093.277.092.323-.046.185.046.369.092.507 0 .046-.092.092-.092.139 0 .046.138.138.138.276 0 .092-.092.23-.046.323 0 .092.138.092.138.138-.184.046-.184.323-.184.461-.092.046-.092.185-.138.277 0 .138.184.092.23.184.046.093 0 .139-.046.23v.324c.046.092.138.138.184.276v.323c-.092.138-.23.23-.184.415 0 .184.277.323.184.6-.092.045-.184.138-.184.23-.046.276.184.184.23.322 0 .046.047.277.047.323 0 .092-.139.138-.139.23 0 .093.046.139.092.231 0 .139.093.323-.138.323a.14.14 0 000 .184c.092 0 .092.185.185.277 0 .046.092.046.092.184-.185.185-.185.37-.185.692.046.046.185.092.23.184-.091.139-.091.323-.091.461 0 .277-.093.461.046.646-.092.138 0 .369.046.553 0 .138-.046.277 0 .415 0 .092.138.092.138.184-.092.185.046.323.092.507-.138.139 0 .323.047.415 0 .093-.047.185-.047.277 0 .277.277.415.323.692.139.046.185.322.323.368.138.046.369 0 .369.23.092.047.138.185.184.277.092-.138.185-.046.23 0 0 0 .047 0 .093.047.046.046.184.138.23.184.093.092.047.138.139.138.092.046.23-.046.323-.046h.322c.046 0 .093.046.093.046h.092c.138.046.23.23.369.323.138.046.23 0 .415 0 .184.138.415.415.737.277a.495.495 0 00.508-.046c.138-.139.691.092.691.092.046.092.092.138.138.138.139 0 .23-.046.37-.046.045 0 .045.046.138.092.276.046.415-.323.599-.092h.092c.092.092.277.138.415.23.046-.046.185-.092.277-.138.184.139.691-.092.876.092.23-.046.369.185.553 0 .046.047.138.047.23.047 0 0 .047 0 .047-.047h.184c.185 0 .415.047.507-.046.185.139.323-.046.554 0 .184-.184.691.046.876-.092.092.046.184.046.276.138.139-.092.323-.138.415-.23h.093c.184-.23.276.184.599.092.046 0 .092-.046.138-.092.139-.046.23.046.37.046.045-.046 1.152-.092 1.29-.23.323.138.553-.139.738-.277.184 0 .276.046.415 0 .138-.092.184-.277.369-.323h.092c.046 0 .092-.046.092-.046h.323c.092 0 .23.046.323.046.092 0 .046-.046.138-.138.046-.046.184-.138.23-.185.047-.046.047 0 .093-.046.092-.046.138-.138.276-.092.046-.092.093-.23.185-.277 0-.23.23-.138.369-.23.138-.046.184-.277.322-.369.046-.23.323-.415.323-.691 0-.093-.046-.185-.046-.277 0-.138.184-.277.046-.415.046-.184.184-.323.092-.507 0-.046.139-.092.139-.184.046-.139-.046-.277 0-.415.046-.185.138-.415.046-.554.138-.184.046-.415.046-.645 0-.138 0-.323-.092-.461.046-.092.138-.138.23-.184 0-.277 0-.508-.184-.692 0-.138.092-.138.138-.184.092-.093.092-.231.184-.277 0-.092 0-.138-.046-.184-.23 0-.184-.185-.138-.323.046-.092.092-.139.092-.23 0-.093-.138-.14-.138-.231 0-.046 0-.277.046-.323.046-.138.323-.046.23-.323 0-.092-.092-.138-.184-.23-.046-.23.185-.415.185-.6 0-.138-.093-.276-.185-.415 0-.138 0-.23-.046-.276 0-.138.138-.184.184-.277.047-.092 0-.184 0-.322-.046-.093-.092-.185-.046-.23.046-.093.23-.047.23-.185-.045-.093-.045-.23-.137-.277 0-.138-.047-.415-.185-.461 0-.046.092-.092.139-.138 0-.092-.047-.185-.047-.323 0-.092.139-.185.139-.277 0-.092-.046-.092-.093-.138.093-.138.185-.323.093-.507.184-.046.23-.277.046-.323 0-.138 0-.323-.046-.415 0-.046.092-.046.092-.092 0-.092-.046-.092-.092-.184 0-.046.046-.139.046-.185 0-.046-.046-.092-.046-.184 0-.046.092 0 .138-.046.092-.23-.23-.323-.415-.507zm-3.32 8.76l-.092-.14c-.138.093-.323 0-.415 0-.046 0-.184 0-.23.047v-.046c-.093 0-.185.092-.23.138-.047 0-.093.046-.093.139-.092 0-.092-.093-.185-.047-.138.047-.645 0-.737.047-.092.046-.185 0-.323.092-.184-.046-.922-.046-1.107 0-.184 0 0 .046-.184.046-.046 0-.046.046 0 .046-.046 0-.138 0-.184-.046-.323.092-1.015.046-1.338.092-.23 0-1.06 0-1.29-.046l-.047.046c-.046-.046-.092 0-.138-.046-.046 0-.046.046 0 .046h-.046c-.323.784-.738 1.752-.968 2.075v.138c-.093.092-.139.184-.23.276-.047.093 0 .047.045.047-.092.092-.138.23-.23.276v-.046c-.139.138-.139.323-.277.507-.092.046-.092.185-.138.23-.092.093-.046-.045-.139.047 0 .046-.092.138-.138.184.046-.092.138-.184.092-.23-.092.092-.046 0-.138.138l.046.046c0 .046-.092.139-.138.139l.092-.093c-.092-.092-1.153-1.337-1.245-1.383.046-.184.277-.322.277-.553-.046.046.046-.092 0-.092.046 0 .046-.046.092-.093 0 .047-.046.093 0 .139.138-.23.277-.461.461-.692.092-.138 0-.23.046-.276l.046.046.092-.139H7.67c-.046 0-.092 0-.138.047H7.44h.046c.046-.047.046-.047 0-.093v.046c-.046.047-.046 0-.046 0 .046-.046 0-.046.046-.092l-.046.046c0-.046-.047.046 0-.046l-.047.046c0-.046-.046.046-.092.046-.046-.046 0-.046-.046 0v-.046l-.046.046c.046-.092 0-.046.046-.138 0 .046 0 0-.046 0-.046.092 0 .046 0 .092-.046 0-.184-.092-.23-.138v-.046.046c-.047.046 0-.092-.047.046-.046 0 0-.046 0-.092v.092s-.138-.046-.184 0v-.092h-.092v-.046c-.139 0-.277-.092-.415-.184-.046 0 0-.093 0-.093s-.046 0-.046.046-.046 0-.046-.092c0 0 .046.046.046.092l.046-.046h.046c0-.046 0 0-.046-.046v-.046c0-.369.6-1.798.553-1.798v.138c.046-.046.092.046.138.093 0 0 .046.046.093 0v.046a.1.1 0 00.092-.093s.046-.046.092-.138c0 .046 0 .092.046.092s.277.093.323.093c.046-.047.092.046.184 0 .093.046.461.276.554.276.092.046.046-.046.092 0 0 0 .046 0 .046-.046 0 .046.046.046.046.092.046 0 .092.046.184.046.093-.23.139-.415.139-.46l.138.138v-.139l-.092.046c-.046-.184.138-1.152.092-1.337v.047c0-.139 0-.23.046-.415v.092c.092-.046.092-.092.092-.23l-.046.045c-.046-.138.046-.184.046-.368l-.046.046v-.139c.046.093.046-.046.093-.092h-.093v-.046s-.046.046-.046 0c0 0 .046-.046.046-.092-.046-.092-.507-.369-.6-.415l.093-.138h-.092v.046c-.092.046-.415-.046-.507 0-.046 0-.092 0-.139-.046h.047c0-.092 0-.092-.047-.092v.046c-.046.046-.092 0-.138-.046v.046h-.046c.046 0 0-.046 0-.093 0 .093-.046.046-.092.046 0-.046-.092 0-.046-.046v.046c-.046-.046-.093 0-.185 0-.138-.046 0-.046-.184-.046v-.046l-.046.046c0-.138-.093-.046-.046-.184-.047.046-.047-.046-.093 0 0 .092.046.046.046.092-.138 0-.691-.276-.783-.369.046 0 .046-.046 0-.046h-.046v.046c-.047 0-.047-.046-.047 0v-.046c-.046.046-.092-.092-.138 0-.092 0 0-.092-.046-.092l-.046.092s-.369-.138-.369-.092v-.092c-.046 0-.138-.046-.23-.046v-.046a4.654 4.654 0 01-.692-.323c-.046 0 0-.092-.046-.092 0-.046-.046 0-.092 0v.046l-.047-.046c-.046 0-.046-.046-.046-.092.046 0 .046.046.046.092.047 0 .047-.046.047-.046l.046.046c0-.046 0 0-.046-.046h-.047v-.046c-.046-.37.6-1.799.6-1.799l.046.139c.138 0 .277.092.323.138.046 0 .138.046.23.046v.046c.093 0 .185-.046.23-.046 0 0 .093 0 .14-.092.045.046 0 .138.137.092.093 0 .554.23.646.23.092 0 .184.093.277.047.138.092.737.369.922.415.138.046.046-.046.184 0 0 0 .046 0 .046-.046.046.046.093.046.139.138.138 0 .368.092.599.184-.046-.507-.092-1.014-.138-1.198 0 .046.046.046.046 0l-.046-.139s0 .046-.046.046c-.047-.046 0-.138-.047-.138.047 0 .047-.092.047-.092-.093-.046 0-.277-.139-.323-.046-.138.046-.046 0-.23H8.5c0-.046-.277-.83-.323-.83 0 0 .046-.046.046-.092-.092-.139-.184-.323-.276-.461 0 0 .046.046.046 0-.323-.6-.646-1.245-.876-1.983-.046-.138.046-.046 0-.184a.484.484 0 00-.046-.185c.046 0 0-.046-.046-.184l-.047-.092h.047c.184-.6 1.844-.507 1.798-.553v.046c-.046.046-.046.138-.092.184.138.23.184.6.276.83.046.092.139.369.277.46h-.046c.092.14.276.37.369.462H9.56c.046.046.184.23.23.184v.093h.138v-.093c.046.046.185-.046.185-.046l.046.092c.046 0-.046-.092 0-.092.046.092.046-.046.092 0v-.046c.046.046.046 0 .046 0v.046c0-.046 0-.046-.046-.046 0-.046.138-.184.184-.184.047.046 0 .046.047.092.046.046 0-.046.046 0-.092-.092 0-.046-.092-.138l.046.046V5.67h.046c.046 0 .092.046.092 0l.046.046c-.046-.046.046 0 0-.046l.046.046c-.046-.046-.046-.046-.046-.092.046 0 0-.047.046 0v.046s.046 0-.046-.093h.046c.092.047.23-.046.323 0l.046.047h.046l-.138-.093c.046-.046.23-.23.23-.276 0-.046-.092-.046-.092-.046.046 0 .046.046.046 0l-.046-.046h.046c0 .046.093.046.139.092V5.21l-.231.138s.138.046.092 0c0-.046.046-.092.046-.138h-.046v-.046c.046.046.046 0 .046 0 .139.046.046-.047.139-.047.092.047 1.567.784 1.66.876v-.046c.046 0 .046.046 0 .046l-.046-.046c-.047 0 .046.046 0 .046.046.046.046 0 .092 0 0 .046 0 .046-.046.046 0 .047.046.047.046.047-.046 0-.092 0-.046.046s-.093 0-.093.092c0 .046-.046.046 0 .092l-.046-.046c0 .046-.046.046 0 .092h-.046c-.046.092-.369.415-.415.507-.092.139-.369.415-.553.507 0 .047-.046.093-.046.093 0-.046-.046-.046-.046-.046-.093.046-.046-.047-.139 0-.092.046-.415.322-.507.415-.092-.047-.092.046-.184 0-.046 0-.277.184-.323.184-.046-.046 0 .046-.046.092-.046-.092-.092-.092-.092-.092-.046 0-.093-.046-.139-.046v.046c-.046-.046-.046 0-.092 0 0 .092.046.138.046.184.092.185.139.507.23.692.047.323.185 1.383.231 2.167 0-.046.046 0 .092-.046h-.046l.046-.046c0 .046.047.046.093.046-.046-.046 0-.093 0-.093.046.046.046-.046.046 0 0-.046-.046-.046-.046-.046.046 0 .046-.092.092-.138.092-.046.046.046.138-.092.093.092.093 0 .139.092 0-.046.046 0 .046-.046-.046-.046-.046 0-.092-.046.092-.093.553-.323.645-.37 0 0 0 .047.046.047v-.046l-.046-.046s.046 0 .046-.046c0 .046.046 0 .046.046 0-.046.139 0 .092-.092.046-.046.046.046.093.046l-.046-.092s.276-.185.23-.185l.046.046c.046-.046.092-.046.138-.138v.046c.185-.138.37-.184.554-.277.046 0 .046.046.092.046s.046-.046.046-.046h-.046.047c0 .046 0 .046.046.046l.092.047c.046.046 0 0 .046 0v.046c.323.184 1.107 1.567 1.107 1.567l-.138-.046c-.046.092-.185.092-.277.138-.046.046-.138.046-.138.139l-.046-.046a.35.35 0 00-.093.184s-.046.092 0 .138c-.046 0-.092-.046-.138 0-.046.046-.415.23-.46.277 0 .092-.14.092-.14.184-.137.046-.599.277-.737.415-.092.092.046.046-.092.139 0 0 0 .046.046.046-.046 0-.092.046-.138.046-.185.184-.6.46-.83.6-.092.045-.277.184-.508.322-.046.415-.138.876-.23 1.29h.046v-.138c0-.046.046 0 .046 0s-.046.046 0 .046 0-.046.092-.046c0 0-.046.093 0 .093.139.046.83.046.969.046l-.046.184.046-.046-.046-.046c.092-.092.507-.138.553-.23.046-.047.092-.047.184-.047h-.046c0 .093.046.093.092.046l-.046-.046c.046-.046.092 0 .185 0-.046.046.046.046.046.093 0-.093.046-.047.092-.093 0 .046.046-.046.046 0 .046 0 0-.046 0-.046.046.046.092-.046.185-.046.138 0 0 .046.184 0v.046-.092c.046.092.092.046.138.138 0-.046.046 0 .093-.046 0-.092-.047-.046-.093-.092.139-.046.83 0 .969 0v.046h.046V14.8s.046.046.046-.046c0 .046.046.046.046.046 0-.046.138.046.138-.046.092-.046.046.092.092.046v-.092l.415-.046s0 .046.046.046c.093-.046.139-.046.231-.046v.046c.277-.046.553 0 .83 0 .046 0 0 .092.046.092s.046-.046.092-.046v-.046h.046c.046 0 .093 0 .093.046-.047 0-.093 0-.093-.046 0 .046-.046.046 0 .046h-.046c0 .046 0 0 .046 0h.046v.046c.37.277.37 1.844.37 1.844z" fill="#CF3339"/></svg>