<svg width="121" height="14" viewBox="0 0 121 14" fill="none" xmlns="http://www.w3.org/2000/svg"><path d="M.005 1.318h2.342v4.693l4.398-4.693H9.82L5.152 6.011l4.91 6.702H7L3.483 7.735 2.347 8.903v3.81H.005V1.318zm11.401 0h2.42v7.004c0 .783.093 1.355.278 1.716.288.64.917.959 1.886.959.964 0 1.59-.32 1.878-.96.186-.36.278-.932.278-1.715V1.319h2.42v7.003c0 1.211-.188 2.154-.564 2.83-.702 1.236-2.038 1.854-4.012 1.854-1.974 0-3.313-.618-4.02-1.855-.376-.675-.564-1.618-.564-2.83V1.319zm17.856 3.626c0-.593-.157-1.016-.471-1.267-.31-.253-.745-.38-1.306-.38h-2.219v3.355h2.219c.561 0 .997-.136 1.306-.41.314-.272.471-.705.471-1.298zm2.358-.015c0 1.345-.34 2.295-1.02 2.852-.68.556-1.652.835-2.915.835h-2.419v4.096h-2.365V1.32h4.962c1.145 0 2.057.293 2.737.88.68.588 1.02 1.497 1.02 2.729zm8.201.015c0-.593-.157-1.016-.47-1.267-.31-.253-.746-.38-1.307-.38h-2.219v3.355h2.219c.561 0 .997-.136 1.306-.41.314-.272.471-.705.471-1.298zm2.358-.015c0 1.345-.34 2.295-1.02 2.852-.68.556-1.652.835-2.914.835h-2.42v4.096H33.46V1.32h4.963c1.144 0 2.056.293 2.736.88.68.588 1.02 1.497 1.02 2.729zM52.39 3.336h-6.029v2.42h5.535v1.98H46.36v2.929h6.308v2.048h-8.635V1.318h8.356v2.018zm4.515-.038v3.06h2.697c.536 0 .938-.061 1.206-.185.475-.217.711-.644.711-1.283 0-.69-.229-1.155-.688-1.391-.257-.134-.643-.201-1.16-.201h-2.766zm3.262-1.98c.798.016 1.412.114 1.84.294.424.175.8.448 1.097.797.248.288.443.608.588.958.144.35.216.75.216 1.198 0 .542-.137 1.075-.41 1.6-.273.521-.724.89-1.352 1.106.525.211.896.512 1.113.904.221.387.332.98.332 1.778v.765c0 .521.02.873.062 1.06.062.293.206.51.433.649v.286h-2.62a8.23 8.23 0 01-.155-.611 5.604 5.604 0 01-.1-.982l-.016-1.059c-.01-.726-.145-1.21-.402-1.453-.253-.242-.729-.363-1.43-.363h-2.459v4.468h-2.326V1.318h5.589zm7.52 7.877c.073.521.215.91.426 1.168.386.469 1.049.703 1.987.703.561 0 1.018-.062 1.368-.186.664-.237.997-.677.997-1.321 0-.376-.165-.668-.495-.874-.33-.2-.847-.378-1.553-.533l-1.207-.27c-1.184-.268-2.004-.56-2.457-.874-.769-.526-1.152-1.348-1.152-2.465 0-1.021.37-1.869 1.113-2.544.742-.675 1.832-1.013 3.27-1.013 1.2 0 2.223.32 3.069.959.85.634 1.295 1.556 1.337 2.767h-2.288c-.042-.685-.34-1.172-.897-1.461-.37-.19-.832-.286-1.384-.286-.612 0-1.102.124-1.468.371a1.182 1.182 0 00-.55 1.036c0 .408.181.711.542.912.232.134.727.292 1.484.472l1.963.471c.861.207 1.51.482 1.948.827.68.536 1.02 1.312 1.02 2.327 0 1.041-.398 1.906-1.198 2.597-.793.686-1.917 1.028-3.37 1.028-1.484 0-2.65-.337-3.5-1.012-.851-.68-1.277-1.613-1.277-2.799h2.273zm11.148-5.897V5.81h2.797c.5 0 .905-.093 1.215-.278.314-.19.47-.526.47-1.005 0-.531-.205-.882-.617-1.052-.356-.118-.81-.177-1.36-.177h-2.505zm0 4.398v3.037h2.797c.5 0 .89-.066 1.168-.2.505-.247.758-.722.758-1.423 0-.592-.245-1-.735-1.221-.273-.124-.657-.188-1.152-.193h-2.836zm3.261-6.378c1.397.021 2.386.426 2.97 1.215.35.484.524 1.063.524 1.738 0 .697-.175 1.255-.525 1.677-.196.238-.484.455-.866.65.582.212 1.02.547 1.314 1.005.3.459.449 1.016.449 1.67a3.32 3.32 0 01-.51 1.817 3.147 3.147 0 01-2.11 1.468 7.882 7.882 0 01-1.617.155h-5.163V1.318h5.534zM96.39 3.336h-6.03v2.42h5.535v1.98H90.36v2.929h6.307v2.048h-8.634V1.318h8.356v2.018zm4.515-.038v3.06h2.697c.536 0 .938-.061 1.206-.185.474-.217.711-.644.711-1.283 0-.69-.229-1.155-.688-1.391-.257-.134-.644-.201-1.159-.201h-2.767zm3.261-1.98c.799.016 1.413.114 1.841.294.432.18.798.446 1.097.797.248.288.443.608.588.958.143.35.216.75.216 1.198a3.44 3.44 0 01-.41 1.6c-.273.521-.724.89-1.353 1.106.526.211.897.512 1.114.904.221.387.332.98.332 1.778v.765c0 .521.021.873.062 1.06.061.293.206.51.432.649v.286h-2.62a8.023 8.023 0 01-.154-.611 5.585 5.585 0 01-.101-.982l-.015-1.059c-.01-.726-.145-1.21-.403-1.453-.252-.242-.729-.363-1.43-.363h-2.457v4.468h-2.327V1.318h5.588zm13.459 3.557c-.181-.779-.622-1.322-1.323-1.631a3.234 3.234 0 00-1.306-.256c-.917 0-1.672.348-2.265 1.044-.587.69-.881 1.731-.881 3.123 0 1.401.319 2.394.959 2.976.639.582 1.365.873 2.18.873.798 0 1.453-.23 1.963-.688.51-.463.824-1.07.943-1.816h-2.636V6.598h4.747v6.114h-1.577l-.24-1.422c-.459.541-.871.922-1.237 1.144-.629.387-1.402.58-2.319.58-1.51 0-2.747-.523-3.71-1.569-1.005-1.052-1.508-2.489-1.508-4.313 0-1.845.508-3.324 1.523-4.437 1.015-1.113 2.357-1.67 4.027-1.67 1.448 0 2.61.368 3.486 1.105.882.732 1.387 1.647 1.516 2.745h-2.342z" fill="#FF2626"/></svg>