<svg width="57" height="28" viewBox="0 0 57 28" fill="none" xmlns="http://www.w3.org/2000/svg"><path fill-rule="evenodd" clip-rule="evenodd" d="M54.383 15.999c-.117 0-.17.04-.209.157-.431 1.58-.863 3.147-1.282 4.727-.065.235-.13.457-.183.68-.053-.053-.078-.105-.105-.157a848.126 848.126 0 01-1.87-5.211c-.053-.13-.118-.183-.262-.196-.916.013-1.832.013-2.735.013h-.209c.027.078.053.118.066.17.654 1.476 1.308 2.938 1.962 4.414.576 1.28 1.138 2.56 1.714 3.853.026.065.052.13.039.195-.105.327-.196.667-.327.98a.909.909 0 01-.759.562c-.209.026-.431.013-.654.013-.144 0-.288-.027-.445-.04v1.698c.131.013.25.04.38.053l.575.078h1.387c.157-.04.327-.066.484-.118.811-.248 1.348-.796 1.636-1.567.314-.836.588-1.672.863-2.52.85-2.56 1.688-5.12 2.525-7.68 0-.013.013-.026.026-.026V16h-2.617zm-27.29-4.244c0-1.41 0-2.834-.013-4.245 0-.522.014-1.032.157-1.528.236-.901.85-1.345 1.78-1.293.379.026.68.196.902.51.183.26.301.561.327.888.04.352.053.692.053 1.044.013 1.541.013 3.096.013 4.637v.156c.876 0 1.727 0 2.59-.013v-.078c0-1.828 0-3.657-.013-5.485 0-.575-.079-1.15-.262-1.698-.274-.77-.772-1.332-1.57-1.567-.379-.118-.771-.144-1.164-.144-.968.013-1.818.314-2.538.98-.091.078-.17.17-.275.274 0-1.41-.013-2.795-.013-4.18h-2.59c.013 3.971.013 7.928.026 11.911h2.59v-.17zm23.771-.052c0-1.411-.013-2.834-.013-4.245 0-.51.013-1.032.144-1.528.249-.901.85-1.345 1.78-1.28.379.026.68.196.902.51.183.26.301.561.327.888.04.34.052.692.052 1.044.014 1.554.014 3.096.014 4.637v.156h2.59v-.078c0-1.828-.013-3.657-.013-5.485 0-.575-.066-1.15-.262-1.698-.274-.77-.758-1.332-1.57-1.567a3.512 3.512 0 00-1.164-.13c-.968.025-1.818.313-2.538.979-.092.078-.17.17-.275.274v-.901c-.864 0-1.727 0-2.59.013.013 3.97.013 4.65.026 8.633h2.59v-.223zM14.64 24.214c-.04-.183-.119-.392-.132-.575 0-.784.013-1.554.013-2.338 0-.94 0-1.867-.013-2.808a2.601 2.601 0 00-.3-1.162c-.34-.64-.903-1.018-1.57-1.24-.615-.223-1.27-.275-1.924-.288-.81-.013-1.609.065-2.368.366-1.334.548-1.792 1.54-1.883 2.742.81 0 1.635 0 2.46-.013.012-.065.012-.13.025-.196.053-.483.288-.835.733-1.018a2.209 2.209 0 011.478-.066.99.99 0 01.746.85c.026.182.013.378 0 .574a.554.554 0 01-.353.496c-.105.04-.223.092-.34.105-.42.065-.838.117-1.256.17-.746.09-1.479.208-2.198.47-.445.17-.864.391-1.19.77-.42.483-.537 1.071-.524 1.685.026 1.097.641 1.893 1.688 2.207a4.792 4.792 0 002.315.078c.733-.13 1.387-.444 1.87-1.031.027-.027.053-.04.092-.066.079.288.157.575.236.85.929 0 1.832 0 2.8-.014-.184-.144-.327-.379-.406-.548zm-2.814-2.09c-.366 1.006-1.517 1.515-2.498 1.11-.798-.326-.707-1.332-.249-1.698.288-.235.628-.352.994-.405a8.252 8.252 0 001.858-.47h.04c.012.497.025.993-.145 1.463zM8.935 5.93c.04-.51.275-.875.759-1.07a2.17 2.17 0 011.465-.066c.393.117.641.379.72.783.026.17.039.34.039.523-.013.379-.17.588-.55.653a34.1 34.1 0 01-1.609.235c-.706.091-1.4.222-2.067.47-.47.183-.89.431-1.19.836-.366.483-.458 1.018-.445 1.606.04 1.097.641 1.894 1.7 2.207.681.196 1.374.21 2.068.118a.91.91 0 00.523-.261l2.983-3.017c.366-.366.732-.745 1.086-1.11a.34.34 0 00.091-.222c0-.653.013-1.306-.013-1.96-.04-1.083-.562-1.854-1.557-2.298-.601-.274-1.23-.365-1.883-.405-.825-.039-1.649 0-2.447.262-.981.326-1.7.914-2.015 1.932a3.19 3.19 0 00-.143.928h2.485V5.93zM11.8 9.313c-.34.992-1.504 1.514-2.485 1.123-.825-.327-.733-1.345-.223-1.724.275-.21.602-.3.929-.366.445-.091.903-.17 1.347-.274.184-.04.367-.144.576-.222.013.496.013.98-.144 1.463zm9.89 12.746c-.34 1.319-1.648 1.502-2.407 1.11-.445-.235-.732-.614-.89-1.071a5.286 5.286 0 01-.104-3.213c.262-.94.916-1.384 1.884-1.384.72.013 1.203.352 1.426 1.031.052.144.091.3.118.458.026.13.091.182.222.182.72-.013 1.452-.013 2.172-.013h.144c-.04-.222-.066-.43-.118-.627-.327-1.358-1.151-2.246-2.512-2.598-1.151-.3-2.276-.248-3.401.117-1.19.392-2.028 1.163-2.46 2.338a5.91 5.91 0 00-.104 3.8c.392 1.293 1.23 2.155 2.511 2.586.995.34 2.015.379 3.049.17 1.478-.288 2.485-1.11 2.943-2.573.092-.287.13-.6.21-.914-.877 0-1.728 0-2.565.013-.04.209-.065.392-.117.588zm-1.06-11.754a1.82 1.82 0 01-.365.157 2.635 2.635 0 01-1.492-.053c-.445-.143-.693-.457-.798-.9-.013-.092-.026-.17-.04-.262H15.28c.026.549.17 1.058.484 1.502.445.64 1.086 1.019 1.832 1.254.772.248 1.57.3 2.38.26.655-.025 1.283-.104 1.898-.326.72-.248 1.308-.679 1.635-1.384.262-.549.288-1.123.21-1.71a2.006 2.006 0 00-.89-1.45 3.563 3.563 0 00-1.335-.523c-.68-.117-1.373-.222-2.054-.34-.353-.052-.706-.156-.98-.404-.485-.457-.34-1.11.3-1.32.432-.13.864-.143 1.308-.09.524.065.864.326.942.861.013.092.079.079.131.079h2.106c.04 0 .079 0 .118-.013v-.157c-.118-.98-.628-1.685-1.53-2.103-.76-.352-1.557-.43-2.382-.43-.156 0-.274.078-.379.195-.85.85-1.688 1.711-2.525 2.56-.261.261-.523.535-.785.797-.078.078-.104.17-.039.26.079.118.144.249.222.366.419.536.995.836 1.649.967.693.143 1.387.248 2.08.366.38.065.746.17 1.06.417.405.314.497 1.097-.105 1.424zm10.074 12.773c0-.027-.013-.053-.013-.079-.039.013-.078.013-.104.026a2.556 2.556 0 01-.89.105c-.576-.04-.837-.314-.837-.888 0-1.424 0-2.847-.013-4.27 0-.066.013-.118.013-.184h1.818v-1.75h-1.831v-2.572h-2.59v2.375c0 .196-.014.21-.197.21-.405 0-.798.012-1.203 0-.131 0-.157.038-.157.156.013.457 0 .914.013 1.371v.21h1.556v.156c0 .431-.013.862 0 1.293 0 1.07 0 2.129.013 3.2 0 .34.04.679.092 1.005.118.758.576 1.228 1.321 1.384.34.066.707.118 1.047.092.615-.04 1.269-.105 1.975-.235v-.17c0-.444 0-.94-.013-1.436zM1.439 5.016h.104c0 2.129.014 4.636.014 6.765a.4.4 0 00.013.13h2.55c0-2.311-.012-4.597-.012-6.908H6.03v-1.62H4.095V2.6c0-.536.261-.85.784-.94.092-.014.197-.014.288-.014.288.013.576.04.877.053V.158c0-.092-.066-.092-.118-.092a18.72 18.72 0 00-.85-.052c-.654-.04-1.295 0-1.936.17-.969.26-1.44.81-1.518 1.789-.026.392-.013.783-.013 1.175v.235H.026v1.633h1.413zm36.722 11.179c-1.504-.64-3.022-.653-4.552-.078-1.152.43-1.924 1.253-2.303 2.442a5.866 5.866 0 00-.078 3.356c.353 1.345 1.19 2.273 2.472 2.782.144.052.249.039.353-.066.38-.391.772-.783 1.165-1.188.052-.052.091-.104.13-.144-.012-.013-.012-.026-.012-.026-.027-.013-.053-.013-.079-.026-.602-.143-1.007-.522-1.243-1.097a3.977 3.977 0 01-.288-1.45c-.013-.665 0-1.319.223-1.958a1.971 1.971 0 011.792-1.32c.837-.012 1.492.431 1.806 1.228.183.457.248.94.261 1.424v.718c.066-.052.092-.091.13-.13.707-.719 1.414-1.424 2.133-2.142.092-.092.105-.17.053-.288-.38-.927-1.02-1.632-1.963-2.037zm1.636-4.623c1.504.64 3.022.653 4.552.078 1.152-.444 1.924-1.254 2.303-2.429.353-1.11.366-2.233.078-3.356-.353-1.345-1.19-2.273-2.485-2.782-.144-.052-.25-.04-.354.065-.392.392-.771.784-1.164 1.176-.04.052-.091.104-.131.143a.04.04 0 01.013.026c.027 0 .052.014.079.027.601.143 1.007.522 1.242 1.097.197.457.275.953.288 1.45.014.665 0 1.318-.222 1.958a1.985 1.985 0 01-1.792 1.32c-.838.012-1.492-.432-1.806-1.228-.183-.457-.248-.94-.261-1.437v-.705a.605.605 0 00-.131.13c-.707.719-1.413 1.437-2.133 2.142-.091.092-.104.17-.052.288.393.94 1.034 1.632 1.976 2.037zm3.976 5.772v-1.319H41.17v1.646c.013 1.528.013 3.043.013 4.557 0 .758 0 1.528.013 2.286 0 .052 0 .104.013.17h2.59v-.17c0-1.228-.012-2.468 0-3.696 0-.705.105-1.41.38-2.063.301-.693.811-1.137 1.557-1.267.406-.066.81-.052 1.23-.066h.17V15.7c-1.426-.066-2.617.313-3.363 1.645zm-39.6-1.241c0-.287-.026-.574 0-.848.04-.418.262-.667.68-.745.197-.026.393-.013.59-.013.222.013.444.026.666.052v-1.737a1.613 1.613 0 00-.248-.026c-.327-.013-.641-.039-.968-.052a5.734 5.734 0 00-1.884.222c-.759.235-1.269.718-1.387 1.515-.065.444-.039.901-.052 1.358v.3H0v1.75h1.57c0 .98 0 1.946.013 2.952.065-.065.118-.104.17-.157.72-.731 1.452-1.462 2.172-2.194.039-.039.078-.091.117-.13.092-.105.537-.523.655-.653.431-.444.863-.875 1.295-1.32.065-.065.104-.156.17-.274H4.173zM36.735 3.266h-2.55c0 2.873.012 5.746.026 8.632h2.55c-.013-2.886-.026-5.759-.026-8.632z" fill="#000"/></svg>