<svg width="65" height="15" viewBox="0 0 65 15" fill="none" xmlns="http://www.w3.org/2000/svg"><path d="M31.847 6.046h-2.172a.235.235 0 00-.24.241v.31h.137v.206l.138.137v-.103h.207l-.207.137h.138v.24l-.173-.205-.24.24v-.034h.275v.24l-.276-.206v1.34c0 .138.104.241.241.241h2.172c.172 0 .275-.034.344-.137.07-.104.07-.241.07-.378V6.562c0-.172-.035-.31-.07-.412-.034-.07-.138-.104-.344-.104zM29.813 8.28l-.172-.172.034-.034.173.172-.035.034z" fill="#000"/><path d="M32.846 12.163l-.207-.206.035-.034.172.172v.068zm-.241 1.96l-.172-.173.034-.034.172.172-.034.034zm-.62-.929h.448l-.242.206-.206-.206zm.482.035l.172.171-.172.172v-.343zm-1.413.48l-.172-.171h.344l-.172.172zm-.103-.996l.172.172-.172.172v-.344zm-1.517-.378l.104-.103.103.103h-.207zm-.62.55l-.173-.172.035-.034.172.172-.034.034zm.069-11.065l.034.034-.172.172-.035-.034.173-.172zm-.173-.413h.207l-.207.206v-.206zm.552-.24l.138.137h-.276l.138-.137zm.138.756l-.173-.172.173-.172.172.172-.172.172zm-1.276 7.079l-.172-.172.172-.172.173.172-.173.172zm-.448-7.389v-.206h.207l-.207.206zm.104 1.031l-.172-.171.034-.035.172.172-.034.034zm-.31 6.46l-.173-.17.035-.035.172.172-.034.034zm-.69-2.164v-.206h.207l-.207.206zm-.241 7.079l.138-.206.034.034-.172.172zm.207-8.557l.172.172-.172.172-.172-.172.172-.172zm3.309-3.299l.034.035-.172.172-.035-.035.172-.172zm3.515 10.481l-.035-.034.104-.103v-.412c0-.344-.138-.55-.414-.55h-1.93l-.138.137-.034-.034.103-.103h-.689v.103l-.103-.103h-1.069c-.241 0-.379 0-.482-.069-.104-.069-.104-.172-.104-.378V4.053c0-.137 0-.24.07-.309.068-.069.171-.103.413-.103h3.791c.31 0 .483-.206.483-.55V1.304c0-.31-.173-.515-.483-.515h-3.24l.207.206-.345.344-.275-.275-.138.137-.31-.31v.344h-.414V.79h-.034l-.174.17-.138-.138-.138.138.173.137-.173.172-.172-.172.172-.137-.137-.138-.138.138-.138-.138-.138.138-.138-.138-.138.138-.172-.172h-.896c-.345 0-.586.206-.586.55v12.508c0 .344.207.516.586.516h3.102l.31-.31.172.172.138-.137.138.137.172-.172.31.31.31-.31.207.206v-.24h.552v.344h.482l-.137-.138.034-.034.172.172h1.138c.31 0 .413-.138.413-.516v-1.271l-.103.068zm-12.132.447v.344l-.172-.172.172-.172zm-.138-2.818l.104.103h-.207l.103-.103zm-.689 1.512l-.172-.171.034-.035.138.206zm-.758 1.547h-.173v-.172h.173v.172zm-.724 1.065l-.172-.172.172-.172.172.172-.172.172zm-2.171-1.924v-.207h.206l-.206.207zm-.448.79l-.173-.137.173-.172.172.171-.172.138zm-.414-1.65v-.206h.207l-.207.207zm-.103.516l-.173-.172.035-.034.138.206zm-.896-.515l-.173-.172.173-.172.172.172-.172.171zm-.207.618l-.173-.172.035-.034.138.206zm.069-1.306l.138.138h-.276l.138-.138zm-1 1.066l.138-.138.138.138h-.276zm2.413-9.348l-.207-.206h.207v.206zm-.207 3.952l-.138-.171.138-.138.172.172-.172.137zm-.483-1.477l-.172-.207.034-.034.173.172-.035.069zm-.31-1.375l.172-.172.035.035-.207.137zm0-.55h-.207l.207-.206v.206zm-.655-.103v-.206h.207l-.207.206zm.517-.55h.173l-.173.172v-.172zm.173.24h.207l-.207.207v-.206zm1.86-.893l-.137.207-.034-.035.172-.172zm1.517.07l.173.171-.173.172-.138-.172.138-.172zm3.171 10.515v.343l-.172-.172.172-.171zm.483-3.54l-.138.206-.035-.034.173-.172zm.103 1.237l.103.103-.103.103v-.206zm.38.688h-.277v-.07h.276v.07zm-.449 1.443l-.172-.172h.344l-.172.172zm-1.034 1.443l.172-.172v.103c.07-.034.138-.103.207-.137l-.103-.103h.241l.035-.035-.035-.034.138-.137v-.07l-.138-.137h.138v-.206h.31v-.343h.345c.069-.104.138-.172.172-.275 0-.035.035-.035.035-.069l-.173-.172h.241c.035-.069.07-.172.104-.24h-.138v-.07h.138a4.67 4.67 0 00.172-1.236c0-.688-.138-1.272-.413-1.753a3.482 3.482 0 00-1.069-1.168c-.413-.31-.896-.55-1.413-.756-.517-.172-1-.378-1.447-.516a5.582 5.582 0 00-.586-.206 2.289 2.289 0 01-.655-.31 1.621 1.621 0 01-.517-.446.957.957 0 01-.207-.618c0-.447.172-.756.483-.928a2.11 2.11 0 011.034-.275 4 4 0 011.344.24 9.3 9.3 0 011.206.447c.345.138.586.034.758-.275l.62-1.271c.139-.275.207-.447.173-.55-.034-.103-.138-.206-.31-.31-.414-.274-.93-.48-1.586-.687-.62-.172-1.413-.275-2.309-.275-.62 0-1.172.103-1.723.275l-.724.31.035.034-.207.206.103.103-.138.138.138.137.138-.137v.343l-.138-.103-.31.344h.207v.137h-.276V2.37l.034-.07h-.172v-.17l-.241.24.138.138-.345.344-.276-.24a2.97 2.97 0 00-.344.549 3.636 3.636 0 00-.38 1.65c0 .55.07.996.242 1.408.172.413.379.756.655 1.031.276.31.586.55.965.756.379.206.758.378 1.172.516 1 .343 1.792.653 2.343.962.552.31.827.687.827 1.168 0 .103-.034.24-.069.378a.653.653 0 01-.24.378 1.198 1.198 0 01-.518.275 3.204 3.204 0 01-.896.103c-.172 0-.379-.034-.655-.068-.24-.035-.517-.138-.792-.241a8.41 8.41 0 01-.828-.344c-.206-.103-.413-.206-.585-.343l-.242.24-.207-.275-.103.104-.276-.31v.344h-.275l-.104.137v.653h-.482l-.138.206c-.172.241-.241.413-.207.55.035.138.138.275.345.447a6.28 6.28 0 002.343 1.271 8.51 8.51 0 002.413.344c.655 0 1.24-.103 1.827-.275a3.88 3.88 0 001-.48zm21.713-.962l.242-.31.034.035-.276.275zm-.654-3.402h-.207l.207-.24v.24zm-.31 1.718v-.172h.172l-.173.172zm-.07-.79h-.172l.172-.172v.172zm-.034 1.409l-.276-.275.035-.035.241.31zm-.517-3.643l.069-.206.069.137-.138.069zm-.172.137l.069-.206.069.138-.138.068zm.034-.48h.172l-.172.171V7.73zm.62 1.992h.173l-.172.172v-.172zm-3.55 3.85h-.172v-.241h.173v.24zm-.275.309v-.241h.241l-.241.24zm-.38-9.794l-.034-.035.173-.206.034.035-.172.206zm-.31-.928l-.103.103-.103-.103.103-.103-.138-.138.138-.137.138.137-.138.138.103.103zm-.206.206l.103-.103.103.103h-.206zm-.138 1.924l-.035-.034.207-.206.035.034-.207.206zm-.07-3.676l.173.171h-.344l.172-.171zm-.516.55l.138-.138.138.137h-.276zm-.035 1.683v.378l-.172-.172.172-.206V3.47l.173.172-.172.206zm-.275 4.433l-.207-.172.034-.034.207.206h-.034zm-.207-3.746l.207.207-.035.034-.207-.206.035-.035zm-.414-2.37l.207-.207.207.206h-.414zm.62-.585l.035.034-.207.207-.034-.035.207-.206zm.07 1.169v.137l-.07-.069.07-.068zm.138-.138l-.138.138v-.275l.138.137zm.103-.447l-.207.207-.241-.207h.448zm.138-1.1l.138.138-.138.138-.138-.138.138-.137zm8.203 12.715l.172-.274v-.035c-.517-.962-.827-1.546-1.034-1.924l-.241.24v-.275h.241a2.965 2.965 0 01-.241-.48l-.207.206-.035-.035.207-.206a.761.761 0 00-.103-.172l-.07.069-.034-.034.104-.104-.276-.48c-.034-.035-.034-.104-.069-.138h-.103V9.93c-.138-.275-.31-.55-.448-.825h-.104v-.206c0-.035-.034-.035-.034-.069h-.138v-.24c-.034-.104-.103-.172-.138-.275l-.034.034V8.21l-.517-.927-.138.137v-.17h-.172l-.035.035h.035v.034h-.07l-.172.172v-.172h-.069v-.034h.07V7.18h.206v-.207h.103V6.94a.747.747 0 01-.103-.172v.206h-.276v-.343h.173s0-.035-.035-.035h-.034v-.034a.424.424 0 00-.07-.103l-.034.034v-.172h.104v-.034h.034l3.688-4.605c.172-.24.138-.447.069-.55-.035-.103-.172-.275-.483-.275h-1.895c-.207 0-.345.035-.448.07a.81.81 0 00-.345.274l-3.412 4.261V1.373c0-.378-.241-.584-.586-.584h-.138l-.241.24-.103-.103-.173.172-.172-.172-.138.138-.138-.138-.172.172-.276-.275v.31h-.413V.891c-.242.069-.38.275-.38.584v.31l.207.206h-.207v.893h.276l-.276.275h.173l-.173.172V5.84h.138l-.138.138v.343h.035l-.035.035v.069h.276l-.276.24v4.708h.035v.378h-.035v2.096c0 .378.207.584.586.584h1.793c.034 0 .069 0 .137-.034v-.103h.104v-.206h.034v-.172h.242v.172h.034c.035-.103.069-.172.069-.31l.034-3.745c0-.516.138-.928.448-1.237l.07-.07c.172.31.413.723.654 1.204l.517.928h.138v.24h-.034l.103.206.172.172-.069.069c0 .034.035.034.035.069l.103.103-.034.034v.034c.345.722.724 1.444 1.068 2.165.104.24.241.378.414.447a1.8 1.8 0 00.482.069h1.793c.654 0 .689-.413.689-.55a.635.635 0 00-.07-.24l-.171.102zm7.685-12.336l.138-.172.035.034-.173.138zm-.689 7.113v-.172h.172l-.172.172zm-.034.378l.138-.172.034.035-.172.137zm-.207.447l.138-.172.034.034-.172.138zm-.138-3.986h.103l-.103.103v-.103zm-.241 4.914V10.1l.206.207h-.206zm-.242 2.749v-.206h.207l-.206.206zm-.344.653v-.207h.207l-.207.207zm-.172.171l-.173-.171.172-.172.173.172-.172.171zm0 .344l-.173-.172.172-.171.173.171-.172.172zm.068-1.993l.035-.034.172.171-.034.035-.173-.172zm.104-9.69l.172.171-.172.172-.172-.172.172-.172zm-.31 4.604l-.173-.172.173-.171.172.171-.172.172zm-.207 5.533l-.172-.172.172-.172.172.172-.172.172zm.138-1.134h-.207v-.206l.207.206zm-.207-1.169l.172.172-.034.035-.173-.172.035-.035zm1.206-3.917v.103h-.103l.103-.103zm-1.516 6.357l-.138-.137.138-.138v.275zm-.724-10.584v-.206l.207.206h-.207zm6.238-.137l-.207.206v-.24h.207v-.722c0-.344-.138-.55-.413-.55h-1.724l-.206.206V.789h-1.413v.137h-.035V.79h-4.412a.46.46 0 00-.344.137c-.07.103-.07.24-.07.378v1.718c0 .172 0 .31.07.378.069.104.172.138.344.138h1.793c.206 0 .344.034.379.103a.684.684 0 01.069.31v4.57l.31.309-.31.31v.652l.206.275h-.206v.138l.206.206h-.206v1.443l.31.31.172-.138.172.172-.172.171-.172-.137-.276.275.207.206-.241.24v.07h.31v.412h.413l-.137-.172.137-.172.138.138.138-.138v-.172h.241l-.206.207.138.137-.173.172.035.034h-.035v.962h1.586c.379 0 .551-.137.551-.412v-3.505l-.069.069-.034-.035.103-.103v-.55l-.069.069-.034-.034.103-.103V8.52l-.138-.138.138-.137v-.31h-.276v-.309l.276.275v-.859h-.069l.069-.069V5.531h-.276v-.31l.276.276v-.894l-.207.206v-.24h.207v-.584a.39.39 0 01.103-.275c.07-.069.207-.103.414-.103h1.896c.172 0 .31-.07.344-.138.035-.103.07-.24.07-.378v-.103l-.208-.206h.207v-.687zM64.52 13.4h-.172v-.171h.172v.171zm-.207-.515l.138.137h-.138v-.137zm-.448.619l-.103-.104.103-.103v.207zm-.276-.928l.138-.172.035.034-.172.138zm-.275-2.509l-.035-.206h.035v.206zm-.414 3.368l.138-.172.035.034-.173.138zm-.31-3.918v-.206l.207.206h-.207zm-1.413 1.066v-.207l.207.207h-.207zm-.31-3.987l-.173-.171.173-.172.172.171-.172.172zm-.62 4.949l-.173-.172.035-.034.137.206zm-.31-1.753l-.173-.172.034-.034.173.172-.035.034zm-.277.516V10.1h.207l-.207.207zm-.827-7.595l-.172-.172.172-.171.173.171-.173.172zm-.172 4.811l-.172-.172.034-.034.172.172-.034.034zm-.448.516l-.172-.172.172-.172.172.172-.172.172zm-.345.687l-.172-.172.172-.172.172.172-.172.172zm-.276 1.615l-.137-.137.138-.138v.275zm-.31-1.478l.035-.034.172.172-.034.034-.173-.172zm.828-2.268h.206l-.207.207v-.207zm.103 2.784h.207l-.207.206V9.38zm6.72 4.227h-.103v-.344h-.275v-.378h.034l.138-.137-.104-.378h-.206v.137l-.173-.172h.173v-.206h.103l-.103-.378h-.104v-.172h.07L61.727 1.201c-.034-.206-.103-.31-.206-.344-.104-.034-.207-.034-.345-.034H58.04c-.276 0-.448.138-.552.378l-3.17 12.646c0 .069-.035.138-.035.172v.172l.138.137c.069.035.172.035.344.035h2.206c.103 0 .207-.035.345-.07a.5.5 0 00.206-.308l.07-.481.24-1.134c.035-.07.035-.138.07-.172l.654-2.818h-.137v-.687l-.242-.241.207-.206-.103-.103.103-.138v.31h.241l.207-.207V8.04l-.034.034-.173-.172-.172.172-.172-.172.172-.172.172.172.276-.275.552-3.024c0-.103.034-.137.103-.137.035 0 .069.034.103.137l.449 2.268.447 2.165c.035.103.035.24 0 .275a.264.264 0 01-.172.069h-.896c-.138 0-.276.103-.276.24l-.448 1.96a.291.291 0 00.276.343H60.9c.138 0 .241.034.31.103.07.069.104.206.138.412l.138.619.103-.103.035.034-.103.103.206.894a.427.427 0 00.207.274.583.583 0 00.345.104h.379l.172-.172.173.172.172-.172.172.172h.31l.035-.035.034.035h.724c.276 0 .414-.07.448-.207a.582.582 0 000-.343l.035-.206zM8.274 8.005l.068.069v.172c-.034.034-.034.069-.069.103l-.034.034h-.104L8.1 8.35l-.034.103-.138.24-.104.104-.103.137-.104.034c-.068.07-.068.07-.103.07v-.104c.035 0 .069-.034.103-.034v-.07c-.034.034-.068.069-.137.069 0 .034-.035.034-.035.068l.069.104c-.034.034-.034.068-.069.103l-.069-.07c0 .035 0 .07-.034.104l.034.034v.07l-.31-.07-.069.103-.034.138v.034c-.035.035-.07.035-.104.035v-.585c0-.068-.034-.103-.034-.137H6.79v.103l.035.034-.035.104c-.034.034-.034.103-.034.137v.344l-.035.103-.172-.035-.034-.068-.035.034c-.034.069-.034.069-.069.103l-.138.034h-.31c-.034-.034-.069-.068-.069-.103h-.138l-.069-.034-.172-.069-.31-.206-.035-.034h-.069l-.103.068h-.345l-.034-.412v-.206c0-.034-.035-.069-.035-.103 0 0 .035 0 .035-.035l.034-.24.07-.31v-.034c0-.034-.035-.068-.035-.103l-.07-.069v-.171c.035-.035.035-.07.07-.103l.034-.035h.104l.069.035.034-.104.138-.24.241-.275.035-.034V6.87a.553.553 0 01-.138-.24c.034-.103.103-.172.241-.172.035.103.069.172.138.275h.069v-.035l-.035-.034v-.069l.31.069.07-.103.034-.138c.034-.034.069-.034.103-.034l-.034.584c0 .069.034.103.069.138h.034v-.103l-.034-.035.034-.103c.035-.069.035-.103.035-.137v-.172c0-.069 0-.138-.035-.172l.035-.103.172.034.035.035s.034 0 .034-.035c.035-.068.035-.068.103-.103l.138-.034h.31c.035.034.035.069.07.103h.137l.242.103.069.035.103.068h.034l.104.069.034.034h.07l.103-.068h.344l.035.171.034.275v.24c0 .035 0 .07.035.104 0 0-.035 0-.035.034l-.034.24-.138.31v.035c.034 0 .034.034.034.068zM6.203 6.184c.035.034.035.034.035.069-.035.034-.07.103-.104.137L6.1 6.184h.103zm.448-.447l.104.035v.171h-.104c-.034-.068-.069-.137-.069-.206h.07zm.586.069v.31l-.103-.035-.103-.172c.068-.069.137-.069.206-.103zm.896-.722l.035.069-.069-.034.034-.035zm3.688-.309a.747.747 0 00-.103-.172V4.57c-.448-.138-1.137-.069-1.379-.447a1 1 0 00.07-.31c.206-.858.206-1.855.378-2.748-.034-.035-.103-.07-.138-.103C10.237.72 9.927.823 9.203.823c-.483.344-.414 1.237-.793 1.684v.79c-.276.138-.138.688-.69.55-.137.378.38.103.242.447-.276.344-.62.103-.896.103-.069 0-.241.172-.448.103-.103 0-.172-.31-.241-.344-.276-.137-.38.241-.448 0 .172-.412.275-.893.344-1.34.104-.515.173-1.03.345-1.477A1.761 1.761 0 006.066.96C5.653.789 5.24.89 5.034 1.2c-.242.412-.207.756-.345 1.375 0 .034-.207.172-.241.24-.104.344-.035.688-.104 1.031-.103.413-.344.653-.241.894-.345 0-.586.275-1.034.343-1.034.172-1.792-.103-1.93.688.345.309.655-.035.448.687h1.24c.276.172.414.515.69.687-.172.275-.172.275-.345.344.448.103.138.515-.103.55.138.034.241.137.241.343-.275.756-.965 1.169-2.033 1.134-.207.206-.38.825-.241 1.031.723-.034 1.068.31 1.482.584.172.963-.38 1.787-.449 2.818.483.447.793.138 1.38.103.137-.309.275-.618.24-1.134.07-.171.345-.171.345-.446.138-.344-.172-.275-.241-.447.138-.275.413.24.551-.103-.103-.103-.413-.035-.344-.344.275-.31.517-.618 1.034-.687-.104.344.172.344.24.55.414-.069.656.034.793.206.07.103.138.206.173.344.034.068.034.171.034.274-.138.104-.034.413-.344.344.172.378.103.962.103 1.478.517.206.896.343 1.482.24.207-.171.241-.446.31-.687 0-.034.035-.069.035-.103 0-.034.207-.172.241-.24.034-.104.034-.241.069-.379v-.068c0-.207 0-.413.069-.55.034-.138.241-.172.344-.344.31-.481.07-.653.586-.447.035-.171-.034-.412.104-.446.344 0 .655 0 .93-.035.655-.034 1.172-.171 1.345-.756.172-.584-.173-1.134-.449-1.684-.206.035-.482.104-.758.104-.31 0-.586-.035-.724-.207.345-.206-.068-.687 0-.996 0-.069.035-.103.104-.138.172-.034.207.035.241.138.069.206 0 .48.31.412.173 0 .38 0 .345-.24-.172.034-.862-.585-.345-.894.276 0 .345.172.552.24.241-.446.93-.446 1.137-.893 0-.55 0-1.03-.138-1.34z" fill="#000"/></svg>