<svg width="106" height="16" viewBox="0 0 106 16" fill="none" xmlns="http://www.w3.org/2000/svg"><path fill-rule="evenodd" clip-rule="evenodd" d="M7.93 13.321c0-1.324-.474-1.547-1.418-1.988-1.143-.534-2.707-1.268-2.416-4.054L4.936 0h-2.65A1.302 1.302 0 00.998 1.307v13.386A1.301 1.301 0 002.285 16H7.93v-2.68zM15.783 0h-2.68l.868 7.276c.269 2.576-.989 3.388-2.415 4.056-.945.442-1.419.664-1.419 1.988V16h5.646a1.302 1.302 0 001.288-1.307V1.307c0-.718-.575-1.301-1.288-1.307zM12.37 0l.879 7.36c.219 2.094-.69 2.69-1.997 3.302-.988.463-1.84.863-1.84 2.659V16h-.755v-2.68c0-1.796-.853-2.196-1.841-2.659-1.35-.631-2.217-1.202-1.997-3.298L5.667 0h6.703zM9.035 10.252h-.004c-1.57 0-2.697-.606-3.106-1.245a2.617 2.617 0 01-.254-1.748l.066-.495h6.592l.065.495c.12.594.03 1.212-.253 1.747-.41.64-1.536 1.246-3.106 1.246zM85.075 0h-2.312v2.149h2.312V0zm11.397 6.03c0-1.362-.119-3.028-3.025-3.028a5.123 5.123 0 00-3.194 1.317V3.2h-3.675v1.183h1.415V11.2h-2.918v-8H78.5v1.173h1.179l-1.72 5.474-2.353-6.619h-1.529l-2.338 6.62-1.412-5.475h1.224V3.2h-4.53v1.173h.976l2.269 7.967h1.915l2.192-5.69 2.138 5.69h1.855l2.829-7.954h1.568V11.2h-1.546v1.14h10.447V11.2H90.3V5.323a6.317 6.317 0 012.362-.63c1.41 0 1.496.785 1.496 2.007v4.5h-.986v1.138h4.725V11.2H96.47V6.027l.002.004zM106 7.354c0-2.138-1.107-4.352-3.973-4.352-2.686 0-4.54 1.907-4.54 4.906 0 3.046 2.129 4.614 4.91 4.614a4.75 4.75 0 003.412-1.444l-.606-1.138a4.307 4.307 0 01-2.382.805c-1.626 0-2.826-.623-2.922-2.707H106v-.684zm-4.178-3.08c-1.327 0-1.92 1.172-1.974 2.645h3.702c0-1.55-.314-2.646-1.728-2.646z" fill="#A61D47"/><path fill-rule="evenodd" clip-rule="evenodd" d="M67.465 8.385V7.49c0-3.029-1.73-4.548-4.34-4.548h-.046c-4 .03-4.4 3.514-4.4 4.609 0 3.65 1.898 4.928 4.4 4.988.077 0 .14.016.215.016a4.022 4.022 0 004.077-2.936h-2.502a1.655 1.655 0 01-1.575 1.003h-.215c-1.76-.12-1.9-1.565-1.9-2.236h6.286zm-4.386-3.482h.015c.772 0 1.745.456 1.885 1.917h-3.8c.139-1.188.756-1.917 1.9-1.917zM58.153 0h-2.44v12.332h2.44V0zm-6.858 2.94a4.947 4.947 0 00-.71.046 2.978 2.978 0 00-2.055 1.506h-.03V3.2h-2.347V16h2.44v-4.876l.047.014a2.56 2.56 0 001.946 1.354c.22.038.442.059.664.062 2.748 0 3.922-2.388 3.922-4.884 0-3.163-1.821-4.73-3.877-4.73zm-.71 7.636h-.062c-1.575 0-2.023-1.689-2.023-2.768 0-1.445.54-2.8 2.086-2.8 1.667 0 2.084 1.476 2.084 2.938 0 1.338-.586 2.584-2.084 2.63zM32.224 3.2v9.126h2.441V6.697c0-.973.371-1.749 1.514-1.749 1.236 0 1.467 1.096 1.467 1.872v5.506h2.424V6.832c0-1.08.448-1.886 1.683-1.886.697 0 1.313.457 1.313 1.81v5.57h2.424V5.983c0-1.993-1.39-3.04-3.215-3.04a2.83 2.83 0 00-2.454 1.445 3 3 0 00-2.639-1.444 3 3 0 00-2.567 1.565h-.042V3.2h-2.349zm-.91 2.767c-.186-2.585-2.348-3.027-4.156-3.027-2.886 0-3.735 1.719-3.735 3.057 0 3.423 5.744 2.267 5.744 3.787 0 .335-.293.96-1.56.96-1.528 0-2.008-.579-2.008-1.354h-2.5c0 2.432 2.346 3.162 4.447 3.162 1.451 0 4.045-.471 4.045-3.133 0-3.375-5.791-2.312-5.791-3.757 0-.395.17-.896 1.5-.896s1.545.623 1.636 1.2h2.379-.002z" fill="#343B3F"/><path fill-rule="evenodd" clip-rule="evenodd" d="M34.56 0h-2.338v2.196h2.337V0z" fill="#A61D47"/></svg>