<svg width="70" height="24" viewBox="0 0 70 24" fill="none" xmlns="http://www.w3.org/2000/svg"><g clip-path="url(#clip0)"><path d="M56.125 18.71c7.783 0 12.354-3.02 12.354-3.02l-.003 4.447s-4.434 3.704-12.348 3.704h-.003c-7.914 0-12.348-3.704-12.348-3.704l-.003-4.447s4.569 3.02 12.351 3.02z" fill="#FF4646"/><path d="M19.095.188c-3.612 0-6.54 2.935-6.54 6.556 0 3.62 2.928 6.555 6.54 6.555s6.54-2.935 6.54-6.555c0-3.62-2.928-6.556-6.54-6.556zm0 8.997c-1.31 0-2.37-1.128-2.37-2.441 0-1.314 1.063-2.442 2.37-2.442 1.31 0 2.37 1.128 2.37 2.442 0 1.313-1.06 2.441-2.37 2.441zM13.527.5H8.993L7.039 4.738 4.797.499H.307l4.566 8.252-2.126 4.24h4.546L13.527.499zM63.46.188c-3.613 0-6.541 2.935-6.541 6.556 0 3.62 2.928 6.555 6.54 6.555 3.613 0 6.541-2.935 6.541-6.555 0-3.62-2.928-6.556-6.54-6.556zm0 8.997c-1.311 0-2.37-1.128-2.37-2.441 0-1.314 1.062-2.442 2.37-2.442 1.307 0 2.37 1.128 2.37 2.442.003 1.313-1.06 2.441-2.37 2.441zM34.591.521V7.52c0 .92-.746 1.668-1.665 1.668a1.668 1.668 0 01-1.665-1.668v-7h-4.173v7.43c0 3.261 2.452 5.348 5.675 5.348h.32c3.224 0 5.676-2.087 5.676-5.349V.521H34.59zm14.436 0h-5.28v12.47h5.343c3.894 0 6.607-2.79 6.607-6.235v-.16C55.7 3.152 52.868.52 49.027.52zm2.587 6.235c0 1.266-.887 2.263-2.383 2.307-.784.025-1.49 0-1.49 0V4.45s.63-.026 1.49 0c1.527.044 2.383 1.04 2.383 2.306z" fill="#000200"/></g><defs><clipPath id="clip0"><path fill="#fff" d="M0 0h70v24H0z"/></clipPath></defs></svg>