<svg width="86" height="20" viewBox="0 0 86 20" fill="none" xmlns="http://www.w3.org/2000/svg"><path fill-rule="evenodd" clip-rule="evenodd" d="M81.407 16.13c-2.534 0-4.588-2.164-4.588-4.831 0-2.67 2.054-4.834 4.588-4.834 2.536 0 4.591 2.164 4.591 4.834l.001.159c.002.232.004.46-.032.684l-7.035.002c.254 1.092 1.26 1.886 2.463 1.886.83 0 1.564-.39 2.025-.987l2.272.001c-.663 1.811-2.33 3.087-4.285 3.087zm-2.331-5.942c.31-.928 1.254-1.642 2.368-1.642 1.13 0 2.082.692 2.38 1.639l-4.748.003zM60.732 6.469c2.565 0 4.646 2.16 4.646 4.824 0 2.665-2.08 4.825-4.646 4.825-2.565 0-4.644-2.16-4.644-4.825s2.08-4.824 4.644-4.824zm-2.556 4.824c0-1.477 1.137-2.673 2.54-2.673 1.402 0 2.539 1.196 2.539 2.673s-1.137 2.674-2.54 2.674c-1.402 0-2.54-1.197-2.54-2.674z" fill="#00AB8E"/><path d="M55.627 6.45l.001 2.05c-1.18.043-2.125.76-2.16 1.648l-.01 5.796h-2.185V6.66h2.01v.799c.39-.586 1.283-1.01 2.344-1.01z" fill="#00AB8E"/><path fill-rule="evenodd" clip-rule="evenodd" d="M47.03 6.66h1.942l-.004 8.592-.003.091c-.004 1.924-2.325 4.157-4.697 4.157-2.08 0-3.843-1.228-4.43-2.92l2.229-.01a2.83 2.83 0 002.137.977c1.57 0 2.845-1.289 2.845-2.877 0-.06.005-.173.005-.173-.751.836-1.756 1.427-2.797 1.427-2.5 0-4.527-2.12-4.527-4.735 0-2.468 2.076-4.736 4.527-4.736 1.175 0 2.115.418 2.78 1.134l-.008-.926zm-2.63 7.226c1.401 0 2.538-1.177 2.538-2.631 0-1.453-1.137-2.63-2.538-2.63-1.405 0-2.542 1.177-2.542 2.63 0 1.454 1.137 2.63 2.542 2.63z" fill="#00AB8E"/><path d="M35.809 10.38c1.492.268 2.557 1.078 2.557 2.55 0 1.848-1.5 3.244-3.593 3.244-2.077 0-3.939-1.473-3.968-3.3l2.234.006c0 .728.769 1.352 1.727 1.353.898.001 1.506-.423 1.468-1.09-.03-.543-.644-.776-1.749-.927l-.516-.102c-1.568-.332-2.99-1.11-3.031-2.441-.054-1.86 1.428-3.167 3.512-3.167 1.907 0 3.483 1.237 3.738 2.877l-2.34-.004c0-.46-.715-1.04-1.46-1.04-.746 0-1.35.372-1.35.83 0 .63.747.813 1.354.91l1.417.3zm-6.459-.601l.013 6.163h-2.11l.003-5.455c0-.98-.851-1.774-1.9-1.774-1.053 0-1.904.794-1.904 1.774l-.01 5.455h-2.14l.003-9.282 1.992-.003-.003.855a3.563 3.563 0 012.545-1.056c1.914 0 3.47 1.48 3.51 3.323z" fill="#00AB8E"/><path fill-rule="evenodd" clip-rule="evenodd" d="M19.097 6.66l.004 9.282-2.103-.005.003-.905c-.806.71-1.449 1.104-2.588 1.104-2.556 0-4.699-2.166-4.699-4.822 0-2.66 2.143-4.829 4.7-4.829 1.146 0 1.785.434 2.594 1.152l.004-.977h2.085zm-7.223 4.637c0-1.472 1.149-2.665 2.566-2.665 1.415 0 2.563 1.193 2.563 2.665 0 1.474-1.148 2.666-2.563 2.666-1.417 0-2.566-1.192-2.566-2.665z" fill="#00AB8E"/><path d="M0 .5v15.515h2.136v-5.553c.095-.935.824-1.758 1.84-1.758 1.017 0 1.842.787 1.842 1.758l-.008 5.553h2.076l.004-6.451c-.236-1.801-1.503-3.096-3.335-3.096-.95 0-1.809.356-2.421.955V.501H0zm67.184 0v15.493h2.135v-5.555c.096-.934.826-1.757 1.841-1.757 1.017 0 1.841.787 1.841 1.757v5.555h2.071l.001-6.452c-.236-1.801-1.504-3.097-3.336-3.097-.949 0-1.807.357-2.419.956V.5h-2.134z" fill="#00AB8E"/></svg>