<svg width="93" height="20" viewBox="0 0 93 20" fill="none" xmlns="http://www.w3.org/2000/svg"><path fill-rule="evenodd" clip-rule="evenodd" d="M2.373 9.943s.026-.32.693-.453c.213-.027.32-.32.32-.32s2.187-2.082 2.4-.427c.214.24.373-.133.373-.133v-.454s.4-.08.4.267v.347s.56.106.8.026.64-.427 1.146.08c.507.506 1.627 1.6 1.627 1.6l.026 2.508s-.586.8-.56 1.76c-.32.588-.64 1.041-.64 1.041l-.506-.053-.4.506-.666-.16-.747.64s-.08.08-.267-.026c-.186-.107-.479-.4-.72-.213-.24.186-.346.373-.666.213-.2-.102-.38-.238-.533-.4l.16-.373-.267-.32-.426.239-.454-.347v-.267l.454-.533.026-.72-.746-.96-1.12-.481-.347.293-1.04-.027s-.453.374-.667.88C.053 14.345 0 14.718 0 14.718s.453.533.64 1.68c.426.934 1.12 1.761 1.386 1.975.4.08.64-.026.64-.026l.587.64 1.093.186 2.026.667.48-.56 2.107-.16s.853-.347 2.346-2.402c.774-1.414.96-3.121.96-3.121l.08-2.374-.213-.32s.026-1.628-.347-2.214c-.373-.587-2-2.455-2-2.455L9.012 6.1l-.534-.56-.96-.161s-.586-.667-1.173-.133c-1.173-.027-1.36.267-1.36.267s-.933.133-1.333.213c-.213.053-.64-.107-.64-.267 0-.16-.053-.427-.053-.427s.507-.747.453-.907c-.053-.16-.346-.694-.346-.694s-.294-.693.667-.96c.426.4.533.427.533.427s.24.106.373-.134c.427.053.933.027.933.027l.507.48.96.053.613-.534 1.013-.027s.266-.346.907.107c0 0 .133.026.426-.053.294-.08 1.386-.454 1.386-.454s.08-.053.348.107c.266.16.666.026.666.026s.16-.347-.24-.373c-.4-.027-.587-.161-.507-.32.08-.16.213-.454-.08-.8-.293-.347-.533-.668-1.28-.721C9.544.229 9.278.069 9.278.069l-.613.24s-.4-.027-.72-.134c-.32-.106-1.04-.32-1.44-.026C5.572.122 4.372.122 4.372.122l-1.227.32L1.492.47S.985.762.958.976C.931 1.19.665 4.497.665 4.497s-.187.774 0 1.308c.027.533.08 1.28 0 1.734-.08.453-.053 1.12.107 1.387.16.266.934.96.934.96s.507.11.667.057zm11.998-4.455s-.986-.774.374-1.254c.56-.054.72-.027.72-.027l1.066.133s.32-.133.72-.106c.24.16.88.507.88.507s.133.24-.08.373c-.213.134-.506.374-.56.667a.304.304 0 01-.426.24.263.263 0 00-.373.294c.026.347.106.454.427.427.133.133-.027.267-.027.267l-.374.053-.026 1.013s-.267 1.281.427.88l1.12.027.532-.934.107-1.547.293-.373s.107-.347.56-.427c.134 0 .213-.667.213-.667l.24-.373.747-.053.294-.294s.213-.053.453.08c.24.134.453.294.453.294l.32.026s.374.587.427.827c.16.214.586.214.586.214s.187.266-.026.4c-.213.133-1.36 1.093-1.36 1.093s-.506.16-.773-.026c-.213.24-.987 1.574-.987 1.574l-.053.347-.427.453v.134s.907.32 1.173 2.294c-.08.373-.107.32-.107.32l-.026.346s.213.428 1.066.454c.587.054.72.054.72.054l.747.8-.053 1.147s-.133.64-.986.72c-.348.08-.534.454-.534.454h-.64l-1.146-.693-.267.026.026-.773s-.56-.267-.133-.801l.213-.16-.134-1.52s-.026-.854-1.306-1.895h-.64s-.4.107-.667-.026c-.267-.134-.88-.054-.853.346.027.4 0 .827 0 .827s.347.266 0 .854c.107.347.187 1.387.187 1.387s.747.987 1.36 1.147c.4.027.48-.107.48-.107s.906-.08.613.374c-.24.213-.374.346-.374.346h-.586l-.534.347-2.4.027-.187-.133-.906-.027-.214-.134-.053-.56 1.253-.988.266-1.28-.32-.667s.24-.48.32-.693c.08-.213.054-2.348.054-2.348s-.24-.267.026-.506c.026-.508 0-2.588 0-2.588s-.16-.56-.587-.614l-.318.001zm8.72-.4s.346.16.4.347c.213.16.826.026.666-.347-.16-.374-.854-.24-1.066 0zm9.918 10.057l-.373-.907c-1.253-.587-1.413-1.735-1.413-1.735s0-.533-.187-.773c-.186-.24-.48-1.575-.56-2.241 0-.667-.373-1.04-.373-1.04v-.907s.32-.508.08-.72c-.24-.214-.48-.908-.534-1.335-.053-.426-.346-.506-.667-.853-.32-.348-.586-.08-.586-.08l-.826.907s0 .107-.054.8c-.213.214-.346 1.174-.426 1.708-.267.374-.8 2.56-.8 2.56l-.24.534s.053.428-.027.614c-.213.16-.213.774-.213.774l-.186.96s-.4.667-.667.935c-.32-.134-.907.346-.907.346s-.187.534.373.88c.56.347 1.44.16 1.44.16s.693 0 .827-.106c.133-.106.72-.027.72-.027s.16-.266.346-.347c.187-.08.134-.293.134-.293s-.64-.64-.853-.827c-.213-.187-.24-.454-.08-.72.16-.267.56-.827.56-.827s.347 0 .48.106c.186.161.426.161.426.161s.774-.053 1.013-.08c.24-.027.32.373.32.373v.961c0 .56-.533.587-1.013.64-.293.133-.48.4-.24.427.24.027.88.694.88.694s.347.053.773.053c.374-.267 1.627.133 1.627.133s.32.187.4.054c.08-.134.427-.347.693-.56.266-.214.133-.402.133-.402zm-4.08-3.762c-.693 0-1.307-.053-1.307-.053l-.106-.107.16-1.04s.213-.187.16-.8c.053-.427.56-1.6.56-1.6s.346 0 .427.373c.08.374.08 1.867.08 1.867s.827.694.026 1.36zm34.858 3.835l-.375-.912c-1.261-.591-1.423-1.747-1.423-1.747s0-.537-.188-.778c-.187-.242-.483-1.585-.563-2.257 0-.672-.376-1.048-.376-1.048v-.913s.322-.51.08-.725c-.24-.215-.483-.913-.536-1.343-.054-.43-.35-.51-.672-.86-.322-.35-.59-.08-.59-.08l-.833.913s0 .107-.053.806c-.214.215-.349 1.182-.43 1.719-.268.376-.805 2.579-.805 2.579l-.242.537s.054.43-.027.617c-.214.162-.214.78-.214.78l-.188.966s-.403.672-.671.94c-.323-.134-.913.35-.913.35s-.188.537.375.886c.565.348 1.45.161 1.45.161s.698 0 .833-.108c.135-.107.725-.027.725-.027s.162-.268.35-.348c.186-.081.133-.296.133-.296s-.644-.645-.86-.833c-.213-.188-.24-.457-.08-.725.162-.268.564-.833.564-.833s.349 0 .483.107c.188.162.43.162.43.162s.778-.054 1.02-.081c.242-.026.323.376.323.376v.967c0 .564-.537.591-1.02.645-.297.134-.484.403-.242.43.241.027.886.698.886.698s.35.053.779.053c.376-.268 1.638.135 1.638.135s.321.188.402.054c.08-.134.43-.35.7-.563.265-.215.13-.404.13-.404zm-4.107-3.787c-.698 0-1.316-.054-1.316-.054l-.107-.108.162-1.048s.213-.187.16-.805c.054-.43.565-1.612.565-1.612s.348 0 .429.376c.08.376.08 1.88.08 1.88s.833.7.027 1.37zm-15.953 3.607l.113-.113c.036-.065-.113.113-.113.113zm9.04-.613c-.614-.213-.428-1.12-.428-1.12s.187-.374.027-1.014-.08-5.203-.08-5.203c.133-.133.453-1.12.453-1.12s.348 0 .534-.053c.186-.053.16-.694.16-.694l-.48-.693s-1.84-.187-2.266-.027c-.427.16-.96 1.094-.96 1.094s-.028 1.84-.08 2.294c-.054.454-.16.587-.16.587s-.187.32-.48.72c-.294.4.08.667.08.667v.587l-.347.4s0 .8-.08.96c-.08.16-.32.108-.32.108l.027-1.761s-.374-.134-.374-.267c-.213-.24-.506-2.08-.506-2.08l.16-1.895s.24-.453.027-.453-.56-.72-.64-.854c-.08-.133-.294-.133-.294-.133l-1.733-.027-.507-.053c-.24.053-.292.187-.506.48-.187.587.053.64.266.88.053.32.774.961.774.961s0 .08-.054.507c-.266.24 0 .507 0 .507s-.053.266-.026.453c.026.187 0 .427 0 .427s-.053.64-.026 1.094c.106.373.026.72.026.72l-.107.534-.08 1.335s-.08.426-.053.853c.027.427-.053.96-.053.96l-.821.822a2.676 2.676 0 01-.113.166c-.266.373.187.693.187.693s.907.027 1.226 0c.213.107 1.147.053 1.147.053s.267-.16.666-.16c.294-.027.64-.293.64-.293s.294.613.747.613h.373l.934-.534s.16.48.56.614c.187-.08 2.213 0 2.827 0 .56-.213.56-.908.56-.908s-.214-.534-.828-.747zm-5.52-.134c-.534.374-1.066 0-1.066 0-.267-.187-.214-1.44-.214-1.44l.133-.134-.133-2.827.16-.054-.026-1.894s-.293-.053.026-.56c.32-.507.507.427.507.427s.373 2.934.64 3.948c-.027.641.133 1.067.133 1.067s0 .534-.16 1.467zm3.813-4.161l-.134 1.867s-.373.693-.426 1.76c-.107.4-.613.4-.693.374-.08-.027 0-.8 0-.8.133-.054.267-.534.267-.534l.025-1.547c.16-.187.054-.881.054-.881.107-.027.454-.8.454-.8l-.027-.88.373-.694s-.134-.454.027-.721c.214-.026.24.748.346 1.2.108.456-.267 1.656-.267 1.656zm-9.146-.694c1.36-2.16-.213-3.574-.213-3.574l-.027-.748s-.293-.106-.72-.026-1.013-.507-1.013-.507l-1.786-.027s-.427.213-3.493-.027c-1.627.907-.453 1.387-.453 1.387l.72.054s.266.24.613.026c.347-.213.56.053.56.053l.134 4.135-.32.667s.186 2.588.16 3.095c-.027.507-1.014.667-1.014.667s-.053 0-.72-.027c-.613.134-.347.8-.347.8l.32.32s.161.027.32 0c.161-.026.321.214.321.214l4.32-.027.612-.427s.347.053.214-.347c-.108-.907-.96-.747-.96-.747s-.08.187-.428.16c-.346-.025-.88-.586-.88-.586s.027-.774-.053-1.12c-.213-.347-.106-1.067-.08-1.254.026-.187.4-.561.693-.4.293.16.64.053.64.053s.453-.24.64-.187c.24.213.48.133.56-.027.08-.16.427-.16 1.013-.026.586-.134.693-.587.693-.587s-.08-.133-.026-.96zm-1.066-.64c-.587.374-.88.694-.88.694s-.266.106-.453.133c-.187.026-1.2.08-1.493.026 0 0-.267-.053-.347-.267-.08-.213 0-.72 0-.72s-.32-.213-.32-.32c0-.107.027-2.187.027-2.187s.133-.347.426-.294c.293.053 1.946 0 1.946 0s.56.694.907.613c.426.375.666 1.869.187 2.322zm42.37 1.094s-.242-2.455-.428-2.748c-.187-.294-.454-.827-.454-.827s.054-.214-.186-.4c-.746-.427-1.066-1.227-1.227-1.12-.16.107-.506.026-.773-.267-.427-.16-2.665.187-2.746.4-.081.213-.666.587-.666.587s-.373.213-.453.586c-.266.32-1.04 1.814-1.04 1.814l-.187 1.628s-.4.374-.294 1.28c-.106.827.348 2.402.348 2.402l.772 1.28c-.026.187.214.694.348.747.133.054.4.266.4.266s.08.427.426.534c.346.107.667.347.667.347s2.32.133 2.372.053c.054-.08.668-.48.88-.533.214-.054.348-.08.481-.32.134-.24.96-1.28 1.12-1.547.159-.267.613-1.628.692-1.975.08-.347-.053-2.187-.053-2.187zm-1.2-.214l-.135 1.121s-.052.32.081.507c.134.187-.106.88-.32 1.094-.213.213-.373.747-.427.96-.054.213-.319.614-.319.614s-.88.88-1.174.827c-.293-.053-1.466-.107-1.466-.107-.214-.053-1.2-1.387-1.2-1.387l.027-.4s-.507-1.067-.586-1.334c-.081-.267.08-1.787.08-1.921 0-.134.293-.534.293-.534s0-.826.026-.987c.028-.16.587-.586.587-.586l.107-.507s.24.027.48 0c.026-.134.346-.427.507-.534.16-.107.64-.08.64-.08s.506.24 1.013.267c.719.24 1.466 1.44 1.466 1.44s.027.614.24.854c.212.24.08.693.08.693zm10.957 3.441c-.32-.96-.266-2.454-.319-2.64-.186.08-.693-.054-.828-.24-.133-.187-.08-.587-.025-.694.054-.107.4-.774.612-1.2.214-.427 0-1.921 0-1.921s.187-.454-.373-.534c-.56-.08-1.733-1.013-1.733-1.013l-.747-.134s-.346-.107-.506-.107c-.134.187-.427.16-.427.16s-.507-.16-.72.027a9.226 9.226 0 00-.667.133l-1.52.027s-.052.187-.266 0c-.4-.32-.852.107-1.146.294-.293.187-.106.613-.106.613l.746.267s.48.186.64-.16c.507.053.533.853.533.853s-.053.48-.053.827c.16.267-.08.747-.08.747s-.134.294 0 .8c.293 1.04-.026 1.094-.026 1.094s-.027 2.187.052 2.428c.08.24.08.507.08.507s-.16.267-.213.854c-.052.586-.8.827-.8.827s-.32-.08-.826.24c-.533.747.773 1.066.96 1.014.187-.054 1.147.052 1.147.052.293.187.507.027.507.027s.586 0 .72-.08c.132-.08.48.053.48.053s1.359.054 1.546.054c.186 0 .427.32.586.134.16-.187 1.093-.187 1.414-.507.32-.32 1.573-1.894 1.358-2.802zm-5.732-6.402c.027-.48.214-.347.693-.32.48.026.48.213.427.453.08.187.612.267.72.053.346-.346.72.374.72.374s.399.107.534-.106c.426-.24.24.267.052.346-.186.08-.506.854-.4.908.107.053.213.48.08.587-.106 0-.559.213-.559.213s-.108.213-.268.08c-.08-.106-.586-.026-.586-.026s-.213.187-.693.213c-.666.027-.666-.613-.666-.613.132-.08-.081-.454-.081-.454s0-1.227.027-1.708zm3.84 6.51c-.16.106-.348.56-.348.56s-.506.213-.639.373c-.319.054-.56.08-.586.267-.24.107-1.894.053-1.894.053s-.32 0-.346-.586c0 0-.08-.774.054-1.068.08-.4.08-1.52.08-1.52s.133-.266.56-.266c.427 0 .4-.134.4-.134s.453.027.533.24c.08.213.4-.107.4-.107s.64.026.827.4c.133.267.4.187.4.187s.667.667.64.8c-.028.134.08.693-.081.8zM66.076 7.836s.55-.917-.152-1.436c-.032-.734-.032-2.353-.032-2.353s-.019-.629-.243-.764c-.275.122-1.16-.03-1.16-.03l-.58-.58.182-.887s.641-1.07.825-1.1c.183-.03.825.337 1.008.489.427.061 1.772.061 1.772.061l.335.153.52.702-.091 1.192s.121.55-.703.673c0 0-.245.092-.336-.122-.092 0-.307.122-.062.305.062.306-.091 2.17-.091 2.17s-.123.703-.061 1.039c.06.336.213.702.213.702s.122.306-.03.612c-.153.305-.03 1.222.121 1.527.152.306-.03 1.223-.03 1.223l.121 2.353.153 3.238s-.121.551.214.581c.336.03 1.16 0 1.16 0s.489.367.52.703c.031.336-.062 1.467-.062 1.467s-.305.213-.428.244c-.121.031-.732-.306-.732-.306s-.336-.091-.519.091c-.183.183-.367.123-.488.062-.123-.061-.612-.184-.612-.184s-.274-.213-.365-.121c-.093.091-.673.396-.673.396s-1.496-.336-1.74-.275c.153-.518.367-1.1.367-1.1l-.031-.519s.122-.244.275-.275c.152-.03.763-.335 1.068-.916.214-.091.764-.856.091-1.864-.365-.397-.244-.916-.244-.916s.214-.581.336-.55c.153-.122.153-.52.153-.52l.03-1.1.123-.213h-.122l.03-.429s-.213-.488.063-.916c.243-.367.09-.855 0-.916-.093-.062-.123-.642-.123-.642s.062-.305.153-.398c.09-.093-.123-.551-.123-.551z" fill="#000"/><path fill-rule="evenodd" clip-rule="evenodd" d="M65.924 2.947l-1.253-.092-.397-.336.184-.764.55-.58s.61.214.702.428c.64.122 1.862.061 1.862.061l.489.55s.06.886-.061 1.009c-.09.095-.172.197-.245.305l-.153-.06-.06-.154s-.856.275-.856.673c.152.244.275.306.275.306s-.06 1.925-.184 2.108c-.06.275.063 1.283.214 1.65.151.366-.123.916-.123.916s0 .489.061.795c.063.306.214.917.214.917l-.152 1.07s-.123.886.03 1.435c.154.55.214 1.589.214 1.589l.091 1.864s-.183.672-.06.856c.122.183.518.488.518.488l1.222.03s.03.673.152.673c.03.305.03.825.03.825s-.06.122-.151.091c-.091-.03-.734-.366-.734-.366s-.305-.091-.458.091c-.152.184-.671.214-1.13-.275-.306 0-.856.397-.856.397l-1.251-.183.121-.49.061-.61 1.038-.489s.673-1.038.734-1.497c.06-.458-.214-1.375-.214-1.375l-.336-.336s-.092-.46 0-.46c.091 0 .458-.182.52-.733.06-.55-.031-1.313-.031-1.313s.305-.031-.03-.52c-.031-.55.09-1.069.09-1.069s0-.458-.06-1.1c-.093-.428.03-.764.03-.764s.152-.122 0-.488c0-.122.03-.306.03-.306l.061-1.039-.275-.489-.06-2.291c.002-.001-.272-.826-.363-.948z" fill="#CC4F5A"/><path fill-rule="evenodd" clip-rule="evenodd" d="M68.397 6.95l-.336-.428s-.03-.52-.214-.672c-.183-.153-.212-.764-.212-.764l.029-.489s.306-.519.428-.55c.123-.03.672.123.672.123l.52.856-.062 1.008.183.152-.061 1.467.886 2.17-.03 1.1-.673-.031-.52-1.008s.092-1.253-.091-1.253c-.03-.214-.03-.826-.488-1.04 0-.489-.031-.642-.031-.642z" fill="#000"/><path fill-rule="evenodd" clip-rule="evenodd" d="M69.344 8.935s-.336-.397-.275-.733c-.03-.397-.275-1.375-.275-1.375l-.397-.703s0-.337-.306-.52c0-.519-.03-.824-.03-.824l.244-.305s.396.519.428.641c.03.122.061 1.039.061 1.039l.091.183.092.917.183.733s.367 1.008.184.947zm.153.245s-.123.825.121 1.253c.184.06.214-.428.214-.428l-.335-.825z" fill="#CC4F5A"/><path fill-rule="evenodd" clip-rule="evenodd" d="M70.688 14.894l-.092-.672.184-.886s.305.092.55.122c.244.03.518 0 .518 0s-.213 1.008-.183 1.222c-.245.092-.642.367-.977.214z" fill="#000"/><path fill-rule="evenodd" clip-rule="evenodd" d="M71.085 14.436s-.245-.489 0-.642c.213.062.335.122.335.122l-.121.428-.215.092z" fill="#CC4F5A"/><path fill-rule="evenodd" clip-rule="evenodd" d="M72.153 14.313v-.947s.55.764.703.825c.06.183-.396.58-.703.122zm-.03-3.117l-.062-1.588.336-.55.367.397-.03.947s-.367.55-.459.795c-.091.245-.152 0-.152 0zm-.52 6.845s-.458-.336-.488-.856c-.03-.519-.305-.824-.305-.824s.305-.857.275-1.01c.276-.016.553.005.824.062l.275.581.764-.611.152 4.002-.611.428s-.457-.152-.855-.519c.06-.55-.03-1.253-.03-1.253z" fill="#000"/><path fill-rule="evenodd" clip-rule="evenodd" d="M72.367 19.355l-.244-.275-.091-1.314s-.55-.397-.825-1.436l.183-.52s.458.337.58.734c.123.275.276-.061.276-.061s.243-.276.275-.153c.03.122.121 2.873.121 2.873l-.275.152z" fill="#CC4F5A"/><path fill-rule="evenodd" clip-rule="evenodd" d="M72.367 8.752s-.336-.641-.52-.916c-.06-.489-.183-2.261-.183-2.261s-.152-.673-.183-1.07-.153-1.13-.366-1.283c-.336-.031-.978-.184-.978-.184s-.398-.275-.55-.214l-.152.062c0-.184.03-1.528.03-1.528s1.039-.123 1.07-.55c.274-.092 1.832.06 1.832.06l.367-.549s.273.214.305.337c.03.122.184.091.305 0 .123-.092.825.06.825.06l.092.306.487.642-.09 1.59-1.162.122s-.304-.367-.487-.092-.397.672-.397.672.03 4.186.03 4.43c0 .244-.275.366-.275.366z" fill="#000"/><path fill-rule="evenodd" clip-rule="evenodd" d="M72.153 7.377l-.121-1.986s-.366-2.139-.55-2.322c-.184-.183-.611-.275-.703-.275-.091 0-.947-.306-.947-.306l.03-.794s.764-.305.856-.519c.428 0 1.742.03 1.863.122.153-.122.244-.153.336 0 .366-.06.672-.336.826-.275.152.336.487.673.487.673l-.03 1.13s-.062.123-.245.123a1.33 1.33 0 01-.366-.061s-.306-.245-.428-.214c-.121.03-.64.275-.64.458-.061.245-.275.611-.275.611s.03 2.964.03 3.3c0 .335-.123.335-.123.335z" fill="#CC4F5A"/></svg>