<svg width="85" height="15" viewBox="0 0 85 15" fill="none" xmlns="http://www.w3.org/2000/svg"><path d="M.384 13.728V1.06A.9.9 0 01.668.388a.946.946 0 01.68-.274h11.708c.263 0 .487.094.67.285a.93.93 0 01.284.681v.957a.931.931 0 01-.285.682.912.912 0 01-.67.274H4.212v2.961h7.615c.264 0 .488.095.67.285a.9.9 0 01.285.672v.956a.933.933 0 01-.285.682.911.911 0 01-.67.275H4.212v3.001h8.823c.258 0 .478.091.66.275a.915.915 0 01.275.671v.978a.93.93 0 01-.285.681.946.946 0 01-.68.275H1.348a.955.955 0 01-.965-.977zm15.495.041V1.08a.937.937 0 01.964-.966h9.809a.9.9 0 01.68.274.939.939 0 01.274.693v.956a.92.92 0 01-.955.956h-6.945V13.77a.898.898 0 01-.284.671.93.93 0 01-.67.265h-1.908a.961.961 0 01-.894-.57.898.898 0 01-.071-.366zm12.469-3.256c0-.4.118-.686.355-.855.237-.176.467-.265.69-.265h1.199c.61 0 1.096.374 1.462 1.12.46.93 1.29 1.397 2.487 1.403h2.021c1.286 0 2.217-.233 2.792-.701.583-.468.9-1.279.955-2.432h-5.453a.944.944 0 01-.68-.275.949.949 0 01-.274-.682v-.854a.91.91 0 01.274-.672.928.928 0 01.68-.284h5.453c-.068-1.14-.386-1.94-.955-2.402-.568-.468-1.499-.702-2.792-.702h-1.807c-1.205 0-2.038.465-2.498 1.394-.359.753-.843 1.13-1.452 1.13h-1.208a.925.925 0 01-.762-.357 1.24 1.24 0 01-.274-.773c0-.875.294-1.645.883-2.31A5.266 5.266 0 0131.637.511 7.99 7.99 0 0134.4.032h2.265c2.511 0 4.393.604 5.645 1.811 1.26 1.201 1.889 3.06 1.889 5.577 0 2.51-.63 4.365-1.889 5.566-1.252 1.2-3.134 1.8-5.645 1.8h-2.468a8.07 8.07 0 01-2.772-.478 5.314 5.314 0 01-2.193-1.475 3.413 3.413 0 01-.884-2.32z" fill="#000"/><path d="M46.075.744a.608.608 0 01.62-.63h2.275c.175 0 .32.06.436.183a.589.589 0 01.183.447v3.124c1.096-.346 2.074-.519 2.935-.519 1.664 0 2.988.498 3.97 1.496.98.99 1.472 2.421 1.472 4.294 0 3.847-2.15 5.77-6.448 5.77-.982 0-2-.109-3.056-.327-1.05-.223-1.845-.495-2.387-.814V.744zm3.514 5.474v6.004c.582.156 1.323.234 2.224.234.9 0 1.546-.261 1.939-.784.4-.522.599-1.366.599-2.533 0-1.167-.196-2.011-.589-2.534-.386-.53-1.042-.793-1.97-.793-.596 0-1.33.135-2.203.407zm11.21 7.225c-1.056-.977-1.584-2.415-1.584-4.314 0-1.907.528-3.345 1.583-4.315 1.057-.976 2.573-1.465 4.55-1.465 1.983 0 3.502.489 4.559 1.465 1.056.97 1.584 2.408 1.584 4.315 0 1.899-.528 3.337-1.584 4.314-1.056.977-2.576 1.465-4.56 1.465-1.976 0-3.492-.488-4.548-1.465zm2.569-6.96c-.42.55-.63 1.428-.63 2.636 0 1.207.21 2.089.63 2.645.42.556 1.08.834 1.98.834.906 0 1.57-.278 1.99-.834.426-.556.64-1.438.64-2.645 0-1.208-.214-2.086-.64-2.636-.42-.55-1.084-.824-1.99-.824-.9 0-1.56.275-1.98.824zm8.904 7.906a.666.666 0 01-.04-.244c0-.101.054-.214.162-.335l3.534-4.691-3.3-4.671c-.217-.285-.23-.536-.04-.753a.43.43 0 01.345-.142h2.203c.657 0 1.184.298 1.584.895l1.686 2.564 1.685-2.564c.4-.597.927-.895 1.584-.895h2.203a.43.43 0 01.346.142c.19.217.176.468-.04.753l-3.3 4.67 3.533 4.691c.108.123.162.238.162.347a.552.552 0 01-.04.233c-.054.21-.2.316-.437.316h-2.163c-.623 0-1.15-.299-1.584-.896l-1.95-2.645-1.959 2.646c-.427.596-.951.895-1.574.895H72.71c-.237 0-.382-.105-.437-.316z" fill="#0038FF"/></svg>