<svg width="94" height="18" viewBox="0 0 94 18" fill="none" xmlns="http://www.w3.org/2000/svg"><g clip-path="url(#clip0_2044_29)"><path d="M77.198 4.1a3.184 3.184 0 003.454-2.884c.01-.054.01-.108.01-.171h-1.84c-.19.739-.641 1.108-1.624 1.108-.983 0-1.497-.37-1.65-1.108h-1.84a3.206 3.206 0 003.346 3.063c.045 0 .09-.009.144-.009zm-37.837 8.53V5.055h-2.317V16.1h2.417l4.672-7.703V16.1h2.318V5.054h-2.417l-4.672 7.577zm-9.623-7.486a4.567 4.567 0 00-4.212 2.37c.117-2.505.631-3.991 3.608-4.379l4.636-.621-.19-2.469-4.834.649c-4.167.558-5.34 3.675-5.34 8.576 0 4.289 2.003 7.036 5.719 7.036 3.625 0 5.592-2.711 5.592-5.892.18-2.73-1.895-5.08-4.627-5.26-.109-.01-.226-.01-.352-.01zm-.604 8.73c-2.102 0-3.338-1.478-3.338-3.703V9.027c.442-.865 1.624-1.54 3.338-1.54 1.813 0 3.21.828 3.21 2.927 0 2.1-1.109 3.46-3.21 3.46zm62.549-8.82V9.19h-4.519V5.054h-2.318v11.045h2.318v-4.63h4.519v4.63h2.318V5.054h-2.318zM74.844 12.63V5.055h-2.318V16.1h2.417l4.672-7.703V16.1h2.318V5.054h-2.417l-4.672 7.577zm-24.217-.82c-.253 1.235-.605 1.758-1.308 1.758a3.051 3.051 0 01-.857-.09v2.558a2.5 2.5 0 001.146.216 2.556 2.556 0 002.48-1.73c.288-.864.469-1.774.541-2.684a42.93 42.93 0 00.226-4.442h3.084V16.1h2.318V5.054h-7.342a54.479 54.479 0 01-.288 6.757zm18.571 1.298l.036-4.378c.036-2.775-1.714-3.92-4.257-3.92a3.984 3.984 0 00-4.294 3.658v.037h2.228c.126-1.019.956-1.36 2.066-1.36 1.136 0 1.903.341 2.02 1.477l-2.841 1.117c-1.94.774-3.4 1.64-3.4 3.46 0 1.882 1.082 3.09 3.237 3.09a3.4 3.4 0 003.193-2.01c.118 1.334 1.02 1.92 2.589 1.92h.64v-2.127h-.19c-.739-.009-1.027-.288-1.027-.964zm-4.357.865c-1.082 0-1.876-.28-1.876-1.234 0-.83.668-1.199 1.813-1.667l2.219-.892-.027 2.991a2.785 2.785 0 01-2.129.802z" fill="#000"/><path d="M8.938 17.991c4.907.072 8.938-3.955 9.01-8.991-.08-5.045-4.112-9.072-9.01-9C4.032-.072 0 3.955-.072 9c.072 5.036 4.104 9.063 9.01 8.991z" fill="#FFC800"/><path d="M12.807 15.703c-3.058 1.765-6.377 2.08-8.496 1.027a9.003 9.003 0 009.118.063c2.805-1.586 4.537-4.63 4.5-7.928-.125 2.36-2.065 5.072-5.122 6.838zM10.075.667c.622 1.072-.875 3.099-3.347 4.522-2.47 1.424-4.97 1.712-5.592.64a1.275 1.275 0 01-.072-.162 2.203 2.203 0 01.496-1.83c.073-.107.154-.206.235-.314a8.993 8.993 0 012.643-2.307A8.72 8.72 0 017.748.081c.135-.018.261-.036.387-.045a2.22 2.22 0 011.831.487c.037.045.082.09.109.144z" fill="#000"/><path d="M13.908 1.82c1.083 1.874-1.1 5.153-4.88 7.333-3.778 2.18-7.72 2.424-8.793.55a2.297 2.297 0 01-.298-1.036 8.931 8.931 0 00.92 4.297l.01.027c.342.568.83 1.027 1.406 1.324 2.12 1.136 5.7.748 9.056-1.189 3.346-1.928 5.474-4.838 5.556-7.234a3.393 3.393 0 00-.442-1.874 11.4 11.4 0 00-.388-.532 8.887 8.887 0 00-2.886-2.423c.306.19.559.45.74.757z" fill="#000"/><path d="M8.938 17.991c4.907.072 8.938-3.955 9.01-8.991-.08-5.045-4.112-9.072-9.01-9C4.032-.072 0 3.955-.072 9c.072 5.036 4.104 9.063 9.01 8.991z" fill="url(#paint0_radial_2044_29)"/></g><defs><radialGradient id="paint0_radial_2044_29" cx="0" cy="0" r="1" gradientUnits="userSpaceOnUse" gradientTransform="matrix(9.00473 0 0 8.99736 8.936 8.999)"><stop offset=".5" stop-color="#fff" stop-opacity="0"/><stop offset="1" stop-color="#fff" stop-opacity=".35"/></radialGradient><clipPath id="clip0_2044_29"><path fill="#fff" d="M0 0h94v18H0z"/></clipPath></defs></svg>