<svg width="100" height="12" viewBox="0 0 100 12" fill="none" xmlns="http://www.w3.org/2000/svg"><g clip-path="url(#clip0)"><path fill-rule="evenodd" clip-rule="evenodd" d="M62.645 7.346a2.628 2.628 0 01-1.798-.7 2.32 2.32 0 01-.746-1.688c0-.633.269-1.24.746-1.687a2.632 2.632 0 011.797-.7c.675 0 1.321.252 1.798.7a2.32 2.32 0 01.746 1.687 2.32 2.32 0 01-.746 1.688c-.477.447-1.123.7-1.797.7zm0-7.346a5.58 5.58 0 00-2.022.377c-.64.25-1.223.614-1.713 1.075-.49.46-.88 1.007-1.145 1.609a4.694 4.694 0 000 3.795 4.949 4.949 0 001.145 1.609 5.33 5.33 0 001.713 1.075 5.58 5.58 0 002.022.377c.693 0 1.38-.128 2.022-.377a5.32 5.32 0 001.714-1.075c.491-.46.88-1.007 1.146-1.609a4.699 4.699 0 00.403-1.898c0-.651-.137-1.296-.403-1.898a4.95 4.95 0 00-1.146-1.609A5.318 5.318 0 0064.667.377 5.584 5.584 0 0062.644 0zM37.636 6.978c.636-.087 1.875-.259 2.07-.29a.287.287 0 00.216-.436 2.268 2.268 0 01-.408-1.294c0-.633.27-1.24.746-1.687a2.632 2.632 0 011.797-.7c.675 0 1.321.252 1.799.7a2.32 2.32 0 01.747 1.687 2.31 2.31 0 01-.631 1.57 2.6 2.6 0 01-1.574.795s-3.692.514-3.993.558c-.283.043-.327.347-.146.521.962.932 3.798 3.614 3.798 3.614s2.826-2.674 3.787-3.598c.963-.925 1.501-2.167 1.5-3.46-.001-1.315-.559-2.577-1.55-3.506C44.804.522 43.46 0 42.06 0a5.56 5.56 0 00-2.448.564 5.192 5.192 0 00-1.89 1.565 4.782 4.782 0 00-.903 2.209c-.107.794-.007 1.6.29 2.35a.471.471 0 00.529.29zm32.2 2.785h1.816c.263 0 .474-.187.474-.426v-2.78l.818-.46 1.899 3.451a.441.441 0 00.173.162.477.477 0 00.238.053h2.323a.278.278 0 00.261-.404c-.077-.131-2.925-4.889-2.925-4.889S77.761.681 77.832.578c.074-.102.037-.404-.253-.404h-2.218a.49.49 0 00-.216.05.458.458 0 00-.166.14c-.095.122-2.034 2.791-2.034 2.791l-.818.463V.62a.423.423 0 00-.14-.316.478.478 0 00-.337-.13h-1.818c-.27 0-.476.181-.476.457v8.685c0 .282.223.446.481.446zM99.481.174H97.65a.466.466 0 00-.466.449v5.163c0 .678-.134 1.171-.406 1.478-.27.306-.667.458-1.195.458s-.927-.152-1.196-.458c-.269-.307-.406-.8-.406-1.478V.623a.465.465 0 00-.464-.449h-1.832a.51.51 0 00-.344.136.45.45 0 00-.137.325V5.99c0 1.257.376 2.22 1.123 2.89.75.67 1.863 1.004 3.256 1.004 1.393 0 2.507-.335 3.255-1.004.749-.67 1.122-1.633 1.122-2.89V.635a.466.466 0 00-.479-.46zm-18.296 8.49a1.194 1.194 0 00-.093-.492 1.257 1.257 0 00-.289-.42 1.352 1.352 0 00-.44-.28 1.42 1.42 0 00-1.043 0 1.35 1.35 0 00-.44.28 1.26 1.26 0 00-.288.42 1.194 1.194 0 00-.093.492c.008.33.153.642.404.873.251.23.588.359.939.359.35 0 .688-.13.939-.36.25-.23.396-.543.404-.872zm4.85-4.281h-1.379V2.135h1.494c.946 0 1.484.452 1.484 1.053 0 .799-.635 1.195-1.599 1.195zM90.41 9.32l-2.474-3.326c1.72-.355 2.371-1.484 2.371-2.892 0-1.89-1.32-2.928-4.097-2.928h-3.764a.487.487 0 00-.335.128.43.43 0 00-.134.315v8.717c0 .237.21.43.471.43h1.73c.261 0 .477-.194.477-.417V6.274h.709l2.438 3.303c.09.12.196.186.396.186h1.958a.282.282 0 00.254-.443zM30.209 2.135h1.493c.945 0 1.483.452 1.483 1.053 0 .799-.634 1.195-1.598 1.195H30.21V2.135zm0 4.139h.707l2.439 3.303c.09.12.194.186.395.186h1.96a.282.282 0 00.254-.443 6592.71 6592.71 0 01-2.474-3.326c1.72-.355 2.37-1.484 2.37-2.892 0-1.89-1.32-2.928-4.096-2.928h-3.765a.489.489 0 00-.335.128.433.433 0 00-.135.315v8.717c0 .237.211.43.471.43h1.73c.261 0 .48-.194.48-.417V6.274zM5.282 7.346a2.633 2.633 0 01-1.799-.7 2.32 2.32 0 01-.746-1.688c0-.633.27-1.24.746-1.688a2.632 2.632 0 011.798-.7 2.642 2.642 0 011.798.7 2.32 2.32 0 01.746 1.688 2.32 2.32 0 01-.746 1.688c-.477.447-1.123.7-1.798.7h.001zm0-7.346c-.694 0-1.38.128-2.021.377-.64.25-1.223.615-1.714 1.075A4.95 4.95 0 00.403 3.061 4.696 4.696 0 000 4.958c0 .652.137 1.296.403 1.898a4.95 4.95 0 001.144 1.609c.49.46 1.073.825 1.714 1.075a5.58 5.58 0 002.021.377c1.401 0 2.745-.522 3.737-1.452.991-.93 1.548-2.191 1.549-3.507 0-.651-.137-1.296-.403-1.898a4.953 4.953 0 00-1.147-1.61A5.32 5.32 0 007.304.377 5.584 5.584 0 005.28 0h.001zm6.021 9.407c.407.16.848.301 1.188.367.463.09 1.035.135 1.718.135.82 0 1.533-.128 2.14-.386.61-.255 1.074-.615 1.398-1.08a2.72 2.72 0 00.484-1.591c0-.65-.17-1.189-.516-1.616-.343-.43-.958-.83-1.842-1.205-.922-.394-1.486-.667-1.696-.815-.208-.15-.311-.32-.311-.508 0-.175.082-.323.245-.441.164-.119.427-.178.786-.178.583 0 1.262.146 2.024.432.247.093.527.022.644-.247.178-.415.424-1.002.488-1.156a.423.423 0 00-.109-.5.48.48 0 00-.162-.094 8.154 8.154 0 00-2.8-.518c-1.202 0-2.148.25-2.835.744-.688.497-1.03 1.19-1.03 2.076 0 .475.079.886.24 1.233.162.346.41.655.744.922.334.269.837.544 1.507.831.738.31 1.193.518 1.364.619.171.101.294.2.372.3a.55.55 0 01.116.345c0 .21-.097.382-.288.517-.193.134-.494.201-.905.201-.478 0-.997-.094-1.568-.235-.18-.046-.36-.1-.534-.164-.187-.067-.489-.052-.621.262l-.494 1.16c-.136.316.063.515.254.59zm42.645.058L57.063.544c.069-.196-.092-.37-.291-.37h-2.31a.456.456 0 00-.457.327l-1.773 5.917L50.46.489a.439.439 0 00-.173-.231A.488.488 0 0050 .174h-2.314c-.214 0-.369.157-.287.387l3.092 8.901a.43.43 0 00.172.221c.082.054.18.082.28.08h2.562a.444.444 0 00.442-.298h.001zM26.558 1.85V.621a.407.407 0 00-.131-.319.463.463 0 00-.339-.128H19.3a.457.457 0 00-.48.458v1.222c0 .245.24.44.49.44h2.005V9.31c0 .26.18.452.466.452h1.814c.274 0 .479-.187.479-.438v-7.03h2.03a.492.492 0 00.322-.138.435.435 0 00.134-.307z" fill="#0F5DE4"/></g><defs><clipPath id="clip0"><path fill="#fff" d="M0 0h100v12H0z"/></clipPath></defs></svg>