<svg width="86" height="30" viewBox="0 0 86 30" fill="none" xmlns="http://www.w3.org/2000/svg"><path d="M0 0h86v30H0V0z" fill="#EB1B23"/><path d="M80.218 19.236H67.286V16.99h12.932v-4.287H67.286v-1.94h12.932V6.478H62.941v17.046h17.277v-4.287zm-51.122-6.517h8.7V10.8h-8.7v1.92zm13.08-6.242v17.046H25.02V6.477h17.155zm-12.96 12.724h8.578v-2.22h-8.578v2.22zm-6.036-8.442h-6.525v12.644h-4.35V10.759H5.782V6.477H23.18v4.282zm20.8 12.764V6.477h17.155v17.046H43.98zm4.27-12.832v8.462h8.578v-8.462H48.25z" fill="#fff"/></svg>