<svg width="80" height="16" viewBox="0 0 80 16" fill="none" xmlns="http://www.w3.org/2000/svg"><path d="M0 7.213c0 4.127 3.185 7.212 7.393 7.212 1.496 0 2.792-.33 3.914-1.14V10.59c-1.098.722-2.56 1.19-3.937 1.19-2.667 0-4.659-1.903-4.659-4.566S4.703 2.648 7.37 2.648c1.378 0 2.84.468 3.937 1.19V1.14C10.185.33 8.89 0 7.393 0 3.185 0 0 3.085 0 7.213zm63.413-3.69a5.457 5.457 0 00-5.455 5.45 5.457 5.457 0 005.455 5.451 5.456 5.456 0 005.455-5.45 5.457 5.457 0 00-5.455-5.451zm0 8.67c-1.747 0-3.137-1.437-3.137-3.22 0-1.78 1.39-3.218 3.137-3.218 1.748 0 3.139 1.438 3.139 3.219 0 1.782-1.39 3.219-3.139 3.219zM77.55 3.738l-4.53 6.782V3.738h-2.28V14.21h2.316l4.526-6.76v6.76h2.316V3.738H77.55zM21.706 8.695c.568-.344 1.116-1.138 1.116-2.018 0-1.695-1.263-2.94-2.99-2.94h-5.784V14.21h6.015c1.727 0 3.033-1.267 3.033-3.005 0-1.18-.695-2.123-1.39-2.51zm-5.341-2.897h3.108c.589 0 1.032.43 1.032 1.01 0 .579-.442 1.008-1.032 1.008h-3.108V5.798zm3.256 6.352h-3.256V9.876h3.256c.674 0 1.159.493 1.159 1.137-.002.644-.486 1.137-1.16 1.137zm9.112-8.412c-2.043 0-3.58 1.566-3.58 3.605 0 1.654 1.036 3.004 2.535 3.436l-2.81 3.43h2.992l2.687-3.283h1.286v3.284h2.316V3.738h-5.426zm.316 2.06h2.794v3.069h-2.794c-.926 0-1.58-.708-1.58-1.523 0-.86.654-1.546 1.58-1.546zm20.196-2.06h-2.318V14.21h2.318V9.96h4.525v4.25h2.316V3.738H53.77V7.9h-4.525V3.738zM36.45 13.6v-2.316c.904.482 2.01.909 3.273.909 1.537 0 2.507-.467 2.507-1.298 0-.742-.847-1.027-1.926-1.027h-1.768v-2.06h1.768c1.098 0 1.713-.41 1.713-.973 0-.824-.97-1.08-2.092-1.08-1.297 0-2.35.384-3.21.81V4.32c.891-.447 2.073-.796 3.544-.796 2.243 0 4.065 1.215 4.065 2.891 0 1.222-.702 1.973-1.267 2.226.724.348 1.542 1.216 1.542 2.469 0 1.964-1.852 3.315-4.561 3.315-1.554.001-2.692-.342-3.588-.824z" fill="#000"/><path d="M75.128 3.172c1.78 0 3.138-1.122 3.285-2.768L76.557.168c0 .712-.633 1.259-1.43 1.259-.795 0-1.428-.546-1.428-1.259l-1.856.236c.146 1.646 1.504 2.768 3.285 2.768z" fill="#FF0098"/></svg>