<svg width="101" height="20" viewBox="0 0 101 20" fill="none" xmlns="http://www.w3.org/2000/svg"><path d="M74.336 3.466a4.733 4.733 0 00-3.22 1.174l1.03 1.39a3.23 3.23 0 012.158-.827c1.022 0 2.65.4 2.65 2.747 0 2.348-2.037 3.218-3.614 3.543V8.032h-2.32v7.085h2.318V13.53c3.649-.47 6.292-2.63 6.292-5.48 0-2.877-2.403-4.652-5.294-4.584zM72.18 16.704a1.619 1.619 0 00-1.591 1.938 1.623 1.623 0 001.273 1.276 1.618 1.618 0 001.937-1.592 1.63 1.63 0 00-1.62-1.622zm27.54-6.878a3.768 3.768 0 01-2.523 1.024c-1.338-.036-2.634-.973-2.557-2.895.11-2.347 1.629-2.747 2.651-2.747.796 0 1.564.295 2.156.827l1.026-1.395c-1.075-.898-2.047-1.162-3.214-1.18-2.899-.066-5.253 1.708-5.294 4.585 0 2.833 2.14 4.669 4.927 4.574a5.907 5.907 0 003.862-1.536l-1.033-1.257zM84.318 6.898c.052-1.981 1.936-2.279 2.856-1.562.452.349.657 1.134.673 1.562h-3.529zm1.773-3.432c-2.829-.128-4.644 2.057-4.483 4.854.171 2.56 1.902 4.32 4.74 4.3 1.68-.015 2.618-.545 3.835-1.663L89.15 9.77a4.26 4.26 0 01-2.618 1.152c-1.957.02-2.312-1.643-2.23-2.603h5.874c.067-1.466-.299-4.726-4.085-4.854h-.001zM62.784 6.898c.052-1.981 1.944-2.279 2.856-1.562.46.349.657 1.134.673 1.562h-3.529zm1.78-3.432c-2.84-.128-4.648 2.057-4.485 4.857.17 2.56 1.91 4.32 4.74 4.301 1.688-.016 2.616-.546 3.827-1.664l-1.022-1.186a4.312 4.312 0 01-2.618 1.152c-1.961.016-2.311-1.648-2.237-2.603h5.874c.075-1.469-.292-4.73-4.08-4.857zM50.767 5.37h2.764v7.059h2.322v-7.06h2.716V3.67h-7.806l.004 1.7zm-4.645 1.579H42.75V3.67h-2.439v8.759h2.439V8.672h3.367v3.757h2.447V3.67h-2.447l.005 3.279zM34.538 4.773L30.99 8.69V3.67h-2.349v8.759h2.345v-.99l3.547-4v4.99h2.383V3.67h-2.383l.005 1.103z" fill="#000"/><path d="M.901 4.208v7.502a3.236 3.236 0 003.214 3.22h18.943V4.21A3.24 3.24 0 0019.836.982H4.116A3.228 3.228 0 00.9 4.208zm3.214 11.54a4.033 4.033 0 01-3.731-2.491 4.046 4.046 0 01-.309-1.547V4.208a4.05 4.05 0 011.183-2.861A4.04 4.04 0 014.115.16h15.72a4.05 4.05 0 014.04 4.048v11.54H4.116z" fill="#FFB901"/><path d="M6.306 4.9H4.278V3.68h3.248v8.749h-1.22V4.9z" fill="#FFB901"/><path d="M4.585 6.734v5.695h1.218V5.515h-2.54v1.22h1.322zm16.112 2.741h-7.784A1.522 1.522 0 0111.41 7.69a1.525 1.525 0 012.014-1.175 1.523 1.523 0 011.006 1.338h1.22a2.748 2.748 0 00-1.76-2.467 2.74 2.74 0 00-3.678 2.066 2.75 2.75 0 001.186 2.79 2.75 2.75 0 001.514.454h7.784v-1.22z" fill="#FFB901"/><path d="M20.697 11.208h-7.784a3.25 3.25 0 01-2.996-1.985 3.26 3.26 0 012.296-4.451 3.248 3.248 0 013.35 1.296c.37.522.578 1.14.599 1.78h1.219a4.482 4.482 0 00-2.828-4.07A4.47 4.47 0 009.71 4.81a4.482 4.482 0 003.196 7.614h7.785l.006-1.216z" fill="#FFB901"/></svg>