<svg width="64" height="24" viewBox="0 0 64 24" fill="none" xmlns="http://www.w3.org/2000/svg"><path fill-rule="evenodd" clip-rule="evenodd" d="M20.853 4.857h3.469l2.374-2.374C28.002 1.178 29.071.085 29.071.055c0-.03-.775-.051-1.722-.046l-1.721.008-4.775 4.84z" fill="#C4122F"/><path fill-rule="evenodd" clip-rule="evenodd" d="M32.55 23.996h2.393V17.06c0-6.898.001-6.939.152-7.252.36-.742 1.207-1.305 2.271-1.508.737-.141 2.203-.14 2.882.004 1.245.261 2.114.945 2.55 2.006.155.381.156.422.192 7.017l.037 6.633 2.283.04V11.123a4.19 4.19 0 00-.165-1.166c-.24-.827-.64-1.495-1.279-2.134-1.23-1.23-3.02-1.792-5.443-1.709-1.198.041-1.785.151-2.882.54l-.598.212V0h-2.392v23.996zM21.89 6.091c-3.901.44-7.038 3.418-7.708 7.317-.148.862-.15 2.259-.005 3.094.646 3.71 3.412 6.539 7.08 7.24.888.17 2.39.154 3.314-.034a8.685 8.685 0 004.465-2.428c2.274-2.3 3.109-5.659 2.21-8.883-.2-.716-.765-1.89-1.245-2.591-1.016-1.482-2.753-2.787-4.41-3.313-1.183-.375-2.586-.528-3.701-.402zm32.447 0c-3.438.354-6.369 2.748-7.433 6.07-.784 2.449-.487 5.25.782 7.377 1.645 2.754 4.385 4.32 7.557 4.32 3.41 0 6.346-1.837 7.863-4.921.594-1.206.835-2.205.887-3.677.122-3.406-1.56-6.437-4.505-8.115-1.457-.83-3.424-1.233-5.151-1.055zm-49.189.106c-1.938.33-3.292 1.19-4.003 2.548-.361.688-.509 1.304-.511 2.13-.004 1.415.57 2.54 1.7 3.333.94.661 1.61.909 4.387 1.627 2.693.695 3.314.937 3.89 1.514.477.477.655.916.653 1.609-.002.71-.162 1.11-.656 1.638-.414.442-.77.66-1.47.898-1.522.518-3.383.389-4.86-.337-1.098-.54-1.726-1.349-1.999-2.577l-.118-.528H0v.423c0 .606.237 1.466.617 2.238.25.508.465.81.899 1.268 1.283 1.354 2.988 1.952 5.589 1.961 1.225.004 1.726-.067 2.718-.385 2.48-.796 3.983-3.011 3.665-5.402-.194-1.452-.91-2.515-2.24-3.318-.78-.472-1.677-.775-4.035-1.366-2.56-.64-3.274-.905-3.781-1.399-.834-.81-.78-2.03.129-2.94.658-.657 1.602-.94 3.124-.939 1.48.002 2.347.268 3.054.937.47.444.734.911.912 1.613l.134.53 2.27.04-.046-.382c-.165-1.36-.592-2.29-1.443-3.14-.639-.637-1.208-.98-2.16-1.299-1.128-.378-3.003-.508-4.259-.295zm18.96 2.132c2.329.48 4.153 2.087 4.95 4.36.308.88.403 1.578.358 2.625-.108 2.485-1.556 4.698-3.758 5.744-1.803.856-4.014.829-5.795-.07-1.69-.854-2.87-2.292-3.45-4.205-.177-.585-.198-.769-.202-1.776-.005-.956.02-1.215.16-1.735.523-1.92 1.789-3.497 3.498-4.357 1.35-.68 2.81-.88 4.238-.586zm32.766.073c2.427.632 4.335 2.672 4.855 5.187.134.652.154 1.94.04 2.572-.429 2.364-2.136 4.398-4.333 5.16-1.386.481-3 .481-4.386 0-1.092-.379-2.244-1.198-2.984-2.123-2.336-2.92-1.853-7.221 1.072-9.549 1.265-1.006 2.688-1.48 4.286-1.427.563.019 1.075.082 1.45.18z" fill="#000"/></svg>