<svg width="78" height="22" viewBox="0 0 78 22" fill="none" xmlns="http://www.w3.org/2000/svg"><path d="M23.524 15.74h-2.92V6.29h2.92v3.533l2.673-3.533h3.418l-3.356 4.37 4.04 5.05h-3.574l-3.2-4.06v4.09z" fill="#E32329"/><path d="M29.49 11.031c0-1.363.467-2.51 1.43-3.47.963-.961 2.175-1.457 3.636-1.457 1.46 0 2.672.496 3.636 1.457.963.96 1.43 2.107 1.43 3.47s-.467 2.51-1.43 3.47c-.964.961-2.175 1.426-3.636 1.426-1.46 0-2.673-.496-3.636-1.457-.963-.93-1.43-2.107-1.43-3.439zm3.543 1.611c.404.434.901.62 1.492.62.59 0 1.119-.217 1.492-.62.403-.433.59-.991.59-1.642 0-.65-.187-1.208-.59-1.611-.373-.434-.902-.65-1.492-.65-.622-.001-1.119.216-1.492.65-.404.434-.59.96-.59 1.611 0 .682.217 1.209.59 1.642zm6.869 2.975v-2.572c.248.124.497.186.652.186.342 0 .59-.062.746-.217.373-.34.59-1.518.59-3.563l.032-3.16h7.458v9.419h-2.89V8.8h-1.927v1.146c0 2.263-.342 3.843-.963 4.741-.529.806-1.337 1.178-2.393 1.178-.59 0-1.026-.093-1.305-.248zm18.458.123h-7.489V6.29h7.427v2.48h-4.537v.837h3.543V11.9H53.76v1.332h4.6v2.51zm6.03.187c-1.554 0-2.828-.465-3.885-1.364-1.026-.929-1.554-2.107-1.554-3.532 0-1.425.497-2.634 1.523-3.532.994-.93 2.3-1.364 3.853-1.364.933 0 1.74.155 2.393.496v2.727c-.777-.403-1.522-.62-2.3-.62-.714 0-1.305.217-1.77.65a2.13 2.13 0 00-.715 1.643c0 .682.248 1.24.714 1.673.497.434 1.119.62 1.865.62.932 0 1.709-.217 2.33-.682v2.79c-.621.34-1.46.495-2.454.495zm6.06-.187h-3.015l3.884-9.48h2.766l3.916 9.48h-3.108l-.684-1.765h-3.076l-.684 1.766zm2.237-6.165l-.715 2.23h1.398l-.683-2.23zM24.115 18.25v2.759h-3.512V18.25h.311v2.51h1.274v-2.51h.311v2.51h1.274v-2.51h.342zm1.336 2.759h-.248V18.25h.31v2.262l1.834-2.262h.28v2.758h-.31v-2.293l-1.866 2.293zm3.575 0h-.31V18.25h.31v1.146h1.771V18.25h.311v2.758h-.31v-1.364h-1.772v1.364zm4.226 0h-1.087V18.25h.31v1.022h.777c.342 0 .59.093.777.248a.78.78 0 01.28.62.78.78 0 01-.28.62c-.186.155-.435.248-.777.248zm-.777-1.457v1.209h.746c.249 0 .435-.062.56-.155a.542.542 0 00.217-.434c0-.186-.062-.34-.186-.434-.125-.093-.311-.155-.56-.155h-.777v-.03zm2.642 1.457h-.31V18.25h.31v2.758zm2.673 0h-.25V18.25h.311v2.262l1.834-2.262h.28v2.758h-.311v-2.293l-1.865 2.293zm4.256.619v-.867h.28c.186-.248.31-.527.404-.837.093-.34.124-.775.124-1.332v-.341h1.833v2.51h.435v.867h-.28v-.62h-2.485v.62h-.311zm.621-.867h1.678V18.53h-1.212v.186c.032.93-.155 1.61-.466 2.045zm3.513.248h-.249V18.25h.311v2.262l1.834-2.262h.28v2.758h-.312v-2.293l-1.864 2.293zm4.66.061c-.434 0-.807-.123-1.087-.402a1.403 1.403 0 01-.435-1.023c0-.403.155-.744.435-1.023.28-.278.653-.402 1.088-.402.31 0 .59.062.839.217v.31a1.566 1.566 0 00-.84-.248c-.341 0-.62.123-.87.34a1.143 1.143 0 00-.341.837c0 .34.124.62.342.837.248.217.528.34.87.34.342 0 .652-.092.87-.278v.31a2.263 2.263 0 01-.87.185zm2.052-2.82v1.21l1.367-1.21h.404l-1.46 1.271 1.678 1.488h-.435l-1.585-1.395v1.395h-.31V18.25h.34zm3.015 2.759h-.28V18.25h.311v2.262l1.834-2.262h.28v2.758h-.311v-2.293l-1.834 2.293zm-39.778-3.967v3.719A10.876 10.876 0 0111.032 22C4.942 22 0 17.073 0 11S4.941 0 11.032 0c1.46 0 2.828.279 4.102.775L5.78 12.332v4.71h10.35z" fill="#E32329"/><path d="M12.244 11.93l3.884-4.524v4.524h-3.884z" fill="#E32329"/></svg>