<svg width="45" height="52" viewBox="0 0 45 52" fill="none" xmlns="http://www.w3.org/2000/svg"><g clip-path="url(#clip0_1576_6596)" fill="#fff"><path d="M41.892 6.372a2.318 2.318 0 002.314-2.323 2.318 2.318 0 00-2.314-2.322 2.318 2.318 0 00-2.314 2.322 2.318 2.318 0 002.314 2.323zm0 14.511a2.318 2.318 0 002.314-2.322 2.318 2.318 0 00-2.314-2.323 2.318 2.318 0 00-2.314 2.323 2.318 2.318 0 002.314 2.322zm0 14.512a2.318 2.318 0 002.314-2.323 2.318 2.318 0 00-2.314-2.323 2.318 2.318 0 00-2.314 2.323 2.318 2.318 0 002.314 2.323zm0 14.512a2.318 2.318 0 002.314-2.323 2.318 2.318 0 00-2.314-2.323 2.318 2.318 0 00-2.314 2.323 2.318 2.318 0 002.314 2.323zM30.663 6.95a2.895 2.895 0 002.89-2.9 2.895 2.895 0 00-2.89-2.901 2.895 2.895 0 00-2.89 2.9 2.895 2.895 0 002.89 2.902zm0 14.512a2.895 2.895 0 002.89-2.9 2.895 2.895 0 00-2.89-2.902 2.895 2.895 0 00-2.89 2.901 2.896 2.896 0 002.89 2.901zm0 14.512a2.895 2.895 0 002.89-2.9 2.895 2.895 0 00-2.89-2.902 2.895 2.895 0 00-2.89 2.901 2.896 2.896 0 002.89 2.901zm0 14.512a2.895 2.895 0 002.89-2.901 2.895 2.895 0 00-2.89-2.901 2.895 2.895 0 00-2.89 2.9 2.896 2.896 0 002.89 2.902zM18.185 7.526a3.469 3.469 0 003.462-3.475c0-1.92-1.55-3.476-3.462-3.476a3.469 3.469 0 00-3.462 3.476c0 1.92 1.55 3.475 3.462 3.475zm0 14.512a3.469 3.469 0 003.462-3.476c0-1.92-1.55-3.475-3.462-3.475a3.469 3.469 0 00-3.462 3.475c0 1.92 1.55 3.476 3.462 3.476zm0 14.512a3.469 3.469 0 003.462-3.476c0-1.92-1.55-3.476-3.462-3.476a3.469 3.469 0 00-3.462 3.476c0 1.92 1.55 3.476 3.462 3.476zm0 14.511a3.469 3.469 0 003.462-3.475c0-1.92-1.55-3.476-3.462-3.476a3.469 3.469 0 00-3.462 3.476c0 1.92 1.55 3.475 3.462 3.475zM4.668 8.1a4.043 4.043 0 004.034-4.05A4.043 4.043 0 004.668 0 4.043 4.043 0 00.633 4.05 4.043 4.043 0 004.668 8.1zm0 14.512a4.043 4.043 0 004.034-4.05 4.043 4.043 0 00-4.034-4.05 4.043 4.043 0 00-4.035 4.05 4.043 4.043 0 004.035 4.05zm0 14.512a4.043 4.043 0 004.034-4.05 4.043 4.043 0 00-4.034-4.05 4.043 4.043 0 00-4.035 4.05 4.043 4.043 0 004.035 4.05zm0 14.512a4.043 4.043 0 004.034-4.05 4.043 4.043 0 00-4.034-4.051 4.043 4.043 0 00-4.035 4.05 4.043 4.043 0 004.035 4.05z"/></g><defs><clipPath id="clip0_1576_6596"><path fill="#fff" d="M0 0h45v52H0z"/></clipPath></defs></svg>