<svg class="grid__item-icon" xmlns="http://www.w3.org/2000/svg" width="32" height="32" viewBox="0 0 32 32" fill="none">
  <path fill-rule="evenodd" clip-rule="evenodd" d="M18.6667 7.66634C18.6667 10.6119 16.2788 12.9997 13.3333 12.9997C10.3878 12.9997 8 10.6119 8 7.66634C8 4.72082 10.3878 2.33301 13.3333 2.33301C16.2788 2.33301 18.6667 4.72082 18.6667 7.66634ZM16.6667 7.66634C16.6667 9.50729 15.1743 10.9997 13.3333 10.9997C11.4924 10.9997 10 9.50729 10 7.66634C10 5.82539 11.4924 4.33301 13.3333 4.33301C15.1743 4.33301 16.6667 5.82539 16.6667 7.66634Z" fill="white"></path>
  <path d="M17.6934 15.7301C16.3265 15.257 14.8586 15 13.3307 15C8.96913 15 5.09668 17.0943 2.66406 20.332V26.3333H14.6375C14.3844 25.699 14.2014 25.0292 14.0981 24.3333H4.66406V21.0299C6.74569 18.5623 9.8555 17 13.3307 17C14.2567 17 15.1566 17.1109 16.0182 17.3203C16.5059 16.7214 17.0692 16.1865 17.6934 15.7301Z" fill="white"></path>
  <path class="grid__item-path grid__item-path--2" d="M18.9 24.8515C17.5745 24.8515 16.5 23.7423 16.5 22.374C16.5 21.0058 17.5745 19.8966 18.9 19.8966H20.1643C22.0736 19.8966 23.9352 19.2808 25.4889 18.1352L27.3 16.7998H28.5V27.9482H27.3L25.4889 26.6129C24.5805 25.9431 23.5669 25.4544 22.5 25.164V27.6386L20.5516 28.7998L19.7463 24.8515H18.9Z" fill="#8556FC"></path>
</svg>