<svg class="grid__item-icon" xmlns="http://www.w3.org/2000/svg" width="33" height="32" viewBox="0 0 33 32" fill="none">
  <path class="grid__item-path grid__item-path--3" fill-rule="evenodd" clip-rule="evenodd" d="M21.8307 7.66634C21.8307 10.6119 19.4429 12.9997 16.4974 12.9997C13.5519 12.9997 11.1641 10.6119 11.1641 7.66634C11.1641 4.72082 13.5519 2.33301 16.4974 2.33301C19.4429 2.33301 21.8307 4.72082 21.8307 7.66634ZM19.8307 7.66634C19.8307 9.50729 18.3383 10.9997 16.4974 10.9997C14.6565 10.9997 13.1641 9.50729 13.1641 7.66634C13.1641 5.82539 14.6565 4.33301 16.4974 4.33301C18.3383 4.33301 19.8307 5.82539 19.8307 7.66634Z" fill="white"></path>
  <path class="grid__item-path grid__item-path--3" fill-rule="evenodd" clip-rule="evenodd" d="M16.5026 15C12.141 15 8.26855 17.0943 5.83594 20.332V26.3333H27.1693V20.332C24.7366 17.0943 20.8642 15 16.5026 15ZM25.1693 21.0299C23.0877 18.5623 19.9778 17 16.5026 17C13.0274 17 9.91756 18.5623 7.83594 21.0299V24.3333H25.1693V21.0299Z" fill="white"></path>
</svg>