<!-- sample rectangle -->
<svg class="grid__item-icon" xmlns="http://www.w3.org/2000/svg" width="33" height="32" viewBox="0 0 33 32" fill="none">
  <path fill-rule="evenodd" clip-rule="evenodd" d="M19.1667 7.66634C19.1667 10.6119 16.7788 12.9997 13.8333 12.9997C10.8878 12.9997 8.5 10.6119 8.5 7.66634C8.5 4.72082 10.8878 2.33301 13.8333 2.33301C16.7788 2.33301 19.1667 4.72082 19.1667 7.66634ZM17.1667 7.66634C17.1667 9.50729 15.6743 10.9997 13.8333 10.9997C11.9924 10.9997 10.5 9.50729 10.5 7.66634C10.5 5.82539 11.9924 4.33301 13.8333 4.33301C15.6743 4.33301 17.1667 5.82539 17.1667 7.66634Z" fill="white"></path>
  <path d="M3.16797 20.332C5.60058 17.0943 9.47304 15 13.8346 15C15.8403 15 17.7426 15.4429 19.4489 16.2361C18.7816 16.6285 18.1694 17.1044 17.6265 17.6495C16.4408 17.2288 15.1645 17 13.8346 17C10.3594 17 7.2496 18.5623 5.16797 21.0299V24.3333H15.01C15.0351 25.0226 15.1377 25.6921 15.3093 26.3333H3.16797V20.332Z" fill="white"></path>
  <path class="grid__item-path grid__item-path--1" d="M22.1361 17.8887L21.8245 19.4588C21.3047 19.6519 20.8242 19.9217 20.4022 20.2621L18.8673 19.742L17.3906 22.2576L18.6187 23.3064C18.5752 23.5689 18.547 23.8363 18.547 24.1109C18.547 24.3855 18.5752 24.6529 18.6187 24.9154L17.3906 25.9642L18.8673 28.4798L20.4022 27.9597C20.8242 28.3001 21.3047 28.5699 21.8245 28.763L22.1361 30.3331H25.0896L25.4012 28.763C25.921 28.5699 26.4015 28.3001 26.8235 27.9597L28.3584 28.4798L29.8351 25.9642L28.607 24.9154C28.6505 24.6529 28.6787 24.3855 28.6787 24.1109C28.6787 23.8363 28.6505 23.5689 28.607 23.3064L29.8351 22.2576L28.3584 19.742L26.8235 20.2621C26.4015 19.9217 25.921 19.6519 25.4012 19.4588L25.0896 17.8887H22.1361ZM23.6128 21.622C25.0117 21.622 26.1458 22.7364 26.1458 24.1109C26.1458 25.4854 25.0117 26.5998 23.6128 26.5998C22.214 26.5998 21.0799 25.4854 21.0799 24.1109C21.0799 22.7364 22.214 21.622 23.6128 21.622Z" fill="#4070F4"></path>
</svg>